<?xml version="1.0" encoding="UTF-8" standalone="no"?>
<!-- Created with Inkscape (http://www.inkscape.org/) -->

<svg
   width="71.328293mm"
   height="72.769623mm"
   viewBox="0 0 71.328293 72.769623"
   version="1.1"
   id="svg1"
   inkscape:version="1.3.2 (091e20ef0f, 2023-11-25)"
   sodipodi:docname="5a.svg"
   xmlns:inkscape="http://www.inkscape.org/namespaces/inkscape"
   xmlns:sodipodi="http://sodipodi.sourceforge.net/DTD/sodipodi-0.dtd"
   xmlns="http://www.w3.org/2000/svg"
   xmlns:svg="http://www.w3.org/2000/svg">
  <sodipodi:namedview
     id="namedview1"
     pagecolor="#ffffff"
     bordercolor="#000000"
     borderopacity="0.25"
     inkscape:showpageshadow="2"
     inkscape:pageopacity="0.0"
     inkscape:pagecheckerboard="0"
     inkscape:deskcolor="#d1d1d1"
     inkscape:document-units="mm"
     inkscape:zoom="3.2957842"
     inkscape:cx="139.42053"
     inkscape:cy="140.78592"
     inkscape:window-width="2560"
     inkscape:window-height="1600"
     inkscape:window-x="0"
     inkscape:window-y="0"
     inkscape:window-maximized="1"
     inkscape:current-layer="layer1">
    <inkscape:page
       x="0"
       y="0"
       width="71.328293"
       height="72.769623"
       id="page1"
       margin="5.0000005"
       bleed="0" />
  </sodipodi:namedview>
  <defs
     id="defs1">
    <clipPath
       clipPathUnits="userSpaceOnUse"
       id="clipPath230">
      <path
         d="M 0,0 H 793 V 393 H 0 Z"
         transform="matrix(10,0,0,10,0,5.5070931e-5)"
         id="path230" />
    </clipPath>
    <clipPath
       clipPathUnits="userSpaceOnUse"
       id="clipPath231">
      <path
         d="M 0,0 H 793 V 393 H 0 Z"
         transform="matrix(10,0,0,10,0,5.5070931e-5)"
         id="path231" />
    </clipPath>
    <clipPath
       clipPathUnits="userSpaceOnUse"
       id="clipPath232">
      <path
         d="M 0,0 H 793 V 393 H 0 Z"
         transform="matrix(10,0,0,10,0,5.5070931e-5)"
         id="path232" />
    </clipPath>
    <clipPath
       clipPathUnits="userSpaceOnUse"
       id="clipPath233">
      <path
         d="M 0,0 H 793 V 393 H 0 Z"
         transform="matrix(1,0,0,-1,-737.99993,113.2)"
         id="path233" />
    </clipPath>
    <clipPath
       clipPathUnits="userSpaceOnUse"
       id="clipPath234">
      <path
         d="M 0,0 H 793 V 393 H 0 Z"
         transform="matrix(10,0,0,10,0,5.5070931e-5)"
         id="path234" />
    </clipPath>
    <clipPath
       clipPathUnits="userSpaceOnUse"
       id="clipPath235">
      <path
         d="M 0,0 H 793 V 393 H 0 Z"
         transform="matrix(1,0,0,-1,-445.49993,338.2)"
         id="path235" />
    </clipPath>
    <clipPath
       clipPathUnits="userSpaceOnUse"
       id="clipPath236">
      <path
         d="M 0,0 H 793 V 393 H 0 Z"
         transform="matrix(0.50000017,-0.86602529,-0.86602529,-0.50000017,-135.80445,425.62003)"
         id="path236" />
    </clipPath>
    <clipPath
       clipPathUnits="userSpaceOnUse"
       id="clipPath237">
      <path
         d="M 0,0 H 793 V 393 H 0 Z"
         transform="matrix(1,0,0,-1,-436.49997,171.7)"
         id="path237" />
    </clipPath>
    <clipPath
       clipPathUnits="userSpaceOnUse"
       id="clipPath238">
      <path
         d="M 0,0 H 7930 V 3930 H 0 Z m 6502.2,695.199 132,51 L 6612,805 6479.4,754 v 0 l 106.2,6.602 z"
         transform="translate(0,5.5070931e-5)"
         clip-rule="evenodd"
         id="path238" />
    </clipPath>
    <clipPath
       clipPathUnits="userSpaceOnUse"
       id="clipPath239">
      <path
         d="M 0,0 H 793 V 393 H 0 Z"
         transform="matrix(10,0,0,10,0,5.5070931e-5)"
         id="path239" />
    </clipPath>
    <clipPath
       clipPathUnits="userSpaceOnUse"
       id="clipPath240">
      <path
         d="M 0,0 H 793 V 393 H 0 Z"
         transform="matrix(10,0,0,10,0,5.5070931e-5)"
         id="path240" />
    </clipPath>
    <clipPath
       clipPathUnits="userSpaceOnUse"
       id="clipPath241">
      <path
         d="M 0,0 H 793 V 393 H 0 Z"
         transform="matrix(10,0,0,10,0,5.5070931e-5)"
         id="path241" />
    </clipPath>
    <clipPath
       clipPathUnits="userSpaceOnUse"
       id="clipPath242">
      <path
         d="M 0,0 H 793 V 393 H 0 Z"
         transform="matrix(10,0,0,10,0,5.5070931e-5)"
         id="path242" />
    </clipPath>
    <clipPath
       clipPathUnits="userSpaceOnUse"
       id="clipPath244">
      <path
         d="M 0,0 H 793 V 393 H 0 Z"
         transform="matrix(10,0,0,10,0,5.5070931e-5)"
         id="path244" />
    </clipPath>
    <clipPath
       clipPathUnits="userSpaceOnUse"
       id="clipPath246">
      <path
         d="M 0,0 H 793 V 393 H 0 Z"
         transform="matrix(10,0,0,10,0,5.5070931e-5)"
         id="path246" />
    </clipPath>
    <clipPath
       clipPathUnits="userSpaceOnUse"
       id="clipPath247">
      <path
         d="M 0,0 H 793 V 393 H 0 Z"
         transform="matrix(10,0,0,10,0,5.5070931e-5)"
         id="path247" />
    </clipPath>
    <clipPath
       clipPathUnits="userSpaceOnUse"
       id="clipPath248">
      <path
         d="M 0,0 H 793 V 393 H 0 Z"
         transform="matrix(10,0,0,10,0,5.5070931e-5)"
         id="path248" />
    </clipPath>
    <clipPath
       clipPathUnits="userSpaceOnUse"
       id="clipPath249">
      <path
         d="M 0,0 H 793 V 393 H 0 Z"
         transform="matrix(10,0,0,10,0,5.5070931e-5)"
         id="path249" />
    </clipPath>
    <clipPath
       clipPathUnits="userSpaceOnUse"
       id="clipPath250">
      <path
         d="M 0,0 H 793 V 393 H 0 Z"
         transform="matrix(10,0,0,10,0,5.5070931e-5)"
         id="path250" />
    </clipPath>
    <clipPath
       clipPathUnits="userSpaceOnUse"
       id="clipPath251">
      <path
         d="M 0,0 H 793 V 393 H 0 Z"
         transform="matrix(10,0,0,10,0,5.5070931e-5)"
         id="path251" />
    </clipPath>
    <clipPath
       clipPathUnits="userSpaceOnUse"
       id="clipPath252">
      <path
         d="M 0,0 H 793 V 393 H 0 Z"
         transform="matrix(10,0,0,10,0,5.5070931e-5)"
         id="path252" />
    </clipPath>
    <clipPath
       clipPathUnits="userSpaceOnUse"
       id="clipPath253">
      <path
         d="M 0,0 H 793 V 393 H 0 Z"
         transform="matrix(10,0,0,10,0,5.5070931e-5)"
         id="path253" />
    </clipPath>
    <clipPath
       clipPathUnits="userSpaceOnUse"
       id="clipPath254">
      <path
         d="M 0,0 H 793 V 393 H 0 Z"
         transform="matrix(10,0,0,10,0,5.5070931e-5)"
         id="path254" />
    </clipPath>
    <clipPath
       clipPathUnits="userSpaceOnUse"
       id="clipPath255">
      <path
         d="M 0,0 H 793 V 393 H 0 Z"
         transform="matrix(10,0,0,10,0,5.5070931e-5)"
         id="path255" />
    </clipPath>
    <clipPath
       clipPathUnits="userSpaceOnUse"
       id="clipPath256">
      <path
         d="M 0,0 H 793 V 393 H 0 Z"
         transform="matrix(10,0,0,10,0,5.5070931e-5)"
         id="path256" />
    </clipPath>
    <clipPath
       clipPathUnits="userSpaceOnUse"
       id="clipPath257">
      <path
         d="M 0,0 H 793 V 393 H 0 Z"
         transform="matrix(10,0,0,10,0,5.5070931e-5)"
         id="path257" />
    </clipPath>
    <clipPath
       clipPathUnits="userSpaceOnUse"
       id="clipPath258">
      <path
         d="M 0,0 H 7930 V 3930 H 0 Z m 4843.8,3100 -64.8,129 -72.6,-36 64.8,-129.6 v 0 l -3.6,98.4 z"
         transform="translate(0,5.5070931e-5)"
         clip-rule="evenodd"
         id="path258" />
    </clipPath>
    <clipPath
       clipPathUnits="userSpaceOnUse"
       id="clipPath259">
      <path
         d="M 0,0 H 793 V 393 H 0 Z"
         transform="matrix(10,0,0,10,0,5.5070931e-5)"
         id="path259" />
    </clipPath>
    <clipPath
       clipPathUnits="userSpaceOnUse"
       id="clipPath260">
      <path
         d="M 0,0 H 7930 V 3930 H 0 Z m 7404.6,1531.6 64.8,-129 72.6,36 -64.8,129.6 v 0 l 4.2,-99 z"
         transform="translate(0,5.5070931e-5)"
         clip-rule="evenodd"
         id="path260" />
    </clipPath>
    <clipPath
       clipPathUnits="userSpaceOnUse"
       id="clipPath261">
      <path
         d="M 0,0 H 793 V 393 H 0 Z"
         transform="matrix(10,0,0,10,0,5.5070931e-5)"
         id="path261" />
    </clipPath>
    <clipPath
       clipPathUnits="userSpaceOnUse"
       id="clipPath262">
      <path
         d="M 0,0 H 793 V 393 H 0 Z"
         transform="matrix(10,0,0,10,0,5.5070931e-5)"
         id="path262" />
    </clipPath>
    <clipPath
       clipPathUnits="userSpaceOnUse"
       id="clipPath263">
      <path
         d="M 0,0 H 793 V 393 H 0 Z"
         transform="matrix(10,0,0,10,0,5.5070931e-5)"
         id="path263" />
    </clipPath>
    <clipPath
       clipPathUnits="userSpaceOnUse"
       id="clipPath264">
      <path
         d="M 0,0 H 793 V 393 H 0 Z"
         transform="matrix(10,0,0,10,0,5.5070931e-5)"
         id="path264" />
    </clipPath>
    <clipPath
       clipPathUnits="userSpaceOnUse"
       id="clipPath265">
      <path
         d="M 0,0 H 793 V 393 H 0 Z"
         transform="matrix(10,0,0,10,0,5.5070931e-5)"
         id="path265" />
    </clipPath>
    <clipPath
       clipPathUnits="userSpaceOnUse"
       id="clipPath266">
      <path
         d="M 0,0 H 7930 V 3930 H 0 Z m 4827,1015 h 132 v 54 h -132 v 0 l 90,-27 z m -390,444 v 132 h -54 v -132 l 27,90 z"
         transform="translate(0,5.5070931e-5)"
         clip-rule="evenodd"
         id="path266" />
    </clipPath>
    <clipPath
       clipPathUnits="userSpaceOnUse"
       id="clipPath267">
      <path
         d="M 0,0 H 793 V 393 H 0 Z"
         transform="matrix(10,0,0,10,0,5.5070931e-5)"
         id="path267" />
    </clipPath>
    <clipPath
       clipPathUnits="userSpaceOnUse"
       id="clipPath268">
      <path
         d="M 0,0 H 793 V 393 H 0 Z"
         transform="matrix(10,0,0,10,0,5.5070931e-5)"
         id="path268" />
    </clipPath>
  </defs>
  <g
     inkscape:label="Layer 1"
     inkscape:groupmode="layer"
     id="layer1"
     transform="translate(-88.927057,-99.510411)">
    <rect
       style="fill:#ffffff;stroke-width:0.264583"
       id="rect3"
       width="71.328293"
       height="72.769623"
       x="88.927055"
       y="99.510414" />
    <path
       d="m 7560,2302 c 0,-795.29 -644.71,-1440 -1440,-1440 -795.29,0 -1440,644.71 -1440,1440 0,795.29 644.71,1440 1440,1440 795.29,0 1440,-644.71 1440,-1440"
       style="fill:#ff99ff;fill-opacity:1;fill-rule:evenodd;stroke:none"
       transform="matrix(0.0160147,0,0,-0.0160147,28.382891,167.3561)"
       clip-path="url(#clipPath230)"
       id="path269" />
    <path
       d="m 7560,2302 c 0,-795.29 -644.71,-1440 -1440,-1440 -795.29,0 -1440,644.71 -1440,1440 0,795.29 644.71,1440 1440,1440 795.29,0 1440,-644.71 1440,-1440 z"
       style="fill:none;stroke:#000000;stroke-width:18;stroke-linecap:butt;stroke-linejoin:miter;stroke-miterlimit:10;stroke-dasharray:none;stroke-opacity:1"
       transform="matrix(0.0160147,0,0,-0.0160147,28.382891,167.3561)"
       clip-path="url(#clipPath231)"
       id="path270" />
    <path
       d="m 7425,1402 h 135 l -90,45"
       style="fill:none;stroke:#000000;stroke-width:4.5;stroke-linecap:butt;stroke-linejoin:miter;stroke-miterlimit:10;stroke-dasharray:none;stroke-opacity:1"
       transform="matrix(0.0160147,0,0,-0.0160147,27.399469,169.32294)"
       clip-path="url(#clipPath232)"
       id="path271" />
    <path
       d="M 3.587158,-5.0324881 H 8.6984288 V -7.0202046 H 3.587158 V -9.6532835 H 9.3696058 V -11.666814 H 1.1864096 V 0.00133919 H 3.587158 Z M 21.889638,8.7137326 C 21.50242,8.3523296 21.373348,8.0941846 21.373348,7.6811527 V 2.8796558 c 0,-1.7812004 -1.187467,-2.65889337 -3.536587,-2.65889337 -2.349119,0 -3.5624,0.98095097 -3.691473,2.99448187 h 2.142604 c 0.129072,-0.9035074 0.490475,-1.1874669 1.600498,-1.1874669 0.851879,0 1.290725,0.2839595 1.290725,0.8518784 0,0.2839595 -0.129072,0.5421045 -0.387217,0.671177 -0.309774,0.154887 -0.309774,0.154887 -1.393983,0.3355885 l -0.903507,0.154887 c -1.703757,0.309774 -2.555636,1.187467 -2.555636,2.7363369 0,1.5488699 1.058395,2.5814499 2.633079,2.5814499 0.955137,0 1.832829,-0.3872175 2.633079,-1.2132815 0,0.4388465 0.05163,0.5937335 0.258145,0.8518785 h 2.426563 z M 19.179115,5.5127347 c 0,1.3165395 -0.645362,2.0393455 -1.7812,2.0393455 -0.74862,0 -1.213281,-0.3872175 -1.213281,-1.03258 0,-0.671177 0.361403,-1.0067655 1.290725,-1.187467 l 0.774434,-0.1548869 c 0.567919,-0.103258 0.671177,-0.1290725 0.929322,-0.258145 z M 25.568204,0.34983492 H 23.322343 V 12.482649 h 2.245861 V 7.9651122 c 0.542104,0.9809509 1.316539,1.4197974 2.400748,1.4197974 2.06516,0 3.61403,-1.9619019 3.61403,-4.5691663 0,-1.239096 -0.361403,-2.4523774 -0.929322,-3.2526269 -0.567919,-0.80024949 -1.652128,-1.34235397 -2.684708,-1.34235397 -1.084209,0 -1.858644,0.46466098 -2.400748,1.41979747 z m 1.884458,1.72957148 c 1.135838,0 1.884459,1.0842089 1.884459,2.7621514 0,1.5746844 -0.774435,2.6588934 -1.884459,2.6588934 -1.135838,0 -1.884458,-1.084209 -1.884458,-2.6847079 0,-1.652128 0.74862,-2.7363369 1.884458,-2.7363369 z M 35.345445,0.34983492 H 33.099584 V 12.482649 h 2.245861 V 7.9651122 c 0.542105,0.9809509 1.31654,1.4197974 2.400749,1.4197974 2.06516,0 3.61403,-1.9619019 3.61403,-4.5691663 0,-1.239096 -0.361403,-2.4523774 -0.929322,-3.2526269 -0.567919,-0.80024949 -1.652128,-1.34235397 -2.684708,-1.34235397 -1.084209,0 -1.858644,0.46466098 -2.400749,1.41979747 z m 1.884459,1.72957148 c 1.135838,0 1.884458,1.0842089 1.884458,2.7621514 0,1.5746844 -0.774435,2.6588934 -1.884458,2.6588934 -1.135838,0 -1.884459,-1.084209 -1.884459,-2.6847079 0,-1.652128 0.748621,-2.7363369 1.884459,-2.7363369 z m 0,0"
       style="fill:#000000;fill-opacity:1;fill-rule:nonzero;stroke:none"
       aria-label="F&#10;app"
       transform="matrix(0.160147,0,0,0.160147,146.57136,149.22746)"
       clip-path="url(#clipPath233)"
       id="path272" />
    <path
       d="m 4500,3652 h 135 l -90,45"
       style="fill:none;stroke:#000000;stroke-width:4.5;stroke-linecap:butt;stroke-linejoin:miter;stroke-miterlimit:10;stroke-dasharray:none;stroke-opacity:1"
       transform="matrix(0.0160147,0,0,-0.0160147,27.459679,169.2828)"
       clip-path="url(#clipPath234)"
       id="path273" />
    <path
       d="M 3.5895226,-5.0316621 H 8.7007934 V -7.0193785 H 3.5895226 V -9.6524574 H 9.3719704 V -11.665988 H 1.1887742 V 0.00216525 H 3.5895226 Z M 21.892002,8.7145587 c -0.387217,-0.361403 -0.51629,-0.619548 -0.51629,-1.03258 V 2.8804819 c 0,-1.7812004 -1.187466,-2.65889341 -3.536586,-2.65889341 -2.349119,0 -3.562401,0.98095101 -3.691473,2.99448191 h 2.142603 c 0.129073,-0.9035075 0.490476,-1.187467 1.600499,-1.187467 0.851879,0 1.290725,0.2839595 1.290725,0.8518785 0,0.2839595 -0.129072,0.5421045 -0.387217,0.671177 -0.309774,0.154887 -0.309774,0.154887 -1.393983,0.3355885 l -0.903508,0.154887 c -1.703757,0.3097739 -2.555635,1.1874669 -2.555635,2.7363369 0,1.5488699 1.058394,2.5814499 2.633079,2.5814499 0.955136,0 1.832829,-0.3872175 2.633079,-1.2132815 0,0.4388465 0.05163,0.5937335 0.258145,0.8518785 h 2.426562 z M 19.18148,5.5135608 c 0,1.3165395 -0.645362,2.0393454 -1.7812,2.0393454 -0.748621,0 -1.213282,-0.3872175 -1.213282,-1.0325799 0,-0.671177 0.361403,-1.0067655 1.290725,-1.187467 l 0.774435,-0.154887 c 0.567919,-0.103258 0.671177,-0.1290725 0.929322,-0.258145 z M 25.570569,0.35066099 H 23.324707 V 12.483476 h 2.245862 V 7.9659382 c 0.542104,0.980951 1.316539,1.4197975 2.400748,1.4197975 2.06516,0 3.61403,-1.961902 3.61403,-4.5691664 0,-1.2390959 -0.361403,-2.4523774 -0.929322,-3.2526269 -0.567919,-0.80024943 -1.652128,-1.34235391 -2.684708,-1.34235391 -1.084209,0 -1.858644,0.46466099 -2.400748,1.41979741 z m 1.884458,1.72957141 c 1.135838,0 1.884458,1.084209 1.884458,2.7621514 0,1.5746845 -0.774435,2.6588934 -1.884458,2.6588934 -1.135838,0 -1.884458,-1.0842089 -1.884458,-2.6847079 0,-1.6521279 0.74862,-2.7363369 1.884458,-2.7363369 z M 35.34781,0.35066099 H 33.101949 V 12.483476 H 35.34781 V 7.9659382 c 0.542105,0.980951 1.31654,1.4197975 2.400749,1.4197975 2.065159,0 3.614029,-1.961902 3.614029,-4.5691664 0,-1.2390959 -0.361403,-2.4523774 -0.929322,-3.2526269 -0.567919,-0.80024943 -1.652128,-1.34235391 -2.684707,-1.34235391 -1.084209,0 -1.858644,0.46466099 -2.400749,1.41979741 z m 1.884459,1.72957141 c 1.135837,0 1.884458,1.084209 1.884458,2.7621514 0,1.5746845 -0.774435,2.6588934 -1.884458,2.6588934 -1.135838,0 -1.884459,-1.0842089 -1.884459,-2.6847079 0,-1.6521279 0.748621,-2.7363369 1.884459,-2.7363369 z m 0,0"
       style="fill:#000000;fill-opacity:1;fill-rule:nonzero;stroke:none"
       aria-label="F&#10;app"
       transform="matrix(0.160147,0,0,0.160147,99.728368,113.19438)"
       clip-path="url(#clipPath235)"
       id="path274" />
    <path
       d="m 6.894372,-8.1198552 -6.29180293,0.004 0.002035,1.7002319 3.72382353,0.00377 -4.02977644,4.708099 0.002035,1.70023195 6.73040114,0.0107582 -0.00203,-1.70023195 -4.1048023,-0.015076 3.9721571,-4.7115575 z m 9.29412,-0.1187106 c -2.497453,-0.011121 -4.006427,1.621546 -4.027923,4.2918568 8.59e-4,2.6832181 1.559541,4.26870839 4.056994,4.27982928 2.475097,-0.001786 3.99352,-1.59919008 4.011557,-4.21188158 -0.0068,-2.7761006 -1.530268,-4.3710397 -4.040628,-4.3598045 z m 0.002,1.7002319 c 1.155843,0.011551 1.903719,1.0394973 1.925578,2.6021347 -0.0099,1.5144668 -0.779996,2.590087 -1.913484,2.5914436 -1.155844,-0.011551 -1.903719,-1.0394973 -1.925578,-2.6021347 4.97e-4,-1.5497301 0.75764,-2.6029943 1.913484,-2.5914436 z m 12.751356,6.5422821 8.8e-4,-8.1072734 -2.081211,-0.00927 -0.01625,5.0877885 c 0.01173,0.9606301 -0.67303,1.5787546 -1.69128,1.5870282 -0.925366,0.00228 -1.336297,-0.4734317 -1.335121,-1.4564178 l 8.12e-4,-5.2159343 -2.116474,1.813e-4 -0.01557,5.6545325 c 0.02093,1.77075846 0.989836,2.77727581 2.747687,2.77869948 1.098225,0.008092 1.826773,-0.37609673 2.413589,-1.28923462 l 0.01173,0.96063013 z m 5.58592,-7.9455215 -1.168751,0.010805 0.0033,-2.1740927 -2.116474,1.81e-4 -0.0033,2.174093 -1.040606,-0.00463 -0.003,1.3992283 1.040605,0.00463 0.01302,4.9854573 c -0.0056,1.24872645 0.673642,1.87932842 2.072871,1.8823571 0.451505,-0.007595 0.823035,-0.0315563 1.223838,-0.15784862 l -0.01587,-1.46975478 c -0.221029,0.021429 -0.313911,0.02742 -0.499676,0.0394 -0.531481,-0.00877 -0.671607,-0.1790965 -0.674817,-0.8963423 l -0.0029,-4.38345 1.168751,-0.010805 z M 43.68825,-8.241788 c -2.497453,-0.011121 -4.006427,1.6215461 -4.027923,4.2918569 8.6e-4,2.6832181 1.559542,4.26870836 4.056995,4.27982925 2.475097,-0.001786 3.993519,-1.59919005 4.011557,-4.21188155 -0.0069,-2.7761006 -1.530269,-4.3710397 -4.040629,-4.3598046 z m 0.002,1.7002319 c 1.155844,0.011551 1.903719,1.0394974 1.925578,2.6021347 -0.0099,1.5144669 -0.779996,2.5900871 -1.913483,2.5914436 -1.155844,-0.011551 -1.90372,-1.0394973 -1.925579,-2.6021346 4.97e-4,-1.5497302 0.75764,-2.6029944 1.913484,-2.5914437 z m 9.335808,-1.3912906 -1.248727,-0.00556 0.01316,-0.797221 c 0.0019,-0.4162422 0.166189,-0.649251 0.547168,-0.6379488 0.185765,-0.011981 0.403335,0.024209 0.611456,0.025136 l 4.97e-4,-1.5497305 c -0.460954,-0.02767 -0.864289,-0.05188 -1.222912,-0.05027 -1.376872,0.0099 -2.052186,0.663266 -2.064664,2.0272314 l -0.0012,0.9829861 -1.133488,0.00136 -0.003,1.3992283 1.133487,-0.00136 0.01253,6.53518731 2.116474,-1.8135e-4 -0.01252,-6.53518736 1.248726,0.00556 z m 7.453298,-0.1829413 -2.116474,1.813e-4 0.01011,11.3924988 2.116474,-1.814e-4 -0.02272,-4.24585539 c 0.524315,0.89887408 1.239708,1.31190621 2.24505,1.32598867 1.965972,0.00235 3.360634,-1.84535468 3.381203,-4.30754438 -0.0014,-1.1334879 -0.313165,-2.2971756 -0.847856,-3.0231919 -0.544139,-0.7612795 -1.566525,-1.2621306 -2.549512,-1.2633058 -1.005342,-0.014082 -1.702085,0.4182769 -2.231282,1.3348733 z m 1.740988,1.6311291 c 1.075869,-0.00482 1.766125,1.019673 1.765628,2.5694031 0.003,1.4921109 -0.706011,2.5135703 -1.746616,2.5089366 -1.075869,0.00482 -1.766125,-1.0196731 -1.756179,-2.5341399 -0.01241,-1.5273741 0.661299,-2.5393848 1.737167,-2.5441998 z m 12.285339,6.21361047 C 74.132583,-0.6057103 74.044086,-0.8654604 74.055388,-1.2464393 l -0.01833,-4.5115958 c 0.01686,-1.6297054 -1.135275,-2.4737404 -3.331724,-2.4899248 -2.174093,-0.00328 -3.340561,0.932895 -3.441785,2.811975 l 2.023592,0.00581 c 0.09659,-0.8384746 0.437242,-1.1187272 1.477847,-1.1140935 0.810128,-0.0092 1.186722,0.2678423 1.200308,0.8122303 -0.0044,0.2657403 -0.120551,0.4669444 -0.361404,0.6259682 -0.263208,0.1461166 -0.263208,0.1461166 -1.314189,0.3143407 l -0.817045,0.1244389 c -1.63755,0.3064969 -2.403214,1.1163768 -2.409701,2.5732243 0.01587,1.46975487 1.010587,2.4315602 2.502697,2.42859863 0.867748,-0.005742 1.676271,-0.37356497 2.429029,-1.16108882 -0.0019,0.41624217 0.0583,0.57020247 0.239677,0.82396232 l 2.266976,-0.00271311 z M 71.967079,-3.2569422 c -0.01501,1.2134632 -0.587992,1.896124 -1.641505,1.9138463 -0.717245,0.00321 -1.144541,-0.3925296 -1.132312,-0.9816296 0.0028,-0.6243632 0.29872,-0.9304304 1.176843,-1.10903 l 0.73707,-0.1408046 c 0.538398,-0.106468 0.657095,-0.1571703 0.859226,-0.2491261 z m 9.023015,-4.8507639 -0.0056,1.2487265 c -0.55612,-0.9470446 -1.223342,-1.3918815 -2.068734,-1.3732325 -0.739602,-0.0097 -1.512862,0.3486772 -2.091834,0.9384555 -0.778573,0.8322359 -1.206365,1.9862263 -1.212853,3.4430739 0.0018,2.475097 1.345431,4.17489908 3.27614,4.18669824 0.867747,-0.005742 1.381257,-0.27561892 2.105668,-1.16893255 l -0.0081,1.09822468 C 80.983654,1.2482938 80.30834,1.9016816 79.325354,1.9005064 78.572845,1.9131652 78.09392,1.6068496 77.946198,0.98501809 l -2.174093,-0.003277 c 0.03248,0.61491441 0.283463,1.05789791 0.81309,1.48291061 0.637949,0.5471682 1.523667,0.820074 2.657155,0.8187174 2.359858,-0.0087 3.75773,-1.1391626 3.743715,-3.02515963 l 0.0053,-8.37301387 z m -1.681831,1.6222914 c 0.982986,0.00118 1.727403,1.0867411 1.739813,2.6141152 -0.0065,1.4568476 -0.747264,2.4301365 -1.765514,2.4384101 -0.925366,0.00228 -1.57091,-0.9963903 -1.564423,-2.4532379 4.97e-4,-1.5497301 0.629494,-2.5875553 1.590124,-2.5992874 z m 12.680219,3.1030966 c 0.05855,-0.2046626 0.03965,-0.2751892 0.04657,-0.3904277 -0.0092,-0.8101283 -0.127649,-1.5342911 -0.301185,-2.1114106 -0.547349,-1.4785253 -1.881793,-2.3681991 -3.502049,-2.3497985 -2.324596,-7.454e-4 -3.731238,1.6611946 -3.743285,4.3667687 0.01722,2.6032427 1.425405,4.19126479 3.714737,4.20145894 1.850734,-0.004567 3.299308,-1.0163288 3.764217,-2.59601024 l -2.103567,-0.022175 c -0.246164,0.6328852 -0.82421,1.0145424 -1.599075,1.014294 -0.602008,0.010127 -1.09384,-0.2738326 -1.357727,-0.69446 -0.213184,-0.3019304 -0.294765,-0.676919 -0.342687,-1.4199793 z m -5.385764,-1.4104164 c 0.16897,-1.2736142 0.690324,-1.866851 1.61569,-1.8691343 0.947723,0.010624 1.521136,0.6695722 1.621365,1.8899525 z m 0,0"
       style="fill:#000000;fill-opacity:1;fill-rule:nonzero;stroke:none"
       aria-label="z out of page"
       transform="matrix(0.08007353,0.13869135,-0.13869135,0.08007353,98.28705,152.11011)"
       clip-path="url(#clipPath236)"
       id="path275" />
    <path
       d="M 7.8719229,-10.79123 5.651876,-2.9436222 3.2511276,-10.79123 H 0.17920219 L 4.206264,0.43807714 c 0,1.11002346 -0.6969914,1.88445846 -1.7553859,1.88445846 -0.206516,0 -0.3872175,-0.051629 -0.722806,-0.1290725 V 4.310252 c 0.413032,0.051629 0.6453625,0.077444 0.980951,0.077444 0.722806,0 1.5230554,-0.154887 2.0393454,-0.3355885 C 5.5228035,3.7165185 5.858392,3.277672 6.323053,1.9869471 L 10.763147,-10.79123 Z m 57.7276731,77.346693 3.536587,-5.343601 h -3.3817 l -1.729571,3.252626 -1.755386,-3.252626 h -3.381699 l 3.536586,5.343601 -3.61403,5.446859 h 3.3817 l 1.832829,-3.355885 1.807015,3.355885 h 3.381699 z m 0,0"
       style="fill:#000000;fill-opacity:1;fill-rule:nonzero;stroke:none"
       aria-label="y&#10;x"
       transform="matrix(0.160147,0,0,0.160147,98.28705,139.85886)"
       clip-path="url(#clipPath237)"
       id="path276" />
    <path
       d="m 5760,772 c 134.66,-59.5 280.27,-90.238 427.5,-90.238 147.23,0 292.84,30.738 427.5,90.238"
       style="fill:none;stroke:#000000;stroke-width:18;stroke-linecap:butt;stroke-linejoin:miter;stroke-miterlimit:10;stroke-dasharray:none;stroke-opacity:1"
       transform="matrix(0.0160147,0,0,-0.0160147,28.382891,167.3561)"
       clip-path="url(#clipPath238)"
       id="path277" />
    <path
       d="m 6502.2,695.199 83.4,65.403 -106.2,-6.602 30,-22.199 -7.2,-36.602"
       style="fill:#000000;fill-opacity:1;fill-rule:evenodd;stroke:none"
       transform="matrix(0.0160147,0,0,-0.0160147,28.382891,167.3561)"
       clip-path="url(#clipPath239)"
       id="path278" />
    <path
       d="m 6502.2,695.199 83.4,65.403 -106.2,-6.602 30,-22.199 z"
       style="fill:none;stroke:#000000;stroke-width:18;stroke-linecap:butt;stroke-linejoin:miter;stroke-miterlimit:10;stroke-dasharray:none;stroke-opacity:1"
       transform="matrix(0.0160147,0,0,-0.0160147,28.382891,167.3561)"
       clip-path="url(#clipPath240)"
       id="path279" />
    <path
       d="m 7020,2302 c 0,-497.05 -402.95,-900 -900,-900 -497.05,0 -900,402.95 -900,900 0,497.05 402.95,900 900,900 497.05,0 900,-402.95 900,-900"
       style="fill:#ffffff;fill-opacity:1;fill-rule:evenodd;stroke:none"
       transform="matrix(0.0160147,0,0,-0.0160147,28.382891,167.3561)"
       clip-path="url(#clipPath241)"
       id="path280" />
    <path
       d="m 7020,2302 c 0,-497.05 -402.95,-900 -900,-900 -497.05,0 -900,402.95 -900,900 0,497.05 402.95,900 900,900 497.05,0 900,-402.95 900,-900 z"
       style="fill:none;stroke:#000000;stroke-width:9;stroke-linecap:butt;stroke-linejoin:miter;stroke-miterlimit:10;stroke-dasharray:none;stroke-opacity:1"
       transform="matrix(0.0160147,0,0,-0.0160147,28.382891,167.3561)"
       clip-path="url(#clipPath242)"
       id="path281" />
    <path
       d="m 6120,2302 v 0 c -24.85,0 -45,-20.15 -45,-45 V 1222 c 0,-24.85 20.15,-45 45,-45 v 0 c 24.85,0 45,20.15 45,45 v 1035 c 0,24.85 -20.15,45 -45,45"
       style="fill:#c3e7ff;fill-opacity:1;fill-rule:evenodd;stroke:none"
       transform="matrix(0.0160147,0,0,-0.0160147,28.382891,167.3561)"
       clip-path="url(#clipPath246)"
       id="path286" />
    <path
       d="m 6120,2302 v 0 c -24.85,0 -45,-20.15 -45,-45 V 1222 c 0,-24.85 20.15,-45 45,-45 v 0 c 24.85,0 45,20.15 45,45 v 1035 c 0,24.85 -20.15,45 -45,45 z"
       style="fill:none;stroke:#000000;stroke-width:9;stroke-linecap:butt;stroke-linejoin:miter;stroke-miterlimit:10;stroke-dasharray:none;stroke-opacity:1"
       transform="matrix(0.0160147,0,0,-0.0160147,28.382891,167.3561)"
       clip-path="url(#clipPath247)"
       id="path287" />
    <path
       d="m 6120,3427 v 0 c -24.85,0 -45,-20.15 -45,-45 V 2347 c 0,-24.85 20.15,-45 45,-45 v 0 c 24.85,0 45,20.15 45,45 v 1035 c 0,24.85 -20.15,45 -45,45"
       style="fill:#c3e7ff;fill-opacity:1;fill-rule:evenodd;stroke:none"
       transform="matrix(0.0160147,0,0,-0.0160147,28.382891,167.3561)"
       clip-path="url(#clipPath248)"
       id="path288" />
    <path
       d="m 6120,3427 v 0 c -24.85,0 -45,-20.15 -45,-45 V 2347 c 0,-24.85 20.15,-45 45,-45 v 0 c 24.85,0 45,20.15 45,45 v 1035 c 0,24.85 -20.15,45 -45,45 z"
       style="fill:none;stroke:#000000;stroke-width:9;stroke-linecap:butt;stroke-linejoin:miter;stroke-miterlimit:10;stroke-dasharray:none;stroke-opacity:1"
       transform="matrix(0.0160147,0,0,-0.0160147,28.382891,167.3561)"
       clip-path="url(#clipPath249)"
       id="path289" />
    <path
       d="m 6165,2347 v 0 c -24.85,0 -45,-20.15 -45,-45 v 0 c 0,-24.85 20.15,-45 45,-45 h 1035 c 24.85,0 45,20.15 45,45 v 0 c 0,24.85 -20.15,45 -45,45"
       style="fill:#c3e7ff;fill-opacity:1;fill-rule:evenodd;stroke:none"
       transform="matrix(0.0160147,0,0,-0.0160147,28.382891,167.3561)"
       clip-path="url(#clipPath250)"
       id="path290" />
    <path
       d="m 6165,2347 v 0 c -24.85,0 -45,-20.15 -45,-45 v 0 c 0,-24.85 20.15,-45 45,-45 h 1035 c 24.85,0 45,20.15 45,45 v 0 c 0,24.85 -20.15,45 -45,45 z"
       style="fill:none;stroke:#000000;stroke-width:9;stroke-linecap:butt;stroke-linejoin:miter;stroke-miterlimit:10;stroke-dasharray:none;stroke-opacity:1"
       transform="matrix(0.0160147,0,0,-0.0160147,28.382891,167.3561)"
       clip-path="url(#clipPath251)"
       id="path291" />
    <path
       d="m 5040,2347 v 0 c -24.85,0 -45,-20.15 -45,-45 v 0 c 0,-24.85 20.15,-45 45,-45 h 1035 c 24.85,0 45,20.15 45,45 v 0 c 0,24.85 -20.15,45 -45,45"
       style="fill:#c3e7ff;fill-opacity:1;fill-rule:evenodd;stroke:none"
       transform="matrix(0.0160147,0,0,-0.0160147,28.382891,167.3561)"
       clip-path="url(#clipPath252)"
       id="path292" />
    <path
       d="m 5040,2347 v 0 c -24.85,0 -45,-20.15 -45,-45 v 0 c 0,-24.85 20.15,-45 45,-45 h 1035 c 24.85,0 45,20.15 45,45 v 0 c 0,24.85 -20.15,45 -45,45 z"
       style="fill:none;stroke:#000000;stroke-width:9;stroke-linecap:butt;stroke-linejoin:miter;stroke-miterlimit:10;stroke-dasharray:none;stroke-opacity:1"
       transform="matrix(0.0160147,0,0,-0.0160147,28.382891,167.3561)"
       clip-path="url(#clipPath253)"
       id="path293" />
    <path
       d="m 5183.4,2486.2 -103.2,72 -48,-29.4 7.2,-129.6 152.4,-277.2 144,87"
       style="fill:#ff4040;fill-opacity:1;fill-rule:evenodd;stroke:none"
       transform="matrix(0.0160147,0,0,-0.0160147,28.382891,167.3561)"
       clip-path="url(#clipPath254)"
       id="path294" />
    <path
       d="m 5183.4,2486.2 -103.2,72 -48,-29.4 7.2,-129.6 152.4,-277.2 144,87 z"
       style="fill:none;stroke:#000000;stroke-width:9;stroke-linecap:butt;stroke-linejoin:miter;stroke-miterlimit:10;stroke-dasharray:none;stroke-opacity:1"
       transform="matrix(0.0160147,0,0,-0.0160147,28.382891,167.3561)"
       clip-path="url(#clipPath255)"
       id="path295" />
    <path
       d="m 7073.4,2117.8 103.2,-72 48,29.4 -7.2,129.6 -152.4,277.2 -144,-87"
       style="fill:#ff4040;fill-opacity:1;fill-rule:evenodd;stroke:none"
       transform="matrix(0.0160147,0,0,-0.0160147,28.382891,167.3561)"
       clip-path="url(#clipPath256)"
       id="path296" />
    <path
       d="m 7073.4,2117.8 103.2,-72 48,29.4 -7.2,129.6 -152.4,277.2 -144,-87 z"
       style="fill:none;stroke:#000000;stroke-width:9;stroke-linecap:butt;stroke-linejoin:miter;stroke-miterlimit:10;stroke-dasharray:none;stroke-opacity:1"
       transform="matrix(0.0160147,0,0,-0.0160147,28.382891,167.3561)"
       clip-path="url(#clipPath257)"
       id="path297" />
    <path
       d="m 5197.2,2303.2 -450,899.4"
       style="fill:none;stroke:#0000ff;stroke-width:18;stroke-linecap:butt;stroke-linejoin:miter;stroke-miterlimit:10;stroke-dasharray:none;stroke-opacity:1"
       transform="matrix(0.0160147,0,0,-0.0160147,28.382891,167.3561)"
       clip-path="url(#clipPath258)"
       id="path298" />
    <path
       d="m 4843.8,3100 -76.2,61.8 3.6,-98.4 z"
       style="fill:#0000ff;fill-opacity:1;fill-rule:evenodd;stroke:#0000ff;stroke-width:36;stroke-linecap:butt;stroke-linejoin:miter;stroke-miterlimit:10;stroke-dasharray:none;stroke-opacity:1"
       transform="matrix(0.0160147,0,0,-0.0160147,28.382891,167.3561)"
       clip-path="url(#clipPath259)"
       id="path299" />
    <path
       d="m 7051.8,2327.8 450,-899.4"
       style="fill:none;stroke:#0000ff;stroke-width:18;stroke-linecap:butt;stroke-linejoin:miter;stroke-miterlimit:10;stroke-dasharray:none;stroke-opacity:1"
       transform="matrix(0.0160147,0,0,-0.0160147,28.382891,167.3561)"
       clip-path="url(#clipPath260)"
       id="path300" />
    <path
       d="m 7404.6,1531.6 76.8,-62.4 -4.2,99 z"
       style="fill:#0000ff;fill-opacity:1;fill-rule:evenodd;stroke:#0000ff;stroke-width:36;stroke-linecap:butt;stroke-linejoin:miter;stroke-miterlimit:10;stroke-dasharray:none;stroke-opacity:1"
       transform="matrix(0.0160147,0,0,-0.0160147,28.382891,167.3561)"
       clip-path="url(#clipPath261)"
       id="path301" />
    <path
       d="m 6300,2326 -90,156 h -180 l -90,-156 90,-156 h 180"
       style="fill:#a5dbff;fill-opacity:1;fill-rule:evenodd;stroke:none"
       transform="matrix(0.0160147,0,0,-0.0160147,28.382891,167.3561)"
       clip-path="url(#clipPath262)"
       id="path302" />
    <path
       d="m 6300,2326 -90,156 h -180 l -90,-156 90,-156 h 180 z"
       style="fill:none;stroke:#000000;stroke-width:9;stroke-linecap:butt;stroke-linejoin:miter;stroke-miterlimit:10;stroke-dasharray:none;stroke-opacity:1"
       transform="matrix(0.0160147,0,0,-0.0160147,28.382891,167.3561)"
       clip-path="url(#clipPath263)"
       id="path303" />
    <path
       d="m 5085,2572.04 c 32.8,19.68 70.34,30.08 108.6,30.08 116.58,0 211.08,-94.51 211.08,-211.08 0,-14.8 -1.56,-29.56 -4.64,-44.03"
       style="fill:none;stroke:#000000;stroke-width:4.5;stroke-linecap:butt;stroke-linejoin:miter;stroke-miterlimit:10;stroke-dasharray:none;stroke-opacity:1"
       transform="matrix(0.0160147,0,0,-0.0160147,28.382891,167.3561)"
       clip-path="url(#clipPath264)"
       id="path304" />
    <path
       d="m 7200,2076.96 c -32.8,-19.68 -70.34,-30.08 -108.6,-30.08 -116.58,0 -211.08,94.51 -211.08,211.08 0,14.8 1.56,29.56 4.64,44.03"
       style="fill:none;stroke:#000000;stroke-width:4.5;stroke-linecap:butt;stroke-linejoin:miter;stroke-miterlimit:10;stroke-dasharray:none;stroke-opacity:1"
       transform="matrix(0.0160147,0,0,-0.0160147,28.382891,167.3561)"
       clip-path="url(#clipPath265)"
       id="path305" />
    <path
       d="m 4410,1582 v -540 h 540"
       style="fill:none;stroke:#000000;stroke-width:9;stroke-linecap:butt;stroke-linejoin:miter;stroke-miterlimit:10;stroke-dasharray:none;stroke-opacity:1"
       transform="matrix(0.0160147,0,0,-0.0160147,28.382891,167.3561)"
       clip-path="url(#clipPath266)"
       id="path306" />
    <path
       d="m 4437,1459 -27,90 -27,-90 z"
       style="fill:#000000;fill-opacity:1;fill-rule:evenodd;stroke:#000000;stroke-width:18;stroke-linecap:butt;stroke-linejoin:miter;stroke-miterlimit:10;stroke-dasharray:none;stroke-opacity:1"
       transform="matrix(0.0160147,0,0,-0.0160147,28.382891,167.3561)"
       clip-path="url(#clipPath267)"
       id="path307" />
    <path
       d="m 4827,1015 90,27 -90,27 z"
       style="fill:#000000;fill-opacity:1;fill-rule:evenodd;stroke:#000000;stroke-width:18;stroke-linecap:butt;stroke-linejoin:miter;stroke-miterlimit:10;stroke-dasharray:none;stroke-opacity:1"
       transform="matrix(0.0160147,0,0,-0.0160147,28.382891,167.3561)"
       clip-path="url(#clipPath268)"
       id="path308" />
    <text
       xml:space="preserve"
       style="font-style:normal;font-variant:normal;font-weight:normal;font-stretch:normal;font-size:3.175px;font-family:'TeX Gyre Adventor';-inkscape-font-specification:'TeX Gyre Adventor';fill:#000000;stroke-width:0.264583"
       x="124.4908"
       y="162.048"
       id="text1"><tspan
         sodipodi:role="line"
         id="tspan1"
         style="font-style:normal;font-variant:normal;font-weight:normal;font-stretch:normal;font-family:'TeX Gyre Adventor';-inkscape-font-specification:'TeX Gyre Adventor';stroke-width:0.264583"
         x="124.4908"
         y="162.048" /></text>
    <text
       xml:space="preserve"
       style="font-style:normal;font-variant:normal;font-weight:normal;font-stretch:normal;font-size:6.04212px;font-family:'TeX Gyre Adventor';-inkscape-font-specification:'TeX Gyre Adventor';fill:#000000;stroke-width:0.503509"
       x="124.95241"
       y="162.05087"
       id="text2"><tspan
         sodipodi:role="line"
         id="tspan2"
         style="stroke-width:0.503509"
         x="124.95241"
         y="162.05087">ω</tspan></text>
    <text
       xml:space="preserve"
       style="font-style:normal;font-variant:normal;font-weight:normal;font-stretch:normal;font-size:2.75524px;font-family:'TeX Gyre Adventor';-inkscape-font-specification:'TeX Gyre Adventor';fill:#000000;stroke-width:0.229603"
       x="129.15959"
       y="163.05695"
       id="text3"><tspan
         sodipodi:role="line"
         id="tspan3"
         style="stroke-width:0.229603"
         x="129.15959"
         y="163.05695">0</tspan></text>
    <text
       xml:space="preserve"
       style="font-style:normal;font-variant:normal;font-weight:normal;font-stretch:normal;font-size:6.04212px;font-family:'TeX Gyre Adventor';-inkscape-font-specification:'TeX Gyre Adventor';fill:#000000;stroke-width:0.503509"
       x="136.44391"
       y="138.09102"
       id="text2-6"><tspan
         sodipodi:role="line"
         id="tspan2-2"
         style="stroke-width:0.503509"
         x="136.44391"
         y="138.09102">φ</tspan></text>
    <text
       xml:space="preserve"
       style="font-style:normal;font-variant:normal;font-weight:normal;font-stretch:normal;font-size:6.04212px;font-family:'TeX Gyre Adventor';-inkscape-font-specification:'TeX Gyre Adventor';fill:#000000;stroke-width:0.503509"
       x="112.79008"
       y="125.09526"
       id="text2-6-7"><tspan
         sodipodi:role="line"
         id="tspan2-2-0"
         style="stroke-width:0.503509"
         x="112.79008"
         y="125.09526">φ</tspan></text>
  </g>
</svg>
