<?xml version="1.0" encoding="UTF-8" standalone="no"?>
<!-- Created with Inkscape (http://www.inkscape.org/) -->

<svg
   width="173.5262mm"
   height="141.90997mm"
   viewBox="0 0 173.5262 141.90997"
   version="1.1"
   id="svg1"
   inkscape:version="1.3.2 (091e20ef0f, 2023-11-25)"
   sodipodi:docname="6.svg"
   xmlns:inkscape="http://www.inkscape.org/namespaces/inkscape"
   xmlns:sodipodi="http://sodipodi.sourceforge.net/DTD/sodipodi-0.dtd"
   xmlns="http://www.w3.org/2000/svg"
   xmlns:svg="http://www.w3.org/2000/svg">
  <sodipodi:namedview
     id="namedview1"
     pagecolor="#ffffff"
     bordercolor="#000000"
     borderopacity="0.25"
     inkscape:showpageshadow="2"
     inkscape:pageopacity="0.0"
     inkscape:pagecheckerboard="0"
     inkscape:deskcolor="#d1d1d1"
     inkscape:document-units="mm"
     inkscape:zoom="1.1652357"
     inkscape:cx="605.45691"
     inkscape:cy="394.76992"
     inkscape:window-width="2560"
     inkscape:window-height="1600"
     inkscape:window-x="0"
     inkscape:window-y="0"
     inkscape:window-maximized="1"
     inkscape:current-layer="layer1">
    <inkscape:page
       x="0"
       y="0"
       width="173.5262"
       height="141.90997"
       id="page1"
       margin="5.0000005"
       bleed="0" />
  </sodipodi:namedview>
  <defs
     id="defs1">
    <clipPath
       clipPathUnits="userSpaceOnUse"
       id="clipPath367">
      <path
         d="M 0,0 H 423 V 339 H 0 Z"
         transform="matrix(10,0,0,10,0,2.2595193e-5)"
         id="path367" />
    </clipPath>
    <clipPath
       clipPathUnits="userSpaceOnUse"
       id="clipPath368">
      <path
         d="M 0,0 H 423 V 339 H 0 Z"
         transform="matrix(10,0,0,10,0,2.2595193e-5)"
         id="path368" />
    </clipPath>
    <clipPath
       clipPathUnits="userSpaceOnUse"
       id="clipPath369">
      <path
         d="M 0,0 H 423 V 339 H 0 Z"
         transform="matrix(10,0,0,10,0,2.2595193e-5)"
         id="path369" />
    </clipPath>
    <clipPath
       clipPathUnits="userSpaceOnUse"
       id="clipPath370">
      <path
         d="M 0,0 H 423 V 339 H 0 Z"
         transform="matrix(10,0,0,10,0,2.2595193e-5)"
         id="path370" />
    </clipPath>
    <clipPath
       clipPathUnits="userSpaceOnUse"
       id="clipPath371">
      <path
         d="M 0,0 H 423 V 339 H 0 Z"
         transform="matrix(10,0,0,10,0,2.2595193e-5)"
         id="path371" />
    </clipPath>
    <clipPath
       clipPathUnits="userSpaceOnUse"
       id="clipPath372">
      <path
         d="M 0,0 H 423 V 339 H 0 Z"
         transform="matrix(10,0,0,10,0,2.2595193e-5)"
         id="path372" />
    </clipPath>
    <clipPath
       clipPathUnits="userSpaceOnUse"
       id="clipPath373">
      <path
         d="M 0,0 H 423 V 339 H 0 Z"
         transform="matrix(10,0,0,10,0,2.2595193e-5)"
         id="path373" />
    </clipPath>
    <clipPath
       clipPathUnits="userSpaceOnUse"
       id="clipPath374">
      <path
         d="M 0,0 H 423 V 339 H 0 Z"
         transform="matrix(10,0,0,10,0,2.2595193e-5)"
         id="path374" />
    </clipPath>
    <clipPath
       clipPathUnits="userSpaceOnUse"
       id="clipPath375">
      <path
         d="M 0,0 H 423 V 339 H 0 Z"
         transform="matrix(10,0,0,10,0,2.2595193e-5)"
         id="path375" />
    </clipPath>
    <clipPath
       clipPathUnits="userSpaceOnUse"
       id="clipPath376">
      <path
         d="M 0,0 H 423 V 339 H 0 Z"
         transform="matrix(10,0,0,10,0,2.2595193e-5)"
         id="path376" />
    </clipPath>
    <clipPath
       clipPathUnits="userSpaceOnUse"
       id="clipPath377">
      <path
         d="M 0,0 H 423 V 339 H 0 Z"
         transform="matrix(10,0,0,10,0,2.2595193e-5)"
         id="path377" />
    </clipPath>
    <clipPath
       clipPathUnits="userSpaceOnUse"
       id="clipPath378">
      <path
         d="M 0,0 H 423 V 339 H 0 Z"
         transform="matrix(10,0,0,10,0,2.2595193e-5)"
         id="path378" />
    </clipPath>
    <clipPath
       clipPathUnits="userSpaceOnUse"
       id="clipPath379">
      <path
         d="M 0,0 H 423 V 339 H 0 Z"
         transform="matrix(10,0,0,10,0,2.2595193e-5)"
         id="path379" />
    </clipPath>
    <clipPath
       clipPathUnits="userSpaceOnUse"
       id="clipPath380">
      <path
         d="M 0,0 H 423 V 339 H 0 Z"
         transform="matrix(10,0,0,10,0,2.2595193e-5)"
         id="path380" />
    </clipPath>
    <clipPath
       clipPathUnits="userSpaceOnUse"
       id="clipPath381">
      <path
         d="M 0,0 H 423 V 339 H 0 Z"
         transform="matrix(10,0,0,10,0,2.2595193e-5)"
         id="path381" />
    </clipPath>
    <clipPath
       clipPathUnits="userSpaceOnUse"
       id="clipPath382">
      <path
         d="M 0,0 H 423 V 339 H 0 Z"
         transform="matrix(10,0,0,10,0,2.2595193e-5)"
         id="path382" />
    </clipPath>
    <clipPath
       clipPathUnits="userSpaceOnUse"
       id="clipPath383">
      <path
         d="M 0,0 H 423 V 339 H 0 Z"
         transform="matrix(10,0,0,10,0,2.2595193e-5)"
         id="path383" />
    </clipPath>
    <clipPath
       clipPathUnits="userSpaceOnUse"
       id="clipPath384">
      <path
         d="M 0,0 H 423 V 339 H 0 Z"
         transform="matrix(10,0,0,10,0,2.2595193e-5)"
         id="path384" />
    </clipPath>
    <clipPath
       clipPathUnits="userSpaceOnUse"
       id="clipPath385">
      <path
         d="M 0,0 H 423 V 339 H 0 Z"
         transform="matrix(10,0,0,10,0,2.2595193e-5)"
         id="path385" />
    </clipPath>
    <clipPath
       clipPathUnits="userSpaceOnUse"
       id="clipPath386">
      <path
         d="M 0,0 H 423 V 339 H 0 Z"
         transform="matrix(10,0,0,10,0,2.2595193e-5)"
         id="path386" />
    </clipPath>
    <clipPath
       clipPathUnits="userSpaceOnUse"
       id="clipPath387">
      <path
         d="M 0,0 H 423 V 339 H 0 Z"
         transform="matrix(10,0,0,10,0,2.2595193e-5)"
         id="path387" />
    </clipPath>
    <clipPath
       clipPathUnits="userSpaceOnUse"
       id="clipPath388">
      <path
         d="M 0,0 H 423 V 339 H 0 Z"
         transform="matrix(10,0,0,10,0,2.2595193e-5)"
         id="path388" />
    </clipPath>
    <clipPath
       clipPathUnits="userSpaceOnUse"
       id="clipPath389">
      <path
         d="M 0,0 H 423 V 339 H 0 Z"
         transform="matrix(10,0,0,10,0,2.2595193e-5)"
         id="path389" />
    </clipPath>
    <clipPath
       clipPathUnits="userSpaceOnUse"
       id="clipPath390">
      <path
         d="M 0,0 H 423 V 339 H 0 Z"
         transform="matrix(10,0,0,10,0,2.2595193e-5)"
         id="path390" />
    </clipPath>
    <clipPath
       clipPathUnits="userSpaceOnUse"
       id="clipPath391">
      <path
         d="M 0,0 H 423 V 339 H 0 Z"
         transform="matrix(10,0,0,10,0,2.2595193e-5)"
         id="path391" />
    </clipPath>
    <clipPath
       clipPathUnits="userSpaceOnUse"
       id="clipPath392">
      <path
         d="M 0,0 H 423 V 339 H 0 Z"
         transform="matrix(10,0,0,10,0,2.2595193e-5)"
         id="path392" />
    </clipPath>
    <clipPath
       clipPathUnits="userSpaceOnUse"
       id="clipPath393">
      <path
         d="M 0,0 H 423 V 339 H 0 Z"
         transform="matrix(10,0,0,10,0,2.2595193e-5)"
         id="path393" />
    </clipPath>
    <clipPath
       clipPathUnits="userSpaceOnUse"
       id="clipPath394">
      <path
         d="M 0,0 H 423 V 339 H 0 Z"
         transform="matrix(10,0,0,10,0,2.2595193e-5)"
         id="path394" />
    </clipPath>
    <clipPath
       clipPathUnits="userSpaceOnUse"
       id="clipPath395">
      <path
         d="M 0,0 H 423 V 339 H 0 Z"
         transform="matrix(10,0,0,10,0,2.2595193e-5)"
         id="path395" />
    </clipPath>
    <clipPath
       clipPathUnits="userSpaceOnUse"
       id="clipPath396">
      <path
         d="M 0,0 H 423 V 339 H 0 Z"
         transform="matrix(10,0,0,10,0,2.2595193e-5)"
         id="path396" />
    </clipPath>
    <clipPath
       clipPathUnits="userSpaceOnUse"
       id="clipPath397">
      <path
         d="M 0,0 H 423 V 339 H 0 Z"
         transform="matrix(10,0,0,10,0,2.2595193e-5)"
         id="path397" />
    </clipPath>
    <clipPath
       clipPathUnits="userSpaceOnUse"
       id="clipPath398">
      <path
         d="M 0,0 H 423 V 339 H 0 Z"
         transform="matrix(10,0,0,10,0,2.2595193e-5)"
         id="path398" />
    </clipPath>
    <clipPath
       clipPathUnits="userSpaceOnUse"
       id="clipPath399">
      <path
         d="M 0,0 H 423 V 339 H 0 Z"
         transform="matrix(10,0,0,10,0,2.2595193e-5)"
         id="path399" />
    </clipPath>
    <clipPath
       clipPathUnits="userSpaceOnUse"
       id="clipPath400">
      <path
         d="M 0,0 H 423 V 339 H 0 Z"
         transform="matrix(1,0,0,-1,-204.50001,266.2)"
         id="path400" />
    </clipPath>
  </defs>
  <g
     inkscape:label="Layer 1"
     inkscape:groupmode="layer"
     id="layer1"
     transform="translate(-19.697379,-62.421484)">
    <rect
       style="fill:#ffffff;stroke-width:0.264583"
       id="rect1"
       width="173.5262"
       height="141.90997"
       x="19.697378"
       y="62.421486" />
    <g
       id="g434"
       transform="matrix(0.26458333,0,0,0.26458333,-1550.2144,14.931174)">
      <path
         d="m 605,1267 h 45 v 1395 h -45 z"
         style="fill:none;stroke:#000000;stroke-width:9;stroke-linecap:butt;stroke-linejoin:miter;stroke-miterlimit:10;stroke-dasharray:none;stroke-opacity:1"
         transform="matrix(0.147524,0,0,-0.147524,5949.804,697.64667)"
         clip-path="url(#clipPath367)"
         id="path401" />
      <path
         d="m 650,2527 -45,90"
         style="fill:none;stroke:#000000;stroke-width:18;stroke-linecap:butt;stroke-linejoin:miter;stroke-miterlimit:10;stroke-dasharray:none;stroke-opacity:1"
         transform="matrix(0.147524,0,0,-0.147524,5949.804,697.64667)"
         clip-path="url(#clipPath368)"
         id="path402" />
      <path
         d="m 650,2392 -45,90"
         style="fill:none;stroke:#000000;stroke-width:18;stroke-linecap:butt;stroke-linejoin:miter;stroke-miterlimit:10;stroke-dasharray:none;stroke-opacity:1"
         transform="matrix(0.147524,0,0,-0.147524,5949.804,697.64667)"
         clip-path="url(#clipPath369)"
         id="path403" />
      <path
         d="m 650,2257 -45,90"
         style="fill:none;stroke:#000000;stroke-width:18;stroke-linecap:butt;stroke-linejoin:miter;stroke-miterlimit:10;stroke-dasharray:none;stroke-opacity:1"
         transform="matrix(0.147524,0,0,-0.147524,5949.804,697.64667)"
         clip-path="url(#clipPath370)"
         id="path404" />
      <path
         d="m 650,2122 -45,90"
         style="fill:none;stroke:#000000;stroke-width:18;stroke-linecap:butt;stroke-linejoin:miter;stroke-miterlimit:10;stroke-dasharray:none;stroke-opacity:1"
         transform="matrix(0.147524,0,0,-0.147524,5949.804,697.64667)"
         clip-path="url(#clipPath371)"
         id="path405" />
      <path
         d="m 650,1987 -45,90"
         style="fill:none;stroke:#000000;stroke-width:18;stroke-linecap:butt;stroke-linejoin:miter;stroke-miterlimit:10;stroke-dasharray:none;stroke-opacity:1"
         transform="matrix(0.147524,0,0,-0.147524,5949.804,697.64667)"
         clip-path="url(#clipPath372)"
         id="path406" />
      <path
         d="m 650,1852 -45,90"
         style="fill:none;stroke:#000000;stroke-width:18;stroke-linecap:butt;stroke-linejoin:miter;stroke-miterlimit:10;stroke-dasharray:none;stroke-opacity:1"
         transform="matrix(0.147524,0,0,-0.147524,5949.804,697.64667)"
         clip-path="url(#clipPath373)"
         id="path407" />
      <path
         d="m 650,1717 -45,90"
         style="fill:none;stroke:#000000;stroke-width:18;stroke-linecap:butt;stroke-linejoin:miter;stroke-miterlimit:10;stroke-dasharray:none;stroke-opacity:1"
         transform="matrix(0.147524,0,0,-0.147524,5949.804,697.64667)"
         clip-path="url(#clipPath374)"
         id="path408" />
      <path
         d="m 650,1582 -45,90"
         style="fill:none;stroke:#000000;stroke-width:18;stroke-linecap:butt;stroke-linejoin:miter;stroke-miterlimit:10;stroke-dasharray:none;stroke-opacity:1"
         transform="matrix(0.147524,0,0,-0.147524,5949.804,697.64667)"
         clip-path="url(#clipPath375)"
         id="path409" />
      <path
         d="m 650,1312 -45,90"
         style="fill:none;stroke:#000000;stroke-width:18;stroke-linecap:butt;stroke-linejoin:miter;stroke-miterlimit:10;stroke-dasharray:none;stroke-opacity:1"
         transform="matrix(0.147524,0,0,-0.147524,5949.804,697.64667)"
         clip-path="url(#clipPath376)"
         id="path410" />
      <path
         d="m 650,1447 -45,90"
         style="fill:none;stroke:#000000;stroke-width:18;stroke-linecap:butt;stroke-linejoin:miter;stroke-miterlimit:10;stroke-dasharray:none;stroke-opacity:1"
         transform="matrix(0.147524,0,0,-0.147524,5949.804,697.64667)"
         clip-path="url(#clipPath377)"
         id="path411" />
      <path
         d="m 2781.23,1562.82 c 6.68,-4.92 14.77,-7.58 23.07,-7.58 8.3,0 16.39,2.66 23.07,7.58"
         style="fill:none;stroke:#a14000;stroke-width:9;stroke-linecap:butt;stroke-linejoin:miter;stroke-miterlimit:10;stroke-dasharray:none;stroke-opacity:1"
         transform="matrix(0.147524,0,0,-0.147524,5949.804,697.64667)"
         clip-path="url(#clipPath378)"
         id="path412" />
      <path
         d="m 2826.8,1601.8 c 0,-6.62 -5.1,-12 -11.4,-12 -6.29,0 -11.4,5.38 -11.4,12 0,6.63 5.11,12 11.4,12 6.3,0 11.4,-5.37 11.4,-12 z"
         style="fill:none;stroke:#a14000;stroke-width:9;stroke-linecap:butt;stroke-linejoin:miter;stroke-miterlimit:10;stroke-dasharray:none;stroke-opacity:1"
         transform="matrix(0.147524,0,0,-0.147524,5949.804,697.64667)"
         clip-path="url(#clipPath379)"
         id="path413" />
      <path
         d="m 2888.6,1582 c 0,-33.14 -25.25,-60 -56.4,-60 -31.15,0 -56.4,26.86 -56.4,60 0,33.14 25.25,60 56.4,60 31.15,0 56.4,-26.86 56.4,-60 z"
         style="fill:none;stroke:#a14000;stroke-width:9;stroke-linecap:butt;stroke-linejoin:miter;stroke-miterlimit:10;stroke-dasharray:none;stroke-opacity:1"
         transform="matrix(0.147524,0,0,-0.147524,5949.804,697.64667)"
         clip-path="url(#clipPath380)"
         id="path414" />
      <path
         d="m 2832.2,1522 v -120 l -55.8,-150"
         style="fill:none;stroke:#a14000;stroke-width:9;stroke-linecap:butt;stroke-linejoin:miter;stroke-miterlimit:10;stroke-dasharray:none;stroke-opacity:1"
         transform="matrix(0.147524,0,0,-0.147524,5949.804,697.64667)"
         clip-path="url(#clipPath381)"
         id="path415" />
      <path
         d="m 2832.2,1402 56.4,-150"
         style="fill:none;stroke:#a14000;stroke-width:9;stroke-linecap:butt;stroke-linejoin:miter;stroke-miterlimit:10;stroke-dasharray:none;stroke-opacity:1"
         transform="matrix(0.147524,0,0,-0.147524,5949.804,697.64667)"
         clip-path="url(#clipPath382)"
         id="path416" />
      <path
         d="m 2916.8,1522 -84.6,-60 -84,60"
         style="fill:none;stroke:#a14000;stroke-width:9;stroke-linecap:butt;stroke-linejoin:miter;stroke-miterlimit:10;stroke-dasharray:none;stroke-opacity:1"
         transform="matrix(0.147524,0,0,-0.147524,5949.804,697.64667)"
         clip-path="url(#clipPath383)"
         id="path417" />
      <path
         d="M 605,1042 V 817"
         style="fill:none;stroke:#000000;stroke-width:4.5;stroke-linecap:butt;stroke-linejoin:miter;stroke-miterlimit:10;stroke-dasharray:none;stroke-opacity:1"
         transform="matrix(0.147524,0,0,-0.147524,5949.804,697.64667)"
         clip-path="url(#clipPath384)"
         id="path418" />
      <path
         d="M 2090,1042 V 817"
         style="fill:none;stroke:#000000;stroke-width:4.5;stroke-linecap:butt;stroke-linejoin:miter;stroke-miterlimit:10;stroke-dasharray:none;stroke-opacity:1"
         transform="matrix(0.147524,0,0,-0.147524,5949.804,697.64667)"
         clip-path="url(#clipPath385)"
         id="path419" />
      <path
         d="M 3575,1042 V 817"
         style="fill:none;stroke:#000000;stroke-width:4.5;stroke-linecap:butt;stroke-linejoin:miter;stroke-miterlimit:10;stroke-dasharray:none;stroke-opacity:1"
         transform="matrix(0.147524,0,0,-0.147524,5949.804,697.64667)"
         clip-path="url(#clipPath386)"
         id="path420" />
      <path
         d="M 20,2662 H 4160"
         style="fill:none;stroke:#000000;stroke-width:18;stroke-linecap:butt;stroke-linejoin:miter;stroke-miterlimit:10;stroke-dasharray:none;stroke-opacity:1"
         transform="matrix(0.147524,0,0,-0.147524,5949.804,697.64667)"
         clip-path="url(#clipPath387)"
         id="path421" />
      <path
         d="m 605,907 h 585"
         style="fill:none;stroke:#000000;stroke-width:4.5;stroke-linecap:butt;stroke-linejoin:miter;stroke-miterlimit:10;stroke-dasharray:none;stroke-opacity:1"
         transform="matrix(0.147524,0,0,-0.147524,5949.804,697.64667)"
         clip-path="url(#clipPath388)"
         id="path422" />
      <path
         d="m 1505,907 h 585"
         style="fill:none;stroke:#000000;stroke-width:4.5;stroke-linecap:butt;stroke-linejoin:miter;stroke-miterlimit:10;stroke-dasharray:none;stroke-opacity:1"
         transform="matrix(0.147524,0,0,-0.147524,5949.804,697.64667)"
         clip-path="url(#clipPath389)"
         id="path423" />
      <path
         d="m 2090,907 h 180"
         style="fill:none;stroke:#000000;stroke-width:4.5;stroke-linecap:butt;stroke-linejoin:miter;stroke-miterlimit:10;stroke-dasharray:none;stroke-opacity:1"
         transform="matrix(0.147524,0,0,-0.147524,5949.804,697.64667)"
         clip-path="url(#clipPath390)"
         id="path424" />
      <path
         d="m 2630,907 h 180"
         style="fill:none;stroke:#000000;stroke-width:4.5;stroke-linecap:butt;stroke-linejoin:miter;stroke-miterlimit:10;stroke-dasharray:none;stroke-opacity:1"
         transform="matrix(0.147524,0,0,-0.147524,5949.804,697.64667)"
         clip-path="url(#clipPath391)"
         id="path425" />
      <path
         d="m 3395,907 h 180"
         style="fill:none;stroke:#000000;stroke-width:4.5;stroke-linecap:butt;stroke-linejoin:miter;stroke-miterlimit:10;stroke-dasharray:none;stroke-opacity:1"
         transform="matrix(0.147524,0,0,-0.147524,5949.804,697.64667)"
         clip-path="url(#clipPath392)"
         id="path426" />
      <path
         d="M 2810,1042 V 817"
         style="fill:none;stroke:#000000;stroke-width:4.5;stroke-linecap:butt;stroke-linejoin:miter;stroke-miterlimit:10;stroke-dasharray:none;stroke-opacity:1"
         transform="matrix(0.147524,0,0,-0.147524,5949.804,697.64667)"
         clip-path="url(#clipPath393)"
         id="path427" />
      <path
         d="m 2810,907 h 180"
         style="fill:none;stroke:#000000;stroke-width:4.5;stroke-linecap:butt;stroke-linejoin:miter;stroke-miterlimit:10;stroke-dasharray:none;stroke-opacity:1"
         transform="matrix(0.147524,0,0,-0.147524,5949.804,697.64667)"
         clip-path="url(#clipPath394)"
         id="path428" />
      <path
         d="M 65,7 H 4205 V 727 H 65 Z"
         style="fill:#87cfff;fill-opacity:1;fill-rule:evenodd;stroke:#87cfff;stroke-width:4.5;stroke-linecap:butt;stroke-linejoin:miter;stroke-miterlimit:10;stroke-dasharray:none;stroke-opacity:1"
         transform="matrix(0.147524,0,0,-0.147524,5949.804,697.64667)"
         clip-path="url(#clipPath395)"
         id="path429" />
      <path
         d="M 65,727 H 4205"
         style="fill:none;stroke:#000000;stroke-width:18;stroke-linecap:butt;stroke-linejoin:miter;stroke-miterlimit:10;stroke-dasharray:none;stroke-opacity:1"
         transform="matrix(0.147524,0,0,-0.147524,5949.804,697.64667)"
         clip-path="url(#clipPath396)"
         id="path430" />
      <path
         d="m 20,2662 h 4140 v 720 H 20 Z"
         style="fill:#87cfff;fill-opacity:1;fill-rule:evenodd;stroke:#87cfff;stroke-width:4.5;stroke-linecap:butt;stroke-linejoin:miter;stroke-miterlimit:10;stroke-dasharray:none;stroke-opacity:1"
         transform="matrix(0.147524,0,0,-0.147524,5949.804,697.64667)"
         clip-path="url(#clipPath397)"
         id="path431" />
      <path
         d="m 2630,727 180,450 180,-450 h -180 z"
         style="fill:none;stroke:#008f00;stroke-width:18;stroke-linecap:butt;stroke-linejoin:miter;stroke-miterlimit:10;stroke-dasharray:none;stroke-opacity:1"
         transform="matrix(0.147524,0,0,-0.147524,5949.804,697.64667)"
         clip-path="url(#clipPath398)"
         id="path432" />
      <path
         d="m 605,1177 h 2970 v 90 H 605 Z"
         style="fill:#dc8cdc;fill-opacity:1;fill-rule:evenodd;stroke:#b000b0;stroke-width:18;stroke-linecap:butt;stroke-linejoin:miter;stroke-miterlimit:10;stroke-dasharray:none;stroke-opacity:1"
         transform="matrix(0.147524,0,0,-0.147524,5949.804,697.64667)"
         clip-path="url(#clipPath399)"
         id="path433" />
      <path
         d="M 5.635766,-3.6542554 C 5.5298511,-5.0735159 4.5977993,-5.9314272 3.1255813,-5.9314272 c -1.747597,0 -2.75378925,1.1438817 -2.75378925,3.1350831 0,1.91706096 1.00619225,3.03975963 2.73260625,3.03975963 1.4086691,0 2.3936783,-0.86850275 2.5313677,-2.26658033 H 4.1953225 c -0.190647,0.7625878 -0.4872089,1.04855818 -1.0909242,1.04855818 -0.7731793,0 -1.2286137,-0.67785578 -1.2286137,-1.82173748 0,-0.5613493 0.1165065,-1.0697412 0.2965619,-1.4192606 0.169464,-0.3177449 0.5083919,-0.4978004 0.9426433,-0.4978004 0.6143068,0 0.9002772,0.296562 1.0803327,1.0591497 z m 6.023914,1.2074307 c 0.02118,-0.127098 0.02118,-0.1800554 0.02118,-0.2541959 0,-0.5825324 -0.09532,-1.1226987 -0.233013,-1.5357671 -0.391885,-1.0591497 -1.323937,-1.6946395 -2.5101848,-1.6946395 -1.6734565,0 -2.7008317,1.2074307 -2.7008317,3.1668576 0,1.86410346 1.0167837,3.00798513 2.6690572,3.00798513 1.3133453,0 2.3724953,-0.73081329 2.7008313,-1.88528643 H 10.12391 c -0.1906471,0.4660258 -0.6037154,0.73081326 -1.1650648,0.73081326 -0.4236599,0 -0.7731793,-0.18005546 -0.9850092,-0.50839186 C 7.825558,-1.6312794 7.7726006,-1.8960669 7.7514176,-2.4468247 Z M 7.7726006,-3.4424254 c 0.095323,-0.9002773 0.4766173,-1.3345286 1.1438816,-1.3345286 0.6990388,0 1.1015158,0.4660258 1.1862478,1.3345286 z m 6.4714044,-2.3936783 h -1.514584 v 5.83591480418 h 1.514584 z m 0,-2.0441589 h -1.514584 v 1.3557116 h 1.514584 z m 3.00269,0 h -1.514584 v 7.88007370418 h 1.514584 z m 3.002689,2.0441589 H 18.7348 v 5.83591480418 h 1.514584 z m 0,-2.0441589 H 18.7348 v 1.3557116 h 1.514584 z m 1.445739,2.0441589 v 5.83591480418 h 1.514584 V -3.4953829 c 0,-0.6990388 0.476618,-1.1544732 1.218023,-1.1544732 0.656672,0 0.974417,0.3601109 0.974417,1.0485582 v 3.60110900418 h 1.514584 V -3.9084513 c 0,-1.3027541 -0.699038,-2.0229759 -1.959427,-2.0229759 -0.78377,0 -1.313345,0.2859704 -1.747597,0.9426432 v -0.8473197 z m 10.241978,0 v 0.9002772 c -0.42366,-0.6778558 -0.889686,-0.9956007 -1.503993,-0.9956007 -0.518983,0 -1.090924,0.2541959 -1.493401,0.6778558 -0.582532,0.6037153 -0.879094,1.4510351 -0.879094,2.4784103 0,1.78996299 0.953235,3.01857663 2.340721,3.01857663 0.624898,0 1.006192,-0.20123844 1.535767,-0.83672826 v 0.78377078 c 0,0.7096303 -0.4978,1.19683915 -1.207431,1.19683915 -0.540166,0 -0.879094,-0.2436044 -0.9956,-0.6884473 h -1.556951 c 0.01059,0.4554344 0.169464,0.7731793 0.571941,1.0909242 0.466026,0.3812939 1.101516,0.5613493 1.927653,0.5613493 1.684048,0 2.700832,-0.8049537 2.700832,-2.16066535 V -5.8361037 Z m -1.218022,1.1650646 c 0.70963,0 1.239205,0.7943623 1.239205,1.874695 0,1.0591497 -0.508392,1.7793715 -1.260388,1.7793715 -0.667265,0 -1.122699,-0.7202218 -1.122699,-1.7793715 0,-1.1015157 0.455434,-1.874695 1.143882,-1.874695 z M 105.9902,172.11958 h -1.6205 v 7.88007 h 5.39107 v -1.35571 h -3.77057 z m 6.3549,0.16946 -2.22422,7.8589 h 0.72023 l 2.2348,-7.8589 z m 6.39197,4.76618 H 117.9427 V 172.342 h -1.77937 l -2.80674,4.68144 v 1.28157 h 3.07153 v 1.69464 h 1.51458 v -1.69464 h 0.79437 z m -2.30895,0 h -2.00179 l 2.00179,-3.28337 z m -82.438917,-4.93564 h -1.620499 v 7.88007 h 5.391072 v -1.35571 h -3.770573 z m 6.354899,0.16946 -2.224215,7.8589 h 0.720222 l 2.234806,-7.8589 z m 6.391968,4.76618 H 45.941708 V 172.342 h -1.779372 l -2.806746,4.68144 v 1.28157 h 3.071534 v 1.69464 h 1.514584 v -1.69464 h 0.794362 z m -2.308946,0 h -2.001793 l 2.001793,-3.28337 z m -118.439415,-4.93564 h -1.620499 v 7.88007 h 5.391072 v -1.35571 h -3.770573 z m 6.357546,0.16946 -2.224215,7.8589 h 0.720222 l 2.234806,-7.8589 z m 6.283405,6.3549 h -3.251589 c 0.21183,-0.40247 0.444843,-0.63549 1.567541,-1.44044 1.334529,-0.97442 1.715823,-1.54636 1.715823,-2.59492 0,-1.48281 -1.027375,-2.42545 -2.626691,-2.42545 -1.578133,0 -2.510185,0.93205 -2.510185,2.55255 v 0.27538 h 1.451035 v -0.2542 c 0,-0.84732 0.402477,-1.34512 1.101516,-1.34512 0.667264,0 1.080332,0.46603 1.080332,1.22862 0,0.85791 -0.264787,1.16506 -1.970018,2.37249 -1.302754,0.88969 -1.69464,1.55695 -1.758189,2.9868 h 5.200425 z m 73.751242,22.63668 h -0.889686 v -0.57194 c 0,-0.29656 0.127098,-0.44484 0.402477,-0.44484 0.148281,0 0.28597,0.0106 0.434251,0.0318 v -1.14388 c -0.317745,-0.0212 -0.63549,-0.0318 -0.857911,-0.0318 -1.006192,0 -1.4934011,0.47662 -1.4934011,1.46163 v 0.69904 H 9.1494952 v 1.00619 h 0.8261367 v 4.71322 h 1.5145841 v -4.71322 h 0.889686 z m 2.451931,-2.16067 h -1.514584 v 7.88008 h 1.514584 z m 4.019473,1.94884 c -1.779371,0 -2.870295,1.17566 -2.870295,3.09272 0,1.91706 1.090924,3.08212 2.880887,3.08212 1.779371,0 2.880887,-1.16506 2.880887,-3.03976 0,-1.98061 -1.069741,-3.13508 -2.891479,-3.13508 z m 0.01059,1.21802 c 0.836728,0 1.376895,0.752 1.376895,1.89588 0,1.09092 -0.56135,1.84292 -1.376895,1.84292 -0.815545,0 -1.366303,-0.7414 -1.366303,-1.8641 0,-1.1227 0.550758,-1.8747 1.366303,-1.8747 z m 6.587911,-1.21802 c -1.779371,0 -2.870296,1.17566 -2.870296,3.09272 0,1.91706 1.090925,3.08212 2.880888,3.08212 1.779371,0 2.880887,-1.16506 2.880887,-3.03976 0,-1.98061 -1.069742,-3.13508 -2.891479,-3.13508 z m 0.01059,1.21802 c 0.836728,0 1.376894,0.752 1.376894,1.89588 0,1.09092 -0.561349,1.84292 -1.376894,1.84292 -0.815546,0 -1.366304,-0.7414 -1.366304,-1.8641 0,-1.1227 0.550758,-1.8747 1.366304,-1.8747 z m 4.014177,-1.1227 v 5.83592 h 1.514584 v -3.10331 c 0,-0.87909 0.444843,-1.32394 1.334529,-1.32394 0.158872,0 0.264787,0.0106 0.466025,0.0424 v -1.53577 c -0.08473,-0.0106 -0.116506,-0.0106 -0.180055,-0.0106 -0.688447,0 -1.281571,0.45543 -1.620499,1.2392 v -1.14388 z M 74.872382,84.79004 c -0.05296,-0.677856 -0.201239,-1.112107 -0.529575,-1.55695 -0.603715,-0.794362 -1.578133,-1.239205 -2.753789,-1.239205 -2.234806,0 -3.611701,1.588724 -3.611701,4.141275 0,2.54196 1.366303,4.109501 3.558743,4.109501 1.970019,0 3.272773,-1.13329 3.368096,-2.933845 h -1.578133 c -0.105915,1.006193 -0.741405,1.578133 -1.737005,1.578133 -1.260388,0 -1.991202,-1.016783 -1.991202,-2.732606 0,-1.737005 0.762588,-2.774972 2.044159,-2.774972 0.932052,0 1.461627,0.455434 1.684048,1.408669 z m 1.146529,-2.669057 v 7.880074 h 1.514584 v -3.495194 c 0,-0.677856 0.487209,-1.154474 1.165065,-1.154474 0.338928,0 0.582532,0.127098 0.762588,0.360111 0.137689,0.190647 0.169464,0.360111 0.169464,0.720222 v 3.569335 h 1.514584 v -3.908263 c 0,-0.730813 -0.201239,-1.249796 -0.593124,-1.578133 -0.338928,-0.28597 -0.826137,-0.444843 -1.313346,-0.444843 -0.741404,0 -1.281571,0.296562 -1.705231,0.942644 v -2.891479 z m 11.534141,7.700018 c -0.254196,-0.254196 -0.338928,-0.42366 -0.338928,-0.720222 v -3.240998 c 0,-1.186247 -0.815546,-1.789963 -2.393679,-1.789963 -1.567541,0 -2.393678,0.667265 -2.489001,2.022976 h 1.461626 c 0.07414,-0.603715 0.317745,-0.804953 1.05915,-0.804953 0.593124,0 0.879094,0.201238 0.879094,0.582532 0,0.201238 -0.09532,0.360111 -0.254196,0.455434 -0.21183,0.105915 -0.21183,0.105915 -0.953235,0.233013 l -0.603715,0.105915 c -1.154473,0.190647 -1.715822,0.783771 -1.715822,1.832329 0,1.048558 0.699038,1.747597 1.76878,1.747597 0.646081,0 1.228613,-0.264787 1.76878,-0.826137 0,0.296562 0.03177,0.413069 0.169464,0.582533 h 1.641682 z m -1.821738,-2.160665 c 0,0.868503 -0.434251,1.366303 -1.196839,1.366303 -0.508392,0 -0.826137,-0.264787 -0.826137,-0.699039 0,-0.455434 0.243605,-0.667264 0.868503,-0.804954 l 0.518983,-0.09532 c 0.402477,-0.07414 0.466026,-0.09532 0.63549,-0.180056 z m 6.542897,2.340721 h 1.514584 v -7.880074 h -1.514584 v 2.806747 c -0.381294,-0.582533 -0.879094,-0.857912 -1.609907,-0.857912 -1.387486,0 -2.446636,1.334529 -2.446636,3.103309 0,0.783771 0.233013,1.588725 0.624898,2.150074 0.391886,0.571941 1.112107,0.92146 1.821738,0.92146 0.730813,0 1.228613,-0.254196 1.609907,-0.836728 z m -1.270979,-4.670851 c 0.762587,0 1.270979,0.741405 1.270979,1.864104 0,1.05915 -0.518983,1.789963 -1.270979,1.789963 -0.762588,0 -1.281571,-0.741405 -1.281571,-1.811146 0,-1.090924 0.518983,-1.842921 1.281571,-1.842921 z m -2.250693,75.451174 h -0.84732 v -1.55695 h -1.503993 v 1.55695 H 85.64923 v 1.0062 h 0.751996 v 3.59051 c 0,0.92146 0.487209,1.36631 1.472218,1.36631 0.34952,0 0.603716,-0.0318 0.879095,-0.11651 v -1.05915 c -0.148281,0.0212 -0.222422,0.0318 -0.34952,0.0318 -0.391885,0 -0.4978,-0.1165 -0.4978,-0.63549 v -3.17744 h 0.84732 z m 1.022079,-0.1165 v 5.83591 h 1.514584 v -3.10331 c 0,-0.87909 0.444843,-1.32393 1.334529,-1.32393 0.158872,0 0.264787,0.0106 0.466026,0.0424 v -1.53577 c -0.08473,-0.0106 -0.116507,-0.0106 -0.180056,-0.0106 -0.688447,0 -1.281571,0.45544 -1.620499,1.23921 v -1.14388 z m 9.177532,3.38928 c 0.02118,-0.1271 0.02118,-0.18006 0.02118,-0.2542 0,-0.58253 -0.09532,-1.1227 -0.233013,-1.53577 -0.391885,-1.05915 -1.323937,-1.69464 -2.510185,-1.69464 -1.673456,0 -2.700831,1.20743 -2.700831,3.16686 0,1.8641 1.016783,3.00799 2.669057,3.00799 1.313346,0 2.372495,-0.73082 2.700832,-1.88529 h -1.48281 c -0.190647,0.46603 -0.603715,0.73081 -1.165065,0.73081 -0.423659,0 -0.773179,-0.18005 -0.985009,-0.50839 -0.148281,-0.21183 -0.201238,-0.47662 -0.222421,-1.02737 z m -3.887079,-0.99561 c 0.09532,-0.90027 0.476617,-1.33452 1.143881,-1.33452 0.699039,0 1.101516,0.46602 1.186248,1.33452 z m 9.691219,-0.50839 c -0.0212,-1.2392 -0.97442,-1.98061 -2.54196,-1.98061 -1.47222,0 -2.393677,0.74141 -2.393677,1.94884 0,0.38129 0.116506,0.72022 0.328337,0.94264 0.20124,0.21183 0.38129,0.30716 0.94264,0.48721 l 1.81115,0.56135 c 0.3707,0.1271 0.50839,0.2436 0.50839,0.47662 0,0.36011 -0.42366,0.57194 -1.1227,0.57194 -0.40248,0 -0.70963,-0.0636 -0.90028,-0.20124 -0.15887,-0.11651 -0.23301,-0.2436 -0.29656,-0.55076 h -1.472216 c 0.04237,1.28157 0.974416,1.93825 2.753786,1.93825 0.80496,0 1.41926,-0.16947 1.85352,-0.51899 0.43425,-0.33893 0.68844,-0.87909 0.68844,-1.45103 0,-0.76259 -0.3707,-1.2498 -1.14388,-1.47222 l -1.90647,-0.55076 c -0.42366,-0.1271 -0.52957,-0.21183 -0.52957,-0.45543 0,-0.31775 0.33892,-0.54017 0.8685,-0.54017 0.73081,0 1.08033,0.26479 1.09092,0.79436 z m 3.80235,-1.76878 h -0.84732 v -1.55695 h -1.50399 v 1.55695 h -0.752 v 1.0062 h 0.752 v 3.59051 c 0,0.92146 0.4872,1.36631 1.47221,1.36631 0.34952,0 0.60372,-0.0318 0.8791,-0.11651 v -1.05915 c -0.14828,0.0212 -0.22242,0.0318 -0.34952,0.0318 -0.39189,0 -0.4978,-0.1165 -0.4978,-0.63549 v -3.17744 h 0.84732 z m 2.57903,-2.16066 h -1.51459 v 7.88007 h 1.51459 z m 6.42374,5.43344 c 0.0212,-0.1271 0.0212,-0.18006 0.0212,-0.2542 0,-0.58253 -0.0953,-1.1227 -0.23301,-1.53577 -0.39188,-1.05915 -1.32394,-1.69464 -2.51018,-1.69464 -1.67346,0 -2.70084,1.20743 -2.70084,3.16686 0,1.8641 1.01679,3.00799 2.66906,3.00799 1.31335,0 2.3725,-0.73082 2.70083,-1.88529 h -1.48281 c -0.19064,0.46603 -0.60371,0.73081 -1.16506,0.73081 -0.42366,0 -0.77318,-0.18005 -0.98501,-0.50839 -0.14828,-0.21183 -0.20124,-0.47662 -0.22242,-1.02737 z m -3.88708,-0.99561 c 0.0953,-0.90027 0.47662,-1.33452 1.14388,-1.33452 0.69904,0 1.10152,0.46602 1.18625,1.33452 z m 0,0"
         style="fill:#000000;fill-opacity:1;fill-rule:nonzero;stroke:none"
         aria-label="ceiling&#10;L/4L/4L/2&#10;floor&#10;Chad&#10;trestle"
         transform="matrix(1.47524,0,0,1.47524,6251.4906,304.93778)"
         clip-path="url(#clipPath400)"
         id="path434" />
    </g>
  </g>
</svg>
