<?xml version="1.0" encoding="UTF-8" standalone="no"?>
<!-- Created with Inkscape (http://www.inkscape.org/) -->

<svg
   width="137.15791mm"
   height="43.732258mm"
   viewBox="0 0 137.15791 43.732258"
   version="1.1"
   id="svg1"
   sodipodi:docname="6a.svg"
   inkscape:version="1.3.2 (091e20ef0f, 2023-11-25)"
   xmlns:inkscape="http://www.inkscape.org/namespaces/inkscape"
   xmlns:sodipodi="http://sodipodi.sourceforge.net/DTD/sodipodi-0.dtd"
   xmlns="http://www.w3.org/2000/svg"
   xmlns:svg="http://www.w3.org/2000/svg">
  <sodipodi:namedview
     id="namedview1"
     pagecolor="#ffffff"
     bordercolor="#000000"
     borderopacity="0.25"
     inkscape:showpageshadow="2"
     inkscape:pageopacity="0.0"
     inkscape:pagecheckerboard="0"
     inkscape:deskcolor="#d1d1d1"
     inkscape:document-units="mm"
     inkscape:zoom="3.2957842"
     inkscape:cx="266.55264"
     inkscape:cy="70.08954"
     inkscape:window-width="2560"
     inkscape:window-height="1600"
     inkscape:window-x="0"
     inkscape:window-y="0"
     inkscape:window-maximized="1"
     inkscape:current-layer="layer1">
    <inkscape:page
       x="0"
       y="0"
       width="137.15791"
       height="43.732258"
       id="page11"
       margin="5.0000005"
       bleed="0" />
  </sodipodi:namedview>
  <defs
     id="defs1" />
  <g
     inkscape:label="Layer 1"
     inkscape:groupmode="layer"
     id="layer1"
     transform="translate(-13.26646,-74.577589)">
    <rect
       style="fill:#ffffff;stroke:none;stroke-width:0.264999;stroke-linecap:round;stroke-linejoin:round;stroke-dasharray:none;stroke-opacity:1"
       id="rect11"
       width="137.1579"
       height="43.732258"
       x="13.26646"
       y="74.577591" />
    <g
       id="g11">
      <text
         xml:space="preserve"
         style="font-size:3.175px;font-family:'TeX Gyre Adventor';-inkscape-font-specification:'TeX Gyre Adventor';fill:none;stroke:#000000;stroke-width:0.264999;stroke-linecap:round;stroke-linejoin:round;stroke-dasharray:none;stroke-opacity:1"
         x="18.12676"
         y="81.965187"
         id="text3"><tspan
           sodipodi:role="line"
           id="tspan3"
           style="fill:#000000;stroke:none;stroke-width:0.265"
           x="18.12676"
           y="81.965187">Chad (C), mass m</tspan></text>
      <g
         id="g10">
        <circle
           style="fill:#000000;stroke-width:0.276966"
           id="path1"
           cx="32.042789"
           cy="98.31337"
           r="2.5" />
        <g
           id="path2">
          <path
             style="color:#000000;fill:#000000;stroke-linecap:round;stroke-linejoin:round;-inkscape-stroke:none"
             d="m 32.042969,83.9375 a 0.13249999,0.13249999 0 0 0 -0.132813,0.132812 V 95.8125 a 0.13249999,0.13249999 0 0 0 0.132813,0.132812 0.13249999,0.13249999 0 0 0 0.132812,-0.132812 V 84.070312 A 0.13249999,0.13249999 0 0 0 32.042969,83.9375 Z"
             id="path22" />
          <g
             id="g21">
            <path
               style="color:#000000;fill:#000000;stroke-linecap:round;-inkscape-stroke:none"
               d="m 32.042969,83.816406 -0.888672,0.888672 a 0.13249999,0.13249999 0 0 0 0,0.1875 0.13249999,0.13249999 0 0 0 0.1875,0 l 0.701172,-0.701172 0.701172,0.701172 a 0.13249999,0.13249999 0 0 0 0.1875,0 0.13249999,0.13249999 0 0 0 0,-0.1875 z"
               id="path21" />
          </g>
        </g>
        <g
           id="path2-5">
          <path
             style="color:#000000;fill:#000000;stroke-linecap:round;stroke-linejoin:round;-inkscape-stroke:none"
             d="m 32.042969,100.68164 a 0.13249999,0.13249999 0 0 0 -0.132813,0.13086 v 11.74414 a 0.13249999,0.13249999 0 0 0 0.132813,0.13281 0.13249999,0.13249999 0 0 0 0.132812,-0.13281 V 100.8125 a 0.13249999,0.13249999 0 0 0 -0.132812,-0.13086 z"
             id="path24" />
          <g
             id="g23">
            <path
               style="color:#000000;fill:#000000;stroke-linecap:round;-inkscape-stroke:none"
               d="m 31.154297,111.73438 a 0.13249999,0.13249999 0 0 0 0,0.1875 l 0.888672,0.88867 0.888672,-0.88867 a 0.13249999,0.13249999 0 0 0 0,-0.1875 0.13249999,0.13249999 0 0 0 -0.1875,0 l -0.701172,0.70117 -0.701172,-0.70117 a 0.13249999,0.13249999 0 0 0 -0.1875,0 z"
               id="path23" />
          </g>
        </g>
        <text
           xml:space="preserve"
           style="font-size:3.175px;font-family:'TeX Gyre Adventor';-inkscape-font-specification:'TeX Gyre Adventor';fill:none;stroke:#000000;stroke-width:0.264999;stroke-linecap:round;stroke-linejoin:round;stroke-dasharray:none;stroke-opacity:1"
           x="32.970287"
           y="92.738289"
           id="text3-1"><tspan
             sodipodi:role="line"
             id="tspan3-2"
             style="fill:#000000;stroke:none;stroke-width:0.265"
             x="32.970287"
             y="92.738289">N<tspan
   style="font-size:65%;baseline-shift:sub"
   id="tspan4">CB</tspan></tspan></text>
        <text
           xml:space="preserve"
           style="font-size:3.175px;font-family:'TeX Gyre Adventor';-inkscape-font-specification:'TeX Gyre Adventor';fill:none;stroke:#000000;stroke-width:0.264999;stroke-linecap:round;stroke-linejoin:round;stroke-dasharray:none;stroke-opacity:1"
           x="32.970287"
           y="108.12312"
           id="text3-1-3"><tspan
             sodipodi:role="line"
             id="tspan3-2-6"
             style="fill:#000000;stroke:none;stroke-width:0.265"
             x="32.970287"
             y="108.12312">W<tspan
   style="font-size:65%;baseline-shift:sub"
   id="tspan5">C</tspan></tspan></text>
      </g>
      <text
         xml:space="preserve"
         style="font-size:3.175px;font-family:'TeX Gyre Adventor';-inkscape-font-specification:'TeX Gyre Adventor';fill:none;stroke:#000000;stroke-width:0.264999;stroke-linecap:round;stroke-linejoin:round;stroke-dasharray:none;stroke-opacity:1"
         x="57.420471"
         y="81.94455"
         id="text3-3"><tspan
           sodipodi:role="line"
           id="tspan3-7"
           style="fill:#000000;stroke:none;stroke-width:0.265"
           x="57.420471"
           y="81.94455">Board (B), mass M</tspan></text>
      <g
         id="g9">
        <circle
           style="fill:#000000;stroke-width:0.276966"
           id="path1-2"
           cx="71.079323"
           cy="98.31337"
           r="2.5" />
        <g
           id="path2-0">
          <path
             style="color:#000000;fill:#000000;stroke-linecap:round;stroke-linejoin:round;-inkscape-stroke:none"
             d="m 68.580078,86.4375 a 0.13249999,0.13249999 0 0 0 -0.132812,0.132812 V 98.3125 a 0.13249999,0.13249999 0 0 0 0.132812,0.132812 0.13249999,0.13249999 0 0 0 0.130859,-0.132812 V 86.570312 A 0.13249999,0.13249999 0 0 0 68.580078,86.4375 Z"
             id="path16" />
          <g
             id="g15">
            <path
               style="color:#000000;fill:#000000;stroke-linecap:round;-inkscape-stroke:none"
               d="m 68.580078,86.316406 -0.888672,0.888672 a 0.13249999,0.13249999 0 0 0 0,0.1875 0.13249999,0.13249999 0 0 0 0.1875,0 l 0.701172,-0.701172 0.701172,0.701172 a 0.13249999,0.13249999 0 0 0 0.1875,0 0.13249999,0.13249999 0 0 0 0,-0.1875 z"
               id="path15" />
          </g>
        </g>
        <g
           id="path2-0-1">
          <path
             style="color:#000000;fill:#000000;stroke-linecap:round;stroke-linejoin:round;-inkscape-stroke:none"
             d="m 73.580078,86.4375 a 0.13249999,0.13249999 0 0 0 -0.132812,0.132812 V 98.3125 a 0.13249999,0.13249999 0 0 0 0.132812,0.132812 0.13249999,0.13249999 0 0 0 0.130859,-0.132812 V 86.570312 A 0.13249999,0.13249999 0 0 0 73.580078,86.4375 Z"
             id="path14" />
          <g
             id="g13">
            <path
               style="color:#000000;fill:#000000;stroke-linecap:round;-inkscape-stroke:none"
               d="m 73.580078,86.316406 -0.888672,0.888672 a 0.13249999,0.13249999 0 0 0 0,0.1875 0.13249999,0.13249999 0 0 0 0.1875,0 l 0.701172,-0.701172 0.701172,0.701172 a 0.13249999,0.13249999 0 0 0 0.1875,0 0.13249999,0.13249999 0 0 0 0,-0.1875 z"
               id="path13" />
          </g>
        </g>
        <g
           id="path2-5-2">
          <path
             style="color:#000000;fill:#000000;stroke-linecap:round;stroke-linejoin:round;-inkscape-stroke:none"
             d="M 73.580078,98.181641 A 0.13249999,0.13249999 0 0 0 73.447266,98.3125 v 11.74414 a 0.13249999,0.13249999 0 0 0 0.132812,0.13281 0.13249999,0.13249999 0 0 0 0.130859,-0.13281 V 98.3125 a 0.13249999,0.13249999 0 0 0 -0.130859,-0.130859 z"
             id="path20" />
          <g
             id="g19">
            <path
               style="color:#000000;fill:#000000;stroke-linecap:round;-inkscape-stroke:none"
               d="m 72.785156,109.19531 a 0.13249999,0.13249999 0 0 0 -0.09375,0.0391 0.13249999,0.13249999 0 0 0 0,0.1875 l 0.888672,0.88867 0.888672,-0.88867 a 0.13249999,0.13249999 0 0 0 0,-0.1875 0.13249999,0.13249999 0 0 0 -0.1875,0 l -0.701172,0.70117 -0.701172,-0.70117 a 0.13249999,0.13249999 0 0 0 -0.09375,-0.0391 z"
               id="path19" />
          </g>
        </g>
        <g
           id="path2-5-2-9">
          <path
             style="color:#000000;fill:#000000;stroke-linecap:round;stroke-linejoin:round;-inkscape-stroke:none"
             d="M 68.580078,98.181641 A 0.13249999,0.13249999 0 0 0 68.447266,98.3125 v 11.74414 a 0.13249999,0.13249999 0 0 0 0.132812,0.13281 0.13249999,0.13249999 0 0 0 0.130859,-0.13281 V 98.3125 a 0.13249999,0.13249999 0 0 0 -0.130859,-0.130859 z"
             id="path18" />
          <g
             id="g17">
            <path
               style="color:#000000;fill:#000000;stroke-linecap:round;-inkscape-stroke:none"
               d="m 67.785156,109.19531 a 0.13249999,0.13249999 0 0 0 -0.09375,0.0391 0.13249999,0.13249999 0 0 0 0,0.1875 l 0.888672,0.88867 0.888672,-0.88867 a 0.13249999,0.13249999 0 0 0 0,-0.1875 0.13249999,0.13249999 0 0 0 -0.1875,0 l -0.701172,0.70117 -0.701172,-0.70117 a 0.13249999,0.13249999 0 0 0 -0.09375,-0.0391 z"
               id="path17" />
          </g>
        </g>
        <text
           xml:space="preserve"
           style="font-size:3.175px;font-family:'TeX Gyre Adventor';-inkscape-font-specification:'TeX Gyre Adventor';fill:none;stroke:#000000;stroke-width:0.264999;stroke-linecap:round;stroke-linejoin:round;stroke-dasharray:none;stroke-opacity:1"
           x="74.624252"
           y="106.61905"
           id="text3-1-5"><tspan
             sodipodi:role="line"
             id="tspan3-2-9"
             style="fill:#000000;stroke:none;stroke-width:0.265"
             x="74.624252"
             y="106.61905">N<tspan
   style="font-size:65%;baseline-shift:sub"
   id="tspan4-2">BC</tspan></tspan></text>
        <text
           xml:space="preserve"
           style="font-size:3.175px;font-family:'TeX Gyre Adventor';-inkscape-font-specification:'TeX Gyre Adventor';fill:none;stroke:#000000;stroke-width:0.264999;stroke-linecap:round;stroke-linejoin:round;stroke-dasharray:none;stroke-opacity:1"
           x="63.058617"
           y="106.63246"
           id="text3-1-3-2"><tspan
             sodipodi:role="line"
             id="tspan3-2-6-8"
             style="fill:#000000;stroke:none;stroke-width:0.265"
             x="63.058617"
             y="106.63246">W<tspan
   style="font-size:65%;baseline-shift:sub"
   id="tspan5-9">B</tspan></tspan></text>
        <text
           xml:space="preserve"
           style="font-size:3.175px;font-family:'TeX Gyre Adventor';-inkscape-font-specification:'TeX Gyre Adventor';fill:none;stroke:#000000;stroke-width:0.264999;stroke-linecap:round;stroke-linejoin:round;stroke-dasharray:none;stroke-opacity:1"
           x="62.839783"
           y="92.689659"
           id="text3-1-3-2-4"><tspan
             sodipodi:role="line"
             id="tspan3-2-6-8-7"
             style="fill:#000000;stroke:none;stroke-width:0.265"
             x="62.839783"
             y="92.689659">N<tspan
   style="font-size:65%;baseline-shift:sub"
   id="tspan6">BT</tspan></tspan></text>
        <text
           xml:space="preserve"
           style="font-size:3.175px;font-family:'TeX Gyre Adventor';-inkscape-font-specification:'TeX Gyre Adventor';fill:none;stroke:#000000;stroke-width:0.264999;stroke-linecap:round;stroke-linejoin:round;stroke-dasharray:none;stroke-opacity:1"
           x="76.253822"
           y="93.237045"
           id="text3-1-3-2-4-2"><tspan
             sodipodi:role="line"
             id="tspan3-2-6-8-7-0"
             style="fill:#000000;stroke:none;stroke-width:0.265"
             x="76.253822"
             y="93.237045">T<tspan
   style="font-size:65%;baseline-shift:sub"
   id="tspan7">1</tspan></tspan></text>
      </g>
      <g
         id="g8"
         transform="translate(66.521279,-26.74225)">
        <g
           id="path2-5-2-6">
          <path
             style="color:#000000;fill:#000000;stroke-linecap:round;stroke-linejoin:round;-inkscape-stroke:none"
             d="m 63.902344,127.92383 a 0.13249999,0.13249999 0 0 0 -0.13086,0.13086 v 11.74414 a 0.13249999,0.13249999 0 0 0 0.13086,0.13281 0.13249999,0.13249999 0 0 0 0.132812,-0.13281 v -11.74414 a 0.13249999,0.13249999 0 0 0 -0.132812,-0.13086 z"
             id="path28" />
          <g
             id="g27">
            <path
               style="color:#000000;fill:#000000;stroke-linecap:round;-inkscape-stroke:none"
               d="m 63.013672,138.97656 a 0.13249999,0.13249999 0 0 0 0,0.1875 l 0.888672,0.88867 0.888672,-0.88867 a 0.13249999,0.13249999 0 0 0 0,-0.1875 0.13249999,0.13249999 0 0 0 -0.1875,0 l -0.701172,0.70117 -0.701172,-0.70117 a 0.13249999,0.13249999 0 0 0 -0.1875,0 z"
               id="path27" />
          </g>
        </g>
        <text
           xml:space="preserve"
           style="font-size:3.175px;font-family:'TeX Gyre Adventor';-inkscape-font-specification:'TeX Gyre Adventor';fill:none;stroke:#000000;stroke-width:0.264999;stroke-linecap:round;stroke-linejoin:round;stroke-dasharray:none;stroke-opacity:1"
           x="64.948029"
           y="136.3613"
           id="text3-1-5-8"><tspan
             sodipodi:role="line"
             id="tspan3-2-9-8"
             style="fill:#000000;stroke:none;stroke-width:0.265"
             x="64.948029"
             y="136.3613">N<tspan
   style="font-size:65%;baseline-shift:sub"
   id="tspan4-2-4">BC</tspan></tspan></text>
        <g
           id="path2-5-2-9-0">
          <path
             style="color:#000000;fill:#000000;stroke-linecap:round;stroke-linejoin:round;-inkscape-stroke:none"
             d="m 48.902344,127.92383 a 0.13249999,0.13249999 0 0 0 -0.13086,0.13086 v 11.74414 a 0.13249999,0.13249999 0 0 0 0.13086,0.13281 0.13249999,0.13249999 0 0 0 0.132812,-0.13281 v -11.74414 a 0.13249999,0.13249999 0 0 0 -0.132812,-0.13086 z"
             id="path30" />
          <g
             id="g29">
            <path
               style="color:#000000;fill:#000000;stroke-linecap:round;-inkscape-stroke:none"
               d="m 48.013672,138.97656 a 0.13249999,0.13249999 0 0 0 0,0.1875 l 0.888672,0.88867 0.888672,-0.88867 a 0.13249999,0.13249999 0 0 0 0,-0.1875 0.13249999,0.13249999 0 0 0 -0.1875,0 l -0.701172,0.70117 -0.701172,-0.70117 a 0.13249999,0.13249999 0 0 0 -0.1875,0 z"
               id="path29" />
          </g>
        </g>
        <text
           xml:space="preserve"
           style="font-size:3.175px;font-family:'TeX Gyre Adventor';-inkscape-font-specification:'TeX Gyre Adventor';fill:none;stroke:#000000;stroke-width:0.264999;stroke-linecap:round;stroke-linejoin:round;stroke-dasharray:none;stroke-opacity:1"
           x="43.382393"
           y="136.37471"
           id="text3-1-3-2-6"><tspan
             sodipodi:role="line"
             id="tspan3-2-6-8-8"
             style="fill:#000000;stroke:none;stroke-width:0.265"
             x="43.382393"
             y="136.37471">W<tspan
   style="font-size:65%;baseline-shift:sub"
   id="tspan5-9-9">B</tspan></tspan></text>
        <g
           id="path2-0-5">
          <path
             style="color:#000000;fill:#000000;stroke-linecap:round;stroke-linejoin:round;-inkscape-stroke:none"
             d="m 63.902344,113.17969 a 0.13249999,0.13249999 0 0 0 -0.13086,0.13281 v 11.74219 a 0.13249999,0.13249999 0 0 0 0.13086,0.13281 0.13249999,0.13249999 0 0 0 0.132812,-0.13281 V 113.3125 a 0.13249999,0.13249999 0 0 0 -0.132812,-0.13281 z"
             id="path26" />
          <g
             id="g25">
            <path
               style="color:#000000;fill:#000000;stroke-linecap:round;-inkscape-stroke:none"
               d="m 63.902344,113.05859 -0.888672,0.88868 a 0.13249999,0.13249999 0 0 0 0,0.1875 0.13249999,0.13249999 0 0 0 0.1875,0 l 0.701172,-0.70118 0.701172,0.70118 a 0.13249999,0.13249999 0 0 0 0.1875,0 0.13249999,0.13249999 0 0 0 0,-0.1875 z"
               id="path25" />
          </g>
        </g>
        <text
           xml:space="preserve"
           style="font-size:3.175px;font-family:'TeX Gyre Adventor';-inkscape-font-specification:'TeX Gyre Adventor';fill:none;stroke:#000000;stroke-width:0.264999;stroke-linecap:round;stroke-linejoin:round;stroke-dasharray:none;stroke-opacity:1"
           x="58.163559"
           y="119.43192"
           id="text3-1-3-2-4-4"><tspan
             sodipodi:role="line"
             id="tspan3-2-6-8-7-7"
             style="fill:#000000;stroke:none;stroke-width:0.265"
             x="58.163559"
             y="119.43192">N<tspan
   style="font-size:65%;baseline-shift:sub"
   id="tspan6-4">BT</tspan></tspan></text>
        <g
           id="path2-0-1-6">
          <path
             style="color:#000000;fill:#000000;stroke-linecap:round;stroke-linejoin:round;-inkscape-stroke:none"
             d="m 18.902344,113.17969 a 0.13249999,0.13249999 0 0 0 -0.13086,0.13281 v 11.74219 a 0.13249999,0.13249999 0 0 0 0.13086,0.13281 0.13249999,0.13249999 0 0 0 0.132812,-0.13281 V 113.3125 a 0.13249999,0.13249999 0 0 0 -0.132812,-0.13281 z"
             id="path32" />
          <g
             id="g31">
            <path
               style="color:#000000;fill:#000000;stroke-linecap:round;-inkscape-stroke:none"
               d="m 18.902344,113.05859 -0.888672,0.88868 a 0.13249999,0.13249999 0 0 0 0,0.1875 0.13249999,0.13249999 0 0 0 0.1875,0 l 0.701172,-0.70118 0.701172,0.70118 a 0.13249999,0.13249999 0 0 0 0.1875,0 0.13249999,0.13249999 0 0 0 0,-0.1875 z"
               id="path31" />
          </g>
        </g>
        <text
           xml:space="preserve"
           style="font-size:3.175px;font-family:'TeX Gyre Adventor';-inkscape-font-specification:'TeX Gyre Adventor';fill:none;stroke:#000000;stroke-width:0.264999;stroke-linecap:round;stroke-linejoin:round;stroke-dasharray:none;stroke-opacity:1"
           x="21.577597"
           y="119.97929"
           id="text3-1-3-2-4-2-5"><tspan
             sodipodi:role="line"
             id="tspan3-2-6-8-7-0-6"
             style="fill:#000000;stroke:none;stroke-width:0.265"
             x="21.577597"
             y="119.97929">T<tspan
   style="font-size:65%;baseline-shift:sub"
   id="tspan7-9">1</tspan></tspan></text>
        <rect
           style="fill:#000000;stroke:none;stroke-width:0.254958;stroke-linecap:round;stroke-linejoin:round;stroke-dasharray:none;stroke-opacity:1"
           id="rect7"
           width="60"
           height="3"
           x="18.903097"
           y="125.05562" />
      </g>
    </g>
  </g>
</svg>
