<?xml version="1.0" encoding="UTF-8" standalone="no"?>
<!-- Created with Inkscape (http://www.inkscape.org/) -->

<svg
   width="206.06093mm"
   height="172.08714mm"
   viewBox="0 0 206.06093 172.08714"
   version="1.1"
   id="svg1"
   xmlns="http://www.w3.org/2000/svg"
   xmlns:svg="http://www.w3.org/2000/svg">
  <defs
     id="defs1" />
  <g
     id="layer1"
     transform="translate(-0.52388163,-16.991067)">
    <g
       id="g1"
       transform="translate(14.682952,4.4493795)">
      <circle
         style="fill:#000000;stroke-width:0.264583"
         id="path1"
         cx="54.949837"
         cy="98.553757"
         r="2.8920968" />
      <text
         xml:space="preserve"
         style="font-size:3.175px;fill:#ffffff;stroke-width:0.264583"
         x="53.998734"
         y="99.11264"
         id="text1"><tspan
           id="tspan1"
           style="fill:#ffffff;stroke-width:0.264583"
           x="53.998734"
           y="99.11264">q</tspan></text>
    </g>
    <g
       id="g2"
       transform="translate(82.526075,4.4493795)">
      <circle
         style="fill:#000000;stroke-width:0.264583"
         id="path1-6"
         cx="54.949837"
         cy="98.553757"
         r="2.8920968" />
      <text
         xml:space="preserve"
         style="font-size:3.175px;fill:#ffffff;stroke-width:0.264583"
         x="53.998734"
         y="99.11264"
         id="text1-4"><tspan
           id="tspan1-9"
           style="fill:#ffffff;stroke-width:0.264583"
           x="53.998734"
           y="99.11264">q</tspan></text>
    </g>
    <path
       id="path2"
       style="fill:none;stroke:#000000;stroke-width:0.264583"
       d="m 64.45963,103.00314 c 0,-2.85706 2.316102,-5.173162 5.173159,-5.173162 2.857057,0 5.173158,2.316102 5.173158,5.173162" />
    <path
       id="path3"
       style="fill:none;stroke:#000000;stroke-width:0.264583"
       d="m 60.622045,103.00314 c 0,-4.976492 4.034248,-9.01074 9.010744,-9.01074 4.976496,0 10.190564,4.034238 10.190564,9.01073" />
    <path
       id="path4"
       style="fill:none;stroke:#000000;stroke-width:0.264583"
       d="m 56.172661,103.00314 c 0,-7.433826 6.026305,-13.460131 13.460128,-13.460131 7.433823,0 16.449005,6.026307 16.449005,13.460131" />
    <path
       id="path5"
       style="fill:none;stroke:#000000;stroke-width:0.264583"
       d="m 50.696334,103.00314 c 10e-7,-10.458311 8.47814,-18.93645 18.936455,-18.93645 8.507661,0 18.281279,4.727121 23.188094,12.839046 1.125044,1.859919 1.99424,3.897774 2.533665,6.097394" />
    <path
       id="path6"
       style="fill:none;stroke:#000000;stroke-width:0.264583"
       d="m 43.720109,103.00314 c 0,-14.311181 11.601502,-25.912683 25.91268,-25.912683 14.311178,10e-7 25.245272,8.407209 33.921561,25.944183" />
    <path
       id="path7"
       style="fill:none;stroke:#000000;stroke-width:0.264583"
       d="m 35.306655,103.00314 c 0,-18.957803 15.368334,-34.326137 34.326134,-34.326137 18.9578,10e-7 28.026134,13.487 33.921561,13.487" />
    <path
       id="path8"
       style="fill:none;stroke:#000000;stroke-width:0.264583"
       d="m 26.923308,103.00314 c 0,-23.587791 19.121686,-42.709476 42.709481,-42.709476 13.205379,0 24.011075,4.68461 33.921561,4.68461" />
    <path
       id="path2-9"
       style="fill:none;stroke:#000000;stroke-width:0.264583"
       d="m 64.45963,103.00313 c 0,2.85705 2.316102,5.17316 5.173159,5.17316 2.857057,0 5.173158,-2.31611 5.173158,-5.17316" />
    <path
       id="path3-3"
       style="fill:none;stroke:#000000;stroke-width:0.264583"
       d="m 60.622045,103.00312 c 0,4.9765 4.034248,9.01075 9.010744,9.01075 4.976496,0 10.190564,-4.03424 10.190564,-9.01074" />
    <path
       id="path4-7"
       style="fill:none;stroke:#000000;stroke-width:0.264583"
       d="m 56.172661,103.00313 c 0,7.43382 6.026305,13.46013 13.460128,13.46013 7.433823,0 16.449005,-6.02631 16.449005,-13.46013" />
    <path
       id="path5-4"
       style="fill:none;stroke:#000000;stroke-width:0.264583"
       d="m 50.696334,103.00312 c 10e-7,10.45832 8.47814,18.93645 18.936455,18.93645 8.507661,0 18.281278,-4.72712 23.188088,-12.83904 1.12505,-1.85992 1.99425,-3.89778 2.53367,-6.0974" />
    <path
       id="path6-5"
       style="fill:none;stroke:#000000;stroke-width:0.264583"
       d="m 43.720109,103.00313 c 0,14.31118 11.601502,25.91268 25.91268,25.91268 14.311178,0 25.245268,-8.40721 33.921551,-25.94419" />
    <path
       id="path7-2"
       style="fill:none;stroke:#000000;stroke-width:0.264583"
       d="m 35.306655,103.00313 c 0,18.9578 15.368334,34.32613 34.326134,34.32613 18.9578,0 28.026134,-13.487 33.921551,-13.487" />
    <path
       id="path8-5"
       style="fill:none;stroke:#000000;stroke-width:0.264583"
       d="m 26.923308,103.00312 c 0,23.5878 19.121686,42.70948 42.709481,42.70948 13.205379,0 24.011078,-4.68461 33.921551,-4.68461" />
    <path
       id="path2-3"
       style="fill:none;stroke:#000000;stroke-width:0.264583"
       d="m 142.64907,103.00314 c 0,-2.85706 -2.3161,-5.173161 -5.17316,-5.173161 -2.85706,0 -5.17316,2.316101 -5.17316,5.173161" />
    <path
       id="path3-0"
       style="fill:none;stroke:#000000;stroke-width:0.264583"
       d="m 146.48666,103.00314 c 0,-4.976491 -4.03425,-9.010741 -9.01075,-9.010741 -4.97649,0 -10.19056,4.03424 -10.19056,9.010731" />
    <path
       id="path4-78"
       style="fill:none;stroke:#000000;stroke-width:0.264583"
       d="m 150.93604,103.00314 c 0,-7.433831 -6.02631,-13.460131 -13.46013,-13.460131 -7.43382,0 -16.449,6.02631 -16.449,13.460131" />
    <path
       id="path5-6"
       style="fill:none;stroke:#000000;stroke-width:0.264583"
       d="m 156.41237,103.00314 c -1e-5,-10.458311 -8.47814,-18.93645 -18.93646,-18.93645 -8.50766,0 -18.28128,4.727119 -23.18809,12.839049 -1.12505,1.85992 -1.99424,3.897771 -2.53367,6.097391" />
    <path
       id="path6-8"
       style="fill:none;stroke:#000000;stroke-width:0.264583"
       d="m 163.38859,103.00314 c 0,-14.311181 -11.6015,-25.912683 -25.91268,-25.912683 -14.31118,10e-7 -25.24527,8.407209 -33.92156,25.944183" />
    <path
       id="path7-8"
       style="fill:none;stroke:#000000;stroke-width:0.264583"
       d="m 171.80204,103.00314 c 0,-18.957803 -15.36833,-34.326137 -34.32613,-34.326137 -18.9578,10e-7 -28.02613,13.487 -33.92156,13.487" />
    <path
       id="path8-4"
       style="fill:none;stroke:#000000;stroke-width:0.264583"
       d="m 180.18539,103.00314 c 0,-23.587791 -19.12168,-42.709476 -42.70948,-42.709476 -13.20538,0 -24.01107,4.68461 -33.92156,4.68461" />
    <path
       id="path2-9-3"
       style="fill:none;stroke:#000000;stroke-width:0.264583"
       d="m 142.64907,103.00313 c 0,2.85705 -2.3161,5.17316 -5.17316,5.17316 -2.85706,0 -5.17316,-2.31611 -5.17316,-5.17316" />
    <path
       id="path3-3-1"
       style="fill:none;stroke:#000000;stroke-width:0.264583"
       d="m 146.48666,103.00312 c 0,4.9765 -4.03425,9.01075 -9.01075,9.01075 -4.97649,0 -10.19056,-4.03424 -10.19056,-9.01074" />
    <path
       id="path4-7-4"
       style="fill:none;stroke:#000000;stroke-width:0.264583"
       d="m 150.93604,103.00313 c 0,7.43382 -6.02631,13.46013 -13.46013,13.46013 -7.43382,0 -16.449,-6.02631 -16.449,-13.46013" />
    <path
       id="path5-4-9"
       style="fill:none;stroke:#000000;stroke-width:0.264583"
       d="m 156.41237,103.00312 c -1e-5,10.45832 -8.47814,18.93645 -18.93646,18.93645 -8.50766,0 -18.28128,-4.72712 -23.18809,-12.83904 -1.12505,-1.85992 -1.99425,-3.89778 -2.53367,-6.0974" />
    <path
       id="path6-5-2"
       style="fill:none;stroke:#000000;stroke-width:0.264583"
       d="m 163.38859,103.00313 c 0,14.31118 -11.6015,25.91268 -25.91268,25.91268 -14.31118,0 -25.24527,-8.40721 -33.92155,-25.94419" />
    <path
       id="path7-2-0"
       style="fill:none;stroke:#000000;stroke-width:0.264583"
       d="m 171.80204,103.00313 c 0,18.9578 -15.36833,34.32613 -34.32613,34.32613 -18.9578,0 -28.02613,-13.487 -33.92155,-13.487" />
    <path
       id="path8-5-6"
       style="fill:none;stroke:#000000;stroke-width:0.264583"
       d="m 180.18539,103.00312 c 0,23.5878 -19.12168,42.70948 -42.70948,42.70948 -13.20538,0 -24.01108,-4.68461 -33.92155,-4.68461" />
    <ellipse
       style="fill:none;stroke:#000000;stroke-width:0.264583"
       id="path9"
       cx="103.55435"
       cy="103.03464"
       rx="86.218559"
       ry="59.665485" />
    <ellipse
       style="fill:none;stroke:#000000;stroke-width:0.264583"
       id="path10"
       cx="103.55435"
       cy="103.03464"
       rx="97.898178"
       ry="80.911278" />
  </g>
</svg>
