<?xml version="1.0" encoding="UTF-8" standalone="no"?>
<!-- Created with Inkscape (http://www.inkscape.org/) -->

<svg
   width="130.04744mm"
   height="135.19324mm"
   viewBox="0 0 130.04744 135.19324"
   version="1.1"
   id="svg1"
   inkscape:version="1.3.2 (091e20ef0f, 2023-11-25)"
   sodipodi:docname="3.svg"
   xmlns:inkscape="http://www.inkscape.org/namespaces/inkscape"
   xmlns:sodipodi="http://sodipodi.sourceforge.net/DTD/sodipodi-0.dtd"
   xmlns="http://www.w3.org/2000/svg"
   xmlns:svg="http://www.w3.org/2000/svg">
  <sodipodi:namedview
     id="namedview1"
     pagecolor="#ffffff"
     bordercolor="#000000"
     borderopacity="0.25"
     inkscape:showpageshadow="2"
     inkscape:pageopacity="0.0"
     inkscape:pagecheckerboard="0"
     inkscape:deskcolor="#d1d1d1"
     inkscape:document-units="mm"
     inkscape:zoom="1.1652357"
     inkscape:cx="203.82143"
     inkscape:cy="236.00376"
     inkscape:window-width="2560"
     inkscape:window-height="1600"
     inkscape:window-x="0"
     inkscape:window-y="0"
     inkscape:window-maximized="1"
     inkscape:current-layer="layer1">
    <inkscape:page
       x="0"
       y="0"
       width="130.04744"
       height="135.19324"
       id="page1"
       margin="5.0000005"
       bleed="0" />
  </sodipodi:namedview>
  <defs
     id="defs1">
    <clipPath
       clipPathUnits="userSpaceOnUse"
       id="clipPath150">
      <path
         d="M 0,0 H 404 V 423 H 0 Z"
         transform="matrix(10,0,0,10,2.9373752e-4,0)"
         id="path150" />
    </clipPath>
    <clipPath
       clipPathUnits="userSpaceOnUse"
       id="clipPath151">
      <path
         d="M 0,0 H 404 V 423 H 0 Z"
         transform="matrix(10,0,0,10,2.9373752e-4,0)"
         id="path151" />
    </clipPath>
    <clipPath
       clipPathUnits="userSpaceOnUse"
       id="clipPath152">
      <path
         d="M 0,0 H 404 V 423 H 0 Z"
         transform="matrix(10,0,0,10,2.9373752e-4,0)"
         id="path152" />
    </clipPath>
    <clipPath
       clipPathUnits="userSpaceOnUse"
       id="clipPath153">
      <path
         d="M 0,0 H 404 V 423 H 0 Z"
         transform="matrix(10,0,0,10,2.9373752e-4,0)"
         id="path153" />
    </clipPath>
    <clipPath
       clipPathUnits="userSpaceOnUse"
       id="clipPath154">
      <path
         d="M 0,0 H 4040 V 4230 H 0 Z M 252,600.801 V 479.602 h 54 v 121.199 l -27,-90 z"
         transform="translate(2.9373752e-4)"
         clip-rule="evenodd"
         id="path154" />
    </clipPath>
    <clipPath
       clipPathUnits="userSpaceOnUse"
       id="clipPath155">
      <path
         d="M 0,0 H 404 V 423 H 0 Z"
         transform="matrix(10,0,0,10,2.9373752e-4,0)"
         id="path155" />
    </clipPath>
    <clipPath
       clipPathUnits="userSpaceOnUse"
       id="clipPath156">
      <path
         d="M 0,0 H 4040 V 4230 H 0 Z m 2197.2,197 h 121.2 v 54 h -121.2 v 0 l 90,-27 z"
         transform="translate(2.9373752e-4)"
         clip-rule="evenodd"
         id="path156" />
    </clipPath>
    <clipPath
       clipPathUnits="userSpaceOnUse"
       id="clipPath157">
      <path
         d="M 0,0 H 404 V 423 H 0 Z"
         transform="matrix(10,0,0,10,2.9373752e-4,0)"
         id="path157" />
    </clipPath>
    <clipPath
       clipPathUnits="userSpaceOnUse"
       id="clipPath158">
      <path
         d="M 0,0 H 4040 V 4230 H 0 Z m 1510.8,1241 h -121.2 v -54 h 121.2 v 0 l -90,27 z"
         transform="translate(2.9373752e-4)"
         clip-rule="evenodd"
         id="path158" />
    </clipPath>
    <clipPath
       clipPathUnits="userSpaceOnUse"
       id="clipPath159">
      <path
         d="M 0,0 H 404 V 423 H 0 Z"
         transform="matrix(10,0,0,10,2.9373752e-4,0)"
         id="path159" />
    </clipPath>
    <clipPath
       clipPathUnits="userSpaceOnUse"
       id="clipPath160">
      <path
         d="M 0,0 H 404 V 423 H 0 Z"
         transform="matrix(10,0,0,10,2.9373752e-4,0)"
         id="path160" />
    </clipPath>
    <clipPath
       clipPathUnits="userSpaceOnUse"
       id="clipPath161">
      <path
         d="M 0,0 H 4040 V 4230 H 0 Z m 2680.8,1232.6 -106.8,57 -25.8,-47.4 107.4,-57 v 0 l -66.6,66 z"
         transform="translate(2.9373752e-4)"
         clip-rule="evenodd"
         id="path161" />
    </clipPath>
    <clipPath
       clipPathUnits="userSpaceOnUse"
       id="clipPath162">
      <path
         d="M 0,0 H 404 V 423 H 0 Z"
         transform="matrix(10,0,0,10,2.9373752e-4,0)"
         id="path162" />
    </clipPath>
    <clipPath
       clipPathUnits="userSpaceOnUse"
       id="clipPath163">
      <path
         d="M 0,0 H 404 V 423 H 0 Z"
         transform="matrix(10,0,0,10,2.9373752e-4,0)"
         id="path163" />
    </clipPath>
    <clipPath
       clipPathUnits="userSpaceOnUse"
       id="clipPath164">
      <path
         d="M 0,0 H 4040 V 4230 H 0 Z M 3339,828.801 V 950 h -54 V 828.801 l 27,90 z"
         transform="translate(2.9373752e-4)"
         clip-rule="evenodd"
         id="path164" />
    </clipPath>
    <clipPath
       clipPathUnits="userSpaceOnUse"
       id="clipPath165">
      <path
         d="M 0,0 H 404 V 423 H 0 Z"
         transform="matrix(10,0,0,10,2.9373752e-4,0)"
         id="path165" />
    </clipPath>
    <clipPath
       clipPathUnits="userSpaceOnUse"
       id="clipPath166">
      <path
         d="M 0,0 H 404 V 423 H 0 Z"
         transform="matrix(10,0,0,10,2.9373752e-4,0)"
         id="path166" />
    </clipPath>
    <clipPath
       clipPathUnits="userSpaceOnUse"
       id="clipPath167">
      <path
         d="M 0,0 H 404 V 423 H 0 Z"
         transform="matrix(10,0,0,10,2.9373752e-4,0)"
         id="path167" />
    </clipPath>
    <clipPath
       clipPathUnits="userSpaceOnUse"
       id="clipPath168">
      <path
         d="M 0,0 H 404 V 423 H 0 Z"
         transform="matrix(10,0,0,10,2.9373752e-4,0)"
         id="path168" />
    </clipPath>
    <clipPath
       clipPathUnits="userSpaceOnUse"
       id="clipPath169">
      <path
         d="M 0,0 H 404 V 423 H 0 Z"
         transform="matrix(10,0,0,10,2.9373752e-4,0)"
         id="path169" />
    </clipPath>
    <clipPath
       clipPathUnits="userSpaceOnUse"
       id="clipPath170">
      <path
         d="M 0,0 H 404 V 423 H 0 Z"
         transform="matrix(0.46947175,-0.88294752,-0.88294752,-0.46947175,198.12373,357.18265)"
         id="path170" />
    </clipPath>
    <clipPath
       clipPathUnits="userSpaceOnUse"
       id="clipPath171">
      <path
         d="M 0,0 H 404 V 423 H 0 Z"
         transform="matrix(1,0,0,-1,-194.40004,62.9)"
         id="path171" />
    </clipPath>
    <clipPath
       clipPathUnits="userSpaceOnUse"
       id="clipPath172">
      <path
         d="M 0,0 H 404 V 423 H 0 Z"
         transform="matrix(1,0,0,-1,-72.900041,4.4)"
         id="path172" />
    </clipPath>
    <rect
       x="4710.8623"
       y="513.2168"
       width="93.052658"
       height="19.347567"
       id="rect382" />
    <rect
       x="4710.8623"
       y="513.2168"
       width="215.37996"
       height="24.868004"
       id="rect382-5" />
    <clipPath
       clipPathUnits="userSpaceOnUse"
       id="clipPath173">
      <path
         d="M 0,0 H 404 V 423 H 0 Z"
         transform="matrix(1,0,0,-1,-231.59999,372.56)"
         id="path173" />
    </clipPath>
  </defs>
  <g
     inkscape:label="Layer 1"
     inkscape:groupmode="layer"
     id="layer1"
     transform="translate(-51.091684,-86.016668)">
    <rect
       style="fill:#ffffff;stroke-width:0.264583"
       id="rect1"
       width="130.04736"
       height="135.19324"
       x="51.091763"
       y="86.01667" />
    <g
       id="g199"
       transform="matrix(0.26458333,0,0,0.26458333,-1098.1159,43.057839)">
      <path
         d="m 1886.4,719 c 0,-17.891 -14.51,-32.398 -32.4,-32.398 -17.89,0 -32.4,14.507 -32.4,32.398 0,17.891 14.51,32.398 32.4,32.398 17.89,0 32.4,-14.507 32.4,-32.398 z"
         style="fill:none;stroke:#0000ff;stroke-width:27;stroke-linecap:butt;stroke-linejoin:miter;stroke-miterlimit:10;stroke-dasharray:none;stroke-opacity:1"
         transform="matrix(0.11348,0,0,-0.11348,4360.5733,658.652)"
         clip-path="url(#clipPath150)"
         id="path174" />
      <path
         d="m 3042.6,1034 c 0,-35.125 -28.47,-63.602 -63.6,-63.602 -35.12,0 -63.6,28.477 -63.6,63.602 0,35.13 28.48,63.6 63.6,63.6 35.13,0 63.6,-28.47 63.6,-63.6 z"
         style="fill:none;stroke:#000000;stroke-width:27;stroke-linecap:butt;stroke-linejoin:miter;stroke-miterlimit:10;stroke-dasharray:none;stroke-opacity:1"
         transform="matrix(0.11348,0,0,-0.11348,4360.5733,658.652)"
         clip-path="url(#clipPath151)"
         id="path175" />
      <path
         d="m 3326.4,726.199 c 0,-266.09 -686.35,-481.801 -1533,-481.801 -846.654,0 -1533.002,215.711 -1533.002,481.801 0,266.09 686.348,481.801 1533.002,481.801 846.65,0 1533,-215.711 1533,-481.801 z"
         style="fill:none;stroke:#8f008f;stroke-width:9;stroke-linecap:butt;stroke-linejoin:miter;stroke-miterlimit:10;stroke-dasharray:27;stroke-dashoffset:0;stroke-opacity:1"
         transform="matrix(0.11348,0,0,-0.11348,4360.5733,658.652)"
         clip-path="url(#clipPath152)"
         id="path176" />
      <path
         d="M 909,3959 H 4014"
         style="fill:none;stroke:#000000;stroke-width:18;stroke-linecap:butt;stroke-linejoin:miter;stroke-miterlimit:10;stroke-dasharray:none;stroke-opacity:1"
         transform="matrix(0.11348,0,0,-0.11348,4360.5733,658.652)"
         clip-path="url(#clipPath153)"
         id="path177" />
      <path
         d="M 279,710.602 V 494"
         style="fill:none;stroke:#0000ff;stroke-width:9;stroke-linecap:butt;stroke-linejoin:miter;stroke-miterlimit:10;stroke-dasharray:none;stroke-opacity:1"
         transform="matrix(0.11348,0,0,-0.11348,4360.5733,658.652)"
         clip-path="url(#clipPath154)"
         id="path178" />
      <path
         d="m 252,600.801 27,-90 27,90"
         style="fill:none;stroke:#0000ff;stroke-width:9;stroke-linecap:butt;stroke-linejoin:miter;stroke-miterlimit:10;stroke-dasharray:none;stroke-opacity:1"
         transform="matrix(0.11348,0,0,-0.11348,4360.5733,658.652)"
         clip-path="url(#clipPath155)"
         id="path179" />
      <path
         d="M 1862.4,224 H 2304"
         style="fill:none;stroke:#0000ff;stroke-width:9;stroke-linecap:butt;stroke-linejoin:miter;stroke-miterlimit:10;stroke-dasharray:none;stroke-opacity:1"
         transform="matrix(0.11348,0,0,-0.11348,4360.5733,658.652)"
         clip-path="url(#clipPath156)"
         id="path180" />
      <path
         d="m 2197.2,197 90,27 -90,27"
         style="fill:none;stroke:#0000ff;stroke-width:9;stroke-linecap:butt;stroke-linejoin:miter;stroke-miterlimit:10;stroke-dasharray:none;stroke-opacity:1"
         transform="matrix(0.11348,0,0,-0.11348,4360.5733,658.652)"
         clip-path="url(#clipPath157)"
         id="path181" />
      <path
         d="M 1845.6,1214 H 1404"
         style="fill:none;stroke:#0000ff;stroke-width:9;stroke-linecap:butt;stroke-linejoin:miter;stroke-miterlimit:10;stroke-dasharray:none;stroke-opacity:1"
         transform="matrix(0.11348,0,0,-0.11348,4360.5733,658.652)"
         clip-path="url(#clipPath158)"
         id="path182" />
      <path
         d="m 1510.8,1241 -90,-27 90,-27"
         style="fill:none;stroke:#0000ff;stroke-width:9;stroke-linecap:butt;stroke-linejoin:miter;stroke-miterlimit:10;stroke-dasharray:none;stroke-opacity:1"
         transform="matrix(0.11348,0,0,-0.11348,4360.5733,658.652)"
         clip-path="url(#clipPath159)"
         id="path183" />
      <path
         d="M 1854,3959 V 854"
         style="fill:none;stroke:#000000;stroke-width:4.5;stroke-linecap:butt;stroke-linejoin:miter;stroke-miterlimit:10;stroke-dasharray:54, 21.6, 9, 16.2, 9, 16.2, 9, 21.6;stroke-dashoffset:0;stroke-opacity:1"
         transform="matrix(0.11348,0,0,-0.11348,4360.5733,658.652)"
         clip-path="url(#clipPath160)"
         id="path184" />
      <path
         d="M 2979,1042.4 2574,1259"
         style="fill:none;stroke:#0000ff;stroke-width:9;stroke-linecap:butt;stroke-linejoin:miter;stroke-miterlimit:10;stroke-dasharray:none;stroke-opacity:1"
         transform="matrix(0.11348,0,0,-0.11348,4360.5733,658.652)"
         clip-path="url(#clipPath161)"
         id="path185" />
      <path
         d="m 2680.8,1232.6 -91.8,18.6 66.6,-66"
         style="fill:none;stroke:#0000ff;stroke-width:9;stroke-linecap:butt;stroke-linejoin:miter;stroke-miterlimit:10;stroke-dasharray:none;stroke-opacity:1"
         transform="matrix(0.11348,0,0,-0.11348,4360.5733,658.652)"
         clip-path="url(#clipPath162)"
         id="path186" />
      <path
         d="M 1871.4,3959.6 2979,1034"
         style="fill:none;stroke:#000000;stroke-width:27;stroke-linecap:butt;stroke-linejoin:miter;stroke-miterlimit:10;stroke-dasharray:none;stroke-opacity:1"
         transform="matrix(0.11348,0,0,-0.11348,4360.5733,658.652)"
         clip-path="url(#clipPath163)"
         id="path187" />
      <path
         d="M 3312,719 V 935.602"
         style="fill:none;stroke:#0000ff;stroke-width:9;stroke-linecap:butt;stroke-linejoin:miter;stroke-miterlimit:10;stroke-dasharray:none;stroke-opacity:1"
         transform="matrix(0.11348,0,0,-0.11348,4360.5733,658.652)"
         clip-path="url(#clipPath164)"
         id="path188" />
      <path
         d="m 3339,828.801 -27,90 -27,-90"
         style="fill:none;stroke:#0000ff;stroke-width:9;stroke-linecap:butt;stroke-linejoin:miter;stroke-miterlimit:10;stroke-dasharray:none;stroke-opacity:1"
         transform="matrix(0.11348,0,0,-0.11348,4360.5733,658.652)"
         clip-path="url(#clipPath165)"
         id="path189" />
      <path
         d="m 1500.6,3777.8 -52.2,-55.8 80.4,-19.8"
         style="fill:none;stroke:#d10000;stroke-width:9;stroke-linecap:butt;stroke-linejoin:miter;stroke-miterlimit:10;stroke-dasharray:none;stroke-opacity:1"
         transform="matrix(0.11348,0,0,-0.11348,4360.5733,658.652)"
         clip-path="url(#clipPath166)"
         id="path190" />
      <path
         d="m 2244.6,3642.2 48,63.6 91.8,-51.6"
         style="fill:none;stroke:#d10000;stroke-width:9;stroke-linecap:butt;stroke-linejoin:miter;stroke-miterlimit:10;stroke-dasharray:none;stroke-opacity:1"
         transform="matrix(0.11348,0,0,-0.11348,4360.5733,658.652)"
         clip-path="url(#clipPath167)"
         id="path191" />
      <path
         d="m 1892.4,3585.8 44.4,-43.8 -48,-40.2"
         style="fill:none;stroke:#d10000;stroke-width:9;stroke-linecap:butt;stroke-linejoin:miter;stroke-miterlimit:10;stroke-dasharray:none;stroke-opacity:1"
         transform="matrix(0.11348,0,0,-0.11348,4360.5733,658.652)"
         clip-path="url(#clipPath168)"
         id="path192" />
      <path
         d="m 1504.8,3582.2 h 0.6 l 4.2,-1.2 7.8,-1.8 9.6,-2.4 9,-1.8 7.2,-1.8 6,-1.2 5.4,-1.2 5.4,-1.2 5.4,-1.2 5.4,-1.2 6,-1.2 6,-1.2 6,-1.2 5.4,-1.2 6,-1.2 5.4,-1.2 6.6,-1.2 7.2,-1.8 7.8,-1.2 8.4,-1.2 7.8,-1.8 7.8,-1.2 7.2,-1.2 6.6,-0.6 6,-1.2 7.2,-0.6 6.6,-1.2 7.2,-0.6 7.2,-0.6 7.2,-0.6 6,-0.6 6,-0.6 5.4,-0.6 h 6.6 l 6.6,-0.6 h 6.6 l 6.6,-0.6 h 6.6 6.6 l 6,-0.6 h 6 l 6,-0.6 h 6.6 l 6.6,-0.6 7.8,-0.6 h 7.2 l 6.6,-0.6 h 6.6 l 5.4,-0.6 h 5.4 5.4 l 6,-0.6 h 5.4 6 l 6,0.6 h 5.4 6 l 6,0.6 h 7.2 l 7.8,0.6 7.8,0.6 8.4,0.6 h 7.8 l 7.2,0.6 6.6,0.6 6.6,0.6 6,0.6 7.2,0.6 6.6,0.6 7.2,0.6 7.2,0.6 6.6,0.6 7.2,0.6 6,0.6 6.6,0.6 7.2,0.6 7.8,0.6 7.8,1.2 7.8,0.6 7.8,0.6 7.2,0.6 6.6,0.6 6,0.6 7.2,0.6 6.6,0.6 7.2,0.6 7.2,1.2 6.6,0.6 6.6,0.6 6,1.2 6.6,0.6 6,1.2 7.2,1.2 7.2,1.2 7.8,1.8 7.8,1.2 7.8,1.8 6.6,1.8 6,1.8 6,1.8 6,2.4 6,2.4 6,1.8 5.4,2.4 5.4,2.4 5.4,2.4 4.8,1.8 4.8,1.8 5.4,1.8 5.4,1.8 6,1.8 5.4,1.8 6,1.8 5.4,1.2 4.8,1.8 4.8,1.8 5.4,1.8 5.4,1.8 5.4,1.8 5.4,2.4 4.8,1.8 3.6,1.2 3.6,1.8 4.8,1.8 4.2,2.4 3,1.8 3,1.8 1.8,1.8 1.8,1.8 1.8,2.4 1.8,3 1.8,2.4 1.8,2.4 1.2,3 1.8,3 1.2,3.6 0.6,3.6 0.6,3.6 -0.6,3.6 -0.6,3 -0.6,4.2 -1.8,3.6 -1.2,3.6 -1.8,3 -2.4,3 -3,3 -3.6,3 -3,2.4 -3,1.8 -2.4,1.2 -3,1.8 -3.6,1.8 -3.6,1.8 -4.2,1.2 -4.8,1.8 -3.6,1.8 -4.8,1.2 -5.4,2.4 -5.4,1.8 -6,2.4 -6,1.8 -6,2.4 -5.4,1.8 -5.4,2.4 -6,1.8 -6.6,2.4 -6.6,3 -6.6,2.4 -7.2,2.4 -6.6,2.4 -7.2,2.4 -5.4,1.8 -6,1.8 -6.6,1.8 -6.6,2.4 -7.2,1.8 -7.8,1.8 -6.6,1.8 -7.2,1.8 -6,1.8 -6.6,1.2 -6,1.2 -6,1.2 -6.6,1.2 -6.6,1.2 -7.2,1.2 -6.6,0.6 -7.2,1.2 -6.6,0.6 -7.2,1.2 -6.6,0.6 -6.6,0.6 -7.8,0.6 -7.8,1.2 -8.4,0.6 -8.4,0.6 -8.4,1.2 -8.4,0.6 -7.8,0.6 -7.8,0.6 -6.6,0.6 -6.6,0.6 -7.2,0.6 -6.6,0.6 -7.2,0.6 h -6.6 l -7.2,0.6 -6.6,0.6 -6,0.6 h -6.6 l -5.4,0.6 h -6 l -6.6,0.6 -6.6,0.6 h -6.6 l -7.2,0.6 h -7.2 -6.6 -6.6 -6.6 -6 l -5.4,-0.6 h -6.6 l -6,-0.6 -6.6,-0.6 -7.2,-0.6 -7.2,-0.6 -6.6,-0.6 -7.2,-1.2 -6.6,-0.6 -7.2,-0.6 -7.2,-0.6 -7.2,-0.6 -8.4,-1.2 -8.4,-0.6 -9,-0.6 -9,-1.2 -8.4,-0.6 -7.8,-0.6 -7.2,-0.6 -6.6,-0.6 -7.8,-0.6 -7.8,-0.6 -7.2,-0.6 -7.8,-1.2 -7.8,-0.6 -7.2,-0.6 -6.6,-0.6 -7.2,-0.6 -5.4,-0.6 -6,-0.6 -6.6,-0.6 -7.2,-1.2 -7.2,-0.6 -7.2,-1.2 -7.2,-0.6 -7.2,-1.2 -6.6,-1.2 -6.6,-0.6 -6.6,-1.2 -6.6,-1.2 -6.6,-1.8 -6.6,-1.2 -7.2,-1.8 -6.6,-1.2 -6.6,-1.2 -6,-1.8 -5.4,-1.2 -4.8,-1.2 -6,-1.2 -5.4,-1.2 -6,-1.2 -5.4,-1.2 -4.8,-1.2 -4.8,-0.6 -4.2,-0.6 -4.2,-0.6 -5.4,-0.6 h -6 l -7.2,-0.6 h -8.4 -4.8 -1.2"
         style="fill:none;stroke:#d10000;stroke-width:9;stroke-linecap:butt;stroke-linejoin:bevel;stroke-miterlimit:10;stroke-dasharray:none;stroke-opacity:1"
         transform="matrix(0.11348,0,0,-0.11348,4360.5733,658.652)"
         clip-path="url(#clipPath169)"
         id="path193" />
      <path
         d="m 2.4970834,-6.4838107 -1.70006057,5.306e-4 -0.002325,6.48599166 1.70006057,-5.306e-4 z m -0.0045,-2.2791617 -1.70006055,5.306e-4 0.005157,1.5153887 1.70006055,-5.306e-4 z m 5.7075842,8.76178356 1.6692819,-0.00130161 -0.00218,-8.76515335 -1.6692819,0.0013 0.008,3.1231133 C 7.7791205,-6.3068402 7.2134226,-6.592033 6.4067137,-6.5999218 c -1.5461674,0.00439 -2.7227565,1.4840119 -2.7291649,3.4610803 0.00919,0.862573 0.2638391,1.7620928 0.7044055,2.37060934 0.4341023,0.62067383 1.2364813,1.04730648 2.0188756,1.0422671 0.8067089,0.007889 1.3813628,-0.31033397 1.7912122,-0.93450517 z M 6.7778331,-5.1862368 c 0.8439517,-0.0035 1.420857,0.8178606 1.4143313,2.0619346 0.00717,1.1889809 -0.5676592,2.0061262 -1.4116108,2.0096236 -0.8374875,-0.00866 -1.4265501,-0.836482 -1.4215664,-2.0189988 0.00575,-1.2132954 0.5813584,-2.0612193 1.4188459,-2.0525594 z m 10.1968159,2.4744232 c -0.0083,-0.1603573 -0.01322,-0.2097574 -0.0052,-0.2834719 0.004,-0.6528157 -0.0915,-1.2650084 -0.258917,-1.7126927 -0.420224,-1.1746895 -1.47405,-1.8909621 -2.786146,-1.8868725 -1.853953,-0.00332 -2.99668,1.3539583 -2.995557,3.5221627 0.0034,2.07586839 1.117098,3.35416274 2.958895,3.35102304 1.453831,-0.006699 2.638544,-0.82704522 3.021648,-2.10480304 l -1.669281,0.0013 c -0.209937,0.5121468 -0.673633,0.8269895 -1.283513,0.83019078 -0.480301,-0.005872 -0.862869,-0.22488138 -1.10631,-0.58823588 -0.15419,-0.237927 -0.220965,-0.5229409 -0.242788,-1.1271275 z M 12.62306,-3.8248344 c 0.123472,-0.9947608 0.535931,-1.477196 1.268925,-1.4773133 0.437365,-0.00136 0.832862,0.1933318 1.064146,0.5502222 0.160653,0.2257696 0.2282,0.4800049 0.24172,0.9238342 z m 11.018126,3.62066247 C 23.333874,-0.47673253 23.2397,-0.65156015 23.248181,-0.99012524 l -0.0021,-3.60341436 c 0.0024,-1.3242527 -0.898329,-2.0058917 -2.659947,-2.0069031 -1.749461,0.00545 -2.661317,0.7525597 -2.760653,2.2591712 l 1.626346,-0.00854 c 0.07205,-0.6634309 0.360924,-0.8840996 1.186254,-0.8819039 0.652816,0.00403 0.973827,0.2215013 0.981654,0.6467092 -0.0054,0.2154505 -0.108823,0.4099666 -0.302272,0.5098338 -0.230692,0.1112534 -0.230692,0.1112534 -1.06557,0.2443295 l -0.6559,0.1190807 c -1.286714,0.2203111 -1.931406,0.875557 -1.929926,2.0459165 0.0047,0.5483224 0.165693,1.00816399 0.471463,1.34228188 0.366555,0.36643853 0.927331,0.60223127 1.487811,0.60395211 0.732994,-1.1725e-4 1.418606,-0.32172022 1.988041,-0.923415 -0.002,0.32640783 0.02568,0.45029341 0.187102,0.64528443 L 23.642281,-8.81981e-4 Z M 21.613299,-2.6079345 c 4.13e-4,0.9670662 -0.488073,1.5338312 -1.344182,1.5308645 -0.56048,-0.00172 -0.91642,-0.300138 -0.910548,-0.780439 -0.0055,-0.5175439 0.271197,-0.7446767 0.958646,-0.8937651 l 0.575721,-0.1149296 c 0.445372,-0.075078 0.519857,-0.09785 0.725464,-0.1912532 z m 4.890925,-6.155646 -1.700061,5.306e-4 0.0022,8.76515338 1.700061,-5.306e-4 z m 4.944519,2.2781775 -0.0023,6.48599164682 1.669282,-0.001301605 L 33.121875,-3.44377 c -0.0061,-0.9856876 0.492994,-1.4844312 1.472218,-1.4783804 0.172514,-0.00184 0.295629,0.00125 0.541087,0.038193 l -5.3e-4,-1.7000606 c -0.104494,-0.00878 -0.166051,-0.010319 -0.208987,-0.017554 -0.782394,0.00504 -1.460474,0.5177784 -1.802777,1.3961849 l -0.0049,-1.2813168 z m 7.506773,-0.1137752 c -1.964911,5.56e-5 -3.174117,1.3063964 -3.18438,3.437358 0.0019,2.1374257 1.213585,3.43665442 3.190653,3.44306286 1.971376,-0.0122129 3.223517,-1.31131856 3.226546,-3.39934426 -0.0068,-2.1868257 -1.194193,-3.4731262 -3.232819,-3.4810766 z m 0.02117,1.3679596 c 0.92413,-0.00765 1.531814,0.8144805 1.524517,2.0893331 7.1e-4,1.2011382 -0.630758,2.0661415 -1.536267,2.0680968 -0.905509,0.00196 -1.505958,-0.8631095 -1.51236,-2.082869 0.0065,-1.244074 0.618601,-2.0726056 1.52411,-2.0745609 z m 6.092395,-1.2517723 -1.681439,-0.00516 -0.0063,9.1037185 1.681439,0.00516 0.0046,-3.38149975 c 0.40101,0.71223876 0.97163,1.04683156 1.790497,1.06118458 1.564788,-0.0100788 2.716292,-1.47185473 2.716236,-3.43676583 0.0045,-0.9176662 -0.255833,-1.8358073 -0.696399,-2.4443239 -0.428409,-0.6020524 -1.237252,-1.0165278 -2.019647,-1.0114884 -0.818866,-0.014353 -1.400755,0.3468057 -1.788603,1.0762411 z m 1.421449,1.2860044 c 0.837488,0.00866 1.395772,0.835711 1.389246,2.079785 0.0072,1.1889809 -0.561195,1.9939689 -1.386525,1.9917731 -0.843952,0.0035 -1.427322,-0.8057033 -1.428031,-2.0068414 6.2e-5,-1.2319168 0.581358,-2.0612194 1.42531,-2.0647167 z m 9.833165,2.4837925 c -0.0083,-0.1603573 -0.01323,-0.2097574 -0.0052,-0.2834719 0.004,-0.6528157 -0.0915,-1.2650084 -0.258917,-1.7126927 -0.420225,-1.1746895 -1.474051,-1.8909621 -2.786146,-1.8868725 -1.853954,-0.00332 -2.996681,1.3539583 -2.995558,3.5221627 0.0034,2.07586838 1.117099,3.35416274 2.958895,3.35102303 1.453832,-0.006699 2.638544,-0.82704521 3.021649,-2.10480303 l -1.669282,0.0013 c -0.209936,0.5121468 -0.673633,0.8269895 -1.283513,0.83019077 -0.480301,-0.005872 -0.862869,-0.22488137 -1.10631,-0.58823587 -0.154189,-0.237927 -0.220965,-0.5229409 -0.242788,-1.1271275 z m -4.351589,-1.1130208 c 0.123473,-0.9947608 0.535931,-1.477196 1.268925,-1.4773133 0.437366,-0.00136 0.832862,0.1933318 1.064146,0.5502221 0.160653,0.2257697 0.2282,0.480005 0.24172,0.9238343 z m 0,0"
         style="fill:#000000;fill-opacity:1;fill-rule:nonzero;stroke:none"
         aria-label="ideal rope"
         transform="matrix(0.53275652,1.0019688,-1.0019688,0.53275652,4612.9075,269.84682)"
         clip-path="url(#clipPath170)"
         id="path194" />
      <path
         d="m 3.6223204,-4.1579067 h 2.9878613 c 2.1479556,0 3.5248503,-1.528353 3.5248503,-3.8828428 0,-2.3407205 -1.3355879,-3.6212325 -3.7726914,-3.6212325 H 1.2127548 V 3.1503349e-4 h 2.4095656 z m 0,-1.9964972 v -3.5110812 h 2.2305692 c 1.280512,0 1.8725767,0.5645268 1.8725767,1.7624251 0,1.1841294 -0.5920647,1.7486561 -1.8725767,1.7486561 z M -16.35642,-316.65102 c 0.78483,-0.95006 1.280512,-2.56103 1.280512,-4.11692 0,-1.72112 -0.605834,-3.37339 -1.638505,-4.4749 -1.005133,-1.08775 -2.313183,-1.61097 -3.979225,-1.61097 -1.666043,0 -2.974093,0.52322 -3.992995,1.61097 -1.018902,1.10151 -1.624735,2.75378 -1.624735,4.50244 0,1.73489 0.605833,3.38716 1.624735,4.48868 1.018902,1.08774 2.340721,1.62473 3.992995,1.62473 1.197898,0 2.092879,-0.24784 3.015399,-0.7986 l 1.376894,1.29428 1.225437,-1.29428 z m -2.960324,-2.7951 -1.225436,1.29428 1.239205,1.17036 c -0.371761,0.19277 -0.894981,0.30292 -1.404432,0.30292 -1.927653,0 -3.208165,-1.61097 -3.208165,-4.06184 0,-2.45087 1.280512,-4.06184 3.221934,-4.06184 1.95519,0 3.208164,1.5972 3.208164,4.07561 0,0.96383 -0.165227,1.8175 -0.52322,2.53349 z m 0,0"
         style="fill:#0000ff;fill-opacity:1;fill-rule:nonzero;stroke:none"
         aria-label="P&#10;Q"
         transform="matrix(1.1348,0,0,1.1348,4581.1785,587.27308)"
         clip-path="url(#clipPath171)"
         id="path195" />
      <g
         aria-label="path of bob is a horizontal circle&#10;conical&#10;pendulum&#10;θ&#10;pendulum bob&#10;m&#10;ceiling"
         transform="matrix(1.1348,0,0,1.1348,4443.3003,653.65888)"
         clip-path="url(#clipPath172)"
         id="g198">
        <path
           d="m -61.563935,-335.25894 c -0.192765,-2.64364 -1.95519,-4.22707 -4.653904,-4.22707 -3.221933,0 -5.108279,2.12042 -5.108279,5.8105 0,3.55238 1.872577,5.63149 5.066972,5.63149 2.6161,0 4.44737,-1.61096 4.695211,-4.19952 h -2.671175 c -0.357993,1.40443 -0.92252,1.94142 -2.010267,1.94142 -1.418201,0 -2.271876,-1.28051 -2.271876,-3.37339 0,-1.01891 0.192766,-1.98273 0.536989,-2.62987 0.316686,-0.59207 0.936289,-0.92252 1.734887,-0.92252 1.142823,0 1.693581,0.55076 2.010267,1.96896 z m 6.702035,-4.22707 c -3.290779,0 -5.314814,2.18926 -5.314814,5.72788 0,3.55239 2.024035,5.71411 5.342351,5.71411 3.27701,0 5.342352,-2.17549 5.342352,-5.63149 0,-3.66254 -1.982729,-5.8105 -5.369889,-5.8105 z m 0.02754,2.25811 c 1.542122,0 2.533487,1.39066 2.533487,3.51108 0,2.02403 -1.032671,3.4147 -2.533487,3.4147 -1.528353,0 -2.547255,-1.39067 -2.547255,-3.45601 0,-2.06534 1.018902,-3.46977 2.547255,-3.46977 z m 7.442116,-2.07911 v 10.80862 h 2.795096 v -6.48517 c 0,-1.28052 0.894981,-2.12042 2.258107,-2.12042 1.197898,0 1.803732,0.66091 1.803732,1.94142 v 6.66417 h 2.795096 v -7.24247 c 0,-2.38202 -1.321819,-3.74515 -3.621233,-3.74515 -1.459508,0 -2.437103,0.55076 -3.235702,1.74866 v -1.56966 z m 15.097649,0 h -2.808865 v 10.80862 h 2.808865 z m 0,-3.77269 h -2.808865 v 2.49217 h 2.808865 z m 11.851621,7.82076 c -0.192766,-2.64364 -1.955191,-4.22707 -4.653904,-4.22707 -3.221934,0 -5.108279,2.12042 -5.108279,5.8105 0,3.55238 1.872576,5.63149 5.066972,5.63149 2.6161,0 4.44737,-1.61096 4.695211,-4.19952 h -2.671176 c -0.357993,1.40443 -0.922519,1.94142 -2.010266,1.94142 -1.418202,0 -2.271876,-1.28051 -2.271876,-3.37339 0,-1.01891 0.192765,-1.98273 0.536989,-2.62987 0.316685,-0.59207 0.936288,-0.92252 1.734887,-0.92252 1.142822,0 1.69358,0.55076 2.010266,1.96896 z m 11.1597303,6.41633 c -0.495682,-0.45438 -0.6333715,-0.7573 -0.6333715,-1.32182 v -6.00326 c 0,-2.18927 -1.5008148,-3.31832 -4.4198318,-3.31832 -2.919016,0 -4.447369,1.23921 -4.626366,3.74515 h 2.698714 c 0.137689,-1.11528 0.605833,-1.48704 1.982728,-1.48704 1.087747,0 1.624736,0.37176 1.624736,1.08774 0,0.358 -0.178997,0.67468 -0.481914,0.83991 -0.38553,0.20653 -0.38553,0.20653 -1.762425,0.41307 l -1.115284,0.20653 c -2.147956,0.358 -3.180627,1.45951 -3.180627,3.40093 0,0.92252 0.26161,1.67981 0.757292,2.2168 0.619603,0.64714 1.555891,1.0189 2.519717,1.0189 1.197899,0 2.299414,-0.50945 3.277009,-1.52835 0,0.55076 0.06884,0.75729 0.330455,1.07398 h 3.0291683 z m -3.3733913,-3.993 c 0,1.61097 -0.798599,2.53349 -2.216801,2.53349 -0.950057,0 -1.528353,-0.49568 -1.528353,-1.29428 0,-0.83991 0.440606,-1.23921 1.597198,-1.48705 l 0.963826,-0.179 c 0.743523,-0.13769 0.867444,-0.17899 1.18413,-0.34422 z m 8.1615423,-10.24409 h -2.808865 v 14.58131 h 2.808865 z m -63.5402443,27.16957 h -2.808865 v 15.17338 h 2.808865 v -5.64527 c 0.674679,1.1979 1.638505,1.76242 3.001631,1.76242 2.60233,0 4.516214,-2.4371 4.516214,-5.72788 0,-1.51458 -0.440606,-3.04293 -1.156591,-4.0343 -0.729755,-1.0189 -2.065342,-1.70735 -3.359623,-1.70735 -1.363126,0 -2.326952,0.5783 -3.001631,1.78996 z m 2.35449,2.16172 c 1.418202,0 2.368259,1.39067 2.368259,3.44224 0,1.96896 -0.991364,3.34585 -2.368259,3.34585 -1.404432,0 -2.35449,-1.36312 -2.35449,-3.38716 0,-2.01026 0.950058,-3.40093 2.35449,-3.40093 z m 16.378162,4.13069 c 0.02754,-0.24784 0.02754,-0.34423 0.02754,-0.48192 0,-1.08774 -0.165227,-2.07911 -0.426837,-2.85017 -0.715985,-1.95519 -2.450872,-3.13932 -4.640135,-3.13932 -3.098013,0 -4.998127,2.24434 -4.998127,5.86557 0,3.45601 1.886345,5.57643 4.943052,5.57643 2.423334,0 4.378524,-1.3769 4.998127,-3.49732 h -2.753789 c -0.344224,0.86745 -1.129054,1.36313 -2.147956,1.36313 -0.798599,0 -1.43197,-0.34422 -1.845039,-0.93629 -0.247841,-0.3993 -0.357992,-0.88121 -0.399299,-1.90011 z m -7.201159,-1.87258 c 0.178996,-1.6385 0.881212,-2.45087 2.120417,-2.45087 0.702217,0 1.349357,0.33045 1.748657,0.89498 0.26161,0.3993 0.371761,0.82614 0.440606,1.55589 z m 9.1116,-4.41983 v 10.80862 h 2.795096 v -6.48517 c 0,-1.28051 0.894981,-2.12042 2.258107,-2.12042 1.197898,0 1.803732,0.66091 1.803732,1.94142 v 6.66417 h 2.795096 v -7.24246 c 0,-2.38203 -1.321819,-3.74516 -3.621233,-3.74516 -1.459508,0 -2.437103,0.55076 -3.235702,1.74866 v -1.56966 z m 19.049337,10.80862 h 2.808865 v -14.58131 h -2.808865 v 5.17712 c -0.688448,-1.07398 -1.638505,-1.58343 -2.974093,-1.58343 -2.574793,0 -4.543752,2.47841 -4.543752,5.74165 0,1.45951 0.440606,2.94656 1.156592,3.97923 0.743523,1.04644 2.065342,1.72112 3.38716,1.72112 1.335588,0 2.285645,-0.49569 2.974093,-1.55589 z m -2.35449,-8.6469 c 1.418201,0 2.35449,1.39067 2.35449,3.44224 0,1.96896 -0.950058,3.31832 -2.35449,3.31832 -1.404433,0 -2.35449,-1.3769 -2.35449,-3.35963 0,-1.99649 0.950057,-3.40093 2.35449,-3.40093 z m 17.300681,8.6469 v -10.80862 h -2.795096 v 6.76055 c 0,1.28051 -0.908751,2.13419 -2.271876,2.13419 -1.197899,0 -1.789963,-0.64714 -1.789963,-1.94142 v -6.95332 h -2.808865 v 7.53161 c 0,2.38203 1.321818,3.73139 3.621232,3.73139 1.459509,0 2.450873,-0.53699 3.249472,-1.73489 v 1.28051 z m 5.5420005,-14.58131 h -2.8088655 v 14.58131 h 2.8088655 z m 12.2371508,14.58131 v -10.80862 H 1.5873362 v 6.76055 c 0,1.28051 -0.9087504,2.13419 -2.27187606,2.13419 -1.19789834,0 -1.78996294,-0.64714 -1.78996294,-1.94142 v -6.95332 h -2.808865 v 7.53161 c 0,2.38203 1.3218188,3.73139 3.6212328,3.73139 1.45950825,0 2.45087237,-0.53699 3.2494712,-1.73489 v 1.28051 z m 2.5954463,-10.80862 v 10.80862 h 2.808865 v -6.48517 c 0,-1.32182 0.7159854,-2.12042 1.9138834,-2.12042 0.936288,0 1.528353,0.53699 1.528353,1.40443 v 7.20116 h 2.795096 v -6.48517 c 0,-1.32182 0.715985,-2.12042 1.913884,-2.12042 0.950057,0 1.528353,0.53699 1.528353,1.40443 v 7.20116 h 2.795096 v -7.64176 c 0,-2.10665 -1.280512,-3.34586 -3.442237,-3.34586 -1.349356,0 -2.313183,0.48192 -3.153088,1.61097 -0.52322,-1.03267 -1.597198,-1.61097 -2.946555,-1.61097 -1.239205,0 -2.037804,0.42684 -2.9603233,1.52835 v -1.34935 z"
           style="fill:#000000;fill-opacity:1;fill-rule:nonzero;stroke:none"
           id="path196"
           sodipodi:nodetypes="csssccsscsccsssssssssscccsssccssccccccccccccccsssccsscscccsssccsscccscsccccssscscsccccccccccsscsccssssscscsssccsccccsccccccsssccssccccccccsscsccssssscccsssccsscccccccccccsssccssccccccsssccsssccsscsccc" />
        <path
           d="m 126.78836,-337.72703 c -0.78483,0 -1.58343,0.31669 -2.32695,0.95006 -1.36312,1.08775 -2.10665,3.24947 -2.10665,6.05834 0,2.6161 0.66091,4.68144 1.84504,5.82426 0.78483,0.72976 1.72112,1.15659 2.58856,1.15659 0.77106,0 1.55589,-0.31668 2.31319,-0.93629 1.33558,-1.10151 2.10664,-3.24947 2.10664,-5.94818 0,-2.74002 -0.64714,-4.77782 -1.84503,-5.93442 -0.78483,-0.74352 -1.69358,-1.17036 -2.5748,-1.17036 z m 2.35449,7.49031 c -0.0413,2.27188 -0.27538,3.57993 -0.85367,4.64013 -0.37176,0.61961 -1.00514,1.07398 -1.50082,1.07398 -0.52322,0 -1.17036,-0.48191 -1.50081,-1.07398 -0.59207,-1.0602 -0.82614,-2.36825 -0.86745,-4.64013 z m -4.72275,-1.12905 c 0.0413,-2.1755 0.30292,-3.49732 0.86745,-4.54376 0.33045,-0.59206 0.99136,-1.07397 1.50081,-1.07397 0.49568,0 1.15659,0.48191 1.50082,1.07397 0.55076,1.04644 0.81237,2.36826 0.85367,4.54376 z m 0,0"
           style="fill:#000000;fill-opacity:1;fill-rule:nonzero;stroke:none"
           id="path197" />
        <path
           d="m 217.1987,-82.808759 v 10.808622 h 2.80887 v -6.485173 c 0,-1.321819 0.71599,-2.120418 1.91388,-2.120418 0.93629,0 1.52836,0.536989 1.52836,1.404433 v 7.201158 h 2.79509 v -6.485173 c 0,-1.321819 0.71599,-2.120418 1.91389,-2.120418 0.95005,0 1.52835,0.536989 1.52835,1.404433 v 7.201158 h 2.7951 v -7.641765 c 0,-2.106648 -1.28052,-3.345854 -3.44224,-3.345854 -1.34936,0 -2.31318,0.481914 -3.15309,1.610967 -0.52322,-1.032671 -1.5972,-1.610967 -2.94655,-1.610967 -1.23921,0 -2.03781,0.426838 -2.96033,1.528353 v -1.349356 z M 199.85672,-408.46154 c -0.19277,-2.64364 -1.95519,-4.22707 -4.65391,-4.22707 -3.22193,0 -5.10828,2.12042 -5.10828,5.81049 0,3.55239 1.87258,5.6315 5.06698,5.6315 2.6161,0 4.44737,-1.61096 4.69521,-4.19953 h -2.67118 c -0.35799,1.40444 -0.92252,1.94143 -2.01026,1.94143 -1.41821,0 -2.27188,-1.28052 -2.27188,-3.3734 0,-1.0189 0.19276,-1.98272 0.53699,-2.62986 0.31668,-0.59207 0.93629,-0.92252 1.73489,-0.92252 1.14282,0 1.69358,0.55075 2.01026,1.96896 z m 11.15973,2.24433 c 0.0275,-0.24784 0.0275,-0.34422 0.0275,-0.48191 0,-1.08775 -0.16523,-2.07911 -0.42684,-2.85017 -0.71599,-1.95519 -2.45087,-3.13932 -4.64014,-3.13932 -3.09801,0 -4.99812,2.24434 -4.99812,5.86557 0,3.45601 1.88634,5.57642 4.94305,5.57642 2.42333,0 4.37852,-1.37689 4.99813,-3.49731 h -2.75379 c -0.34423,0.86744 -1.12906,1.36313 -2.14796,1.36313 -0.7986,0 -1.43197,-0.34423 -1.84504,-0.93629 -0.24784,-0.3993 -0.35799,-0.88121 -0.3993,-1.90012 z m -7.20116,-1.87257 c 0.179,-1.63851 0.88121,-2.45088 2.12042,-2.45088 0.70221,0 1.34935,0.33046 1.74865,0.89499 0.26161,0.3993 0.37176,0.82613 0.44061,1.55589 z m 11.98931,-4.41984 h -2.80887 v 10.80863 h 2.80887 z m 0,-3.77269 h -2.80887 v 2.49218 h 2.80887 z m 5.55921,0 h -2.80886 v 14.58132 h 2.80886 z m 5.55921,3.77269 h -2.80886 v 10.80863 h 2.80886 z m 0,-3.77269 h -2.80886 v 2.49218 h 2.80886 z m 2.68495,3.77269 v 10.80863 h 2.79509 v -6.48518 c 0,-1.28051 0.89499,-2.12041 2.25811,-2.12041 1.1979,0 1.80373,0.66091 1.80373,1.94142 v 6.66417 h 2.7951 v -7.24247 c 0,-2.38203 -1.32182,-3.74515 -3.62123,-3.74515 -1.45951,0 -2.43711,0.55076 -3.23571,1.74865 v -1.56966 z m 19.11474,0 v 1.66605 c -0.83991,-1.28051 -1.76243,-1.84504 -3.00163,-1.84504 -2.56103,0 -4.48868,2.50595 -4.48868,5.8518 0,3.35962 1.76243,5.59019 4.4336,5.59019 1.25298,0 2.01027,-0.37176 3.05671,-1.55589 v 1.45951 c 0,1.30805 -0.9776,2.20303 -2.38203,2.20303 -1.06021,0 -1.76243,-0.4406 -1.98273,-1.26674 h -2.90525 c 0.0275,0.8399 0.34423,1.43197 1.06021,2.02403 0.86745,0.70222 2.06534,1.04644 3.73139,1.04644 3.24947,0 5.13581,-1.4595 5.13581,-4.00676 v -11.16662 z m -2.40957,2.16173 c 1.40443,0 2.45087,1.45951 2.45087,3.46977 0,1.95519 -1.0189,3.29078 -2.47841,3.29078 -1.32182,0 -2.24433,-1.33559 -2.24433,-3.29078 0,-2.05157 0.92251,-3.46977 2.27187,-3.46977 z"
           style="fill:#000000;fill-opacity:1;fill-rule:nonzero;stroke:none"
           id="path198"
           sodipodi:nodetypes="cccsssccsssccsscsccccsssccsscscccscsssccsccccscccccccccccccccccccccccccccccccsssccsscccccssscsscccssccsssss" />
        <text
           xml:space="preserve"
           transform="matrix(0.88121255,0,0,0.88121255,-3920.5226,-573.2521)"
           id="text382"
           style="white-space:pre;shape-inside:url(#rect382);display:inline;fill:#000000"><tspan
             x="4710.8633"
             y="524.1353"
             id="tspan6"><tspan
               style="font-weight:bold"
               id="tspan2">pendulum bob</tspan></tspan></text>
        <text
           xml:space="preserve"
           transform="matrix(0.88121255,0,0,0.88121255,-4118.9105,-463.73034)"
           id="text382-9"
           style="white-space:pre;shape-inside:url(#rect382-5);display:inline;fill:#000000"><tspan
             x="4710.8633"
             y="524.1353"
             id="tspan8"><tspan
               style="font-weight:bold"
               id="tspan7">path of bob is a horizontal circle</tspan></tspan></text>
      </g>
      <path
         d="m 8.5656221,-9.7482537 c 0.7435231,0.2065342 1.1841293,0.4406063 1.6247359,0.8399058 0.853674,0.8123678 1.376894,2.3820276 1.376894,4.1444527 0,1.280512 -0.247841,2.547255 -0.619602,3.2632402 -0.247841,0.4543753 -0.743523,0.75729207 -1.2667433,0.75729207 -0.9913641,0 -1.6522735,-0.81236777 -1.9414214,-2.43710347 0.4819131,-1.3355878 0.6058336,-1.9827282 0.6058336,-2.9603234 0,-1.3768946 -0.3992994,-2.2168003 -1.0877467,-2.2168003 -0.6746784,0 -1.0739778,0.8399057 -1.0739778,2.2168003 0,0.9775952 0.1239205,1.6247356 0.6058336,2.9603234 -0.2891478,1.5971978 -0.9500573,2.43710347 -1.9414214,2.43710347 -0.5232199,0 -1.018902,-0.30291677 -1.266743,-0.75729207 C 3.1957331,-2.2166402 2.961661,-3.4558453 2.961661,-4.7638952 c 0,-1.6247356 0.4543752,-3.1393197 1.1978983,-3.9654564 0.4681442,-0.4956821 0.9638262,-0.771061 1.803732,-1.0189021 v -0.5094513 c -1.0739778,0.01377 -1.7761941,0.13769 -2.3957967,0.3992998 -1.6660424,0.7159852 -2.72625128,2.7537892 -2.72625128,5.2321995 0,2.7675581 1.55589088,4.88797584 3.60746388,4.88797584 1.1978983,0 2.1341866,-0.66090942 2.808865,-2.02403504 0.6884473,1.36312562 1.6247356,2.02403504 2.8226338,2.02403504 2.051573,0 3.607464,-2.12041774 3.607464,-4.88797584 0,-2.3544898 -0.977595,-4.337218 -2.519717,-5.1358169 -0.647141,-0.3442234 -1.4044326,-0.4819134 -2.6023309,-0.4956824 z m 0,0"
         style="fill:#d10000;fill-opacity:1;fill-rule:nonzero;stroke:none"
         aria-label="ω"
         transform="matrix(1.1348,0,0,1.1348,4623.393,235.87091)"
         clip-path="url(#clipPath173)"
         id="path199" />
    </g>
  </g>
</svg>
