<?xml version="1.0" encoding="UTF-8" standalone="no"?>
<!-- Created with Inkscape (http://www.inkscape.org/) -->

<svg
   width="111.42405mm"
   height="111.42412mm"
   viewBox="0 0 111.42405 111.42412"
   version="1.1"
   id="svg1"
   inkscape:version="1.3.2 (091e20ef0f, 2023-11-25)"
   sodipodi:docname="5.svg"
   xmlns:inkscape="http://www.inkscape.org/namespaces/inkscape"
   xmlns:sodipodi="http://sodipodi.sourceforge.net/DTD/sodipodi-0.dtd"
   xmlns="http://www.w3.org/2000/svg"
   xmlns:svg="http://www.w3.org/2000/svg">
  <sodipodi:namedview
     id="namedview1"
     pagecolor="#ffffff"
     bordercolor="#000000"
     borderopacity="0.25"
     inkscape:showpageshadow="2"
     inkscape:pageopacity="0.0"
     inkscape:pagecheckerboard="0"
     inkscape:deskcolor="#d1d1d1"
     inkscape:document-units="mm"
     inkscape:zoom="1.6478921"
     inkscape:cx="211.48229"
     inkscape:cy="239.09332"
     inkscape:window-width="2560"
     inkscape:window-height="1600"
     inkscape:window-x="0"
     inkscape:window-y="0"
     inkscape:window-maximized="1"
     inkscape:current-layer="layer1">
    <inkscape:page
       x="0"
       y="0"
       width="111.42405"
       height="111.42412"
       id="page1"
       margin="5.0000005"
       bleed="0" />
  </sodipodi:namedview>
  <defs
     id="defs1">
    <clipPath
       clipPathUnits="userSpaceOnUse"
       id="clipPath240">
      <path
         d="M 0,0 H 732 V 732 H 0 Z"
         transform="scale(10)"
         id="path240" />
    </clipPath>
    <clipPath
       clipPathUnits="userSpaceOnUse"
       id="clipPath241">
      <path
         d="M 0,0 H 732 V 732 H 0 Z"
         transform="scale(10)"
         id="path241" />
    </clipPath>
    <clipPath
       clipPathUnits="userSpaceOnUse"
       id="clipPath242">
      <path
         d="M 0,0 H 732 V 732 H 0 Z"
         transform="scale(10)"
         id="path242" />
    </clipPath>
    <clipPath
       clipPathUnits="userSpaceOnUse"
       id="clipPath243">
      <path
         d="M 0,0 H 732 V 732 H 0 Z"
         transform="scale(10)"
         id="path243" />
    </clipPath>
    <clipPath
       clipPathUnits="userSpaceOnUse"
       id="clipPath244">
      <path
         d="M 0,0 H 732 V 732 H 0 Z"
         transform="scale(10)"
         id="path244" />
    </clipPath>
    <clipPath
       clipPathUnits="userSpaceOnUse"
       id="clipPath245">
      <path
         d="M 0,0 H 732 V 732 H 0 Z"
         transform="scale(10)"
         id="path245" />
    </clipPath>
    <clipPath
       clipPathUnits="userSpaceOnUse"
       id="clipPath246">
      <path
         d="M 0,0 H 732 V 732 H 0 Z"
         transform="scale(10)"
         id="path246" />
    </clipPath>
    <clipPath
       clipPathUnits="userSpaceOnUse"
       id="clipPath247">
      <path
         d="M 0,0 H 732 V 732 H 0 Z"
         transform="matrix(1,0,0,-1,-330.95006,306.2)"
         id="path247" />
    </clipPath>
    <clipPath
       clipPathUnits="userSpaceOnUse"
       id="clipPath248">
      <path
         d="M 0,0 H 732 V 732 H 0 Z"
         transform="matrix(1,0,0,-1,-296.30004,469.55)"
         id="path248" />
    </clipPath>
    <clipPath
       clipPathUnits="userSpaceOnUse"
       id="clipPath249">
      <path
         d="M 0,0 H 732 V 732 H 0 Z"
         transform="matrix(1,0,0,-1,-48.800038,657.65)"
         id="path249" />
    </clipPath>
  </defs>
  <g
     inkscape:label="Layer 1"
     inkscape:groupmode="layer"
     id="layer1"
     transform="translate(-43.154122,-70.935415)">
    <rect
       style="fill:#ffffff;stroke-width:0.264583"
       id="rect1"
       width="111.42405"
       height="111.42412"
       x="43.154121"
       y="70.935417"
       transform="translate(8.9583334e-7)" />
    <g
       id="g259"
       transform="matrix(0.26458333,0,0,0.26458333,-1336.6566,1.8418577)">
      <path
         d="m 3679.1,3656 c 0,-12.75 -10.35,-23.1 -23.1,-23.1 -12.75,0 -23.1,10.35 -23.1,23.1 0,12.75 10.35,23.1 23.1,23.1 12.75,0 23.1,-10.35 23.1,-23.1"
         style="fill:#000000;fill-opacity:1;fill-rule:evenodd;stroke:none"
         transform="matrix(0.05246,0,0,-0.05246,5233.804,663.5)"
         clip-path="url(#clipPath240)"
         id="path250" />
      <path
         d="m 3679.1,3656 c 0,-12.75 -10.35,-23.1 -23.1,-23.1 -12.75,0 -23.1,10.35 -23.1,23.1 0,12.75 10.35,23.1 23.1,23.1 12.75,0 23.1,-10.35 23.1,-23.1 z"
         style="fill:none;stroke:#000000;stroke-width:9.9;stroke-linecap:butt;stroke-linejoin:miter;stroke-miterlimit:10;stroke-dasharray:none;stroke-opacity:1"
         transform="matrix(0.05246,0,0,-0.05246,5233.804,663.5)"
         clip-path="url(#clipPath241)"
         id="path251" />
      <path
         d="M 7307.12,3656 C 7307.12,1639.54 5672.46,4.87891 3656,4.87891 1639.54,4.87891 4.87891,1639.54 4.87891,3656 4.87891,5672.46 1639.54,7307.12 3656,7307.12 5672.46,7307.12 7307.12,5672.46 7307.12,3656 Z"
         style="fill:none;stroke:#000000;stroke-width:4.95;stroke-linecap:butt;stroke-linejoin:miter;stroke-miterlimit:10;stroke-dasharray:59.4;stroke-dashoffset:0;stroke-opacity:1"
         transform="matrix(0.05246,0,0,-0.05246,5233.804,663.5)"
         clip-path="url(#clipPath242)"
         id="path252" />
      <path
         d="m 1588.88,6626 c 0,-61.23 -49.65,-110.88 -110.88,-110.88 -61.23,0 -110.88,49.65 -110.88,110.88 0,61.23 49.65,110.88 110.88,110.88 61.23,0 110.88,-49.65 110.88,-110.88 z"
         style="fill:none;stroke:#8f0000;stroke-width:19.8;stroke-linecap:butt;stroke-linejoin:miter;stroke-miterlimit:10;stroke-dasharray:none;stroke-opacity:1"
         transform="matrix(0.05246,0,0,-0.05246,5233.804,663.5)"
         clip-path="url(#clipPath243)"
         id="path253" />
      <path
         d="m 4055.3,3656 c 0,-220.52 -178.78,-399.3 -399.3,-399.3 -220.52,0 -399.3,178.78 -399.3,399.3 0,220.52 178.78,399.3 399.3,399.3 220.52,0 399.3,-178.78 399.3,-399.3 z"
         style="fill:none;stroke:#0000ff;stroke-width:29.7;stroke-linecap:butt;stroke-linejoin:miter;stroke-miterlimit:10;stroke-dasharray:none;stroke-opacity:1"
         transform="matrix(0.05246,0,0,-0.05246,5233.804,663.5)"
         clip-path="url(#clipPath244)"
         id="path254" />
      <path
         d="M 3705.5,3656 H 4052"
         style="fill:none;stroke:#000000;stroke-width:9.9;stroke-linecap:butt;stroke-linejoin:miter;stroke-miterlimit:10;stroke-dasharray:9.9, 44.88;stroke-dashoffset:44.88;stroke-opacity:1"
         transform="matrix(0.05246,0,0,-0.05246,5233.804,663.5)"
         clip-path="url(#clipPath245)"
         id="path255" />
      <path
         d="M 1478,6626 3656,3656"
         style="fill:none;stroke:#000000;stroke-width:9.9;stroke-linecap:butt;stroke-linejoin:miter;stroke-miterlimit:10;stroke-dasharray:44.88, 22.44, 9.9, 22.44;stroke-dashoffset:0;stroke-opacity:1"
         transform="matrix(0.05246,0,0,-0.05246,5233.804,663.5)"
         clip-path="url(#clipPath246)"
         id="path256" />
      <path
         d="m 4.7386199,-5.451139 h 3.9017823 c 2.7997518,0 4.5868278,-1.9657834 4.5868278,-5.063382 0,-3.067813 -1.727506,-4.735751 -4.9144584,-4.735751 H 1.5814525 V -5.5756767e-4 h 3.1571674 z m 0,-2.59126 v -4.586828 h 2.9188906 c 1.6679375,0 2.4423375,0.744615 2.4423375,2.293414 0,1.5487991 -0.7744,2.293414 -2.4423375,2.293414 z m 13.5222071,-7.207873 h -2.91889 V -5.5756767e-4 h 2.91889 z M 30.710789,-0.35797274 C 30.174666,-0.83452631 30.025743,-1.1621569 30.025743,-1.7280642 v -6.2845502 c 0,-2.2934136 -1.548799,-3.4550136 -4.616612,-3.4550136 -3.038029,0 -4.646397,1.280738 -4.825105,3.9017826 h 2.829537 c 0.148923,-1.1615993 0.625476,-1.5487991 2.055137,-1.5487991 1.131815,0 1.697722,0.3871998 1.697722,1.1318147 0,0.3574152 -0.178708,0.7148304 -0.506338,0.8637534 -0.3872,0.2084921 -0.3872,0.2084921 -1.816861,0.4467689 l -1.191384,0.2084922 c -2.233844,0.3871998 -3.30609,1.5190145 -3.30609,3.5443671 0,0.9828918 0.268062,1.7572913 0.7744,2.32319868 0.655261,0.68504575 1.638153,1.07224552 2.650829,1.07224552 1.250953,0 2.412552,-0.53612276 3.425229,-1.6083683 0,0.59569197 0.05957,0.80418416 0.32763,1.13181473233 h 3.186952 z M 27.166422,-4.5278164 c 0,1.697722 -0.833969,2.6508292 -2.323199,2.6508292 -0.982891,0 -1.578583,-0.5361228 -1.578583,-1.3700915 0,-0.8637534 0.446769,-1.2807377 1.667937,-1.5487991 l 1.012677,-0.1787076 c 0.774399,-0.148923 0.893537,-0.1787076 1.221168,-0.3574152 z M 32.684019,-11.28892 V -5.5756767e-4 h 2.948675 V -6.7616613 c 0,-1.3403069 0.923322,-2.2338448 2.352983,-2.2338448 1.250953,0 1.87643,0.6850457 1.87643,2.0253526 v 6.96959593233 h 2.91889 V -7.5658454 c 0,-2.5019066 -1.370091,-3.9017826 -3.782643,-3.9017826 -1.519015,0 -2.531691,0.565908 -3.36566,1.8168607 V -11.28892 Z m 22.420356,6.5526114 c 0.02978,-0.2382768 0.02978,-0.3574152 0.02978,-0.4765536 0,-1.1318147 -0.178707,-2.2040602 -0.446769,-2.9784598 -0.744615,-2.055137 -2.59126,-3.276306 -4.854889,-3.276306 -3.246521,0 -5.242089,2.3231989 -5.242089,6.1058428 0,3.633721 1.965783,5.8377812 5.18252,5.8377812 2.531691,0 4.586828,-1.4296607 5.212304,-3.6635055 H 52.09613 c -0.32763,0.8935379 -1.161599,1.4296607 -2.233844,1.4296607 -0.833969,0 -1.48923,-0.3574152 -1.906215,-0.9828918 -0.268061,-0.4169843 -0.387199,-0.9233225 -0.416984,-1.995568 z m -7.535503,-1.9359989 c 0.178707,-1.7275066 0.923322,-2.5614754 2.233844,-2.5614754 0.714831,0 1.399876,0.3574152 1.816861,0.9233225 0.268061,0.4169844 0.3872,0.8637534 0.446769,1.6381529 z m 14.475314,-4.3783355 h -1.608368 v -3.038029 h -2.948675 v 3.038029 h -1.429661 v 1.9359985 h 1.429661 v 6.9398113 c 0,1.78707586 0.953107,2.6508292 2.859321,2.6508292 0.655261,0 1.191384,-0.0595692 1.697722,-0.23827679 V -1.7876334 c -0.297846,0.029785 -0.446769,0.059569 -0.655261,0.059569 -0.7744,0 -0.953107,-0.2382768 -0.953107,-1.2509531 v -6.1356272 h 1.608368 z m 15.242268,3.2763054 4.705966,-7.4759344 h -3.633721 l -2.799752,5.033597 -2.680614,-5.033597 h -3.723074 l 4.646397,7.5652882 -4.825105,7.68442623233 h 3.663506 L 75.529163,-5.302216 l 2.91889,5.30165843233 h 3.723075 z m 0,0"
         style="fill:#0000ff;fill-opacity:1;fill-rule:nonzero;stroke:none"
         aria-label="Planet X"
         transform="matrix(0.5246,0,0,0.5246,5407.4204,502.86748)"
         clip-path="url(#clipPath247)"
         id="path257" />
      <path
         d="M 1.3090116,-11.285101 V 0.00326201 H 4.2576868 V -5.9834421 c 0,-1.7275067 0.8339687,-2.5912601 2.5614754,-2.5912601 0.297846,0 0.5063382,0.029785 0.9233226,0.089354 v -2.9784598 c -0.1787076,0 -0.2680614,0 -0.3574152,0 -1.3403069,0 -2.5019062,0.863753 -3.1273828,2.3827679 V -11.285101 Z M 87.952407,94.934221 h 3.603936 c 1.370091,0 1.935999,0.536123 1.935999,1.816861 0,0.119138 0,0.32763 0,0.625476 -0.02978,0.3872 -0.02978,0.7744 -0.02978,0.982892 0,1.429661 0.08935,1.87643 0.476554,2.62104 h 3.365659 v -0.5659 c -0.476553,-0.26806 -0.655261,-0.595695 -0.655261,-1.250956 -0.08935,-4.497474 -0.178707,-4.705966 -2.114706,-5.539935 1.697722,-0.685046 2.561475,-1.906214 2.561475,-3.752859 0,-1.221169 -0.416984,-2.323199 -1.131815,-3.097598 -0.71483,-0.714831 -1.667937,-1.042461 -2.948675,-1.042461 h -8.190764 v 15.249709 h 3.127383 z m 0,-2.621044 v -3.961352 h 3.812428 c 0.893538,0 1.250953,0.08935 1.638153,0.3872 0.3872,0.327631 0.565907,0.833969 0.565907,1.548799 0,0.744615 -0.208492,1.340307 -0.565907,1.638153 -0.327631,0.297846 -0.744615,0.3872 -1.638153,0.3872 z m 0,0"
         style="fill:#000000;fill-opacity:1;fill-rule:nonzero;stroke:none"
         aria-label="r&#10;R"
         transform="matrix(0.5246,0,0,0.5246,5389.243,417.17407)"
         clip-path="url(#clipPath248)"
         id="path258" />
      <path
         d="m 4.5306329,-11.88542 2.740183,11.88405467 H 10.398199 L 13.078812,-11.88542 V -0.00136533 H 16.23598 V -15.251079 H 11.500229 L 8.8196149,-3.1287481 6.0794319,-15.251079 H 1.3734655 v 15.24971367 h 3.1571674 z m 19.1663891,0.416985 c -3.455014,0 -5.539936,2.263629 -5.539936,5.9569191 0,3.7230747 2.084922,5.98670414 5.56972,5.98670414 3.425229,0 5.56972,-2.26362944 5.56972,-5.89735034 0,-3.8124285 -2.055137,-6.0462729 -5.599504,-6.0462729 z m 0.02978,2.3529828 c 1.608368,0 2.650829,1.4296606 2.650829,3.6635055 0,2.1147064 -1.072245,3.5741517 -2.650829,3.5741517 -1.578584,0 -2.650829,-1.4594453 -2.650829,-3.6337209 0,-2.1444911 1.072245,-3.6039363 2.650829,-3.6039363 z m 12.740362,-2.3529828 c -3.455014,0 -5.539935,2.263629 -5.539935,5.9569191 0,3.7230747 2.084921,5.98670414 5.569719,5.98670414 3.425229,0 5.56972,-2.26362944 5.56972,-5.89735034 0,-3.8124285 -2.055137,-6.0462729 -5.599504,-6.0462729 z m 0.02978,2.3529828 c 1.608369,0 2.65083,1.4296606 2.65083,3.6635055 0,2.1147064 -1.072246,3.5741517 -2.65083,3.5741517 -1.578583,0 -2.650829,-1.4594453 -2.650829,-3.6337209 0,-2.1444911 1.072246,-3.6039363 2.650829,-3.6039363 z m 7.766334,-2.1742758 v 11.28836267 h 2.948675 V -6.762469 c 0,-1.3403069 0.923323,-2.2338449 2.352984,-2.2338449 1.250953,0 1.876429,0.6850458 1.876429,2.0253527 v 6.96959587 h 2.918891 V -7.5666532 c 0,-2.5019058 -1.370092,-3.9017818 -3.782644,-3.9017818 -1.519014,0 -2.531691,0.565907 -3.36566,1.81686 v -1.638153 z m 26.024293,3.5145827 4.705966,-7.4759337 h -3.633721 l -2.799752,5.033597 -2.680614,-5.033597 h -3.723075 l 4.646398,7.5652874 -4.825105,7.68442627 h 3.663505 l 2.889106,-5.30165837 2.918891,5.30165837 h 3.723075 z m 0,0"
         style="fill:#0000ff;fill-opacity:1;fill-rule:nonzero;stroke:none"
         aria-label="Moon X"
         transform="matrix(0.5246,0,0,0.5246,5259.4045,318.49681)"
         clip-path="url(#clipPath249)"
         id="path259" />
    </g>
  </g>
</svg>
