<?xml version="1.0" encoding="UTF-8" standalone="no"?>
<!-- Created with Inkscape (http://www.inkscape.org/) -->

<svg
   width="72.727837mm"
   height="104.09165mm"
   viewBox="0 0 72.727837 104.09165"
   version="1.1"
   id="svg1"
   inkscape:version="1.3.2 (091e20ef0f, 2023-11-25)"
   sodipodi:docname="5.svg"
   xmlns:inkscape="http://www.inkscape.org/namespaces/inkscape"
   xmlns:sodipodi="http://sodipodi.sourceforge.net/DTD/sodipodi-0.dtd"
   xmlns="http://www.w3.org/2000/svg"
   xmlns:svg="http://www.w3.org/2000/svg">
  <sodipodi:namedview
     id="namedview1"
     pagecolor="#ffffff"
     bordercolor="#000000"
     borderopacity="0.25"
     inkscape:showpageshadow="2"
     inkscape:pageopacity="0.0"
     inkscape:pagecheckerboard="0"
     inkscape:deskcolor="#d1d1d1"
     inkscape:document-units="mm"
     inkscape:zoom="1.1652357"
     inkscape:cx="135.16579"
     inkscape:cy="217.98165"
     inkscape:window-width="2560"
     inkscape:window-height="1600"
     inkscape:window-x="0"
     inkscape:window-y="0"
     inkscape:window-maximized="1"
     inkscape:current-layer="layer1">
    <inkscape:page
       x="0"
       y="0"
       width="72.727837"
       height="104.09165"
       id="page1"
       margin="5.0000005"
       bleed="0" />
  </sodipodi:namedview>
  <defs
     id="defs1">
    <clipPath
       clipPathUnits="userSpaceOnUse"
       id="clipPath311">
      <path
         d="M 0,0 H 328 V 487 H 0 Z"
         transform="matrix(10,0,0,10,0,-4.5553939e-5)"
         id="path311" />
    </clipPath>
    <clipPath
       clipPathUnits="userSpaceOnUse"
       id="clipPath312">
      <path
         d="M 0,0 H 328 V 487 H 0 Z"
         transform="matrix(10,0,0,10,0,-4.5553939e-5)"
         id="path312" />
    </clipPath>
    <clipPath
       clipPathUnits="userSpaceOnUse"
       id="clipPath313">
      <path
         d="M 0,0 H 328 V 487 H 0 Z"
         transform="matrix(10,0,0,10,0,-4.5553939e-5)"
         id="path313" />
    </clipPath>
    <clipPath
       clipPathUnits="userSpaceOnUse"
       id="clipPath314">
      <path
         d="M 0,0 H 328 V 487 H 0 Z"
         transform="matrix(10,0,0,10,0,-4.5553939e-5)"
         id="path314" />
    </clipPath>
    <clipPath
       clipPathUnits="userSpaceOnUse"
       id="clipPath315">
      <path
         d="M 0,0 H 328 V 487 H 0 Z"
         transform="matrix(10,0,0,10,0,-4.5553939e-5)"
         id="path315" />
    </clipPath>
    <clipPath
       clipPathUnits="userSpaceOnUse"
       id="clipPath316">
      <path
         d="M 0,0 H 328 V 487 H 0 Z"
         transform="matrix(10,0,0,10,0,-4.5553939e-5)"
         id="path316" />
    </clipPath>
    <clipPath
       clipPathUnits="userSpaceOnUse"
       id="clipPath317">
      <path
         d="M 0,0 H 328 V 487 H 0 Z"
         transform="matrix(10,0,0,10,0,-4.5553939e-5)"
         id="path317" />
    </clipPath>
    <clipPath
       clipPathUnits="userSpaceOnUse"
       id="clipPath318">
      <path
         d="M 0,0 H 328 V 487 H 0 Z"
         transform="matrix(10,0,0,10,0,-4.5553939e-5)"
         id="path318" />
    </clipPath>
    <clipPath
       clipPathUnits="userSpaceOnUse"
       id="clipPath319">
      <path
         d="M 0,0 H 328 V 487 H 0 Z"
         transform="matrix(10,0,0,10,0,-4.5553939e-5)"
         id="path319" />
    </clipPath>
    <clipPath
       clipPathUnits="userSpaceOnUse"
       id="clipPath320">
      <path
         d="M 0,0 H 328 V 487 H 0 Z"
         transform="matrix(10,0,0,10,0,-4.5553939e-5)"
         id="path320" />
    </clipPath>
    <clipPath
       clipPathUnits="userSpaceOnUse"
       id="clipPath321">
      <path
         d="M 0,0 H 328 V 487 H 0 Z"
         transform="matrix(10,0,0,10,0,-4.5553939e-5)"
         id="path321" />
    </clipPath>
    <clipPath
       clipPathUnits="userSpaceOnUse"
       id="clipPath322">
      <path
         d="M 0,0 H 328 V 487 H 0 Z"
         transform="matrix(10,0,0,10,0,-4.5553939e-5)"
         id="path322" />
    </clipPath>
    <clipPath
       clipPathUnits="userSpaceOnUse"
       id="clipPath323">
      <path
         d="M 0,0 H 328 V 487 H 0 Z"
         transform="matrix(10,0,0,10,0,-4.5553939e-5)"
         id="path323" />
    </clipPath>
    <clipPath
       clipPathUnits="userSpaceOnUse"
       id="clipPath324">
      <path
         d="M 0,0 H 328 V 487 H 0 Z"
         transform="matrix(10,0,0,10,0,-4.5553939e-5)"
         id="path324" />
    </clipPath>
    <clipPath
       clipPathUnits="userSpaceOnUse"
       id="clipPath325">
      <path
         d="M 0,0 H 328 V 487 H 0 Z"
         transform="matrix(10,0,0,10,0,-4.5553939e-5)"
         id="path325" />
    </clipPath>
    <clipPath
       clipPathUnits="userSpaceOnUse"
       id="clipPath326">
      <path
         d="M 0,0 H 328 V 487 H 0 Z"
         transform="matrix(10,0,0,10,0,-4.5553939e-5)"
         id="path326" />
    </clipPath>
    <clipPath
       clipPathUnits="userSpaceOnUse"
       id="clipPath327">
      <path
         d="M 0,0 H 328 V 487 H 0 Z"
         transform="matrix(10,0,0,10,0,-4.5553939e-5)"
         id="path327" />
    </clipPath>
    <clipPath
       clipPathUnits="userSpaceOnUse"
       id="clipPath328">
      <path
         d="M 0,0 H 3280 V 4870 H 0 Z m 104,2985 h 12.602 L 137,2867.4 l -27,81 -27,-81 z"
         transform="translate(0,-4.5553939e-5)"
         clip-rule="evenodd"
         id="path328" />
    </clipPath>
    <clipPath
       clipPathUnits="userSpaceOnUse"
       id="clipPath329">
      <path
         d="M 0,0 H 328 V 487 H 0 Z"
         transform="matrix(10,0,0,10,0,-4.5553939e-5)"
         id="path329" />
    </clipPath>
    <clipPath
       clipPathUnits="userSpaceOnUse"
       id="clipPath330">
      <path
         d="M 0,0 H 328 V 487 H 0 Z"
         transform="matrix(10,0,0,10,0,-4.5553939e-5)"
         id="path330" />
    </clipPath>
    <clipPath
       clipPathUnits="userSpaceOnUse"
       id="clipPath331">
      <path
         d="M 0,0 H 328 V 487 H 0 Z"
         transform="matrix(1,0,0,-1,-186.50005,356.40001)"
         id="path331" />
    </clipPath>
  </defs>
  <g
     inkscape:label="Layer 1"
     inkscape:groupmode="layer"
     id="layer1"
     transform="translate(-69.347864,-90.779165)">
    <rect
       style="fill:#ffffff;stroke-width:0.264583"
       id="rect1"
       width="72.727837"
       height="104.09165"
       x="69.347862"
       y="90.779167"
       transform="translate(8.3333336e-7)" />
    <g
       id="g352"
       transform="matrix(0.26458333,0,0,0.26458333,-1551.0583,43.494222)">
      <path
         d="m 1755.8,3631.2 c 0,-29.49 -31.7,-53.4 -70.8,-53.4 -39.1,0 -70.8,23.91 -70.8,53.4 0,29.49 31.7,53.4 70.8,53.4 39.1,0 70.8,-23.91 70.8,-53.4 z"
         style="fill:none;stroke:#000000;stroke-width:9;stroke-linecap:butt;stroke-linejoin:miter;stroke-miterlimit:10;stroke-dasharray:none;stroke-opacity:1"
         transform="matrix(0.07317333,0,0,-0.07317333,6141.804,553.89333)"
         clip-path="url(#clipPath311)"
         id="path332" />
      <path
         d="m 1755.8,3572.4 c 0,-29.49 -31.7,-53.4 -70.8,-53.4 -39.1,0 -70.8,23.91 -70.8,53.4 0,29.49 31.7,53.4 70.8,53.4 39.1,0 70.8,-23.91 70.8,-53.4 z"
         style="fill:none;stroke:#000000;stroke-width:9;stroke-linecap:butt;stroke-linejoin:miter;stroke-miterlimit:10;stroke-dasharray:none;stroke-opacity:1"
         transform="matrix(0.07317333,0,0,-0.07317333,6141.804,553.89333)"
         clip-path="url(#clipPath312)"
         id="path333" />
      <path
         d="m 1755.8,3527.4 c 0,-29.49 -31.7,-53.4 -70.8,-53.4 -39.1,0 -70.8,23.91 -70.8,53.4 0,29.49 31.7,53.4 70.8,53.4 39.1,0 70.8,-23.91 70.8,-53.4 z"
         style="fill:none;stroke:#000000;stroke-width:9;stroke-linecap:butt;stroke-linejoin:miter;stroke-miterlimit:10;stroke-dasharray:none;stroke-opacity:1"
         transform="matrix(0.07317333,0,0,-0.07317333,6141.804,553.89333)"
         clip-path="url(#clipPath313)"
         id="path334" />
      <path
         d="m 1755.8,3482.4 c 0,-29.49 -31.7,-53.4 -70.8,-53.4 -39.1,0 -70.8,23.91 -70.8,53.4 0,29.49 31.7,53.4 70.8,53.4 39.1,0 70.8,-23.91 70.8,-53.4 z"
         style="fill:none;stroke:#000000;stroke-width:9;stroke-linecap:butt;stroke-linejoin:miter;stroke-miterlimit:10;stroke-dasharray:none;stroke-opacity:1"
         transform="matrix(0.07317333,0,0,-0.07317333,6141.804,553.89333)"
         clip-path="url(#clipPath314)"
         id="path335" />
      <path
         d="m 1755.8,3437.4 c 0,-29.49 -31.7,-53.4 -70.8,-53.4 -39.1,0 -70.8,23.91 -70.8,53.4 0,29.49 31.7,53.4 70.8,53.4 39.1,0 70.8,-23.91 70.8,-53.4 z"
         style="fill:none;stroke:#000000;stroke-width:9;stroke-linecap:butt;stroke-linejoin:miter;stroke-miterlimit:10;stroke-dasharray:none;stroke-opacity:1"
         transform="matrix(0.07317333,0,0,-0.07317333,6141.804,553.89333)"
         clip-path="url(#clipPath315)"
         id="path336" />
      <path
         d="m 1755.8,3392.4 c 0,-29.49 -31.7,-53.4 -70.8,-53.4 -39.1,0 -70.8,23.91 -70.8,53.4 0,29.49 31.7,53.4 70.8,53.4 39.1,0 70.8,-23.91 70.8,-53.4 z"
         style="fill:none;stroke:#000000;stroke-width:9;stroke-linecap:butt;stroke-linejoin:miter;stroke-miterlimit:10;stroke-dasharray:none;stroke-opacity:1"
         transform="matrix(0.07317333,0,0,-0.07317333,6141.804,553.89333)"
         clip-path="url(#clipPath316)"
         id="path337" />
      <path
         d="m 1755.8,3347.4 c 0,-29.49 -31.7,-53.4 -70.8,-53.4 -39.1,0 -70.8,23.91 -70.8,53.4 0,29.49 31.7,53.4 70.8,53.4 39.1,0 70.8,-23.91 70.8,-53.4 z"
         style="fill:none;stroke:#000000;stroke-width:9;stroke-linecap:butt;stroke-linejoin:miter;stroke-miterlimit:10;stroke-dasharray:none;stroke-opacity:1"
         transform="matrix(0.07317333,0,0,-0.07317333,6141.804,553.89333)"
         clip-path="url(#clipPath317)"
         id="path338" />
      <path
         d="m 1755.8,3302.4 c 0,-29.49 -31.7,-53.4 -70.8,-53.4 -39.1,0 -70.8,23.91 -70.8,53.4 0,29.49 31.7,53.4 70.8,53.4 39.1,0 70.8,-23.91 70.8,-53.4 z"
         style="fill:none;stroke:#000000;stroke-width:9;stroke-linecap:butt;stroke-linejoin:miter;stroke-miterlimit:10;stroke-dasharray:none;stroke-opacity:1"
         transform="matrix(0.07317333,0,0,-0.07317333,6141.804,553.89333)"
         clip-path="url(#clipPath318)"
         id="path339" />
      <path
         d="M 1685,4149 V 3654"
         style="fill:none;stroke:#000000;stroke-width:9;stroke-linecap:butt;stroke-linejoin:miter;stroke-miterlimit:10;stroke-dasharray:none;stroke-opacity:1"
         transform="matrix(0.07317333,0,0,-0.07317333,6141.804,553.89333)"
         clip-path="url(#clipPath319)"
         id="path340" />
      <path
         d="M 1685,3249 V 2709"
         style="fill:none;stroke:#000000;stroke-width:9;stroke-linecap:butt;stroke-linejoin:miter;stroke-miterlimit:10;stroke-dasharray:none;stroke-opacity:1"
         transform="matrix(0.07317333,0,0,-0.07317333,6141.804,553.89333)"
         clip-path="url(#clipPath320)"
         id="path341" />
      <path
         d="m 83,4869 v 0 c -34.793,0 -63,-28.21 -63,-63 v -594 c 0,-34.79 28.207,-63 63,-63 h 3114 c 34.79,0 63,28.21 63,63 v 594 c 0,34.79 -28.21,63 -63,63"
         style="fill:#bfbfff;fill-opacity:1;fill-rule:evenodd;stroke:none"
         transform="matrix(0.07317333,0,0,-0.07317333,6141.804,553.89333)"
         clip-path="url(#clipPath321)"
         id="path342" />
      <path
         d="m 2180,2529 h 360"
         style="fill:none;stroke:#000000;stroke-width:4.5;stroke-linecap:butt;stroke-linejoin:miter;stroke-miterlimit:10;stroke-dasharray:none;stroke-opacity:1"
         transform="matrix(0.07317333,0,0,-0.07317333,6141.804,553.89333)"
         clip-path="url(#clipPath322)"
         id="path343" />
      <path
         d="M 2360,2529 V 189 l 90,90"
         style="fill:none;stroke:#000000;stroke-width:4.5;stroke-linecap:butt;stroke-linejoin:miter;stroke-miterlimit:10;stroke-dasharray:none;stroke-opacity:1"
         transform="matrix(0.07317333,0,0,-0.07317333,6141.804,553.89333)"
         clip-path="url(#clipPath323)"
         id="path344" />
      <path
         d="m 2360,189 -90,90"
         style="fill:none;stroke:#000000;stroke-width:4.5;stroke-linecap:butt;stroke-linejoin:miter;stroke-miterlimit:10;stroke-dasharray:none;stroke-opacity:1"
         transform="matrix(0.07317333,0,0,-0.07317333,6141.804,553.89333)"
         clip-path="url(#clipPath324)"
         id="path345" />
      <path
         d="m 2180,189 h 360"
         style="fill:none;stroke:#000000;stroke-width:4.5;stroke-linecap:butt;stroke-linejoin:miter;stroke-miterlimit:10;stroke-dasharray:none;stroke-opacity:1"
         transform="matrix(0.07317333,0,0,-0.07317333,6141.804,553.89333)"
         clip-path="url(#clipPath325)"
         id="path346" />
      <path
         d="m 1613,2709 v 0 c -34.79,0 -63,-28.21 -63,-63 v -234 c 0,-34.79 28.21,-63 63,-63 h 234 c 34.79,0 63,28.21 63,63 v 234 c 0,34.79 -28.21,63 -63,63"
         style="fill:#ffbfff;fill-opacity:1;fill-rule:evenodd;stroke:none"
         transform="matrix(0.07317333,0,0,-0.07317333,6141.804,553.89333)"
         clip-path="url(#clipPath326)"
         id="path347" />
      <path
         d="m 1613,2709 v 0 c -34.79,0 -63,-28.21 -63,-63 v -234 c 0,-34.79 28.21,-63 63,-63 h 234 c 34.79,0 63,28.21 63,63 v 234 c 0,34.79 -28.21,63 -63,63 z"
         style="fill:none;stroke:#000000;stroke-width:9;stroke-linecap:butt;stroke-linejoin:miter;stroke-miterlimit:10;stroke-dasharray:none;stroke-opacity:1"
         transform="matrix(0.07317333,0,0,-0.07317333,6141.804,553.89333)"
         clip-path="url(#clipPath327)"
         id="path348" />
      <path
         d="m 110,2529 v 450"
         style="fill:none;stroke:#000000;stroke-width:9;stroke-linecap:butt;stroke-linejoin:miter;stroke-miterlimit:10;stroke-dasharray:none;stroke-opacity:1"
         transform="matrix(0.07317333,0,0,-0.07317333,6141.804,553.89333)"
         clip-path="url(#clipPath328)"
         id="path349" />
      <path
         d="m 83,2867.4 27,81 27,-81"
         style="fill:none;stroke:#000000;stroke-width:18;stroke-linecap:butt;stroke-linejoin:miter;stroke-miterlimit:10;stroke-dasharray:none;stroke-opacity:1"
         transform="matrix(0.07317333,0,0,-0.07317333,6141.804,553.89333)"
         clip-path="url(#clipPath329)"
         id="path350" />
      <path
         d="M 20,4149 H 3260"
         style="fill:none;stroke:#000000;stroke-width:18;stroke-linecap:butt;stroke-linejoin:miter;stroke-miterlimit:10;stroke-dasharray:none;stroke-opacity:1"
         transform="matrix(0.07317333,0,0,-0.07317333,6141.804,553.89333)"
         clip-path="url(#clipPath330)"
         id="path351" />
      <path
         d="M 3.9733339,-6.5956126 V -14.581787 H 1.1760375 V 0.00259031 H 3.9733339 V -3.5420753 L 5.1050645,-4.7592195 7.6888268,0.00259031 H 10.955898 L 7.0268711,-6.723733 10.699657,-10.802234 H 7.5179995 Z m -88.3710769,8.269107 c -0.04271,-2.28481455 -1.793686,-3.6514326 -4.697749,-3.6514326 -2.733237,0 -4.441509,1.36661805 -4.441509,3.5873724 0,0.7260159 0.213534,1.3452647 0.597895,1.7723328 0.384362,0.3843614 0.726016,0.5551886 1.772333,0.8968431 l 3.331132,1.046317 c 0.704662,0.2135341 0.93955,0.4270682 0.93955,0.8754897 0,0.6619556 -0.768723,1.046317 -2.071281,1.046317 -0.747369,0 -1.302558,-0.1067671 -1.665566,-0.3630079 -0.298947,-0.2348875 -0.427068,-0.4484216 -0.533835,-1.0249636 h -2.75459 c 0.08541,2.3702282 1.81504,3.6087259 5.103465,3.6087259 1.494738,0 2.647822,-0.3203012 3.437898,-0.9609034 0.81143,-0.6406022 1.281205,-1.6442124 1.281205,-2.7118827 0,-1.4093249 -0.704663,-2.306168 -2.113987,-2.7118828 l -3.544666,-1.0249635 c -0.768723,-0.2348875 -0.982257,-0.4057148 -0.982257,-0.8327829 0,-0.61924883 0.640602,-1.00361016 1.622859,-1.00361016 1.345265,0 2.00722,0.46977496 2.028574,1.45203166 z m 4.991359,-3.4806054 h -2.81865 v 15.160919 h 2.81865 V 7.7165087 c 0.661956,1.1957909 1.622859,1.7509795 2.989477,1.7509795 2.605116,0 4.526923,-2.4342885 4.526923,-5.7013598 0,-1.5374454 -0.448422,-3.05353729 -1.174438,-4.05714744 -0.704662,-1.02496356 -2.049927,-1.68691916 -3.352485,-1.68691916 -1.366618,0 -2.327521,0.576542 -2.989477,1.77233279 z m 2.348875,2.15669418 c 1.430678,0 2.370228,1.36661812 2.370228,3.43789862 0,1.9858669 -0.960903,3.3524849 -2.370228,3.3524849 -1.409325,0 -2.348875,-1.366618 -2.348875,-3.3738383 0,-2.0499271 0.93955,-3.41654522 2.348875,-3.41654522 z m 7.15873,-2.15669418 V 8.9977132 h 2.797296 V 3.2536466 c 0,-1.6442124 0.832783,-2.45564186 2.455642,-2.45564186 0.320301,0 0.512482,0.0213534 0.896843,0.0854136 V -1.9565848 c -0.170827,-0.021353 -0.234887,-0.021353 -0.341654,-0.021353 -1.281205,0 -2.391582,0.8327829 -3.010831,2.28481457 V -1.807111 Z m 10.660689,0 h -2.797297 V 8.9977132 h 2.797297 z m 0,-3.7795531 h -2.797297 v 2.4983487 h 2.797297 z m 2.679852,3.7795531 V 8.9977132 h 2.797297 V 2.5062773 c 0,-1.2812044 0.875489,-2.1139873 2.263461,-2.1139873 1.195791,0 1.793686,0.6619556 1.793686,1.9431601 v 6.6622631 h 2.81865 V 1.7589081 c 0,-2.41293507 -1.302558,-3.7368463 -3.63008,-3.7368463 -1.452031,0 -2.434288,0.5124817 -3.245717,1.72962597 V -1.807111 Z m 18.967164,0 v 1.66556581 c -0.790076,-1.25985101 -1.644212,-1.83639301 -2.775943,-1.83639301 -0.960903,0 -2.028573,0.4697749 -2.775943,1.25985101 -1.06767,1.11037719 -1.644212,2.66917589 -1.644212,4.56962919 0,3.3311316 1.772333,5.6159462 4.356095,5.6159462 1.153084,0 1.857747,-0.3843614 2.840003,-1.5801522 v 1.4733851 c 0,1.3025579 -0.918196,2.1994009 -2.242107,2.1994009 -1.003611,0 -1.622859,-0.448421 -1.836394,-1.259851 h -2.88271 c 0.02135,0.832783 0.320302,1.409325 1.046317,2.028574 0.87549,0.683309 2.049928,1.024963 3.566019,1.024963 3.117598,0 4.996698,-1.494738 4.996698,-3.9930869 V -1.807111 Z m -2.263461,2.15669418 c 1.323911,0 2.306168,1.47338512 2.306168,3.45925202 0,1.9645135 -0.93955,3.3097781 -2.348875,3.3097781 -1.217144,0 -2.07128,-1.3452646 -2.07128,-3.3097781 0,-2.0285737 0.854136,-3.45925202 2.113987,-3.45925202 z M 84.37959,101.69285 l -2.242108,7.85806 -2.370228,-7.85806 h -3.096245 l 4.035794,11.25325 c 0,1.11038 -0.704662,1.8791 -1.750979,1.8791 -0.213534,0 -0.384361,-0.0427 -0.726016,-0.12812 v 2.09263 c 0.405715,0.0641 0.661956,0.0854 0.982257,0.0854 0.726016,0 1.537445,-0.12812 2.028574,-0.34166 0.790076,-0.3203 1.13173,-0.74737 1.580152,-2.04992 l 4.441509,-12.7907 z m 13.917083,2.58377 h -9.673094 v 2.37023 h 9.673094 z m 0,4.80451 h -9.673094 v 2.37023 h 9.673094 z m 6.470087,-11.061061 c -1.5161,0 -2.81865,0.640602 -3.69414,1.815039 -0.81143,1.089022 -1.195795,2.904062 -1.195795,5.658652 0,2.5197 0.320305,4.29204 1.003615,5.35971 0.83278,1.36661 2.22075,2.11398 3.88632,2.11398 1.53744,0 2.79729,-0.61924 3.67278,-1.81504 0.81143,-1.08902 1.19579,-2.92541 1.19579,-5.57323 0,-2.60512 -0.3203,-4.3561 -0.98225,-5.46648 -0.85414,-1.366615 -2.22076,-2.092631 -3.88632,-2.092631 z m 0,2.242111 c 0.72601,0 1.30255,0.40571 1.64421,1.15308 0.27759,0.5979 0.42707,2.13534 0.42707,4.09985 0,1.60151 -0.12812,3.16031 -0.36301,3.73685 -0.3203,0.85414 -0.9182,1.30256 -1.70827,1.30256 -0.74737,0 -1.30256,-0.38436 -1.64422,-1.08902 -0.27759,-0.61925 -0.44842,-2.09264 -0.44842,-3.99309 0,-1.68692 0.14948,-3.28843 0.36301,-3.86497 0.29895,-0.85414 0.9182,-1.34526 1.72963,-1.34526 z m -20.38717,235.43199 -2.242108,7.85805 -2.370228,-7.85805 h -3.096245 l 4.035794,11.25325 c 0,1.11037 -0.704662,1.8791 -1.750979,1.8791 -0.213534,0 -0.384361,-0.0427 -0.726016,-0.12812 v 2.09263 c 0.405715,0.0641 0.661956,0.0854 0.982257,0.0854 0.726016,0 1.537445,-0.12812 2.028574,-0.34165 0.790076,-0.3203 1.13173,-0.74737 1.580152,-2.04993 L 87.2623,335.69417 Z m 2.316844,9.00046 v 10.80483 h 2.797297 v -6.49144 c 0,-1.32391 0.726015,-2.11399 1.921806,-2.11399 0.93955,0 1.537446,0.53384 1.537446,1.40933 v 7.1961 h 2.797296 v -6.49144 c 0,-1.30256 0.704662,-2.11399 1.921807,-2.11399 0.93955,0 1.516092,0.53384 1.516092,1.40933 v 7.1961 h 2.797292 v -7.64452 c 0,-2.09264 -1.2812,-3.33114 -3.437895,-3.33114 -1.387971,0 -2.327521,0.46978 -3.160304,1.60151 -0.512482,-1.02496 -1.601505,-1.60151 -2.94677,-1.60151 -1.238498,0 -2.028574,0.38437 -2.968124,1.5161 v -1.34527 z m 19.703686,0 h -2.79729 v 10.80483 h 2.79729 z m 0,-3.77955 h -2.79729 v 2.49835 h 2.79729 z m 1.56948,3.77955 v 10.80483 h 2.7973 v -6.49144 c 0,-1.2812 0.87549,-2.11399 2.26346,-2.11399 1.19579,0 1.79368,0.66196 1.79368,1.94316 v 6.66227 h 2.81865 v -7.23881 c 0,-2.41293 -1.30255,-3.73685 -3.63008,-3.73685 -1.45203,0 -2.43428,0.51249 -3.24571,1.72963 v -1.5588 z M -21.303762,97.192624 v 10.804826 h 2.797296 v -6.49144 c 0,-1.32391 0.726016,-2.113985 1.921807,-2.113985 0.93955,0 1.537445,0.533835 1.537445,1.409325 v 7.1961 h 2.797297 v -6.49144 c 0,-1.30256 0.704662,-2.113985 1.921806,-2.113985 0.9395502,0 1.5160922,0.533835 1.5160922,1.409325 v 7.1961 h 2.7972963 v -7.64452 c 0,-2.092635 -1.2812044,-3.331133 -3.4378986,-3.331133 -1.3879719,0 -2.3275209,0.469775 -3.1603039,1.601506 -0.512482,-1.024964 -1.601506,-1.601506 -2.946771,-1.601506 -1.238497,0 -2.028573,0.384361 -2.968123,1.516092 v -1.345265 z m -76.519936,-3.779553 v 14.584379 h 2.797297 v -1.11038 c 0.683309,1.06767 1.622859,1.58015 2.989477,1.58015 2.583762,0 4.548275,-2.47699 4.548275,-5.72271 0,-1.47338 -0.448421,-2.94677 -1.174437,-3.993087 -0.726016,-1.06767 -2.049927,-1.729626 -3.373838,-1.729626 -1.366618,0 -2.306168,0.491128 -2.989477,1.580152 v -5.188878 z m 5.167525,5.936247 c 1.387971,0 2.370228,1.409322 2.370228,3.416542 0,1.96452 -0.960903,3.35249 -2.370228,3.35249 -1.409325,0 -2.370228,-1.34527 -2.370228,-3.41655 0,-1.98586 0.960903,-3.352482 2.370228,-3.352482 z m 10.020086,-5.936247 h -2.797296 v 14.584379 h 2.797296 z m 7.436324,3.608726 c -3.309778,0 -5.316998,2.178048 -5.316998,5.722713 0,3.54467 2.00722,5.72271 5.338352,5.72271 3.309778,0 5.338352,-2.17804 5.338352,-5.65865 0,-3.651432 -1.985867,-5.786773 -5.359706,-5.786773 z m 0.02135,2.242108 c 1.537445,0 2.541055,1.387975 2.541055,3.501955 0,2.02858 -1.046317,3.4379 -2.541055,3.4379 -1.516092,0 -2.541056,-1.38797 -2.541056,-3.45925 0,-2.09263 1.024964,-3.480605 2.541056,-3.480605 z m 16.618289,1.964515 c -0.19218,-2.626471 -1.94316,-4.206623 -4.655043,-4.206623 -3.245718,0 -5.103464,2.113987 -5.103464,5.786773 0,3.56602 1.857746,5.65865 5.060758,5.65865 2.626469,0 4.441508,-1.62286 4.697749,-4.20662 H -61.2293 c -0.341654,1.38797 -0.918196,1.94316 -2.028573,1.94316 -1.430679,0 -2.263462,-1.25985 -2.263462,-3.39519 0,-1.02496 0.192181,-1.96451 0.533836,-2.60512 0.320301,-0.619244 0.939549,-0.939545 1.750979,-0.939545 1.131731,0 1.686919,0.555188 2.00722,1.964515 z m 4.649705,0.17083 v -7.986179 h -2.797297 v 14.584379 h 2.797297 v -3.54467 l 1.13173,-1.21714 2.583763,4.76181 h 3.267071 l -3.929027,-6.72632 3.672786,-4.078506 h -3.181658 z m -118.212461,-62.704285 -2.24211,7.858054 -2.37022,-7.858054 h -3.09625 l 4.0358,11.253245 c 0,1.110377 -0.70467,1.8791 -1.75098,1.8791 -0.21354,0 -0.38437,-0.04271 -0.72602,-0.12812 v 2.092634 c 0.40571,0.06406 0.66196,0.08541 0.98226,0.08541 0.72601,0 1.53744,-0.12812 2.02857,-0.341654 0.79008,-0.320301 1.13173,-0.74737 1.58015,-2.049927 l 4.44151,-12.790691 z"
         style="fill:#000000;fill-opacity:1;fill-rule:nonzero;stroke:none"
         aria-label="k&#10;spring&#10;y=0&#10;y&#10;min&#10;mblock&#10;y"
         transform="matrix(0.73173333,0,0,0.73173333,6278.2723,293.10357)"
         clip-path="url(#clipPath331)"
         id="path352"
         sodipodi:nodetypes="ccccccccccccccsscccsscccscsccsscccccccsscsccssssscccssccsccccccccccccccccsssccsscccccscsscsscccssccssssscccccsccsccccccccccccccssscscscsscscscscscccccsccscccccccsssccsssccsscsccccccccccccccccsssccssccccccsssccsssccsscscccccccsscscccssssscccccsssssssssscsssccsscsccccccccccccccccccccsccscccc" />
    </g>
  </g>
</svg>
