<?xml version="1.0" encoding="UTF-8" standalone="no"?>
<!-- Created with Inkscape (http://www.inkscape.org/) -->

<svg
   width="39.077271mm"
   height="41.771641mm"
   viewBox="0 0 39.077271 41.771641"
   version="1.1"
   id="svg1"
   inkscape:version="1.3.2 (091e20ef0f, 2023-11-25)"
   sodipodi:docname="13.svg"
   xmlns:inkscape="http://www.inkscape.org/namespaces/inkscape"
   xmlns:sodipodi="http://sodipodi.sourceforge.net/DTD/sodipodi-0.dtd"
   xmlns="http://www.w3.org/2000/svg"
   xmlns:svg="http://www.w3.org/2000/svg">
  <sodipodi:namedview
     id="namedview1"
     pagecolor="#ffffff"
     bordercolor="#000000"
     borderopacity="0.25"
     inkscape:showpageshadow="2"
     inkscape:pageopacity="0.0"
     inkscape:pagecheckerboard="0"
     inkscape:deskcolor="#d1d1d1"
     inkscape:document-units="mm"
     inkscape:zoom="4.6609428"
     inkscape:cx="64.901033"
     inkscape:cy="78.310337"
     inkscape:window-width="2560"
     inkscape:window-height="1600"
     inkscape:window-x="0"
     inkscape:window-y="0"
     inkscape:window-maximized="1"
     inkscape:current-layer="layer1">
    <inkscape:page
       x="0"
       y="0"
       width="39.077271"
       height="41.771645"
       id="page1"
       margin="5.0000005"
       bleed="0" />
  </sodipodi:namedview>
  <defs
     id="defs1"><clipPath
   clipPathUnits="userSpaceOnUse"
   id="clipPath1543">
  <path
     d="m 450.5,481.17 h 86.615 v 96.487 H 450.5 Z"
     transform="translate(-517.01904,-540.53652)"
     id="path1543" />
</clipPath>
<clipPath
   clipPathUnits="userSpaceOnUse"
   id="clipPath1541">
  <path
     d="m 450.5,481.17 h 86.615 v 96.487 H 450.5 Z"
     transform="translate(-527.01564,-516.61551)"
     id="path1541" />
</clipPath>
<clipPath
   clipPathUnits="userSpaceOnUse"
   id="clipPath1539">
  <path
     d="m 450.5,481.17 h 86.615 v 96.487 H 450.5 Z"
     transform="translate(-509.16361,-511.25991)"
     id="path1539" />
</clipPath>
<clipPath
   clipPathUnits="userSpaceOnUse"
   id="clipPath1537">
  <path
     d="m 450.5,481.17 h 86.615 v 96.487 H 450.5 Z"
     transform="translate(-504.16599,-491.97991)"
     id="path1537" />
</clipPath>
<clipPath
   clipPathUnits="userSpaceOnUse"
   id="clipPath1535">
  <path
     d="m 450.5,481.17 h 86.615 v 96.487 H 450.5 Z"
     transform="translate(-482.38704,-491.26611)"
     id="path1535" />
</clipPath>
<clipPath
   clipPathUnits="userSpaceOnUse"
   id="clipPath1533">
  <path
     d="m 450.5,481.17 h 86.615 v 96.487 H 450.5 Z"
     transform="translate(-482.03101,-518.11512)"
     id="path1533" />
</clipPath>
<clipPath
   clipPathUnits="userSpaceOnUse"
   id="clipPath1531">
  <path
     d="m 450.5,481.17 h 86.615 v 96.487 H 450.5 Z"
     transform="translate(-471.32004,-541.25011)"
     id="path1531" />
</clipPath>
<clipPath
   clipPathUnits="userSpaceOnUse"
   id="clipPath1529">
  <path
     d="m 450.5,481.17 h 86.615 v 96.487 H 450.5 Z"
     transform="translate(-494.52699,-546.96301)"
     id="path1529" />
</clipPath>
<clipPath
   clipPathUnits="userSpaceOnUse"
   id="clipPath1527">
  <path
     d="m 450.5,481.17 h 86.615 v 96.487 H 450.5 Z"
     transform="translate(-480.24601,-565.17102)"
     id="path1527" />
</clipPath>
<clipPath
   clipPathUnits="userSpaceOnUse"
   id="clipPath1525">
  <path
     d="m 450.5,481.17 h 86.615 v 96.487 H 450.5 Z"
     transform="translate(-459.53799,-562.67202)"
     id="path1525" />
</clipPath>
<clipPath
   clipPathUnits="userSpaceOnUse"
   id="clipPath1523">
  <path
     d="m 450.5,481.17 h 86.615 v 96.487 H 450.5 Z"
     transform="translate(-471.32004,-542.75001)"
     id="path1523" />
</clipPath>
1&quot; /&gt;0&quot; /&gt;9&quot; /&gt;8&quot; /&gt;6&quot; /&gt;7&quot; /&gt;4&quot; /&gt;2&quot; /&gt;5&quot; /&gt;3&quot; /&gt;</defs>
  <g
     inkscape:label="Layer 1"
     inkscape:groupmode="layer"
     id="layer1"
     transform="translate(-98.452067,-134.70004)">
    <rect
       style="fill:#ffffff;stroke-width:1;stroke-linecap:round;stroke-linejoin:round"
       id="rect1"
       width="39.077271"
       height="41.771637"
       x="98.452065"
       y="134.70004" />
    <g
       id="g1">
      <path
         id="path1522"
         d="M 0,0 23.207,5.713 10.711,-23.135 32.846,-49.27 11.067,-49.983 10.711,-23.135 0,0 -11.782,21.422 8.926,23.921 23.207,5.713 37.844,-29.989 55.696,-24.634 45.699,-0.713 23.207,5.713 m -34.989,15.709 c 0,0 -7.053,-16.02 4.208,-41.937 10.5,-24.167 18.641,-29.468 18.641,-29.468"
         style="fill:none;stroke:#00adef;stroke-width:0.5;stroke-linecap:butt;stroke-linejoin:miter;stroke-miterlimit:4;stroke-dasharray:none;stroke-opacity:1"
         transform="matrix(0.35277776,0,0,-0.35277776,109.46145,150.32381)"
         clip-path="url(#clipPath1523)" />
      <path
         id="path1524"
         d="M 0,0 C -0.827,0 -1.5,0.672 -1.5,1.5 -1.5,2.328 -0.827,3 0,3 0.828,3 1.5,2.328 1.5,1.5 1.5,0.672 0.828,0 0,0"
         style="fill:#231f20;fill-opacity:1;fill-rule:nonzero;stroke:none"
         transform="matrix(0.35277776,0,0,-0.35277776,105.305,143.29577)"
         clip-path="url(#clipPath1525)" />
      <path
         id="path1526"
         d="M 0,0 C -0.827,0 -1.5,0.672 -1.5,1.5 -1.5,2.328 -0.827,3 0,3 0.828,3 1.5,2.328 1.5,1.5 1.5,0.672 0.828,0 0,0"
         style="fill:#231f20;fill-opacity:1;fill-rule:nonzero;stroke:none"
         transform="matrix(0.35277776,0,0,-0.35277776,112.61033,142.41417)"
         clip-path="url(#clipPath1527)" />
      <path
         id="path1528"
         d="M 0,0 C -0.828,0 -1.5,0.672 -1.5,1.5 -1.5,2.328 -0.828,3 0,3 0.828,3 1.5,2.328 1.5,1.5 1.5,0.672 0.828,0 0,0"
         style="fill:#231f20;fill-opacity:1;fill-rule:nonzero;stroke:none"
         transform="matrix(0.35277776,0,0,-0.35277776,117.64834,148.83755)"
         clip-path="url(#clipPath1529)" />
      <path
         id="path1530"
         d="M 0,0 C -0.828,0 -1.5,0.672 -1.5,1.5 -1.5,2.328 -0.828,3 0,3 0.828,3 1.5,2.328 1.5,1.5 1.5,0.672 0.828,0 0,0"
         style="fill:#231f20;fill-opacity:1;fill-rule:nonzero;stroke:none"
         transform="matrix(0.35277776,0,0,-0.35277776,109.46145,150.85294)"
         clip-path="url(#clipPath1531)" />
      <path
         id="path1532"
         d="M 0,0 C -0.828,0 -1.5,0.672 -1.5,1.5 -1.5,2.328 -0.828,3 0,3 0.828,3 1.5,2.328 1.5,1.5 1.5,0.672 0.828,0 0,0"
         style="fill:#231f20;fill-opacity:1;fill-rule:nonzero;stroke:none"
         transform="matrix(0.35277776,0,0,-0.35277776,113.24004,159.01445)"
         clip-path="url(#clipPath1533)" />
      <path
         id="path1534"
         d="M 0,0 C -0.828,0 -1.5,0.672 -1.5,1.5 -1.5,2.328 -0.828,3 0,3 0.829,3 1.5,2.328 1.5,1.5 1.5,0.672 0.829,0 0,0"
         style="fill:#231f20;fill-opacity:1;fill-rule:nonzero;stroke:none"
         transform="matrix(0.35277776,0,0,-0.35277776,113.36564,168.48618)"
         clip-path="url(#clipPath1535)" />
      <path
         id="path1536"
         d="M 0,0 C -0.828,0 -1.5,0.672 -1.5,1.5 -1.5,2.328 -0.828,3 0,3 0.828,3 1.5,2.328 1.5,1.5 1.5,0.672 0.828,0 0,0"
         style="fill:#231f20;fill-opacity:1;fill-rule:nonzero;stroke:none"
         transform="matrix(0.35277776,0,0,-0.35277776,121.04877,168.23437)"
         clip-path="url(#clipPath1537)" />
      <path
         id="path1538"
         d="M 0,0 C -0.828,0 -1.5,0.672 -1.5,1.5 -1.5,2.328 -0.828,3 0,3 0.828,3 1.5,2.328 1.5,1.5 1.5,0.672 0.828,0 0,0"
         style="fill:#231f20;fill-opacity:1;fill-rule:nonzero;stroke:none"
         transform="matrix(0.35277776,0,0,-0.35277776,122.81182,161.43281)"
         clip-path="url(#clipPath1539)" />
      <path
         id="path1540"
         d="M 0,0 C -0.828,0 -1.5,0.672 -1.5,1.5 -1.5,2.328 -0.828,3 0,3 0.828,3 1.5,2.328 1.5,1.5 1.5,0.672 0.828,0 0,0"
         style="fill:#231f20;fill-opacity:1;fill-rule:nonzero;stroke:none"
         transform="matrix(0.35277776,0,0,-0.35277776,129.10962,159.54348)"
         clip-path="url(#clipPath1541)" />
      <path
         id="path1542"
         d="M 0,0 C -0.828,0 -1.5,0.672 -1.5,1.5 -1.5,2.328 -0.828,3 0,3 0.828,3 1.5,2.328 1.5,1.5 1.5,0.672 0.828,0 0,0"
         style="fill:#231f20;fill-opacity:1;fill-rule:nonzero;stroke:none"
         transform="matrix(0.35277776,0,0,-0.35277776,125.58304,151.10468)"
         clip-path="url(#clipPath1543)" />
      <path
         id="path1544"
         d="m 119.92548,148.40128 h 0.58706 v -0.0331 c -0.16124,0 -0.20259,-0.0207 -0.20259,-0.12402 v -1.26917 l -0.0164,-0.004 -0.38034,0.19017 v 0.0331 c 0.11991,-0.0496 0.11991,-0.0496 0.1447,-0.0496 0.0703,0 0.0703,0.0579 0.0703,0.0992 v 0.95911 c 0,0.1571 -0.0785,0.16123 -0.20257,0.16537 z m 0,0"
         style="fill:#231f20;fill-opacity:1;fill-rule:nonzero;stroke:none;stroke-width:0.352777"
         aria-label=" " />
      <path
         id="path1545"
         d="m 113.76151,139.75374 c 0.27286,0 0.27699,0.5333 0.27699,0.678 0,0.16536 -0.004,0.67386 -0.27699,0.67386 -0.27284,0 -0.27697,-0.50436 -0.27697,-0.67386 0,-0.1447 0.004,-0.678 0.27697,-0.678 z m 0,-0.0537 c -0.3886,0 -0.47956,0.47956 -0.47956,0.73174 0,0.25218 0.091,0.7276 0.47956,0.7276 0.38862,0 0.47955,-0.47542 0.47955,-0.7276 0,-0.25218 -0.0909,-0.73174 -0.47955,-0.73174 z m 0,0"
         style="fill:#231f20;fill-opacity:1;fill-rule:nonzero;stroke:none;stroke-width:0.352777"
         aria-label="" />
      <path
         id="path1546"
         d="m 103.51409,143.16542 c 0.53742,-0.0331 0.84749,-0.43408 0.84749,-0.8847 0,-0.3514 -0.20257,-0.59118 -0.46302,-0.59118 -0.277,0 -0.44649,0.22738 -0.44649,0.5085 0,0.17363 0.0992,0.42168 0.38447,0.42168 0.10334,0 0.21497,-0.0413 0.31006,-0.11989 l 0.004,0.008 c -0.0124,0.0496 -0.12817,0.5333 -0.6408,0.61598 z m 0.64077,-0.79788 c 0,0.0372 -0.004,0.0661 -0.0331,0.0868 -0.0455,0.0331 -0.13229,0.0744 -0.20256,0.0744 -0.22323,0 -0.27284,-0.24805 -0.27284,-0.40928 0,-0.17363 0.0496,-0.37207 0.22736,-0.37207 0.28112,0 0.28112,0.41341 0.28112,0.53743 z m 0,0"
         style="fill:#231f20;fill-opacity:1;fill-rule:nonzero;stroke:none;stroke-width:0.352777"
         aria-label="" />
      <path
         id="path1547"
         d="m 108.39131,151.88117 c 0.23977,0.17363 0.33073,0.23978 0.33073,0.39274 0,0.14883 -0.0992,0.23978 -0.23151,0.23978 -0.17364,0 -0.26874,-0.13643 -0.26874,-0.30179 0,-0.19017 0.0992,-0.27285 0.16952,-0.33073 z m -0.33073,0.3514 c 0,0.16536 0.13642,0.339 0.40101,0.339 0.35139,0 0.42166,-0.23565 0.42166,-0.34727 0,-0.14056 -0.0455,-0.26458 -0.33073,-0.46715 0.11576,-0.062 0.28528,-0.14883 0.28528,-0.34314 0,-0.16123 -0.13229,-0.30179 -0.37209,-0.30179 -0.1819,0 -0.39274,0.11576 -0.39274,0.3266 0,0.17363 0.0827,0.24391 0.26045,0.40101 -0.18603,0.14469 -0.27284,0.21084 -0.27284,0.39274 z m 0.1695,-0.84749 c 0,-0.10336 0.0661,-0.21498 0.22322,-0.21498 0.16537,0 0.2398,0.11576 0.2398,0.23151 0,0.18604 -0.11989,0.26459 -0.19844,0.31833 -0.0786,-0.0496 -0.26458,-0.1695 -0.26458,-0.33486 z m 0,0"
         style="fill:#231f20;fill-opacity:1;fill-rule:nonzero;stroke:none;stroke-width:0.352777"
         aria-label="" />
      <path
         id="path1548"
         d="m 122.05246,169.93795 c -0.51263,0.0165 -0.87227,0.40101 -0.87227,0.83095 0,0.44649 0.2191,0.64492 0.46714,0.64492 0.37622,0 0.45474,-0.33486 0.45474,-0.49195 0,-0.28112 -0.16536,-0.44235 -0.39272,-0.44235 -0.11575,0 -0.16123,0.0248 -0.27699,0.0951 0.0413,-0.26045 0.24805,-0.5457 0.62426,-0.60358 z m -0.42994,0.63665 c 0.22325,0 0.2894,0.21498 0.2894,0.42995 0,0.23978 -0.0992,0.3514 -0.23151,0.3514 -0.16124,0 -0.30179,-0.1571 -0.30179,-0.51263 0,-0.12816 0.0206,-0.17777 0.0413,-0.19844 0.0537,-0.0496 0.12817,-0.0703 0.20257,-0.0703 z m 0,0"
         style="fill:#231f20;fill-opacity:1;fill-rule:nonzero;stroke:none;stroke-width:0.352777"
         aria-label="" />
      <path
         id="path1549"
         d="m 114.43019,170.0537 h -0.78547 l -0.0331,0.0951 -0.091,0.21497 0.0372,0.0165 c 0.0703,-0.10749 0.10747,-0.1695 0.24389,-0.1695 h 0.4589 l -0.41754,1.26091 h 0.13642 l 0.45061,-1.38493 z m 0,0"
         style="fill:#231f20;fill-opacity:1;fill-rule:nonzero;stroke:none;stroke-width:0.352777"
         aria-label="" />
      <path
         id="path1550"
         d="m 124.05134,163.54454 h -0.2191 v -0.94258 h -0.091 l -0.66558,0.94258 v 0.13229 h 0.59531 v 0.35553 h 0.16124 v -0.35553 h 0.2191 z m -0.38034,0 h -0.5085 l 0.50022,-0.71934 h 0.008 z m 0,0"
         style="fill:#231f20;fill-opacity:1;fill-rule:nonzero;stroke:none;stroke-width:0.352777"
         aria-label="" />
      <path
         id="path1551"
         d="m 129.17039,151.64966 -0.0249,-0.0124 c -0.0827,0.13643 -0.12404,0.14056 -0.20259,0.14056 h -0.50435 l 0.35552,-0.37207 c 0.091,-0.0992 0.26874,-0.29352 0.26874,-0.51676 0,-0.23565 -0.19018,-0.38034 -0.38449,-0.38034 -0.18603,0 -0.38447,0.0992 -0.44649,0.42168 l 0.0455,0.008 c 0.0455,-0.11162 0.1075,-0.27285 0.30179,-0.27285 0.24804,0 0.30181,0.1943 0.30181,0.30179 0,0.1571 -0.091,0.34727 -0.277,0.5457 l -0.37621,0.40101 v 0.0248 h 0.82683 z m 0,0"
         style="fill:#231f20;fill-opacity:1;fill-rule:nonzero;stroke:none;stroke-width:0.352777"
         aria-label="" />
      <path
         id="path1552"
         d="m 116.14691,158.0317 h 0.41341 c 0.0249,0 0.0413,0 0.0496,-0.0207 l 0.0785,-0.19017 -0.0164,-0.0124 c -0.0249,0.0289 -0.0455,0.0537 -0.0992,0.0537 h -0.44233 l -0.23151,0.50023 c -0.004,0.0165 0,0.0289 0.0124,0.0289 0.23151,0.008 0.6036,0.10748 0.6036,0.44648 0,0.26045 -0.15711,0.3762 -0.29353,0.3762 -0.11576,0 -0.16949,-0.13229 -0.30591,-0.13229 -0.0868,0 -0.0868,0.062 -0.0868,0.0827 0,0.0785 0.0992,0.12816 0.26874,0.12816 0.33485,0 0.56636,-0.22324 0.56636,-0.50436 0,-0.19017 -0.0249,-0.25218 -0.11575,-0.35967 -0.12404,-0.15296 -0.32247,-0.19017 -0.49197,-0.2191 z m 0,0"
         style="fill:#231f20;fill-opacity:1;fill-rule:nonzero;stroke:none;stroke-width:0.352777"
         aria-label="" />
      <path
         id="path1553"
         d="m 131.9382,159.67914 c 0.14883,-0.004 0.19843,0.008 0.27696,0.0455 0.13645,0.0703 0.16124,0.22737 0.16124,0.28112 0,0.15709 -0.0868,0.32659 -0.28525,0.32659 -0.12403,0 -0.20256,-0.11989 -0.30178,-0.11989 -0.0331,0 -0.0827,0.0165 -0.0827,0.0744 0,0.11162 0.18603,0.11989 0.23563,0.11989 0.33073,0 0.58704,-0.18604 0.58704,-0.48783 0,-0.27698 -0.18191,-0.3514 -0.26872,-0.38861 0.13642,-0.0909 0.19431,-0.1819 0.19431,-0.29765 0,-0.0868 -0.0579,-0.28526 -0.33072,-0.28526 -0.14058,0 -0.32661,0.0662 -0.41342,0.34313 l 0.0331,0.008 c 0.0289,-0.0579 0.11988,-0.22324 0.31006,-0.22324 0.15709,0 0.23564,0.11162 0.23564,0.21911 0,0.1943 -0.16124,0.29765 -0.35139,0.35553 z m 0,0"
         style="fill:#231f20;fill-opacity:1;fill-rule:nonzero;stroke:none;stroke-width:0.352777"
         aria-label="" />
    </g>
  </g>
</svg>
