<?xml version="1.0" encoding="UTF-8" standalone="no"?>
<!-- Created with Inkscape (http://www.inkscape.org/) -->

<svg
   width="59.548622mm"
   height="28.590082mm"
   viewBox="0 0 59.548622 28.590082"
   version="1.1"
   id="svg1"
   inkscape:version="1.3.2 (091e20ef0f, 2023-11-25)"
   sodipodi:docname="2.svg"
   xmlns:inkscape="http://www.inkscape.org/namespaces/inkscape"
   xmlns:sodipodi="http://sodipodi.sourceforge.net/DTD/sodipodi-0.dtd"
   xmlns="http://www.w3.org/2000/svg"
   xmlns:svg="http://www.w3.org/2000/svg">
  <sodipodi:namedview
     id="namedview1"
     pagecolor="#ffffff"
     bordercolor="#000000"
     borderopacity="0.25"
     inkscape:showpageshadow="2"
     inkscape:pageopacity="0.0"
     inkscape:pagecheckerboard="0"
     inkscape:deskcolor="#d1d1d1"
     inkscape:document-units="mm"
     inkscape:zoom="4.6609428"
     inkscape:cx="162.73532"
     inkscape:cy="88.394134"
     inkscape:window-width="2560"
     inkscape:window-height="1600"
     inkscape:window-x="0"
     inkscape:window-y="0"
     inkscape:window-maximized="1"
     inkscape:current-layer="layer1">
    <inkscape:page
       x="0"
       y="0"
       width="59.548622"
       height="28.59008"
       id="page1"
       margin="5.0000005"
       bleed="0" />
  </sodipodi:namedview>
  <defs
     id="defs1"><clipPath
   clipPathUnits="userSpaceOnUse"
   id="clipPath383">
  <path
     d="m 155.07,160.28 h 140.62 v 59.093 H 155.07 Z"
     transform="translate(-251.47,-189.08201)"
     id="path383" />
</clipPath>
<clipPath
   clipPathUnits="userSpaceOnUse"
   id="clipPath381">
  <path
     d="m 155.07,160.28 h 140.62 v 59.093 H 155.07 Z"
     transform="translate(-214.57501,-206.92301)"
     id="path381" />
</clipPath>
<clipPath
   clipPathUnits="userSpaceOnUse"
   id="clipPath379">
  <path
     d="m 155.07,160.28 h 140.62 v 59.093 H 155.07 Z"
     transform="translate(-288.36501,-206.92301)"
     id="path379" />
</clipPath>
<clipPath
   clipPathUnits="userSpaceOnUse"
   id="clipPath377">
  <path
     d="m 155.07,160.28 h 140.62 v 59.093 H 155.07 Z"
     transform="translate(-178.335,-189.08201)"
     id="path377" />
</clipPath>
<clipPath
   clipPathUnits="userSpaceOnUse"
   id="clipPath375">
  <path
     d="m 155.07,160.28 h 140.62 v 59.093 H 155.07 Z"
     transform="translate(-214.58001,-171.24)"
     id="path375" />
</clipPath>
<clipPath
   clipPathUnits="userSpaceOnUse"
   id="clipPath373">
  <path
     d="m 155.07,160.28 h 140.62 v 59.093 H 155.07 Z"
     transform="translate(-288.37,-171.24)"
     id="path373" />
</clipPath>
<clipPath
   clipPathUnits="userSpaceOnUse"
   id="clipPath371">
  <path
     d="m 155.07,160.28 h 140.62 v 59.093 H 155.07 Z"
     transform="translate(-176.84001,-189.08)"
     id="path371" />
</clipPath>
1&quot; /&gt;2&quot; /&gt;3&quot; /&gt;5&quot; /&gt;4&quot; /&gt;0&quot; /&gt;</defs>
  <g
     inkscape:label="Layer 1"
     inkscape:groupmode="layer"
     id="layer1"
     transform="translate(-67.760416,-73.052076)">
    <rect
       style="fill:#ffffff;stroke-width:1;stroke-linecap:round;stroke-linejoin:round"
       id="rect1"
       width="59.548622"
       height="28.590082"
       x="67.760414"
       y="73.052078"
       transform="translate(-8.3333305e-8)" />
    <g
       id="g1">
      <path
         id="path370"
         d="M 0,0 36.245,-17.842 M -21.517,0 c 0,-6.57 5.193,-9.037 10.955,-8.115 C -4.123,-7.084 0,-2.732 0,0 0,2.246 -4.123,7.084 -10.562,8.113 -16.324,9.037 -21.517,6.568 -21.517,0 Z M 110.03,17.841 V -17.842 H 36.245 v 35.683 m 73.785,0 -73.785,-35.683 M 36.887,17.841 0,0 m 36.245,17.841 73.785,-35.683"
         style="fill:none;stroke:#00adef;stroke-width:0.5;stroke-linecap:butt;stroke-linejoin:miter;stroke-miterlimit:4;stroke-dasharray:none;stroke-opacity:1"
         transform="matrix(0.35277776,0,0,-0.35277776,80.439331,87.046381)"
         clip-path="url(#clipPath371)" />
      <path
         id="path372"
         d="M 0,0 C 0,-0.828 -0.672,-1.5 -1.5,-1.5 -2.328,-1.5 -3,-0.828 -3,0 -3,0.828 -2.328,1.5 -1.5,1.5 -0.672,1.5 0,0.828 0,0"
         style="fill:#231f20;fill-opacity:1;fill-rule:nonzero;stroke:none"
         transform="matrix(0.35277776,0,0,-0.35277776,119.78463,93.339937)"
         clip-path="url(#clipPath373)" />
      <path
         id="path374"
         d="M 0,0 C 0,-0.828 -0.672,-1.5 -1.5,-1.5 -2.328,-1.5 -3,-0.828 -3,0 -3,0.828 -2.328,1.5 -1.5,1.5 -0.672,1.5 0,0.828 0,0"
         style="fill:#231f20;fill-opacity:1;fill-rule:nonzero;stroke:none"
         transform="matrix(0.35277776,0,0,-0.35277776,93.753164,93.339937)"
         clip-path="url(#clipPath375)" />
      <path
         id="path376"
         d="M 0,0 C 0,-0.828 -0.672,-1.5 -1.5,-1.5 -2.328,-1.5 -3,-0.828 -3,0 -3,0.828 -2.328,1.5 -1.5,1.5 -0.672,1.5 0,0.828 0,0"
         style="fill:#231f20;fill-opacity:1;fill-rule:nonzero;stroke:none"
         transform="matrix(0.35277776,0,0,-0.35277776,80.966733,87.045674)"
         clip-path="url(#clipPath377)" />
      <path
         id="path378"
         d="M 0,0 C 0,-0.828 -0.672,-1.5 -1.5,-1.5 -2.328,-1.5 -3,-0.828 -3,0 -3,0.828 -2.328,1.5 -1.5,1.5 -0.672,1.5 0,0.828 0,0"
         style="fill:#231f20;fill-opacity:1;fill-rule:nonzero;stroke:none"
         transform="matrix(0.35277776,0,0,-0.35277776,119.78287,80.751766)"
         clip-path="url(#clipPath379)" />
      <path
         id="path380"
         d="M 0,0 C 0,-0.828 -0.672,-1.5 -1.5,-1.5 -2.328,-1.5 -3,-0.828 -3,0 -3,0.828 -2.328,1.5 -1.5,1.5 -0.672,1.5 0,0.828 0,0"
         style="fill:#231f20;fill-opacity:1;fill-rule:nonzero;stroke:none"
         transform="matrix(0.35277776,0,0,-0.35277776,93.751399,80.751766)"
         clip-path="url(#clipPath381)" />
      <path
         id="path382"
         d="M 0,0 C 0,-0.828 -0.671,-1.5 -1.5,-1.5 -2.328,-1.5 -3,-0.828 -3,0 -3,0.828 -2.328,1.5 -1.5,1.5 -0.671,1.5 0,0.828 0,0"
         style="fill:#231f20;fill-opacity:1;fill-rule:nonzero;stroke:none"
         transform="matrix(0.35277776,0,0,-0.35277776,106.76713,87.045674)"
         clip-path="url(#clipPath383)" />
      <path
         id="path384"
         d="m 93.616221,79.482481 h 0.587044 v -0.03307 c -0.161229,0 -0.20257,-0.02066 -0.20257,-0.124024 V 78.05621 l -0.01654,-0.0041 -0.380338,0.190169 v 0.03307 c 0.119888,-0.04961 0.119888,-0.04961 0.144693,-0.04961 0.07028,0 0.07028,0.05788 0.07028,0.09922 v 0.959114 c 0,0.157097 -0.07855,0.161229 -0.202573,0.165365 z m 0,0"
         style="fill:#231f20;fill-opacity:1;fill-rule:nonzero;stroke:none;stroke-width:0.352777"
         aria-label="" />
      <path
         id="path385"
         d="m 107.55646,85.627841 -0.0248,-0.01241 c -0.0827,0.136425 -0.12402,0.14056 -0.20257,0.14056 h -0.50436 l 0.35554,-0.37207 c 0.091,-0.09922 0.26871,-0.293524 0.26871,-0.516766 0,-0.235643 -0.19017,-0.380338 -0.38447,-0.380338 -0.18604,0 -0.38447,0.09922 -0.44648,0.421679 l 0.0455,0.0083 c 0.0455,-0.111622 0.10749,-0.272851 0.30179,-0.272851 0.24805,0 0.30179,0.194302 0.30179,0.301789 0,0.157096 -0.091,0.347265 -0.27698,0.545703 l -0.37621,0.40101 v 0.02479 h 0.82682 z m 0,0"
         style="fill:#231f20;fill-opacity:1;fill-rule:nonzero;stroke:none;stroke-width:0.352777"
         aria-label="" />
      <path
         id="path386"
         d="m 119.72212,78.783814 c 0.14883,-0.0041 0.19844,0.0083 0.27699,0.04548 0.13642,0.07028 0.16123,0.227375 0.16123,0.28112 0,0.157097 -0.0868,0.326594 -0.28526,0.326594 -0.12402,0 -0.20257,-0.119888 -0.30179,-0.119888 -0.0331,0 -0.0827,0.01654 -0.0827,0.07441 0,0.11162 0.18604,0.119888 0.23565,0.119888 0.33073,0 0.58704,-0.186034 0.58704,-0.487826 0,-0.276984 -0.1819,-0.351398 -0.26872,-0.388606 0.13643,-0.09095 0.19431,-0.181901 0.19431,-0.297657 0,-0.08682 -0.0579,-0.285252 -0.33073,-0.285252 -0.14056,0 -0.3266,0.06615 -0.41341,0.34313 l 0.0331,0.0083 c 0.0289,-0.05788 0.11989,-0.223242 0.31006,-0.223242 0.15709,0 0.23564,0.111622 0.23564,0.219109 0,0.194302 -0.16123,0.297657 -0.3514,0.355534 z m 0,0"
         style="fill:#231f20;fill-opacity:1;fill-rule:nonzero;stroke:none;stroke-width:0.352777"
         aria-label="" />
      <path
         id="path387"
         d="m 93.752648,95.381253 h 0.413411 c 0.02479,0 0.04134,0 0.04961,-0.02066 l 0.07855,-0.190169 -0.01654,-0.01241 c -0.02479,0.02894 -0.04547,0.05374 -0.09922,0.05374 H 93.73611 l -0.231511,0.500229 c -0.0041,0.01654 0,0.02894 0.01241,0.02894 0.231511,0.0083 0.603581,0.107487 0.603581,0.446484 0,0.260448 -0.157097,0.376203 -0.293521,0.376203 -0.115755,0 -0.1695,-0.132291 -0.305924,-0.132291 -0.08682,0 -0.08682,0.06201 -0.08682,0.08268 0,0.07855 0.09922,0.128159 0.268719,0.128159 0.334862,0 0.566372,-0.223242 0.566372,-0.504362 0,-0.190169 -0.02479,-0.252183 -0.115755,-0.35967 C 94.029637,95.625166 93.8312,95.58796 93.661702,95.55902 Z m 0,0"
         style="fill:#231f20;fill-opacity:1;fill-rule:nonzero;stroke:none;stroke-width:0.352777"
         aria-label="" />
      <path
         id="path388"
         d="m 119.63117,96.125394 h -0.21911 v -0.942578 h -0.0909 l -0.66559,0.942578 v 0.132291 h 0.59531 v 0.355534 h 0.16123 v -0.355534 h 0.21911 z m -0.38034,0 h -0.5085 l 0.50023,-0.719336 h 0.008 z m 0,0"
         style="fill:#231f20;fill-opacity:1;fill-rule:nonzero;stroke:none;stroke-width:0.352777"
         aria-label="" />
      <path
         id="path389"
         d="m 81.317232,84.424815 c 0.272851,0 0.276987,0.5333 0.276987,0.677995 0,0.165364 -0.0041,0.673859 -0.276987,0.673859 -0.272852,0 -0.276985,-0.504362 -0.276985,-0.673859 0,-0.144695 0.0041,-0.677995 0.276985,-0.677995 z m 0,-0.05374 c -0.388607,0 -0.479558,0.479558 -0.479558,0.73174 0,0.25218 0.09095,0.727604 0.479558,0.727604 0.388606,0 0.479557,-0.475424 0.479557,-0.727604 0,-0.252182 -0.09095,-0.73174 -0.479557,-0.73174 z m 0,0"
         style="fill:#231f20;fill-opacity:1;fill-rule:nonzero;stroke:none;stroke-width:0.352777"
         aria-label="" />
      <path
         id="path390"
         d="m 99.298563,82.052865 c 0.103352,-0.252179 0.297657,-0.467153 0.446485,-0.467153 0.07028,0 0.09922,0.04961 0.09922,0.111619 0,0.02066 -0.01241,0.35967 -0.595312,0.479558 z m 0.582909,0.405143 c -0.144693,0.115756 -0.260448,0.210842 -0.413411,0.210842 -0.119888,0 -0.264584,-0.06615 -0.264584,-0.256315 0,-0.05788 0.01241,-0.115756 0.02479,-0.173633 l 0.08268,-0.01241 c 0.454753,-0.06201 0.719343,-0.293521 0.719343,-0.516763 0,-0.124024 -0.08682,-0.190169 -0.231517,-0.190169 -0.396875,0 -0.84336,0.475421 -0.84336,0.876432 0,0.177765 0.09095,0.401008 0.388607,0.401008 0.28112,0 0.537435,-0.260448 0.570508,-0.305925 z m 0,0"
         style="fill:#231f20;fill-opacity:1;fill-rule:nonzero;stroke:none;stroke-width:0.352777"
         aria-label="e" />
      <path
         id="path391"
         d="m 101.12584,83.179413 -0.0248,-0.01241 c -0.0827,0.136428 -0.12403,0.14056 -0.20257,0.14056 h -0.50436 l 0.35553,-0.37207 c 0.0909,-0.09922 0.26872,-0.293521 0.26872,-0.516763 0,-0.235646 -0.19017,-0.380338 -0.38448,-0.380338 -0.18603,0 -0.38447,0.09922 -0.44648,0.421679 l 0.0455,0.0083 c 0.0455,-0.111622 0.10749,-0.272851 0.3018,-0.272851 0.24804,0 0.30178,0.194302 0.30178,0.301789 0,0.157096 -0.091,0.347265 -0.27698,0.545703 l -0.37621,0.40101 v 0.02479 h 0.82683 z m 0,0"
         style="fill:#231f20;fill-opacity:1;fill-rule:nonzero;stroke:none;stroke-width:0.352777"
         aria-label="2" />
      <path
         id="path392"
         d="m 97.943606,88.261273 c 0.103354,-0.252182 0.297656,-0.467156 0.446484,-0.467156 0.07028,0 0.09922,0.04961 0.09922,0.111623 0,0.02066 -0.01241,0.359666 -0.595313,0.479557 z m 0.582911,0.405144 c -0.144695,0.115755 -0.26045,0.210838 -0.413411,0.210838 -0.119891,0 -0.264584,-0.06615 -0.264584,-0.256315 0,-0.05788 0.01241,-0.115755 0.02479,-0.173633 l 0.08268,-0.01241 c 0.454753,-0.06201 0.719336,-0.293523 0.719336,-0.516765 0,-0.124024 -0.08682,-0.19017 -0.23151,-0.19017 -0.396875,0 -0.84336,0.475425 -0.84336,0.876433 0,0.177768 0.09095,0.40101 0.388607,0.40101 0.28112,0 0.537435,-0.26045 0.570508,-0.305924 z m 0,0"
         style="fill:#231f20;fill-opacity:1;fill-rule:nonzero;stroke:none;stroke-width:0.352777"
         aria-label="e" />
      <path
         id="path393"
         d="M 99.857702,88.276778 H 99.07222 l -0.03307,0.09508 -0.09095,0.214974 0.03721,0.01654 c 0.07028,-0.107487 0.107487,-0.169498 0.243912,-0.169498 h 0.458888 l -0.417547,1.260904 h 0.136427 l 0.450617,-1.384927 z m 0,0"
         style="fill:#231f20;fill-opacity:1;fill-rule:nonzero;stroke:none;stroke-width:0.352777"
         aria-label="7" />
      <path
         id="path394"
         d="m 85.024496,91.196495 c 0.103355,-0.252183 0.297657,-0.467157 0.446485,-0.467157 0.07028,0 0.09922,0.04961 0.09922,0.111623 0,0.02066 -0.01241,0.359667 -0.595313,0.479557 z m 0.582912,0.405143 c -0.144695,0.115755 -0.260451,0.210838 -0.413412,0.210838 -0.11989,0 -0.264583,-0.06615 -0.264583,-0.256315 0,-0.05788 0.01241,-0.115755 0.02479,-0.173632 l 0.08268,-0.01241 c 0.454752,-0.06201 0.719336,-0.293524 0.719336,-0.516766 0,-0.124023 -0.08682,-0.190169 -0.231511,-0.190169 -0.396875,0 -0.843359,0.475424 -0.843359,0.876432 0,0.177768 0.09095,0.40101 0.388607,0.40101 0.28112,0 0.537435,-0.26045 0.570508,-0.305924 z m 0,0"
         style="fill:#231f20;fill-opacity:1;fill-rule:nonzero;stroke:none;stroke-width:0.352777"
         aria-label="e" />
      <path
         id="path395"
         d="m 86.442499,91.952004 c 0.239779,0.173633 0.330729,0.239779 0.330729,0.39274 0,0.148828 -0.09922,0.239779 -0.23151,0.239779 -0.173633,0 -0.268719,-0.136425 -0.268719,-0.301789 0,-0.19017 0.09922,-0.272852 0.1695,-0.33073 z m -0.330729,0.351399 c 0,0.165364 0.136424,0.338997 0.401008,0.338997 0.351401,0 0.421679,-0.235643 0.421679,-0.347265 0,-0.14056 -0.04547,-0.264584 -0.330729,-0.467154 0.115755,-0.06201 0.285255,-0.148828 0.285255,-0.343133 0,-0.161229 -0.132291,-0.301789 -0.37207,-0.301789 -0.181901,0 -0.392742,0.115755 -0.392742,0.326594 0,0.173633 0.08268,0.243914 0.26045,0.40101 -0.186036,0.144693 -0.272851,0.210839 -0.272851,0.39274 z m 0.169497,-0.847492 c 0,-0.103354 0.06615,-0.214974 0.223242,-0.214974 0.165365,0 0.239779,0.115755 0.239779,0.23151 0,0.186034 -0.119888,0.264584 -0.198437,0.318326 -0.07855,-0.04961 -0.264584,-0.169498 -0.264584,-0.334862 z m 0,0"
         style="fill:#231f20;fill-opacity:1;fill-rule:nonzero;stroke:none;stroke-width:0.352777"
         aria-label="8" />
      <path
         id="path396"
         d="m 75.13983,91.129314 c 0.103351,-0.252179 0.297656,-0.467153 0.446484,-0.467153 0.07028,0 0.09922,0.04961 0.09922,0.11162 0,0.02066 -0.01241,0.359669 -0.595312,0.479557 z m 0.582909,0.405144 c -0.144693,0.115755 -0.260448,0.210841 -0.413412,0.210841 -0.119888,0 -0.264583,-0.06615 -0.264583,-0.256315 0,-0.05788 0.01241,-0.115756 0.02479,-0.173633 l 0.08268,-0.01241 c 0.454752,-0.06201 0.719336,-0.293521 0.719336,-0.516763 0,-0.124024 -0.08682,-0.190169 -0.231511,-0.190169 -0.396875,0 -0.843359,0.475421 -0.843359,0.876432 0,0.177765 0.09095,0.401008 0.388607,0.401008 0.281119,0 0.537434,-0.260448 0.570507,-0.305925 z m 0,0"
         style="fill:#231f20;fill-opacity:1;fill-rule:nonzero;stroke:none;stroke-width:0.352777"
         aria-label="e" />
      <path
         id="path397"
         d="m 76.35526,92.546282 h 0.587044 v -0.03307 c -0.161232,0 -0.202573,-0.02066 -0.202573,-0.124024 v -1.269172 l -0.01654,-0.0041 -0.380338,0.190169 v 0.03307 c 0.119891,-0.04961 0.119891,-0.04961 0.144695,-0.04961 0.07028,0 0.07028,0.05788 0.07028,0.09922 v 0.959115 c 0,0.157096 -0.07855,0.161232 -0.20257,0.165364 z m 1.339453,-1.376658 c 0.272851,0 0.276984,0.533299 0.276984,0.677994 0,0.165365 -0.0041,0.67386 -0.276984,0.67386 -0.272852,0 -0.276987,-0.504362 -0.276987,-0.67386 0,-0.144695 0.0041,-0.677994 0.276987,-0.677994 z m 0,-0.05374 c -0.388607,0 -0.479558,0.479557 -0.479558,0.731739 0,0.25218 0.09095,0.727605 0.479558,0.727605 0.388606,0 0.479557,-0.475425 0.479557,-0.727605 0,-0.252182 -0.09095,-0.731739 -0.479557,-0.731739 z m 0,0"
         style="fill:#231f20;fill-opacity:1;fill-rule:nonzero;stroke:none;stroke-width:0.352777"
         aria-label="10" />
      <path
         id="path398"
         d="m 112.07608,88.176525 c 0.10335,-0.252183 0.29765,-0.467157 0.44648,-0.467157 0.0703,0 0.0992,0.04961 0.0992,0.111623 0,0.02066 -0.0124,0.359667 -0.59531,0.479557 z m 0.58291,0.405143 c -0.1447,0.115755 -0.26045,0.210838 -0.41341,0.210838 -0.1199,0 -0.26459,-0.06615 -0.26459,-0.256315 0,-0.05788 0.0124,-0.115755 0.0248,-0.173632 l 0.0827,-0.01241 c 0.45475,-0.06201 0.71933,-0.293524 0.71933,-0.516766 0,-0.124023 -0.0868,-0.190169 -0.23151,-0.190169 -0.39687,0 -0.84336,0.475424 -0.84336,0.876432 0,0.177768 0.091,0.40101 0.38861,0.40101 0.28112,0 0.53743,-0.26045 0.57051,-0.305924 z m 0,0"
         style="fill:#231f20;fill-opacity:1;fill-rule:nonzero;stroke:none;stroke-width:0.352777"
         aria-label="e" />
      <path
         id="path399"
         d="m 113.4238,88.361527 h 0.41341 c 0.0248,0 0.0413,0 0.0496,-0.02066 l 0.0785,-0.19017 -0.0165,-0.01241 c -0.0248,0.02894 -0.0455,0.05374 -0.0992,0.05374 h -0.44235 l -0.23151,0.500229 c -0.004,0.01654 0,0.02894 0.0124,0.02894 0.23151,0.0083 0.60358,0.107487 0.60358,0.446485 0,0.26045 -0.1571,0.376205 -0.29352,0.376205 -0.11576,0 -0.1695,-0.132291 -0.30593,-0.132291 -0.0868,0 -0.0868,0.06201 -0.0868,0.08268 0,0.07855 0.0992,0.128156 0.26872,0.128156 0.33486,0 0.56637,-0.223242 0.56637,-0.504362 0,-0.190169 -0.0248,-0.252179 -0.11576,-0.359666 -0.12402,-0.152964 -0.32246,-0.19017 -0.49196,-0.21911 z m 0,0"
         style="fill:#231f20;fill-opacity:1;fill-rule:nonzero;stroke:none;stroke-width:0.352777"
         aria-label="5" />
      <path
         id="path400"
         d="m 120.34534,86.286199 c 0.10335,-0.25218 0.29766,-0.467154 0.44648,-0.467154 0.0703,0 0.0992,0.04961 0.0992,0.11162 0,0.02066 -0.0124,0.359669 -0.59531,0.479557 z m 0.58291,0.405143 c -0.14469,0.115755 -0.26045,0.210841 -0.41341,0.210841 -0.11989,0 -0.26458,-0.06615 -0.26458,-0.256315 0,-0.05788 0.0124,-0.115755 0.0248,-0.173633 l 0.0827,-0.01241 c 0.45475,-0.06201 0.71934,-0.293521 0.71934,-0.516763 0,-0.124023 -0.0868,-0.190169 -0.23151,-0.190169 -0.39688,0 -0.84336,0.475422 -0.84336,0.876432 0,0.177766 0.0909,0.401008 0.3886,0.401008 0.28112,0 0.53744,-0.260448 0.57051,-0.305925 z m 0,0"
         style="fill:#231f20;fill-opacity:1;fill-rule:nonzero;stroke:none;stroke-width:0.352777"
         aria-label="e" />
      <path
         id="path401"
         d="m 122.30904,87.214309 h -0.2191 v -0.942578 h -0.091 l -0.66559,0.942578 v 0.132292 h 0.59531 v 0.355534 h 0.16124 v -0.355534 h 0.2191 z m -0.38034,0 h -0.50849 l 0.50023,-0.719336 h 0.008 z m 0,0"
         style="fill:#231f20;fill-opacity:1;fill-rule:nonzero;stroke:none;stroke-width:0.352777"
         aria-label="4" />
      <path
         id="path402"
         d="m 112.17116,81.354201 c 0.10335,-0.252182 0.29766,-0.467156 0.44649,-0.467156 0.0703,0 0.0992,0.04961 0.0992,0.111622 0,0.02066 -0.0124,0.359667 -0.59531,0.479558 z m 0.58291,0.405143 c -0.14469,0.115756 -0.26045,0.210839 -0.41341,0.210839 -0.11989,0 -0.26458,-0.06615 -0.26458,-0.256315 0,-0.05788 0.0124,-0.115755 0.0248,-0.173633 l 0.0827,-0.01241 c 0.45475,-0.06201 0.71934,-0.293523 0.71934,-0.516766 0,-0.124023 -0.0868,-0.190169 -0.23152,-0.190169 -0.39687,0 -0.84335,0.475425 -0.84335,0.876432 0,0.177769 0.091,0.401011 0.3886,0.401011 0.28112,0 0.53744,-0.260451 0.57051,-0.305925 z m 0,0"
         style="fill:#231f20;fill-opacity:1;fill-rule:nonzero;stroke:none;stroke-width:0.352777"
         aria-label="e" />
      <path
         id="path403"
         d="m 113.46101,82.072503 c 0.14882,-0.0041 0.19843,0.0083 0.27698,0.04548 0.13643,0.07028 0.16123,0.227375 0.16123,0.28112 0,0.157096 -0.0868,0.326594 -0.28525,0.326594 -0.12403,0 -0.20257,-0.119888 -0.30179,-0.119888 -0.0331,0 -0.0827,0.01654 -0.0827,0.07441 0,0.11162 0.18604,0.119888 0.23565,0.119888 0.33073,0 0.58704,-0.186034 0.58704,-0.487826 0,-0.276984 -0.1819,-0.351398 -0.26871,-0.388607 0.13642,-0.09095 0.1943,-0.181901 0.1943,-0.297656 0,-0.08682 -0.0579,-0.285252 -0.33073,-0.285252 -0.14056,0 -0.32659,0.06615 -0.41341,0.34313 l 0.0331,0.0083 c 0.0289,-0.05788 0.11989,-0.223242 0.31006,-0.223242 0.1571,0 0.23564,0.111622 0.23564,0.219109 0,0.194302 -0.16123,0.297656 -0.35139,0.355534 z m 0,0"
         style="fill:#231f20;fill-opacity:1;fill-rule:nonzero;stroke:none;stroke-width:0.352777"
         aria-label="3" />
      <path
         id="path404"
         d="m 85.543328,81.837894 c 0.103355,-0.252182 0.297657,-0.467156 0.446485,-0.467156 0.07028,0 0.09922,0.04961 0.09922,0.111622 0,0.02066 -0.01241,0.359667 -0.595313,0.479557 z m 0.582912,0.405143 c -0.144695,0.115755 -0.260451,0.210839 -0.413412,0.210839 -0.11989,0 -0.264583,-0.06615 -0.264583,-0.256315 0,-0.05788 0.01241,-0.115756 0.02479,-0.173633 l 0.08268,-0.01241 c 0.454752,-0.06201 0.719336,-0.293524 0.719336,-0.516766 0,-0.124023 -0.08682,-0.190169 -0.231511,-0.190169 -0.396875,0 -0.843359,0.475424 -0.843359,0.876432 0,0.177768 0.09095,0.401008 0.388607,0.401008 0.28112,0 0.537435,-0.260448 0.570508,-0.305922 z m 0,0"
         style="fill:#231f20;fill-opacity:1;fill-rule:nonzero;stroke:none;stroke-width:0.352777"
         aria-label="e" />
      <path
         id="path405"
         d="m 86.614065,83.253827 h 0.587045 v -0.03307 c -0.161229,0 -0.202571,-0.02066 -0.202571,-0.124024 v -1.269172 l -0.01654,-0.0041 -0.380339,0.190169 v 0.03307 c 0.119888,-0.04961 0.119888,-0.04961 0.144693,-0.04961 0.07028,0 0.07028,0.05788 0.07028,0.09922 v 0.959115 c 0,0.157096 -0.07855,0.161232 -0.202573,0.165365 z m 0,0"
         style="fill:#231f20;fill-opacity:1;fill-rule:nonzero;stroke:none;stroke-width:0.352777"
         aria-label="1" />
      <path
         id="path406"
         d="m 90.524938,86.984865 c 0.103351,-0.252182 0.297656,-0.467156 0.446484,-0.467156 0.07028,0 0.09922,0.04961 0.09922,0.111622 0,0.02066 -0.01241,0.359667 -0.595313,0.479558 z m 0.582909,0.405143 c -0.144693,0.115756 -0.260448,0.210839 -0.413412,0.210839 -0.119888,0 -0.264583,-0.06615 -0.264583,-0.256315 0,-0.05788 0.01241,-0.115755 0.02479,-0.173633 l 0.08268,-0.01241 c 0.454752,-0.06201 0.719335,-0.293523 0.719335,-0.516766 0,-0.124023 -0.08681,-0.190169 -0.23151,-0.190169 -0.396875,0 -0.843359,0.475425 -0.843359,0.876432 0,0.177769 0.09095,0.401011 0.388606,0.401011 0.28112,0 0.537435,-0.260451 0.570508,-0.305925 z m 0,0"
         style="fill:#231f20;fill-opacity:1;fill-rule:nonzero;stroke:none;stroke-width:0.352777"
         aria-label="e" />
      <path
         id="path407"
         d="m 91.616344,88.446275 c 0.537435,-0.03307 0.847492,-0.434083 0.847492,-0.8847 0,-0.351401 -0.20257,-0.59118 -0.463018,-0.59118 -0.276987,0 -0.446487,0.227378 -0.446487,0.508498 0,0.173632 0.09922,0.421679 0.384474,0.421679 0.103354,0 0.214974,-0.04134 0.310057,-0.11989 l 0.0041,0.0083 c -0.01241,0.04961 -0.128157,0.533302 -0.640787,0.615984 z M 92.25713,87.64839 c 0,0.03721 -0.0041,0.06615 -0.03307,0.08682 -0.04547,0.03307 -0.132289,0.07441 -0.202571,0.07441 -0.223242,0 -0.272851,-0.248047 -0.272851,-0.409279 0,-0.173633 0.04961,-0.37207 0.227377,-0.37207 0.281117,0 0.281117,0.413411 0.281117,0.537435 z m 0,0"
         style="fill:#231f20;fill-opacity:1;fill-rule:nonzero;stroke:none;stroke-width:0.352777"
         aria-label="9" />
      <path
         id="path408"
         d="m 105.52867,94.706357 c 0.10336,-0.25218 0.29766,-0.467154 0.44649,-0.467154 0.0703,0 0.0992,0.04961 0.0992,0.11162 0,0.02066 -0.0124,0.359669 -0.59532,0.479557 z m 0.58291,0.405143 c -0.14469,0.115755 -0.26045,0.210841 -0.41341,0.210841 -0.11989,0 -0.26458,-0.06615 -0.26458,-0.256315 0,-0.05788 0.0124,-0.115755 0.0248,-0.173633 l 0.0827,-0.01241 c 0.45476,-0.06201 0.71934,-0.293521 0.71934,-0.516763 0,-0.124023 -0.0868,-0.190169 -0.23151,-0.190169 -0.39688,0 -0.84336,0.475422 -0.84336,0.876432 0,0.177766 0.091,0.401008 0.38861,0.401008 0.28112,0 0.53743,-0.260448 0.5705,-0.305925 z m 0,0"
         style="fill:#231f20;fill-opacity:1;fill-rule:nonzero;stroke:none;stroke-width:0.352777"
         aria-label="e" />
      <path
         id="path409"
         d="m 107.4376,94.676387 c -0.51263,0.01654 -0.8723,0.401008 -0.8723,0.830956 0,0.446484 0.21911,0.644922 0.46716,0.644922 0.3762,0 0.45475,-0.334862 0.45475,-0.491958 0,-0.28112 -0.16536,-0.442352 -0.39274,-0.442352 -0.11576,0 -0.16123,0.02479 -0.27699,0.09509 0.0413,-0.260451 0.24805,-0.545703 0.62425,-0.603581 z m -0.42995,0.636654 c 0.22325,0 0.28939,0.214974 0.28939,0.429948 0,0.239778 -0.0992,0.351398 -0.23151,0.351398 -0.16123,0 -0.30179,-0.157096 -0.30179,-0.51263 0,-0.128156 0.0207,-0.177766 0.0413,-0.198437 0.0537,-0.04961 0.12816,-0.07028 0.20257,-0.07028 z m 0,0"
         style="fill:#231f20;fill-opacity:1;fill-rule:nonzero;stroke:none;stroke-width:0.352777"
         aria-label="6" />
    </g>
  </g>
</svg>
