<?xml version="1.0" encoding="UTF-8" standalone="no"?>
<!-- Created with Inkscape (http://www.inkscape.org/) -->

<svg
   width="31.0145mm"
   height="51.184013mm"
   viewBox="0 0 31.0145 51.184013"
   version="1.1"
   id="svg1"
   inkscape:version="1.3.2 (091e20ef0f, 2023-11-25)"
   sodipodi:docname="29.svg"
   xmlns:inkscape="http://www.inkscape.org/namespaces/inkscape"
   xmlns:sodipodi="http://sodipodi.sourceforge.net/DTD/sodipodi-0.dtd"
   xmlns="http://www.w3.org/2000/svg"
   xmlns:svg="http://www.w3.org/2000/svg">
  <sodipodi:namedview
     id="namedview1"
     pagecolor="#ffffff"
     bordercolor="#000000"
     borderopacity="0.25"
     inkscape:showpageshadow="2"
     inkscape:pageopacity="0.0"
     inkscape:pagecheckerboard="0"
     inkscape:deskcolor="#d1d1d1"
     inkscape:document-units="mm"
     inkscape:zoom="4.6609428"
     inkscape:cx="105.87987"
     inkscape:cy="121.00556"
     inkscape:window-width="2560"
     inkscape:window-height="1600"
     inkscape:window-x="0"
     inkscape:window-y="0"
     inkscape:window-maximized="1"
     inkscape:current-layer="layer1">
    <inkscape:page
       x="0"
       y="0"
       width="31.014502"
       height="51.184013"
       id="page1"
       margin="5.0000005"
       bleed="0" />
  </sodipodi:namedview>
  <defs
     id="defs1"><clipPath
   clipPathUnits="userSpaceOnUse"
   id="clipPath4052">
  <path
     d="m 87,544.16 h 63.783 V 667.38 H 87 Z"
     transform="translate(-97.287002,-586.77501)"
     id="path4052" />
</clipPath>
<clipPath
   clipPathUnits="userSpaceOnUse"
   id="clipPath4050">
  <path
     d="m 87,544.16 h 63.783 V 667.38 H 87 Z"
     transform="translate(-140.95298,-620.89602)"
     id="path4050" />
</clipPath>
<clipPath
   clipPathUnits="userSpaceOnUse"
   id="clipPath4048">
  <path
     d="m 87,544.16 h 63.783 V 667.38 H 87 Z"
     transform="translate(-119.12003,-654.30502)"
     id="path4048" />
</clipPath>
<clipPath
   clipPathUnits="userSpaceOnUse"
   id="clipPath4046">
  <path
     d="m 87,544.16 h 63.783 V 667.38 H 87 Z"
     transform="translate(-119.12003,-627.06402)"
     id="path4046" />
</clipPath>
<clipPath
   clipPathUnits="userSpaceOnUse"
   id="clipPath4044">
  <path
     d="m 87,544.16 h 63.783 V 667.38 H 87 Z"
     transform="translate(-97.287002,-620.89602)"
     id="path4044" />
</clipPath>
<clipPath
   clipPathUnits="userSpaceOnUse"
   id="clipPath4042">
  <path
     d="m 87,544.16 h 63.783 V 667.38 H 87 Z"
     transform="translate(-119.12003,-603.72601)"
     id="path4042" />
</clipPath>
<clipPath
   clipPathUnits="userSpaceOnUse"
   id="clipPath4040">
  <path
     d="m 87,544.16 h 63.783 V 667.38 H 87 Z"
     transform="translate(-140.95298,-586.77501)"
     id="path4040" />
</clipPath>
<clipPath
   clipPathUnits="userSpaceOnUse"
   id="clipPath4038">
  <path
     d="m 87,544.16 h 63.783 V 667.38 H 87 Z"
     transform="translate(-119.12003,-553.12002)"
     id="path4038" />
</clipPath>
0&quot; /&gt;1&quot; /&gt;3&quot; /&gt;6&quot; /&gt;5&quot; /&gt;7&quot; /&gt;2&quot; /&gt;4&quot; /&gt;</defs>
  <g
     inkscape:label="Layer 1"
     inkscape:groupmode="layer"
     id="layer1"
     transform="translate(-97.922953,-113.26879)">
    <rect
       style="fill:#ffffff;stroke-width:1;stroke-linecap:round;stroke-linejoin:round"
       id="rect1"
       width="31.014498"
       height="51.184013"
       x="97.922951"
       y="113.26879" />
    <g
       id="g1">
      <path
         id="path4036"
         d="m 105.2097,132.44811 7.70221,-11.78595 7.70218,11.78595 v 12.03714 l -7.70218,11.87273 -7.70221,-11.87273 z m 7.70221,-2.17593 -7.70221,2.17593 m 0,0 7.70221,6.0572 -7.70221,5.97994 h 15.40439 l -7.70218,-5.97994 7.70218,-6.0572 -7.70218,-2.17593 v -9.61002"
         style="fill:none;stroke:#00adef;stroke-width:0.176389;stroke-linecap:butt;stroke-linejoin:miter;stroke-miterlimit:4;stroke-dasharray:none;stroke-opacity:1" />
      <path
         id="path4037"
         d="M 0,0 C -0.828,0 -1.5,0.672 -1.5,1.5 -1.5,2.326 -0.828,3 0,3 0.828,3 1.5,2.326 1.5,1.5 1.5,0.672 0.828,0 0,0"
         style="fill:#231f20;fill-opacity:1;fill-rule:nonzero;stroke:none"
         transform="matrix(0.35277776,0,0,-0.35277776,112.91368,156.88503)"
         clip-path="url(#clipPath4038)" />
      <path
         id="path4039"
         d="M 0,0 C -0.828,0 -1.5,0.672 -1.5,1.5 -1.5,2.326 -0.828,3 0,3 0.828,3 1.5,2.326 1.5,1.5 1.5,0.672 0.828,0 0,0"
         style="fill:#231f20;fill-opacity:1;fill-rule:nonzero;stroke:none"
         transform="matrix(0.35277776,0,0,-0.35277776,120.61586,145.0123)"
         clip-path="url(#clipPath4040)" />
      <path
         id="path4041"
         d="M 0,0 C -0.828,0 -1.5,0.672 -1.5,1.5 -1.5,2.326 -0.828,3 0,3 0.828,3 1.5,2.326 1.5,1.5 1.5,0.672 0.828,0 0,0"
         style="fill:#231f20;fill-opacity:1;fill-rule:nonzero;stroke:none"
         transform="matrix(0.35277776,0,0,-0.35277776,112.91368,139.03236)"
         clip-path="url(#clipPath4042)" />
      <path
         id="path4043"
         d="M 0,0 C -0.828,0 -1.5,0.672 -1.5,1.5 -1.5,2.326 -0.828,3 0,3 0.828,3 1.5,2.326 1.5,1.5 1.5,0.672 0.828,0 0,0"
         style="fill:#231f20;fill-opacity:1;fill-rule:nonzero;stroke:none"
         transform="matrix(0.35277776,0,0,-0.35277776,105.21148,132.97516)"
         clip-path="url(#clipPath4044)" />
      <path
         id="path4045"
         d="M 0,0 C -0.828,0 -1.5,0.672 -1.5,1.5 -1.5,2.326 -0.828,3 0,3 0.828,3 1.5,2.326 1.5,1.5 1.5,0.672 0.828,0 0,0"
         style="fill:#231f20;fill-opacity:1;fill-rule:nonzero;stroke:none"
         transform="matrix(0.35277776,0,0,-0.35277776,112.91368,130.79923)"
         clip-path="url(#clipPath4046)" />
      <path
         id="path4047"
         d="M 0,0 C -0.828,0 -1.5,0.672 -1.5,1.5 -1.5,2.326 -0.828,3 0,3 0.828,3 1.5,2.326 1.5,1.5 1.5,0.672 0.828,0 0,0"
         style="fill:#231f20;fill-opacity:1;fill-rule:nonzero;stroke:none"
         transform="matrix(0.35277776,0,0,-0.35277776,112.91368,121.18921)"
         clip-path="url(#clipPath4048)" />
      <path
         id="path4049"
         d="M 0,0 C -0.828,0 -1.5,0.672 -1.5,1.5 -1.5,2.326 -0.828,3 0,3 0.828,3 1.5,2.326 1.5,1.5 1.5,0.672 0.828,0 0,0"
         style="fill:#231f20;fill-opacity:1;fill-rule:nonzero;stroke:none"
         transform="matrix(0.35277776,0,0,-0.35277776,120.61586,132.97516)"
         clip-path="url(#clipPath4050)" />
      <path
         id="path4051"
         d="M 0,0 C -0.828,0 -1.5,0.672 -1.5,1.5 -1.5,2.326 -0.828,3 0,3 0.828,3 1.5,2.326 1.5,1.5 1.5,0.672 0.828,0 0,0"
         style="fill:#231f20;fill-opacity:1;fill-rule:nonzero;stroke:none"
         transform="matrix(0.35277776,0,0,-0.35277776,105.21148,145.0123)"
         clip-path="url(#clipPath4052)" />
      <path
         id="path4053"
         d="m 113.10815,118.32249 c 0.27287,0 0.27699,0.5333 0.27699,0.678 0,0.16536 -0.004,0.67386 -0.27699,0.67386 -0.27284,0 -0.27696,-0.50436 -0.27696,-0.67386 0,-0.1447 0.004,-0.678 0.27696,-0.678 z m 0,-0.0537 c -0.38859,0 -0.47956,0.47956 -0.47956,0.73174 0,0.25218 0.091,0.7276 0.47956,0.7276 0.38862,0 0.47956,-0.47542 0.47956,-0.7276 0,-0.25218 -0.0909,-0.73174 -0.47956,-0.73174 z m 0,0"
         style="fill:#231f20;fill-opacity:1;fill-rule:nonzero;stroke:none;stroke-width:0.352777"
         aria-label=" " />
      <path
         id="path4054"
         d="m 123.07138,133.43578 h 0.58703 v -0.0331 c -0.16121,0 -0.20256,-0.0207 -0.20256,-0.12402 v -1.26918 l -0.0164,-0.004 -0.38034,0.19017 v 0.0331 c 0.11989,-0.0496 0.11989,-0.0496 0.1447,-0.0496 0.0703,0 0.0703,0.0579 0.0703,0.0992 v 0.95911 c 0,0.1571 -0.0786,0.16123 -0.20257,0.16537 z m 0,0"
         style="fill:#231f20;fill-opacity:1;fill-rule:nonzero;stroke:none;stroke-width:0.352777"
         aria-label="" />
      <path
         id="path4055"
         d="m 123.34631,145.0206 c 0.14883,-0.004 0.19844,0.008 0.27697,0.0455 0.13644,0.0703 0.16123,0.22737 0.16123,0.28112 0,0.1571 -0.0868,0.32659 -0.28525,0.32659 -0.12403,0 -0.20256,-0.11988 -0.30178,-0.11988 -0.0331,0 -0.0827,0.0165 -0.0827,0.0744 0,0.11162 0.18603,0.11989 0.23564,0.11989 0.33073,0 0.58703,-0.18604 0.58703,-0.48783 0,-0.27698 -0.1819,-0.3514 -0.26871,-0.3886 0.13642,-0.091 0.19431,-0.18191 0.19431,-0.29766 0,-0.0868 -0.0579,-0.28525 -0.33073,-0.28525 -0.14058,0 -0.3266,0.0661 -0.41341,0.34313 l 0.0331,0.008 c 0.0289,-0.0579 0.11988,-0.22324 0.31006,-0.22324 0.15709,0 0.23564,0.11162 0.23564,0.21911 0,0.1943 -0.16123,0.29765 -0.35139,0.35553 z m 0,0"
         style="fill:#231f20;fill-opacity:1;fill-rule:nonzero;stroke:none;stroke-width:0.352777"
         aria-label="" />
      <path
         id="path4056"
         d="m 103.79918,131.63641 c -0.51263,0.0165 -0.8723,0.40101 -0.8723,0.83096 0,0.44648 0.2191,0.64492 0.46715,0.64492 0.37621,0 0.45476,-0.33487 0.45476,-0.49196 0,-0.28112 -0.16536,-0.44235 -0.39274,-0.44235 -0.11576,0 -0.16124,0.0248 -0.277,0.0951 0.0414,-0.26045 0.24805,-0.5457 0.62426,-0.60358 z m -0.42994,0.63665 c 0.22322,0 0.28937,0.21498 0.28937,0.42995 0,0.23978 -0.0992,0.3514 -0.23151,0.3514 -0.16121,0 -0.30178,-0.1571 -0.30178,-0.51263 0,-0.12816 0.0206,-0.17777 0.0413,-0.19844 0.0537,-0.0496 0.12814,-0.0703 0.20257,-0.0703 z m 0,0"
         style="fill:#231f20;fill-opacity:1;fill-rule:nonzero;stroke:none;stroke-width:0.352777"
         aria-label="" />
      <path
         id="path4057"
         d="m 103.24107,143.95814 h 0.41341 c 0.0249,0 0.0413,0 0.0496,-0.0207 l 0.0786,-0.19017 -0.0164,-0.0124 c -0.0249,0.0289 -0.0455,0.0537 -0.0992,0.0537 h -0.44235 l -0.23151,0.50023 c -0.004,0.0165 0,0.0289 0.0124,0.0289 0.23151,0.008 0.60357,0.10749 0.60357,0.44649 0,0.26045 -0.15708,0.3762 -0.29353,0.3762 -0.11575,0 -0.16949,-0.13229 -0.30591,-0.13229 -0.0868,0 -0.0868,0.062 -0.0868,0.0827 0,0.0786 0.0992,0.12816 0.26871,0.12816 0.33486,0 0.56637,-0.22324 0.56637,-0.50436 0,-0.19017 -0.0249,-0.25218 -0.11576,-0.35967 -0.12401,-0.15296 -0.32244,-0.19017 -0.49196,-0.21911 z m 0,0"
         style="fill:#231f20;fill-opacity:1;fill-rule:nonzero;stroke:none;stroke-width:0.352777"
         aria-label="" />
      <path
         id="path4058"
         d="m 115.79018,128.56683 h -0.78547 l -0.0331,0.0951 -0.091,0.21498 0.0372,0.0165 c 0.0703,-0.10748 0.1075,-0.16949 0.24391,-0.16949 h 0.4589 l -0.41754,1.2609 h 0.13642 l 0.45061,-1.38493 z m 0,0"
         style="fill:#231f20;fill-opacity:1;fill-rule:nonzero;stroke:none;stroke-width:0.352777"
         aria-label="" />
      <path
         id="path4059"
         d="m 116.5643,139.45092 -0.0249,-0.0124 c -0.0827,0.13642 -0.12401,0.14056 -0.20257,0.14056 h -0.50435 l 0.35552,-0.37207 c 0.091,-0.0992 0.26871,-0.29353 0.26871,-0.51677 0,-0.23564 -0.19015,-0.38034 -0.38446,-0.38034 -0.18603,0 -0.38447,0.0992 -0.44649,0.42168 l 0.0455,0.008 c 0.0455,-0.11162 0.10747,-0.27285 0.30178,-0.27285 0.24805,0 0.30178,0.1943 0.30178,0.30179 0,0.1571 -0.0909,0.34726 -0.27696,0.5457 l -0.37621,0.40101 v 0.0248 h 0.82682 z m 0,0"
         style="fill:#231f20;fill-opacity:1;fill-rule:nonzero;stroke:none;stroke-width:0.352777"
         aria-label="" />
      <path
         id="path4060"
         d="m 114.0094,158.96497 h -0.2191 v -0.94258 h -0.0909 l -0.66561,0.94258 v 0.13229 h 0.59531 v 0.35554 h 0.16124 v -0.35554 h 0.2191 z m -0.38034,0 h -0.50847 l 0.50022,-0.71933 h 0.008 z m 0,0"
         style="fill:#231f20;fill-opacity:1;fill-rule:nonzero;stroke:none;stroke-width:0.352777"
         aria-label="" />
    </g>
  </g>
</svg>
