<?xml version="1.0" encoding="UTF-8" standalone="no"?>
<!-- Created with Inkscape (http://www.inkscape.org/) -->

<svg
   width="76.062103mm"
   height="45.202751mm"
   viewBox="0 0 76.062103 45.202751"
   version="1.1"
   id="svg1"
   inkscape:version="1.3.2 (091e20ef0f, 2023-11-25)"
   sodipodi:docname="5.svg"
   xmlns:inkscape="http://www.inkscape.org/namespaces/inkscape"
   xmlns:sodipodi="http://sodipodi.sourceforge.net/DTD/sodipodi-0.dtd"
   xmlns="http://www.w3.org/2000/svg"
   xmlns:svg="http://www.w3.org/2000/svg">
  <sodipodi:namedview
     id="namedview1"
     pagecolor="#ffffff"
     bordercolor="#000000"
     borderopacity="0.25"
     inkscape:showpageshadow="2"
     inkscape:pageopacity="0.0"
     inkscape:pagecheckerboard="0"
     inkscape:deskcolor="#d1d1d1"
     inkscape:document-units="mm"
     inkscape:zoom="2.8926302"
     inkscape:cx="176.48298"
     inkscape:cy="110.28026"
     inkscape:window-width="2560"
     inkscape:window-height="1600"
     inkscape:window-x="0"
     inkscape:window-y="0"
     inkscape:window-maximized="1"
     inkscape:current-layer="layer1">
    <inkscape:page
       x="0"
       y="0"
       width="76.062103"
       height="45.202751"
       id="page1"
       margin="5.0000005"
       bleed="0" />
  </sodipodi:namedview>
  <defs
     id="defs1"><clipPath
   clipPathUnits="userSpaceOnUse"
   id="clipPath254">
  <path
     d="m 123,90.426 h 188.1 v 91.562 H 123 Z"
     transform="translate(-277.63,-155.03)"
     id="path254" />
</clipPath>
<clipPath
   clipPathUnits="userSpaceOnUse"
   id="clipPath256">
  <path
     d="m 123,90.426 h 188.1 v 91.562 H 123 Z"
     transform="translate(-167.07,-136.99601)"
     id="path256" />
</clipPath>
<clipPath
   clipPathUnits="userSpaceOnUse"
   id="clipPath258">
  <path
     d="m 123,90.426 h 188.1 v 91.562 H 123 Z"
     transform="translate(-196.822,-136.99601)"
     id="path258" />
</clipPath>
<clipPath
   clipPathUnits="userSpaceOnUse"
   id="clipPath260">
  <path
     d="m 123,90.426 h 188.1 v 91.562 H 123 Z"
     transform="translate(-137.31201,-136.99601)"
     id="path260" />
</clipPath>
<clipPath
   clipPathUnits="userSpaceOnUse"
   id="clipPath262">
  <path
     d="m 123,90.426 h 188.1 v 91.562 H 123 Z"
     transform="translate(-128.2992,-100.868)"
     id="path262" />
</clipPath>
<clipPath
   clipPathUnits="userSpaceOnUse"
   id="clipPath264">
  <path
     d="m 123,90.426 h 188.1 v 91.562 H 123 Z"
     transform="translate(-257.67921,-121.56101)"
     id="path264" />
</clipPath>
<clipPath
   clipPathUnits="userSpaceOnUse"
   id="clipPath266">
  <path
     d="m 123,90.426 h 188.1 v 91.562 H 123 Z"
     transform="translate(-247.16421,-148.164)"
     id="path266" />
</clipPath>
<clipPath
   clipPathUnits="userSpaceOnUse"
   id="clipPath268">
  <path
     d="m 123,90.426 h 188.1 v 91.562 H 123 Z"
     transform="translate(-279.13321,-155.0298)"
     id="path268" />
</clipPath>
<clipPath
   clipPathUnits="userSpaceOnUse"
   id="clipPath270">
  <path
     d="m 123,90.426 h 188.1 v 91.562 H 123 Z"
     transform="translate(-279.13321,-180.48881)"
     id="path270" />
</clipPath>
<clipPath
   clipPathUnits="userSpaceOnUse"
   id="clipPath272">
  <path
     d="m 123,90.426 h 188.1 v 91.562 H 123 Z"
     transform="translate(-300.58621,-121.5608)"
     id="path272" />
</clipPath>
<clipPath
   clipPathUnits="userSpaceOnUse"
   id="clipPath274">
  <path
     d="m 123,90.426 h 188.1 v 91.562 H 123 Z"
     transform="translate(-311.10121,-148.16381)"
     id="path274" />
</clipPath>
<clipPath
   clipPathUnits="userSpaceOnUse"
   id="clipPath276">
  <path
     d="m 123,90.426 h 188.1 v 91.562 H 123 Z"
     transform="translate(-205.8412,-100.8678)"
     id="path276" />
</clipPath>
<clipPath
   clipPathUnits="userSpaceOnUse"
   id="clipPath278">
  <path
     d="m 123,90.426 h 188.1 v 91.562 H 123 Z"
     transform="translate(-167.1132,-100.8678)"
     id="path278" />
</clipPath>
<clipPath
   clipPathUnits="userSpaceOnUse"
   id="clipPath254-7">
  <path
     d="m 123,90.426 h 188.1 v 91.562 H 123 Z"
     transform="translate(-277.63,-155.03)"
     id="path254-4" />
</clipPath>
<clipPath
   clipPathUnits="userSpaceOnUse"
   id="clipPath256-4">
  <path
     d="m 123,90.426 h 188.1 v 91.562 H 123 Z"
     transform="translate(-167.07,-136.99601)"
     id="path256-3" />
</clipPath>
<clipPath
   clipPathUnits="userSpaceOnUse"
   id="clipPath258-0">
  <path
     d="m 123,90.426 h 188.1 v 91.562 H 123 Z"
     transform="translate(-196.822,-136.99601)"
     id="path258-7" />
</clipPath>
<clipPath
   clipPathUnits="userSpaceOnUse"
   id="clipPath260-8">
  <path
     d="m 123,90.426 h 188.1 v 91.562 H 123 Z"
     transform="translate(-137.31201,-136.99601)"
     id="path260-6" />
</clipPath>
<clipPath
   clipPathUnits="userSpaceOnUse"
   id="clipPath262-8">
  <path
     d="m 123,90.426 h 188.1 v 91.562 H 123 Z"
     transform="translate(-128.2992,-100.868)"
     id="path262-8" />
</clipPath>
<clipPath
   clipPathUnits="userSpaceOnUse"
   id="clipPath264-4">
  <path
     d="m 123,90.426 h 188.1 v 91.562 H 123 Z"
     transform="translate(-257.67921,-121.56101)"
     id="path264-3" />
</clipPath>
<clipPath
   clipPathUnits="userSpaceOnUse"
   id="clipPath266-1">
  <path
     d="m 123,90.426 h 188.1 v 91.562 H 123 Z"
     transform="translate(-247.16421,-148.164)"
     id="path266-4" />
</clipPath>
<clipPath
   clipPathUnits="userSpaceOnUse"
   id="clipPath268-9">
  <path
     d="m 123,90.426 h 188.1 v 91.562 H 123 Z"
     transform="translate(-279.13321,-155.0298)"
     id="path268-2" />
</clipPath>
<clipPath
   clipPathUnits="userSpaceOnUse"
   id="clipPath270-0">
  <path
     d="m 123,90.426 h 188.1 v 91.562 H 123 Z"
     transform="translate(-279.13321,-180.48881)"
     id="path270-6" />
</clipPath>
<clipPath
   clipPathUnits="userSpaceOnUse"
   id="clipPath272-8">
  <path
     d="m 123,90.426 h 188.1 v 91.562 H 123 Z"
     transform="translate(-300.58621,-121.5608)"
     id="path272-9" />
</clipPath>
<clipPath
   clipPathUnits="userSpaceOnUse"
   id="clipPath274-2">
  <path
     d="m 123,90.426 h 188.1 v 91.562 H 123 Z"
     transform="translate(-311.10121,-148.16381)"
     id="path274-6" />
</clipPath>
<clipPath
   clipPathUnits="userSpaceOnUse"
   id="clipPath276-6">
  <path
     d="m 123,90.426 h 188.1 v 91.562 H 123 Z"
     transform="translate(-205.8412,-100.8678)"
     id="path276-4" />
</clipPath>
<clipPath
   clipPathUnits="userSpaceOnUse"
   id="clipPath278-9">
  <path
     d="m 123,90.426 h 188.1 v 91.562 H 123 Z"
     transform="translate(-167.1132,-100.8678)"
     id="path278-5" />
</clipPath>


2&quot; /&gt;1&quot; /&gt;3&quot; /&gt;4&quot; /&gt;5&quot; /&gt;6&quot; /&gt;</defs>
  <g
     inkscape:label="Layer 1"
     inkscape:groupmode="layer"
     id="layer1"
     transform="translate(-77.989999,-216.65226)">
    <rect
       style="fill:#ffffff;stroke-width:1;stroke-linecap:round;stroke-linejoin:round"
       id="rect1"
       width="76.062103"
       height="45.202751"
       x="77.989998"
       y="216.65227" />
    <g
       id="g1">
      <path
         id="path253"
         d="M 0,0 V 25.57 M -21.454,-33.469 -31.969,-6.866 0,0 31.968,-6.866 21.453,-33.469 m 0,0 c 0,-4.424 -9.607,-8.01 -21.453,-8.01 -11.848,0 -21.454,3.586 -21.454,8.01 0,4.424 9.606,8.01 21.454,8.01 11.846,0 21.453,-3.586 21.453,-8.01 z m -133.513,15.435 v -36.128 m -29.76,36.128 -9.01,-36.128 38.77,36.128 38.77,-36.128 -9.013,36.128 m 0,0 c 0,-6.666 -13.323,-12.069 -29.757,-12.069 -16.44,0 -29.76,5.403 -29.76,12.069 0,6.666 13.32,12.07 29.76,12.07 16.434,0 29.757,-5.404 29.757,-12.07 z"
         style="fill:none;stroke:#00adef;stroke-width:0.5;stroke-linecap:butt;stroke-linejoin:miter;stroke-miterlimit:4;stroke-dasharray:none;stroke-opacity:1"
         transform="matrix(0.35277776,0,0,-0.35277776,137.24463,231.16244)"
         clip-path="url(#clipPath254-7)" />
      <path
         id="path255"
         d="M 0,0 C 0,-0.828 -0.672,-1.5 -1.5,-1.5 -2.329,-1.5 -3,-0.828 -3,0 -3,0.828 -2.329,1.5 -1.5,1.5 -0.672,1.5 0,0.828 0,0"
         style="fill:#231f20;fill-opacity:1;fill-rule:nonzero;stroke:none"
         transform="matrix(0.35277776,0,0,-0.35277776,98.24152,237.52443)"
         clip-path="url(#clipPath256-4)" />
      <path
         id="path257"
         d="M 0,0 C 0,-0.828 -0.672,-1.5 -1.5,-1.5 -2.328,-1.5 -3,-0.828 -3,0 -3,0.828 -2.328,1.5 -1.5,1.5 -0.672,1.5 0,0.828 0,0"
         style="fill:#231f20;fill-opacity:1;fill-rule:nonzero;stroke:none"
         transform="matrix(0.35277776,0,0,-0.35277776,108.73736,237.52443)"
         clip-path="url(#clipPath258-0)" />
      <path
         id="path259"
         d="M 0,0 C 0,-0.828 -0.671,-1.5 -1.5,-1.5 -2.327,-1.5 -3,-0.828 -3,0 -3,0.828 -2.327,1.5 -1.5,1.5 -0.671,1.5 0,0.828 0,0"
         style="fill:#231f20;fill-opacity:1;fill-rule:nonzero;stroke:none"
         transform="matrix(0.35277776,0,0,-0.35277776,87.74356,237.52443)"
         clip-path="url(#clipPath260-8)" />
      <path
         id="path261"
         d="M 0,0 C 0,-0.828 -0.671,-1.5 -1.5,-1.5 -2.329,-1.5 -3,-0.828 -3,0 -3,0.829 -2.329,1.5 -1.5,1.5 -0.671,1.5 0,0.829 0,0"
         style="fill:#231f20;fill-opacity:1;fill-rule:nonzero;stroke:none"
         transform="matrix(0.35277776,0,0,-0.35277776,84.56404,250.26959)"
         clip-path="url(#clipPath262-8)" />
      <path
         id="path263"
         d="M 0,0 C 0,-0.828 -0.671,-1.5 -1.5,-1.5 -2.33,-1.5 -3,-0.828 -3,0 -3,0.828 -2.33,1.5 -1.5,1.5 -0.671,1.5 0,0.828 0,0"
         style="fill:#231f20;fill-opacity:1;fill-rule:nonzero;stroke:none"
         transform="matrix(0.35277776,0,0,-0.35277776,130.20643,242.96956)"
         clip-path="url(#clipPath264-4)" />
      <path
         id="path265"
         d="M 0,0 C 0,-0.828 -0.672,-1.5 -1.5,-1.5 -2.33,-1.5 -3,-0.828 -3,0 -3,0.828 -2.33,1.5 -1.5,1.5 -0.672,1.5 0,0.828 0,0"
         style="fill:#231f20;fill-opacity:1;fill-rule:nonzero;stroke:none"
         transform="matrix(0.35277776,0,0,-0.35277776,126.49698,233.58461)"
         clip-path="url(#clipPath266-1)" />
      <path
         id="path267"
         d="M 0,0 C 0,-0.829 -0.67,-1.5 -1.5,-1.5 -2.329,-1.5 -3,-0.829 -3,0 -3,0.828 -2.329,1.5 -1.5,1.5 -0.67,1.5 0,0.828 0,0"
         style="fill:#231f20;fill-opacity:1;fill-rule:nonzero;stroke:none"
         transform="matrix(0.35277776,0,0,-0.35277776,137.77493,231.16251)"
         clip-path="url(#clipPath268-9)" />
      <path
         id="path269"
         d="M 0,0 C 0,-0.829 -0.67,-1.5 -1.5,-1.5 -2.329,-1.5 -3,-0.829 -3,0 -3,0.828 -2.329,1.5 -1.5,1.5 -0.67,1.5 0,0.828 0,0"
         style="fill:#231f20;fill-opacity:1;fill-rule:nonzero;stroke:none"
         transform="matrix(0.35277776,0,0,-0.35277776,137.77493,222.18114)"
         clip-path="url(#clipPath270-0)" />
      <path
         id="path271"
         d="M 0,0 C 0,-0.828 -0.67,-1.5 -1.5,-1.5 -2.328,-1.5 -3,-0.828 -3,0 -3,0.828 -2.328,1.5 -1.5,1.5 -0.67,1.5 0,0.828 0,0"
         style="fill:#231f20;fill-opacity:1;fill-rule:nonzero;stroke:none"
         transform="matrix(0.35277776,0,0,-0.35277776,145.34307,242.96963)"
         clip-path="url(#clipPath272-8)" />
      <path
         id="path273"
         d="M 0,0 C 0,-0.828 -0.67,-1.5 -1.5,-1.5 -2.329,-1.5 -3,-0.828 -3,0 -3,0.828 -2.329,1.5 -1.5,1.5 -0.67,1.5 0,0.828 0,0"
         style="fill:#231f20;fill-opacity:1;fill-rule:nonzero;stroke:none"
         transform="matrix(0.35277776,0,0,-0.35277776,149.05253,233.58468)"
         clip-path="url(#clipPath274-2)" />
      <path
         id="path275"
         d="M 0,0 C 0,-0.828 -0.671,-1.5 -1.5,-1.5 -2.329,-1.5 -3,-0.828 -3,0 -3,0.829 -2.329,1.5 -1.5,1.5 -0.671,1.5 0,0.829 0,0"
         style="fill:#231f20;fill-opacity:1;fill-rule:nonzero;stroke:none"
         transform="matrix(0.35277776,0,0,-0.35277776,111.91914,250.26966)"
         clip-path="url(#clipPath276-6)" />
      <path
         id="path277"
         d="M 0,0 C 0,-0.828 -0.672,-1.5 -1.5,-1.5 -2.328,-1.5 -3,-0.828 -3,0 -3,0.829 -2.328,1.5 -1.5,1.5 -0.672,1.5 0,0.829 0,0"
         style="fill:#231f20;fill-opacity:1;fill-rule:nonzero;stroke:none"
         transform="matrix(0.35277776,0,0,-0.35277776,98.25676,250.26966)"
         clip-path="url(#clipPath278-9)" />
      <path
         id="path279"
         d="m 98.94664,236.04077 -0.0248,-0.0124 c -0.0827,0.13642 -0.12402,0.14056 -0.20257,0.14056 h -0.50436 l 0.35553,-0.37208 c 0.0909,-0.0992 0.26872,-0.29352 0.26872,-0.51676 0,-0.23564 -0.19017,-0.38034 -0.38447,-0.38034 -0.18604,0 -0.38448,0.0992 -0.44649,0.42168 l 0.0455,0.008 c 0.0455,-0.11162 0.10748,-0.27285 0.30179,-0.27285 0.24804,0 0.30179,0.1943 0.30179,0.30179 0,0.15709 -0.0909,0.34726 -0.27699,0.5457 l -0.3762,0.40101 v 0.0248 h 0.82682 z m 0,0"
         style="fill:#231f20;fill-opacity:1;fill-rule:nonzero;stroke:none;stroke-width:0.352777"
         aria-label=" " />
      <path
         id="path280"
         d="m 85.52524,238.6587 h 0.58705 v -0.0331 c -0.16124,0 -0.20258,-0.0207 -0.20258,-0.12402 v -1.26915 l -0.0165,-0.004 -0.38034,0.19017 v 0.0331 c 0.11989,-0.0496 0.11989,-0.0496 0.14469,-0.0496 0.0703,0 0.0703,0.0579 0.0703,0.0992 v 0.95911 c 0,0.1571 -0.0785,0.16123 -0.20257,0.16537 z m 0,0"
         style="fill:#231f20;fill-opacity:1;fill-rule:nonzero;stroke:none;stroke-width:0.352777"
         aria-label="" />
      <path
         id="path281"
         d="m 111.04203,237.96004 c 0.14883,-0.004 0.19844,0.008 0.27699,0.0455 0.13642,0.0703 0.16122,0.22738 0.16122,0.28112 0,0.1571 -0.0868,0.3266 -0.28525,0.3266 -0.12402,0 -0.20257,-0.11989 -0.30179,-0.11989 -0.0331,0 -0.0827,0.0165 -0.0827,0.0744 0,0.11162 0.18603,0.11989 0.23564,0.11989 0.33073,0 0.58705,-0.18603 0.58705,-0.48782 0,-0.27699 -0.1819,-0.3514 -0.26872,-0.38861 0.13643,-0.091 0.1943,-0.1819 0.1943,-0.29766 0,-0.0868 -0.0579,-0.28525 -0.33073,-0.28525 -0.14056,0 -0.32659,0.0661 -0.41341,0.34313 l 0.0331,0.008 c 0.0289,-0.0579 0.11988,-0.22325 0.31006,-0.22325 0.15709,0 0.23564,0.11163 0.23564,0.21911 0,0.19431 -0.16123,0.29766 -0.3514,0.35554 z m 0,0"
         style="fill:#231f20;fill-opacity:1;fill-rule:nonzero;stroke:none;stroke-width:0.352777"
         aria-label="" />
      <path
         id="path282"
         d="m 112.58716,253.00408 h -0.21911 v -0.94258 h -0.0909 l -0.6656,0.94258 v 0.13229 h 0.59532 v 0.35554 h 0.16123 v -0.35554 h 0.21911 z m -0.38034,0 h -0.5085 l 0.50023,-0.71933 h 0.008 z m 0,0"
         style="fill:#231f20;fill-opacity:1;fill-rule:nonzero;stroke:none;stroke-width:0.352777"
         aria-label="" />
      <path
         id="path283"
         d="m 98.2025,252.25994 h 0.41341 c 0.0248,0 0.0414,0 0.0496,-0.0207 l 0.0786,-0.19017 -0.0165,-0.0124 c -0.0248,0.0289 -0.0455,0.0537 -0.0992,0.0537 h -0.44235 l -0.23151,0.50023 c -0.004,0.0165 0,0.0289 0.0124,0.0289 0.23151,0.008 0.60358,0.10748 0.60358,0.44648 0,0.26045 -0.1571,0.37621 -0.29353,0.37621 -0.11575,0 -0.1695,-0.13229 -0.30592,-0.13229 -0.0868,0 -0.0868,0.062 -0.0868,0.0827 0,0.0786 0.0992,0.12815 0.26872,0.12815 0.33486,0 0.56637,-0.22324 0.56637,-0.50436 0,-0.19017 -0.0248,-0.25218 -0.11575,-0.35966 -0.12402,-0.15297 -0.32246,-0.19017 -0.49196,-0.21911 z m 0,0"
         style="fill:#231f20;fill-opacity:1;fill-rule:nonzero;stroke:none;stroke-width:0.352777"
         aria-label="" />
      <path
         id="path284"
         d="m 85.03431,252.04497 c -0.51263,0.0165 -0.87229,0.40101 -0.87229,0.83095 0,0.44649 0.2191,0.64492 0.46715,0.64492 0.3762,0 0.45475,-0.33486 0.45475,-0.49195 0,-0.28112 -0.16536,-0.44235 -0.39274,-0.44235 -0.11575,0 -0.16123,0.0248 -0.27698,0.0951 0.0413,-0.26045 0.24804,-0.5457 0.62425,-0.60358 z m -0.42994,0.63665 c 0.22324,0 0.28939,0.21497 0.28939,0.42995 0,0.23978 -0.0992,0.3514 -0.23152,0.3514 -0.16122,0 -0.30179,-0.1571 -0.30179,-0.51263 0,-0.12816 0.0207,-0.17777 0.0413,-0.19844 0.0538,-0.0496 0.12816,-0.0703 0.20258,-0.0703 z m 0,0"
         style="fill:#231f20;fill-opacity:1;fill-rule:nonzero;stroke:none;stroke-width:0.352777"
         aria-label="" />
      <path
         id="path285"
         d="m 89.81645,246.33679 c 0.10335,-0.25218 0.29766,-0.46716 0.44649,-0.46716 0.0703,0 0.0992,0.0496 0.0992,0.11162 0,0.0207 -0.0124,0.35967 -0.59532,0.47956 z m 0.58291,0.40514 c -0.14469,0.11576 -0.26045,0.21084 -0.41341,0.21084 -0.11989,0 -0.26458,-0.0661 -0.26458,-0.25631 0,-0.0579 0.0124,-0.11576 0.0248,-0.17364 l 0.0827,-0.0124 c 0.45475,-0.062 0.71934,-0.29352 0.71934,-0.51676 0,-0.12403 -0.0868,-0.19017 -0.23151,-0.19017 -0.39688,0 -0.84336,0.47542 -0.84336,0.87643 0,0.17777 0.0909,0.40101 0.3886,0.40101 0.28112,0 0.53744,-0.26045 0.57051,-0.30592 z m 0,0"
         style="fill:#231f20;fill-opacity:1;fill-rule:nonzero;stroke:none;stroke-width:0.352777"
         aria-label="e" />
      <path
         id="path286"
         d="M 91.73158,246.35229 H 90.9461 l -0.0331,0.0951 -0.0909,0.21497 0.0372,0.0165 c 0.0703,-0.10749 0.10749,-0.1695 0.24392,-0.1695 h 0.45888 l -0.41754,1.2609 h 0.13642 l 0.45062,-1.38493 z m 0,0"
         style="fill:#231f20;fill-opacity:1;fill-rule:nonzero;stroke:none;stroke-width:0.352777"
         aria-label="7" />
      <path
         id="path287"
         d="m 94.98823,246.33679 c 0.10335,-0.25218 0.29765,-0.46716 0.44648,-0.46716 0.0703,0 0.0992,0.0496 0.0992,0.11162 0,0.0207 -0.0124,0.35967 -0.59531,0.47956 z m 0.58291,0.40514 c -0.1447,0.11576 -0.26045,0.21084 -0.41341,0.21084 -0.11989,0 -0.26459,-0.0661 -0.26459,-0.25631 0,-0.0579 0.0124,-0.11576 0.0248,-0.17364 l 0.0827,-0.0124 c 0.45475,-0.062 0.71933,-0.29352 0.71933,-0.51676 0,-0.12403 -0.0868,-0.19017 -0.23151,-0.19017 -0.39687,0 -0.84336,0.47542 -0.84336,0.87643 0,0.17777 0.091,0.40101 0.38861,0.40101 0.28112,0 0.53744,-0.26045 0.57051,-0.30592 z m 0,0"
         style="fill:#231f20;fill-opacity:1;fill-rule:nonzero;stroke:none;stroke-width:0.352777"
         aria-label="e" />
      <path
         id="path288"
         d="m 96.89819,246.30682 c -0.51263,0.0165 -0.8723,0.401 -0.8723,0.83095 0,0.44649 0.21911,0.64492 0.46716,0.64492 0.3762,0 0.45475,-0.33486 0.45475,-0.49195 0,-0.28112 -0.16537,-0.44236 -0.39274,-0.44236 -0.11576,0 -0.16123,0.0248 -0.27699,0.0951 0.0413,-0.26045 0.24805,-0.5457 0.62425,-0.60358 z m -0.42995,0.63665 c 0.22324,0 0.28939,0.21497 0.28939,0.42995 0,0.23978 -0.0992,0.3514 -0.23151,0.3514 -0.16123,0 -0.30179,-0.1571 -0.30179,-0.51263 0,-0.12816 0.0207,-0.17777 0.0413,-0.19844 0.0537,-0.0496 0.12816,-0.0703 0.20257,-0.0703 z m 0,0"
         style="fill:#231f20;fill-opacity:1;fill-rule:nonzero;stroke:none;stroke-width:0.352777"
         aria-label="6" />
      <path
         id="path289"
         d="m 102.56606,244.9932 c 0.10335,-0.25218 0.29766,-0.46715 0.44649,-0.46715 0.0703,0 0.0992,0.0496 0.0992,0.11162 0,0.0207 -0.0124,0.35967 -0.59531,0.47955 z m 0.58291,0.40514 c -0.14469,0.11576 -0.26045,0.21084 -0.41341,0.21084 -0.11989,0 -0.26458,-0.0661 -0.26458,-0.25631 0,-0.0579 0.0124,-0.11576 0.0248,-0.17364 l 0.0827,-0.0124 c 0.45475,-0.062 0.71934,-0.29352 0.71934,-0.51676 0,-0.12402 -0.0868,-0.19017 -0.23152,-0.19017 -0.39687,0 -0.84335,0.47542 -0.84335,0.87643 0,0.17777 0.091,0.40101 0.3886,0.40101 0.28112,0 0.53744,-0.26045 0.57051,-0.30592 z m 0,0"
         style="fill:#231f20;fill-opacity:1;fill-rule:nonzero;stroke:none;stroke-width:0.352777"
         aria-label="e" />
      <path
         id="path290"
         d="m 103.91378,245.17717 h 0.41341 c 0.0248,0 0.0413,0 0.0496,-0.0207 l 0.0786,-0.19017 -0.0165,-0.0124 c -0.0248,0.0289 -0.0455,0.0537 -0.0992,0.0537 h -0.44235 l -0.23151,0.50023 c -0.004,0.0165 0,0.0289 0.0124,0.0289 0.23152,0.008 0.60359,0.10748 0.60359,0.44648 0,0.26045 -0.1571,0.37621 -0.29353,0.37621 -0.11575,0 -0.1695,-0.13229 -0.30592,-0.13229 -0.0868,0 -0.0868,0.062 -0.0868,0.0827 0,0.0785 0.0992,0.12815 0.26872,0.12815 0.33486,0 0.56637,-0.22324 0.56637,-0.50436 0,-0.19017 -0.0248,-0.25218 -0.11575,-0.35967 -0.12402,-0.15296 -0.32246,-0.19016 -0.49196,-0.2191 z m 0,0"
         style="fill:#231f20;fill-opacity:1;fill-rule:nonzero;stroke:none;stroke-width:0.352777"
         aria-label="5" />
      <path
         id="path291"
         d="m 96.95297,231.0757 c 0.10335,-0.25218 0.29765,-0.46715 0.44648,-0.46715 0.0703,0 0.0992,0.0496 0.0992,0.11162 0,0.0207 -0.0124,0.35967 -0.59531,0.47956 z m 0.58291,0.40515 c -0.1447,0.11575 -0.26045,0.21084 -0.41341,0.21084 -0.11989,0 -0.26459,-0.0661 -0.26459,-0.25632 0,-0.0579 0.0124,-0.11575 0.0248,-0.17363 l 0.0827,-0.0124 c 0.45475,-0.062 0.71933,-0.29352 0.71933,-0.51677 0,-0.12402 -0.0868,-0.19017 -0.23151,-0.19017 -0.39687,0 -0.84336,0.47543 -0.84336,0.87644 0,0.17776 0.091,0.40101 0.38861,0.40101 0.28112,0 0.53743,-0.26045 0.57051,-0.30593 z m 0,0"
         style="fill:#231f20;fill-opacity:1;fill-rule:nonzero;stroke:none;stroke-width:0.352777"
         aria-label="e" />
      <path
         id="path292"
         d="m 98.85053,232.20328 -0.0248,-0.0124 c -0.0827,0.13642 -0.12402,0.14055 -0.20257,0.14055 H 98.1188 l 0.35554,-0.37207 c 0.091,-0.0992 0.26871,-0.29352 0.26871,-0.51676 0,-0.23564 -0.19017,-0.38034 -0.38447,-0.38034 -0.18604,0 -0.38447,0.0992 -0.44648,0.42168 l 0.0455,0.008 c 0.0455,-0.11162 0.10749,-0.27285 0.30179,-0.27285 0.24805,0 0.30179,0.1943 0.30179,0.30179 0,0.15709 -0.0909,0.34726 -0.27698,0.5457 l -0.37621,0.40101 v 0.0248 h 0.82682 z m 0,0"
         style="fill:#231f20;fill-opacity:1;fill-rule:nonzero;stroke:none;stroke-width:0.352777"
         aria-label="2" />
      <path
         id="path293"
         d="m 103.94582,238.51608 c 0.10335,-0.25218 0.29766,-0.46716 0.44649,-0.46716 0.0703,0 0.0992,0.0496 0.0992,0.11162 0,0.0207 -0.0124,0.35967 -0.59531,0.47956 z m 0.58291,0.40514 c -0.14469,0.11575 -0.26045,0.21084 -0.41341,0.21084 -0.11989,0 -0.26458,-0.0662 -0.26458,-0.25632 0,-0.0579 0.0124,-0.11575 0.0248,-0.17363 l 0.0827,-0.0124 c 0.45475,-0.062 0.71933,-0.29352 0.71933,-0.51676 0,-0.12402 -0.0868,-0.19017 -0.23151,-0.19017 -0.39687,0 -0.84335,0.47542 -0.84335,0.87643 0,0.17777 0.0909,0.40101 0.3886,0.40101 0.28112,0 0.53744,-0.26045 0.57051,-0.30592 z m 0,0"
         style="fill:#231f20;fill-opacity:1;fill-rule:nonzero;stroke:none;stroke-width:0.352777"
         aria-label="e" />
      <path
         id="path294"
         d="m 105.23153,239.23335 c 0.14883,-0.004 0.19844,0.008 0.27699,0.0455 0.13642,0.0703 0.16123,0.22738 0.16123,0.28112 0,0.1571 -0.0868,0.3266 -0.28526,0.3266 -0.12402,0 -0.20257,-0.11989 -0.30179,-0.11989 -0.0331,0 -0.0827,0.0165 -0.0827,0.0744 0,0.11162 0.18604,0.11989 0.23564,0.11989 0.33073,0 0.58705,-0.18603 0.58705,-0.48783 0,-0.27698 -0.1819,-0.35139 -0.26872,-0.3886 0.13643,-0.091 0.19431,-0.1819 0.19431,-0.29766 0,-0.0868 -0.0579,-0.28525 -0.33073,-0.28525 -0.14056,0 -0.3266,0.0661 -0.41342,0.34313 l 0.0331,0.008 c 0.0289,-0.0579 0.11989,-0.22324 0.31006,-0.22324 0.15709,0 0.23564,0.11162 0.23564,0.21911 0,0.1943 -0.16123,0.29766 -0.3514,0.35553 z m 0,0"
         style="fill:#231f20;fill-opacity:1;fill-rule:nonzero;stroke:none;stroke-width:0.352777"
         aria-label="3" />
      <path
         id="path295"
         d="m 110.61311,242.66053 c 0.10336,-0.25218 0.29766,-0.46716 0.44649,-0.46716 0.0703,0 0.0992,0.0496 0.0992,0.11162 0,0.0207 -0.0124,0.35967 -0.59531,0.47956 z m 0.58291,0.40514 c -0.14469,0.11576 -0.26044,0.21084 -0.41341,0.21084 -0.11989,0 -0.26458,-0.0661 -0.26458,-0.25632 0,-0.0579 0.0124,-0.11575 0.0248,-0.17363 l 0.0827,-0.0124 c 0.45476,-0.062 0.71934,-0.29352 0.71934,-0.51676 0,-0.12403 -0.0868,-0.19017 -0.23151,-0.19017 -0.39688,0 -0.84336,0.47542 -0.84336,0.87643 0,0.17777 0.0909,0.40101 0.38861,0.40101 0.28112,0 0.53743,-0.26045 0.5705,-0.30592 z m 0,0"
         style="fill:#231f20;fill-opacity:1;fill-rule:nonzero;stroke:none;stroke-width:0.352777"
         aria-label="e" />
      <path
         id="path296"
         d="m 112.43626,243.58967 h -0.21911 v -0.94258 h -0.091 l -0.66559,0.94258 v 0.13229 h 0.59531 v 0.35553 h 0.16123 v -0.35553 h 0.21911 z m -0.38034,0 h -0.5085 l 0.50023,-0.71934 h 0.008 z m 0,0"
         style="fill:#231f20;fill-opacity:1;fill-rule:nonzero;stroke:none;stroke-width:0.352777"
         aria-label="4" />
      <path
         id="path297"
         d="m 83.33313,242.74528 c 0.10335,-0.25219 0.29766,-0.46716 0.44648,-0.46716 0.0703,0 0.0992,0.0496 0.0992,0.11162 0,0.0207 -0.0124,0.35967 -0.59531,0.47956 z m 0.58291,0.40514 c -0.1447,0.11575 -0.26045,0.21084 -0.41341,0.21084 -0.11989,0 -0.26459,-0.0661 -0.26459,-0.25632 0,-0.0579 0.0124,-0.11575 0.0248,-0.17363 l 0.0827,-0.0124 c 0.45475,-0.062 0.71933,-0.29352 0.71933,-0.51676 0,-0.12403 -0.0868,-0.19017 -0.23151,-0.19017 -0.39687,0 -0.84336,0.47542 -0.84336,0.87643 0,0.17777 0.0909,0.40101 0.38861,0.40101 0.28112,0 0.53743,-0.26045 0.57051,-0.30593 z m 0,0"
         style="fill:#231f20;fill-opacity:1;fill-rule:nonzero;stroke:none;stroke-width:0.352777"
         aria-label="e" />
      <path
         id="path298"
         d="m 84.40283,244.16224 h 0.58704 v -0.0331 c -0.16123,0 -0.20257,-0.0207 -0.20257,-0.12402 v -1.26918 l -0.0165,-0.004 -0.38034,0.19017 v 0.0331 c 0.11989,-0.0496 0.11989,-0.0496 0.14469,-0.0496 0.0703,0 0.0703,0.0579 0.0703,0.0992 v 0.95911 c 0,0.1571 -0.0786,0.16123 -0.20257,0.16537 z m 0,0"
         style="fill:#231f20;fill-opacity:1;fill-rule:nonzero;stroke:none;stroke-width:0.352777"
         aria-label="1" />
      <path
         id="path503"
         d="m 97.70744,254.44482 c -0.43408,0.26045 -0.69453,0.68626 -0.69453,1.16995 0,0.38861 0.0909,0.59118 0.23151,0.79789 0.10749,0.1571 0.29352,0.35553 0.45476,0.44235 l 0.0372,-0.0455 c -0.47956,-0.30592 -0.47956,-0.92604 -0.47956,-1.21543 0,-0.7152 0.26872,-0.93431 0.47956,-1.10381 z m 0.77825,1.5627 c 0,0.0827 -0.008,0.11988 -0.0951,0.16122 -0.0248,0.0124 -0.11576,0.0496 -0.17777,0.0496 -0.10335,0 -0.18604,-0.0868 -0.18604,-0.2191 v -0.004 c 0,-0.0992 0.0331,-0.25632 0.45889,-0.39688 z m 0.43822,0.16122 c -0.0331,0.0248 -0.0703,0.0537 -0.12816,0.0537 -0.0827,0 -0.0827,-0.0827 -0.0827,-0.16537 v -0.54983 c 0,-0.1695 0,-0.45062 -0.41755,-0.45062 -0.33073,0 -0.46302,0.19844 -0.46302,0.31419 0,0.0455 0.0331,0.12403 0.12402,0.12403 0.0703,0 0.12403,-0.062 0.12403,-0.12403 0,-0.0248 -0.0124,-0.0661 -0.0124,-0.10749 0,-0.0868 0.10748,-0.14056 0.19843,-0.14056 0.0868,0 0.21911,0.0331 0.21911,0.23565 v 0.17363 c -0.45888,0.17777 -0.70693,0.27285 -0.70693,0.55811 0,0.19017 0.14883,0.29352 0.30179,0.29352 0.15296,0 0.30179,-0.11162 0.40928,-0.20671 0.0124,0.20258 0.13229,0.20671 0.1819,0.20671 0.0455,0 0.13229,-0.004 0.25218,-0.14056 z m 0.0103,0.68627 c 0.43822,-0.26045 0.69866,-0.68213 0.69866,-1.16996 0,-0.3886 -0.0951,-0.59118 -0.23151,-0.79375 -0.10748,-0.16123 -0.29352,-0.35966 -0.45888,-0.44648 l -0.0331,0.0455 c 0.47955,0.31006 0.47955,0.92605 0.47955,1.21543 0,0.71521 -0.27285,0.93845 -0.47955,1.10381 z m 0,0"
         style="fill:#231f20;fill-opacity:1;fill-rule:nonzero;stroke:none;stroke-width:0.352777"
         aria-label="(a)" />
      <path
         id="path504"
         d="m 136.86578,254.37454 c -0.43409,0.26045 -0.69453,0.68626 -0.69453,1.16995 0,0.38861 0.091,0.59118 0.23151,0.79789 0.10748,0.15709 0.29352,0.35553 0.45475,0.44235 l 0.0372,-0.0455 c -0.47955,-0.30592 -0.47955,-0.92604 -0.47955,-1.21543 0,-0.7152 0.26872,-0.93431 0.47955,-1.1038 z m 0.61185,1.00045 c 0.0124,-0.16122 0.1943,-0.21083 0.28525,-0.21083 0.25631,0 0.35967,0.28938 0.35967,0.55397 0,0.18603 -0.0455,0.50436 -0.37207,0.50436 -0.0703,0 -0.27285,-0.0372 -0.27285,-0.13643 z m -0.23565,0.75655 c 0,0.10335 0.29766,0.1819 0.43822,0.1819 0.52089,0 0.69039,-0.44648 0.69039,-0.7028 0,-0.30179 -0.16123,-0.62425 -0.50436,-0.62425 -0.21497,0 -0.3638,0.16123 -0.38034,0.22738 h -0.008 v -0.85163 l -0.0124,-0.004 c -0.13642,0.0455 -0.27285,0.0868 -0.40928,0.12402 v 0.0413 c 0.0165,0 0.0455,0 0.062,0 0.12403,0 0.12403,0.0579 0.12403,0.1447 z m 1.17719,0.65319 c 0.43822,-0.26045 0.69867,-0.68213 0.69867,-1.16996 0,-0.3886 -0.0951,-0.59117 -0.23151,-0.79375 -0.10749,-0.16123 -0.29353,-0.35966 -0.45889,-0.44648 l -0.0331,0.0455 c 0.47956,0.31005 0.47956,0.92604 0.47956,1.21543 0,0.7152 -0.27285,0.93844 -0.47956,1.1038 z m 0,0"
         style="fill:#231f20;fill-opacity:1;fill-rule:nonzero;stroke:none;stroke-width:0.352777"
         aria-label="(b)" />
    </g>
  </g>
</svg>
