<?xml version="1.0" encoding="UTF-8" standalone="no"?>
<!-- Created with Inkscape (http://www.inkscape.org/) -->

<svg
   width="32.979141mm"
   height="28.709881mm"
   viewBox="0 0 32.979141 28.709881"
   version="1.1"
   id="svg1"
   inkscape:version="1.3.2 (091e20ef0f, 2023-11-25)"
   sodipodi:docname="6a.svg"
   xmlns:inkscape="http://www.inkscape.org/namespaces/inkscape"
   xmlns:sodipodi="http://sodipodi.sourceforge.net/DTD/sodipodi-0.dtd"
   xmlns="http://www.w3.org/2000/svg"
   xmlns:svg="http://www.w3.org/2000/svg">
  <sodipodi:namedview
     id="namedview1"
     pagecolor="#ffffff"
     bordercolor="#000000"
     borderopacity="0.25"
     inkscape:showpageshadow="2"
     inkscape:pageopacity="0.0"
     inkscape:pagecheckerboard="0"
     inkscape:deskcolor="#d1d1d1"
     inkscape:document-units="mm"
     inkscape:zoom="4.6609428"
     inkscape:cx="96.225168"
     inkscape:cy="39.476992"
     inkscape:window-width="2560"
     inkscape:window-height="1600"
     inkscape:window-x="0"
     inkscape:window-y="0"
     inkscape:window-maximized="1"
     inkscape:current-layer="layer1">
    <inkscape:page
       x="0"
       y="0"
       width="32.979141"
       height="28.709881"
       id="page1"
       margin="5.0000005"
       bleed="0" />
  </sodipodi:namedview>
  <defs
     id="defs1"><clipPath
   clipPathUnits="userSpaceOnUse"
   id="clipPath673">
  <path
     d="m 101,623.59 h 76.699 v 62.414 H 101 Z"
     transform="translate(-140.544,-654.91002)"
     id="path673" />
</clipPath>
<clipPath
   clipPathUnits="userSpaceOnUse"
   id="clipPath671">
  <path
     d="m 101,623.59 h 76.699 v 62.414 H 101 Z"
     transform="translate(-170.74,-673.12801)"
     id="path671" />
</clipPath>
<clipPath
   clipPathUnits="userSpaceOnUse"
   id="clipPath669">
  <path
     d="m 101,623.59 h 76.699 v 62.414 H 101 Z"
     transform="translate(-170.74,-636.69001)"
     id="path669" />
</clipPath>
<clipPath
   clipPathUnits="userSpaceOnUse"
   id="clipPath667">
  <path
     d="m 101,623.59 h 76.699 v 62.414 H 101 Z"
     transform="translate(-110.35,-673.12801)"
     id="path667" />
</clipPath>
<clipPath
   clipPathUnits="userSpaceOnUse"
   id="clipPath665">
  <path
     d="m 101,623.59 h 76.699 v 62.414 H 101 Z"
     transform="translate(-110.35,-636.69001)"
     id="path665" />
</clipPath>
1&quot; /&gt;5&quot; /&gt;2&quot; /&gt;4&quot; /&gt;3&quot; /&gt;</defs>
  <g
     inkscape:label="Layer 1"
     inkscape:groupmode="layer"
     id="layer1"
     transform="translate(-81.783327,-95.806256)">
    <rect
       style="fill:#ffffff;stroke-width:1;stroke-linecap:round;stroke-linejoin:round"
       id="rect1"
       width="32.979141"
       height="28.709881"
       x="81.783325"
       y="95.806259"
       transform="translate(-4.5833332e-7)" />
    <g
       id="g1">
      <path
         id="path663"
         d="m 87.312497,103.42224 21.304253,12.85452 m 0,-12.85452 -21.304253,12.85452"
         style="fill:none;stroke:#00adef;stroke-width:0.176389;stroke-linecap:butt;stroke-linejoin:miter;stroke-miterlimit:4;stroke-dasharray:none;stroke-opacity:1" />
      <path
         id="path664"
         d="M 0,0 C 0,-0.827 -0.671,-1.5 -1.5,-1.5 -2.328,-1.5 -3,-0.827 -3,0 -3,0.829 -2.328,1.5 -1.5,1.5 -0.671,1.5 0,0.829 0,0"
         style="fill:#231f20;fill-opacity:1;fill-rule:nonzero;stroke:none"
         transform="matrix(0.35277776,0,0,-0.35277776,87.841664,116.27747)"
         clip-path="url(#clipPath665)" />
      <path
         id="path666"
         d="M 0,0 C 0,-0.829 -0.671,-1.5 -1.5,-1.5 -2.328,-1.5 -3,-0.829 -3,0 -3,0.829 -2.328,1.5 -1.5,1.5 -0.671,1.5 0,0.829 0,0"
         style="fill:#231f20;fill-opacity:1;fill-rule:nonzero;stroke:none"
         transform="matrix(0.35277776,0,0,-0.35277776,87.841664,103.42295)"
         clip-path="url(#clipPath667)" />
      <path
         id="path668"
         d="M 0,0 C 0,-0.827 -0.672,-1.5 -1.5,-1.5 -2.328,-1.5 -3,-0.827 -3,0 -3,0.829 -2.328,1.5 -1.5,1.5 -0.672,1.5 0,0.829 0,0"
         style="fill:#231f20;fill-opacity:1;fill-rule:nonzero;stroke:none"
         transform="matrix(0.35277776,0,0,-0.35277776,109.14591,116.27747)"
         clip-path="url(#clipPath669)" />
      <path
         id="path670"
         d="M 0,0 C 0,-0.829 -0.672,-1.5 -1.5,-1.5 -2.328,-1.5 -3,-0.829 -3,0 -3,0.829 -2.328,1.5 -1.5,1.5 -0.672,1.5 0,0.829 0,0"
         style="fill:#231f20;fill-opacity:1;fill-rule:nonzero;stroke:none"
         transform="matrix(0.35277776,0,0,-0.35277776,109.14591,103.42295)"
         clip-path="url(#clipPath671)" />
      <path
         id="path672"
         d="m 0,0 c 0,-0.828 -0.672,-1.5 -1.499,-1.5 -0.828,0 -1.5,0.672 -1.5,1.5 0,0.827 0.672,1.5 1.5,1.5 C -0.672,1.5 0,0.827 0,0"
         style="fill:#231f20;fill-opacity:1;fill-rule:nonzero;stroke:none"
         transform="matrix(0.35277776,0,0,-0.35277776,98.493437,109.84985)"
         clip-path="url(#clipPath673)" />
      <path
         id="path674"
         d="m 87.701803,102.23666 h 0.587044 v -0.0331 c -0.161229,0 -0.20257,-0.0207 -0.20257,-0.12403 v -1.26917 l -0.01654,-0.004 -0.380338,0.19017 v 0.0331 c 0.119888,-0.0496 0.119888,-0.0496 0.144692,-0.0496 0.07028,0 0.07028,0.0579 0.07028,0.0992 v 0.95911 c 0,0.1571 -0.07855,0.16123 -0.202572,0.16537 z m 0,0"
         style="fill:#231f20;fill-opacity:1;fill-rule:nonzero;stroke:none;stroke-width:0.352777"
         aria-label="" />
      <path
         id="path675"
         d="m 87.731775,118.25532 h 0.413411 c 0.02479,0 0.04134,0 0.04961,-0.0207 l 0.07855,-0.19017 -0.01654,-0.0124 c -0.02479,0.0289 -0.04548,0.0537 -0.09922,0.0537 h -0.442352 l -0.23151,0.50023 c -0.0041,0.0165 0,0.0289 0.01241,0.0289 0.23151,0.008 0.60358,0.10749 0.60358,0.44648 0,0.26045 -0.157096,0.37621 -0.293523,0.37621 -0.115755,0 -0.169497,-0.13229 -0.305925,-0.13229 -0.08682,0 -0.08682,0.062 -0.08682,0.0827 0,0.0786 0.09922,0.12816 0.268716,0.12816 0.334865,0 0.566375,-0.22324 0.566375,-0.50436 0,-0.19017 -0.02479,-0.25219 -0.115755,-0.35967 -0.124023,-0.15296 -0.322461,-0.19017 -0.491961,-0.21911 z m 0,0"
         style="fill:#231f20;fill-opacity:1;fill-rule:nonzero;stroke:none;stroke-width:0.352777"
         aria-label="" />
      <path
         id="path676"
         d="m 109.76247,101.94727 -0.0248,-0.0124 c -0.0827,0.13643 -0.12402,0.14056 -0.20257,0.14056 h -0.50438 l 0.35554,-0.37207 c 0.091,-0.0992 0.26872,-0.29352 0.26872,-0.51676 0,-0.23565 -0.19017,-0.38034 -0.38448,-0.38034 -0.18603,0 -0.38447,0.0992 -0.44648,0.42168 l 0.0455,0.008 c 0.0455,-0.11162 0.10749,-0.27285 0.30179,-0.27285 0.24805,0 0.30179,0.1943 0.30179,0.30179 0,0.15709 -0.0909,0.34726 -0.27698,0.5457 l -0.37621,0.40101 v 0.0248 h 0.82683 z m 0,0"
         style="fill:#231f20;fill-opacity:1;fill-rule:nonzero;stroke:none;stroke-width:0.352777"
         aria-label="" />
      <path
         id="path677"
         d="m 109.65292,118.99946 h -0.21911 v -0.94258 h -0.0909 l -0.66559,0.94258 v 0.13229 h 0.59531 v 0.35554 h 0.16123 v -0.35554 h 0.21911 z m -0.38034,0 h -0.5085 l 0.50023,-0.71933 h 0.008 z m 0,0"
         style="fill:#231f20;fill-opacity:1;fill-rule:nonzero;stroke:none;stroke-width:0.352777"
         aria-label="" />
      <path
         id="path678"
         d="m 101.49941,110.38913 c 0.14883,-0.004 0.19844,0.008 0.27698,0.0455 0.13643,0.0703 0.16123,0.22738 0.16123,0.28112 0,0.15709 -0.0868,0.32659 -0.28525,0.32659 -0.12402,0 -0.20257,-0.11989 -0.30179,-0.11989 -0.0331,0 -0.0827,0.0165 -0.0827,0.0744 0,0.11162 0.18603,0.11989 0.23564,0.11989 0.33073,0 0.58705,-0.18604 0.58705,-0.48783 0,-0.27698 -0.1819,-0.3514 -0.26872,-0.3886 0.13643,-0.0909 0.1943,-0.1819 0.1943,-0.29766 0,-0.0868 -0.0579,-0.28526 -0.33073,-0.28526 -0.14056,0 -0.32659,0.0661 -0.41341,0.34314 l 0.0331,0.008 c 0.0289,-0.0579 0.11988,-0.22324 0.31005,-0.22324 0.1571,0 0.23565,0.11162 0.23565,0.21911 0,0.1943 -0.16123,0.29765 -0.3514,0.35553 z m 0,0"
         style="fill:#231f20;fill-opacity:1;fill-rule:nonzero;stroke:none;stroke-width:0.352777"
         aria-label="" />
    </g>
  </g>
</svg>
