<?xml version="1.0" encoding="UTF-8" standalone="no"?>
<!-- Created with Inkscape (http://www.inkscape.org/) -->

<svg
   width="36.262943mm"
   height="31.756809mm"
   viewBox="0 0 36.262943 31.756809"
   version="1.1"
   id="svg1"
   inkscape:version="1.3.2 (091e20ef0f, 2023-11-25)"
   sodipodi:docname="6c.svg"
   xmlns:inkscape="http://www.inkscape.org/namespaces/inkscape"
   xmlns:sodipodi="http://sodipodi.sourceforge.net/DTD/sodipodi-0.dtd"
   xmlns="http://www.w3.org/2000/svg"
   xmlns:svg="http://www.w3.org/2000/svg">
  <sodipodi:namedview
     id="namedview1"
     pagecolor="#ffffff"
     bordercolor="#000000"
     borderopacity="0.25"
     inkscape:showpageshadow="2"
     inkscape:pageopacity="0.0"
     inkscape:pagecheckerboard="0"
     inkscape:deskcolor="#d1d1d1"
     inkscape:document-units="mm"
     inkscape:zoom="9.3218855"
     inkscape:cx="83.08405"
     inkscape:cy="64.364661"
     inkscape:window-width="2560"
     inkscape:window-height="1600"
     inkscape:window-x="0"
     inkscape:window-y="0"
     inkscape:window-maximized="1"
     inkscape:current-layer="layer1">
    <inkscape:page
       x="0"
       y="0"
       width="36.262943"
       height="31.756809"
       id="page1"
       margin="5.0000005"
       bleed="0" />
  </sodipodi:namedview>
  <defs
     id="defs1"><clipPath
   clipPathUnits="userSpaceOnUse"
   id="clipPath959">
  <path
     d="m 101,552 h 84.001 v 67.805 H 101 Z"
     transform="translate(-152.11911,-603.37002)"
     id="path959" />
</clipPath>
<clipPath
   clipPathUnits="userSpaceOnUse"
   id="clipPath957">
  <path
     d="m 101,552 h 84.001 v 67.805 H 101 Z"
     transform="translate(-132.4701,-603.37002)"
     id="path957" />
</clipPath>
<clipPath
   clipPathUnits="userSpaceOnUse"
   id="clipPath955">
  <path
     d="m 101,552 h 84.001 v 67.805 H 101 Z"
     transform="translate(-151.6621,-571.53801)"
     id="path955" />
</clipPath>
<clipPath
   clipPathUnits="userSpaceOnUse"
   id="clipPath953">
  <path
     d="m 101,552 h 84.001 v 67.805 H 101 Z"
     transform="translate(-166.4361,-611.89902)"
     id="path953" />
</clipPath>
<clipPath
   clipPathUnits="userSpaceOnUse"
   id="clipPath951">
  <path
     d="m 101,552 h 84.001 v 67.805 H 101 Z"
     transform="translate(-173.442,-597.73501)"
     id="path951" />
</clipPath>
<clipPath
   clipPathUnits="userSpaceOnUse"
   id="clipPath949">
  <path
     d="m 101,552 h 84.001 v 67.805 H 101 Z"
     transform="translate(-162.324,-582.35001)"
     id="path949" />
</clipPath>
<clipPath
   clipPathUnits="userSpaceOnUse"
   id="clipPath947">
  <path
     d="m 101,552 h 84.001 v 67.805 H 101 Z"
     transform="translate(-144.961,-582.35001)"
     id="path947" />
</clipPath>
<clipPath
   clipPathUnits="userSpaceOnUse"
   id="clipPath945">
  <path
     d="m 101,552 h 84.001 v 67.805 H 101 Z"
     transform="translate(-117.24,-562.85502)"
     id="path945" />
</clipPath>
<clipPath
   clipPathUnits="userSpaceOnUse"
   id="clipPath943">
  <path
     d="m 101,552 h 84.001 v 67.805 H 101 Z"
     transform="translate(-117.24,-582.35001)"
     id="path943" />
</clipPath>
<clipPath
   clipPathUnits="userSpaceOnUse"
   id="clipPath941">
  <path
     d="m 101,552 h 84.001 v 67.805 H 101 Z"
     transform="translate(-117.24,-603.37002)"
     id="path941" />
</clipPath>
<clipPath
   clipPathUnits="userSpaceOnUse"
   id="clipPath935">
  <path
     d="m 101,552 h 84.001 v 67.805 H 101 Z"
     transform="translate(-150.151,-571.53601)"
     id="path935" />
</clipPath>
1&quot; /&gt;9&quot; /&gt;2&quot; /&gt;3&quot; /&gt;4&quot; /&gt;5&quot; /&gt;6&quot; /&gt;7&quot; /&gt;8&quot; /&gt;10&quot; /&gt;</defs>
  <g
     inkscape:label="Layer 1"
     inkscape:groupmode="layer"
     id="layer1"
     transform="translate(-79.931246,-92.895833)">
    <rect
       style="fill:#ffffff;stroke-width:1;stroke-linecap:round;stroke-linejoin:round"
       id="rect1"
       width="36.262943"
       height="31.756805"
       x="79.931244"
       y="92.895836" />
    <g
       id="g1">
      <path
         id="path934"
         d="m 0,0 10.662,10.812 h -45.084 l 15.23,21.02 12.491,-21.02 m 7.158,21.02 H -34.422 V -8.683 M 14.774,40.361 0.457,31.832 21.78,26.197 Z"
         style="fill:none;stroke:#00adef;stroke-width:0.5;stroke-linecap:butt;stroke-linejoin:miter;stroke-miterlimit:4;stroke-dasharray:none;stroke-opacity:1"
         transform="matrix(0.35277776,0,0,-0.35277776,100.19309,113.30837)"
         clip-path="url(#clipPath935)" />
      <path
         id="path936"
         d="m 88.463851,100.79385 h 0.587044 v -0.0331 c -0.161229,0 -0.20257,-0.0207 -0.20257,-0.12403 v -1.269173 l -0.01654,-0.0041 -0.380339,0.190169 v 0.03307 c 0.119888,-0.04961 0.119888,-0.04961 0.144693,-0.04961 0.07028,0 0.07028,0.05788 0.07028,0.09922 v 0.959124 c 0,0.15709 -0.07855,0.16122 -0.202573,0.16536 z m 0,0"
         style="fill:#231f20;fill-opacity:1;fill-rule:nonzero;stroke:none;stroke-width:0.352777"
         aria-label="" />
      <path
         id="path937"
         d="m 88.44628,119.65264 c 0.537435,-0.0331 0.847495,-0.43408 0.847495,-0.8847 0,-0.35139 -0.202573,-0.59117 -0.463021,-0.59117 -0.276987,0 -0.446484,0.22737 -0.446484,0.50849 0,0.17363 0.09922,0.42168 0.384471,0.42168 0.103354,0 0.214974,-0.0413 0.31006,-0.11989 l 0.0041,0.008 c -0.01241,0.0496 -0.128156,0.5333 -0.640786,0.61598 z m 0.640789,-0.79788 c 0,0.0372 -0.0041,0.0662 -0.03307,0.0868 -0.04548,0.0331 -0.132291,0.0744 -0.202573,0.0744 -0.223242,0 -0.272851,-0.24805 -0.272851,-0.40928 0,-0.17363 0.04961,-0.37207 0.227377,-0.37207 0.28112,0 0.28112,0.41342 0.28112,0.53744 z m 0,0"
         style="fill:#231f20;fill-opacity:1;fill-rule:nonzero;stroke:none;stroke-width:0.352777"
         aria-label="" />
      <path
         id="path938"
         d="m 94.572006,100.50446 -0.02479,-0.0124 c -0.08268,0.13643 -0.124024,0.14056 -0.202571,0.14056 h -0.504362 l 0.355534,-0.37207 c 0.09095,-0.0992 0.268716,-0.29352 0.268716,-0.516762 0,-0.235646 -0.190169,-0.380339 -0.384471,-0.380339 -0.186037,0 -0.384474,0.09922 -0.446484,0.42168 l 0.04547,0.0083 c 0.04548,-0.111623 0.107487,-0.272852 0.301792,-0.272852 0.248047,0 0.301789,0.194302 0.301789,0.301789 0,0.157097 -0.09095,0.347264 -0.276984,0.545694 l -0.376206,0.40101 v 0.0248 h 0.826823 z m 0,0"
         style="fill:#231f20;fill-opacity:1;fill-rule:nonzero;stroke:none;stroke-width:0.352777"
         aria-label="" />
      <path
         id="path939"
         d="m 100.82175,100.09518 c 0.14883,-0.004 0.19844,0.008 0.27699,0.0455 0.13642,0.0703 0.16123,0.22737 0.16123,0.28112 0,0.15709 -0.0868,0.32659 -0.28525,0.32659 -0.12403,0 -0.20258,-0.11989 -0.3018,-0.11989 -0.0331,0 -0.0827,0.0165 -0.0827,0.0744 0,0.11162 0.18604,0.11989 0.23565,0.11989 0.33073,0 0.58704,-0.18604 0.58704,-0.48783 0,-0.27698 -0.1819,-0.351398 -0.26872,-0.388607 0.13643,-0.09095 0.19431,-0.181901 0.19431,-0.297656 0,-0.08682 -0.0579,-0.285253 -0.33073,-0.285253 -0.14056,0 -0.3266,0.06615 -0.41341,0.343131 l 0.0331,0.0083 c 0.0289,-0.05788 0.11989,-0.223243 0.31006,-0.223243 0.15709,0 0.23564,0.111623 0.23564,0.21911 0,0.194302 -0.16123,0.297658 -0.3514,0.355538 z m 0,0"
         style="fill:#231f20;fill-opacity:1;fill-rule:nonzero;stroke:none;stroke-width:0.352777"
         aria-label="" />
      <path
         id="path940"
         d="M 0,0 C 0,-0.829 -0.672,-1.5 -1.5,-1.5 -2.328,-1.5 -3,-0.829 -3,0 -3,0.829 -2.328,1.5 -1.5,1.5 -0.672,1.5 0,0.829 0,0"
         style="fill:#231f20;fill-opacity:1;fill-rule:nonzero;stroke:none"
         transform="matrix(0.35277776,0,0,-0.35277776,88.582824,102.07804)"
         clip-path="url(#clipPath941)" />
      <path
         id="path942"
         d="M 0,0 C 0,-0.828 -0.672,-1.5 -1.5,-1.5 -2.328,-1.5 -3,-0.828 -3,0 -3,0.829 -2.328,1.5 -1.5,1.5 -0.672,1.5 0,0.829 0,0"
         style="fill:#231f20;fill-opacity:1;fill-rule:nonzero;stroke:none"
         transform="matrix(0.35277776,0,0,-0.35277776,88.582824,109.49343)"
         clip-path="url(#clipPath943)" />
      <path
         id="path944"
         d="M 0,0 C 0,-0.829 -0.672,-1.5 -1.5,-1.5 -2.328,-1.5 -3,-0.829 -3,0 -3,0.828 -2.328,1.5 -1.5,1.5 -0.672,1.5 0,0.828 0,0"
         style="fill:#231f20;fill-opacity:1;fill-rule:nonzero;stroke:none"
         transform="matrix(0.35277776,0,0,-0.35277776,88.582824,116.37083)"
         clip-path="url(#clipPath945)" />
      <path
         id="path946"
         d="M 0,0 C 0,-0.828 -0.672,-1.5 -1.5,-1.5 -2.328,-1.5 -3,-0.828 -3,0 -3,0.829 -2.328,1.5 -1.5,1.5 -0.672,1.5 0,0.829 0,0"
         style="fill:#231f20;fill-opacity:1;fill-rule:nonzero;stroke:none"
         transform="matrix(0.35277776,0,0,-0.35277776,98.362175,109.49343)"
         clip-path="url(#clipPath947)" />
      <path
         id="path948"
         d="M 0,0 C 0,-0.828 -0.672,-1.5 -1.5,-1.5 -2.328,-1.5 -3,-0.828 -3,0 -3,0.829 -2.328,1.5 -1.5,1.5 -0.672,1.5 0,0.829 0,0"
         style="fill:#231f20;fill-opacity:1;fill-rule:nonzero;stroke:none"
         transform="matrix(0.35277776,0,0,-0.35277776,104.48746,109.49343)"
         clip-path="url(#clipPath949)" />
      <path
         id="path950"
         d="M 0,0 C 0,-0.829 -0.672,-1.5 -1.5,-1.5 -2.328,-1.5 -3,-0.829 -3,0 -3,0.829 -2.328,1.5 -1.5,1.5 -0.672,1.5 0,0.829 0,0"
         style="fill:#231f20;fill-opacity:1;fill-rule:nonzero;stroke:none"
         transform="matrix(0.35277776,0,0,-0.35277776,108.40964,104.06594)"
         clip-path="url(#clipPath951)" />
      <path
         id="path952"
         d="M 0,0 C 0,-0.829 -0.672,-1.5 -1.5,-1.5 -2.328,-1.5 -3,-0.829 -3,0 -3,0.828 -2.328,1.5 -1.5,1.5 -0.672,1.5 0,0.828 0,0"
         style="fill:#231f20;fill-opacity:1;fill-rule:nonzero;stroke:none"
         transform="matrix(0.35277776,0,0,-0.35277776,105.93811,99.069199)"
         clip-path="url(#clipPath953)" />
      <path
         id="path954"
         d="M 0,0 C 0,-0.829 -0.672,-1.5 -1.5,-1.5 -2.328,-1.5 -3,-0.829 -3,0 -3,0.829 -2.328,1.5 -1.5,1.5 -0.672,1.5 0,0.829 0,0"
         style="fill:#231f20;fill-opacity:1;fill-rule:nonzero;stroke:none"
         transform="matrix(0.35277776,0,0,-0.35277776,100.72617,113.30766)"
         clip-path="url(#clipPath955)" />
      <path
         id="path956"
         d="m 0,0 c 0,-0.829 -0.671,-1.5 -1.5,-1.5 -0.828,0 -1.499,0.671 -1.499,1.5 0,0.829 0.671,1.5 1.499,1.5 C -0.671,1.5 0,0.829 0,0"
         style="fill:#231f20;fill-opacity:1;fill-rule:nonzero;stroke:none"
         transform="matrix(0.35277776,0,0,-0.35277776,93.955664,102.07804)"
         clip-path="url(#clipPath957)" />
      <path
         id="path958"
         d="M 0,0 C 0,-0.829 -0.672,-1.5 -1.5,-1.5 -2.328,-1.5 -3,-0.829 -3,0 -3,0.829 -2.328,1.5 -1.5,1.5 -0.672,1.5 0,0.829 0,0"
         style="fill:#231f20;fill-opacity:1;fill-rule:nonzero;stroke:none"
         transform="matrix(0.35277776,0,0,-0.35277776,100.8874,102.07804)"
         clip-path="url(#clipPath959)" />
      <path
         id="path960"
         d="m 108.58769,98.838411 h -0.21911 v -0.942579 h -0.0909 l -0.66559,0.942579 v 0.132291 h 0.59531 v 0.355534 h 0.16123 v -0.355534 h 0.21911 z m -0.38034,0 h -0.50849 l 0.50022,-0.719336 h 0.008 z m 0,0"
         style="fill:#231f20;fill-opacity:1;fill-rule:nonzero;stroke:none;stroke-width:0.352777"
         aria-label="" />
      <path
         id="path961"
         d="m 110.65268,104.64891 h 0.41341 c 0.0248,0 0.0413,0 0.0496,-0.0207 l 0.0785,-0.19017 -0.0165,-0.0124 c -0.0248,0.0289 -0.0455,0.0537 -0.0992,0.0537 h -0.44235 l -0.23151,0.50023 c -0.004,0.0165 0,0.0289 0.0124,0.0289 0.23151,0.008 0.60358,0.10749 0.60358,0.44648 0,0.26045 -0.1571,0.37621 -0.29352,0.37621 -0.11576,0 -0.1695,-0.1323 -0.30593,-0.1323 -0.0868,0 -0.0868,0.062 -0.0868,0.0827 0,0.0785 0.0992,0.12816 0.26872,0.12816 0.33486,0 0.56637,-0.22325 0.56637,-0.50437 0,-0.19017 -0.0248,-0.25218 -0.11576,-0.35967 -0.12402,-0.15296 -0.32246,-0.19017 -0.49196,-0.2191 z m 0,0"
         style="fill:#231f20;fill-opacity:1;fill-rule:nonzero;stroke:none;stroke-width:0.352777"
         aria-label="" />
      <path
         id="path962"
         d="m 100.01354,107.65441 c -0.512635,0.0165 -0.872304,0.40101 -0.872304,0.83096 0,0.44648 0.219109,0.64492 0.467156,0.64492 0.376203,0 0.454748,-0.33486 0.454748,-0.49196 0,-0.28112 -0.16536,-0.44235 -0.392738,-0.44235 -0.115755,0 -0.161229,0.0248 -0.276984,0.0951 0.04134,-0.26046 0.248047,-0.54571 0.624252,-0.60359 z m -0.429953,0.63666 c 0.223243,0 0.289388,0.21497 0.289388,0.42994 0,0.23978 -0.09922,0.3514 -0.23151,0.3514 -0.161232,0 -0.301792,-0.15709 -0.301792,-0.51263 0,-0.12816 0.02066,-0.17776 0.04134,-0.19844 0.05375,-0.0496 0.128159,-0.0703 0.202573,-0.0703 z m 0,0"
         style="fill:#231f20;fill-opacity:1;fill-rule:nonzero;stroke:none;stroke-width:0.352777"
         aria-label="" />
      <path
         id="path963"
         d="m 107.39086,109.20677 h -0.78548 l -0.0331,0.0951 -0.091,0.21498 0.0372,0.0165 c 0.0703,-0.10748 0.10749,-0.16949 0.24392,-0.16949 h 0.45888 l -0.41754,1.2609 h 0.13642 l 0.45062,-1.38493 z m 0,0"
         style="fill:#231f20;fill-opacity:1;fill-rule:nonzero;stroke:none;stroke-width:0.352777"
         aria-label="" />
      <path
         id="path964"
         d="m 100.78765,115.82445 c 0.23978,0.17364 0.33073,0.23978 0.33073,0.39275 0,0.14882 -0.0992,0.23977 -0.23151,0.23977 -0.17364,0 -0.26872,-0.13642 -0.26872,-0.30179 0,-0.19017 0.0992,-0.27285 0.1695,-0.33073 z m -0.33073,0.3514 c 0,0.16537 0.13643,0.339 0.40101,0.339 0.3514,0 0.42168,-0.23564 0.42168,-0.34726 0,-0.14056 -0.0455,-0.26459 -0.33073,-0.46716 0.11575,-0.062 0.28525,-0.14883 0.28525,-0.34313 0,-0.16123 -0.13229,-0.30179 -0.37207,-0.30179 -0.1819,0 -0.39274,0.11575 -0.39274,0.32659 0,0.17364 0.0827,0.24392 0.26045,0.40101 -0.18603,0.1447 -0.27285,0.21084 -0.27285,0.39274 z m 0.1695,-0.84749 c 0,-0.10335 0.0661,-0.21497 0.22324,-0.21497 0.16537,0 0.23978,0.11575 0.23978,0.23151 0,0.18603 -0.11989,0.26458 -0.19844,0.31832 -0.0786,-0.0496 -0.26458,-0.1695 -0.26458,-0.33486 z m 0,0"
         style="fill:#231f20;fill-opacity:1;fill-rule:nonzero;stroke:none;stroke-width:0.352777"
         aria-label="" />
      <path
         id="path965"
         d="m 84.943655,110.68265 h 0.587044 v -0.0331 c -0.161232,0 -0.202573,-0.0207 -0.202573,-0.12402 v -1.26917 l -0.01654,-0.004 -0.380338,0.19017 v 0.0331 c 0.119891,-0.0496 0.119891,-0.0496 0.144695,-0.0496 0.07028,0 0.07028,0.0579 0.07028,0.0992 v 0.95912 c 0,0.15709 -0.07855,0.16123 -0.20257,0.16536 z m 1.339453,-1.37666 c 0.272851,0 0.276984,0.5333 0.276984,0.67799 0,0.16537 -0.0041,0.67386 -0.276984,0.67386 -0.272852,0 -0.276987,-0.50436 -0.276987,-0.67386 0,-0.14469 0.0041,-0.67799 0.276987,-0.67799 z m 0,-0.0537 c -0.388607,0 -0.479558,0.47956 -0.479558,0.73174 0,0.25218 0.09095,0.72761 0.479558,0.72761 0.388606,0 0.479557,-0.47543 0.479557,-0.72761 0,-0.25218 -0.09095,-0.73174 -0.479557,-0.73174 z m 0,0"
         style="fill:#231f20;fill-opacity:1;fill-rule:nonzero;stroke:none;stroke-width:0.352777"
         aria-label="" />
    </g>
  </g>
</svg>
