<?xml version="1.0" encoding="UTF-8" standalone="no"?>
<!-- Created with Inkscape (http://www.inkscape.org/) -->

<svg
   width="69.515739mm"
   height="40.063019mm"
   viewBox="0 0 69.515739 40.063019"
   version="1.1"
   id="svg1"
   inkscape:version="1.3.2 (091e20ef0f, 2023-11-25)"
   sodipodi:docname="8.svg"
   xmlns:inkscape="http://www.inkscape.org/namespaces/inkscape"
   xmlns:sodipodi="http://sodipodi.sourceforge.net/DTD/sodipodi-0.dtd"
   xmlns="http://www.w3.org/2000/svg"
   xmlns:svg="http://www.w3.org/2000/svg">
  <sodipodi:namedview
     id="namedview1"
     pagecolor="#ffffff"
     bordercolor="#000000"
     borderopacity="0.25"
     inkscape:showpageshadow="2"
     inkscape:pageopacity="0.0"
     inkscape:pagecheckerboard="0"
     inkscape:deskcolor="#d1d1d1"
     inkscape:document-units="mm"
     inkscape:zoom="2.8926302"
     inkscape:cx="178.21151"
     inkscape:cy="72.598288"
     inkscape:window-width="2560"
     inkscape:window-height="1440"
     inkscape:window-x="2560"
     inkscape:window-y="0"
     inkscape:window-maximized="1"
     inkscape:current-layer="layer1" />
  <defs
     id="defs1"><clipPath
   clipPathUnits="userSpaceOnUse"
   id="clipPath426">
  <path
     d="m 369.06,285.04 h 159.55 v 74.566 H 369.06 Z"
     transform="translate(-519.88741,-331.21731)"
     id="path426" />
</clipPath>
<clipPath
   clipPathUnits="userSpaceOnUse"
   id="clipPath424">
  <path
     d="m 369.06,285.04 h 159.55 v 74.566 H 369.06 Z"
     transform="translate(-472.44841,-307.95731)"
     id="path424" />
</clipPath>
<clipPath
   clipPathUnits="userSpaceOnUse"
   id="clipPath422">
  <path
     d="m 369.06,285.04 h 159.55 v 74.566 H 369.06 Z"
     transform="translate(-468.16301,-337.33831)"
     id="path422" />
</clipPath>
<clipPath
   clipPathUnits="userSpaceOnUse"
   id="clipPath420">
  <path
     d="m 369.06,285.04 h 159.55 v 74.566 H 369.06 Z"
     transform="translate(-402.36101,-343.76501)"
     id="path420" />
</clipPath>
<clipPath
   clipPathUnits="userSpaceOnUse"
   id="clipPath418">
  <path
     d="m 369.06,285.04 h 159.55 v 74.566 H 369.06 Z"
     transform="translate(-377.57001,-299.08001)"
     id="path418" />
</clipPath>
<clipPath
   clipPathUnits="userSpaceOnUse"
   id="clipPath416">
  <path
     d="m 369.06,285.04 h 159.55 v 74.566 H 369.06 Z"
     transform="translate(-427.15201,-299.08001)"
     id="path416" />
</clipPath>
<clipPath
   clipPathUnits="userSpaceOnUse"
   id="clipPath414">
  <path
     d="m 369.06,285.04 h 159.55 v 74.566 H 369.06 Z"
     transform="translate(-376.07001,-299.08001)"
     id="path414" />
</clipPath>
1&quot; /&gt;5&quot; /&gt;4&quot; /&gt;3&quot; /&gt;2&quot; /&gt;6&quot; /&gt;</defs>
  <g
     inkscape:label="Layer 1"
     inkscape:groupmode="layer"
     id="layer1"
     transform="translate(-56.1614,-161.92055)">
    <rect
       style="fill:#ffffff;stroke-width:1;stroke-linecap:round;stroke-linejoin:round"
       id="rect1"
       width="69.515739"
       height="40.063019"
       x="56.1614"
       y="161.92055" />
    <g
       id="g1">
      <path
         id="path413"
         d="M 0,0 24.791,44.685 49.582,0 90.593,38.258 M 94.879,8.877 24.791,44.685 M 49.582,0 c 0,-2.197 -11.1,-3.979 -24.791,-3.979 C 11.099,-3.979 0,-2.197 0,0 0,2.197 11.099,3.978 24.791,3.978 38.482,3.978 49.582,2.197 49.582,0 Z m 46.062,23.83 c 1.158,-8.029 0.815,-14.725 -0.765,-14.953 -1.581,-0.229 -3.804,6.096 -4.962,14.128 -1.158,8.03 -0.905,15.024 0.676,15.253 1.582,0.226 3.892,-6.398 5.051,-14.428 z m 4.556,-37.309 c -6.384,-1.56 -10.015,2.899 -10.489,8.713 -0.527,6.502 2.723,11.541 5.376,12.188 2.181,0.535 7.863,-2.321 10.393,-8.332 2.26,-5.379 1.1,-11.008 -5.28,-12.569 z m -0.381,72.942 c 6.051,-2.557 6.301,-8.301 3.211,-13.25 -3.456,-5.531 -9.071,-7.634 -11.586,-6.569 -2.07,0.872 -4.921,6.553 -3.364,12.886 1.393,5.668 5.687,9.49 11.739,6.933 z"
         style="fill:none;stroke:#00adef;stroke-width:0.5;stroke-linecap:butt;stroke-linejoin:miter;stroke-miterlimit:4;stroke-dasharray:none;stroke-opacity:1"
         transform="matrix(0.35277776,0,0,-0.35277776,64.368592,189.36023)"
         clip-path="url(#clipPath414)" />
      <path
         id="path415"
         d="M 0,0 C 0,-0.828 -0.672,-1.5 -1.5,-1.5 -2.329,-1.5 -3,-0.828 -3,0 -3,0.83 -2.329,1.5 -1.5,1.5 -0.672,1.5 0,0.83 0,0"
         style="fill:#231f20;fill-opacity:1;fill-rule:nonzero;stroke:none"
         transform="matrix(0.35277776,0,0,-0.35277776,82.389185,189.36023)"
         clip-path="url(#clipPath416)" />
      <path
         id="path417"
         d="M 0,0 C 0,-0.828 -0.671,-1.5 -1.5,-1.5 -2.329,-1.5 -3,-0.828 -3,0 -3,0.83 -2.329,1.5 -1.5,1.5 -0.671,1.5 0,0.83 0,0"
         style="fill:#231f20;fill-opacity:1;fill-rule:nonzero;stroke:none"
         transform="matrix(0.35277776,0,0,-0.35277776,64.897758,189.36023)"
         clip-path="url(#clipPath418)" />
      <path
         id="path419"
         d="M 0,0 C 0,-0.829 -0.671,-1.5 -1.5,-1.5 -2.329,-1.5 -3,-0.829 -3,0 -3,0.829 -2.329,1.5 -1.5,1.5 -0.671,1.5 0,0.829 0,0"
         style="fill:#231f20;fill-opacity:1;fill-rule:nonzero;stroke:none"
         transform="matrix(0.35277776,0,0,-0.35277776,73.64347,173.59636)"
         clip-path="url(#clipPath420)" />
      <path
         id="path421"
         d="M 0,0 C 0,-0.829 -0.672,-1.5 -1.5,-1.5 -2.328,-1.5 -3,-0.829 -3,0 -3,0.829 -2.328,1.5 -1.5,1.5 -0.672,1.5 0,0.829 0,0"
         style="fill:#231f20;fill-opacity:1;fill-rule:nonzero;stroke:none"
         transform="matrix(0.35277776,0,0,-0.35277776,96.856953,175.86356)"
         clip-path="url(#clipPath422)" />
      <path
         id="path423"
         d="M 0,0 C 0,-0.83 -0.673,-1.5 -1.5,-1.5 -2.328,-1.5 -3,-0.83 -3,0 -3,0.828 -2.328,1.5 -1.5,1.5 -0.673,1.5 0,0.828 0,0"
         style="fill:#231f20;fill-opacity:1;fill-rule:nonzero;stroke:none"
         transform="matrix(0.35277776,0,0,-0.35277776,98.368748,186.22852)"
         clip-path="url(#clipPath424)" />
      <path
         id="path425"
         d="M 0,0 C 0,-0.829 -0.672,-1.5 -1.5,-1.5 -2.328,-1.5 -3,-0.829 -3,0 -3,0.829 -2.328,1.5 -1.5,1.5 -0.672,1.5 0,0.829 0,0"
         style="fill:#231f20;fill-opacity:1;fill-rule:nonzero;stroke:none"
         transform="matrix(0.35277776,0,0,-0.35277776,115.10417,178.02291)"
         clip-path="url(#clipPath426)" />
      <path
         id="path427"
         d="m 73.591369,172.25755 h 0.587044 v -0.0331 c -0.161232,0 -0.202573,-0.0207 -0.202573,-0.12402 v -1.26918 l -0.01654,-0.004 -0.380338,0.19017 v 0.0331 c 0.11989,-0.0496 0.11989,-0.0496 0.144695,-0.0496 0.07028,0 0.07028,0.0579 0.07028,0.0992 v 0.95911 c 0,0.1571 -0.07855,0.16123 -0.20257,0.16536 z m 0,0"
         style="fill:#231f20;fill-opacity:1;fill-rule:nonzero;stroke:none;stroke-width:0.352777"
         aria-label=" " />
      <path
         id="path428"
         d="m 63.818319,190.77425 h 0.413412 c 0.02479,0 0.04134,0 0.04961,-0.0207 l 0.07855,-0.19017 -0.01654,-0.0124 c -0.02479,0.0289 -0.04548,0.0537 -0.09922,0.0537 H 63.80178 l -0.231511,0.50023 c -0.0041,0.0165 0,0.0289 0.01241,0.0289 0.231511,0.008 0.603581,0.10749 0.603581,0.44648 0,0.26045 -0.157096,0.37621 -0.293524,0.37621 -0.115755,0 -0.169497,-0.1323 -0.305924,-0.1323 -0.08681,0 -0.08681,0.062 -0.08681,0.0827 0,0.0785 0.09922,0.12816 0.268716,0.12816 0.334865,0 0.566375,-0.22325 0.566375,-0.50437 0,-0.19017 -0.02479,-0.25218 -0.115755,-0.35967 -0.124024,-0.15296 -0.322461,-0.19016 -0.491961,-0.2191 z m 0,0"
         style="fill:#231f20;fill-opacity:1;fill-rule:nonzero;stroke:none;stroke-width:0.352777"
         aria-label="" />
      <path
         id="path429"
         d="m 84.905407,191.51839 h -0.21911 v -0.94258 h -0.09095 l -0.665591,0.94258 v 0.13229 h 0.595312 v 0.35554 h 0.161229 v -0.35554 h 0.21911 z m -0.380339,0 h -0.508497 l 0.500229,-0.71934 h 0.0083 z m 0,0"
         style="fill:#231f20;fill-opacity:1;fill-rule:nonzero;stroke:none;stroke-width:0.352777"
         aria-label="" />
      <path
         id="path430"
         d="m 100.7525,186.25257 c 0.14883,-0.004 0.19844,0.008 0.27699,0.0455 0.13642,0.0703 0.16123,0.22738 0.16123,0.28112 0,0.1571 -0.0868,0.3266 -0.28526,0.3266 -0.12402,0 -0.20257,-0.11989 -0.30179,-0.11989 -0.0331,0 -0.0827,0.0165 -0.0827,0.0744 0,0.11162 0.18603,0.11989 0.23564,0.11989 0.33073,0 0.58705,-0.18604 0.58705,-0.48783 0,-0.27698 -0.1819,-0.3514 -0.26872,-0.3886 0.13643,-0.0909 0.1943,-0.1819 0.1943,-0.29766 0,-0.0868 -0.0579,-0.28525 -0.33073,-0.28525 -0.14056,0 -0.32659,0.0661 -0.41341,0.34313 l 0.0331,0.008 c 0.0289,-0.0579 0.11989,-0.22324 0.31006,-0.22324 0.15709,0 0.23564,0.11162 0.23564,0.21911 0,0.1943 -0.16123,0.29765 -0.3514,0.35553 z m 0,0"
         style="fill:#231f20;fill-opacity:1;fill-rule:nonzero;stroke:none;stroke-width:0.352777"
         aria-label="" />
      <path
         id="path431"
         d="m 94.823146,176.02166 -0.02479,-0.0124 c -0.08268,0.13643 -0.124024,0.14056 -0.202573,0.14056 H 94.09142 l 0.355534,-0.37207 c 0.09095,-0.0992 0.268718,-0.29352 0.268718,-0.51676 0,-0.23565 -0.190169,-0.38034 -0.384474,-0.38034 -0.186033,0 -0.384471,0.0992 -0.446484,0.42168 l 0.04548,0.008 c 0.04547,-0.11162 0.107487,-0.27285 0.301789,-0.27285 0.248047,0 0.301791,0.1943 0.301791,0.30179 0,0.1571 -0.09095,0.34727 -0.276987,0.5457 l -0.376203,0.40101 v 0.0248 h 0.826823 z m 0,0"
         style="fill:#231f20;fill-opacity:1;fill-rule:nonzero;stroke:none;stroke-width:0.352777"
         aria-label="" />
      <path
         id="path432"
         d="m 118.06204,177.72182 c -0.51263,0.0165 -0.8723,0.40101 -0.8723,0.83096 0,0.44648 0.21911,0.64492 0.46715,0.64492 0.37621,0 0.45476,-0.33487 0.45476,-0.49196 0,-0.28112 -0.16537,-0.44235 -0.39274,-0.44235 -0.11576,0 -0.16123,0.0248 -0.27699,0.0951 0.0413,-0.26045 0.24805,-0.5457 0.62425,-0.60358 z m -0.42995,0.63665 c 0.22324,0 0.28939,0.21497 0.28939,0.42995 0,0.23978 -0.0992,0.3514 -0.23151,0.3514 -0.16123,0 -0.30179,-0.1571 -0.30179,-0.51263 0,-0.12816 0.0207,-0.17777 0.0413,-0.19844 0.0537,-0.0496 0.12816,-0.0703 0.20257,-0.0703 z m 0,0"
         style="fill:#231f20;fill-opacity:1;fill-rule:nonzero;stroke:none;stroke-width:0.352777"
         aria-label="" />
      <path
         id="path433"
         d="m 78.595713,180.99397 c 0.103352,-0.25218 0.297657,-0.46715 0.446485,-0.46715 0.07028,0 0.09922,0.0496 0.09922,0.11162 0,0.0207 -0.01241,0.35966 -0.595313,0.47955 z m 0.582909,0.40514 c -0.144692,0.11576 -0.260448,0.21084 -0.413411,0.21084 -0.119888,0 -0.264583,-0.0661 -0.264583,-0.25631 0,-0.0579 0.01241,-0.11576 0.02479,-0.17363 l 0.08268,-0.0124 c 0.454753,-0.062 0.719336,-0.29352 0.719336,-0.51677 0,-0.12402 -0.08682,-0.19017 -0.23151,-0.19017 -0.396875,0 -0.84336,0.47543 -0.84336,0.87644 0,0.17776 0.09095,0.401 0.388607,0.401 0.28112,0 0.537435,-0.26044 0.570508,-0.30592 z m 0,0"
         style="fill:#231f20;fill-opacity:1;fill-rule:nonzero;stroke:none;stroke-width:0.352777"
         aria-label="e" />
      <path
         id="path434"
         d="m 80.422992,182.12155 -0.02479,-0.0124 c -0.08268,0.13642 -0.124024,0.14056 -0.202571,0.14056 h -0.504362 l 0.355534,-0.37207 c 0.09095,-0.0992 0.268716,-0.29352 0.268716,-0.51677 0,-0.23564 -0.190169,-0.38033 -0.384471,-0.38033 -0.186036,0 -0.384474,0.0992 -0.446484,0.42168 l 0.04547,0.008 c 0.04548,-0.11162 0.107487,-0.27285 0.301791,-0.27285 0.248047,0 0.301789,0.1943 0.301789,0.30179 0,0.1571 -0.09095,0.34727 -0.276984,0.5457 l -0.376206,0.40101 v 0.0248 h 0.826823 z m 0,0"
         style="fill:#231f20;fill-opacity:1;fill-rule:nonzero;stroke:none;stroke-width:0.352777"
         aria-label="2" />
      <path
         id="path435"
         d="m 81.273585,175.93175 c 0.103352,-0.25218 0.297656,-0.46716 0.446485,-0.46716 0.07028,0 0.09922,0.0496 0.09922,0.11162 0,0.0207 -0.01241,0.35967 -0.595312,0.47956 z m 0.582909,0.40514 c -0.144693,0.11576 -0.260448,0.21084 -0.413411,0.21084 -0.119888,0 -0.264584,-0.0661 -0.264584,-0.25631 0,-0.0579 0.01241,-0.11576 0.02479,-0.17364 l 0.08268,-0.0124 c 0.454753,-0.062 0.719336,-0.29352 0.719336,-0.51676 0,-0.12402 -0.08682,-0.19017 -0.231511,-0.19017 -0.396875,0 -0.843359,0.47542 -0.843359,0.87643 0,0.17777 0.09095,0.40101 0.388607,0.40101 0.28112,0 0.537435,-0.26045 0.570508,-0.30592 z m 0,0"
         style="fill:#231f20;fill-opacity:1;fill-rule:nonzero;stroke:none;stroke-width:0.352777"
         aria-label="e" />
      <path
         id="path436"
         d="m 82.559296,176.64901 c 0.148828,-0.004 0.198438,0.008 0.276984,0.0455 0.136428,0.0703 0.161232,0.22738 0.161232,0.28112 0,0.1571 -0.08682,0.32659 -0.285255,0.32659 -0.124023,0 -0.20257,-0.11988 -0.301789,-0.11988 -0.03307,0 -0.08268,0.0165 -0.08268,0.0744 0,0.11162 0.186034,0.11989 0.235643,0.11989 0.330729,0 0.587044,-0.18604 0.587044,-0.48783 0,-0.27698 -0.181901,-0.3514 -0.268716,-0.3886 0.136425,-0.0909 0.194302,-0.18191 0.194302,-0.29766 0,-0.0868 -0.05788,-0.28525 -0.330729,-0.28525 -0.14056,0 -0.326594,0.0661 -0.413412,0.34313 l 0.03307,0.008 c 0.02894,-0.0579 0.119891,-0.22324 0.31006,-0.22324 0.157097,0 0.235644,0.11162 0.235644,0.21911 0,0.1943 -0.16123,0.29766 -0.351399,0.35553 z m 0,0"
         style="fill:#231f20;fill-opacity:1;fill-rule:nonzero;stroke:none;stroke-width:0.352777"
         aria-label="3" />
      <path
         id="path437"
         d="m 72.386273,185.84845 c 0.103355,-0.25218 0.297657,-0.46715 0.446485,-0.46715 0.07028,0 0.09922,0.0496 0.09922,0.11162 0,0.0207 -0.01241,0.35967 -0.595313,0.47956 z m 0.582912,0.40515 c -0.144695,0.11575 -0.260451,0.21084 -0.413412,0.21084 -0.11989,0 -0.264583,-0.0661 -0.264583,-0.25632 0,-0.0579 0.01241,-0.11575 0.02479,-0.17363 l 0.08268,-0.0124 c 0.454752,-0.062 0.719336,-0.29352 0.719336,-0.51676 0,-0.12402 -0.08682,-0.19017 -0.231511,-0.19017 -0.396875,0 -0.843359,0.47542 -0.843359,0.87643 0,0.17777 0.09095,0.40101 0.388607,0.40101 0.28112,0 0.537435,-0.26045 0.570508,-0.30592 z m 0,0"
         style="fill:#231f20;fill-opacity:1;fill-rule:nonzero;stroke:none;stroke-width:0.352777"
         aria-label="e" />
      <path
         id="path438"
         d="m 73.663714,186.60293 c 0.239778,0.17363 0.330729,0.23978 0.330729,0.39274 0,0.14883 -0.09922,0.23978 -0.231511,0.23978 -0.173633,0 -0.268716,-0.13643 -0.268716,-0.30179 0,-0.19017 0.09922,-0.27285 0.169498,-0.33073 z m -0.33073,0.3514 c 0,0.16536 0.136427,0.339 0.401011,0.339 0.351398,0 0.421679,-0.23565 0.421679,-0.34727 0,-0.14056 -0.04548,-0.26458 -0.330729,-0.46715 0.115756,-0.062 0.285253,-0.14883 0.285253,-0.34314 0,-0.16123 -0.132292,-0.30179 -0.37207,-0.30179 -0.181901,0 -0.39274,0.11576 -0.39274,0.3266 0,0.17363 0.08268,0.24391 0.260448,0.40101 -0.186034,0.14469 -0.272852,0.21084 -0.272852,0.39274 z m 0.1695,-0.84749 c 0,-0.10336 0.06615,-0.21498 0.223243,-0.21498 0.165364,0 0.239778,0.11576 0.239778,0.23151 0,0.18604 -0.11989,0.26459 -0.198437,0.31833 -0.07855,-0.0496 -0.264584,-0.1695 -0.264584,-0.33486 z m 0,0"
         style="fill:#231f20;fill-opacity:1;fill-rule:nonzero;stroke:none;stroke-width:0.352777"
         aria-label="8" />
      <path
         id="path439"
         d="m 72.386273,192.09924 c 0.103355,-0.25219 0.297657,-0.46716 0.446485,-0.46716 0.07028,0 0.09922,0.0496 0.09922,0.11162 0,0.0207 -0.01241,0.35967 -0.595313,0.47956 z m 0.582912,0.40514 c -0.144695,0.11575 -0.260451,0.21084 -0.413412,0.21084 -0.11989,0 -0.264583,-0.0661 -0.264583,-0.25632 0,-0.0579 0.01241,-0.11575 0.02479,-0.17363 l 0.08268,-0.0124 c 0.454752,-0.062 0.719336,-0.29352 0.719336,-0.51677 0,-0.12402 -0.08682,-0.19016 -0.231511,-0.19016 -0.396875,0 -0.843359,0.47542 -0.843359,0.87643 0,0.17777 0.09095,0.40101 0.388607,0.40101 0.28112,0 0.537435,-0.26045 0.570508,-0.30593 z m 0,0"
         style="fill:#231f20;fill-opacity:1;fill-rule:nonzero;stroke:none;stroke-width:0.352777"
         aria-label="e" />
      <path
         id="path440"
         d="m 73.33712,193.56168 c 0.537435,-0.0331 0.847492,-0.43408 0.847492,-0.8847 0,-0.3514 -0.20257,-0.59118 -0.463021,-0.59118 -0.276984,0 -0.446484,0.22737 -0.446484,0.50849 0,0.17364 0.09922,0.42168 0.384474,0.42168 0.103351,0 0.214974,-0.0413 0.310057,-0.11988 l 0.0041,0.008 c -0.01241,0.0496 -0.128159,0.5333 -0.64079,0.61598 z m 0.640786,-0.79789 c 0,0.0372 -0.0041,0.0661 -0.03307,0.0868 -0.04547,0.0331 -0.132291,0.0744 -0.20257,0.0744 -0.223242,0 -0.272852,-0.24804 -0.272852,-0.40927 0,-0.17363 0.04961,-0.37207 0.227375,-0.37207 0.28112,0 0.28112,0.41341 0.28112,0.53743 z m 0,0"
         style="fill:#231f20;fill-opacity:1;fill-rule:nonzero;stroke:none;stroke-width:0.352777"
         aria-label="9" />
      <path
         id="path441"
         d="m 103.12445,190.05285 c 0.10335,-0.25218 0.29765,-0.46716 0.44648,-0.46716 0.0703,0 0.0992,0.0496 0.0992,0.11162 0,0.0207 -0.0124,0.35967 -0.59531,0.47956 z m 0.58291,0.40514 c -0.1447,0.11576 -0.26045,0.21084 -0.41341,0.21084 -0.11989,0 -0.26459,-0.0661 -0.26459,-0.25631 0,-0.0579 0.0124,-0.11576 0.0248,-0.17364 l 0.0827,-0.0124 c 0.45475,-0.062 0.71933,-0.29353 0.71933,-0.51677 0,-0.12402 -0.0868,-0.19017 -0.23151,-0.19017 -0.39687,0 -0.84336,0.47542 -0.84336,0.87644 0,0.17776 0.091,0.401 0.38861,0.401 0.28112,0 0.53743,-0.26045 0.57051,-0.30592 z m 0,0"
         style="fill:#231f20;fill-opacity:1;fill-rule:nonzero;stroke:none;stroke-width:0.352777"
         aria-label="e" />
      <path
         id="path442"
         d="m 105.04268,190.06835 h -0.78548 l -0.0331,0.0951 -0.0909,0.21497 0.0372,0.0165 c 0.0703,-0.10749 0.10748,-0.1695 0.24391,-0.1695 h 0.45889 l -0.41755,1.2609 h 0.13643 l 0.45062,-1.38492 z m 0,0"
         style="fill:#231f20;fill-opacity:1;fill-rule:nonzero;stroke:none;stroke-width:0.352777"
         aria-label="7" />
      <path
         id="path443"
         d="m 99.162935,178.82459 c 0.103351,-0.25218 0.297656,-0.46715 0.446484,-0.46715 0.07028,0 0.09922,0.0496 0.09922,0.11162 0,0.0207 -0.01241,0.35967 -0.595313,0.47956 z m 0.582908,0.40515 c -0.144692,0.11575 -0.260447,0.21084 -0.413411,0.21084 -0.119888,0 -0.264583,-0.0662 -0.264583,-0.25632 0,-0.0579 0.01241,-0.11575 0.02479,-0.17363 l 0.08268,-0.0124 c 0.454753,-0.062 0.719336,-0.29352 0.719336,-0.51676 0,-0.12403 -0.08682,-0.19017 -0.23151,-0.19017 -0.396875,0 -0.843359,0.47542 -0.843359,0.87643 0,0.17777 0.09095,0.40101 0.388606,0.40101 0.28112,0 0.537435,-0.26045 0.570508,-0.30593 z m 0,0"
         style="fill:#231f20;fill-opacity:1;fill-rule:nonzero;stroke:none;stroke-width:0.352777"
         aria-label="e" />
      <path
         id="path444"
         d="m 100.51065,179.00856 h 0.41341 c 0.0248,0 0.0414,0 0.0496,-0.0207 l 0.0786,-0.19017 -0.0165,-0.0124 c -0.0248,0.0289 -0.0455,0.0537 -0.0992,0.0537 h -0.44235 l -0.23151,0.50023 c -0.004,0.0165 0,0.0289 0.0124,0.0289 0.23151,0.008 0.60358,0.10749 0.60358,0.44648 0,0.26045 -0.1571,0.37621 -0.29353,0.37621 -0.11575,0 -0.16949,-0.13229 -0.30592,-0.13229 -0.0868,0 -0.0868,0.062 -0.0868,0.0827 0,0.0786 0.0992,0.12816 0.26872,0.12816 0.33486,0 0.56637,-0.22325 0.56637,-0.50437 0,-0.19017 -0.0248,-0.25218 -0.11575,-0.35966 -0.12402,-0.15297 -0.32246,-0.19017 -0.49196,-0.21911 z m 0,0"
         style="fill:#231f20;fill-opacity:1;fill-rule:nonzero;stroke:none;stroke-width:0.352777"
         aria-label="5" />
      <path
         id="path445"
         d="m 93.606685,180.53508 c 0.103351,-0.25218 0.297656,-0.46715 0.446484,-0.46715 0.07028,0 0.09922,0.0496 0.09922,0.11162 0,0.0207 -0.01241,0.35967 -0.595313,0.47956 z m 0.582908,0.40515 c -0.144692,0.11575 -0.260447,0.21084 -0.413411,0.21084 -0.119888,0 -0.264583,-0.0661 -0.264583,-0.25632 0,-0.0579 0.01241,-0.11575 0.02479,-0.17363 l 0.08268,-0.0124 c 0.454753,-0.062 0.719336,-0.29352 0.719336,-0.51676 0,-0.12402 -0.08682,-0.19017 -0.23151,-0.19017 -0.396875,0 -0.843359,0.47542 -0.843359,0.87643 0,0.17777 0.09095,0.40101 0.388606,0.40101 0.28112,0 0.537435,-0.26045 0.570508,-0.30593 z m 0,0"
         style="fill:#231f20;fill-opacity:1;fill-rule:nonzero;stroke:none;stroke-width:0.352777"
         aria-label="e" />
      <path
         id="path446"
         d="m 95.428793,181.46422 h -0.219106 v -0.94257 h -0.09095 l -0.665594,0.94257 v 0.1323 h 0.595313 v 0.35553 h 0.161232 v -0.35553 h 0.219106 z m -0.380338,0 H 94.53996 l 0.500227,-0.71933 h 0.0083 z m 0,0"
         style="fill:#231f20;fill-opacity:1;fill-rule:nonzero;stroke:none;stroke-width:0.352777"
         aria-label="4" />
      <path
         id="path447"
         d="m 102.53844,171.48654 c 0.10335,-0.25218 0.29765,-0.46715 0.44648,-0.46715 0.0703,0 0.0992,0.0496 0.0992,0.11162 0,0.0207 -0.0124,0.35967 -0.59531,0.47955 z m 0.58291,0.40514 c -0.1447,0.11576 -0.26045,0.21084 -0.41341,0.21084 -0.11989,0 -0.26459,-0.0661 -0.26459,-0.25631 0,-0.0579 0.0124,-0.11576 0.0248,-0.17363 l 0.0827,-0.0124 c 0.45475,-0.062 0.71933,-0.29352 0.71933,-0.51676 0,-0.12403 -0.0868,-0.19017 -0.23151,-0.19017 -0.39687,0 -0.84336,0.47542 -0.84336,0.87643 0,0.17776 0.091,0.40101 0.38861,0.40101 0.28112,0 0.53743,-0.26045 0.57051,-0.30593 z m 0,0"
         style="fill:#231f20;fill-opacity:1;fill-rule:nonzero;stroke:none;stroke-width:0.352777"
         aria-label="e" />
      <path
         id="path448"
         d="m 104.4453,171.45657 c -0.51263,0.0165 -0.8723,0.40101 -0.8723,0.83095 0,0.44649 0.21911,0.64493 0.46715,0.64493 0.37621,0 0.45476,-0.33487 0.45476,-0.49196 0,-0.28112 -0.16537,-0.44235 -0.39274,-0.44235 -0.11576,0 -0.16124,0.0248 -0.27699,0.0951 0.0413,-0.26045 0.24805,-0.5457 0.62425,-0.60358 z m -0.42995,0.63665 c 0.22324,0 0.28939,0.21497 0.28939,0.42995 0,0.23978 -0.0992,0.3514 -0.23151,0.3514 -0.16123,0 -0.30179,-0.1571 -0.30179,-0.51263 0,-0.12816 0.0207,-0.17777 0.0413,-0.19844 0.0537,-0.0496 0.12815,-0.0703 0.20257,-0.0703 z m 0,0"
         style="fill:#231f20;fill-opacity:1;fill-rule:nonzero;stroke:none;stroke-width:0.352777"
         aria-label="6" />
      <path
         id="path449"
         d="m 66.611949,179.43438 c 0.103354,-0.25218 0.297656,-0.46716 0.446484,-0.46716 0.07028,0 0.09922,0.0496 0.09922,0.11162 0,0.0207 -0.01241,0.35967 -0.595313,0.47956 z m 0.582908,0.40514 c -0.144692,0.11575 -0.260447,0.21084 -0.413408,0.21084 -0.119891,0 -0.264586,-0.0662 -0.264586,-0.25632 0,-0.0579 0.01241,-0.11575 0.02479,-0.17363 l 0.08268,-0.0124 c 0.454753,-0.062 0.719336,-0.29352 0.719336,-0.51676 0,-0.12402 -0.08682,-0.19017 -0.23151,-0.19017 -0.396875,0 -0.843357,0.47542 -0.843357,0.87643 0,0.17777 0.09095,0.40101 0.388604,0.40101 0.28112,0 0.537435,-0.26045 0.570508,-0.30592 z m 0,0"
         style="fill:#231f20;fill-opacity:1;fill-rule:nonzero;stroke:none;stroke-width:0.352777"
         aria-label="e" />
      <path
         id="path450"
         d="m 67.823246,180.85134 h 0.587044 v -0.0331 c -0.161232,0 -0.202573,-0.0207 -0.202573,-0.12402 v -1.26918 l -0.01654,-0.004 -0.380338,0.19017 v 0.0331 c 0.119891,-0.0496 0.119891,-0.0496 0.144695,-0.0496 0.07028,0 0.07028,0.0579 0.07028,0.0992 v 0.95911 c 0,0.1571 -0.07855,0.16123 -0.20257,0.16537 z m 0,0"
         style="fill:#231f20;fill-opacity:1;fill-rule:nonzero;stroke:none;stroke-width:0.352777"
         aria-label="1" />
      <path
         id="path451"
         d="m 82.430105,184.12969 c 0.103352,-0.25218 0.297657,-0.46715 0.446485,-0.46715 0.07028,0 0.09922,0.0496 0.09922,0.11162 0,0.0207 -0.01241,0.35967 -0.595312,0.47956 z m 0.582909,0.40515 c -0.144692,0.11575 -0.260448,0.21084 -0.413411,0.21084 -0.119888,0 -0.264584,-0.0661 -0.264584,-0.25632 0,-0.0579 0.01241,-0.11575 0.02479,-0.17363 l 0.08268,-0.0124 c 0.454753,-0.062 0.719336,-0.29352 0.719336,-0.51676 0,-0.12402 -0.08682,-0.19017 -0.23151,-0.19017 -0.396875,0 -0.84336,0.47542 -0.84336,0.87643 0,0.17777 0.09095,0.40101 0.388607,0.40101 0.28112,0 0.537435,-0.26045 0.570508,-0.30592 z m 0,0"
         style="fill:#231f20;fill-opacity:1;fill-rule:nonzero;stroke:none;stroke-width:0.352777"
         aria-label="e" />
      <path
         id="path452"
         d="m 83.642431,185.54666 h 0.587045 v -0.0331 c -0.161229,0 -0.202571,-0.0207 -0.202571,-0.12402 v -1.26918 l -0.01654,-0.004 -0.380339,0.19017 v 0.0331 c 0.119888,-0.0496 0.119888,-0.0496 0.144693,-0.0496 0.07028,0 0.07028,0.0579 0.07028,0.0992 v 0.95911 c 0,0.1571 -0.07855,0.16123 -0.202573,0.16537 z M 84.981885,184.17 c 0.272851,0 0.276987,0.5333 0.276987,0.678 0,0.16536 -0.0041,0.67386 -0.276987,0.67386 -0.272852,0 -0.276985,-0.50436 -0.276985,-0.67386 0,-0.1447 0.0041,-0.678 0.276985,-0.678 z m 0,-0.0537 c -0.388607,0 -0.479558,0.47956 -0.479558,0.73174 0,0.25218 0.09095,0.7276 0.479558,0.7276 0.388606,0 0.479557,-0.47542 0.479557,-0.7276 0,-0.25218 -0.09095,-0.73174 -0.479557,-0.73174 z m 0,0"
         style="fill:#231f20;fill-opacity:1;fill-rule:nonzero;stroke:none;stroke-width:0.352777"
         aria-label="10" />
    </g>
  </g>
</svg>
