<?xml version="1.0" encoding="UTF-8" standalone="no"?>
<!-- Created with Inkscape (http://www.inkscape.org/) -->

<svg
   width="31.611528mm"
   height="31.280399mm"
   viewBox="0 0 31.611528 31.280399"
   version="1.1"
   id="svg1"
   inkscape:version="1.3.2 (091e20ef0f, 2023-11-25)"
   sodipodi:docname="8b.svg"
   xmlns:inkscape="http://www.inkscape.org/namespaces/inkscape"
   xmlns:sodipodi="http://sodipodi.sourceforge.net/DTD/sodipodi-0.dtd"
   xmlns="http://www.w3.org/2000/svg"
   xmlns:svg="http://www.w3.org/2000/svg">
  <sodipodi:namedview
     id="namedview1"
     pagecolor="#ffffff"
     bordercolor="#000000"
     borderopacity="0.25"
     inkscape:showpageshadow="2"
     inkscape:pageopacity="0.0"
     inkscape:pagecheckerboard="0"
     inkscape:deskcolor="#d1d1d1"
     inkscape:document-units="mm"
     inkscape:zoom="6.5915685"
     inkscape:cx="50.139812"
     inkscape:cy="60.228457"
     inkscape:window-width="2560"
     inkscape:window-height="1600"
     inkscape:window-x="0"
     inkscape:window-y="0"
     inkscape:window-maximized="1"
     inkscape:current-layer="layer1">
    <inkscape:page
       x="0"
       y="0"
       width="31.611526"
       height="31.280399"
       id="page1"
       margin="5.0000005"
       bleed="0" />
  </sodipodi:namedview>
  <defs
     id="defs1"><clipPath
   clipPathUnits="userSpaceOnUse"
   id="clipPath1213">
  <path
     d="m 101,295 h 199.69 v 72 H 101 Z"
     transform="translate(-163.09401,-336.81301)"
     id="path1213" />
</clipPath>
<clipPath
   clipPathUnits="userSpaceOnUse"
   id="clipPath1144">
  <path
     d="m 101,295 h 199.69 v 72 H 101 Z"
     transform="translate(-134.703,-306.08901)"
     id="path1144" />
</clipPath>
<clipPath
   clipPathUnits="userSpaceOnUse"
   id="clipPath1142">
  <path
     d="m 101,295 h 199.69 v 72 H 101 Z"
     transform="translate(-134.703,-351.15401)"
     id="path1142" />
</clipPath>
<clipPath
   clipPathUnits="userSpaceOnUse"
   id="clipPath1140">
  <path
     d="m 101,295 h 199.69 v 72 H 101 Z"
     transform="translate(-157.335,-318.85101)"
     id="path1140" />
</clipPath>
<clipPath
   clipPathUnits="userSpaceOnUse"
   id="clipPath1138">
  <path
     d="m 101,295 h 199.69 v 72 H 101 Z"
     transform="translate(-157.335,-338.39301)"
     id="path1138" />
</clipPath>
<clipPath
   clipPathUnits="userSpaceOnUse"
   id="clipPath1136">
  <path
     d="m 101,295 h 199.69 v 72 H 101 Z"
     transform="translate(-112.071,-318.85101)"
     id="path1136" />
</clipPath>
<clipPath
   clipPathUnits="userSpaceOnUse"
   id="clipPath1134">
  <path
     d="m 101,295 h 199.69 v 72 H 101 Z"
     transform="translate(-112.071,-338.39301)"
     id="path1134" />
</clipPath>
<clipPath
   clipPathUnits="userSpaceOnUse"
   id="clipPath1132">
  <path
     d="m 101,295 h 199.69 v 72 H 101 Z"
     transform="translate(-155.835,-338.39301)"
     id="path1132" />
</clipPath>
y&quot; /&gt;</defs>
  <g
     inkscape:label="Layer 1"
     inkscape:groupmode="layer"
     id="layer1"
     transform="translate(-77.814514,-116.22635)">
    <rect
       style="fill:#ffffff;stroke-width:1;stroke-linecap:round;stroke-linejoin:round"
       id="rect1"
       width="31.611526"
       height="31.280397"
       x="77.814514"
       y="116.22635" />
    <g
       id="g1">
      <path
         id="path1131"
         d="m 0,0 h -45.264 l 22.632,-32.304 z M -45.264,-19.542 H 0 l -22.632,32.303 z"
         style="fill:none;stroke:#00adef;stroke-width:0.5;stroke-linecap:butt;stroke-linejoin:miter;stroke-miterlimit:4;stroke-dasharray:none;stroke-opacity:1"
         transform="matrix(0.35277776,0,0,-0.35277776,101.27326,128.06221)"
         clip-path="url(#clipPath1132)" />
      <path
         id="path1133"
         d="M 0,0 C 0,-0.829 -0.672,-1.5 -1.5,-1.5 -2.329,-1.5 -3,-0.829 -3,0 -3,0.828 -2.329,1.5 -1.5,1.5 -0.672,1.5 0,0.828 0,0"
         style="fill:#231f20;fill-opacity:1;fill-rule:nonzero;stroke:none"
         transform="matrix(0.35277776,0,0,-0.35277776,85.834295,128.06221)"
         clip-path="url(#clipPath1134)" />
      <path
         id="path1135"
         d="M 0,0 C 0,-0.828 -0.672,-1.5 -1.5,-1.5 -2.329,-1.5 -3,-0.828 -3,0 -3,0.829 -2.329,1.5 -1.5,1.5 -0.672,1.5 0,0.829 0,0"
         style="fill:#231f20;fill-opacity:1;fill-rule:nonzero;stroke:none"
         transform="matrix(0.35277776,0,0,-0.35277776,85.834295,134.9562)"
         clip-path="url(#clipPath1136)" />
      <path
         id="path1137"
         d="M 0,0 C 0,-0.829 -0.672,-1.5 -1.5,-1.5 -2.328,-1.5 -3,-0.829 -3,0 -3,0.828 -2.328,1.5 -1.5,1.5 -0.672,1.5 0,0.828 0,0"
         style="fill:#231f20;fill-opacity:1;fill-rule:nonzero;stroke:none"
         transform="matrix(0.35277776,0,0,-0.35277776,101.80243,128.06221)"
         clip-path="url(#clipPath1138)" />
      <path
         id="path1139"
         d="M 0,0 C 0,-0.828 -0.672,-1.5 -1.5,-1.5 -2.328,-1.5 -3,-0.828 -3,0 -3,0.829 -2.328,1.5 -1.5,1.5 -0.672,1.5 0,0.829 0,0"
         style="fill:#231f20;fill-opacity:1;fill-rule:nonzero;stroke:none"
         transform="matrix(0.35277776,0,0,-0.35277776,101.80243,134.9562)"
         clip-path="url(#clipPath1140)" />
      <path
         id="path1141"
         d="M 0,0 C 0,-0.828 -0.671,-1.5 -1.5,-1.5 -2.328,-1.5 -3,-0.828 -3,0 -3,0.829 -2.328,1.5 -1.5,1.5 -0.671,1.5 0,0.829 0,0"
         style="fill:#231f20;fill-opacity:1;fill-rule:nonzero;stroke:none"
         transform="matrix(0.35277776,0,0,-0.35277776,93.818362,123.56042)"
         clip-path="url(#clipPath1142)" />
      <path
         id="path1143"
         d="M 0,0 C 0,-0.828 -0.671,-1.5 -1.5,-1.5 -2.328,-1.5 -3,-0.828 -3,0 -3,0.828 -2.328,1.5 -1.5,1.5 -0.671,1.5 0,0.828 0,0"
         style="fill:#231f20;fill-opacity:1;fill-rule:nonzero;stroke:none"
         transform="matrix(0.35277776,0,0,-0.35277776,93.818362,139.45835)"
         clip-path="url(#clipPath1144)" />
      <path
         id="path1145"
         d="m 83.996928,128.36709 c -0.09922,0.12402 -0.177765,0.22324 -0.23151,0.22324 -0.03307,0 -0.03307,-0.0289 -0.03307,-0.0455 0,-0.0413 0.03721,-0.16537 0.05375,-0.22325 l 0.223242,-0.84336 h -0.210841 c -0.11162,0.30179 -0.173633,0.47956 -0.310058,0.6904 -0.09508,0.1447 -0.272851,0.40928 -0.396875,0.40928 -0.04548,0 -0.06201,-0.0372 -0.06201,-0.0703 0,-0.008 0,-0.0165 0.0041,-0.0248 l 0.256315,-1.02526 -0.0083,-0.004 c -0.14056,0.0331 -0.28112,0.0579 -0.42168,0.0744 v 0.0413 c 0.115755,0 0.169498,0 0.169498,0.0827 0,0.0744 -0.214974,0.78548 -0.214974,0.9095 0,0.12402 0.05375,0.1695 0.152963,0.1695 0.256315,0 0.463021,-0.35554 0.657323,-0.67386 h 0.0083 c -0.06615,0.23151 -0.124023,0.46715 -0.124023,0.5209 0,0.0413 0.0083,0.14469 0.132291,0.14469 0.144696,0 0.214974,-0.0744 0.392743,-0.33073 z m 0,0"
         style="fill:#231f20;fill-opacity:1;fill-rule:nonzero;stroke:none;stroke-width:0.352777"
         aria-label="u" />
      <path
         id="path1146"
         d="m 83.235219,134.78943 c 0.06201,-0.15709 0.124024,-0.16536 0.231511,-0.16536 h 0.409278 l -0.872299,1.05007 0.02479,0.0248 c 0.03721,-0.0331 0.07855,-0.0496 0.128159,-0.0496 0.194302,0 0.401008,0.23978 0.611849,0.23978 0.144693,0 0.264583,-0.10336 0.264583,-0.21085 0,-0.0909 -0.07028,-0.10335 -0.09509,-0.10335 -0.06615,0 -0.09922,0.0372 -0.09922,0.0868 0,0.062 0.03721,0.0951 0.03721,0.12402 0,0.0372 -0.04548,0.0455 -0.07855,0.0455 -0.02894,0 -0.08268,0 -0.152961,-0.0951 -0.148828,-0.18603 -0.194305,-0.23978 -0.384474,-0.28112 l 0.82269,-0.97151 v -0.0289 h -0.802018 l -0.09095,0.32246 z m 20.422531,0.55811 c -0.0785,0.0868 -0.13643,0.19017 -0.19431,0.19017 -0.0579,0 -0.0744,-0.0703 -0.0868,-0.11576 -0.0165,-0.0703 -0.11162,-0.45475 -0.11162,-0.50436 0,0 0.19016,-0.34313 0.27284,-0.34313 0.062,0 0.0827,0.0496 0.14883,0.0496 0.0662,0 0.0951,-0.0537 0.0951,-0.10749 0,-0.0661 -0.062,-0.0992 -0.11576,-0.0992 -0.14469,0 -0.27698,0.1695 -0.42581,0.40101 l -0.0289,-0.15296 c -0.0537,-0.24805 -0.0951,-0.24805 -0.1571,-0.24805 -0.0909,0 -0.27698,0.0661 -0.35139,0.091 l 0.008,0.0455 c 0.0909,-0.0248 0.13229,-0.0331 0.1571,-0.0331 0.0744,0 0.0868,0.0413 0.11162,0.12815 0.004,0.0124 0.0992,0.38861 0.0992,0.41342 -0.25218,0.37207 -0.3266,0.46715 -0.37621,0.46715 -0.0496,0 -0.0992,-0.0537 -0.16123,-0.0537 -0.062,0 -0.0951,0.0496 -0.0951,0.0951 0,0.0703 0.0413,0.12402 0.13642,0.12402 0.0868,0 0.11989,-0.0331 0.1695,-0.0868 0.0951,-0.10335 0.21498,-0.25632 0.3514,-0.44235 l 0.0827,0.339 c 0.0372,0.14882 0.0785,0.19016 0.16122,0.19016 0.0662,0 0.14883,0 0.34727,-0.32246 z m 0,0"
         style="fill:#231f20;fill-opacity:1;fill-rule:nonzero;stroke:none;stroke-width:0.352777"
         aria-label="zx" />
      <path
         id="path1147"
         d="m 92.70131,140.79527 c 0.03307,-0.008 0.05374,-0.0124 0.09508,-0.0124 0.161232,0 0.198437,0.11989 0.276987,0.38034 0.04547,0.14883 0.165365,0.64492 0.165365,0.75241 0,0.0744 -0.119891,0.21497 -0.19017,0.29765 -0.09509,0.11162 -0.132291,0.13643 -0.177768,0.13643 -0.04961,0 -0.08682,-0.0786 -0.169497,-0.0786 -0.06201,0 -0.107487,0.0496 -0.107487,0.10749 0,0.11989 0.119888,0.12816 0.14056,0.12816 0.338997,0 1.128611,-1.31879 1.128611,-1.65365 0,-0.0992 -0.05788,-0.17363 -0.161229,-0.17363 -0.07441,0 -0.103354,0.0579 -0.103354,0.0992 0,0.12815 0.152964,0.0992 0.152964,0.21497 0,0.14883 -0.223242,0.52917 -0.347266,0.7276 l -0.05375,-0.32659 c -0.03721,-0.21497 -0.206705,-0.7152 -0.239778,-0.7152 -0.05374,0 -0.272852,0.0455 -0.409276,0.0661 z m 0,0"
         style="fill:#231f20;fill-opacity:1;fill-rule:nonzero;stroke:none;stroke-width:0.352777"
         aria-label="" />
      <path
         id="path1212"
         d="m 0,0 c -0.361,0 -0.48,0.209 -0.48,0.527 0,0.144 0.023,0.305 0.064,0.48 l 0.455,1.991 0.016,0.103 c 0,0.217 -0.16,0.346 -0.328,0.346 -0.151,0 -0.311,-0.106 -0.375,-0.377 L -1.111,1.054 C -1.287,0.289 -1.688,0 -1.943,0 c -0.209,0 -0.401,0.232 -0.401,0.591 0,0.08 0.008,0.176 0.031,0.274 0,0.008 0.337,1.285 0.417,1.742 l 0.009,0.104 c 0,0.351 -0.32,0.687 -0.674,0.687 -0.285,0 -0.685,-0.297 -0.685,-0.654 l 0.039,-0.209 h 0.137 c 0,0.295 0.134,0.519 0.334,0.519 0.088,0 0.217,-0.041 0.217,-0.271 L -2.543,2.584 c 0,-0.008 -0.271,-1.114 -0.367,-1.68 L -2.918,0.767 c 0,-0.504 0.357,-0.982 0.902,-0.982 0.504,0.008 0.936,0.336 1.159,0.711 0.136,-0.455 0.345,-0.703 0.849,-0.711 0.455,0 0.983,0.584 1.151,0.902 C 1.59,1.527 1.678,2.183 1.678,2.638 1.678,2.775 1.67,2.894 1.662,2.99 1.646,3.173 1.527,3.447 1.303,3.447 1.143,3.447 0.998,3.334 0.998,3.142 0.998,2.837 1.215,2.853 1.287,2.47 1.303,2.336 1.311,2.23 1.311,2.127 1.311,1.591 1.094,1.072 0.975,0.839 0.711,0.328 0.287,0 0,0"
         style="fill:#231f20;fill-opacity:1;fill-rule:nonzero;stroke:none"
         transform="matrix(0.35277776,0,0,-0.35277776,103.83408,128.6196)"
         clip-path="url(#clipPath1213)" />
      <text
         xml:space="preserve"
         style="font-style:italic;font-variant:normal;font-weight:normal;font-stretch:normal;font-size:2.55347px;font-family:'TeX Gyre Schola';-inkscape-font-specification:'TeX Gyre Schola Italic';fill:#000000;stroke-width:0.804244;stroke-linecap:round;stroke-linejoin:round"
         x="92.682068"
         y="122.42648"
         id="text1"><tspan
           sodipodi:role="line"
           id="tspan1"
           style="font-style:italic;font-variant:normal;font-weight:normal;font-stretch:normal;font-family:'TeX Gyre Schola';-inkscape-font-specification:'TeX Gyre Schola Italic';fill:#000000;stroke-width:0.804244"
           x="92.682068"
           y="122.42648">v</tspan></text>
    </g>
  </g>
</svg>
