<?xml version="1.0" encoding="UTF-8"?>
<!DOCTYPE svg PUBLIC "-//W3C//DTD SVG 1.1//EN" "http://www.w3.org/Graphics/SVG/1.1/DTD/svg11.dtd">
<!--Generated by Origin-->
<svg xmlns="http://www.w3.org/2000/svg" xmlns:xlink="http://www.w3.org/1999/xlink" viewBox="0,0 1097,766" width="11.427083in" height="7.979167in">
	<svg xmlns="http://www.w3.org/2000/svg" xmlns:xlink="http://www.w3.org/1999/xlink" viewBox="0,0 6849,4784.99" width="1095" height="765" x="0.00012207" y="6.10352e-05" preserveAspectRatio="none">
		<polyline points="1226,3992 5897,3992" style="stroke: black;stroke-width: 13;stroke-linecap:square;stroke-linejoin:round" fill="none"/>
		<polyline points="1893,3992 1893,4026" style="stroke: black;stroke-width: 13;stroke-linecap:butt;stroke-linejoin:round" fill="none"/>
		<polyline points="3228,3992 3228,4026" style="stroke: black;stroke-width: 13;stroke-linecap:butt;stroke-linejoin:round" fill="none"/>
		<polyline points="4562,3992 4562,4026" style="stroke: black;stroke-width: 13;stroke-linecap:butt;stroke-linejoin:round" fill="none"/>
		<polyline points="5897,3992 5897,4026" style="stroke: black;stroke-width: 13;stroke-linecap:butt;stroke-linejoin:round" fill="none"/>
		<polyline points="1226,3992 1226,4061" style="stroke: black;stroke-width: 13;stroke-linecap:butt;stroke-linejoin:round" fill="none"/>
		<polyline points="2561,3992 2561,4061" style="stroke: black;stroke-width: 13;stroke-linecap:butt;stroke-linejoin:round" fill="none"/>
		<polyline points="3895,3992 3895,4061" style="stroke: black;stroke-width: 13;stroke-linecap:butt;stroke-linejoin:round" fill="none"/>
		<polyline points="5230,3992 5230,4061" style="stroke: black;stroke-width: 13;stroke-linecap:butt;stroke-linejoin:round" fill="none"/>
		<polyline points="1226,3992 1226,556" style="stroke: black;stroke-width: 13;stroke-linecap:square;stroke-linejoin:round" fill="none"/>
		<polyline points="1226,3501 1192,3501" style="stroke: black;stroke-width: 13;stroke-linecap:butt;stroke-linejoin:round" fill="none"/>
		<polyline points="1226,2519 1192,2519" style="stroke: black;stroke-width: 13;stroke-linecap:butt;stroke-linejoin:round" fill="none"/>
		<polyline points="1226,1538 1192,1538" style="stroke: black;stroke-width: 13;stroke-linecap:butt;stroke-linejoin:round" fill="none"/>
		<polyline points="1226,556 1192,556" style="stroke: black;stroke-width: 13;stroke-linecap:butt;stroke-linejoin:round" fill="none"/>
		<polyline points="1226,3992 1157,3992" style="stroke: black;stroke-width: 13;stroke-linecap:butt;stroke-linejoin:round" fill="none"/>
		<polyline points="1226,3010 1157,3010" style="stroke: black;stroke-width: 13;stroke-linecap:butt;stroke-linejoin:round" fill="none"/>
		<polyline points="1226,2029 1157,2029" style="stroke: black;stroke-width: 13;stroke-linecap:butt;stroke-linejoin:round" fill="none"/>
		<polyline points="1226,1047 1157,1047" style="stroke: black;stroke-width: 13;stroke-linecap:butt;stroke-linejoin:round" fill="none"/>
		<text x="1099" dominant-baseline="auto" y="4226" fill="black" font-family="Arial,'MS PGothic',SimSun" font-size="150" font-weight="400">
			<tspan x="1099" style="font-kerning:none">−20</tspan>
		</text>
		<text x="2434" dominant-baseline="auto" y="4226" fill="black" font-family="Arial,'MS PGothic',SimSun" font-size="150" font-weight="400">
			<tspan x="2434" style="font-kerning:none">−10</tspan>
		</text>
		<text x="3854" dominant-baseline="auto" y="4226" fill="black" font-family="Arial,'MS PGothic',SimSun" font-size="150" font-weight="400">
			<tspan x="3854" style="font-kerning:none">0</tspan>
		</text>
		<text x="5147" dominant-baseline="auto" y="4226" fill="black" font-family="Arial,'MS PGothic',SimSun" font-size="150" font-weight="400">
			<tspan x="5147" style="font-kerning:none">10</tspan>
		</text>
		<text x="938" dominant-baseline="auto" y="4037" fill="black" font-family="Arial,'MS PGothic',SimSun" font-size="150" font-weight="400">
			<tspan x="938" style="font-kerning:none">−4</tspan>
		</text>
		<text x="938" dominant-baseline="auto" y="3055" fill="black" font-family="Arial,'MS PGothic',SimSun" font-size="150" font-weight="400">
			<tspan x="938" style="font-kerning:none">−2</tspan>
		</text>
		<text x="1026" dominant-baseline="auto" y="2074" fill="black" font-family="Arial,'MS PGothic',SimSun" font-size="150" font-weight="400">
			<tspan x="1026" style="font-kerning:none">0</tspan>
		</text>
		<text x="1026" dominant-baseline="auto" y="1092" fill="black" font-family="Arial,'MS PGothic',SimSun" font-size="150" font-weight="400">
			<tspan x="1026" style="font-kerning:none">2</tspan>
		</text>
		<defs>
			<mask id="Cp_1">
				<rect x="1226" y="556" width="4672" height="3437" fill="white"/>
			</mask>
		</defs>
		<g mask="url(#Cp_1)">
			<rect x="0" y="0" width="6849" height="4785" visibility="hidden" fill="none" opacity="0"/>
			<rect x="2156" y="1953" width="7" height="7" shape-rendering="crispEdges" fill="black" fill-rule="evenodd" style="stroke: black;stroke-width: 1"/>
			<rect x="2423" y="1921" width="7" height="7" shape-rendering="crispEdges" fill="black" fill-rule="evenodd" style="stroke: black;stroke-width: 1"/>
			<rect x="2690" y="974" width="7" height="7" shape-rendering="crispEdges" fill="black" fill-rule="evenodd" style="stroke: black;stroke-width: 1"/>
			<rect x="2957" y="3195" width="7" height="7" shape-rendering="crispEdges" fill="black" fill-rule="evenodd" style="stroke: black;stroke-width: 1"/>
			<rect x="3224" y="2307" width="7" height="7" shape-rendering="crispEdges" fill="black" fill-rule="evenodd" style="stroke: black;stroke-width: 1"/>
			<rect x="3491" y="2265" width="7" height="7" shape-rendering="crispEdges" fill="black" fill-rule="evenodd" style="stroke: black;stroke-width: 1"/>
			<rect x="3758" y="2250" width="7" height="7" shape-rendering="crispEdges" fill="black" fill-rule="evenodd" style="stroke: black;stroke-width: 1"/>
			<rect x="3891" y="2290" width="7" height="7" shape-rendering="crispEdges" fill="black" fill-rule="evenodd" style="stroke: black;stroke-width: 1"/>
			<rect x="4025" y="2255" width="7" height="7" shape-rendering="crispEdges" fill="black" fill-rule="evenodd" style="stroke: black;stroke-width: 1"/>
			<rect x="4292" y="2346" width="7" height="7" shape-rendering="crispEdges" fill="black" fill-rule="evenodd" style="stroke: black;stroke-width: 1"/>
			<rect x="4558" y="3301" width="7" height="7" shape-rendering="crispEdges" fill="black" fill-rule="evenodd" style="stroke: black;stroke-width: 1"/>
			<rect x="4825" y="908" width="7" height="7" shape-rendering="crispEdges" fill="black" fill-rule="evenodd" style="stroke: black;stroke-width: 1"/>
			<rect x="5092" y="1877" width="7" height="7" shape-rendering="crispEdges" fill="black" fill-rule="evenodd" style="stroke: black;stroke-width: 1"/>
			<rect x="5359" y="1978" width="7" height="7" shape-rendering="crispEdges" fill="black" fill-rule="evenodd" style="stroke: black;stroke-width: 1"/>
			<polyline points="2160,1953 2160,1953" style="stroke: black;stroke-width: 4;stroke-linecap:round;stroke-linejoin:round" fill="none"/>
			<polyline points="2126,1953 2194,1953" style="stroke: black;stroke-width: 4;stroke-linecap:round;stroke-linejoin:round" fill="none"/>
			<polyline points="2160,1962 2160,1961" style="stroke: black;stroke-width: 4;stroke-linecap:round;stroke-linejoin:round" fill="none"/>
			<polyline points="2126,1962 2194,1962" style="stroke: black;stroke-width: 4;stroke-linecap:round;stroke-linejoin:round" fill="none"/>
			<polyline points="2427,1920 2427,1921" style="stroke: black;stroke-width: 4;stroke-linecap:round;stroke-linejoin:round" fill="none"/>
			<polyline points="2393,1920 2461,1920" style="stroke: black;stroke-width: 4;stroke-linecap:round;stroke-linejoin:round" fill="none"/>
			<polyline points="2427,1931 2427,1929" style="stroke: black;stroke-width: 4;stroke-linecap:round;stroke-linejoin:round" fill="none"/>
			<polyline points="2393,1931 2461,1931" style="stroke: black;stroke-width: 4;stroke-linecap:round;stroke-linejoin:round" fill="none"/>
			<polyline points="2694,926 2694,974" style="stroke: black;stroke-width: 4;stroke-linecap:round;stroke-linejoin:round" fill="none"/>
			<polyline points="2660,926 2728,926" style="stroke: black;stroke-width: 4;stroke-linecap:round;stroke-linejoin:round" fill="none"/>
			<polyline points="2694,1031 2694,982" style="stroke: black;stroke-width: 4;stroke-linecap:round;stroke-linejoin:round" fill="none"/>
			<polyline points="2660,1031 2728,1031" style="stroke: black;stroke-width: 4;stroke-linecap:round;stroke-linejoin:round" fill="none"/>
			<polyline points="2961,3141 2961,3195" style="stroke: black;stroke-width: 4;stroke-linecap:round;stroke-linejoin:round" fill="none"/>
			<polyline points="2927,3141 2995,3141" style="stroke: black;stroke-width: 4;stroke-linecap:round;stroke-linejoin:round" fill="none"/>
			<polyline points="2961,3258 2961,3203" style="stroke: black;stroke-width: 4;stroke-linecap:round;stroke-linejoin:round" fill="none"/>
			<polyline points="2927,3258 2995,3258" style="stroke: black;stroke-width: 4;stroke-linecap:round;stroke-linejoin:round" fill="none"/>
			<polyline points="3228,2297 3228,2307" style="stroke: black;stroke-width: 4;stroke-linecap:round;stroke-linejoin:round" fill="none"/>
			<polyline points="3194,2297 3262,2297" style="stroke: black;stroke-width: 4;stroke-linecap:round;stroke-linejoin:round" fill="none"/>
			<polyline points="3228,2325 3228,2315" style="stroke: black;stroke-width: 4;stroke-linecap:round;stroke-linejoin:round" fill="none"/>
			<polyline points="3194,2325 3262,2325" style="stroke: black;stroke-width: 4;stroke-linecap:round;stroke-linejoin:round" fill="none"/>
			<polyline points="3495,2257 3495,2265" style="stroke: black;stroke-width: 4;stroke-linecap:round;stroke-linejoin:round" fill="none"/>
			<polyline points="3461,2257 3529,2257" style="stroke: black;stroke-width: 4;stroke-linecap:round;stroke-linejoin:round" fill="none"/>
			<polyline points="3495,2281 3495,2273" style="stroke: black;stroke-width: 4;stroke-linecap:round;stroke-linejoin:round" fill="none"/>
			<polyline points="3461,2281 3529,2281" style="stroke: black;stroke-width: 4;stroke-linecap:round;stroke-linejoin:round" fill="none"/>
			<polyline points="3762,2231 3762,2250" style="stroke: black;stroke-width: 4;stroke-linecap:round;stroke-linejoin:round" fill="none"/>
			<polyline points="3728,2231 3796,2231" style="stroke: black;stroke-width: 4;stroke-linecap:round;stroke-linejoin:round" fill="none"/>
			<polyline points="3762,2277 3762,2258" style="stroke: black;stroke-width: 4;stroke-linecap:round;stroke-linejoin:round" fill="none"/>
			<polyline points="3728,2277 3796,2277" style="stroke: black;stroke-width: 4;stroke-linecap:round;stroke-linejoin:round" fill="none"/>
			<polyline points="3895,2267 3895,2290" style="stroke: black;stroke-width: 4;stroke-linecap:round;stroke-linejoin:round" fill="none"/>
			<polyline points="3861,2267 3929,2267" style="stroke: black;stroke-width: 4;stroke-linecap:round;stroke-linejoin:round" fill="none"/>
			<polyline points="3895,2321 3895,2298" style="stroke: black;stroke-width: 4;stroke-linecap:round;stroke-linejoin:round" fill="none"/>
			<polyline points="3861,2321 3929,2321" style="stroke: black;stroke-width: 4;stroke-linecap:round;stroke-linejoin:round" fill="none"/>
			<polyline points="4029,2247 4029,2255" style="stroke: black;stroke-width: 4;stroke-linecap:round;stroke-linejoin:round" fill="none"/>
			<polyline points="3995,2247 4063,2247" style="stroke: black;stroke-width: 4;stroke-linecap:round;stroke-linejoin:round" fill="none"/>
			<polyline points="4029,2271 4029,2263" style="stroke: black;stroke-width: 4;stroke-linecap:round;stroke-linejoin:round" fill="none"/>
			<polyline points="3995,2271 4063,2271" style="stroke: black;stroke-width: 4;stroke-linecap:round;stroke-linejoin:round" fill="none"/>
			<polyline points="4296,2334 4296,2346" style="stroke: black;stroke-width: 4;stroke-linecap:round;stroke-linejoin:round" fill="none"/>
			<polyline points="4262,2334 4330,2334" style="stroke: black;stroke-width: 4;stroke-linecap:round;stroke-linejoin:round" fill="none"/>
			<polyline points="4296,2366 4296,2354" style="stroke: black;stroke-width: 4;stroke-linecap:round;stroke-linejoin:round" fill="none"/>
			<polyline points="4262,2366 4330,2366" style="stroke: black;stroke-width: 4;stroke-linecap:round;stroke-linejoin:round" fill="none"/>
			<polyline points="4562,3241 4562,3301" style="stroke: black;stroke-width: 4;stroke-linecap:round;stroke-linejoin:round" fill="none"/>
			<polyline points="4528,3241 4596,3241" style="stroke: black;stroke-width: 4;stroke-linecap:round;stroke-linejoin:round" fill="none"/>
			<polyline points="4562,3369 4562,3309" style="stroke: black;stroke-width: 4;stroke-linecap:round;stroke-linejoin:round" fill="none"/>
			<polyline points="4528,3369 4596,3369" style="stroke: black;stroke-width: 4;stroke-linecap:round;stroke-linejoin:round" fill="none"/>
			<polyline points="4829,856 4829,908" style="stroke: black;stroke-width: 4;stroke-linecap:round;stroke-linejoin:round" fill="none"/>
			<polyline points="4795,856 4863,856" style="stroke: black;stroke-width: 4;stroke-linecap:round;stroke-linejoin:round" fill="none"/>
			<polyline points="4829,968 4829,916" style="stroke: black;stroke-width: 4;stroke-linecap:round;stroke-linejoin:round" fill="none"/>
			<polyline points="4795,968 4863,968" style="stroke: black;stroke-width: 4;stroke-linecap:round;stroke-linejoin:round" fill="none"/>
			<polyline points="5096,1873 5096,1877" style="stroke: black;stroke-width: 4;stroke-linecap:round;stroke-linejoin:round" fill="none"/>
			<polyline points="5062,1873 5130,1873" style="stroke: black;stroke-width: 4;stroke-linecap:round;stroke-linejoin:round" fill="none"/>
			<polyline points="5096,1889 5096,1885" style="stroke: black;stroke-width: 4;stroke-linecap:round;stroke-linejoin:round" fill="none"/>
			<polyline points="5062,1889 5130,1889" style="stroke: black;stroke-width: 4;stroke-linecap:round;stroke-linejoin:round" fill="none"/>
			<polyline points="5363,1979 5363,1978" style="stroke: black;stroke-width: 4;stroke-linecap:round;stroke-linejoin:round" fill="none"/>
			<polyline points="5329,1979 5397,1979" style="stroke: black;stroke-width: 4;stroke-linecap:round;stroke-linejoin:round" fill="none"/>
			<polyline points="5363,1985 5363,1986" style="stroke: black;stroke-width: 4;stroke-linecap:round;stroke-linejoin:round" fill="none"/>
			<polyline points="5329,1985 5397,1985" style="stroke: black;stroke-width: 4;stroke-linecap:round;stroke-linejoin:round" fill="none"/>
			<polyline points="2174,1957 2164,1957" style="stroke: black;stroke-width: 4;stroke-linecap:round;stroke-linejoin:round" fill="none"/>
			<polyline points="2174,1991 2174,1923" style="stroke: black;stroke-width: 4;stroke-linecap:round;stroke-linejoin:round" fill="none"/>
			<polyline points="2147,1957 2156,1957" style="stroke: black;stroke-width: 4;stroke-linecap:round;stroke-linejoin:round" fill="none"/>
			<polyline points="2147,1991 2147,1923" style="stroke: black;stroke-width: 4;stroke-linecap:round;stroke-linejoin:round" fill="none"/>
			<polyline points="2440,1925 2431,1925" style="stroke: black;stroke-width: 4;stroke-linecap:round;stroke-linejoin:round" fill="none"/>
			<polyline points="2440,1959 2440,1891" style="stroke: black;stroke-width: 4;stroke-linecap:round;stroke-linejoin:round" fill="none"/>
			<polyline points="2414,1925 2423,1925" style="stroke: black;stroke-width: 4;stroke-linecap:round;stroke-linejoin:round" fill="none"/>
			<polyline points="2414,1959 2414,1891" style="stroke: black;stroke-width: 4;stroke-linecap:round;stroke-linejoin:round" fill="none"/>
			<polyline points="2707,978 2698,978" style="stroke: black;stroke-width: 4;stroke-linecap:round;stroke-linejoin:round" fill="none"/>
			<polyline points="2707,1012 2707,944" style="stroke: black;stroke-width: 4;stroke-linecap:round;stroke-linejoin:round" fill="none"/>
			<polyline points="2681,978 2690,978" style="stroke: black;stroke-width: 4;stroke-linecap:round;stroke-linejoin:round" fill="none"/>
			<polyline points="2681,1012 2681,944" style="stroke: black;stroke-width: 4;stroke-linecap:round;stroke-linejoin:round" fill="none"/>
			<polyline points="2974,3199 2965,3199" style="stroke: black;stroke-width: 4;stroke-linecap:round;stroke-linejoin:round" fill="none"/>
			<polyline points="2974,3233 2974,3165" style="stroke: black;stroke-width: 4;stroke-linecap:round;stroke-linejoin:round" fill="none"/>
			<polyline points="2948,3199 2957,3199" style="stroke: black;stroke-width: 4;stroke-linecap:round;stroke-linejoin:round" fill="none"/>
			<polyline points="2948,3233 2948,3165" style="stroke: black;stroke-width: 4;stroke-linecap:round;stroke-linejoin:round" fill="none"/>
			<polyline points="3241,2311 3232,2311" style="stroke: black;stroke-width: 4;stroke-linecap:round;stroke-linejoin:round" fill="none"/>
			<polyline points="3241,2345 3241,2277" style="stroke: black;stroke-width: 4;stroke-linecap:round;stroke-linejoin:round" fill="none"/>
			<polyline points="3215,2311 3224,2311" style="stroke: black;stroke-width: 4;stroke-linecap:round;stroke-linejoin:round" fill="none"/>
			<polyline points="3215,2345 3215,2277" style="stroke: black;stroke-width: 4;stroke-linecap:round;stroke-linejoin:round" fill="none"/>
			<polyline points="3508,2269 3499,2269" style="stroke: black;stroke-width: 4;stroke-linecap:round;stroke-linejoin:round" fill="none"/>
			<polyline points="3508,2303 3508,2235" style="stroke: black;stroke-width: 4;stroke-linecap:round;stroke-linejoin:round" fill="none"/>
			<polyline points="3481,2269 3491,2269" style="stroke: black;stroke-width: 4;stroke-linecap:round;stroke-linejoin:round" fill="none"/>
			<polyline points="3481,2303 3481,2235" style="stroke: black;stroke-width: 4;stroke-linecap:round;stroke-linejoin:round" fill="none"/>
			<polyline points="3775,2254 3766,2254" style="stroke: black;stroke-width: 4;stroke-linecap:round;stroke-linejoin:round" fill="none"/>
			<polyline points="3775,2288 3775,2220" style="stroke: black;stroke-width: 4;stroke-linecap:round;stroke-linejoin:round" fill="none"/>
			<polyline points="3748,2254 3758,2254" style="stroke: black;stroke-width: 4;stroke-linecap:round;stroke-linejoin:round" fill="none"/>
			<polyline points="3748,2288 3748,2220" style="stroke: black;stroke-width: 4;stroke-linecap:round;stroke-linejoin:round" fill="none"/>
			<polyline points="3908,2294 3899,2294" style="stroke: black;stroke-width: 4;stroke-linecap:round;stroke-linejoin:round" fill="none"/>
			<polyline points="3908,2328 3908,2260" style="stroke: black;stroke-width: 4;stroke-linecap:round;stroke-linejoin:round" fill="none"/>
			<polyline points="3882,2294 3891,2294" style="stroke: black;stroke-width: 4;stroke-linecap:round;stroke-linejoin:round" fill="none"/>
			<polyline points="3882,2328 3882,2260" style="stroke: black;stroke-width: 4;stroke-linecap:round;stroke-linejoin:round" fill="none"/>
			<polyline points="4042,2259 4033,2259" style="stroke: black;stroke-width: 4;stroke-linecap:round;stroke-linejoin:round" fill="none"/>
			<polyline points="4042,2293 4042,2225" style="stroke: black;stroke-width: 4;stroke-linecap:round;stroke-linejoin:round" fill="none"/>
			<polyline points="4015,2259 4025,2259" style="stroke: black;stroke-width: 4;stroke-linecap:round;stroke-linejoin:round" fill="none"/>
			<polyline points="4015,2293 4015,2225" style="stroke: black;stroke-width: 4;stroke-linecap:round;stroke-linejoin:round" fill="none"/>
			<polyline points="4309,2350 4300,2350" style="stroke: black;stroke-width: 4;stroke-linecap:round;stroke-linejoin:round" fill="none"/>
			<polyline points="4309,2384 4309,2316" style="stroke: black;stroke-width: 4;stroke-linecap:round;stroke-linejoin:round" fill="none"/>
			<polyline points="4282,2350 4292,2350" style="stroke: black;stroke-width: 4;stroke-linecap:round;stroke-linejoin:round" fill="none"/>
			<polyline points="4282,2384 4282,2316" style="stroke: black;stroke-width: 4;stroke-linecap:round;stroke-linejoin:round" fill="none"/>
			<polyline points="4576,3305 4566,3305" style="stroke: black;stroke-width: 4;stroke-linecap:round;stroke-linejoin:round" fill="none"/>
			<polyline points="4576,3339 4576,3271" style="stroke: black;stroke-width: 4;stroke-linecap:round;stroke-linejoin:round" fill="none"/>
			<polyline points="4549,3305 4558,3305" style="stroke: black;stroke-width: 4;stroke-linecap:round;stroke-linejoin:round" fill="none"/>
			<polyline points="4549,3339 4549,3271" style="stroke: black;stroke-width: 4;stroke-linecap:round;stroke-linejoin:round" fill="none"/>
			<polyline points="4843,912 4833,912" style="stroke: black;stroke-width: 4;stroke-linecap:round;stroke-linejoin:round" fill="none"/>
			<polyline points="4843,946 4843,878" style="stroke: black;stroke-width: 4;stroke-linecap:round;stroke-linejoin:round" fill="none"/>
			<polyline points="4816,912 4825,912" style="stroke: black;stroke-width: 4;stroke-linecap:round;stroke-linejoin:round" fill="none"/>
			<polyline points="4816,946 4816,878" style="stroke: black;stroke-width: 4;stroke-linecap:round;stroke-linejoin:round" fill="none"/>
			<polyline points="5110,1881 5100,1881" style="stroke: black;stroke-width: 4;stroke-linecap:round;stroke-linejoin:round" fill="none"/>
			<polyline points="5110,1915 5110,1847" style="stroke: black;stroke-width: 4;stroke-linecap:round;stroke-linejoin:round" fill="none"/>
			<polyline points="5083,1881 5092,1881" style="stroke: black;stroke-width: 4;stroke-linecap:round;stroke-linejoin:round" fill="none"/>
			<polyline points="5083,1915 5083,1847" style="stroke: black;stroke-width: 4;stroke-linecap:round;stroke-linejoin:round" fill="none"/>
			<polyline points="5377,1982 5367,1982" style="stroke: black;stroke-width: 4;stroke-linecap:round;stroke-linejoin:round" fill="none"/>
			<polyline points="5377,2016 5377,1948" style="stroke: black;stroke-width: 4;stroke-linecap:round;stroke-linejoin:round" fill="none"/>
			<polyline points="5350,1982 5359,1982" style="stroke: black;stroke-width: 4;stroke-linecap:round;stroke-linejoin:round" fill="none"/>
			<polyline points="5350,2016 5350,1948" style="stroke: black;stroke-width: 4;stroke-linecap:round;stroke-linejoin:round" fill="none"/>
			<polyline points="2160,1873 2163,1872 2167,1871 2170,1870 2173,1869 2176,1868 2179,1867 2183,1866 2186,1865 2189,1864 2192,1863 2195,1862 2199,1860 2202,1859 2205,1858 2208,1857 2211,1856 2215,1855 2218,1854 2221,1852 2224,1851 2228,1850 2231,1849 2234,1848 2237,1846 2240,1845 2244,1844 2247,1843 2250,1841 2253,1840 2256,1839 2260,1837 2263,1836 2266,1835 2269,1833 2272,1832 2276,1830 2279,1829 2282,1827 2285,1826 2288,1824 2292,1823 2295,1821 2298,1820 2301,1818 2304,1817 2308,1815 2311,1813 2314,1812 2317,1810 2321,1808 2324,1806 2327,1805 2330,1803 2333,1801 2337,1799 2340,1797 2343,1795 2346,1793 2349,1792 2353,1790 2356,1788 2359,1786 2362,1783 2365,1781 2369,1779 2372,1777 2375,1775 2378,1773 2381,1770 2385,1768 2388,1766 2391,1763 2394,1761 2397,1759 2401,1756 2404,1754 2407,1751 2410,1748 2413,1746 2417,1743 2420,1740 2423,1738 2426,1735 2430,1732 2433,1729 2436,1726 2439,1723 2442,1720 2446,1717 2449,1714 2452,1710 2455,1707 2458,1704 2462,1700 2465,1697 2468,1693 2471,1690 2474,1686 2478,1682 2481,1678 2484,1674 2487,1670 2490,1666 2494,1662 2497,1658 2500,1654 2503,1649 2506,1645 2510,1640 2513,1635 2516,1631 2519,1626 2522,1621 2526,1615 2529,1610 2532,1605 2535,1599 2539,1594 2542,1588 2545,1582 2548,1576 2551,1570 2555,1563 2558,1557 2561,1550 2564,1543 2567,1536 2571,1529 2574,1521 2577,1514 2580,1506 2583,1498 2587,1490 2590,1481 2593,1472 2596,1463 2599,1454 2603,1444 2606,1434 2609,1424 2612,1414 2615,1403 2619,1391 2622,1380 2625,1368 2628,1355 2632,1342 2635,1329 2638,1315 2641,1301 2644,1286 2648,1270 2651,1254 2654,1238 2657,1220 2660,1202 2664,1183 2667,1163 2670,1143 2673,1121 2676,1098 2680,1075 2683,1050 2686,1024 2689,996 2692,967 2696,937 2699,905 2702,871 2705,835 2708,797 2712,756 2715,713 2718,667 2721,617 2724,564 2728,508 2731,446 2734,380 2737,309 2741,231 2744,146 2747,53 2750,-50 2753,-163 2757,-289 2760,-429 2763,-588 2766,-767 2769,-973 2773,-1209 2776,-1486 2779,-1813 2782,-2206 2785,-2686 2789,-3287 2792,-4061 2795,-5095 2798,-6545 2801,-8727 2805,-12382 2808,-19762 2811,-42477 2814,1146290 2817,43459 2821,23161 2824,16228 2827,12730 2830,10620 2833,9210 2837,8200 2840,7442 2843,6851 2846,6378 2850,5991 2853,5668 2856,5395 2859,5161 2862,4957 2866,4780 2869,4623 2872,4483 2875,4359 2878,4246 2882,4145 2885,4052 2888,3968 2891,3890 2894,3819 2898,3754 2901,3693 2904,3636 2907,3584 2910,3535 2914,3489 2917,3446 2920,3405 2923,3367 2926,3332 2930,3298 2933,3266 2936,3235 2939,3207 2943,3179 2946,3153 2949,3129 2952,3105 2955,3083 2959,3061 2962,3041 2965,3021 2968,3002 2971,2984 2975,2967 2978,2950 2981,2934 2984,2919 2987,2904 2991,2889 2994,2876 2997,2862 3000,2850 3003,2837 3007,2825 3010,2814 3013,2803 3016,2792 3019,2781 3023,2771 3026,2761 3029,2752 3032,2743 3035,2734 3039,2725 3042,2716 3045,2708 3048,2700 3052,2692 3055,2685 3058,2678 3061,2670 3064,2663 3068,2657 3071,2650 3074,2644 3077,2637 3080,2631 3084,2625 3087,2619 3090,2614 3093,2608 3096,2603 3100,2597 3103,2592 3106,2587 3109,2582 3112,2577 3116,2573 3119,2568 3122,2564 3125,2559 3128,2555 3132,2551 3135,2546 3138,2542 3141,2538 3144,2534 3148,2531 3151,2527 3154,2523 3157,2520 3161,2516 3164,2513 3167,2509 3170,2506 3173,2503 3177,2500 3180,2496 3183,2493 3186,2490 3189,2487 3193,2484 3196,2482 3199,2479 3202,2476 3205,2473 3209,2471 3212,2468 3215,2465 3218,2463 3221,2460 3225,2458 3228,2456 3231,2453 3234,2451 3237,2449 3241,2446 3244,2444 3247,2442 3250,2440 3254,2438 3257,2436 3260,2434 3263,2432 3266,2430 3270,2428 3273,2426 3276,2424 3279,2422 3282,2421 3286,2419 3289,2417 3292,2415 3295,2414 3298,2412 3302,2410 3305,2409 3308,2407 3311,2406 3314,2404 3318,2403 3321,2401 3324,2400 3327,2398 3330,2397 3334,2395 3337,2394 3340,2393 3343,2391 3346,2390 3350,2389 3353,2387 3356,2386 3359,2385 3363,2384 3366,2382 3369,2381 3372,2380 3375,2379 3379,2378 3382,2377 3385,2376 3388,2375 3391,2373 3395,2372 3398,2371 3401,2370 3404,2369 3407,2368 3411,2367 3414,2366 3417,2365 3420,2365 3423,2364 3427,2363 3430,2362 3433,2361 3436,2360 3439,2359 3443,2358 3446,2358 3449,2357 3452,2356 3455,2355 3459,2354 3462,2354 3465,2353 3468,2352 3472,2351 3475,2351 3478,2350 3481,2349 3484,2349 3488,2348 3491,2347 3494,2347 3497,2346 3500,2345 3504,2345 3507,2344 3510,2344 3513,2343 3516,2342 3520,2342 3523,2341 3526,2341 3529,2340 3532,2340 3536,2339 3539,2339 3542,2338 3545,2338 3548,2337 3552,2337 3555,2336 3558,2336 3561,2335 3565,2335 3568,2335 3571,2334 3574,2334 3577,2333 3581,2333 3584,2333 3587,2332 3590,2332 3593,2331 3597,2331 3600,2331 3603,2330 3606,2330 3609,2330 3613,2329 3616,2329 3619,2329 3622,2329 3625,2328 3629,2328 3632,2328 3635,2327 3638,2327 3641,2327 3645,2327 3648,2327 3651,2326 3654,2326 3657,2326 3661,2326 3664,2326 3667,2325 3670,2325 3674,2325 3677,2325 3680,2325 3683,2325 3686,2324 3690,2324 3693,2324 3696,2324 3699,2324 3702,2324 3706,2324 3709,2324 3712,2324 3715,2323 3718,2323 3722,2323 3725,2323 3728,2323 3731,2323 3734,2323 3738,2323 3741,2323 3744,2323 3747,2323 3750,2323 3754,2323 3757,2323 3760,2323 3763,2323 3766,2323 3770,2323 3773,2323 3776,2323 3779,2323 3783,2323 3786,2324 3789,2324 3792,2324 3795,2324 3799,2324 3802,2324 3805,2324 3808,2324 3811,2324 3815,2325 3818,2325 3821,2325 3824,2325 3827,2325 3831,2325 3834,2326 3837,2326 3840,2326 3843,2326 3847,2326 3850,2327 3853,2327 3856,2327 3859,2327 3863,2328 3866,2328 3869,2328 3872,2328 3876,2329 3879,2329 3882,2329 3885,2330 3888,2330 3892,2330 3895,2331 3898,2331 3901,2331 3904,2332 3908,2332 3911,2332 3914,2333 3917,2333 3920,2333 3924,2334 3927,2334 3930,2335 3933,2335 3936,2336 3940,2336 3943,2336 3946,2337 3949,2337 3952,2338 3956,2338 3959,2339 3962,2339 3965,2340 3968,2340 3972,2341 3975,2341 3978,2342 3981,2343 3985,2343 3988,2344 3991,2344 3994,2345 3997,2346 4001,2346 4004,2347 4007,2348 4010,2348 4013,2349 4017,2350 4020,2350 4023,2351 4026,2352 4029,2352 4033,2353 4036,2354 4039,2355 4042,2355 4045,2356 4049,2357 4052,2358 4055,2359 4058,2360 4061,2360 4065,2361 4068,2362 4071,2363 4074,2364 4077,2365 4081,2366 4084,2367 4087,2368 4090,2369 4094,2370 4097,2371 4100,2372 4103,2373 4106,2374 4110,2375 4113,2376 4116,2377 4119,2378 4122,2379 4126,2380 4129,2382 4132,2383 4135,2384 4138,2385 4142,2387 4145,2388 4148,2389 4151,2390 4154,2392 4158,2393 4161,2394 4164,2396 4167,2397 4170,2399 4174,2400 4177,2402 4180,2403 4183,2405 4187,2406 4190,2408 4193,2409 4196,2411 4199,2413 4203,2414 4206,2416 4209,2418 4212,2419 4215,2421 4219,2423 4222,2425 4225,2427 4228,2429 4231,2431 4235,2433 4238,2435 4241,2437 4244,2439 4247,2441 4251,2443 4254,2445 4257,2447 4260,2449 4263,2452 4267,2454 4270,2456 4273,2459 4276,2461 4279,2464 4283,2466 4286,2469 4289,2471 4292,2474 4296,2477 4299,2480 4302,2482 4305,2485 4308,2488 4312,2491 4315,2494 4318,2497 4321,2501 4324,2504 4328,2507 4331,2510 4334,2514 4337,2517 4340,2521 4344,2524 4347,2528 4350,2532 4353,2536 4356,2540 4360,2544 4363,2548 4366,2552 4369,2556 4372,2561 4376,2565 4379,2570 4382,2574 4385,2579 4388,2584 4392,2589 4395,2594 4398,2599 4401,2604" style="stroke: red;stroke-width: 4;stroke-linecap:round;stroke-linejoin:round" fill="none"/>
			<polyline points="4401,2604 4405,2610 4408,2615 4411,2621 4414,2627 4417,2633 4421,2639 4424,2646 4427,2652 4430,2659 4433,2666 4437,2673 4440,2680 4443,2687 4446,2695 4449,2703 4453,2711 4456,2719 4459,2728 4462,2736 4465,2746 4469,2755 4472,2765 4475,2774 4478,2785 4481,2795 4485,2806 4488,2817 4491,2829 4494,2841 4498,2854 4501,2867 4504,2880 4507,2894 4510,2909 4514,2924 4517,2939 4520,2955 4523,2972 4526,2990 4530,3008 4533,3027 4536,3047 4539,3068 4542,3090 4546,3113 4549,3137 4552,3162 4555,3188 4558,3216 4562,3245 4565,3276 4568,3308 4571,3343 4574,3379 4578,3418 4581,3459 4584,3503 4587,3550 4590,3600 4594,3654 4597,3712 4600,3774 4603,3842 4607,3915 4610,3994 4613,4081 4616,4176 4619,4281 4623,4398 4626,4527 4629,4672 4632,4835 4635,5020 4639,5233 4642,5479 4645,5767 4648,6109 4651,6521 4655,7028 4658,7667 4661,8495 4664,9614 4667,11208 4671,13660 4674,17921 4677,27158 4680,62323 4683,-147140 4687,-31224 4690,-16655 4693,-10950 4696,-7906 4699,-6013 4703,-4723 4706,-3786 4709,-3076 4712,-2519 4716,-2070 4719,-1700 4722,-1391 4725,-1129 4728,-903 4732,-706 4735,-534 4738,-382 4741,-246 4744,-125 4748,-15 4751,84 4754,174 4757,257 4760,333 4764,402 4767,467 4770,526 4773,582 4776,634 4780,682 4783,727 4786,769 4789,809 4792,847 4796,882 4799,915 4802,947 4805,977 4809,1005 4812,1032 4815,1058 4818,1083 4821,1106 4825,1128 4828,1149 4831,1170 4834,1189 4837,1208 4841,1226 4844,1243 4847,1260 4850,1276 4853,1291 4857,1306 4860,1320 4863,1333 4866,1347 4869,1359 4873,1372 4876,1384 4879,1395 4882,1406 4885,1417 4889,1427 4892,1438 4895,1447 4898,1457 4901,1466 4905,1475 4908,1484 4911,1492 4914,1501 4918,1509 4921,1516 4924,1524 4927,1531 4930,1538 4934,1545 4937,1552 4940,1559 4943,1565 4946,1572 4950,1578 4953,1584 4956,1590 4959,1595 4962,1601 4966,1607 4969,1612 4972,1617 4975,1622 4978,1627 4982,1632 4985,1637 4988,1642 4991,1646 4994,1651 4998,1655 5001,1659 5004,1664 5007,1668 5010,1672 5014,1676 5017,1680 5020,1683 5023,1687 5027,1691 5030,1694 5033,1698 5036,1701 5039,1705 5043,1708 5046,1711 5049,1715 5052,1718 5055,1721 5059,1724 5062,1727 5065,1730 5068,1733 5071,1736 5075,1739 5078,1741 5081,1744 5084,1747 5087,1749 5091,1752 5094,1754 5097,1757 5100,1759 5103,1762 5107,1764 5110,1767 5113,1769 5116,1771 5120,1773 5123,1776 5126,1778 5129,1780 5132,1782 5136,1784 5139,1786 5142,1788 5145,1790 5148,1792 5152,1794 5155,1796 5158,1798 5161,1800 5164,1802 5168,1803 5171,1805 5174,1807 5177,1809 5180,1810 5184,1812 5187,1814 5190,1815 5193,1817 5196,1819 5200,1820 5203,1822 5206,1823 5209,1825 5212,1826 5216,1828 5219,1829 5222,1831 5225,1832 5229,1834 5232,1835 5235,1836 5238,1838 5241,1839 5245,1840 5248,1842 5251,1843 5254,1844 5257,1846 5261,1847 5264,1848 5267,1849 5270,1850 5273,1852 5277,1853 5280,1854 5283,1855 5286,1856 5289,1857 5293,1859 5296,1860 5299,1861 5302,1862 5305,1863 5309,1864 5312,1865 5315,1866 5318,1867 5321,1868 5325,1869 5328,1870 5331,1871 5334,1872 5338,1873 5341,1874 5344,1875 5347,1876 5350,1877 5354,1878 5357,1879 5360,1880 5363,1880" style="stroke: red;stroke-width: 4;stroke-linecap:round;stroke-linejoin:round" fill="none"/>
		</g>
		<text x="0" dominant-baseline="auto" y="0" fill="black" font-family="Arial,'MS PGothic',SimSun" font-size="184" font-weight="400" transform="matrix(-1.83697e-16 -1 1 -1.83697e-16 861 2631)">
			<tspan x="0" style="white-space:pre;font-kerning:none" xml:space="preserve">E (V/cm)</tspan>
		</text>
		<text x="2938" dominant-baseline="auto" y="4509" fill="black" font-family="Arial,'MS PGothic',SimSun" font-size="184" font-weight="400">
			<tspan x="2938" style="white-space:pre;font-kerning:none" xml:space="preserve">X Position (cm)</tspan>
		</text>
		<polygon points="3654,128 6394,128 6394,507 3654,507" shape-rendering="crispEdges" fill="white" fill-rule="evenodd" style="stroke: black;stroke-width: 4;stroke-linecap:square;stroke-linejoin:miter;stroke-miterlimit:10"/>
		<rect x="3831" y="224" width="7" height="7" shape-rendering="crispEdges" fill="black" fill-rule="evenodd" style="stroke: black;stroke-width: 1"/>
		<text x="3998" dominant-baseline="auto" y="278" fill="black" font-family="Arial,'MS PGothic',SimSun" font-size="146" font-weight="400">
			<tspan x="3998" style="white-space:pre;font-kerning:none" xml:space="preserve"> </tspan>
		</text>
		<text x="4039" dominant-baseline="auto" y="278" fill="black" font-family="Arial,'MS PGothic',SimSun" font-size="146" font-weight="400">
			<tspan x="4039" style="font-kerning:none">E</tspan>
		</text>
		<polyline points="3672,407 3998,407" style="stroke: red;stroke-width: 4;stroke-linecap:round;stroke-linejoin:round" fill="none"/>
		<text x="3998" dominant-baseline="auto" y="457" fill="black" font-family="Arial,'MS PGothic',SimSun" font-size="146" font-weight="400">
			<tspan x="3998" style="white-space:pre;font-kerning:none" xml:space="preserve"> Fit for theoretical Electrostatic Force</tspan>
		</text>
		<defs>
			<mask id="Cp_2">
				<rect x="1360" y="2263" width="1364" height="940" fill="white"/>
			</mask>
		</defs>
		<g mask="url(#Cp_2)">
			<rect x="0" y="0" width="6849" height="4785" visibility="hidden" fill="none" opacity="0"/>
			<polygon points="1385,2288 2700,2288 2700,2382 1385,2382" shape-rendering="crispEdges" fill="white" fill-rule="evenodd" stroke="none"/>
			<text x="1403" dominant-baseline="auto" y="2348" fill="black" font-family="Arial,'MS PGothic',SimSun" font-size="58" font-weight="400">
				<tspan x="1403 1446 1479 1512 1545">Model</tspan>
			</text>
			<text x="2069" dominant-baseline="auto" y="2344" fill="black" font-family="Arial,'MS PGothic',SimSun" font-size="58" font-weight="400">
				<tspan x="2069 2102 2113 2146 2179 2195 2217 2250 2283 2299 2332 2348 2359 2392 2408 2441 2474 2496 2529" style="white-space:pre" xml:space="preserve">Electrostatic Force</tspan>
			</text>
			<polygon points="1385,2382 2700,2382 2700,2471 1385,2471" shape-rendering="crispEdges" fill="white" fill-rule="evenodd" stroke="none"/>
			<text x="1403" dominant-baseline="auto" y="2438" fill="black" font-family="Arial,'MS PGothic',SimSun" font-size="58" font-weight="400">
				<tspan x="1403 1436 1469 1502 1535 1551 1562 1595">Equation</tspan>
			</text>
			<text x="1950" dominant-baseline="auto" y="2435" fill="black" font-family="Arial,'MS PGothic',SimSun" font-size="58" font-weight="400">
				<tspan x="1950 1988 2010 2032 2065 2081 2103 2136 2158 2201 2234 2272 2294 2316 2349 2365 2387 2420 2453 2496 2529 2567 2589 2611 2644">B*(1/(x-A+D)-1/(x+A+D))+C</tspan>
			</text>
			<polygon points="1385,2471 2700,2471 2700,2560 1385,2560" shape-rendering="crispEdges" fill="white" fill-rule="evenodd" stroke="none"/>
			<text x="1403" dominant-baseline="auto" y="2527" fill="black" font-family="Arial,'MS PGothic',SimSun" font-size="58" font-weight="400">
				<tspan x="1403 1436 1447 1480">Plot</tspan>
			</text>
			<text x="2297" dominant-baseline="auto" y="2524" fill="black" font-family="Arial,'MS PGothic',SimSun" font-size="58" font-weight="400">
				<tspan x="2297">E</tspan>
			</text>
			<polygon points="1385,2560 2700,2560 2700,2649 1385,2649" shape-rendering="crispEdges" fill="white" fill-rule="evenodd" stroke="none"/>
			<text x="1403" dominant-baseline="auto" y="2616" fill="black" font-family="Arial,'MS PGothic',SimSun" font-size="58" font-weight="400">
				<tspan x="1403">A</tspan>
			</text>
			<text x="2200" dominant-baseline="auto" y="2613" fill="black" font-family="Arial,'MS PGothic',SimSun" font-size="58" font-weight="400">
				<tspan x="2200 2233 2249 2282 2298 2331 2347 2380 2396" style="white-space:pre" xml:space="preserve">7.0 ± 0.4</tspan>
			</text>
			<polygon points="1385,2649 2700,2649 2700,2738 1385,2738" shape-rendering="crispEdges" fill="white" fill-rule="evenodd" stroke="none"/>
			<text x="1403" dominant-baseline="auto" y="2705" fill="black" font-family="Arial,'MS PGothic',SimSun" font-size="58" font-weight="400">
				<tspan x="1403">B</tspan>
			</text>
			<text x="2200" dominant-baseline="auto" y="2702" fill="black" font-family="Arial,'MS PGothic',SimSun" font-size="58" font-weight="400">
				<tspan x="2200 2233 2249 2282 2298 2331 2347 2380 2396" style="white-space:pre" xml:space="preserve">2.1 ± 0.4</tspan>
			</text>
			<polygon points="1385,2738 2700,2738 2700,2827 1385,2827" shape-rendering="crispEdges" fill="white" fill-rule="evenodd" stroke="none"/>
			<text x="1403" dominant-baseline="auto" y="2794" fill="black" font-family="Arial,'MS PGothic',SimSun" font-size="58" font-weight="400">
				<tspan x="1403">C</tspan>
			</text>
			<text x="2224" dominant-baseline="auto" y="2791" fill="black" font-family="Arial,'MS PGothic',SimSun" font-size="58" font-weight="400">
				<tspan x="2224 2257 2273 2306 2322 2355 2371" style="white-space:pre" xml:space="preserve">0 ± 0.1</tspan>
			</text>
			<polygon points="1385,2827 2700,2827 2700,2916 1385,2916" shape-rendering="crispEdges" fill="white" fill-rule="evenodd" stroke="none"/>
			<text x="1403" dominant-baseline="auto" y="2883" fill="black" font-family="Arial,'MS PGothic',SimSun" font-size="58" font-weight="400">
				<tspan x="1403">D</tspan>
			</text>
			<text x="2200" dominant-baseline="auto" y="2880" fill="black" font-family="Arial,'MS PGothic',SimSun" font-size="58" font-weight="400">
				<tspan x="2200 2233 2249 2282 2298 2331 2347 2380 2396" style="white-space:pre" xml:space="preserve">1.1 ± 0.4</tspan>
			</text>
			<polygon points="1385,2916 2700,2916 2700,3005 1385,3005" shape-rendering="crispEdges" fill="white" fill-rule="evenodd" stroke="none"/>
			<text x="1403" dominant-baseline="auto" y="2972" fill="black" font-family="Arial,'MS PGothic',SimSun" font-size="58" font-weight="400">
				<tspan x="1403 1441 1474 1507 1540 1573 1606 1639 1655 1693 1726 1737 1759 1797 1830" style="white-space:pre" xml:space="preserve">Reduced Chi-Sqr</tspan>
			</text>
			<text x="2191" dominant-baseline="auto" y="2969" fill="black" font-family="Arial,'MS PGothic',SimSun" font-size="58" font-weight="400">
				<tspan x="2191 2224 2257 2290 2306 2339 2372 2405">285.4001</tspan>
			</text>
			<polygon points="1385,3005 2700,3005 2700,3094 1385,3094" shape-rendering="crispEdges" fill="white" fill-rule="evenodd" stroke="none"/>
			<text x="1403" dominant-baseline="auto" y="3061" fill="black" font-family="Arial,'MS PGothic',SimSun" font-size="58" font-weight="400">
				<tspan x="1403 1441 1463 1501 1534 1567 1600 1622 1655 1671 1693 1731 1774 1812" style="white-space:pre" xml:space="preserve">R-Square (COD)</tspan>
			</text>
			<text x="2240" dominant-baseline="auto" y="3058" fill="black" font-family="Arial,'MS PGothic',SimSun" font-size="58" font-weight="400">
				<tspan x="2240 2273 2289 2322 2355">0.329</tspan>
			</text>
			<polygon points="1385,3094 2700,3094 2700,3183 1385,3183" shape-rendering="crispEdges" fill="white" fill-rule="evenodd" stroke="none"/>
			<text x="1403" dominant-baseline="auto" y="3150" fill="black" font-family="Arial,'MS PGothic',SimSun" font-size="58" font-weight="400">
				<tspan x="1403 1446 1479 1490 1506 1522 1560 1582 1620 1653 1686 1719 1741" style="white-space:pre" xml:space="preserve">Adj. R-Square</tspan>
			</text>
			<text x="2208" dominant-baseline="auto" y="3147" fill="black" font-family="Arial,'MS PGothic',SimSun" font-size="58" font-weight="400">
				<tspan x="2208 2241 2257 2290 2323 2356 2389">0.12771</tspan>
			</text>
			<path d="M 1384,2287 L 2699,2287" style="stroke: black;stroke-width: 3;stroke-linecap:round;stroke-linejoin:round" fill="none"/>
			<path d="M 1384,2381 L 2699,2381" style="stroke: black;stroke-width: 3;stroke-linecap:round;stroke-linejoin:round" fill="none"/>
			<path d="M 1384,2470 L 2699,2470" style="stroke: black;stroke-width: 3;stroke-linecap:round;stroke-linejoin:round" fill="none"/>
			<path d="M 1384,2559 L 2699,2559" style="stroke: black;stroke-width: 3;stroke-linecap:round;stroke-linejoin:round" fill="none"/>
			<path d="M 1384,2648 L 2699,2648" style="stroke: black;stroke-width: 3;stroke-linecap:round;stroke-linejoin:round" fill="none"/>
			<path d="M 1384,2737 L 2699,2737" style="stroke: black;stroke-width: 3;stroke-linecap:round;stroke-linejoin:round" fill="none"/>
			<path d="M 1384,2826 L 2699,2826" style="stroke: black;stroke-width: 3;stroke-linecap:round;stroke-linejoin:round" fill="none"/>
			<path d="M 1384,2915 L 2699,2915" style="stroke: black;stroke-width: 3;stroke-linecap:round;stroke-linejoin:round" fill="none"/>
			<path d="M 1384,3004 L 2699,3004" style="stroke: black;stroke-width: 3;stroke-linecap:round;stroke-linejoin:round" fill="none"/>
			<path d="M 1384,3093 L 2699,3093" style="stroke: black;stroke-width: 3;stroke-linecap:round;stroke-linejoin:round" fill="none"/>
			<path d="M 1384,3182 L 2699,3182" style="stroke: black;stroke-width: 3;stroke-linecap:round;stroke-linejoin:round" fill="none"/>
			<path d="M 1384,2287 L 1384,3182" style="stroke: black;stroke-width: 3;stroke-linecap:round;stroke-linejoin:round" fill="none"/>
			<path d="M 1922,2287 L 1922,3182" style="stroke: black;stroke-width: 3;stroke-linecap:round;stroke-linejoin:round" fill="none"/>
			<path d="M 2699,2287 L 2699,3182" style="stroke: black;stroke-width: 3;stroke-linecap:round;stroke-linejoin:round" fill="none"/>
		</g>
		<text x="1331" dominant-baseline="auto" y="259" fill="black" font-family="Arial,'MS PGothic',SimSun" font-size="125" font-weight="400">
			<tspan x="1331" style="white-space:pre;font-kerning:none" xml:space="preserve">Lauren, Trevor, and Alvin</tspan>
		</text>
		<text x="1331" dominant-baseline="auto" y="412" fill="black" font-family="Arial,'MS PGothic',SimSun" font-size="125" font-weight="400">
			<tspan x="1331" style="white-space:pre;font-kerning:none" xml:space="preserve">Electric Force vs. X Position</tspan>
		</text>
		<text x="1331" dominant-baseline="auto" y="565" fill="black" font-family="Arial,'MS PGothic',SimSun" font-size="125" font-weight="400">
			<tspan x="1331" style="white-space:pre;font-kerning:none" xml:space="preserve">for point charge dipole</tspan>
		</text>
		<text x="1331" dominant-baseline="auto" y="718" fill="black" font-family="Arial,'MS PGothic',SimSun" font-size="125" font-weight="400">
			<tspan x="1331" style="white-space:pre;font-kerning:none" xml:space="preserve">with separation of 14cm</tspan>
		</text>
	</svg>
</svg>

