<?xml version="1.0" encoding="UTF-8" standalone="no"?>
<!-- Created with Inkscape (http://www.inkscape.org/) -->

<svg
   width="73.574516mm"
   height="69.266731mm"
   viewBox="0 0 73.574516 69.266731"
   version="1.1"
   id="svg1"
   inkscape:version="1.3.2 (091e20ef0f, 2023-11-25)"
   sodipodi:docname="5bii.svg"
   xmlns:inkscape="http://www.inkscape.org/namespaces/inkscape"
   xmlns:sodipodi="http://sodipodi.sourceforge.net/DTD/sodipodi-0.dtd"
   xmlns="http://www.w3.org/2000/svg"
   xmlns:svg="http://www.w3.org/2000/svg">
  <sodipodi:namedview
     id="namedview1"
     pagecolor="#ffffff"
     bordercolor="#000000"
     borderopacity="0.25"
     inkscape:showpageshadow="2"
     inkscape:pageopacity="0.0"
     inkscape:pagecheckerboard="0"
     inkscape:deskcolor="#d1d1d1"
     inkscape:document-units="mm"
     inkscape:zoom="2"
     inkscape:cx="144.75"
     inkscape:cy="69"
     inkscape:window-width="2560"
     inkscape:window-height="1440"
     inkscape:window-x="2560"
     inkscape:window-y="0"
     inkscape:window-maximized="0"
     inkscape:current-layer="layer1">
    <inkscape:page
       x="0"
       y="0"
       width="73.574516"
       height="69.266731"
       id="page4"
       margin="5"
       bleed="0"
       inkscape:export-filename="5biie.svg"
       inkscape:export-xdpi="96"
       inkscape:export-ydpi="96" />
  </sodipodi:namedview>
  <defs
     id="defs1">
    <marker
       style="overflow:visible"
       id="ArrowWideRounded"
       refX="0"
       refY="0"
       orient="auto-start-reverse"
       inkscape:stockid="Wide, rounded arrow"
       markerWidth="1"
       markerHeight="1"
       viewBox="0 0 1 1"
       inkscape:isstock="true"
       inkscape:collect="always"
       preserveAspectRatio="xMidYMid">
      <path
         style="fill:none;stroke:context-stroke;stroke-width:1;stroke-linecap:round"
         d="M 3,-3 0,0 3,3"
         transform="rotate(180,0.125,0)"
         sodipodi:nodetypes="ccc"
         id="path2" />
    </marker>
    <marker
       style="overflow:visible"
       id="ArrowWideRounded-4"
       refX="0"
       refY="0"
       orient="auto-start-reverse"
       inkscape:stockid="Wide, rounded arrow"
       markerWidth="1"
       markerHeight="1"
       viewBox="0 0 1 1"
       inkscape:isstock="true"
       inkscape:collect="always"
       preserveAspectRatio="xMidYMid">
      <path
         style="fill:none;stroke:context-stroke;stroke-width:1;stroke-linecap:round"
         d="M 3,-3 0,0 3,3"
         transform="rotate(180,0.125,0)"
         sodipodi:nodetypes="ccc"
         id="path2-9" />
    </marker>
    <marker
       style="overflow:visible"
       id="ArrowWideRounded-9"
       refX="0"
       refY="0"
       orient="auto-start-reverse"
       inkscape:stockid="Wide, rounded arrow"
       markerWidth="1"
       markerHeight="1"
       viewBox="0 0 1 1"
       inkscape:isstock="true"
       inkscape:collect="always"
       preserveAspectRatio="xMidYMid">
      <path
         style="fill:none;stroke:context-stroke;stroke-width:1;stroke-linecap:round"
         d="M 3,-3 0,0 3,3"
         transform="rotate(180,0.125,0)"
         sodipodi:nodetypes="ccc"
         id="path2-7" />
    </marker>
  </defs>
  <g
     inkscape:label="Layer 1"
     inkscape:groupmode="layer"
     id="layer1"
     transform="translate(-30.167194,-41.189726)">
    <path
       style="fill:none;stroke:#000000;stroke-width:0.499999;stroke-linecap:round;stroke-linejoin:round;stroke-dasharray:none;marker-mid:url(#ArrowWideRounded)"
       d="m 56.969108,75.823091 h 9.985349 9.985347"
       id="path4"
       sodipodi:nodetypes="ccc" />
    <path
       style="fill:none;stroke:#000000;stroke-width:0.499999;stroke-linecap:round;stroke-linejoin:round;stroke-dasharray:none;marker-mid:url(#ArrowWideRounded)"
       d="m 56.969108,75.823091 c 0,0 3.652954,-5.988168 9.551485,-6.009688 2.965192,-0.01082 6.497859,1.48618 10.419211,6.009688"
       id="path5"
       sodipodi:nodetypes="csc" />
    <path
       style="fill:none;stroke:#000000;stroke-width:0.499999;stroke-linecap:round;stroke-linejoin:round;stroke-dasharray:none;marker-mid:url(#ArrowWideRounded)"
       d="m 56.969108,75.823091 c 0,0 0.307312,-13.829243 9.415428,-13.829243 9.108116,0 10.555268,13.829243 10.555268,13.829243"
       id="path6" />
    <path
       style="fill:none;stroke:#000000;stroke-width:0.499999;stroke-linecap:round;stroke-linejoin:round;stroke-dasharray:none;marker-mid:url(#ArrowWideRounded)"
       d="m 56.969108,75.823091 c 0,0 -6.078039,-8.054052 -1.302437,-15.579239 2.268698,-3.574916 6.274296,-5.415846 10.270617,-5.634273 4.415923,-0.24136 8.820518,1.498386 10.857802,5.068825 4.61913,8.095251 0.144714,16.144687 0.144714,16.144687"
       id="path7"
       sodipodi:nodetypes="csssc" />
    <path
       style="fill:none;stroke:#000000;stroke-width:0.499999;stroke-linecap:round;stroke-linejoin:round;stroke-dasharray:none;marker-mid:url(#ArrowWideRounded)"
       d="m 56.969108,75.823091 c 0,0 -10.279787,-7.634649 -10.412168,-13.250383 -0.131194,-5.565386 4.723848,-11.084884 9.688592,-13.603228 6.589873,-3.342683 15.813136,-3.484901 22.165645,0.289431 4.565894,2.712817 8.119621,8.591222 7.800957,13.892658 -0.314038,5.224472 -9.27233,12.671522 -9.27233,12.671522"
       id="path8"
       sodipodi:nodetypes="caaaac" />
    <path
       style="fill:none;stroke:#000000;stroke-width:0.499999;stroke-linecap:round;stroke-linejoin:round;stroke-dasharray:none;marker-mid:url(#ArrowWideRounded-4)"
       d="m 56.969108,75.823091 c 0,0 3.652954,5.988168 9.551485,6.009688 2.965192,0.01082 6.497859,-1.48618 10.419211,-6.009688"
       id="path5-1"
       sodipodi:nodetypes="csc" />
    <path
       style="fill:none;stroke:#000000;stroke-width:0.499999;stroke-linecap:round;stroke-linejoin:round;stroke-dasharray:none;marker-mid:url(#ArrowWideRounded-4)"
       d="m 56.969108,75.823091 c 0,0 0.307312,13.829243 9.415428,13.829243 9.108116,0 10.555268,-13.829243 10.555268,-13.829243"
       id="path6-7" />
    <path
       style="fill:none;stroke:#000000;stroke-width:0.499999;stroke-linecap:round;stroke-linejoin:round;stroke-dasharray:none;marker-mid:url(#ArrowWideRounded-4)"
       d="m 56.969108,75.823091 c 0,0 -6.078039,8.054052 -1.302437,15.579239 2.268698,3.574916 6.274296,5.415846 10.270617,5.634273 4.415923,0.24136 8.820518,-1.498386 10.857802,-5.068825 4.61913,-8.095251 0.144714,-16.144687 0.144714,-16.144687"
       id="path7-7"
       sodipodi:nodetypes="csssc" />
    <path
       style="fill:none;stroke:#000000;stroke-width:0.499999;stroke-linecap:round;stroke-linejoin:round;stroke-dasharray:none;marker-mid:url(#ArrowWideRounded-4)"
       d="m 56.969108,75.823091 c 0,0 -10.279787,7.634649 -10.412168,13.250383 -0.131194,5.565386 4.723848,11.084886 9.688592,13.603226 6.589873,3.34269 15.813136,3.4849 22.165645,-0.28943 4.565894,-2.71282 8.119621,-8.591221 7.800957,-13.892657 -0.314038,-5.224472 -9.27233,-12.671522 -9.27233,-12.671522"
       id="path8-1"
       sodipodi:nodetypes="caaaac" />
    <path
       style="fill:none;stroke:#000000;stroke-width:0.499999;stroke-linecap:round;stroke-linejoin:round;stroke-dasharray:none;marker-mid:url(#ArrowWideRounded)"
       d="M 56.969108,75.823091 H 46.571066 35.417194"
       id="path9"
       sodipodi:nodetypes="ccc" />
    <path
       style="fill:none;stroke:#000000;stroke-width:0.499999;stroke-linecap:round;stroke-linejoin:round;stroke-dasharray:none;marker-mid:url(#ArrowWideRounded-9)"
       d="M 98.491714,75.823091 H 88.093676 76.939804"
       id="path9-6"
       sodipodi:nodetypes="ccc" />
  </g>
</svg>
