<?xml version="1.0" encoding="UTF-8" standalone="no"?>
<!-- Created with Inkscape (http://www.inkscape.org/) -->

<svg
   width="40.050861mm"
   height="43.243473mm"
   viewBox="0 0 40.050861 43.243473"
   version="1.1"
   id="svg1"
   inkscape:version="1.3.2 (091e20ef0f, 2023-11-25)"
   sodipodi:docname="20.svg"
   xmlns:inkscape="http://www.inkscape.org/namespaces/inkscape"
   xmlns:sodipodi="http://sodipodi.sourceforge.net/DTD/sodipodi-0.dtd"
   xmlns="http://www.w3.org/2000/svg"
   xmlns:svg="http://www.w3.org/2000/svg">
  <sodipodi:namedview
     id="namedview1"
     pagecolor="#ffffff"
     bordercolor="#000000"
     borderopacity="0.25"
     inkscape:showpageshadow="2"
     inkscape:pageopacity="0.0"
     inkscape:pagecheckerboard="0"
     inkscape:deskcolor="#d1d1d1"
     inkscape:document-units="mm"
     inkscape:zoom="4.6609428"
     inkscape:cx="101.37434"
     inkscape:cy="91.612367"
     inkscape:window-width="2560"
     inkscape:window-height="1600"
     inkscape:window-x="0"
     inkscape:window-y="0"
     inkscape:window-maximized="1"
     inkscape:current-layer="layer1">
    <inkscape:page
       x="0"
       y="0"
       width="40.050861"
       height="43.243473"
       id="page1"
       margin="5.0000005"
       bleed="0" />
  </sodipodi:namedview>
  <defs
     id="defs1">
    <clipPath
       clipPathUnits="userSpaceOnUse"
       id="clipPath3681">
      <path
         d="m 237,549.16 h 85.325 v 95.504 H 237 Z"
         transform="translate(-320.64998,-581.44002)"
         id="path3681" />
    </clipPath>
    <clipPath
       clipPathUnits="userSpaceOnUse"
       id="clipPath3678">
      <path
         d="m 237,549.16 h 85.325 v 95.504 H 237 Z"
         transform="matrix(1,0,0,-1,-298.58003,638.02002)"
         id="path3678" />
    </clipPath>
    <clipPath
       clipPathUnits="userSpaceOnUse"
       id="clipPath3676">
      <path
         d="m 237,549.16 h 85.325 v 95.504 H 237 Z"
         transform="matrix(1,0,0,-1,-237.00998,638.02002)"
         id="path3676" />
    </clipPath>
    <clipPath
       clipPathUnits="userSpaceOnUse"
       id="clipPath3670">
      <path
         d="m 237,549.16 h 85.325 v 95.504 H 237 Z"
         transform="translate(-315.62003,-583.32102)"
         id="path3670" />
    </clipPath>
    <clipPath
       clipPathUnits="userSpaceOnUse"
       id="clipPath3668">
      <path
         d="m 237,549.16 h 85.325 v 95.504 H 237 Z"
         transform="translate(-288.55103,-583.32102)"
         id="path3668" />
    </clipPath>
    <clipPath
       clipPathUnits="userSpaceOnUse"
       id="clipPath3666">
      <path
         d="m 237,549.16 h 85.325 v 95.504 H 237 Z"
         transform="translate(-315.62003,-608.92002)"
         id="path3666" />
    </clipPath>
    <clipPath
       clipPathUnits="userSpaceOnUse"
       id="clipPath3664">
      <path
         d="m 237,549.16 h 85.325 v 95.504 H 237 Z"
         transform="translate(-302.08403,-558.14101)"
         id="path3664" />
    </clipPath>
    <clipPath
       clipPathUnits="userSpaceOnUse"
       id="clipPath3662">
      <path
         d="m 237,549.16 h 85.325 v 95.504 H 237 Z"
         transform="translate(-302.08403,-634.33501)"
         id="path3662" />
    </clipPath>
    <clipPath
       clipPathUnits="userSpaceOnUse"
       id="clipPath3660">
      <path
         d="m 237,549.16 h 85.325 v 95.504 H 237 Z"
         transform="translate(-288.55103,-608.92002)"
         id="path3660" />
    </clipPath>
    <clipPath
       clipPathUnits="userSpaceOnUse"
       id="clipPath3658">
      <path
         d="m 237,549.16 h 85.325 v 95.504 H 237 Z"
         transform="translate(-267.56798,-634.52002)"
         id="path3658" />
    </clipPath>
    <clipPath
       clipPathUnits="userSpaceOnUse"
       id="clipPath3656">
      <path
         d="m 237,549.16 h 85.325 v 95.504 H 237 Z"
         transform="translate(-240.50003,-634.52002)"
         id="path3656" />
    </clipPath>
    <clipPath
       clipPathUnits="userSpaceOnUse"
       id="clipPath3654">
      <path
         d="m 237,549.16 h 85.325 v 95.504 H 237 Z"
         transform="translate(-267.56798,-608.92002)"
         id="path3654" />
    </clipPath>
    <clipPath
       clipPathUnits="userSpaceOnUse"
       id="clipPath3652">
      <path
         d="m 237,549.16 h 85.325 v 95.504 H 237 Z"
         transform="translate(-240.50003,-608.92002)"
         id="path3652" />
    </clipPath>
  </defs>
  <g
     inkscape:label="Layer 1"
     inkscape:groupmode="layer"
     id="layer1"
     transform="translate(-102.68592,-127.55625)">
    <rect
       style="fill:#ffffff;stroke-width:1;stroke-linecap:round;stroke-linejoin:round"
       id="rect1"
       width="40.050861"
       height="43.243473"
       x="102.68592"
       y="127.55625"
       transform="translate(1.2083333e-6)" />
    <g
       id="g1">
      <path
         id="path3650"
         d="m 117.89126,144.74892 v -9.03111 h -9.54899 v 9.03111 h 26.50103 l -4.7752,-8.96584 -4.77451,8.96584 v 9.03076 l 4.77451,8.88295 4.7752,-8.88295 v -9.03076 m 0,9.03076 h -9.54971"
         style="fill:none;stroke:#00adef;stroke-width:0.176389;stroke-linecap:butt;stroke-linejoin:miter;stroke-miterlimit:4;stroke-dasharray:none;stroke-opacity:1" />
      <path
         id="path3651"
         d="M 0,0 C 0,-0.828 -0.672,-1.5 -1.5,-1.5 -2.328,-1.5 -3,-0.828 -3,0 -3,0.828 -2.328,1.5 -1.5,1.5 -0.672,1.5 0,0.828 0,0"
         style="fill:#231f20;fill-opacity:1;fill-rule:nonzero;stroke:none"
         transform="matrix(0.35277776,0,0,-0.35277776,108.87074,144.74892)"
         clip-path="url(#clipPath3652)" />
      <path
         id="path3653"
         d="M 0,0 C 0,-0.828 -0.672,-1.5 -1.5,-1.5 -2.327,-1.5 -3,-0.828 -3,0 -3,0.828 -2.327,1.5 -1.5,1.5 -0.672,1.5 0,0.828 0,0"
         style="fill:#231f20;fill-opacity:1;fill-rule:nonzero;stroke:none"
         transform="matrix(0.35277776,0,0,-0.35277776,118.41972,144.74892)"
         clip-path="url(#clipPath3654)" />
      <path
         id="path3655"
         d="M 0,0 C 0,-0.828 -0.672,-1.5 -1.5,-1.5 -2.328,-1.5 -3,-0.828 -3,0 -3,0.828 -2.328,1.5 -1.5,1.5 -0.672,1.5 0,0.828 0,0"
         style="fill:#231f20;fill-opacity:1;fill-rule:nonzero;stroke:none"
         transform="matrix(0.35277776,0,0,-0.35277776,108.87074,135.71781)"
         clip-path="url(#clipPath3656)" />
      <path
         id="path3657"
         d="M 0,0 C 0,-0.828 -0.672,-1.5 -1.5,-1.5 -2.327,-1.5 -3,-0.828 -3,0 -3,0.828 -2.327,1.5 -1.5,1.5 -0.672,1.5 0,0.828 0,0"
         style="fill:#231f20;fill-opacity:1;fill-rule:nonzero;stroke:none"
         transform="matrix(0.35277776,0,0,-0.35277776,118.41972,135.71781)"
         clip-path="url(#clipPath3658)" />
      <path
         id="path3659"
         d="M 0,0 C 0,-0.828 -0.672,-1.5 -1.5,-1.5 -2.328,-1.5 -3,-0.828 -3,0 -3,0.828 -2.328,1.5 -1.5,1.5 -0.672,1.5 0,0.828 0,0"
         style="fill:#231f20;fill-opacity:1;fill-rule:nonzero;stroke:none"
         transform="matrix(0.35277776,0,0,-0.35277776,125.82207,144.74892)"
         clip-path="url(#clipPath3660)" />
      <path
         id="path3661"
         d="M 0,0 C 0,-0.828 -0.672,-1.5 -1.5,-1.5 -2.328,-1.5 -3,-0.828 -3,0 -3,0.828 -2.328,1.5 -1.5,1.5 -0.672,1.5 0,0.828 0,0"
         style="fill:#231f20;fill-opacity:1;fill-rule:nonzero;stroke:none"
         transform="matrix(0.35277776,0,0,-0.35277776,130.59621,135.78308)"
         clip-path="url(#clipPath3662)" />
      <path
         id="path3663"
         d="M 0,0 C 0,-0.828 -0.672,-1.5 -1.5,-1.5 -2.328,-1.5 -3,-0.828 -3,0 -3,0.828 -2.328,1.5 -1.5,1.5 -0.672,1.5 0,0.828 0,0"
         style="fill:#231f20;fill-opacity:1;fill-rule:nonzero;stroke:none"
         transform="matrix(0.35277776,0,0,-0.35277776,130.59621,162.66263)"
         clip-path="url(#clipPath3664)" />
      <path
         id="path3665"
         d="M 0,0 C 0,-0.828 -0.672,-1.5 -1.5,-1.5 -2.329,-1.5 -3,-0.828 -3,0 -3,0.828 -2.329,1.5 -1.5,1.5 -0.672,1.5 0,0.828 0,0"
         style="fill:#231f20;fill-opacity:1;fill-rule:nonzero;stroke:none"
         transform="matrix(0.35277776,0,0,-0.35277776,135.37141,144.74892)"
         clip-path="url(#clipPath3666)" />
      <path
         id="path3667"
         d="M 0,0 C 0,-0.829 -0.672,-1.5 -1.5,-1.5 -2.328,-1.5 -3,-0.829 -3,0 -3,0.828 -2.328,1.5 -1.5,1.5 -0.672,1.5 0,0.828 0,0"
         style="fill:#231f20;fill-opacity:1;fill-rule:nonzero;stroke:none"
         transform="matrix(0.35277776,0,0,-0.35277776,125.82207,153.77968)"
         clip-path="url(#clipPath3668)" />
      <path
         id="path3669"
         d="M 0,0 C 0,-0.829 -0.672,-1.5 -1.5,-1.5 -2.329,-1.5 -3,-0.829 -3,0 -3,0.828 -2.329,1.5 -1.5,1.5 -0.672,1.5 0,0.828 0,0"
         style="fill:#231f20;fill-opacity:1;fill-rule:nonzero;stroke:none"
         transform="matrix(0.35277776,0,0,-0.35277776,135.37141,153.77968)"
         clip-path="url(#clipPath3670)" />
      <path
         id="path3671"
         d="m 108.94634,147.15484 c -0.12817,0.12402 -0.1819,0.19431 -0.22739,0.19431 -0.0206,0 -0.0372,-0.0165 -0.0372,-0.0372 0,-0.0868 0.26043,-1.05007 0.26871,-1.08314 l -0.0206,-0.008 -0.17365,0.0207 -0.008,0.008 -0.0289,0.12403 h -0.004 c -0.008,-0.0786 -0.10335,-0.15297 -0.22326,-0.15297 -0.37618,0 -0.80613,0.52917 -0.80613,0.94258 0,0.0827 0.008,0.33487 0.28938,0.33487 0.16949,0 0.31832,-0.0868 0.55398,-0.42995 l 0.004,0.004 c -0.0455,0.17363 -0.0579,0.23564 -0.0579,0.29765 0,0.0496 0,0.12402 0.11989,0.12402 0.11991,0 0.21497,-0.10335 0.38449,-0.31005 z m -1.02526,0.004 c 0,-0.25632 0.25217,-0.87643 0.5829,-0.87643 0.0827,0 0.16124,0.0537 0.16124,0.19017 0,0.27698 -0.277,0.8847 -0.57465,0.8847 -0.0744,0 -0.16949,-0.0496 -0.16949,-0.19844 z m 10.61537,-0.0248 c -0.0992,0.12402 -0.17777,0.22324 -0.23151,0.22324 -0.0331,0 -0.0331,-0.0289 -0.0331,-0.0455 0,-0.0413 0.0372,-0.16536 0.0537,-0.22324 l 0.22323,-0.84336 h -0.21082 c -0.11163,0.30179 -0.17364,0.47956 -0.31006,0.6904 -0.0951,0.14469 -0.27287,0.40928 -0.39688,0.40928 -0.0455,0 -0.062,-0.0372 -0.062,-0.0703 0,-0.008 0,-0.0165 0.004,-0.0248 l 0.25633,-1.02527 -0.008,-0.004 c -0.14054,0.0331 -0.28112,0.0579 -0.42166,0.0744 v 0.0413 c 0.11575,0 0.16949,0 0.16949,0.0827 0,0.0744 -0.21497,0.78549 -0.21497,0.90951 0,0.12402 0.0537,0.1695 0.15295,0.1695 0.25633,0 0.46302,-0.35553 0.65733,-0.67386 h 0.008 c -0.0661,0.23151 -0.12403,0.46715 -0.12403,0.5209 0,0.0413 0.008,0.14469 0.13229,0.14469 0.1447,0 0.21497,-0.0744 0.39275,-0.33073 z m 0,0"
         style="fill:#231f20;fill-opacity:1;fill-rule:nonzero;stroke:none;stroke-width:0.352777"
         aria-label=" au" />
      <path
         id="path3672"
         d="m 122.97854,146.34869 h 0.25217 l -0.24804,1.18236 c -0.0206,0.11575 -0.0951,0.45888 -0.277,0.45888 -0.0331,0 -0.0537,-0.0207 -0.0537,-0.0455 0,-0.0289 0.0289,-0.0289 0.0289,-0.0785 0,-0.0662 -0.0703,-0.10335 -0.1075,-0.10335 h -0.008 c -0.0992,0.004 -0.0992,0.11162 -0.0992,0.11988 0.0164,0.1323 0.13229,0.16537 0.2191,0.16537 0.33073,0 0.48784,-0.45475 0.56637,-0.79788 l 0.20259,-0.90124 h 0.31004 l 0.0164,-0.0909 h -0.30592 c 0.0249,-0.1447 0.11163,-0.64492 0.34314,-0.64492 0.0372,0 0.062,0.0124 0.062,0.0331 0,0.0331 -0.0249,0.0331 -0.0249,0.0951 0,0.0289 0.0164,0.10749 0.10748,0.10749 0.062,0 0.11575,-0.0579 0.11575,-0.11575 0,-0.0538 -0.0455,-0.18191 -0.25217,-0.18191 -0.35552,0 -0.4961,0.46716 -0.56637,0.70694 h -0.26046 z m 0,0"
         style="fill:#231f20;fill-opacity:1;fill-rule:nonzero;stroke:none;stroke-width:0.352777"
         aria-label="f" />
      <path
         id="path3673"
         d="m 123.97176,154.19007 c -0.10747,0.13643 -0.17777,0.22324 -0.23151,0.22324 -0.0249,0 -0.0455,-0.0207 -0.0455,-0.0537 0,-0.0579 0.22738,-0.78135 0.22738,-0.88057 0,-0.1819 -0.12816,-0.20257 -0.19016,-0.20257 -0.25632,0 -0.5457,0.43408 -0.63254,0.57464 l -0.004,-0.004 0.33073,-1.24024 -0.0124,-0.0124 c -0.14467,0.0331 -0.29765,0.0579 -0.44233,0.0744 v 0.0455 l 0.0744,-0.004 c 0.091,0.004 0.11575,0.0413 0.11575,0.0744 0,0.0413 -0.0455,0.20257 -0.0785,0.32246 l -0.37206,1.41387 h 0.21084 c 0.0951,-0.35554 0.13642,-0.51263 0.26459,-0.7028 0.0537,-0.0785 0.2935,-0.39688 0.43407,-0.39688 0.0455,0 0.0827,0.0248 0.0827,0.0744 0,0.0372 -0.23151,0.84749 -0.23151,0.9219 0,0.0744 0.0372,0.12816 0.12401,0.12816 0.19018,0 0.31006,-0.17363 0.40928,-0.32246 z m 0,0"
         style="fill:#231f20;fill-opacity:1;fill-rule:nonzero;stroke:none;stroke-width:0.352777"
         aria-label="h" />
      <path
         id="path3674"
         d="m 136.26041,144.70434 c 0.10337,-0.25218 0.29766,-0.46715 0.44649,-0.46715 0.0703,0 0.0992,0.0496 0.0992,0.11162 0,0.0207 -0.0124,0.35967 -0.59531,0.47956 z m 0.58293,0.40515 c -0.1447,0.11575 -0.26045,0.21084 -0.41341,0.21084 -0.11991,0 -0.26458,-0.0662 -0.26458,-0.25632 0,-0.0579 0.0124,-0.11575 0.0249,-0.17363 l 0.0827,-0.0124 c 0.45477,-0.062 0.71935,-0.29352 0.71935,-0.51676 0,-0.12402 -0.0868,-0.19017 -0.23151,-0.19017 -0.39688,0 -0.84336,0.47542 -0.84336,0.87643 0,0.17777 0.0909,0.40101 0.38859,0.40101 0.28112,0 0.53745,-0.26045 0.57052,-0.30593 z m 0,0"
         style="fill:#231f20;fill-opacity:1;fill-rule:nonzero;stroke:none;stroke-width:0.352777"
         aria-label="e" />
      <path
         id="path3675"
         d="m 3.106625,-2.4619141 c 0,0.6796875 -0.7617188,2.36718754 -1.8515625,2.36718754 -0.38671875,0 -0.38671875,-0.2109375 -0.38671875,-0.26953125 0,-0.83203129 0.77343745,-2.77734379 1.65234375,-2.77734379 0.5039062,0 0.5859375,0.4335938 0.5859375,0.6796875 z M 0.8800625,-5.1455078 c 0.46875,0.011719 0.5273437,0.046875 0.5273437,0.234375 0,0.1054687 -0.082031,0.3046875 -0.1289062,0.5273437 l -1.08984375,4.01953129 v 0.0234375 c 0,0.17578125 0.609375,0.43359375 1.03124995,0.43359375 1.2304688,0 2.5664063,-1.39453124 2.5664063,-2.66015624 0,-0.5742188 -0.3867188,-0.9609375 -0.9492188,-0.9609375 -0.7265625,0 -1.2304687,0.7382812 -1.4882812,1.1601562 l -0.023437,-0.011719 c 0.28125,-0.9023438 0.6445312,-2.390625 0.8203125,-3.046875 L 2.110532,-5.4619141 C 1.6886562,-5.3916016 1.2785,-5.3330078 0.8800625,-5.2861328 Z m 29.2089845,4.30078124 c -0.292969,0.31640625 -0.667969,0.64453125 -1.148438,0.64453125 -0.480468,0 -0.726562,-0.36328125 -0.726562,-0.97265629 0,-0.7734375 0.550781,-2.1914062 1.59375,-2.1914062 0.140625,0 0.304687,0.046875 0.304687,0.1640625 0,0.1289062 -0.117187,0.1875 -0.117187,0.3867187 0,0.1875 0.117187,0.3046875 0.316406,0.3046875 0.199219,0 0.375,-0.1523437 0.375,-0.375 0,-0.2460937 -0.199219,-0.6445312 -0.867187,-0.6445312 -1.183594,0 -2.296875,1.21875 -2.296875,2.3554687 0,1.05468754 0.667968,1.26562504 1.195312,1.26562504 0.832031,0 1.300781,-0.609375 1.5,-0.8671875 z m 0,0"
         style="fill:#231f20;fill-opacity:1;fill-rule:nonzero;stroke:none"
         aria-label="bc"
         transform="matrix(0.35277776,0,0,0.35277776,107.63953,134.48309)"
         clip-path="url(#clipPath3676)" />
      <path
         id="path3677"
         d="m 1.2993203,-0.29394531 c -0.48046874,0 -0.48046874,-0.45703125 -0.48046874,-0.59765625 0,-0.72656254 0.76171874,-2.44921874 1.65234374,-2.44921874 0.375,0 0.375,0.3515625 0.375,0.5273437 0,0.9960938 -0.7851562,2.51953129 -1.546875,2.51953129 z m 2.4023438,-0.59765625 c -0.328125,0.38671875 -0.4921875,0.57421875 -0.65625,0.57421875 -0.082031,0 -0.140625,-0.0585938 -0.140625,-0.17578125 0,-0.12890625 0.9726562,-3.53906254 1.3125,-4.93359374 l -0.035156,-0.035156 c -0.4101562,0.082031 -0.8203125,0.140625 -1.2304687,0.1757813 v 0.140625 c 0.4453125,0.011719 0.4921875,0.046875 0.4921875,0.234375 0,0.1054687 -0.046875,0.3046875 -0.1171875,0.5273437 l -0.3398438,1.2773438 -0.023437,0.011719 c -0.023437,-0.1757812 -0.082031,-0.4335937 -0.5273437,-0.4335937 -0.9609375,0 -2.32031254,1.4648437 -2.32031254,2.67187499 0,0.41015625 0.17578125,0.94921875 0.83203125,0.94921875 0.39843749,0 0.85546879,-0.140625 1.42968749,-1.01953125 l 0.011719,0.0117188 c -0.058594,0.28125 -0.09375,0.46875 -0.09375,0.64453125 0,0.17578125 0.058594,0.375 0.375,0.375 0.2695312,0 0.7851562,-0.375 1.125,-0.9140625 z m 0,0"
         style="fill:#231f20;fill-opacity:1;fill-rule:nonzero;stroke:none"
         aria-label="d"
         transform="matrix(0.35277776,0,0,0.35277776,129.36008,134.48309)"
         clip-path="url(#clipPath3678)" />
      <path
         id="path3679"
         d="m 130.69487,164.07164 h -0.16949 c -0.0206,0 -0.0455,-0.0248 -0.0951,-0.0496 -0.0496,-0.0248 -0.11988,-0.0496 -0.23564,-0.0496 -0.23151,0 -0.55811,0.16123 -0.55811,0.47956 0,0.1943 0.11988,0.26044 0.22323,0.30592 -0.0992,0.0661 -0.2191,0.14883 -0.2191,0.23564 0,0.0538 0.0413,0.0868 0.0744,0.11163 -0.23567,0.15709 -0.33073,0.2191 -0.33073,0.38033 0,0.15297 0.15295,0.3142 0.45886,0.3142 0.38862,0 0.60773,-0.17364 0.60773,-0.41341 0,-0.38861 -0.60357,-0.34314 -0.60357,-0.4961 0,-0.0331 0.0661,-0.11162 0.10334,-0.11162 0.0372,0 0.0786,0.0124 0.11163,0.0124 0.24805,0 0.51676,-0.23151 0.51676,-0.44235 0,-0.0538 -0.008,-0.11162 -0.0249,-0.16537 h 0.14057 z m -0.41341,1.39733 c 0,0.14056 -0.13642,0.26871 -0.39274,0.26871 -0.0413,0 -0.34727,-0.0124 -0.34727,-0.27698 0,-0.062 0,-0.14056 0.11576,-0.23978 0.008,-0.008 0.10334,-0.0827 0.11988,-0.0827 0.0249,0 0.29765,0.10335 0.34726,0.12816 0.0538,0.0248 0.15711,0.0744 0.15711,0.20257 z m 0.0744,-1.24437 c 0,0.23564 -0.14054,0.5085 -0.32657,0.5085 -0.12817,0 -0.17365,-0.0951 -0.17365,-0.22325 0,-0.19017 0.12404,-0.47542 0.33901,-0.47542 0.11989,0 0.16121,0.0827 0.16121,0.19017 z m 0,0"
         style="fill:#231f20;fill-opacity:1;fill-rule:nonzero;stroke:none;stroke-width:0.352777"
         aria-label="g" />
      <path
         id="path3680"
         d="m 0,0 c -0.361,0 -0.48,0.209 -0.48,0.527 0,0.145 0.023,0.305 0.064,0.481 l 0.455,1.99 0.016,0.104 c 0,0.216 -0.16,0.345 -0.328,0.345 -0.151,0 -0.311,-0.105 -0.375,-0.377 L -1.111,1.055 C -1.287,0.289 -1.688,0 -1.943,0 c -0.209,0 -0.401,0.232 -0.401,0.592 0,0.08 0.008,0.176 0.031,0.273 0,0.008 0.336,1.285 0.416,1.742 l 0.01,0.104 c 0,0.352 -0.32,0.687 -0.674,0.687 -0.285,0 -0.685,-0.296 -0.685,-0.654 l 0.039,-0.209 h 0.137 c 0,0.295 0.134,0.52 0.334,0.52 0.088,0 0.216,-0.041 0.216,-0.272 L -2.543,2.584 c 0,-0.008 -0.271,-1.113 -0.367,-1.68 L -2.918,0.768 c 0,-0.504 0.357,-0.983 0.902,-0.983 0.504,0.008 0.936,0.336 1.158,0.711 0.137,-0.455 0.346,-0.703 0.85,-0.711 0.455,0 0.983,0.584 1.15,0.903 C 1.59,1.527 1.678,2.184 1.678,2.639 1.678,2.775 1.67,2.895 1.662,2.99 1.646,3.174 1.527,3.447 1.303,3.447 1.142,3.447 0.998,3.334 0.998,3.143 0.998,2.838 1.215,2.854 1.287,2.471 1.303,2.336 1.311,2.23 1.311,2.127 1.311,1.592 1.094,1.072 0.975,0.84 0.711,0.328 0.287,0 0,0"
         style="fill:#231f20;fill-opacity:1;fill-rule:nonzero;stroke:none"
         transform="matrix(0.35277776,0,0,-0.35277776,137.14587,154.44326)"
         clip-path="url(#clipPath3681)" />
    </g>
  </g>
</svg>
