<?xml version="1.0" encoding="UTF-8" standalone="no"?>
<!-- Created with Inkscape (http://www.inkscape.org/) -->

<svg
   width="110.44772mm"
   height="104.93289mm"
   viewBox="0 0 110.44772 104.93289"
   version="1.1"
   id="svg1"
   inkscape:version="1.3.2 (091e20ef0f, 2023-11-25)"
   sodipodi:docname="2.svg"
   xmlns:inkscape="http://www.inkscape.org/namespaces/inkscape"
   xmlns:sodipodi="http://sodipodi.sourceforge.net/DTD/sodipodi-0.dtd"
   xmlns="http://www.w3.org/2000/svg"
   xmlns:svg="http://www.w3.org/2000/svg">
  <sodipodi:namedview
     id="namedview1"
     pagecolor="#ffffff"
     bordercolor="#000000"
     borderopacity="0.25"
     inkscape:showpageshadow="2"
     inkscape:pageopacity="0.0"
     inkscape:pagecheckerboard="0"
     inkscape:deskcolor="#d1d1d1"
     inkscape:document-units="mm"
     inkscape:zoom="1.1893044"
     inkscape:cx="213.57022"
     inkscape:cy="261.49739"
     inkscape:window-width="1277"
     inkscape:window-height="1600"
     inkscape:window-x="0"
     inkscape:window-y="0"
     inkscape:window-maximized="1"
     inkscape:current-layer="layer1">
    <inkscape:page
       x="0"
       y="0"
       width="110.44772"
       height="104.93288"
       id="page1"
       margin="5.0000005"
       bleed="0" />
  </sodipodi:namedview>
  <defs
     id="defs1">
    <clipPath
       clipPathUnits="userSpaceOnUse"
       id="clipPath79">
      <path
         d="m 1633.2,3760.8 h 2880 v 2694.86 h -2880 z m 2589.03,884.18 -34.98,-95.89 36.93,-13.61 34.98,95.89 v 0 l -44.7,-66.73 z"
         clip-rule="evenodd"
         id="path79" />
    </clipPath>
    <clipPath
       clipPathUnits="userSpaceOnUse"
       id="clipPath80">
      <path
         d="m 1633.2,3760.8 h 2880 v 2694.86 h -2880 z"
         id="path80" />
    </clipPath>
    <clipPath
       clipPathUnits="userSpaceOnUse"
       id="clipPath81">
      <path
         d="m 1633.2,3760.8 h 2880 v 2694.86 h -2880 z m 761.31,1725.8 67.38,75.15 -29.15,25.92 -67.38,-75.16 v 0 l 66.73,44.7 z"
         clip-rule="evenodd"
         id="path81" />
    </clipPath>
    <clipPath
       clipPathUnits="userSpaceOnUse"
       id="clipPath82">
      <path
         d="m 1633.2,3760.8 h 2880 v 2694.86 h -2880 z"
         id="path82" />
    </clipPath>
    <clipPath
       clipPathUnits="userSpaceOnUse"
       id="clipPath83">
      <path
         d="m 1633.2,3760.8 h 2880 v 2694.86 h -2880 z"
         id="path83" />
    </clipPath>
    <clipPath
       clipPathUnits="userSpaceOnUse"
       id="clipPath84">
      <path
         d="m 1633.2,3760.8 h 2880 v 2694.86 h -2880 z"
         id="path84" />
    </clipPath>
    <clipPath
       clipPathUnits="userSpaceOnUse"
       id="clipPath85">
      <path
         d="m 1633.2,3760.8 h 2880 v 2694.86 h -2880 z"
         id="path85" />
    </clipPath>
    <clipPath
       clipPathUnits="userSpaceOnUse"
       id="clipPath86">
      <path
         d="m 1633.2,3760.8 h 2880 v 2694.86 h -2880 z"
         id="path86" />
    </clipPath>
    <clipPath
       clipPathUnits="userSpaceOnUse"
       id="clipPath87">
      <path
         d="m 1633.2,3760.8 h 2880 v 2694.86 h -2880 z"
         id="path87" />
    </clipPath>
    <clipPath
       clipPathUnits="userSpaceOnUse"
       id="clipPath88">
      <path
         d="m 1633.2,3760.8 h 2880 v 2694.86 h -2880 z"
         id="path88" />
    </clipPath>
    <clipPath
       clipPathUnits="userSpaceOnUse"
       id="clipPath89">
      <path
         d="m 1633.2,3760.8 h 2880 v 2694.86 h -2880 z"
         id="path89" />
    </clipPath>
    <clipPath
       clipPathUnits="userSpaceOnUse"
       id="clipPath90">
      <path
         d="m 1633.2,3760.8 h 2880 v 2694.86 h -2880 z"
         id="path90" />
    </clipPath>
    <clipPath
       clipPathUnits="userSpaceOnUse"
       id="clipPath91">
      <path
         d="m 1633.2,3760.8 h 2880 v 2694.86 h -2880 z"
         id="path91" />
    </clipPath>
    <clipPath
       clipPathUnits="userSpaceOnUse"
       id="clipPath92">
      <path
         d="m 1633.2,3760.8 h 2880 v 2694.86 h -2880 z"
         id="path92" />
    </clipPath>
    <clipPath
       clipPathUnits="userSpaceOnUse"
       id="clipPath93">
      <path
         d="m 1633.2,3760.8 h 2880 v 2694.86 h -2880 z"
         id="path93" />
    </clipPath>
    <clipPath
       clipPathUnits="userSpaceOnUse"
       id="clipPath94">
      <path
         d="m 1633.2,3760.8 h 2880 v 2694.86 h -2880 z"
         id="path94" />
    </clipPath>
    <clipPath
       clipPathUnits="userSpaceOnUse"
       id="clipPath95">
      <path
         d="m 1633.2,3760.8 h 2880 v 2694.86 h -2880 z"
         id="path95" />
    </clipPath>
    <clipPath
       clipPathUnits="userSpaceOnUse"
       id="clipPath96">
      <path
         d="m 1633.2,3760.8 h 2880 v 2694.86 h -2880 z"
         id="path96" />
    </clipPath>
    <clipPath
       clipPathUnits="userSpaceOnUse"
       id="clipPath97">
      <path
         d="m 1633.2,3760.8 h 2880 v 2694.86 h -2880 z"
         transform="matrix(0.1,0,0,-0.1,-438.03202,504.991)"
         id="path97" />
    </clipPath>
  </defs>
  <g
     inkscape:label="Layer 1"
     inkscape:groupmode="layer"
     id="layer1"
     transform="translate(-46.604024,-57.672232)">
    <rect
       style="fill:#ffffff;stroke-width:0.264583"
       id="rect1"
       width="110.44772"
       height="104.93289"
       x="46.604023"
       y="57.672234" />
    <path
       d="M 4322.03,5020.79 C 4305.97,4861 4268.49,4704.09 4210.59,4554.3"
       style="fill:none;stroke:#000000;stroke-width:4.85923;stroke-linecap:butt;stroke-linejoin:miter;stroke-miterlimit:10;stroke-dasharray:none;stroke-opacity:1"
       transform="matrix(0.03529436,0,0,-0.03529436,-6.137208,290.43019)"
       clip-path="url(#clipPath79)"
       id="path105" />
    <path
       d="m 4222.23,4644.98 -7.77,-80.34 44.7,66.73"
       style="fill:none;stroke:#000000;stroke-width:4.85923;stroke-linecap:butt;stroke-linejoin:miter;stroke-miterlimit:10;stroke-dasharray:none;stroke-opacity:1"
       transform="matrix(0.03529436,0,0,-0.03529436,-6.137208,290.43019)"
       clip-path="url(#clipPath80)"
       id="path106" />
    <path
       d="m 2281.1,5254.01 c 15.47,118.72 71.29,228.53 158.09,310.99"
       style="fill:none;stroke:#000000;stroke-width:4.85923;stroke-linecap:butt;stroke-linejoin:miter;stroke-miterlimit:10;stroke-dasharray:none;stroke-opacity:1"
       transform="matrix(0.03529436,0,0,-0.03529436,-6.137208,290.43019)"
       clip-path="url(#clipPath81)"
       id="path107" />
    <path
       d="m 2394.51,5486.6 37.58,70.61 -66.73,-44.7"
       style="fill:none;stroke:#000000;stroke-width:4.85923;stroke-linecap:butt;stroke-linejoin:miter;stroke-miterlimit:10;stroke-dasharray:none;stroke-opacity:1"
       transform="matrix(0.03529436,0,0,-0.03529436,-6.137208,290.43019)"
       clip-path="url(#clipPath82)"
       id="path108" />
    <path
       d="m 4366.06,5103.04 c 0,-24.33 -19.72,-44.06 -44.05,-44.06 -24.33,0 -44.06,19.73 -44.06,44.06 0,24.33 19.73,44.06 44.06,44.06 24.33,0 44.05,-19.73 44.05,-44.06"
       style="fill:#2626ff;fill-opacity:1;fill-rule:evenodd;stroke:none"
       transform="matrix(0.03529436,0,0,-0.03529436,-6.137208,290.43019)"
       clip-path="url(#clipPath83)"
       id="path109" />
    <path
       d="m 4366.06,5103.04 c 0,-24.33 -19.72,-44.06 -44.05,-44.06 -24.33,0 -44.06,19.73 -44.06,44.06 0,24.33 19.73,44.06 44.06,44.06 24.33,0 44.05,-19.73 44.05,-44.06 z"
       style="fill:none;stroke:#000000;stroke-width:9.71846;stroke-linecap:butt;stroke-linejoin:miter;stroke-miterlimit:10;stroke-dasharray:none;stroke-opacity:1"
       transform="matrix(0.03529436,0,0,-0.03529436,-6.137208,290.43019)"
       clip-path="url(#clipPath84)"
       id="path110" />
    <path
       d="m 4323.3,5108.22 c 0,-741.41 -601.03,-1342.44 -1342.44,-1342.44 -741.41,0 -1342.44,601.03 -1342.44,1342.44 0,741.41 601.03,1342.45 1342.44,1342.45 741.41,0 1342.44,-601.04 1342.44,-1342.45 z"
       style="fill:none;stroke:#00008f;stroke-width:4.85923;stroke-linecap:butt;stroke-linejoin:miter;stroke-miterlimit:10;stroke-dasharray:38.8738;stroke-dashoffset:0;stroke-opacity:1"
       transform="matrix(0.03529436,0,0,-0.03529436,-6.137208,290.43019)"
       clip-path="url(#clipPath85)"
       id="path111" />
    <path
       d="m 2368.6,5108.22 c 0,-48.3 -39.17,-87.46 -87.47,-87.46 -48.31,0 -87.47,39.16 -87.47,87.46 0,48.31 39.16,87.47 87.47,87.47 48.3,0 87.47,-39.16 87.47,-87.47"
       style="fill:#ff6666;fill-opacity:1;fill-rule:evenodd;stroke:none"
       transform="matrix(0.03529436,0,0,-0.03529436,-6.137208,290.43019)"
       clip-path="url(#clipPath86)"
       id="path112" />
    <path
       d="m 2368.6,5108.22 c 0,-48.3 -39.17,-87.46 -87.47,-87.46 -48.31,0 -87.47,39.16 -87.47,87.46 0,48.31 39.16,87.47 87.47,87.47 48.3,0 87.47,-39.16 87.47,-87.47 z"
       style="fill:none;stroke:#000000;stroke-width:9.71846;stroke-linecap:butt;stroke-linejoin:miter;stroke-miterlimit:10;stroke-dasharray:none;stroke-opacity:1"
       transform="matrix(0.03529436,0,0,-0.03529436,-6.137208,290.43019)"
       clip-path="url(#clipPath87)"
       id="path113" />
    <path
       d="m 3680.59,5108.22 c 0,-389.31 -315.61,-704.91 -704.91,-704.91 -389.31,0 -704.91,315.6 -704.91,704.91 0,389.31 315.6,704.92 704.91,704.92 389.3,0 704.91,-315.61 704.91,-704.92 z"
       style="fill:none;stroke:#ff0000;stroke-width:4.85923;stroke-linecap:butt;stroke-linejoin:miter;stroke-miterlimit:10;stroke-dasharray:38.8738;stroke-dashoffset:0;stroke-opacity:1"
       transform="matrix(0.03529436,0,0,-0.03529436,-6.137208,290.43019)"
       clip-path="url(#clipPath88)"
       id="path114" />
    <path
       d="m 2922.55,5166.54 116.62,-116.63"
       style="fill:none;stroke:#000000;stroke-width:4.85923;stroke-linecap:butt;stroke-linejoin:miter;stroke-miterlimit:10;stroke-dasharray:none;stroke-opacity:1"
       transform="matrix(0.03529436,0,0,-0.03529436,-6.137208,290.43019)"
       clip-path="url(#clipPath89)"
       id="path115" />
    <path
       d="M 3039.17,5166.54 2922.55,5049.91"
       style="fill:none;stroke:#000000;stroke-width:4.85923;stroke-linecap:butt;stroke-linejoin:miter;stroke-miterlimit:10;stroke-dasharray:none;stroke-opacity:1"
       transform="matrix(0.03529436,0,0,-0.03529436,-6.137208,290.43019)"
       clip-path="url(#clipPath90)"
       id="path116" />
    <path
       d="M 2660.15,5108.22 H 2951.7"
       style="fill:none;stroke:#000000;stroke-width:4.85923;stroke-linecap:butt;stroke-linejoin:miter;stroke-miterlimit:10;stroke-dasharray:none;stroke-opacity:1"
       transform="matrix(0.03529436,0,0,-0.03529436,-6.137208,290.43019)"
       clip-path="url(#clipPath91)"
       id="path117" />
    <path
       d="M 2281.13,5166.54 V 5049.91"
       style="fill:none;stroke:#000000;stroke-width:4.85923;stroke-linecap:butt;stroke-linejoin:miter;stroke-miterlimit:10;stroke-dasharray:none;stroke-opacity:1"
       transform="matrix(0.03529436,0,0,-0.03529436,-6.137208,290.43019)"
       clip-path="url(#clipPath92)"
       id="path118" />
    <path
       d="M 4322.01,5166.54 V 5049.91"
       style="fill:none;stroke:#000000;stroke-width:4.85923;stroke-linecap:butt;stroke-linejoin:miter;stroke-miterlimit:10;stroke-dasharray:none;stroke-opacity:1"
       transform="matrix(0.03529436,0,0,-0.03529436,-6.137208,290.43019)"
       clip-path="url(#clipPath93)"
       id="path119" />
    <path
       d="m 2281.13,5108.22 h 233.25"
       style="fill:none;stroke:#000000;stroke-width:4.85923;stroke-linecap:butt;stroke-linejoin:miter;stroke-miterlimit:10;stroke-dasharray:none;stroke-opacity:1"
       transform="matrix(0.03529436,0,0,-0.03529436,-6.137208,290.43019)"
       clip-path="url(#clipPath94)"
       id="path120" />
    <path
       d="m 2980.86,5108.22 h 932.97"
       style="fill:none;stroke:#000000;stroke-width:4.85923;stroke-linecap:butt;stroke-linejoin:miter;stroke-miterlimit:10;stroke-dasharray:none;stroke-opacity:1"
       transform="matrix(0.03529436,0,0,-0.03529436,-6.137208,290.43019)"
       clip-path="url(#clipPath95)"
       id="path121" />
    <path
       d="m 4059.61,5108.22 h 262.4"
       style="fill:none;stroke:#000000;stroke-width:4.85923;stroke-linecap:butt;stroke-linejoin:miter;stroke-miterlimit:10;stroke-dasharray:none;stroke-opacity:1"
       transform="matrix(0.03529436,0,0,-0.03529436,-6.137208,290.43019)"
       clip-path="url(#clipPath96)"
       id="path122" />
    <g
       aria-label="m&#10;CM&#10;MR&#10;r"
       transform="matrix(0.35294358,0,0,0.35294358,148.46338,112.19686)"
       clip-path="url(#clipPath97)"
       id="g125">
      <path
         d="M 0.73780944,-6.665459 V -6.2268734e-4 H 2.4713697 V -3.9948392 c 0,-0.8316403 0.4451033,-1.3118834 1.1830377,-1.3118834 0.5856622,0 0.9370596,0.3279709 0.9370596,0.8667801 V -6.2268734e-4 H 6.3250272 V -3.9948392 c 0,-0.8199271 0.4451033,-1.3118834 1.1830377,-1.3118834 0.573949,0 0.9370596,0.3279709 0.9370596,0.8667801 V -6.2268734e-4 H 10.166971 V -4.7210603 c 0,-1.288457 -0.7847869,-2.0615311 -2.1200968,-2.0615311 -0.8550669,0 -1.4290159,0.3045444 -1.9443987,0.9956258 -0.3279708,-0.6325152 -0.9956258,-0.9956258 -1.8155529,-0.9956258 -0.7730741,0 -1.2650304,0.2459781 -1.8272662,0.9370596 V -6.665459 Z m 0,0"
         style="fill:#000000;fill-opacity:1;fill-rule:nonzero;stroke:none"
         id="path123" />
      <path
         d="m -141.04223,-20.141547 -0.10542,-2.787752 h -0.25769 c -0.0703,0.269404 -0.26941,0.409963 -0.51539,0.409963 -0.11713,0 -0.30454,-0.03514 -0.49195,-0.09371 -0.59738,-0.210838 -1.21818,-0.316257 -1.79213,-0.316257 -1.01905,0 -2.0381,0.386537 -2.81118,1.065905 -0.85507,0.761361 -1.3236,1.897546 -1.3236,3.256282 0,2.518348 1.63986,4.205055 4.08793,4.205055 1.40559,0 2.63548,-0.573949 3.37341,-1.569575 l -0.22255,-0.222552 c -0.90192,0.878494 -1.72185,1.241604 -2.75261,1.241604 -0.77308,0 -1.46416,-0.245978 -2.00297,-0.714508 -0.67937,-0.597375 -1.05419,-1.710133 -1.05419,-3.092296 0,-2.23723 1.1479,-3.666246 2.94003,-3.666246 0.70279,0 1.34702,0.257692 1.83897,0.737935 0.38654,0.39825 0.57395,0.737934 0.80822,1.546148 z m 11.24178,-2.612054 h -2.45978 l -2.72918,6.24316 -2.85804,-6.24316 h -2.43635 v 0.234265 c 1.00734,0.04685 1.1479,0.187412 1.17132,1.112758 v 5.013269 c -0.0234,1.311884 -0.18741,1.522722 -1.19475,1.581288 v 0.234265 h 2.89317 v -0.234265 c -0.94877,-0.04685 -1.13618,-0.304544 -1.15961,-1.581288 v -4.978129 l 3.10401,6.793682 h 0.1757 l 3.15086,-7.0748 v 5.598931 c -0.0117,1.042479 -0.14055,1.183038 -1.12447,1.241604 v 0.234265 h 3.46712 v -0.234265 c -0.8902,-0.04685 -1.05419,-0.222551 -1.07762,-1.112758 v -5.481799 c 0.0234,-0.890206 0.1757,-1.042478 1.07762,-1.112758 z m 0,0"
         style="fill:#000000;fill-opacity:1;fill-rule:nonzero;stroke:none"
         id="path124" />
      <path
         d="m -227.65582,-7.0168563 1.61643,7.01623361266 h 1.85069 l 1.593,-7.01623361266 v 7.01623361266 h 1.85069 V -8.9963947 h -2.78775 l -1.58129,7.1567926 -1.62814,-7.1567926 h -2.76432 v 8.99577201266 h 1.85069 z m 46.81198,3.443694 h 2.13181 c 0.7965,0 1.1479,0.3279708 1.1479,1.0659052 v 0.3748239 c -0.0117,0.2342649 -0.0117,0.4568165 -0.0117,0.5856622 0,0.85506687 0.0469,1.11275826 0.2694,1.54614831266 h 1.99125 V -0.32859354 c -0.29283,-0.16398543 -0.39825,-0.35139734 -0.39825,-0.74964766 -0.0469,-2.6471933 -0.10542,-2.776039 -1.25332,-3.2679953 1.01906,-0.3982503 1.52273,-1.1244715 1.52273,-2.2255165 0,-0.7145079 -0.24598,-1.3704496 -0.67937,-1.8155529 -0.40997,-0.4216769 -0.9722,-0.6090888 -1.74528,-0.6090888 h -4.82585 v 8.99577201266 h 1.85069 z m 0,-1.5344351 v -2.3543622 h 2.23723 c 0.53881,0 0.73793,0.058566 0.9722,0.2342649 0.22255,0.1874119 0.33968,0.5036695 0.33968,0.9136331 0,0.43339 -0.11713,0.7847874 -0.33968,0.9721993 -0.19913,0.1639854 -0.43339,0.2342649 -0.9722,0.2342649 z m 140.799059,-4.4715312 v 6.6648363 h 1.733561 v -3.5373999 c 0,-1.0190523 0.503669,-1.5227219 1.522721,-1.5227219 0.175699,0 0.304545,0.011713 0.53881,0.046853 v -1.7569867 c -0.09371,-0.011713 -0.140559,-0.011713 -0.210839,-0.011713 -0.784787,0 -1.464155,0.527096 -1.850692,1.4290158 v -1.3118834 z m 0,0"
         style="fill:#000000;fill-opacity:1;fill-rule:nonzero;stroke:none"
         id="path125" />
    </g>
  </g>
</svg>
