<?xml version="1.0" encoding="UTF-8" standalone="no"?>
<!-- Created with Inkscape (http://www.inkscape.org/) -->

<svg
   width="109.55257mm"
   height="105.70579mm"
   viewBox="0 0 109.55257 105.70579"
   version="1.1"
   id="svg1"
   inkscape:version="1.3.2 (091e20ef0f, 2023-11-25)"
   sodipodi:docname="3.svg"
   xmlns:inkscape="http://www.inkscape.org/namespaces/inkscape"
   xmlns:sodipodi="http://sodipodi.sourceforge.net/DTD/sodipodi-0.dtd"
   xmlns="http://www.w3.org/2000/svg"
   xmlns:svg="http://www.w3.org/2000/svg">
  <sodipodi:namedview
     id="namedview1"
     pagecolor="#ffffff"
     bordercolor="#000000"
     borderopacity="0.25"
     inkscape:showpageshadow="2"
     inkscape:pageopacity="0.0"
     inkscape:pagecheckerboard="0"
     inkscape:deskcolor="#d1d1d1"
     inkscape:document-units="mm"
     inkscape:zoom="1.6819304"
     inkscape:cx="190.25757"
     inkscape:cy="258.03683"
     inkscape:window-width="1277"
     inkscape:window-height="1600"
     inkscape:window-x="0"
     inkscape:window-y="0"
     inkscape:window-maximized="1"
     inkscape:current-layer="layer1">
    <inkscape:page
       x="0"
       y="0"
       width="109.55257"
       height="105.70579"
       id="page1"
       margin="5.0000005"
       bleed="0" />
  </sodipodi:namedview>
  <defs
     id="defs1">
    <clipPath
       clipPathUnits="userSpaceOnUse"
       id="clipPath159">
      <path
         d="m 1648.8,3715.2 h 2880 v 2732.85 h -2880 z"
         id="path159" />
    </clipPath>
    <clipPath
       clipPathUnits="userSpaceOnUse"
       id="clipPath160">
      <path
         d="m 1648.8,3715.2 h 2880 v 2732.85 h -2880 z"
         id="path160" />
    </clipPath>
    <clipPath
       clipPathUnits="userSpaceOnUse"
       id="clipPath161">
      <path
         d="m 1648.8,3715.2 h 2880 v 2732.85 h -2880 z"
         id="path161" />
    </clipPath>
    <clipPath
       clipPathUnits="userSpaceOnUse"
       id="clipPath162">
      <path
         d="m 1648.8,3715.2 h 2880 v 2732.85 h -2880 z"
         id="path162" />
    </clipPath>
    <clipPath
       clipPathUnits="userSpaceOnUse"
       id="clipPath163">
      <path
         d="m 1648.8,3715.2 h 2880 v 2732.85 h -2880 z"
         id="path163" />
    </clipPath>
    <clipPath
       clipPathUnits="userSpaceOnUse"
       id="clipPath164">
      <path
         d="m 1648.8,3715.2 h 2880 v 2732.85 h -2880 z"
         id="path164" />
    </clipPath>
    <clipPath
       clipPathUnits="userSpaceOnUse"
       id="clipPath165">
      <path
         d="m 1648.8,3715.2 h 2880 v 2732.85 h -2880 z"
         id="path165" />
    </clipPath>
    <clipPath
       clipPathUnits="userSpaceOnUse"
       id="clipPath166">
      <path
         d="m 1648.8,3715.2 h 2880 v 2732.85 h -2880 z"
         id="path166" />
    </clipPath>
    <clipPath
       clipPathUnits="userSpaceOnUse"
       id="clipPath167">
      <path
         d="m 1648.8,3715.2 h 2880 v 2732.85 h -2880 z"
         id="path167" />
    </clipPath>
    <clipPath
       clipPathUnits="userSpaceOnUse"
       id="clipPath168">
      <path
         d="m 1648.8,3715.2 h 2880 v 2732.85 h -2880 z"
         id="path168" />
    </clipPath>
    <clipPath
       clipPathUnits="userSpaceOnUse"
       id="clipPath169">
      <path
         d="m 1648.8,3715.2 h 2880 v 2732.85 h -2880 z"
         id="path169" />
    </clipPath>
    <clipPath
       clipPathUnits="userSpaceOnUse"
       id="clipPath170">
      <path
         d="m 1648.8,3715.2 h 2880 v 2732.85 h -2880 z"
         id="path170" />
    </clipPath>
    <clipPath
       clipPathUnits="userSpaceOnUse"
       id="clipPath171">
      <path
         d="m 1648.8,3715.2 h 2880 v 2732.85 h -2880 z"
         id="path171" />
    </clipPath>
    <clipPath
       clipPathUnits="userSpaceOnUse"
       id="clipPath172">
      <path
         d="m 1648.8,3715.2 h 2880 v 2732.85 h -2880 z"
         transform="matrix(0.1,0,0,-0.1,-202.72002,622.521)"
         id="path172" />
    </clipPath>
    <clipPath
       clipPathUnits="userSpaceOnUse"
       id="clipPath173">
      <path
         d="m 1648.8,3715.2 h 2880 v 2732.85 h -2880 z"
         transform="matrix(0.05000002,0.08660253,0.08660253,-0.05000002,-585.97162,27.039493)"
         id="path173" />
    </clipPath>
    <clipPath
       clipPathUnits="userSpaceOnUse"
       id="clipPath174">
      <path
         d="m 1648.8,3715.2 h 2880 v 2732.85 h -2880 z"
         transform="matrix(0.05000002,-0.08660253,-0.08660253,-0.05000002,291.48559,556.02403)"
         id="path174" />
    </clipPath>
    <clipPath
       clipPathUnits="userSpaceOnUse"
       id="clipPath175">
      <path
         d="m 1648.8,3715.2 h 2880 v 2732.85 h -2880 z"
         transform="matrix(0.1,0,0,-0.1,-288.48901,426.387)"
         id="path175" />
    </clipPath>
  </defs>
  <g
     inkscape:label="Layer 1"
     inkscape:groupmode="layer"
     id="layer1"
     transform="translate(-39.761811,-115.84889)">
    <rect
       style="fill:#ffffff;stroke-width:0.264583"
       id="rect1"
       width="109.55257"
       height="105.70579"
       x="39.76181"
       y="115.84889" />
    <path
       d="m 2122.63,4453.07 c 0,-49.23 -39.9,-89.13 -89.13,-89.13 -49.23,0 -89.13,39.9 -89.13,89.13 0,49.23 39.9,89.13 89.13,89.13 49.23,0 89.13,-39.9 89.13,-89.13"
       style="fill:#ffd600;fill-opacity:1;fill-rule:evenodd;stroke:none"
       transform="matrix(0.03529436,0,0,-0.03529436,-13.799118,347.9022)"
       clip-path="url(#clipPath159)"
       id="path197" />
    <path
       d="m 2122.63,4453.07 c 0,-49.23 -39.9,-89.13 -89.13,-89.13 -49.23,0 -89.13,39.9 -89.13,89.13 0,49.23 39.9,89.13 89.13,89.13 49.23,0 89.13,-39.9 89.13,-89.13 z"
       style="fill:none;stroke:#0000ff;stroke-width:6.30657;stroke-linecap:butt;stroke-linejoin:miter;stroke-miterlimit:10;stroke-dasharray:none;stroke-opacity:1"
       transform="matrix(0.03529436,0,0,-0.03529436,-13.799118,347.9022)"
       clip-path="url(#clipPath160)"
       id="path198" />
    <path
       d="m 4140.73,4453.07 c 0,-49.23 -39.9,-89.13 -89.13,-89.13 -49.22,0 -89.13,39.9 -89.13,89.13 0,49.23 39.91,89.13 89.13,89.13 49.23,0 89.13,-39.9 89.13,-89.13"
       style="fill:#ffd600;fill-opacity:1;fill-rule:evenodd;stroke:none"
       transform="matrix(0.03529436,0,0,-0.03529436,-13.799118,347.9022)"
       clip-path="url(#clipPath161)"
       id="path199" />
    <path
       d="m 4140.73,4453.07 c 0,-49.23 -39.9,-89.13 -89.13,-89.13 -49.22,0 -89.13,39.9 -89.13,89.13 0,49.23 39.91,89.13 89.13,89.13 49.23,0 89.13,-39.9 89.13,-89.13 z"
       style="fill:none;stroke:#0000ff;stroke-width:6.30657;stroke-linecap:butt;stroke-linejoin:miter;stroke-miterlimit:10;stroke-dasharray:none;stroke-opacity:1"
       transform="matrix(0.03529436,0,0,-0.03529436,-13.799118,347.9022)"
       clip-path="url(#clipPath162)"
       id="path200" />
    <path
       d="m 3126.22,6206.3 c 0,-49.23 -39.91,-89.14 -89.13,-89.14 -49.23,0 -89.14,39.91 -89.14,89.14 0,49.22 39.91,89.13 89.14,89.13 49.22,0 89.13,-39.91 89.13,-89.13"
       style="fill:#ffd600;fill-opacity:1;fill-rule:evenodd;stroke:none"
       transform="matrix(0.03529436,0,0,-0.03529436,-13.799118,347.9022)"
       clip-path="url(#clipPath163)"
       id="path201" />
    <path
       d="m 3126.22,6206.3 c 0,-49.23 -39.91,-89.14 -89.13,-89.14 -49.23,0 -89.14,39.91 -89.14,89.14 0,49.22 39.91,89.13 89.14,89.13 49.22,0 89.13,-39.91 89.13,-89.13 z"
       style="fill:none;stroke:#0000ff;stroke-width:6.30657;stroke-linecap:butt;stroke-linejoin:miter;stroke-miterlimit:10;stroke-dasharray:none;stroke-opacity:1"
       transform="matrix(0.03529436,0,0,-0.03529436,-13.799118,347.9022)"
       clip-path="url(#clipPath164)"
       id="path202" />
    <path
       d="m 4186.56,5042.95 c 0,-638.56 -517.65,-1156.21 -1156.2,-1156.21 -638.55,0 -1156.2,517.65 -1156.2,1156.21 0,638.55 517.65,1156.2 1156.2,1156.2 638.55,0 1156.2,-517.65 1156.2,-1156.2 z"
       style="fill:none;stroke:#000000;stroke-width:6.30657;stroke-linecap:butt;stroke-linejoin:miter;stroke-miterlimit:10;stroke-dasharray:none;stroke-opacity:1"
       transform="matrix(0.03529436,0,0,-0.03529436,-13.799118,347.9022)"
       clip-path="url(#clipPath165)"
       id="path203" />
    <path
       d="M 3043.39,6214.7 2034.34,4466.95"
       style="fill:none;stroke:#000000;stroke-width:3.15328;stroke-linecap:butt;stroke-linejoin:miter;stroke-miterlimit:10;stroke-dasharray:25.2263;stroke-dashoffset:0;stroke-opacity:1"
       transform="matrix(0.03529436,0,0,-0.03529436,-13.799118,347.9022)"
       clip-path="url(#clipPath166)"
       id="path204" />
    <path
       d="M 3045.5,6204.19 4054.55,4456.43"
       style="fill:none;stroke:#000000;stroke-width:3.15328;stroke-linecap:butt;stroke-linejoin:miter;stroke-miterlimit:10;stroke-dasharray:25.2263;stroke-dashoffset:0;stroke-opacity:1"
       transform="matrix(0.03529436,0,0,-0.03529436,-13.799118,347.9022)"
       clip-path="url(#clipPath167)"
       id="path205" />
    <path
       d="M 2033.5,4453.07 H 4051.6"
       style="fill:none;stroke:#000000;stroke-width:3.15328;stroke-linecap:butt;stroke-linejoin:miter;stroke-miterlimit:10;stroke-dasharray:25.2263;stroke-dashoffset:0;stroke-opacity:1"
       transform="matrix(0.03529436,0,0,-0.03529436,-13.799118,347.9022)"
       clip-path="url(#clipPath168)"
       id="path206" />
    <path
       d="m 2973.18,6206.3 h -662.19 l 126.13,50.45"
       style="fill:none;stroke:#000000;stroke-width:3.15328;stroke-linecap:butt;stroke-linejoin:miter;stroke-miterlimit:10;stroke-dasharray:none;stroke-opacity:1"
       transform="matrix(0.03529436,0,0,-0.03529436,-13.799118,347.9022)"
       clip-path="url(#clipPath169)"
       id="path207" />
    <path
       d="m 2042.75,4439.2 330.89,-573.06 -106.8,84.5"
       style="fill:none;stroke:#000000;stroke-width:3.15328;stroke-linecap:butt;stroke-linejoin:miter;stroke-miterlimit:10;stroke-dasharray:none;stroke-opacity:1"
       transform="matrix(0.03529436,0,0,-0.03529436,-13.799118,347.9022)"
       clip-path="url(#clipPath170)"
       id="path208" />
    <path
       d="m 4052.45,4457.7 330.88,573.47 -18.5,-134.54"
       style="fill:none;stroke:#000000;stroke-width:3.15328;stroke-linecap:butt;stroke-linejoin:miter;stroke-miterlimit:10;stroke-dasharray:none;stroke-opacity:1"
       transform="matrix(0.03529436,0,0,-0.03529436,-13.799118,347.9022)"
       clip-path="url(#clipPath171)"
       id="path209" />
    <path
       d="M 4.9064937,-0.00132076 7.506834,-7.5680769 H 5.4335897 L 3.9108679,-2.0277121 2.2710136,-7.5680769 H 0.19776927 L 2.8449626,-0.00132076 Z M 42.116544,250.37221 l 2.60034,-7.56675 H 42.64364 l -1.522722,5.54036 -1.639854,-5.54036 H 37.40782 l 2.647193,7.56675 z m 200.548316,-132.43873 2.60034,-7.56675 h -2.07324 l -1.52272,5.54036 -1.63986,-5.54036 h -2.07324 l 2.64719,7.56675 z M 97.259572,-16.481856 c -0.02343,-1.593001 -1.26503,-2.565201 -3.291422,-2.565201 -1.920972,0 -3.115723,0.9722 -3.115723,2.530061 0,0.50367 0.163986,0.93706 0.421677,1.229891 0.269405,0.269404 0.50367,0.386537 1.241604,0.632515 l 2.330936,0.726221 c 0.491956,0.152272 0.655941,0.304545 0.655941,0.620802 0,0.456817 -0.538809,0.737935 -1.452442,0.737935 -0.515383,0 -0.913633,-0.08199 -1.159611,-0.269405 -0.210839,-0.152272 -0.292831,-0.304544 -0.374824,-0.714508 h -1.920972 c 0.04685,1.674994 1.276744,2.530061 3.572539,2.530061 1.042479,0 1.850693,-0.234265 2.401216,-0.679368 0.562235,-0.445104 0.90192,-1.147898 0.90192,-1.885833 0,-0.983912 -0.491957,-1.616427 -1.487583,-1.909259 l -2.483207,-0.714508 c -0.53881,-0.163985 -0.679369,-0.281117 -0.679369,-0.585662 0,-0.421677 0.445104,-0.702794 1.136185,-0.702794 0.93706,0 1.393876,0.339684 1.417303,1.019052 z m 4.934208,-2.284083 h -1.08934 v -2.026391 h -1.96782 v 2.026391 h -0.960486 v 1.311884 h 0.960486 v 4.650158 c 0,1.183037 0.632515,1.780413 1.92097,1.780413 0.44511,0 0.77308,-0.04685 1.13619,-0.163986 v -1.370449 c -0.19913,0.03514 -0.29283,0.04685 -0.44511,0.04685 -0.52709,0 -0.64423,-0.152272 -0.64423,-0.831641 v -4.111348 h 1.08934 z m 7.79516,7.180219 c -0.33968,-0.327971 -0.45682,-0.550522 -0.45682,-0.925346 v -4.205055 c 0,-1.546148 -1.04247,-2.330936 -3.09229,-2.330936 -2.04982,0 -3.10401,0.878494 -3.23286,2.623767 h 1.88583 c 0.10542,-0.784787 0.42168,-1.030765 1.39388,-1.030765 0.74965,0 1.13619,0.245978 1.13619,0.749647 0,0.257692 -0.12885,0.46853 -0.33969,0.585662 -0.2694,0.140559 -0.2694,0.140559 -1.22989,0.292832 l -0.78479,0.140558 c -1.49929,0.257692 -2.23723,1.030766 -2.23723,2.389502 0,1.358737 0.91364,2.27237 2.30751,2.27237 0.83164,0 1.593,-0.351397 2.2958,-1.089332 0,0.39825 0.0351,0.538809 0.22255,0.761361 h 2.13181 z m -2.36607,-2.811179 c 0,1.136185 -0.56224,1.780414 -1.55787,1.780414 -0.65594,0 -1.0659,-0.351398 -1.0659,-0.90192 0,-0.597376 0.30454,-0.878494 1.12447,-1.042479 l 0.66766,-0.128846 c 0.51538,-0.09371 0.59737,-0.117132 0.83164,-0.234265 z m 3.6926,-4.521312 v 7.566756 h 1.96782 v -4.017643 c 0,-1.147898 0.57395,-1.721847 1.72185,-1.721847 0.21084,0 0.3514,0.01171 0.6208,0.04685 v -1.979538 c -0.11713,-0.02343 -0.16399,-0.02343 -0.24598,-0.02343 -0.8902,0 -1.66328,0.597376 -2.09667,1.616428 v -1.487582 z M 220.23693,183.43688 c -0.0234,-1.593 -1.26503,-2.5652 -3.29142,-2.5652 -1.92097,0 -3.11573,0.9722 -3.11573,2.53006 0,0.50367 0.16399,0.93706 0.42168,1.22989 0.26941,0.2694 0.50367,0.38654 1.2416,0.63251 l 2.33094,0.72622 c 0.49196,0.15228 0.65594,0.30455 0.65594,0.62081 0,0.45681 -0.53881,0.73793 -1.45244,0.73793 -0.51538,0 -0.91363,-0.082 -1.15961,-0.2694 -0.21084,-0.15228 -0.29283,-0.30455 -0.37483,-0.71451 h -1.92097 c 0.0469,1.67499 1.27675,2.53006 3.57254,2.53006 1.04248,0 1.8507,-0.23427 2.40122,-0.67937 0.56223,-0.4451 0.90192,-1.1479 0.90192,-1.88583 0,-0.98391 -0.49196,-1.61643 -1.48758,-1.90926 l -2.48321,-0.71451 c -0.53881,-0.16398 -0.67937,-0.28112 -0.67937,-0.58566 0,-0.42168 0.4451,-0.70279 1.13618,-0.70279 0.93706,0 1.39388,0.33968 1.41731,1.01905 z m 4.9342,-2.28409 h -1.08933 v -2.02639 h -1.96782 v 2.02639 h -0.96049 v 1.31189 h 0.96049 v 4.65016 c 0,1.18303 0.63251,1.78041 1.92097,1.78041 0.4451,0 0.77307,-0.0469 1.13618,-0.16399 v -1.37045 c -0.19912,0.0351 -0.29283,0.0469 -0.4451,0.0469 -0.5271,0 -0.64423,-0.15227 -0.64423,-0.83164 v -4.11135 h 1.08933 z m 7.79517,7.18022 c -0.33969,-0.32797 -0.45682,-0.55052 -0.45682,-0.92534 v -4.20506 c 0,-1.54615 -1.04248,-2.33093 -3.0923,-2.33093 -2.04981,0 -3.10401,0.87849 -3.23285,2.62376 h 1.88583 c 0.10542,-0.78478 0.42168,-1.03076 1.39388,-1.03076 0.74965,0 1.13618,0.24598 1.13618,0.74965 0,0.25769 -0.12884,0.46853 -0.33968,0.58566 -0.26941,0.14056 -0.26941,0.14056 -1.22989,0.29283 l -0.78479,0.14056 c -1.4993,0.25769 -2.23723,1.03076 -2.23723,2.3895 0,1.35874 0.91363,2.27237 2.30751,2.27237 0.83164,0 1.593,-0.3514 2.2958,-1.08933 0,0.39825 0.0351,0.53881 0.22255,0.76136 h 2.13181 z m -2.36608,-2.81118 c 0,1.13619 -0.56223,1.78042 -1.55786,1.78042 -0.65594,0 -1.0659,-0.3514 -1.0659,-0.90192 0,-0.59738 0.30454,-0.8785 1.12447,-1.04248 l 0.66765,-0.12885 c 0.51538,-0.0937 0.59738,-0.11713 0.83164,-0.23426 z m 3.6926,-4.52131 v 7.56676 h 1.96783 v -4.01764 c 0,-1.1479 0.57395,-1.72185 1.72184,-1.72185 0.21084,0 0.3514,0.0117 0.62081,0.0469 v -1.97954 c -0.11714,-0.0234 -0.16399,-0.0234 -0.24598,-0.0234 -0.89021,0 -1.66328,0.59737 -2.09667,1.61642 v -1.48758 z m -264.426498,1.80384 c -0.02343,-1.593 -1.265031,-2.5652 -3.291422,-2.5652 -1.920972,0 -3.115723,0.9722 -3.115723,2.53006 0,0.50367 0.163985,0.93706 0.421677,1.22989 0.269404,0.26941 0.503669,0.38654 1.241604,0.63252 l 2.330936,0.72622 c 0.491956,0.15227 0.655941,0.30454 0.655941,0.6208 0,0.45682 -0.538809,0.73794 -1.452442,0.73794 -0.515383,0 -0.913633,-0.082 -1.159611,-0.26941 -0.210839,-0.15227 -0.292831,-0.30454 -0.374824,-0.71451 h -1.920972 c 0.04685,1.675 1.276743,2.53006 3.572539,2.53006 1.042479,0 1.850693,-0.23426 2.401215,-0.67936 0.562236,-0.44511 0.90192,-1.1479 0.90192,-1.88584 0,-0.98391 -0.491956,-1.61642 -1.487582,-1.90926 l -2.483208,-0.7145 c -0.538809,-0.16399 -0.679368,-0.28112 -0.679368,-0.58567 0,-0.42167 0.445103,-0.70279 1.136185,-0.70279 0.937059,0 1.393876,0.33968 1.417303,1.01905 z m 4.934204,-2.28408 h -1.089331 v -2.02639 h -1.967826 v 2.02639 h -0.960486 v 1.31188 h 0.960486 v 4.65016 c 0,1.18304 0.632516,1.78041 1.920973,1.78041 0.445103,0 0.773074,-0.0469 1.136184,-0.16398 v -1.37045 c -0.199125,0.0351 -0.292831,0.0469 -0.445103,0.0469 -0.527096,0 -0.644228,-0.15227 -0.644228,-0.83164 v -4.11135 h 1.089331 z m 7.795165,7.18022 c -0.339684,-0.32797 -0.456817,-0.55052 -0.456817,-0.92535 v -4.20505 c 0,-1.54615 -1.042479,-2.33094 -3.092296,-2.33094 -2.049818,0 -3.10401,0.87849 -3.232856,2.62377 h 1.885832 c 0.10542,-0.78479 0.421677,-1.03077 1.393877,-1.03077 0.749647,0 1.136184,0.24598 1.136184,0.74965 0,0.25769 -0.128845,0.46853 -0.339684,0.58566 -0.269404,0.14056 -0.269404,0.14056 -1.229891,0.29283 l -0.784787,0.14056 c -1.499295,0.25769 -2.23723,1.03077 -2.23723,2.3895 0,1.35874 0.913633,2.27237 2.30751,2.27237 0.83164,0 1.593001,-0.35139 2.295795,-1.08933 0,0.39825 0.03514,0.53881 0.222552,0.76136 h 2.131811 z m -2.366076,-2.81118 c 0,1.13618 -0.562236,1.78041 -1.557861,1.78041 -0.655942,0 -1.065906,-0.35139 -1.065906,-0.90192 0,-0.59737 0.304545,-0.87849 1.124472,-1.04248 l 0.667655,-0.12884 c 0.515383,-0.0937 0.597375,-0.11713 0.83164,-0.23427 z m 3.692601,-4.52131 v 7.56675 h 1.967825 v -4.01764 c 0,-1.1479 0.573949,-1.72185 1.721847,-1.72185 0.210838,0 0.351397,0.0117 0.620802,0.0469 v -1.97954 c -0.117133,-0.0234 -0.163986,-0.0234 -0.245978,-0.0234 -0.890207,0 -1.663281,0.59738 -2.096671,1.61643 v -1.48758 z m 0,0"
       style="fill:#000000;fill-opacity:1;fill-rule:nonzero;stroke:none"
       aria-label="v&#10;v&#10;v&#10;star&#10;star&#10;star"
       transform="matrix(0.35294358,0,0,0.35294358,57.749612,128.18741)"
       clip-path="url(#clipPath172)"
       id="path210" />
    <path
       d="m 1.6214638,-0.0028382 5.993073,0.002370762 C 9.9449614,0.00658979 11.422955,-0.549174 12.466409,-1.7873016 c 1.215481,-1.4321245 1.846982,-3.5009085 1.850901,-5.8836223 -0.0062,-2.3768571 -0.638659,-4.4327491 -1.85975,-5.8917981 -1.039956,-1.23902 -2.4835682,-1.771604 -4.8401374,-1.777092 l -5.9930729,-0.0024 z m 3.1439836,-2.6131728 -0.00128,-10.075603 2.8490285,-0.0083 c 2.3827138,0.0039 3.5480691,1.670975 3.5514941,5.0503207 -0.0024,3.3692015 -1.1675007,5.0292011 -3.5502144,5.0252825 z m 0,0"
       style="fill:#000000;fill-opacity:1;fill-rule:nonzero;stroke:none"
       aria-label="D"
       transform="matrix(0.17647185,-0.30565807,0.30565807,0.17647185,81.34354,164.02354)"
       clip-path="url(#clipPath173)"
       id="path211" />
    <path
       d="M 1.6196237,0.00304478 7.6126966,6.7401759e-4 C 9.9431213,-0.00638321 11.414447,-0.56354264 12.448547,-1.7924191 c 1.219522,-1.4329046 1.857811,-3.4989401 1.853893,-5.8816539 0.0062,-2.376857 -0.631132,-4.435497 -1.845044,-5.893766 -1.037598,-1.248272 -2.491016,-1.776322 -4.8475852,-1.770834 l -5.993073,0.0024 z m 3.1441054,-2.63456998 0.00128,-10.0756038 2.8490284,0.0083 c 2.3827138,-0.0039 3.5477825,1.656081 3.5443575,5.0354266 0.0024,3.3692015 -1.1629234,5.0362583 -3.5456372,5.040177 z m 0,0"
       style="fill:#000000;fill-opacity:1;fill-rule:nonzero;stroke:none"
       aria-label="D"
       transform="matrix(0.17647185,0.30565807,-0.30565807,0.17647185,104.71511,160.68469)"
       clip-path="url(#clipPath174)"
       id="path212" />
    <path
       d="m 1.6163068,3.4686197e-5 h 5.9971813 c 2.3309357,0 3.8068049,-0.550522506197 4.8492829,-1.792126486197 1.206465,-1.4290158 1.850693,-3.4905469 1.850693,-5.8800488 0,-2.3777884 -0.644228,-4.4393194 -1.850693,-5.8917624 -1.042478,-1.241604 -2.4949207,-1.7687 -4.8492829,-1.7687 H 1.6163068 Z M 4.7671696,-2.6237321 V -12.697123 h 2.8463185 c 2.3777887,0 3.5491129,1.663281 3.5491129,5.0484088 0,3.3617013 -1.1713242,5.0249821 -3.5491129,5.0249821 z m 0,0"
       style="fill:#000000;fill-opacity:1;fill-rule:nonzero;stroke:none"
       aria-label="D"
       transform="matrix(0.35294358,0,0,0.35294358,88.021223,197.41165)"
       clip-path="url(#clipPath175)"
       id="path213" />
  </g>
</svg>
