<svg version="1.1" xmlns="http://www.w3.org/2000/svg" viewBox="0 0 491.33331298828125 522.6667022705078" width="491.33331298828125" height="522.6667022705078" filter="invert(93%) hue-rotate(180deg)">
  <!-- svg-source:excalidraw -->
  
  <defs>
    <style>
      @font-face {
        font-family: "Virgil";
        src: url("https://unpkg.com/@zsviczian/excalidraw@0.11.0-obsidian-25/dist/excalidraw-assets/Virgil.woff2");
      }
      @font-face {
        font-family: "Cascadia";
        src: url("https://unpkg.com/@zsviczian/excalidraw@0.11.0-obsidian-25/dist/excalidraw-assets/Cascadia.woff2");
      }
    </style>
  </defs>
  <rect x="0" y="0" width="491.33331298828125" height="522.6667022705078" fill="#ffffff"/><g transform="translate(28.666656494140625 226.6666717529297) rotate(0 205.6666717529297 71.33332824707031)" stroke="none"><path fill="#000000" d="M 0.75,-1.76 Q 0.75,-1.76 2.15,-1.33 3.56,-0.89 5.12,-0.06 6.69,0.76 8.23,1.74 9.78,2.71 11.16,3.69 12.54,4.67 14.35,6.01 16.16,7.36 17.13,8.05 18.09,8.75 18.98,9.51 19.87,10.27 20.84,11.18 21.81,12.09 22.69,12.75 23.57,13.40 24.62,14.00 25.66,14.60 26.88,15.25 28.09,15.89 29.22,16.29 30.35,16.69 31.74,17.05 33.13,17.40 35.56,18.16 37.99,18.92 40.00,19.64 42.02,20.35 43.71,20.81 45.41,21.26 47.07,21.89 48.74,22.52 50.07,22.93 51.40,23.34 52.90,23.95 54.39,24.56 55.92,25.18 57.44,25.80 58.64,26.24 59.83,26.68 61.03,27.04 62.23,27.39 64.23,28.17 66.23,28.94 67.58,29.43 68.93,29.92 70.08,30.32 71.22,30.71 72.28,31.07 73.34,31.43 74.57,32.05 75.80,32.67 77.65,33.38 79.50,34.09 82.18,35.20 84.86,36.32 86.04,36.79 87.22,37.26 88.29,37.65 89.35,38.03 90.37,38.39 91.40,38.74 92.72,39.32 94.04,39.90 95.06,40.29 96.09,40.69 97.40,41.28 98.71,41.87 99.92,42.55 101.13,43.23 102.32,43.85 103.52,44.48 104.79,45.13 106.07,45.78 107.38,46.43 108.69,47.09 110.93,48.10 113.18,49.11 114.94,49.92 116.71,50.74 118.50,51.42 120.30,52.10 122.21,52.78 124.12,53.46 126.08,54.13 128.04,54.81 130.06,55.24 132.08,55.68 134.41,56.28 136.73,56.88 140.58,57.89 144.42,58.91 147.58,59.73 150.73,60.54 153.44,61.27 156.15,62.01 158.80,62.70 161.46,63.39 164.13,64.06 166.79,64.74 169.46,65.41 172.12,66.07 174.62,66.75 177.12,67.42 179.69,68.09 182.26,68.75 184.89,69.42 187.51,70.08 191.58,71.34 195.66,72.61 200.25,74.10 204.84,75.59 208.18,76.81 211.52,78.04 214.45,79.12 217.39,80.21 220.17,81.25 222.95,82.28 225.83,83.29 228.70,84.29 231.98,85.28 235.26,86.26 238.51,87.49 241.76,88.72 246.04,89.95 250.33,91.19 253.38,92.12 256.42,93.05 259.13,94.04 261.83,95.04 264.23,95.81 266.63,96.59 269.25,97.51 271.87,98.44 274.26,99.19 276.65,99.95 279.10,100.88 281.56,101.81 283.85,102.55 286.13,103.29 288.44,103.99 290.75,104.69 292.92,105.39 295.08,106.08 298.48,107.13 301.87,108.19 304.48,109.02 307.09,109.86 309.35,110.60 311.61,111.34 313.88,112.02 316.15,112.71 318.17,113.17 320.20,113.63 322.49,114.23 324.79,114.83 326.82,115.26 328.85,115.68 330.99,116.27 333.13,116.87 335.06,117.28 336.99,117.69 340.10,118.68 343.21,119.67 345.36,120.25 347.51,120.82 349.36,121.50 351.20,122.18 352.61,122.62 354.03,123.05 355.69,123.65 357.36,124.26 358.72,124.66 360.09,125.07 361.43,125.44 362.77,125.80 364.86,126.34 366.96,126.87 369.39,127.48 371.82,128.09 373.62,128.54 375.42,129.00 376.95,129.38 378.48,129.76 379.90,130.12 381.32,130.47 382.69,130.81 384.05,131.16 385.27,131.51 386.48,131.86 387.58,132.20 388.68,132.54 389.72,132.88 390.77,133.22 391.79,133.55 392.81,133.88 394.39,134.41 395.97,134.93 397.98,135.42 399.99,135.91 401.75,136.62 403.51,137.33 404.57,137.70 405.62,138.07 408.40,139.70 411.18,141.34 411.39,141.38 411.60,141.43 411.78,141.54 411.96,141.65 412.09,141.82 412.23,141.98 412.31,142.18 412.38,142.38 412.39,142.59 412.40,142.80 412.34,143.00 412.29,143.21 412.17,143.38 412.04,143.56 411.87,143.69 411.70,143.81 411.50,143.88 411.30,143.95 411.09,143.94 410.88,143.94 410.67,143.87 410.47,143.80 410.31,143.67 410.14,143.54 410.02,143.37 409.90,143.19 409.85,142.98 409.79,142.78 409.81,142.57 409.82,142.35 409.90,142.16 409.98,141.96 410.12,141.80 410.26,141.64 410.44,141.53 410.62,141.42 410.83,141.38 411.04,141.34 411.25,141.36 411.46,141.38 411.65,141.48 411.85,141.57 412.00,141.71 412.15,141.86 412.25,142.05 412.35,142.24 412.38,142.45 412.41,142.66 412.38,142.87 412.34,143.08 412.24,143.26 412.14,143.45 411.98,143.60 411.83,143.74 411.63,143.83 411.44,143.92 411.23,143.94 411.02,143.96 411.02,143.96 411.02,143.96 408.44,144.27 405.86,144.58 404.09,144.12 402.32,143.66 401.00,143.05 399.67,142.44 398.06,141.91 396.46,141.38 395.23,141.11 394.01,140.84 391.43,139.98 388.85,139.12 387.84,138.79 386.82,138.46 385.79,138.13 384.75,137.80 383.65,137.48 382.55,137.15 381.18,136.81 379.82,136.47 378.40,136.11 376.98,135.76 375.45,135.37 373.91,134.99 372.11,134.53 370.31,134.08 367.87,133.46 365.43,132.84 363.29,132.29 361.14,131.73 359.72,131.34 358.30,130.95 356.78,130.49 355.26,130.02 353.74,129.46 352.22,128.90 350.64,128.41 349.07,127.92 347.49,127.33 345.92,126.74 343.63,126.12 341.34,125.50 338.52,124.59 335.70,123.68 333.59,123.22 331.48,122.77 329.53,122.22 327.59,121.67 325.41,121.21 323.23,120.74 321.03,120.16 318.83,119.58 316.61,119.07 314.38,118.55 312.05,117.85 309.71,117.14 307.47,116.41 305.22,115.67 302.64,114.84 300.06,114.01 296.64,112.95 293.23,111.89 291.11,111.21 288.98,110.53 286.61,109.81 284.24,109.09 281.82,108.30 279.40,107.51 277.10,106.64 274.80,105.76 272.32,104.98 269.83,104.19 267.29,103.29 264.76,102.39 262.24,101.57 259.73,100.76 257.18,99.81 254.64,98.87 251.64,97.95 248.64,97.04 244.12,95.72 239.60,94.41 236.55,93.24 233.51,92.08 230.10,91.06 226.70,90.03 223.76,89.00 220.83,87.97 218.05,86.94 215.27,85.90 212.35,84.81 209.43,83.72 206.20,82.53 202.97,81.34 198.41,79.86 193.86,78.38 189.94,77.16 186.03,75.94 183.39,75.27 180.75,74.60 178.15,73.93 175.55,73.26 173.10,72.59 170.65,71.93 167.98,71.26 165.31,70.58 162.63,69.90 159.95,69.22 157.26,68.52 154.57,67.82 151.90,67.10 149.23,66.38 146.06,65.56 142.88,64.74 139.05,63.72 135.22,62.71 133.00,62.14 130.79,61.56 128.44,61.03 126.09,60.51 124.09,59.82 122.10,59.14 120.10,58.42 118.11,57.71 116.13,56.92 114.14,56.13 112.43,55.29 110.73,54.45 108.40,53.36 106.08,52.27 104.76,51.60 103.44,50.93 102.13,50.27 100.83,49.60 99.55,48.93 98.28,48.25 97.30,47.69 96.31,47.12 95.16,46.59 94.01,46.06 92.86,45.61 91.70,45.16 90.60,44.67 89.50,44.18 88.44,43.80 87.38,43.43 86.23,43.01 85.09,42.59 83.78,42.06 82.47,41.54 81.02,40.86 79.57,40.19 78.54,39.83 77.52,39.47 76.46,39.07 75.40,38.68 73.45,37.75 71.49,36.82 70.42,36.45 69.34,36.08 68.16,35.66 66.98,35.24 65.58,34.72 64.17,34.20 62.39,33.49 60.61,32.79 59.24,32.37 57.86,31.96 56.59,31.48 55.33,31.01 53.77,30.37 52.22,29.74 50.98,29.21 49.73,28.67 48.23,28.20 46.73,27.72 45.34,27.17 43.95,26.62 42.05,26.09 40.16,25.57 38.25,24.89 36.33,24.20 34.03,23.48 31.72,22.75 30.08,22.31 28.44,21.87 26.96,21.31 25.49,20.74 24.17,20.02 22.85,19.30 21.54,18.49 20.23,17.68 19.17,16.82 18.12,15.97 16.50,14.44 14.88,12.91 13.80,12.04 12.72,11.16 11.10,9.75 9.47,8.33 8.18,7.35 6.89,6.37 5.72,5.58 4.55,4.78 3.17,3.98 1.80,3.19 0.52,2.48 -0.75,1.76 -0.95,1.65 -1.15,1.53 -1.32,1.37 -1.49,1.21 -1.61,1.01 -1.73,0.82 -1.81,0.60 -1.88,0.38 -1.90,0.14 -1.92,-0.08 -1.88,-0.31 -1.84,-0.53 -1.75,-0.75 -1.66,-0.96 -1.52,-1.14 -1.38,-1.33 -1.20,-1.48 -1.02,-1.62 -0.81,-1.72 -0.60,-1.82 -0.37,-1.87 -0.15,-1.91 0.08,-1.90 0.31,-1.89 0.53,-1.83 0.75,-1.76 0.75,-1.76 L 0.75,-1.76 Z"/></g><g transform="translate(10.666656494140625 376.00001525878906) rotate(0 187 -96)" stroke="none"><path fill="#000000" d="M -0.92,-1.85 Q -0.92,-1.85 0.08,-2.70 1.09,-3.54 3.02,-4.81 4.95,-6.08 6.24,-6.77 7.52,-7.46 8.71,-8.25 9.89,-9.04 11.58,-10.17 13.28,-11.30 15.15,-12.54 17.02,-13.79 18.97,-15.09 20.92,-16.38 23.13,-17.73 25.35,-19.08 29.25,-21.04 33.14,-23.00 36.51,-24.59 39.88,-26.18 43.41,-27.81 46.95,-29.45 50.78,-31.11 54.60,-32.77 58.69,-34.62 62.78,-36.46 67.01,-38.39 71.24,-40.33 75.37,-42.12 79.49,-43.91 83.28,-45.79 87.07,-47.67 90.62,-49.44 94.17,-51.20 99.30,-53.86 104.43,-56.52 108.38,-58.44 112.33,-60.36 115.95,-61.95 119.58,-63.55 122.89,-64.82 126.20,-66.09 129.26,-67.38 132.33,-68.66 135.57,-69.99 138.82,-71.31 142.05,-72.80 145.29,-74.30 148.58,-75.89 151.87,-77.49 157.63,-80.63 163.38,-83.77 167.96,-86.27 172.54,-88.77 176.60,-90.98 180.65,-93.19 184.49,-95.28 188.32,-97.37 191.89,-99.23 195.46,-101.09 198.84,-103.00 202.22,-104.92 205.68,-106.55 209.15,-108.19 212.26,-109.80 215.37,-111.41 218.64,-113.07 221.91,-114.73 225.05,-116.21 228.20,-117.70 233.50,-120.41 238.81,-123.12 243.01,-125.25 247.20,-127.37 251.07,-129.41 254.94,-131.45 258.47,-133.45 262.00,-135.45 265.47,-137.29 268.94,-139.13 271.94,-140.67 274.95,-142.22 277.61,-143.47 280.27,-144.72 282.28,-145.79 284.29,-146.86 286.19,-147.74 288.10,-148.62 291.37,-150.14 294.64,-151.65 297.48,-153.21 300.32,-154.77 303.12,-156.23 305.92,-157.69 308.65,-159.07 311.37,-160.46 314.06,-161.82 316.76,-163.17 319.13,-164.65 321.51,-166.12 324.16,-167.58 326.82,-169.03 329.25,-170.39 331.68,-171.76 334.13,-172.95 336.58,-174.15 340.05,-175.96 343.51,-177.78 346.01,-178.96 348.50,-180.15 350.44,-181.19 352.38,-182.23 354.26,-183.10 356.14,-183.97 357.66,-184.70 359.17,-185.44 360.58,-186.13 361.99,-186.82 363.08,-187.46 364.18,-188.09 365.78,-189.12 367.37,-190.14 368.50,-190.81 369.63,-191.47 371.56,-192.05 373.48,-192.63 373.64,-192.77 373.81,-192.91 374.00,-192.99 374.20,-193.07 374.41,-193.08 374.62,-193.09 374.83,-193.04 375.03,-192.98 375.21,-192.86 375.39,-192.75 375.52,-192.58 375.65,-192.41 375.71,-192.21 375.78,-192.01 375.78,-191.79 375.79,-191.58 375.72,-191.38 375.65,-191.18 375.52,-191.01 375.40,-190.84 375.22,-190.72 375.05,-190.60 374.84,-190.54 374.64,-190.48 374.42,-190.49 374.21,-190.50 374.01,-190.58 373.82,-190.66 373.65,-190.80 373.49,-190.93 373.38,-191.12 373.27,-191.30 373.22,-191.50 373.18,-191.71 373.20,-191.92 373.22,-192.13 373.31,-192.33 373.40,-192.52 373.54,-192.68 373.69,-192.83 373.88,-192.93 374.06,-193.03 374.27,-193.07 374.48,-193.10 374.69,-193.07 374.90,-193.04 375.09,-192.94 375.28,-192.84 375.42,-192.68 375.57,-192.53 375.66,-192.34 375.75,-192.15 375.78,-191.93 375.80,-191.72 375.76,-191.52 375.71,-191.31 375.60,-191.13 375.49,-190.94 375.49,-190.94 375.49,-190.94 373.99,-188.78 372.48,-186.62 371.44,-186.01 370.40,-185.40 368.70,-184.31 366.99,-183.22 365.73,-182.50 364.47,-181.77 363.04,-181.07 361.61,-180.37 360.06,-179.62 358.50,-178.87 356.77,-178.07 355.03,-177.27 352.98,-176.17 350.92,-175.07 348.52,-173.93 346.12,-172.79 342.58,-170.94 339.04,-169.09 336.73,-167.97 334.43,-166.85 331.97,-165.47 329.52,-164.10 326.99,-162.72 324.47,-161.33 321.88,-159.74 319.29,-158.15 316.61,-156.80 313.93,-155.44 311.23,-154.07 308.53,-152.69 305.77,-151.26 303.02,-149.83 300.01,-148.18 297.00,-146.54 293.73,-145.03 290.46,-143.52 288.69,-142.70 286.92,-141.89 284.79,-140.76 282.66,-139.63 280.09,-138.43 277.52,-137.22 274.55,-135.69 271.57,-134.16 268.17,-132.36 264.77,-130.56 261.16,-128.52 257.56,-126.48 253.65,-124.42 249.74,-122.35 245.55,-120.24 241.37,-118.12 235.98,-115.37 230.60,-112.61 227.52,-111.16 224.45,-109.71 221.20,-108.06 217.95,-106.41 214.75,-104.76 211.54,-103.10 208.26,-101.56 204.98,-100.02 201.52,-98.06 198.05,-96.10 194.53,-94.27 191.01,-92.44 187.18,-90.35 183.35,-88.26 179.29,-86.04 175.24,-83.83 170.66,-81.33 166.08,-78.84 160.20,-75.63 154.32,-72.43 150.98,-70.81 147.64,-69.20 144.29,-67.66 140.93,-66.12 137.71,-64.81 134.48,-63.50 131.34,-62.19 128.19,-60.88 125.01,-59.67 121.82,-58.45 118.29,-56.90 114.76,-55.35 110.87,-53.46 106.99,-51.58 101.82,-48.90 96.65,-46.22 93.09,-44.45 89.54,-42.68 85.62,-40.75 81.71,-38.81 77.63,-37.04 73.56,-35.27 69.31,-33.33 65.07,-31.39 60.94,-29.53 56.82,-27.67 53.05,-26.03 49.28,-24.40 45.76,-22.78 42.24,-21.16 38.93,-19.60 35.62,-18.04 31.93,-16.19 28.23,-14.35 26.11,-13.06 23.99,-11.77 22.04,-10.48 20.09,-9.18 18.22,-7.93 16.34,-6.69 14.64,-5.55 12.93,-4.42 11.52,-3.50 10.10,-2.58 8.89,-1.95 7.67,-1.32 6.65,-0.76 5.62,-0.21 4.56,0.51 3.50,1.24 2.21,1.55 0.92,1.85 0.69,1.94 0.45,2.02 0.20,2.05 -0.04,2.07 -0.28,2.04 -0.53,2.00 -0.76,1.91 -1.00,1.82 -1.20,1.67 -1.40,1.52 -1.57,1.33 -1.73,1.14 -1.84,0.92 -1.95,0.69 -2.01,0.45 -2.06,0.20 -2.06,-0.04 -2.05,-0.29 -1.99,-0.53 -1.92,-0.77 -1.80,-0.99 -1.68,-1.21 -1.51,-1.39 -1.34,-1.58 -1.13,-1.72 -0.92,-1.85 -0.92,-1.85 L -0.92,-1.85 Z"/></g><g transform="translate(168.66668701171875 98.00001525878906) rotate(0 6.33331298828125 207.33334350585938)" stroke="none"><path fill="#000000" d="M 1.55,-0.17 Q 1.55,-0.17 1.86,1.53 2.16,3.25 2.26,4.80 2.36,6.35 2.41,7.58 2.46,8.82 2.50,10.11 2.54,11.41 2.74,12.59 2.95,13.77 3.08,15.77 3.21,17.76 3.44,19.24 3.68,20.71 3.79,22.22 3.91,23.73 4.14,24.79 4.37,25.84 4.50,27.23 4.63,28.62 4.99,30.97 5.35,33.32 5.41,34.67 5.47,36.01 5.51,38.12 5.56,40.23 5.59,42.85 5.62,45.46 5.64,47.34 5.66,49.22 5.46,51.10 5.27,52.99 5.20,54.43 5.12,55.88 5.10,57.45 5.07,59.01 5.06,60.64 5.05,62.26 5.06,64.10 5.07,65.94 5.08,67.87 5.08,69.80 5.09,72.93 5.09,76.05 5.28,78.43 5.47,80.81 5.56,83.06 5.65,85.32 5.87,87.52 6.09,89.72 6.19,91.90 6.30,94.09 6.52,96.05 6.75,98.02 6.86,100.12 6.96,102.22 7.20,105.15 7.44,108.08 7.73,110.44 8.02,112.80 8.16,115.05 8.30,117.31 8.37,120.39 8.43,123.47 8.46,125.92 8.48,128.37 8.49,130.37 8.50,132.37 8.51,134.18 8.51,135.98 8.70,137.57 8.89,139.16 8.98,140.73 9.07,142.30 9.29,143.58 9.50,144.85 9.81,147.01 10.11,149.17 10.25,150.92 10.39,152.67 10.45,154.19 10.50,155.72 10.53,157.33 10.55,158.94 10.74,160.23 10.94,161.51 11.03,163.19 11.13,164.87 11.17,166.53 11.21,168.20 11.23,169.87 11.24,171.53 11.25,173.97 11.26,176.40 11.26,178.39 11.26,180.38 11.26,182.19 11.26,183.99 11.45,185.36 11.63,186.74 11.72,188.24 11.81,189.75 12.02,190.98 12.23,192.21 12.34,193.68 12.46,195.15 12.50,196.74 12.54,198.33 12.56,199.76 12.58,201.20 12.77,202.40 12.96,203.60 13.05,205.25 13.15,206.91 13.19,209.73 13.23,212.54 13.25,214.68 13.26,216.82 13.27,218.50 13.28,220.18 13.28,221.85 13.28,223.52 13.28,225.00 13.28,226.48 13.28,227.87 13.28,229.26 13.46,230.44 13.64,231.62 13.92,233.74 14.20,235.87 14.33,237.61 14.46,239.35 14.51,241.07 14.57,242.79 14.60,244.48 14.62,246.17 14.63,247.84 14.64,249.52 14.64,251.19 14.65,252.86 14.65,254.53 14.65,256.20 14.65,257.67 14.65,259.15 14.65,260.73 14.65,262.32 14.65,264.72 14.65,267.12 14.66,269.86 14.66,272.60 14.66,274.73 14.66,276.85 14.66,278.72 14.66,280.58 14.66,282.52 14.66,284.46 14.66,286.24 14.66,288.03 14.66,289.55 14.66,291.07 14.66,292.68 14.65,294.29 14.66,296.50 14.66,298.72 14.66,300.62 14.66,302.52 14.66,304.29 14.66,306.05 14.66,307.76 14.66,309.47 14.66,311.15 14.66,312.84 14.66,314.70 14.66,316.57 14.67,318.51 14.67,320.46 14.47,322.56 14.28,324.67 14.20,326.58 14.12,328.50 14.09,330.27 14.06,332.05 14.04,333.76 14.03,335.47 14.02,337.73 14.01,339.99 14.01,341.71 14.01,343.44 14.01,344.94 14.01,346.44 14.01,347.85 14.01,349.25 14.01,350.62 14.01,351.98 14.01,353.33 14.01,354.67 13.81,356.37 13.61,358.07 13.53,359.58 13.46,361.09 13.43,363.45 13.40,365.81 13.18,367.73 12.97,369.66 12.88,370.93 12.80,372.20 12.77,373.29 12.73,374.39 12.87,375.96 13.01,377.52 13.11,378.62 13.22,379.73 13.26,381.36 13.30,382.99 13.31,385.00 13.33,387.02 13.33,388.64 13.34,390.26 13.34,391.72 13.34,393.18 13.35,394.37 13.35,395.56 13.34,397.41 13.34,399.25 13.34,400.49 13.34,401.72 13.34,403.15 13.35,404.57 13.35,405.80 13.35,407.02 13.61,408.19 13.88,409.36 13.65,411.46 13.43,413.57 13.55,413.74 13.67,413.92 13.73,414.12 13.79,414.32 13.78,414.54 13.77,414.75 13.70,414.95 13.62,415.15 13.49,415.31 13.35,415.47 13.17,415.58 12.99,415.70 12.78,415.75 12.58,415.79 12.37,415.77 12.15,415.75 11.96,415.67 11.77,415.58 11.61,415.44 11.45,415.29 11.35,415.11 11.25,414.92 11.21,414.71 11.18,414.50 11.21,414.29 11.24,414.08 11.34,413.89 11.43,413.70 11.58,413.56 11.74,413.41 11.93,413.32 12.12,413.22 12.33,413.20 12.54,413.17 12.75,413.21 12.96,413.26 13.14,413.36 13.32,413.47 13.46,413.63 13.60,413.79 13.69,413.99 13.77,414.18 13.78,414.40 13.80,414.61 13.74,414.81 13.69,415.02 13.57,415.20 13.45,415.37 13.29,415.50 13.12,415.64 12.92,415.71 12.72,415.78 12.51,415.78 12.29,415.78 12.09,415.72 11.89,415.65 11.72,415.53 11.55,415.40 11.55,415.40 11.55,415.40 10.04,412.71 8.54,410.01 8.26,408.55 7.97,407.08 7.98,405.83 7.98,404.57 7.98,403.15 7.98,401.72 7.98,400.49 7.98,399.25 7.98,397.41 7.97,395.57 7.97,394.38 7.97,393.18 7.97,391.73 7.97,390.28 7.96,388.67 7.95,387.06 7.94,385.08 7.93,383.10 7.85,380.89 7.77,378.67 7.55,377.54 7.34,376.40 7.35,375.31 7.37,374.22 7.41,373.03 7.45,371.84 7.54,370.44 7.63,369.04 7.83,367.38 8.03,365.73 8.07,363.27 8.10,360.81 8.19,359.11 8.28,357.40 8.46,356.03 8.65,354.67 8.65,353.32 8.65,351.98 8.65,350.61 8.65,349.25 8.65,347.84 8.65,346.44 8.65,344.94 8.66,343.43 8.66,341.70 8.66,339.97 8.67,337.70 8.67,335.42 8.69,333.68 8.70,331.94 8.74,330.11 8.77,328.28 8.86,326.21 8.95,324.15 9.13,322.30 9.32,320.45 9.32,318.51 9.33,316.57 9.33,314.70 9.33,312.84 9.33,311.15 9.33,309.47 9.33,307.76 9.33,306.05 9.33,304.29 9.33,302.52 9.33,300.62 9.33,298.72 9.33,296.50 9.34,294.29 9.33,292.68 9.33,291.07 9.33,289.55 9.33,288.03 9.33,286.24 9.33,284.46 9.33,282.52 9.33,280.58 9.33,278.72 9.33,276.85 9.33,274.73 9.33,272.60 9.33,269.86 9.34,267.12 9.34,264.72 9.34,262.32 9.34,260.73 9.34,259.15 9.34,257.67 9.34,256.20 9.33,254.54 9.33,252.87 9.33,251.21 9.33,249.55 9.32,247.89 9.31,246.23 9.29,244.59 9.27,242.94 9.23,241.33 9.19,239.72 9.08,238.13 8.98,236.55 8.71,234.45 8.45,232.35 8.24,230.81 8.04,229.27 8.04,227.88 8.04,226.48 8.03,225.01 8.03,223.53 8.03,221.87 8.03,220.20 8.02,218.53 8.01,216.86 8.00,214.74 7.98,212.61 7.95,209.90 7.92,207.19 7.85,205.77 7.78,204.35 7.57,202.81 7.36,201.27 7.34,199.87 7.32,198.47 7.29,196.99 7.25,195.52 7.17,194.29 7.09,193.06 6.85,191.56 6.61,190.05 6.53,188.72 6.46,187.39 6.26,185.69 6.05,184.00 6.05,182.20 6.05,180.39 6.05,178.40 6.05,176.42 6.04,174.00 6.03,171.58 6.02,169.95 6.00,168.32 5.97,166.73 5.94,165.15 5.86,163.69 5.79,162.22 5.58,160.62 5.38,159.02 5.35,157.46 5.33,155.90 5.29,154.47 5.24,153.05 5.13,151.45 5.03,149.86 4.76,147.76 4.48,145.66 4.24,144.12 4.01,142.58 3.94,141.15 3.86,139.72 3.66,137.86 3.47,136.00 3.46,134.20 3.46,132.39 3.45,130.40 3.44,128.41 3.42,125.98 3.40,123.56 3.36,120.57 3.33,117.59 3.22,115.49 3.11,113.39 2.81,110.93 2.52,108.47 2.29,105.46 2.07,102.46 1.98,100.52 1.88,98.57 1.65,96.44 1.41,94.31 1.32,92.26 1.23,90.20 1.00,87.85 0.77,85.50 0.70,83.34 0.62,81.19 0.43,78.62 0.24,76.05 0.24,72.92 0.25,69.80 0.26,67.86 0.28,65.92 0.29,64.07 0.31,62.22 0.33,60.56 0.36,58.91 0.40,57.27 0.44,55.63 0.53,54.06 0.61,52.48 0.80,50.85 0.99,49.22 1.00,47.35 1.02,45.48 1.03,42.87 1.05,40.27 1.06,38.21 1.07,36.15 1.04,34.91 1.02,33.67 0.95,32.56 0.89,31.45 0.64,30.20 0.40,28.95 0.34,27.80 0.27,26.64 0.03,25.33 -0.20,24.01 -0.27,22.65 -0.35,21.29 -0.57,19.62 -0.79,17.94 -0.83,16.14 -0.87,14.34 -1.06,12.90 -1.25,11.46 -1.24,10.19 -1.23,8.92 -1.25,7.73 -1.26,6.54 -1.33,5.09 -1.39,3.64 -1.47,1.91 -1.55,0.17 -1.55,-0.01 -1.55,-0.20 -1.50,-0.38 -1.45,-0.57 -1.37,-0.73 -1.28,-0.90 -1.15,-1.04 -1.02,-1.18 -0.87,-1.28 -0.71,-1.39 -0.53,-1.46 -0.35,-1.52 -0.17,-1.54 0.01,-1.56 0.20,-1.54 0.39,-1.51 0.56,-1.44 0.74,-1.38 0.89,-1.27 1.05,-1.16 1.17,-1.01 1.29,-0.87 1.38,-0.70 1.47,-0.54 1.51,-0.35 1.55,-0.17 1.55,-0.17 L 1.55,-0.17 Z"/></g><g transform="translate(460.66668701171875 360.00001525878906) rotate(0 9 9)" stroke="none"><path fill="#000000" d="M 1.65,-1.37 Q 1.65,-1.37 2.90,-0.47 4.15,0.42 4.99,1.14 5.82,1.85 7.30,3.49 8.79,5.12 9.91,6.34 11.02,7.55 11.93,8.78 12.83,10.00 13.64,11.05 14.45,12.10 15.07,13.04 15.70,13.98 16.97,15.29 18.25,16.61 18.41,16.75 18.57,16.89 18.68,17.07 18.79,17.25 18.83,17.46 18.87,17.67 18.85,17.88 18.82,18.09 18.73,18.28 18.64,18.48 18.50,18.63 18.35,18.78 18.16,18.88 17.97,18.98 17.76,19.01 17.55,19.04 17.34,19.01 17.13,18.97 16.95,18.87 16.76,18.77 16.61,18.61 16.47,18.46 16.38,18.26 16.29,18.07 16.27,17.86 16.25,17.65 16.30,17.44 16.35,17.23 16.46,17.05 16.57,16.87 16.73,16.73 16.90,16.60 17.09,16.52 17.29,16.44 17.50,16.44 17.72,16.43 17.92,16.48 18.12,16.54 18.30,16.66 18.47,16.78 18.60,16.95 18.73,17.12 18.79,17.33 18.86,17.53 18.86,17.74 18.86,17.95 18.79,18.15 18.72,18.36 18.59,18.52 18.46,18.69 18.28,18.81 18.10,18.93 17.90,18.98 17.69,19.04 17.48,19.02 17.27,19.01 17.07,18.93 16.88,18.85 16.88,18.85 16.88,18.85 14.76,17.88 12.64,16.91 11.69,16.19 10.74,15.48 9.65,14.45 8.57,13.42 7.72,12.46 6.87,11.49 5.67,10.27 4.47,9.04 3.20,7.63 1.93,6.22 0.80,5.20 -0.32,4.17 -0.98,2.77 -1.65,1.37 -1.79,1.15 -1.93,0.94 -2.01,0.69 -2.10,0.45 -2.12,0.19 -2.14,-0.06 -2.10,-0.32 -2.06,-0.57 -1.97,-0.81 -1.87,-1.05 -1.71,-1.26 -1.56,-1.47 -1.36,-1.63 -1.16,-1.80 -0.93,-1.91 -0.70,-2.03 -0.44,-2.08 -0.19,-2.13 0.06,-2.13 0.32,-2.12 0.57,-2.05 0.82,-1.98 1.04,-1.85 1.27,-1.73 1.46,-1.55 1.65,-1.37 1.65,-1.37 L 1.65,-1.37 Z"/></g><g transform="translate(481.33331298828125 357.3333282470703) rotate(0 -9.33331298828125 10)" stroke="none"><path fill="#000000" d="M 0.97,1.62 Q 0.97,1.62 0.25,2.57 -0.46,3.52 -2.37,5.90 -4.28,8.27 -5.74,9.89 -7.20,11.52 -8.36,12.88 -9.51,14.25 -10.40,15.35 -11.29,16.45 -12.38,17.55 -13.47,18.65 -15.48,19.70 -17.48,20.76 -17.67,20.86 -17.86,20.95 -18.07,20.98 -18.28,21.01 -18.49,20.98 -18.70,20.94 -18.89,20.84 -19.07,20.73 -19.22,20.58 -19.36,20.42 -19.45,20.23 -19.53,20.03 -19.55,19.82 -19.57,19.61 -19.52,19.40 -19.47,19.20 -19.36,19.02 -19.25,18.83 -19.09,18.70 -18.92,18.57 -18.72,18.49 -18.52,18.41 -18.31,18.41 -18.10,18.40 -17.90,18.46 -17.69,18.52 -17.52,18.64 -17.34,18.76 -17.22,18.93 -17.09,19.10 -17.03,19.31 -16.96,19.51 -16.97,19.72 -16.97,19.93 -17.04,20.13 -17.11,20.33 -17.24,20.50 -17.37,20.67 -17.55,20.79 -17.73,20.90 -17.94,20.96 -18.14,21.01 -18.35,20.99 -18.56,20.98 -18.76,20.90 -18.96,20.82 -19.12,20.68 -19.28,20.53 -19.38,20.35 -19.49,20.17 -19.53,19.96 -19.57,19.75 -19.55,19.54 -19.52,19.33 -19.43,19.14 -19.34,18.95 -19.19,18.79 -19.04,18.64 -19.04,18.64 -19.04,18.64 -18.05,17.07 -17.05,15.49 -16.24,14.43 -15.43,13.37 -14.56,12.11 -13.69,10.84 -12.50,9.34 -11.32,7.84 -9.98,6.33 -8.65,4.82 -7.08,2.83 -5.51,0.84 -4.44,-0.18 -3.37,-1.22 -2.17,-1.42 -0.97,-1.62 -0.76,-1.71 -0.55,-1.80 -0.33,-1.84 -0.10,-1.88 0.11,-1.87 0.34,-1.85 0.56,-1.79 0.78,-1.72 0.97,-1.60 1.17,-1.48 1.33,-1.32 1.49,-1.16 1.61,-0.96 1.72,-0.77 1.79,-0.55 1.86,-0.33 1.87,-0.10 1.88,0.12 1.84,0.34 1.80,0.56 1.70,0.77 1.61,0.98 1.47,1.16 1.33,1.34 1.15,1.48 0.97,1.62 0.97,1.62 L 0.97,1.62 Z"/></g><g transform="translate(406 169.3333282470703) rotate(0 3.33331298828125 18)" stroke="none"><path fill="#000000" d="M 1.43,0.71 Q 1.43,0.71 1.20,2.03 0.96,3.34 0.65,4.93 0.34,6.52 0.18,7.76 0.02,8.99 0.07,10.07 0.12,11.15 0.06,9.96 0.00,8.77 1.48,7.68 2.97,6.60 4.19,6.82 5.40,7.04 6.26,8.12 7.12,9.19 8.15,11.31 9.18,13.43 9.82,15.75 10.45,18.08 10.74,19.92 11.03,21.76 11.34,23.17 11.65,24.59 11.82,25.93 11.98,27.27 11.86,28.54 11.74,29.80 10.66,31.73 9.59,33.66 8.50,34.31 7.42,34.97 5.82,35.60 4.23,36.23 2.10,36.28 -0.01,36.33 -0.14,36.50 -0.28,36.66 -0.46,36.78 -0.64,36.89 -0.84,36.95 -1.05,37.00 -1.26,36.98 -1.47,36.96 -1.67,36.88 -1.86,36.79 -2.02,36.65 -2.18,36.51 -2.28,36.33 -2.39,36.14 -2.43,35.93 -2.47,35.72 -2.44,35.51 -2.41,35.30 -2.32,35.11 -2.22,34.92 -2.07,34.77 -1.92,34.62 -1.73,34.53 -1.54,34.43 -1.33,34.40 -1.12,34.37 -0.91,34.41 -0.70,34.45 -0.52,34.56 -0.33,34.66 -0.19,34.82 -0.05,34.98 0.03,35.17 0.11,35.37 0.13,35.58 0.14,35.79 0.09,36.00 0.04,36.21 -0.06,36.39 -0.18,36.56 -0.34,36.70 -0.51,36.83 -0.71,36.90 -0.91,36.98 -1.12,36.98 -1.33,36.99 -1.53,36.93 -1.74,36.86 -1.91,36.74 -2.08,36.62 -2.21,36.44 -2.33,36.27 -2.39,36.07 -2.46,35.87 -2.45,35.65 -2.44,35.44 -2.37,35.24 -2.30,35.04 -2.30,35.04 -2.30,35.04 -0.18,32.93 1.93,30.81 3.56,30.31 5.19,29.82 5.75,28.81 6.31,27.81 6.22,26.74 6.14,25.66 5.87,24.09 5.59,22.52 5.40,20.96 5.22,19.40 4.45,16.43 3.68,13.45 4.04,12.44 4.40,11.43 3.72,12.34 3.03,13.25 1.84,14.18 0.64,15.10 -1.26,15.03 -3.17,14.95 -3.88,13.68 -4.59,12.40 -4.70,10.36 -4.81,8.33 -4.60,6.86 -4.38,5.39 -3.82,3.32 -3.26,1.25 -2.35,0.26 -1.43,-0.71 -1.32,-0.87 -1.22,-1.03 -1.07,-1.17 -0.93,-1.30 -0.76,-1.39 -0.59,-1.48 -0.41,-1.53 -0.22,-1.58 -0.03,-1.59 0.16,-1.59 0.35,-1.55 0.53,-1.51 0.71,-1.42 0.88,-1.33 1.03,-1.21 1.17,-1.08 1.29,-0.92 1.40,-0.77 1.47,-0.59 1.54,-0.41 1.57,-0.22 1.60,-0.03 1.58,0.16 1.56,0.35 1.49,0.53 1.43,0.71 1.43,0.71 L 1.43,0.71 Z"/></g><g transform="translate(175.33331298828125 82.66667175292969) rotate(0 13.333343505859375 4.3333282470703125)" stroke="none"><path fill="#000000" d="M -0.74,-1.85 Q -0.74,-1.85 1.06,-2.90 2.86,-3.95 4.28,-4.48 5.70,-5.01 6.89,-5.43 8.08,-5.84 9.37,-6.07 10.66,-6.29 11.81,-6.37 12.95,-6.45 14.43,-6.47 15.90,-6.50 16.99,-6.04 18.07,-5.59 18.93,-4.26 19.79,-2.93 19.94,-0.61 20.08,1.70 19.55,3.73 19.02,5.76 18.31,7.28 17.60,8.81 16.79,10.24 15.97,11.67 15.78,10.34 15.59,9.01 16.74,9.01 17.89,9.02 19.14,9.09 20.39,9.17 22.06,9.53 23.72,9.89 24.81,10.39 25.90,10.89 26.10,10.84 26.31,10.79 26.52,10.82 26.73,10.84 26.93,10.93 27.12,11.02 27.27,11.16 27.43,11.31 27.53,11.50 27.63,11.68 27.66,11.89 27.70,12.10 27.66,12.31 27.63,12.52 27.53,12.71 27.43,12.90 27.28,13.04 27.12,13.19 26.93,13.28 26.74,13.37 26.53,13.39 26.32,13.42 26.11,13.37 25.90,13.33 25.72,13.22 25.54,13.11 25.40,12.95 25.26,12.79 25.18,12.59 25.10,12.39 25.09,12.18 25.08,11.97 25.14,11.76 25.19,11.56 25.31,11.38 25.43,11.20 25.60,11.08 25.77,10.95 25.97,10.88 26.17,10.81 26.38,10.81 26.59,10.81 26.80,10.88 27.00,10.94 27.17,11.07 27.34,11.20 27.46,11.38 27.58,11.55 27.63,11.76 27.69,11.96 27.68,12.17 27.67,12.39 27.59,12.58 27.51,12.78 27.37,12.94 27.24,13.11 27.06,13.22 26.87,13.33 26.87,13.33 26.87,13.32 23.56,14.05 20.25,14.77 18.72,14.73 17.20,14.70 15.40,14.35 13.61,14.00 12.40,12.74 11.19,11.48 11.41,9.96 11.64,8.45 12.19,7.44 12.75,6.42 13.46,5.00 14.17,3.57 14.56,2.28 14.95,0.99 15.38,-0.23 15.82,-1.46 14.57,-1.39 13.32,-1.32 11.56,-1.13 9.80,-0.93 8.66,-0.52 7.52,-0.12 6.16,0.38 4.80,0.89 2.77,1.37 0.74,1.85 0.50,1.91 0.27,1.97 0.03,1.98 -0.20,1.98 -0.43,1.93 -0.67,1.88 -0.88,1.77 -1.10,1.66 -1.28,1.50 -1.47,1.35 -1.61,1.15 -1.75,0.95 -1.84,0.73 -1.93,0.51 -1.96,0.27 -1.99,0.03 -1.97,-0.20 -1.94,-0.44 -1.86,-0.66 -1.78,-0.89 -1.65,-1.09 -1.51,-1.29 -1.34,-1.46 -1.16,-1.62 -0.95,-1.73 -0.74,-1.85 -0.74,-1.85 L -0.74,-1.85 Z"/></g><g transform="translate(166.66668701171875 266.6666717529297) rotate(0 7 -3.6666717529296875)" stroke="none"><path fill="#000000" d="M -0.82,-1.38 Q -0.82,-1.38 -0.06,-2.29 0.70,-3.20 1.74,-3.56 2.78,-3.92 4.04,-4.75 5.29,-5.58 6.28,-6.18 7.27,-6.79 8.52,-7.33 9.78,-7.87 11.61,-8.20 13.44,-8.54 13.66,-8.56 13.87,-8.58 14.07,-8.54 14.28,-8.49 14.46,-8.38 14.64,-8.27 14.78,-8.11 14.92,-7.94 15.00,-7.75 15.07,-7.55 15.08,-7.34 15.09,-7.12 15.04,-6.92 14.98,-6.72 14.86,-6.54 14.74,-6.36 14.57,-6.24 14.40,-6.11 14.20,-6.04 14.00,-5.98 13.78,-5.98 13.57,-5.98 13.37,-6.05 13.17,-6.11 13.00,-6.24 12.83,-6.37 12.71,-6.55 12.59,-6.73 12.54,-6.93 12.48,-7.14 12.50,-7.35 12.51,-7.56 12.59,-7.76 12.67,-7.95 12.81,-8.12 12.94,-8.28 13.13,-8.39 13.31,-8.49 13.52,-8.54 13.72,-8.58 13.94,-8.56 14.15,-8.54 14.34,-8.45 14.53,-8.36 14.69,-8.21 14.84,-8.06 14.94,-7.87 15.04,-7.69 15.07,-7.48 15.10,-7.27 15.07,-7.06 15.03,-6.85 14.93,-6.66 14.83,-6.47 14.68,-6.33 14.52,-6.18 14.33,-6.09 14.13,-6.01 14.13,-6.01 14.13,-6.01 12.09,-4.45 10.04,-2.89 8.87,-2.17 7.71,-1.44 6.71,-0.79 5.72,-0.14 4.42,0.38 3.12,0.90 1.97,1.14 0.82,1.38 0.65,1.46 0.47,1.54 0.28,1.57 0.09,1.60 -0.10,1.59 -0.29,1.58 -0.48,1.52 -0.66,1.46 -0.83,1.36 -0.99,1.26 -1.13,1.12 -1.27,0.98 -1.37,0.82 -1.47,0.65 -1.52,0.47 -1.58,0.28 -1.59,0.09 -1.60,-0.10 -1.57,-0.29 -1.53,-0.48 -1.45,-0.66 -1.37,-0.83 -1.25,-0.99 -1.13,-1.14 -0.98,-1.26 -0.82,-1.38 -0.82,-1.38 L -0.82,-1.38 Z"/></g><g transform="translate(168 232.6666717529297) rotate(0 4 -2.3333282470703125)" stroke="none"><path fill="#000000" d="M -0.92,-1.54 Q -0.92,-1.54 -0.15,-2.42 0.62,-3.30 1.57,-3.91 2.53,-4.52 5.75,-4.70 8.97,-4.88 9.07,-4.69 9.17,-4.50 9.21,-4.29 9.24,-4.08 9.20,-3.87 9.17,-3.66 9.07,-3.48 8.97,-3.29 8.81,-3.14 8.66,-3.00 8.46,-2.91 8.27,-2.82 8.06,-2.80 7.85,-2.78 7.64,-2.82 7.43,-2.87 7.25,-2.98 7.07,-3.09 6.93,-3.25 6.80,-3.42 6.72,-3.61 6.64,-3.81 6.63,-4.02 6.62,-4.23 6.68,-4.44 6.74,-4.64 6.86,-4.82 6.98,-4.99 7.15,-5.12 7.32,-5.25 7.52,-5.32 7.72,-5.38 7.93,-5.38 8.14,-5.38 8.34,-5.31 8.55,-5.25 8.71,-5.12 8.88,-4.99 9.00,-4.81 9.12,-4.63 9.18,-4.43 9.23,-4.22 9.22,-4.01 9.21,-3.80 9.13,-3.60 9.05,-3.41 8.91,-3.24 8.77,-3.08 8.59,-2.97 8.41,-2.87 8.20,-2.82 7.99,-2.78 7.78,-2.80 7.57,-2.82 7.38,-2.91 7.18,-3.00 7.03,-3.15 6.88,-3.30 6.88,-3.30 6.88,-3.30 6.05,-1.79 5.23,-0.28 4.22,0.36 3.21,1.00 2.07,1.27 0.92,1.54 0.73,1.63 0.53,1.72 0.31,1.76 0.10,1.80 -0.11,1.78 -0.33,1.77 -0.53,1.70 -0.74,1.64 -0.93,1.53 -1.11,1.41 -1.27,1.26 -1.42,1.10 -1.53,0.92 -1.64,0.73 -1.71,0.52 -1.77,0.31 -1.78,0.10 -1.80,-0.11 -1.76,-0.32 -1.72,-0.54 -1.63,-0.74 -1.54,-0.93 -1.40,-1.11 -1.27,-1.28 -1.10,-1.41 -0.92,-1.54 -0.92,-1.54 L -0.92,-1.54 Z"/></g><g transform="translate(166 204.00001525878906) rotate(0 4.666656494140625 -3.333343505859375)" stroke="none"><path fill="#000000" d="M -1.31,-0.87 Q -1.31,-0.87 -1.35,-1.73 -1.38,-2.58 -0.01,-3.90 1.36,-5.22 2.40,-5.65 3.44,-6.09 4.65,-6.81 5.87,-7.54 7.64,-7.70 9.41,-7.86 9.62,-7.88 9.83,-7.91 10.04,-7.87 10.24,-7.83 10.43,-7.72 10.61,-7.62 10.75,-7.46 10.90,-7.30 10.98,-7.10 11.06,-6.91 11.08,-6.70 11.09,-6.48 11.04,-6.28 10.99,-6.07 10.87,-5.89 10.76,-5.72 10.59,-5.58 10.42,-5.45 10.22,-5.38 10.03,-5.31 9.81,-5.30 9.60,-5.30 9.40,-5.36 9.19,-5.43 9.02,-5.55 8.85,-5.68 8.73,-5.85 8.61,-6.02 8.54,-6.23 8.48,-6.43 8.49,-6.64 8.50,-6.85 8.57,-7.05 8.65,-7.25 8.78,-7.42 8.91,-7.58 9.09,-7.69 9.27,-7.81 9.48,-7.86 9.69,-7.91 9.90,-7.89 10.11,-7.87 10.30,-7.79 10.50,-7.70 10.66,-7.56 10.81,-7.42 10.92,-7.23 11.02,-7.04 11.06,-6.84 11.10,-6.63 11.07,-6.42 11.04,-6.21 10.94,-6.02 10.85,-5.83 10.70,-5.68 10.54,-5.53 10.35,-5.43 10.16,-5.34 10.16,-5.34 10.16,-5.34 8.91,-4.07 7.66,-2.81 6.42,-2.00 5.17,-1.19 4.05,-0.45 2.92,0.28 2.11,0.58 1.31,0.87 1.19,1.02 1.06,1.16 0.91,1.27 0.75,1.39 0.58,1.46 0.40,1.53 0.21,1.55 0.02,1.58 -0.16,1.56 -0.35,1.54 -0.53,1.47 -0.71,1.41 -0.87,1.30 -1.03,1.20 -1.16,1.06 -1.28,0.92 -1.38,0.75 -1.47,0.58 -1.52,0.40 -1.56,0.21 -1.57,0.02 -1.57,-0.16 -1.53,-0.35 -1.49,-0.53 -1.40,-0.70 -1.31,-0.87 -1.31,-0.87 L -1.31,-0.87 Z"/></g><g transform="translate(164 173.3333282470703) rotate(0 10 -5)" stroke="none"><path fill="#000000" d="M -0.72,-1.20 Q -0.72,-1.20 -0.09,-2.33 0.53,-3.45 2.09,-4.34 3.66,-5.22 5.05,-5.90 6.44,-6.57 7.80,-7.15 9.16,-7.73 10.64,-8.11 12.12,-8.49 13.62,-8.89 15.12,-9.28 16.91,-9.86 18.71,-10.44 18.85,-10.59 19.00,-10.75 19.19,-10.84 19.38,-10.94 19.59,-10.97 19.80,-11.00 20.01,-10.97 20.22,-10.93 20.40,-10.83 20.59,-10.72 20.74,-10.57 20.88,-10.41 20.97,-10.22 21.05,-10.02 21.07,-9.81 21.09,-9.60 21.04,-9.39 20.99,-9.19 20.88,-9.01 20.77,-8.82 20.61,-8.69 20.44,-8.55 20.24,-8.48 20.04,-8.40 19.83,-8.39 19.62,-8.39 19.42,-8.45 19.21,-8.51 19.04,-8.63 18.86,-8.75 18.74,-8.92 18.61,-9.09 18.55,-9.29 18.48,-9.50 18.49,-9.71 18.49,-9.92 18.56,-10.12 18.63,-10.32 18.76,-10.49 18.89,-10.66 19.07,-10.77 19.25,-10.89 19.45,-10.94 19.66,-11.00 19.87,-10.98 20.08,-10.97 20.28,-10.89 20.47,-10.80 20.63,-10.66 20.79,-10.52 20.90,-10.34 21.01,-10.16 21.05,-9.95 21.09,-9.74 21.07,-9.53 21.04,-9.32 20.95,-9.13 20.86,-8.94 20.86,-8.94 20.86,-8.94 19.18,-6.72 17.51,-4.51 16.40,-4.19 15.28,-3.88 14.27,-3.55 13.25,-3.23 12.15,-2.90 11.06,-2.58 9.94,-2.16 8.82,-1.74 7.35,-1.03 5.88,-0.32 4.59,0.41 3.30,1.15 2.01,1.18 0.72,1.20 0.57,1.27 0.41,1.34 0.24,1.37 0.08,1.40 -0.08,1.39 -0.25,1.38 -0.42,1.33 -0.58,1.28 -0.72,1.19 -0.87,1.10 -0.99,0.98 -1.11,0.86 -1.20,0.72 -1.28,0.57 -1.33,0.41 -1.38,0.24 -1.39,0.07 -1.40,-0.08 -1.37,-0.25 -1.34,-0.42 -1.27,-0.57 -1.20,-0.73 -1.09,-0.86 -0.99,-1.00 -0.85,-1.10 -0.72,-1.20 -0.72,-1.20 L -0.72,-1.20 Z"/></g><g transform="translate(168 172.00001525878906) rotate(0 4 -2.333343505859375)" stroke="none"><path fill="#000000" d="M -1.36,-0.27 Q -1.36,-0.27 -1.66,-1.33 -1.95,-2.39 -0.80,-4.09 0.34,-5.78 1.77,-6.54 3.20,-7.30 4.32,-7.69 5.45,-8.09 6.96,-8.05 8.47,-8.02 9.38,-7.44 10.29,-6.86 10.68,-4.90 11.06,-2.93 10.71,-1.76 10.37,-0.59 9.62,0.23 8.87,1.05 7.33,1.62 5.80,2.18 4.26,1.85 2.71,1.53 1.92,-0.04 1.13,-1.62 1.08,-2.90 1.03,-4.19 1.43,-6.09 1.83,-8.00 3.57,-8.37 5.30,-8.75 6.40,-8.12 7.50,-7.49 8.32,-6.07 9.15,-4.66 9.30,-3.35 9.45,-2.04 8.87,-0.39 8.29,1.24 7.39,2.11 6.50,2.98 4.59,3.36 2.69,3.75 1.34,2.25 -0.01,0.75 -0.39,-0.71 -0.78,-2.18 -0.38,-3.57 0.01,-4.96 0.68,-5.93 1.34,-6.90 2.50,-7.94 3.66,-8.98 4.89,-9.22 6.13,-9.46 7.51,-8.80 8.89,-8.13 9.88,-6.65 10.86,-5.17 10.90,-4.01 10.93,-2.84 10.59,-1.46 10.26,-0.07 9.54,0.75 8.83,1.57 7.80,2.35 6.77,3.12 5.17,3.46 3.56,3.80 2.61,3.32 1.66,2.83 0.83,1.09 0.00,-0.65 0.14,-1.74 0.27,-2.82 0.63,-4.19 0.99,-5.56 2.09,-6.63 3.19,-7.70 5.01,-7.41 6.83,-7.13 7.46,-5.68 8.10,-4.23 7.87,-2.66 7.64,-1.09 7.00,0.05 6.36,1.20 5.26,2.12 4.17,3.03 2.28,2.74 0.38,2.45 -0.46,0.83 -1.32,-0.78 -1.41,-2.21 -1.49,-3.65 -0.85,-5.51 -0.20,-7.37 1.49,-8.27 3.19,-9.18 4.96,-8.56 6.74,-7.95 7.35,-6.03 7.97,-4.11 7.76,-2.56 7.55,-1.00 6.80,0.17 6.05,1.36 5.02,2.17 4.00,2.98 2.32,2.62 0.63,2.25 0.04,0.79 -0.55,-0.66 -0.62,-1.88 -0.69,-3.09 -0.10,-4.72 0.48,-6.36 1.26,-7.29 2.04,-8.22 3.43,-8.85 4.83,-9.48 6.27,-8.61 7.72,-7.74 7.56,-6.03 7.41,-4.32 6.79,-2.68 6.17,-1.03 5.12,0.48 4.07,2.01 2.37,2.77 0.66,3.54 -0.55,2.60 -1.77,1.65 -2.18,0.20 -2.59,-1.24 -2.62,-2.50 -2.64,-3.76 -1.94,-5.46 -1.24,-7.16 -0.12,-7.87 1.00,-8.59 2.48,-8.88 3.95,-9.18 5.70,-7.71 7.45,-6.24 7.90,-4.43 8.35,-2.62 8.49,-1.01 8.62,0.59 8.29,1.77 7.96,2.96 6.96,3.91 5.97,4.86 4.22,4.93 2.48,4.99 1.41,4.07 0.34,3.15 -0.14,2.17 -0.63,1.19 -0.91,-0.69 -1.19,-2.58 -1.22,-3.90 -1.25,-5.23 -0.62,-6.82 0.01,-8.41 1.74,-8.87 3.48,-9.34 4.84,-8.31 6.20,-7.29 6.65,-5.92 7.09,-4.55 6.95,-2.95 6.80,-1.35 6.00,-0.00 5.19,1.35 3.64,1.92 2.09,2.50 0.38,0.91 -1.33,-0.67 -1.40,-2.66 -1.48,-4.66 -1.13,-6.05 -0.78,-7.43 -0.00,-8.45 0.76,-9.46 2.07,-9.97 3.38,-10.48 4.55,-10.09 5.71,-9.71 6.49,-8.78 7.26,-7.86 7.83,-6.29 8.39,-4.71 8.21,-2.70 8.04,-0.69 7.37,0.91 6.69,2.52 5.74,3.37 4.79,4.23 3.26,4.71 1.72,5.18 0.65,4.81 -0.41,4.43 -1.27,3.08 -2.13,1.73 -2.68,-0.30 -3.24,-2.33 -3.33,-4.21 -3.43,-6.09 -3.09,-7.58 -2.76,-9.06 -1.35,-9.82 0.04,-10.58 1.44,-9.96 2.84,-9.35 3.64,-8.29 4.43,-7.24 5.06,-6.14 5.68,-5.05 6.11,-3.73 6.54,-2.41 6.30,-0.73 6.06,0.95 5.27,1.76 4.49,2.57 3.31,2.99 2.13,3.42 0.43,2.80 -1.27,2.18 -1.81,1.23 -2.34,0.29 -2.80,-1.17 -3.26,-2.65 -3.09,-4.33 -2.93,-6.02 -2.03,-7.51 -1.13,-9.01 0.02,-9.43 1.17,-9.86 2.35,-10.23 3.53,-10.59 5.07,-10.02 6.61,-9.46 7.56,-8.34 8.51,-7.21 9.12,-5.61 9.72,-4.00 9.59,-2.44 9.46,-0.87 8.72,0.57 7.97,2.02 6.71,3.45 5.45,4.88 4.10,5.35 2.75,5.83 1.29,5.18 -0.15,4.53 -0.79,3.28 -1.43,2.03 -1.70,0.08 -1.97,-1.86 -2.00,-3.24 -2.03,-4.61 -1.28,-6.05 -0.52,-7.49 1.18,-8.05 2.89,-8.62 4.09,-8.53 5.30,-8.45 6.23,-7.73 7.17,-7.01 7.63,-5.97 8.09,-4.93 8.15,-3.01 8.21,-1.10 6.99,0.71 5.77,2.52 4.32,3.44 2.86,4.36 1.41,4.41 -0.04,4.46 -1.12,3.42 -2.20,2.37 -2.48,0.31 -2.77,-1.73 -2.57,-3.60 -2.36,-5.46 -1.57,-6.77 -0.77,-8.09 0.74,-8.72 2.26,-9.36 3.66,-9.10 5.06,-8.85 5.99,-8.10 6.92,-7.35 7.56,-6.48 8.20,-5.61 8.94,-4.21 9.68,-2.80 9.91,-1.35 10.14,0.09 9.79,1.29 9.43,2.49 8.54,3.33 7.66,4.17 6.22,4.97 4.79,5.77 2.91,5.62 1.03,5.47 0.02,4.29 -0.98,3.12 -1.37,2.11 -1.75,1.10 -1.90,0.00 -2.05,-1.09 -2.12,-2.69 -2.18,-4.29 -1.51,-5.84 -0.84,-7.40 0.35,-8.17 1.55,-8.95 2.69,-9.22 3.83,-9.49 5.46,-9.29 7.08,-9.09 8.48,-7.92 9.88,-6.75 10.33,-5.25 10.79,-3.76 10.84,-2.36 10.89,-0.97 10.04,1.02 9.19,3.02 7.29,3.71 5.39,4.40 4.22,3.43 3.05,2.46 2.48,0.93 1.91,-0.60 1.54,-2.26 1.17,-3.91 1.12,-5.54 1.06,-7.17 2.04,-8.74 3.01,-10.31 4.19,-10.60 5.37,-10.89 7.31,-9.97 9.24,-9.05 9.81,-8.09 10.38,-7.12 10.89,-5.56 11.40,-4.00 11.26,-2.91 11.12,-1.83 10.41,-0.29 9.70,1.23 8.22,2.37 6.75,3.50 4.73,3.70 2.71,3.89 1.04,2.72 -0.62,1.54 -1.01,0.55 -1.40,-0.43 -1.81,-2.13 -2.22,-3.83 -1.71,-5.62 -1.19,-7.42 -0.30,-8.37 0.59,-9.32 2.04,-9.53 3.49,-9.73 4.61,-9.26 5.74,-8.80 6.65,-7.02 7.56,-5.24 7.15,-3.30 6.74,-1.37 5.77,0.02 4.80,1.41 3.77,2.10 2.75,2.79 1.35,2.55 -0.04,2.31 -0.84,1.54 -1.64,0.77 -2.24,-0.94 -2.85,-2.65 -2.62,-3.91 -2.39,-5.16 -1.50,-6.34 -0.62,-7.53 0.50,-7.65 1.63,-7.76 1.78,-7.81 1.93,-7.86 2.08,-7.87 2.24,-7.88 2.40,-7.86 2.55,-7.83 2.70,-7.77 2.85,-7.70 2.97,-7.61 3.10,-7.51 3.20,-7.39 3.30,-7.27 3.36,-7.12 3.43,-6.98 3.46,-6.82 3.49,-6.67 3.48,-6.51 3.48,-6.35 3.43,-6.20 3.39,-6.05 3.31,-5.91 3.23,-5.78 3.12,-5.66 3.01,-5.55 2.87,-5.46 2.74,-5.38 2.45,-3.88 2.17,-2.37 2.07,-2.19 1.97,-2.00 1.82,-1.85 1.67,-1.71 1.47,-1.62 1.28,-1.53 1.07,-1.50 0.86,-1.48 0.65,-1.52 0.44,-1.57 0.26,-1.68 0.08,-1.79 -0.05,-1.95 -0.19,-2.11 -0.27,-2.31 -0.35,-2.50 -0.36,-2.71 -0.37,-2.93 -0.32,-3.13 -0.26,-3.34 -0.14,-3.51 -0.02,-3.69 0.14,-3.82 0.31,-3.95 0.51,-4.02 0.71,-4.08 0.92,-4.09 1.13,-4.09 1.33,-4.02 1.54,-3.95 1.71,-3.82 1.87,-3.70 1.99,-3.52 2.11,-3.35 2.17,-3.14 2.23,-2.94 2.22,-2.72 2.21,-2.51 2.13,-2.31 2.05,-2.12 1.92,-1.95 1.78,-1.79 1.60,-1.68 1.42,-1.57 1.21,-1.52 1.00,-1.48 0.79,-1.50 0.58,-1.52 0.38,-1.61 0.19,-1.70 0.04,-1.85 -0.11,-1.99 -0.21,-2.18 -0.31,-2.37 -0.34,-2.58 -0.38,-2.78 -0.35,-2.99 -0.31,-3.20 -0.31,-3.20 -0.31,-3.20 0.65,-5.48 1.63,-7.76 1.78,-7.81 1.93,-7.86 2.08,-7.87 2.24,-7.88 2.40,-7.86 2.55,-7.83 2.70,-7.77 2.85,-7.70 2.97,-7.61 3.10,-7.51 3.20,-7.39 3.30,-7.27 3.36,-7.12 3.43,-6.98 3.46,-6.82 3.49,-6.67 3.48,-6.51 3.48,-6.35 3.43,-6.20 3.39,-6.05 3.31,-5.91 3.23,-5.78 3.12,-5.66 3.01,-5.55 2.87,-5.46 2.74,-5.38 2.48,-4.86 2.22,-4.35 1.95,-3.26 1.68,-2.18 2.40,-3.79 3.11,-5.41 2.87,-4.36 2.63,-3.31 3.49,-1.93 4.34,-0.56 5.28,-1.18 6.21,-1.80 6.51,-2.87 6.80,-3.95 6.26,-5.04 5.71,-6.13 5.82,-4.77 5.93,-3.40 5.72,-1.52 5.50,0.35 5.94,-0.89 6.37,-2.14 6.07,-3.46 5.76,-4.78 4.68,-4.85 3.59,-4.93 2.94,-3.96 2.28,-3.00 2.37,-1.63 2.47,-0.26 3.15,0.64 3.83,1.55 4.92,1.00 6.01,0.45 5.89,-0.83 5.78,-2.13 4.93,-3.17 4.07,-4.21 2.95,-4.29 1.82,-4.37 1.70,-3.15 1.57,-1.93 1.68,-0.85 1.78,0.22 3.00,-0.91 4.22,-2.06 4.18,-3.31 4.13,-4.56 3.12,-4.08 2.10,-3.60 2.17,-2.10 2.24,-0.59 2.98,0.29 3.71,1.19 4.65,-0.11 5.59,-1.42 5.66,-2.67 5.74,-3.93 4.65,-5.16 3.57,-6.38 2.22,-5.42 0.87,-4.45 1.63,-3.29 2.40,-2.14 1.82,-3.37 1.24,-4.61 1.02,-5.89 0.79,-7.17 0.83,-5.93 0.88,-4.69 0.98,-3.10 1.08,-1.51 1.22,-0.14 1.35,1.22 2.44,1.00 3.52,0.79 3.98,-0.35 4.44,-1.50 4.48,-2.69 4.52,-3.88 3.85,-5.07 3.18,-6.26 2.81,-5.10 2.43,-3.94 2.40,-2.58 2.36,-1.23 2.84,-2.19 3.32,-3.15 2.97,-4.20 2.62,-5.25 2.66,-4.05 2.70,-2.84 2.81,-1.62 2.93,-0.39 3.61,0.58 4.30,1.56 4.77,0.53 5.23,-0.49 4.89,-1.85 4.54,-3.21 3.84,-4.23 3.13,-5.26 2.23,-4.51 1.33,-3.76 1.73,-2.47 2.13,-1.19 2.70,-2.49 3.27,-3.79 4.14,-4.58 5.00,-5.38 4.21,-4.27 3.42,-3.16 2.88,-1.88 2.33,-0.61 3.12,-1.69 3.90,-2.78 3.33,-3.75 2.75,-4.73 3.04,-3.24 3.32,-1.75 4.06,-2.61 4.79,-3.46 4.30,-1.94 3.80,-0.42 5.17,-1.29 6.53,-2.16 5.81,-3.20 5.09,-4.23 4.80,-2.71 4.50,-1.19 4.75,-2.36 5.00,-3.52 4.11,-4.49 3.21,-5.45 4.44,-4.86 5.66,-4.26 5.13,-3.30 4.60,-2.33 5.59,-2.95 6.59,-3.57 5.48,-3.17 4.38,-2.76 3.55,-2.10 2.72,-1.43 2.04,-0.58 1.36,0.27 1.31,0.43 1.26,0.59 1.17,0.73 1.08,0.87 0.96,0.99 0.84,1.11 0.69,1.19 0.55,1.28 0.39,1.32 0.22,1.37 0.06,1.38 -0.10,1.38 -0.27,1.35 -0.43,1.32 -0.58,1.25 -0.74,1.18 -0.87,1.07 -1.00,0.96 -1.10,0.83 -1.20,0.70 -1.27,0.54 -1.33,0.39 -1.36,0.22 -1.39,0.06 -1.37,-0.10 -1.36,-0.27 -1.36,-0.27 L -1.36,-0.27 Z"/></g><g transform="translate(198.66668701171875 276.00001525878906) rotate(0 4.999969482421875 1.33331298828125)" stroke="none"><path fill="#000000" d="M 0.37,-1.48 Q 0.37,-1.48 1.22,-1.64 2.07,-1.80 3.25,-1.39 4.43,-0.98 6.17,-0.63 7.92,-0.27 9.60,0.93 11.28,2.14 11.42,2.30 11.56,2.46 11.64,2.65 11.73,2.85 11.74,3.06 11.76,3.27 11.70,3.48 11.65,3.68 11.53,3.86 11.42,4.04 11.25,4.17 11.08,4.30 10.88,4.37 10.68,4.45 10.47,4.45 10.26,4.45 10.05,4.39 9.85,4.32 9.68,4.20 9.51,4.07 9.39,3.90 9.26,3.72 9.20,3.52 9.14,3.32 9.15,3.10 9.16,2.89 9.24,2.69 9.31,2.49 9.45,2.33 9.58,2.17 9.76,2.05 9.94,1.94 10.15,1.89 10.36,1.84 10.57,1.86 10.78,1.88 10.97,1.97 11.17,2.05 11.32,2.20 11.48,2.34 11.58,2.53 11.69,2.71 11.72,2.92 11.76,3.13 11.73,3.34 11.70,3.55 11.60,3.74 11.51,3.93 11.35,4.08 11.20,4.23 11.01,4.32 10.82,4.41 10.61,4.44 10.40,4.47 10.19,4.42 9.98,4.38 9.80,4.27 9.61,4.17 9.61,4.17 9.61,4.17 8.04,3.93 6.47,3.68 5.30,3.54 4.12,3.39 2.55,2.98 0.98,2.56 0.30,2.02 -0.37,1.48 -0.54,1.42 -0.71,1.35 -0.86,1.24 -1.02,1.14 -1.14,1.00 -1.26,0.86 -1.34,0.70 -1.43,0.53 -1.47,0.35 -1.52,0.17 -1.52,-0.00 -1.52,-0.18 -1.47,-0.36 -1.43,-0.54 -1.34,-0.71 -1.25,-0.87 -1.13,-1.01 -1.01,-1.15 -0.86,-1.25 -0.70,-1.35 -0.53,-1.42 -0.36,-1.48 -0.17,-1.51 0.00,-1.53 0.18,-1.50 0.37,-1.48 0.37,-1.48 L 0.37,-1.48 Z"/></g><g transform="translate(220.66668701171875 261.3333282470703) rotate(0 5.666656494140625 1.6666717529296875)" stroke="none"><path fill="#000000" d="M 0.25,-1.75 Q 0.25,-1.75 1.63,-1.88 3.02,-2.01 4.42,-1.68 5.83,-1.35 7.14,-0.82 8.45,-0.28 9.94,0.84 11.43,1.97 11.62,2.07 11.81,2.18 11.95,2.33 12.09,2.49 12.18,2.68 12.27,2.88 12.29,3.09 12.31,3.30 12.26,3.51 12.21,3.71 12.10,3.89 11.98,4.08 11.82,4.21 11.66,4.35 11.46,4.42 11.26,4.50 11.05,4.51 10.84,4.51 10.63,4.45 10.43,4.40 10.25,4.27 10.08,4.15 9.95,3.98 9.83,3.81 9.76,3.61 9.70,3.41 9.70,3.19 9.70,2.98 9.77,2.78 9.84,2.58 9.98,2.41 10.11,2.24 10.28,2.13 10.46,2.01 10.67,1.96 10.87,1.90 11.08,1.92 11.30,1.93 11.49,2.01 11.69,2.10 11.85,2.24 12.01,2.38 12.12,2.56 12.22,2.74 12.27,2.95 12.31,3.16 12.28,3.37 12.26,3.58 12.16,3.77 12.07,3.96 11.92,4.12 11.78,4.27 11.59,4.36 11.40,4.46 11.19,4.49 10.98,4.52 10.77,4.49 10.56,4.45 10.56,4.45 10.56,4.45 8.95,4.17 7.35,3.90 6.11,3.55 4.88,3.21 3.61,2.99 2.34,2.77 1.04,2.26 -0.25,1.75 -0.45,1.69 -0.66,1.64 -0.84,1.53 -1.03,1.43 -1.19,1.28 -1.34,1.14 -1.46,0.96 -1.58,0.78 -1.65,0.58 -1.72,0.38 -1.74,0.17 -1.76,-0.03 -1.73,-0.24 -1.70,-0.45 -1.62,-0.65 -1.54,-0.85 -1.42,-1.02 -1.29,-1.20 -1.13,-1.33 -0.97,-1.47 -0.78,-1.57 -0.59,-1.66 -0.38,-1.71 -0.17,-1.75 0.03,-1.75 0.25,-1.75 0.25,-1.75 L 0.25,-1.75 Z"/></g><g transform="translate(246 248.00001525878906) rotate(0 4.666656494140625 1.666656494140625)" stroke="none"><path fill="#000000" d="M 0.36,-1.82 Q 0.36,-1.82 1.37,-1.88 2.38,-1.94 3.72,-1.56 5.06,-1.17 6.18,-0.78 7.30,-0.40 8.63,0.87 9.96,2.15 10.10,2.31 10.24,2.47 10.32,2.66 10.40,2.86 10.41,3.07 10.42,3.29 10.37,3.49 10.31,3.70 10.20,3.87 10.08,4.05 9.91,4.18 9.74,4.31 9.54,4.38 9.34,4.45 9.13,4.45 8.91,4.45 8.71,4.38 8.51,4.32 8.34,4.19 8.17,4.06 8.05,3.89 7.93,3.71 7.87,3.51 7.81,3.30 7.82,3.09 7.83,2.88 7.91,2.68 7.99,2.48 8.12,2.32 8.26,2.16 8.44,2.05 8.62,1.94 8.83,1.89 9.04,1.84 9.25,1.86 9.46,1.88 9.65,1.97 9.85,2.06 10.00,2.21 10.16,2.35 10.26,2.54 10.36,2.72 10.40,2.93 10.43,3.14 10.40,3.35 10.37,3.56 10.27,3.75 10.17,3.94 10.02,4.09 9.86,4.23 9.67,4.32 9.48,4.42 9.27,4.44 9.06,4.46 8.85,4.42 8.64,4.38 8.46,4.27 8.27,4.16 8.27,4.16 8.28,4.16 6.16,3.83 4.04,3.49 2.74,3.10 1.44,2.71 0.54,2.26 -0.36,1.82 -0.57,1.75 -0.79,1.68 -0.98,1.56 -1.16,1.44 -1.32,1.28 -1.48,1.12 -1.59,0.92 -1.70,0.73 -1.77,0.52 -1.83,0.30 -1.84,0.08 -1.85,-0.14 -1.80,-0.36 -1.76,-0.58 -1.67,-0.78 -1.57,-0.98 -1.43,-1.16 -1.29,-1.33 -1.11,-1.47 -0.93,-1.60 -0.72,-1.69 -0.52,-1.78 -0.30,-1.82 -0.08,-1.85 0.14,-1.83 0.36,-1.82 0.36,-1.82 L 0.36,-1.82 Z"/></g><g transform="translate(270 242.00001525878906) rotate(0 4.666656494140625 -3.6666717529296875)" stroke="none"><path fill="#000000" d="M -1.70,-0.56 Q -1.70,-0.56 -1.46,-1.78 -1.22,-2.99 -0.34,-4.22 0.54,-5.46 1.59,-6.36 2.63,-7.27 3.96,-7.86 5.29,-8.46 6.57,-7.80 7.84,-7.14 8.32,-5.43 8.80,-3.72 8.83,-2.56 8.86,-1.39 8.52,0.15 8.18,1.70 6.92,2.53 5.67,3.36 4.17,3.22 2.68,3.07 1.54,2.31 0.40,1.55 -0.50,0.44 -1.42,-0.66 -1.78,-1.87 -2.14,-3.08 -1.87,-4.49 -1.60,-5.90 -0.83,-6.82 -0.06,-7.74 1.72,-8.49 3.51,-9.23 4.68,-8.79 5.84,-8.35 6.70,-7.10 7.56,-5.86 8.10,-4.58 8.64,-3.30 8.50,-1.56 8.36,0.17 7.63,1.44 6.89,2.71 5.92,3.23 4.95,3.74 3.35,3.23 1.75,2.73 1.00,1.25 0.26,-0.21 0.04,-1.86 -0.16,-3.52 0.07,-5.15 0.30,-6.78 1.71,-7.94 3.11,-9.10 4.19,-9.01 5.26,-8.93 6.64,-7.76 8.02,-6.59 8.41,-5.10 8.80,-3.62 8.57,-2.02 8.34,-0.42 7.58,0.59 6.81,1.62 5.76,2.40 4.71,3.18 2.71,2.65 0.70,2.12 0.28,0.41 -0.13,-1.29 -0.17,-2.99 -0.21,-4.68 0.37,-6.48 0.96,-8.27 2.10,-9.41 3.24,-10.54 4.34,-10.73 5.44,-10.91 6.86,-10.10 8.27,-9.30 8.96,-7.86 9.65,-6.42 10.14,-4.90 10.63,-3.38 10.73,-2.16 10.83,-0.94 9.83,0.81 8.84,2.58 7.56,2.75 6.29,2.91 5.00,2.20 3.71,1.50 2.86,0.09 2.01,-1.30 1.90,-3.00 1.79,-4.70 2.20,-6.18 2.61,-7.65 3.89,-8.55 5.17,-9.45 7.16,-9.17 9.15,-8.88 9.94,-8.02 10.73,-7.16 11.13,-5.45 11.53,-3.73 11.27,-2.12 11.02,-0.51 9.91,0.62 8.80,1.75 6.86,1.64 4.92,1.52 3.97,0.31 3.03,-0.90 2.80,-2.04 2.56,-3.18 2.49,-4.71 2.41,-6.24 2.78,-8.11 3.16,-9.97 4.19,-10.55 5.23,-11.13 6.73,-10.65 8.24,-10.18 9.16,-9.09 10.09,-8.00 10.72,-6.69 11.34,-5.38 11.48,-4.29 11.62,-3.20 10.90,-1.74 10.18,-0.28 8.98,0.41 7.79,1.11 6.34,1.39 4.90,1.66 3.10,1.02 1.30,0.38 0.70,-0.68 0.10,-1.74 0.12,-3.09 0.14,-4.44 1.11,-6.00 2.08,-7.55 3.35,-8.45 4.62,-9.36 5.68,-9.51 6.74,-9.67 7.78,-9.39 8.83,-9.10 9.91,-7.84 11.00,-6.59 11.32,-5.40 11.64,-4.20 11.41,-2.47 11.17,-0.74 9.89,0.36 8.60,1.47 7.01,0.96 5.41,0.45 4.78,-0.53 4.14,-1.52 3.89,-3.20 3.64,-4.87 3.69,-6.19 3.75,-7.51 4.68,-8.70 5.61,-9.88 7.27,-9.96 8.92,-10.04 9.78,-7.18 10.63,-4.31 10.60,-4.10 10.58,-3.89 10.49,-3.70 10.40,-3.51 10.25,-3.36 10.10,-3.20 9.92,-3.10 9.73,-3.01 9.52,-2.97 9.31,-2.94 9.10,-2.98 8.89,-3.01 8.70,-3.11 8.51,-3.21 8.37,-3.37 8.22,-3.52 8.14,-3.72 8.05,-3.91 8.03,-4.12 8.01,-4.33 8.05,-4.54 8.10,-4.75 8.21,-4.93 8.32,-5.11 8.48,-5.25 8.65,-5.38 8.84,-5.46 9.04,-5.54 9.25,-5.55 9.47,-5.56 9.67,-5.50 9.88,-5.44 10.05,-5.32 10.23,-5.20 10.35,-5.03 10.48,-4.86 10.55,-4.66 10.61,-4.46 10.61,-4.24 10.61,-4.03 10.54,-3.83 10.47,-3.63 10.34,-3.46 10.21,-3.29 10.04,-3.17 9.86,-3.06 9.65,-3.00 9.45,-2.95 9.24,-2.96 9.02,-2.97 8.83,-3.05 8.63,-3.13 8.47,-3.27 8.31,-3.41 8.20,-3.59 8.09,-3.78 8.05,-3.98 8.00,-4.19 8.00,-4.19 8.00,-4.19 7.26,-5.17 6.51,-6.15 7.50,-5.68 8.49,-5.21 8.82,-3.77 9.15,-2.32 8.03,-2.53 6.90,-2.73 6.68,-3.92 6.46,-5.10 5.43,-4.12 4.41,-3.13 5.68,-3.39 6.95,-3.64 6.96,-5.01 6.98,-6.38 6.98,-4.87 6.99,-3.37 6.56,-4.47 6.13,-5.56 6.23,-4.45 6.34,-3.33 6.38,-2.05 6.42,-0.77 6.32,-2.06 6.22,-3.34 5.38,-4.50 4.54,-5.66 4.40,-4.33 4.26,-2.99 4.27,-1.26 4.27,0.46 4.33,-0.84 4.38,-2.16 4.32,-3.58 4.25,-5.00 4.31,-3.84 4.37,-2.67 4.02,-1.56 3.67,-0.46 3.93,-1.49 4.18,-2.53 4.18,-3.83 4.18,-5.14 3.47,-3.84 2.75,-2.53 3.60,-1.39 4.46,-0.25 4.42,-1.78 4.39,-3.32 3.57,-2.46 2.76,-1.60 2.23,-0.51 1.70,0.56 1.61,0.76 1.52,0.96 1.38,1.12 1.24,1.29 1.07,1.42 0.90,1.55 0.70,1.64 0.50,1.72 0.28,1.76 0.07,1.79 -0.14,1.78 -0.35,1.76 -0.56,1.69 -0.77,1.62 -0.95,1.51 -1.13,1.39 -1.28,1.23 -1.43,1.08 -1.54,0.89 -1.65,0.70 -1.71,0.49 -1.77,0.28 -1.78,0.07 -1.79,-0.14 -1.75,-0.35 -1.70,-0.56 -1.70,-0.56 L -1.70,-0.56 Z"/></g><g transform="translate(194.66668701171875 300.6667022705078) rotate(0 2.666656494140625 -3)" stroke="none"><path fill="#000000" d="M -1.48,-1.11 Q -1.48,-1.11 -1.09,-2.01 -0.69,-2.91 0.20,-3.95 1.11,-4.98 2.92,-5.69 4.73,-6.39 4.85,-6.57 4.97,-6.75 5.14,-6.88 5.31,-7.01 5.51,-7.08 5.71,-7.15 5.92,-7.15 6.13,-7.15 6.33,-7.08 6.54,-7.01 6.71,-6.89 6.88,-6.76 7.00,-6.59 7.12,-6.41 7.18,-6.21 7.23,-6.00 7.22,-5.79 7.21,-5.58 7.14,-5.38 7.06,-5.18 6.92,-5.02 6.79,-4.86 6.60,-4.74 6.42,-4.63 6.22,-4.59 6.01,-4.54 5.80,-4.56 5.59,-4.58 5.39,-4.67 5.20,-4.76 5.04,-4.90 4.89,-5.05 4.79,-5.24 4.69,-5.42 4.65,-5.63 4.62,-5.84 4.65,-6.05 4.68,-6.26 4.78,-6.45 4.88,-6.64 5.03,-6.79 5.19,-6.93 5.38,-7.02 5.57,-7.11 5.78,-7.14 5.99,-7.16 6.20,-7.12 6.41,-7.07 6.59,-6.97 6.77,-6.86 6.91,-6.70 7.05,-6.53 7.13,-6.34 7.21,-6.14 7.22,-5.93 7.24,-5.72 7.18,-5.51 7.12,-5.31 7.12,-5.31 7.13,-5.31 5.78,-3.55 4.43,-1.79 3.71,-0.97 2.99,-0.14 2.24,0.48 1.48,1.11 1.32,1.27 1.17,1.43 0.98,1.55 0.79,1.67 0.58,1.74 0.37,1.81 0.14,1.83 -0.07,1.85 -0.29,1.81 -0.51,1.78 -0.72,1.69 -0.92,1.60 -1.10,1.47 -1.28,1.33 -1.42,1.16 -1.56,0.99 -1.66,0.79 -1.75,0.58 -1.80,0.36 -1.84,0.15 -1.83,-0.07 -1.83,-0.29 -1.76,-0.51 -1.70,-0.72 -1.59,-0.91 -1.48,-1.11 -1.48,-1.11 L -1.48,-1.11 Z"/></g><g transform="translate(214 305.3333282470703) rotate(0 5 -1)" stroke="none"><path fill="#000000" d="M -0.68,-1.70 Q -0.68,-1.70 0.17,-2.34 1.02,-2.99 2.27,-3.37 3.51,-3.75 4.67,-3.91 5.83,-4.08 7.78,-3.69 9.73,-3.31 9.94,-3.27 10.15,-3.24 10.34,-3.14 10.52,-3.04 10.67,-2.89 10.82,-2.74 10.91,-2.54 11.00,-2.35 11.02,-2.14 11.04,-1.93 11.00,-1.72 10.96,-1.51 10.85,-1.33 10.74,-1.15 10.58,-1.01 10.41,-0.87 10.22,-0.79 10.02,-0.71 9.81,-0.70 9.60,-0.69 9.39,-0.74 9.19,-0.80 9.01,-0.92 8.83,-1.04 8.70,-1.21 8.58,-1.37 8.51,-1.58 8.44,-1.78 8.44,-1.99 8.44,-2.20 8.50,-2.40 8.57,-2.61 8.70,-2.77 8.83,-2.94 9.00,-3.06 9.18,-3.18 9.38,-3.24 9.59,-3.30 9.80,-3.29 10.01,-3.28 10.21,-3.20 10.41,-3.12 10.57,-2.98 10.73,-2.85 10.84,-2.67 10.95,-2.48 11.00,-2.28 11.04,-2.07 11.02,-1.86 11.00,-1.65 10.91,-1.45 10.82,-1.26 10.68,-1.11 10.53,-0.95 10.34,-0.85 10.16,-0.75 9.95,-0.72 9.74,-0.68 9.74,-0.68 9.74,-0.68 7.50,-0.07 5.26,0.52 4.03,0.99 2.80,1.45 1.74,1.58 0.68,1.70 0.46,1.76 0.25,1.81 0.03,1.82 -0.18,1.82 -0.40,1.77 -0.62,1.72 -0.81,1.62 -1.01,1.52 -1.18,1.38 -1.35,1.24 -1.48,1.06 -1.61,0.88 -1.69,0.67 -1.77,0.47 -1.80,0.25 -1.83,0.03 -1.81,-0.18 -1.79,-0.40 -1.71,-0.61 -1.64,-0.82 -1.51,-1.00 -1.39,-1.19 -1.23,-1.34 -1.06,-1.49 -0.87,-1.59 -0.68,-1.70 -0.68,-1.70 L -0.68,-1.70 Z"/></g><g transform="translate(232 314.00001525878906) rotate(0 3.333343505859375 -2.333343505859375)" stroke="none"><path fill="#000000" d="M -1.31,-1.31 Q -1.31,-1.31 -0.63,-2.16 0.04,-3.02 0.99,-3.93 1.94,-4.85 4.07,-5.38 6.20,-5.91 6.41,-5.92 6.62,-5.92 6.82,-5.85 7.03,-5.79 7.20,-5.66 7.37,-5.54 7.49,-5.36 7.61,-5.19 7.67,-4.98 7.73,-4.78 7.72,-4.57 7.71,-4.35 7.64,-4.16 7.56,-3.96 7.43,-3.79 7.29,-3.63 7.11,-3.52 6.93,-3.41 6.72,-3.36 6.51,-3.31 6.30,-3.33 6.09,-3.35 5.90,-3.44 5.70,-3.52 5.55,-3.67 5.39,-3.81 5.29,-4.00 5.19,-4.19 5.15,-4.39 5.11,-4.60 5.15,-4.81 5.18,-5.02 5.27,-5.21 5.37,-5.40 5.52,-5.55 5.68,-5.70 5.87,-5.79 6.06,-5.88 6.27,-5.91 6.48,-5.93 6.69,-5.89 6.90,-5.85 7.08,-5.74 7.26,-5.63 7.40,-5.47 7.54,-5.31 7.62,-5.11 7.71,-4.92 7.72,-4.71 7.73,-4.49 7.68,-4.29 7.63,-4.08 7.51,-3.91 7.39,-3.73 7.22,-3.60 7.06,-3.47 6.86,-3.40 6.66,-3.33 6.66,-3.33 6.66,-3.33 5.75,-2.63 4.84,-1.93 3.93,-0.98 3.02,-0.04 2.16,0.63 1.31,1.31 1.13,1.44 0.95,1.58 0.75,1.67 0.55,1.77 0.33,1.81 0.11,1.85 -0.11,1.83 -0.33,1.82 -0.54,1.75 -0.76,1.69 -0.95,1.57 -1.14,1.46 -1.30,1.30 -1.46,1.14 -1.57,0.95 -1.69,0.76 -1.75,0.54 -1.82,0.33 -1.83,0.11 -1.85,-0.11 -1.81,-0.33 -1.77,-0.55 -1.67,-0.75 -1.58,-0.96 -1.44,-1.13 -1.31,-1.31 -1.31,-1.31 L -1.31,-1.31 Z"/></g><g transform="translate(256.66668701171875 314.00001525878906) rotate(0 4.666656494140625 -1)" stroke="none"><path fill="#000000" d="M -0.64,-1.28 Q -0.64,-1.28 -0.00,-1.93 0.62,-2.57 1.66,-3.12 2.70,-3.67 3.76,-3.80 4.83,-3.93 6.25,-2.97 7.68,-2.02 7.61,-0.23 7.54,1.56 6.79,2.55 6.03,3.54 4.44,4.62 2.84,5.70 1.29,4.88 -0.25,4.06 -0.72,2.92 -1.19,1.79 -1.03,0.15 -0.87,-1.48 -0.08,-2.61 0.69,-3.75 1.70,-4.40 2.70,-5.05 4.42,-4.94 6.14,-4.84 7.19,-4.40 8.25,-3.97 9.08,-2.87 9.91,-1.77 10.41,-0.62 10.91,0.52 10.89,1.64 10.86,2.76 9.76,4.25 8.66,5.75 7.34,6.17 6.01,6.60 4.55,5.89 3.09,5.18 2.47,3.69 1.84,2.19 1.66,0.99 1.48,-0.21 1.62,-1.49 1.76,-2.76 2.06,-4.47 2.37,-6.18 3.39,-7.46 4.40,-8.74 5.56,-8.82 6.71,-8.90 7.88,-8.04 9.05,-7.19 9.63,-5.71 10.20,-4.23 10.39,-3.03 10.58,-1.83 10.76,-0.00 10.95,1.82 10.62,3.21 10.29,4.60 9.38,5.55 8.48,6.51 6.24,6.73 3.99,6.95 3.00,6.29 2.02,5.63 1.25,4.38 0.48,3.13 0.21,1.42 -0.05,-0.29 0.57,-1.80 1.20,-3.32 2.59,-4.21 3.99,-5.10 5.74,-5.10 7.49,-5.10 8.68,-4.17 9.87,-3.25 9.73,-1.41 9.58,0.42 8.42,1.46 7.27,2.51 5.77,2.95 4.27,3.39 2.77,2.87 1.27,2.34 0.83,0.12 0.39,-2.09 0.70,-3.72 1.01,-5.34 1.81,-6.46 2.60,-7.57 4.45,-7.89 6.31,-8.22 7.36,-7.40 8.41,-6.58 8.92,-4.84 9.44,-3.10 9.26,-1.15 9.08,0.79 8.07,2.14 7.06,3.50 5.81,4.07 4.56,4.64 2.65,4.10 0.74,3.57 0.17,2.61 -0.39,1.65 -0.60,0.02 -0.80,-1.61 -0.20,-3.32 0.38,-5.03 1.31,-6.19 2.24,-7.36 4.19,-7.23 6.14,-7.10 6.80,-5.42 7.46,-3.74 6.70,-2.09 5.94,-0.44 4.03,0.05 2.13,0.54 1.92,0.59 1.71,0.64 1.50,0.62 1.29,0.60 1.10,0.51 0.90,0.42 0.75,0.28 0.59,0.13 0.49,-0.05 0.39,-0.23 0.35,-0.44 0.32,-0.65 0.35,-0.86 0.38,-1.07 0.48,-1.26 0.58,-1.45 0.73,-1.60 0.89,-1.74 1.08,-1.83 1.27,-1.92 1.48,-1.95 1.69,-1.97 1.90,-1.93 2.11,-1.89 2.29,-1.78 2.47,-1.67 2.61,-1.51 2.75,-1.35 2.83,-1.15 2.91,-0.95 2.93,-0.74 2.94,-0.53 2.88,-0.33 2.83,-0.12 2.71,0.05 2.59,0.22 2.42,0.35 2.26,0.48 2.05,0.55 1.85,0.62 1.64,0.62 1.43,0.63 1.23,0.56 1.03,0.49 0.86,0.37 0.69,0.24 0.56,0.06 0.44,-0.10 0.39,-0.31 0.33,-0.51 0.34,-0.72 0.35,-0.93 0.42,-1.13 0.50,-1.33 0.64,-1.49 0.77,-1.66 0.95,-1.77 1.14,-1.88 1.14,-1.88 1.14,-1.88 2.94,-2.97 4.74,-4.07 4.16,-2.94 3.59,-1.82 3.45,-0.74 3.31,0.33 4.19,-0.42 5.07,-1.18 4.92,-2.27 4.76,-3.36 4.20,-2.13 3.64,-0.91 4.74,-1.02 5.83,-1.13 5.07,-0.32 4.30,0.48 4.66,1.63 5.01,2.78 5.82,2.05 6.63,1.33 6.47,0.04 6.32,-1.24 6.15,-2.61 5.97,-3.97 5.78,-2.36 5.60,-0.74 6.31,0.57 7.03,1.89 6.37,0.57 5.72,-0.74 4.42,-0.76 3.13,-0.78 2.70,0.30 2.28,1.39 3.37,0.73 4.47,0.08 3.45,0.56 2.43,1.04 1.54,1.16 0.64,1.28 0.48,1.34 0.31,1.40 0.14,1.42 -0.02,1.44 -0.20,1.41 -0.37,1.39 -0.53,1.32 -0.69,1.26 -0.83,1.16 -0.97,1.05 -1.08,0.92 -1.20,0.79 -1.27,0.63 -1.35,0.48 -1.39,0.31 -1.43,0.14 -1.43,-0.02 -1.42,-0.20 -1.38,-0.36 -1.33,-0.53 -1.25,-0.68 -1.16,-0.84 -1.05,-0.96 -0.93,-1.09 -0.78,-1.19 -0.64,-1.28 -0.64,-1.28 L -0.64,-1.28 Z"/></g><g transform="translate(171.33331298828125 172.00001525878906) rotate(0 41.333343505859375 67.66665649414062)" stroke="none"><path fill="#000000" d="M 1.03,-1.38 Q 1.03,-1.38 1.89,-0.90 2.74,-0.43 3.55,0.50 4.35,1.45 5.61,2.71 6.87,3.97 8.24,5.19 9.61,6.41 10.41,7.55 11.22,8.69 12.29,10.05 13.36,11.40 14.26,12.69 15.16,13.97 16.43,15.47 17.69,16.97 18.40,18.07 19.10,19.17 19.82,20.26 20.54,21.35 21.58,22.35 22.63,23.36 23.56,24.62 24.49,25.89 25.09,27.36 25.69,28.84 26.27,29.77 26.85,30.70 27.67,31.68 28.50,32.67 29.48,34.17 30.46,35.68 31.25,36.82 32.03,37.96 32.79,39.30 33.55,40.65 34.24,41.96 34.93,43.28 35.45,44.63 35.96,45.97 36.73,47.34 37.50,48.71 38.46,50.03 39.43,51.35 40.09,52.69 40.75,54.03 41.47,55.41 42.18,56.79 42.60,57.86 43.01,58.93 43.71,59.95 44.40,60.98 45.21,62.48 46.01,63.97 46.57,65.30 47.12,66.62 47.60,68.05 48.09,69.48 48.71,70.80 49.32,72.13 49.71,73.24 50.10,74.35 50.86,75.57 51.61,76.78 52.10,78.24 52.59,79.70 53.15,80.98 53.71,82.27 54.77,83.67 55.83,85.08 56.35,86.14 56.88,87.20 57.55,88.40 58.23,89.59 58.95,90.93 59.67,92.26 60.25,93.64 60.83,95.03 61.24,96.43 61.65,97.83 62.16,98.81 62.67,99.79 63.46,101.32 64.26,102.85 64.90,103.92 65.55,104.98 66.40,106.46 67.26,107.93 68.10,109.39 68.95,110.85 69.59,111.90 70.23,112.96 70.96,114.27 71.69,115.58 72.34,116.60 73.00,117.61 73.65,118.62 74.30,119.63 74.96,120.96 75.63,122.30 76.35,123.60 77.08,124.90 77.50,125.99 77.92,127.09 78.49,128.02 79.07,128.95 79.94,129.96 80.81,130.97 81.90,132.84 83.00,134.71 83.18,134.82 83.36,134.94 83.49,135.11 83.62,135.28 83.69,135.48 83.76,135.68 83.76,135.89 83.76,136.10 83.70,136.31 83.63,136.51 83.50,136.68 83.38,136.85 83.20,136.97 83.03,137.09 82.82,137.15 82.62,137.21 82.41,137.20 82.20,137.19 82.00,137.12 81.80,137.04 81.64,136.90 81.47,136.77 81.36,136.59 81.25,136.41 81.20,136.20 81.15,135.99 81.17,135.78 81.19,135.57 81.28,135.38 81.37,135.18 81.51,135.03 81.66,134.87 81.84,134.77 82.03,134.67 82.24,134.63 82.45,134.59 82.66,134.62 82.87,134.66 83.06,134.75 83.25,134.85 83.39,135.00 83.54,135.16 83.63,135.35 83.72,135.54 83.75,135.75 83.78,135.96 83.73,136.17 83.69,136.38 83.58,136.56 83.47,136.74 83.31,136.88 83.15,137.02 82.96,137.10 82.76,137.19 82.55,137.20 82.34,137.21 82.13,137.16 81.93,137.10 81.93,137.10 81.93,137.10 80.39,135.82 78.86,134.53 78.19,133.56 77.52,132.60 76.75,131.64 75.98,130.69 75.32,129.60 74.66,128.52 74.29,127.52 73.93,126.52 73.32,125.31 72.71,124.10 72.04,122.72 71.37,121.34 70.69,120.34 70.01,119.34 69.33,118.27 68.64,117.20 68.03,116.08 67.43,114.95 66.69,113.72 65.95,112.48 65.23,111.21 64.51,109.94 63.64,108.42 62.77,106.90 62.05,105.60 61.33,104.29 60.60,102.69 59.87,101.10 59.12,99.21 58.36,97.32 57.87,96.21 57.38,95.10 56.69,93.85 56.00,92.61 55.28,91.43 54.56,90.26 53.80,88.65 53.04,87.04 51.85,85.40 50.66,83.76 49.97,82.41 49.28,81.05 48.45,79.41 47.62,77.76 46.75,76.13 45.88,74.51 45.45,73.49 45.03,72.47 44.34,70.93 43.66,69.38 42.95,67.69 42.23,66.00 41.49,64.72 40.75,63.43 39.83,62.08 38.92,60.73 38.35,59.39 37.77,58.04 36.93,56.52 36.09,55.00 35.23,53.52 34.37,52.04 33.69,50.99 33.01,49.93 32.31,48.58 31.61,47.22 31.17,46.16 30.74,45.10 30.10,43.97 29.46,42.83 28.89,41.80 28.33,40.77 27.68,39.77 27.03,38.76 26.20,37.41 25.38,36.06 24.45,35.11 23.51,34.16 22.91,33.03 22.31,31.89 21.62,30.23 20.94,28.57 20.06,27.15 19.17,25.72 18.17,24.93 17.18,24.15 16.49,23.13 15.81,22.11 14.95,20.84 14.10,19.57 12.97,18.19 11.84,16.82 11.15,15.78 10.46,14.74 9.50,13.45 8.55,12.16 7.79,10.82 7.03,9.47 6.25,8.71 5.48,7.95 4.66,7.03 3.84,6.11 2.94,5.48 2.04,4.85 1.18,3.79 0.31,2.73 -0.36,2.05 -1.03,1.38 -1.18,1.23 -1.33,1.09 -1.44,0.91 -1.56,0.74 -1.62,0.54 -1.69,0.34 -1.71,0.13 -1.72,-0.06 -1.69,-0.27 -1.66,-0.47 -1.57,-0.67 -1.49,-0.86 -1.37,-1.02 -1.24,-1.19 -1.08,-1.32 -0.92,-1.46 -0.73,-1.54 -0.54,-1.63 -0.34,-1.68 -0.14,-1.72 0.06,-1.71 0.27,-1.70 0.47,-1.64 0.67,-1.59 0.85,-1.48 1.03,-1.38 1.03,-1.38 L 1.03,-1.38 Z"/></g><g transform="translate(274 234.00001525878906) rotate(0 -7.666656494140625 32.333343505859375)" stroke="none"><path fill="#000000" d="M 1.84,0 Q 1.84,0 1.98,1.34 2.12,2.69 1.92,3.85 1.72,5.01 1.43,6.07 1.14,7.12 0.47,8.90 -0.18,10.68 -0.64,12.26 -1.10,13.85 -1.48,15.65 -1.86,17.46 -2.14,19.53 -2.41,21.61 -2.91,23.10 -3.41,24.60 -3.82,25.62 -4.22,26.65 -4.93,28.46 -5.64,30.27 -6.05,31.65 -6.47,33.03 -7.07,34.59 -7.66,36.15 -7.77,37.53 -7.87,38.91 -8.15,40.02 -8.43,41.14 -9.19,42.97 -9.95,44.79 -10.41,46.02 -10.86,47.25 -11.30,48.57 -11.75,49.89 -11.96,52.08 -12.16,54.28 -12.54,55.84 -12.91,57.40 -13.01,58.46 -13.10,59.53 -13.89,62.05 -14.67,64.57 -14.72,64.78 -14.78,64.98 -14.89,65.16 -15.01,65.34 -15.18,65.47 -15.35,65.60 -15.55,65.67 -15.75,65.74 -15.96,65.74 -16.17,65.74 -16.38,65.67 -16.58,65.61 -16.75,65.48 -16.92,65.35 -17.04,65.18 -17.16,65.00 -17.22,64.80 -17.28,64.60 -17.27,64.38 -17.26,64.17 -17.18,63.97 -17.10,63.78 -16.97,63.61 -16.83,63.45 -16.65,63.34 -16.47,63.23 -16.26,63.18 -16.06,63.13 -15.84,63.15 -15.63,63.17 -15.44,63.26 -15.25,63.35 -15.09,63.49 -14.93,63.64 -14.83,63.83 -14.73,64.01 -14.70,64.22 -14.66,64.43 -14.69,64.64 -14.72,64.85 -14.82,65.04 -14.92,65.23 -15.07,65.38 -15.23,65.52 -15.42,65.61 -15.61,65.71 -15.82,65.73 -16.03,65.75 -16.24,65.71 -16.45,65.67 -16.63,65.56 -16.81,65.45 -16.95,65.29 -17.09,65.13 -17.17,64.93 -17.25,64.74 -17.27,64.52 -17.28,64.31 -17.28,64.31 -17.28,64.31 -17.17,62.56 -17.07,60.81 -17.29,59.63 -17.50,58.46 -17.29,57.06 -17.07,55.67 -16.82,54.54 -16.57,53.41 -16.36,51.96 -16.16,50.51 -15.80,49.12 -15.45,47.73 -15.21,46.61 -14.98,45.49 -14.46,44.19 -13.95,42.89 -13.30,41.59 -12.65,40.28 -12.30,38.70 -11.95,37.11 -11.70,35.94 -11.44,34.76 -10.94,33.56 -10.43,32.35 -10.21,31.22 -9.99,30.09 -9.34,28.64 -8.69,27.18 -7.94,25.24 -7.18,23.31 -6.74,22.04 -6.29,20.78 -6.05,18.90 -5.81,17.02 -5.48,15.08 -5.14,13.13 -4.67,11.20 -4.19,9.27 -3.59,7.62 -2.99,5.97 -2.56,4.32 -2.12,2.67 -1.98,1.33 -1.84,0 -1.82,-0.22 -1.79,-0.44 -1.71,-0.65 -1.63,-0.85 -1.51,-1.04 -1.38,-1.22 -1.21,-1.37 -1.05,-1.52 -0.85,-1.62 -0.65,-1.72 -0.43,-1.78 -0.22,-1.83 0.00,-1.83 0.22,-1.83 0.43,-1.78 0.65,-1.72 0.85,-1.62 1.05,-1.52 1.21,-1.37 1.38,-1.22 1.51,-1.04 1.63,-0.85 1.71,-0.65 1.79,-0.44 1.82,-0.22 1.84,0.00 1.84,0.00 L 1.84,0 Z"/></g><g transform="translate(172.66668701171875 173.3333282470703) rotate(0 50.666656494140625 35.66667175292969)" stroke="none"><path fill="#000000" d="M 0.98,-1.22 Q 0.98,-1.22 2.03,-0.58 3.09,0.06 4.25,0.91 5.42,1.77 6.95,2.79 8.49,3.81 9.74,4.75 10.98,5.69 12.40,6.61 13.81,7.53 15.80,8.69 17.78,9.86 18.80,10.61 19.83,11.37 21.14,12.26 22.44,13.15 23.51,13.84 24.57,14.54 25.50,15.07 26.43,15.60 27.84,16.28 29.25,16.95 30.60,17.62 31.94,18.29 33.46,19.26 34.97,20.23 36.17,20.92 37.36,21.61 38.75,22.60 40.13,23.59 41.77,24.97 43.41,26.34 44.42,27.14 45.44,27.93 46.74,28.74 48.03,29.55 49.10,30.29 50.18,31.02 51.15,31.82 52.13,32.61 53.06,33.24 53.98,33.88 55.02,34.59 56.06,35.29 57.02,36.18 57.98,37.07 59.28,37.80 60.58,38.52 61.40,39.25 62.23,39.99 63.10,40.59 63.98,41.20 65.47,41.83 66.97,42.46 67.89,43.23 68.82,44.00 69.60,45.31 70.38,46.63 70.98,47.58 71.58,48.53 72.19,49.55 72.79,50.56 73.92,50.89 75.06,51.21 76.33,52.26 77.59,53.30 78.44,54.14 79.29,54.98 80.32,55.71 81.34,56.44 82.86,56.47 84.37,56.51 85.39,56.93 86.41,57.35 87.46,58.21 88.52,59.06 89.47,59.89 90.43,60.72 91.50,61.38 92.58,62.03 93.94,62.71 95.30,63.38 96.26,64.27 97.22,65.16 98.32,65.97 99.43,66.77 100.68,68.42 101.92,70.07 102.05,70.24 102.17,70.41 102.24,70.62 102.30,70.82 102.29,71.03 102.29,71.24 102.22,71.44 102.14,71.64 102.01,71.81 101.88,71.97 101.70,72.09 101.52,72.20 101.31,72.26 101.11,72.31 100.90,72.29 100.68,72.27 100.49,72.19 100.29,72.11 100.13,71.97 99.98,71.82 99.87,71.64 99.77,71.46 99.73,71.25 99.69,71.04 99.71,70.83 99.74,70.62 99.84,70.43 99.93,70.24 100.08,70.09 100.23,69.93 100.42,69.84 100.61,69.75 100.82,69.72 101.03,69.69 101.24,69.73 101.45,69.77 101.63,69.87 101.82,69.97 101.96,70.13 102.10,70.29 102.19,70.48 102.27,70.68 102.29,70.89 102.31,71.10 102.26,71.31 102.21,71.52 102.09,71.69 101.98,71.87 101.81,72.01 101.65,72.14 101.45,72.21 101.25,72.29 101.04,72.29 100.82,72.30 100.62,72.24 100.42,72.18 100.24,72.05 100.07,71.93 100.07,71.93 100.07,71.93 98.80,71.07 97.53,70.20 96.67,69.47 95.82,68.73 94.68,67.88 93.55,67.04 92.58,66.39 91.62,65.74 90.55,65.33 89.47,64.93 88.34,64.10 87.21,63.26 86.39,62.23 85.56,61.21 84.04,60.59 82.51,59.97 81.03,59.85 79.54,59.74 78.44,59.00 77.33,58.27 76.02,57.22 74.72,56.16 73.77,55.33 72.82,54.49 71.80,54.09 70.78,53.68 69.76,52.69 68.75,51.69 68.22,50.66 67.70,49.62 66.90,48.32 66.10,47.02 65.17,46.29 64.24,45.56 62.84,45.02 61.44,44.47 60.42,43.75 59.39,43.03 58.48,42.23 57.56,41.43 56.34,40.75 55.13,40.08 54.24,39.22 53.35,38.36 52.06,37.48 50.77,36.59 49.76,35.86 48.74,35.13 47.70,34.45 46.66,33.77 45.70,33.10 44.73,32.43 43.60,31.67 42.47,30.91 41.37,30.02 40.27,29.14 39.08,28.15 37.89,27.15 36.60,26.22 35.32,25.29 33.85,24.41 32.38,23.54 31.22,22.79 30.07,22.05 28.73,21.38 27.40,20.72 26.05,20.06 24.71,19.39 23.05,18.29 21.40,17.19 20.25,16.41 19.11,15.63 17.44,14.43 15.77,13.23 13.71,12.01 11.65,10.79 10.04,9.73 8.43,8.66 7.16,7.69 5.88,6.71 4.62,5.86 3.35,5.00 2.04,4.00 0.73,3.00 -0.12,2.11 -0.98,1.22 -1.11,1.09 -1.24,0.95 -1.34,0.79 -1.44,0.63 -1.49,0.44 -1.54,0.26 -1.55,0.07 -1.56,-0.11 -1.53,-0.29 -1.49,-0.48 -1.41,-0.65 -1.33,-0.82 -1.21,-0.97 -1.10,-1.12 -0.95,-1.23 -0.79,-1.35 -0.62,-1.43 -0.45,-1.50 -0.26,-1.53 -0.07,-1.57 0.11,-1.55 0.29,-1.54 0.47,-1.48 0.66,-1.42 0.82,-1.32 0.98,-1.22 0.98,-1.22 L 0.98,-1.22 Z"/></g><g transform="translate(178 10) rotate(0 -47.666656494140625 90.33333587646484)" stroke="none"><path fill="#000000" d="M 1.17,0.70 Q 1.17,0.70 0.89,1.84 0.61,2.97 -0.51,5.08 -1.64,7.20 -2.41,8.25 -3.17,9.29 -3.83,10.24 -4.49,11.18 -5.15,12.16 -5.81,13.13 -6.48,14.12 -7.14,15.11 -7.76,16.23 -8.38,17.34 -9.25,18.82 -10.12,20.30 -11.06,21.89 -12.00,23.48 -13.19,25.33 -14.38,27.18 -15.41,29.05 -16.45,30.91 -18.45,34.25 -20.46,37.59 -21.85,40.28 -23.23,42.97 -24.63,45.34 -26.03,47.71 -27.15,49.97 -28.27,52.22 -29.34,54.36 -30.42,56.50 -31.43,58.71 -32.45,60.93 -33.69,63.27 -34.93,65.62 -35.98,68.06 -37.03,70.49 -39.05,74.50 -41.07,78.50 -42.70,81.54 -44.32,84.58 -45.98,87.43 -47.64,90.29 -49.08,92.99 -50.52,95.69 -51.90,98.21 -53.28,100.74 -54.61,103.32 -55.93,105.90 -57.30,108.21 -58.67,110.52 -60.02,112.66 -61.37,114.80 -62.85,117.55 -64.34,120.29 -65.58,122.46 -66.82,124.63 -67.69,126.44 -68.55,128.24 -69.31,129.95 -70.07,131.66 -70.79,133.34 -71.50,135.02 -72.18,136.70 -72.86,138.37 -73.54,140.04 -74.21,141.71 -75.12,143.48 -76.02,145.24 -76.74,146.86 -77.46,148.47 -78.39,150.21 -79.32,151.95 -80.45,154.03 -81.58,156.11 -82.42,157.74 -83.26,159.36 -84.09,160.56 -84.92,161.76 -85.76,163.47 -86.60,165.17 -87.33,166.59 -88.06,168.01 -88.40,169.24 -88.74,170.46 -89.15,171.97 -89.56,173.47 -89.99,174.66 -90.42,175.85 -92.26,178.52 -94.10,181.20 -94.25,181.35 -94.40,181.50 -94.59,181.60 -94.77,181.69 -94.99,181.73 -95.20,181.76 -95.40,181.72 -95.61,181.68 -95.80,181.58 -95.99,181.48 -96.13,181.32 -96.27,181.16 -96.36,180.97 -96.45,180.77 -96.47,180.56 -96.49,180.35 -96.44,180.14 -96.39,179.94 -96.28,179.76 -96.16,179.58 -96.00,179.44 -95.83,179.31 -95.64,179.23 -95.44,179.16 -95.23,179.15 -95.01,179.14 -94.81,179.20 -94.61,179.26 -94.43,179.38 -94.26,179.50 -94.13,179.67 -94.01,179.85 -93.94,180.05 -93.88,180.25 -93.88,180.46 -93.88,180.68 -93.95,180.88 -94.02,181.08 -94.16,181.24 -94.29,181.41 -94.46,181.53 -94.64,181.64 -94.85,181.70 -95.05,181.75 -95.27,181.74 -95.48,181.72 -95.67,181.64 -95.87,181.56 -96.03,181.42 -96.19,181.28 -96.30,181.09 -96.40,180.91 -96.45,180.70 -96.49,180.49 -96.46,180.28 -96.43,180.07 -96.34,179.88 -96.25,179.69 -96.25,179.69 -96.25,179.69 -95.66,178.01 -95.06,176.33 -94.88,175.26 -94.71,174.19 -94.07,172.67 -93.42,171.15 -93.04,169.21 -92.66,167.27 -92.11,165.90 -91.56,164.53 -90.80,162.97 -90.04,161.41 -89.44,160.22 -88.84,159.03 -88.16,158.08 -87.48,157.12 -86.58,155.47 -85.68,153.82 -84.52,151.80 -83.36,149.78 -82.50,148.19 -81.64,146.59 -80.87,144.87 -80.09,143.14 -79.27,141.57 -78.45,140.00 -77.78,138.32 -77.10,136.65 -76.41,134.95 -75.73,133.26 -75.02,131.53 -74.32,129.81 -73.54,128.01 -72.77,126.21 -71.83,124.27 -70.89,122.32 -69.68,120.19 -68.47,118.05 -66.90,115.17 -65.33,112.29 -64.01,110.21 -62.68,108.14 -61.36,105.94 -60.05,103.75 -58.66,101.13 -57.27,98.52 -55.87,96.04 -54.48,93.56 -52.98,90.80 -51.48,88.05 -49.86,85.27 -48.23,82.49 -46.62,79.50 -45.02,76.50 -43.05,72.62 -41.08,68.74 -39.96,66.16 -38.84,63.57 -37.67,61.32 -36.50,59.07 -35.46,56.79 -34.42,54.50 -33.36,52.36 -32.30,50.22 -31.10,47.82 -29.91,45.42 -28.57,43.16 -27.23,40.90 -25.77,38.09 -24.32,35.28 -22.35,32.00 -20.38,28.72 -19.27,26.74 -18.17,24.76 -17.02,22.97 -15.87,21.18 -14.94,19.60 -14.00,18.02 -13.15,16.58 -12.30,15.13 -11.59,13.87 -10.87,12.60 -10.19,11.60 -9.52,10.60 -8.83,9.60 -8.15,8.60 -6.79,6.78 -5.44,4.96 -4.17,2.91 -2.91,0.85 -2.04,0.07 -1.17,-0.70 -1.07,-0.83 -0.97,-0.96 -0.84,-1.07 -0.71,-1.17 -0.56,-1.24 -0.41,-1.31 -0.25,-1.34 -0.08,-1.37 0.07,-1.36 0.24,-1.35 0.40,-1.30 0.56,-1.25 0.70,-1.17 0.84,-1.08 0.96,-0.96 1.07,-0.85 1.16,-0.71 1.25,-0.56 1.30,-0.41 1.35,-0.25 1.36,-0.08 1.37,0.07 1.34,0.24 1.31,0.40 1.24,0.55 1.17,0.70 1.17,0.70 L 1.17,0.70 Z"/></g><g transform="translate(88 190.6666717529297) rotate(0 97 127.66667175292969)" stroke="none"><path fill="#000000" d="M 1.00,-1.25 Q 1.00,-1.25 2.10,-0.65 3.21,-0.06 4.42,1.34 5.63,2.75 6.52,3.53 7.40,4.31 8.32,5.37 9.23,6.44 10.11,7.37 11.00,8.30 11.84,9.37 12.68,10.44 13.53,11.37 14.38,12.29 15.32,13.27 16.25,14.24 17.99,16.00 19.73,17.75 21.18,19.02 22.63,20.29 24.00,21.40 25.38,22.50 26.60,23.60 27.82,24.70 29.04,25.69 30.26,26.67 31.62,27.92 32.98,29.17 34.19,30.53 35.41,31.90 36.50,33.25 37.59,34.60 38.62,35.94 39.66,37.28 40.68,38.61 41.69,39.95 42.70,41.28 43.71,42.62 45.11,44.54 46.51,46.47 47.80,47.97 49.10,49.47 50.28,50.94 51.45,52.41 52.60,53.47 53.74,54.54 54.93,55.89 56.12,57.25 57.32,58.52 58.53,59.79 59.81,61.09 61.09,62.40 63.02,64.53 64.94,66.66 66.39,68.59 67.84,70.53 69.04,72.32 70.23,74.12 71.28,75.60 72.33,77.08 73.39,78.72 74.45,80.36 75.44,81.77 76.42,83.18 77.45,84.79 78.49,86.40 79.59,87.72 80.69,89.05 81.92,90.38 83.15,91.72 84.34,93.38 85.54,95.03 86.71,96.38 87.88,97.72 89.83,100.54 91.77,103.36 93.34,105.67 94.91,107.98 96.16,109.94 97.41,111.91 98.54,113.95 99.66,115.98 100.65,117.53 101.63,119.09 102.75,120.44 103.87,121.80 104.97,123.21 106.07,124.62 107.06,125.74 108.06,126.85 109.51,128.75 110.96,130.65 112.14,132.19 113.32,133.74 114.26,135.25 115.20,136.75 116.12,138.08 117.04,139.40 117.87,140.82 118.70,142.24 119.60,143.77 120.50,145.30 121.42,146.67 122.34,148.04 123.28,149.40 124.23,150.76 125.16,151.85 126.09,152.94 127.06,153.98 128.03,155.01 129.45,156.63 130.87,158.26 131.94,159.79 133.01,161.33 133.99,162.67 134.97,164.02 135.84,165.44 136.70,166.87 137.48,168.49 138.25,170.12 139.10,171.67 139.95,173.22 140.89,175.09 141.84,176.96 142.77,178.68 143.71,180.39 145.35,182.81 146.98,185.22 148.13,187.10 149.27,188.98 150.30,190.48 151.33,191.98 152.35,193.38 153.36,194.78 154.24,196.21 155.11,197.64 155.88,199.02 156.64,200.40 157.49,201.66 158.34,202.92 159.16,204.55 159.99,206.18 160.69,207.60 161.40,209.01 162.64,211.31 163.89,213.61 164.94,215.32 165.99,217.03 166.99,218.53 167.99,220.03 168.96,221.45 169.93,222.87 170.84,224.03 171.75,225.19 172.69,226.27 173.64,227.35 174.49,228.43 175.34,229.51 176.22,230.18 177.10,230.85 178.00,231.83 178.89,232.81 180.30,234.78 181.70,236.74 182.67,238.37 183.63,240.00 184.57,241.39 185.51,242.78 186.33,244.22 187.16,245.66 187.96,246.73 188.76,247.80 189.63,248.87 190.49,249.95 191.32,250.80 192.14,251.66 193.26,252.78 194.38,253.90 194.51,254.07 194.64,254.23 194.71,254.43 194.78,254.63 194.79,254.85 194.79,255.06 194.72,255.26 194.66,255.46 194.53,255.63 194.41,255.81 194.23,255.93 194.06,256.05 193.85,256.11 193.65,256.17 193.44,256.16 193.23,256.15 193.03,256.07 192.83,256.00 192.67,255.86 192.50,255.73 192.39,255.55 192.28,255.37 192.23,255.16 192.18,254.95 192.20,254.74 192.22,254.53 192.31,254.34 192.39,254.14 192.54,253.99 192.68,253.83 192.87,253.73 193.06,253.63 193.26,253.59 193.47,253.55 193.68,253.58 193.89,253.61 194.08,253.71 194.27,253.81 194.42,253.96 194.57,254.11 194.66,254.30 194.75,254.50 194.78,254.71 194.80,254.92 194.76,255.13 194.72,255.33 194.61,255.52 194.50,255.70 194.34,255.84 194.18,255.98 193.99,256.06 193.79,256.14 193.58,256.16 193.37,256.17 193.16,256.12 192.96,256.06 192.78,255.95 192.60,255.83 192.60,255.83 192.60,255.83 191.44,254.84 190.27,253.86 189.13,253.04 187.98,252.22 186.92,251.15 185.86,250.09 184.84,248.84 183.82,247.59 183.05,246.27 182.28,244.95 181.27,243.46 180.27,241.97 179.38,240.43 178.49,238.89 177.31,237.00 176.14,235.11 175.49,234.25 174.83,233.38 173.88,232.40 172.92,231.43 172.15,230.44 171.38,229.46 170.32,228.39 169.26,227.33 168.15,226.14 167.04,224.96 165.98,223.56 164.91,222.16 163.81,220.63 162.72,219.10 161.55,217.30 160.38,215.50 159.11,213.15 157.84,210.79 157.13,209.37 156.42,207.96 155.73,206.53 155.03,205.10 154.11,203.69 153.18,202.27 152.49,200.95 151.79,199.63 151.03,198.32 150.27,197.01 149.24,195.57 148.20,194.13 147.13,192.56 146.05,190.98 144.93,189.24 143.81,187.49 141.93,184.97 140.05,182.46 139.03,180.70 138.01,178.94 137.05,177.14 136.09,175.34 135.18,173.67 134.26,172.00 133.59,170.56 132.91,169.12 132.17,167.83 131.43,166.55 130.44,165.13 129.44,163.72 128.57,162.35 127.70,160.99 126.36,159.41 125.02,157.82 123.99,156.73 122.96,155.63 121.91,154.41 120.85,153.19 119.83,151.81 118.81,150.43 117.80,148.96 116.80,147.50 115.88,145.96 114.96,144.42 114.22,143.14 113.48,141.86 112.50,140.45 111.52,139.03 110.70,137.68 109.88,136.34 108.72,134.79 107.55,133.25 106.21,131.48 104.86,129.70 103.78,128.49 102.70,127.28 101.62,125.92 100.55,124.57 99.24,123.03 97.94,121.49 96.84,119.83 95.74,118.17 94.66,116.26 93.59,114.35 92.36,112.44 91.14,110.53 89.58,108.24 88.02,105.94 86.23,103.34 84.44,100.73 83.13,99.23 81.82,97.73 80.78,96.30 79.74,94.87 78.42,93.45 77.10,92.03 75.82,90.48 74.53,88.94 73.55,87.40 72.57,85.87 71.54,84.39 70.50,82.90 69.50,81.35 68.50,79.79 67.41,78.25 66.33,76.72 65.20,75.02 64.08,73.33 62.77,71.57 61.46,69.80 59.60,67.74 57.74,65.68 56.44,64.34 55.13,63.01 53.86,61.66 52.59,60.32 51.56,59.13 50.53,57.94 49.17,56.64 47.80,55.34 46.68,53.93 45.55,52.52 44.14,50.87 42.72,49.22 41.35,47.33 39.98,45.44 38.98,44.11 37.98,42.78 36.97,41.45 35.97,40.13 34.96,38.83 33.95,37.52 32.93,36.25 31.91,34.98 30.87,33.79 29.82,32.60 28.57,31.44 27.32,30.29 26.01,29.22 24.70,28.16 23.58,27.14 22.45,26.12 21.01,24.95 19.56,23.78 17.99,22.40 16.42,21.02 14.66,19.24 12.90,17.46 11.92,16.44 10.94,15.41 9.98,14.35 9.03,13.28 8.32,12.36 7.61,11.44 6.66,10.40 5.71,9.35 5.02,8.48 4.32,7.60 3.22,6.52 2.13,5.44 1.37,4.28 0.61,3.13 -0.19,2.19 -1.00,1.25 -1.13,1.11 -1.27,0.97 -1.36,0.80 -1.46,0.64 -1.52,0.45 -1.57,0.27 -1.58,0.07 -1.59,-0.11 -1.56,-0.30 -1.52,-0.49 -1.44,-0.66 -1.36,-0.84 -1.24,-0.99 -1.12,-1.14 -0.96,-1.26 -0.81,-1.37 -0.63,-1.45 -0.46,-1.53 -0.27,-1.56 -0.08,-1.60 0.11,-1.58 0.30,-1.57 0.48,-1.51 0.67,-1.45 0.83,-1.35 1.00,-1.25 1.00,-1.25 L 1.00,-1.25 Z"/></g><g transform="translate(280.66668701171875 450.6667022705078) rotate(0 29 -104.00001525878906)" stroke="none"><path fill="#000000" d="M -1.89,-0.27 Q -1.89,-0.27 -1.76,-1.62 -1.63,-2.97 -1.34,-4.21 -1.06,-5.44 -0.76,-6.56 -0.47,-7.67 -0.14,-9.68 0.17,-11.68 0.28,-13.94 0.38,-16.19 0.60,-17.63 0.83,-19.08 1.10,-21.32 1.37,-23.56 1.90,-25.64 2.43,-27.71 2.83,-29.45 3.23,-31.19 3.58,-33.06 3.93,-34.93 4.49,-36.98 5.05,-39.02 5.46,-40.77 5.87,-42.52 6.45,-44.49 7.02,-46.47 7.62,-49.30 8.23,-52.14 8.68,-54.34 9.13,-56.53 9.71,-59.20 10.29,-61.87 10.72,-64.12 11.16,-66.38 11.53,-68.31 11.91,-70.24 12.48,-72.29 13.04,-74.34 13.67,-76.36 14.29,-78.38 14.72,-80.47 15.15,-82.55 15.96,-84.95 16.76,-87.35 17.24,-89.54 17.73,-91.74 18.73,-95.45 19.73,-99.15 20.33,-101.82 20.93,-104.48 21.38,-106.58 21.82,-108.68 22.20,-110.52 22.58,-112.37 22.72,-113.82 22.86,-115.26 23.13,-116.78 23.39,-118.29 23.49,-119.73 23.58,-121.17 24.03,-124.04 24.47,-126.91 25.26,-130.63 26.04,-134.35 26.76,-137.11 27.48,-139.88 28.18,-142.05 28.89,-144.22 29.35,-146.02 29.81,-147.81 30.45,-149.34 31.09,-150.86 31.48,-152.11 31.88,-153.37 32.25,-154.52 32.62,-155.68 32.96,-156.75 33.30,-157.81 33.63,-158.85 33.96,-159.88 34.66,-162.04 35.36,-164.21 35.84,-166.02 36.31,-167.83 37.16,-169.76 38.01,-171.70 38.72,-173.38 39.43,-175.06 40.12,-176.73 40.80,-178.40 41.50,-179.92 42.19,-181.45 42.87,-182.86 43.55,-184.28 44.26,-185.52 44.97,-186.77 45.62,-187.99 46.27,-189.22 46.70,-190.25 47.13,-191.27 47.90,-192.93 48.67,-194.58 49.36,-195.97 50.05,-197.37 50.73,-198.71 51.41,-200.04 51.87,-201.02 52.34,-201.99 53.01,-203.04 53.67,-204.08 55.19,-206.23 56.70,-208.37 56.83,-208.54 56.97,-208.70 57.14,-208.82 57.32,-208.93 57.53,-208.99 57.74,-209.04 57.95,-209.02 58.16,-209.01 58.35,-208.92 58.55,-208.84 58.71,-208.70 58.87,-208.56 58.97,-208.37 59.08,-208.19 59.12,-207.98 59.16,-207.77 59.13,-207.56 59.10,-207.35 59.01,-207.16 58.92,-206.97 58.77,-206.82 58.62,-206.67 58.43,-206.57 58.24,-206.48 58.03,-206.45 57.81,-206.42 57.61,-206.46 57.40,-206.50 57.21,-206.60 57.03,-206.70 56.88,-206.86 56.74,-207.02 56.66,-207.21 56.57,-207.41 56.55,-207.62 56.54,-207.83 56.59,-208.04 56.64,-208.24 56.75,-208.42 56.87,-208.60 57.03,-208.74 57.20,-208.87 57.40,-208.94 57.59,-209.02 57.81,-209.03 58.02,-209.03 58.22,-208.97 58.43,-208.91 58.60,-208.78 58.77,-208.66 58.90,-208.49 59.02,-208.32 59.08,-208.11 59.15,-207.91 59.14,-207.70 59.14,-207.49 59.06,-207.29 58.99,-207.09 58.99,-207.09 58.99,-207.09 58.59,-204.88 58.18,-202.68 57.55,-201.71 56.91,-200.74 56.25,-199.36 55.59,-197.97 54.93,-196.62 54.28,-195.27 53.60,-193.91 52.92,-192.54 52.19,-190.98 51.45,-189.43 50.93,-188.23 50.42,-187.03 49.73,-185.73 49.05,-184.44 48.42,-183.34 47.79,-182.25 47.13,-180.87 46.47,-179.50 45.81,-178.06 45.15,-176.62 44.46,-174.92 43.77,-173.23 43.05,-171.50 42.32,-169.77 41.59,-168.19 40.87,-166.61 40.35,-164.67 39.83,-162.72 39.09,-160.57 38.36,-158.41 38.00,-157.39 37.65,-156.37 37.28,-155.31 36.91,-154.26 36.53,-153.11 36.14,-151.97 35.65,-150.54 35.16,-149.10 34.63,-147.90 34.09,-146.69 33.59,-144.78 33.08,-142.86 32.42,-140.81 31.75,-138.77 31.06,-136.11 30.37,-133.46 29.64,-129.84 28.91,-126.22 28.49,-123.54 28.08,-120.85 27.95,-119.17 27.83,-117.48 27.57,-116.14 27.32,-114.80 27.13,-113.13 26.94,-111.47 26.55,-109.61 26.17,-107.75 25.71,-105.63 25.25,-103.51 24.63,-100.75 24.01,-98.00 23.03,-94.38 22.06,-90.77 21.51,-88.35 20.96,-85.93 20.23,-83.79 19.50,-81.64 19.02,-79.36 18.55,-77.07 17.94,-75.11 17.34,-73.16 16.82,-71.27 16.29,-69.38 15.92,-67.46 15.54,-65.54 15.10,-63.23 14.66,-60.92 14.08,-58.27 13.51,-55.62 13.05,-53.42 12.59,-51.21 11.95,-48.21 11.31,-45.21 10.76,-43.36 10.21,-41.50 9.78,-39.67 9.35,-37.84 8.83,-35.97 8.31,-34.09 7.94,-32.15 7.56,-30.21 7.15,-28.40 6.74,-26.58 6.26,-24.80 5.79,-23.01 5.50,-20.69 5.21,-18.37 5.01,-17.20 4.81,-16.03 4.76,-14.70 4.71,-13.37 4.32,-11.12 3.93,-8.87 3.42,-6.68 2.92,-4.49 2.66,-3.44 2.40,-2.39 2.14,-1.06 1.89,0.27 1.83,0.49 1.77,0.71 1.66,0.91 1.54,1.11 1.39,1.28 1.23,1.45 1.04,1.58 0.85,1.71 0.63,1.78 0.41,1.86 0.18,1.88 -0.04,1.91 -0.26,1.87 -0.49,1.84 -0.70,1.75 -0.92,1.67 -1.11,1.53 -1.29,1.40 -1.44,1.22 -1.59,1.05 -1.69,0.84 -1.80,0.63 -1.85,0.41 -1.90,0.19 -1.89,-0.04 -1.89,-0.27 -1.89,-0.27 L -1.89,-0.27 Z"/></g><g transform="translate(189.33331298828125 18.666671752929688) rotate(0 74 106.33332824707031)" stroke="none"><path fill="#000000" d="M 1.25,-1.07 Q 1.25,-1.07 2.50,0.18 3.74,1.44 4.84,2.79 5.94,4.14 7.21,5.89 8.47,7.65 9.78,9.53 11.09,11.41 12.45,13.58 13.81,15.76 15.16,18.01 16.51,20.27 17.72,22.62 18.92,24.97 20.59,28.23 22.25,31.48 23.68,33.73 25.10,35.99 26.30,37.95 27.51,39.91 28.57,41.46 29.62,43.01 30.68,44.68 31.73,46.35 32.90,47.94 34.06,49.53 35.36,51.41 36.65,53.29 38.08,54.94 39.51,56.59 41.00,58.78 42.48,60.97 43.85,63.01 45.22,65.04 47.33,68.21 49.44,71.38 51.08,73.65 52.72,75.91 54.18,77.83 55.64,79.74 56.98,81.27 58.32,82.80 59.56,84.53 60.80,86.25 62.00,87.63 63.19,89.00 64.46,90.36 65.73,91.72 66.95,93.37 68.17,95.03 69.97,97.39 71.78,99.75 73.13,101.54 74.48,103.32 75.64,104.84 76.79,106.37 77.85,107.78 78.92,109.20 79.95,110.56 80.97,111.93 81.93,113.02 82.89,114.11 84.05,115.33 85.22,116.56 86.29,117.66 87.36,118.76 88.46,120.06 89.55,121.36 90.72,122.61 91.89,123.86 93.48,126.29 95.08,128.72 96.12,130.50 97.15,132.28 97.98,133.81 98.81,135.35 99.51,136.52 100.22,137.69 100.94,139.01 101.66,140.34 102.31,141.41 102.96,142.48 103.61,143.51 104.26,144.54 104.92,145.56 105.58,146.57 106.42,147.73 107.25,148.89 108.54,150.50 109.83,152.12 110.98,153.60 112.13,155.08 113.19,156.48 114.25,157.88 115.15,159.34 116.05,160.79 116.82,162.18 117.59,163.57 118.26,164.67 118.93,165.77 119.48,166.95 120.03,168.13 120.57,169.07 121.11,170.00 122.27,171.86 123.43,173.72 124.64,175.34 125.84,176.96 126.88,178.36 127.91,179.75 129.00,181.70 130.08,183.65 131.02,185.76 131.95,187.87 132.62,188.89 133.28,189.90 134.21,190.91 135.13,191.91 136.02,193.10 136.92,194.29 138.03,195.70 139.14,197.11 140.41,199.14 141.69,201.17 142.43,202.22 143.16,203.27 143.82,204.34 144.48,205.42 145.22,206.29 145.97,207.16 147.49,209.48 149.02,211.80 149.09,212.00 149.16,212.20 149.17,212.41 149.18,212.62 149.11,212.83 149.05,213.03 148.93,213.20 148.81,213.38 148.63,213.50 148.46,213.63 148.26,213.69 148.06,213.75 147.84,213.75 147.63,213.74 147.43,213.67 147.23,213.60 147.07,213.46 146.90,213.33 146.78,213.15 146.67,212.97 146.62,212.77 146.57,212.56 146.58,212.35 146.60,212.14 146.68,211.94 146.77,211.75 146.91,211.59 147.05,211.43 147.23,211.32 147.42,211.22 147.63,211.18 147.84,211.14 148.05,211.17 148.26,211.19 148.45,211.29 148.64,211.38 148.79,211.53 148.94,211.68 149.03,211.87 149.13,212.06 149.16,212.27 149.19,212.48 149.15,212.69 149.11,212.90 149.00,213.09 148.90,213.27 148.74,213.41 148.58,213.56 148.39,213.64 148.19,213.72 147.98,213.74 147.77,213.76 147.56,213.71 147.36,213.66 147.18,213.54 147.00,213.43 146.87,213.26 146.73,213.10 146.73,213.10 146.73,213.10 144.94,211.52 143.15,209.94 142.22,209.07 141.28,208.21 140.48,207.07 139.68,205.92 138.73,204.54 137.78,203.15 136.65,201.38 135.52,199.60 134.52,198.42 133.52,197.23 132.34,195.78 131.17,194.34 130.39,193.46 129.61,192.59 128.69,191.11 127.76,189.64 127.24,188.40 126.72,187.15 125.99,185.56 125.25,183.97 124.32,182.53 123.38,181.09 122.28,179.64 121.18,178.18 120.41,177.25 119.64,176.31 118.39,174.30 117.13,172.29 116.06,170.23 115.00,168.16 114.28,166.97 113.56,165.78 112.85,164.48 112.14,163.18 111.38,161.92 110.61,160.66 109.55,159.27 108.50,157.89 107.38,156.43 106.25,154.97 104.89,153.26 103.53,151.55 102.65,150.31 101.76,149.07 101.09,148.04 100.41,147.01 99.72,145.93 99.03,144.86 98.32,143.69 97.62,142.52 96.95,141.28 96.29,140.05 95.53,138.79 94.78,137.53 93.98,136.06 93.19,134.59 92.21,132.90 91.23,131.21 89.88,129.09 88.54,126.97 87.29,125.64 86.04,124.30 85.07,123.13 84.09,121.95 82.99,120.83 81.90,119.71 80.67,118.42 79.44,117.13 78.38,115.90 77.31,114.68 76.29,113.31 75.26,111.95 74.20,110.53 73.14,109.12 71.99,107.60 70.85,106.08 69.50,104.30 68.16,102.52 66.32,100.12 64.48,97.72 63.44,96.28 62.41,94.84 61.07,93.42 59.73,92.00 58.40,90.45 57.07,88.91 55.98,87.37 54.88,85.82 53.44,84.17 51.99,82.52 50.50,80.56 49.01,78.60 47.32,76.26 45.63,73.92 43.52,70.76 41.41,67.59 40.05,65.56 38.69,63.53 37.36,61.55 36.04,59.57 34.46,57.73 32.89,55.89 31.62,54.06 30.36,52.23 29.11,50.52 27.86,48.80 26.85,47.19 25.83,45.58 24.72,43.94 23.61,42.29 22.43,40.34 21.24,38.39 19.74,35.94 18.24,33.49 16.64,30.19 15.04,26.89 13.97,24.64 12.89,22.40 11.60,20.15 10.30,17.90 9.04,15.79 7.77,13.68 6.51,11.81 5.25,9.93 4.08,8.25 2.90,6.56 1.87,5.24 0.85,3.92 -0.20,2.49 -1.25,1.07 -1.36,0.90 -1.47,0.74 -1.54,0.55 -1.61,0.36 -1.63,0.17 -1.65,-0.02 -1.62,-0.22 -1.59,-0.42 -1.52,-0.60 -1.45,-0.79 -1.33,-0.95 -1.21,-1.11 -1.06,-1.24 -0.91,-1.37 -0.73,-1.46 -0.56,-1.55 -0.36,-1.59 -0.17,-1.64 0.02,-1.64 0.22,-1.63 0.41,-1.58 0.61,-1.53 0.78,-1.43 0.96,-1.34 1.10,-1.20 1.25,-1.07 1.25,-1.07 L 1.25,-1.07 Z"/></g></svg>