<svg version="1.1" xmlns="http://www.w3.org/2000/svg" viewBox="0 0 514.0000305175781 352.6666564941406" width="514.0000305175781" height="352.6666564941406" filter="invert(93%) hue-rotate(180deg)">
  <!-- svg-source:excalidraw -->
  
  <defs>
    <style>
      @font-face {
        font-family: "Virgil";
        src: url("https://unpkg.com/@zsviczian/excalidraw@0.11.0-obsidian-25/dist/excalidraw-assets/Virgil.woff2");
      }
      @font-face {
        font-family: "Cascadia";
        src: url("https://unpkg.com/@zsviczian/excalidraw@0.11.0-obsidian-25/dist/excalidraw-assets/Cascadia.woff2");
      }
    </style>
  </defs>
  <rect x="0" y="0" width="514.0000305175781" height="352.6666564941406" fill="#ffffff"/><g stroke-linecap="round" transform="translate(10 10) rotate(0 247.00001525878906 166.3333282470703)"><path d="M0.04 0.36 C183.71 0.39, 367.55 0.46, 494.09 -0.63 M0.27 -0.34 C176.19 -1.53, 352.49 -2.13, 494.08 -0.08 M494.65 -0.91 C494.54 126.84, 496.6 250.69, 494.65 332.15 M493.53 0.34 C495.76 82.71, 494.87 166.94, 494.61 332.87 M493.5 333.43 C368.67 332.06, 243.41 332.74, 0.56 333.34 M494.37 332.95 C357.51 331.64, 220.64 331.86, 0.34 332.84 M-0.9 331.86 C-2.36 257.13, -1.66 181.59, -0.73 -0.24 M0.22 333.16 C0.53 227.1, 1.21 121.81, -0.21 -0.5" stroke="#000000" stroke-width="1" fill="none"/></g><g stroke-linecap="round"><g transform="translate(34 88) rotate(0 36.66667175292969 -11.333328247070312)"><path d="M0 0 C12.22 -3.78, 61.11 -18.89, 73.33 -22.67 M0 0 C12.22 -3.78, 61.11 -18.89, 73.33 -22.67" stroke="#000000" stroke-width="1" fill="none"/></g></g><g stroke-linecap="round"><g transform="translate(107.33334350585938 66) rotate(0 20 14.666671752929688)"><path d="M0 0 C6.67 4.89, 33.33 24.44, 40 29.33 M0 0 C6.67 4.89, 33.33 24.44, 40 29.33" stroke="#000000" stroke-width="1" fill="none"/></g></g><g stroke-linecap="round"><g transform="translate(33.333343505859375 90) rotate(0 20.333343505859375 16)"><path d="M0 0 C6.78 5.33, 33.89 26.67, 40.67 32 M0 0 C6.78 5.33, 33.89 26.67, 40.67 32" stroke="#000000" stroke-width="1" fill="none"/></g></g><g stroke-linecap="round"><g transform="translate(147.33334350585938 94.66665649414062) rotate(0 -36 13.333343505859375)"><path d="M0 0 C-12 4.44, -60 22.22, -72 26.67 M0 0 C-12 4.44, -60 22.22, -72 26.67" stroke="#000000" stroke-width="1" fill="none"/></g></g><g stroke-linecap="round"><g transform="translate(74.00003051757812 120.66665649414062) rotate(0 -0.333343505859375 30.666671752929688)"><path d="M0 0 C-0.11 10.22, -0.56 51.11, -0.67 61.33 M0 0 C-0.11 10.22, -0.56 51.11, -0.67 61.33" stroke="#000000" stroke-width="1" fill="none"/></g></g><g stroke-linecap="round"><g transform="translate(146.33331298828125 93.66664123535156) rotate(0 -0.333343505859375 30.666671752929688)"><path d="M0 0 C-0.11 10.22, -0.56 51.11, -0.67 61.33 M0 0 C-0.11 10.22, -0.56 51.11, -0.67 61.33" stroke="#000000" stroke-width="1" fill="none"/></g></g><g stroke-linecap="round"><g transform="translate(32.33331298828125 147.99996948242188) rotate(0 20.333343505859375 16)"><path d="M0 0 C6.78 5.33, 33.89 26.67, 40.67 32 M0 0 C6.78 5.33, 33.89 26.67, 40.67 32" stroke="#000000" stroke-width="1" fill="none"/></g></g><g stroke-linecap="round"><g transform="translate(33.666656494140625 89.66664123535156) rotate(0 -0.333343505859375 30.666671752929688)"><path d="M0 0 C-0.11 10.22, -0.56 51.11, -0.67 61.33 M0 0 C-0.11 10.22, -0.56 51.11, -0.67 61.33" stroke="#000000" stroke-width="1" fill="none"/></g></g><g stroke-linecap="round"><g transform="translate(142.66665649414062 152.33331298828125) rotate(0 -36 13.333343505859375)"><path d="M0 0 C-12 4.44, -60 22.22, -72 26.67 M0 0 C-12 4.44, -60 22.22, -72 26.67" stroke="#000000" stroke-width="1" fill="none"/></g></g></svg>