<?xml version="1.0" encoding="UTF-8" standalone="no"?>
<!-- Created with Inkscape (http://www.inkscape.org/) -->

<svg
   width="89.791283mm"
   height="38.365097mm"
   viewBox="0 0 89.791283 38.365097"
   version="1.1"
   id="svg1"
   inkscape:version="1.3.2 (091e20ef0f, 2023-11-25)"
   sodipodi:docname="22.svg"
   xmlns:inkscape="http://www.inkscape.org/namespaces/inkscape"
   xmlns:sodipodi="http://sodipodi.sourceforge.net/DTD/sodipodi-0.dtd"
   xmlns="http://www.w3.org/2000/svg"
   xmlns:svg="http://www.w3.org/2000/svg">
  <sodipodi:namedview
     id="namedview1"
     pagecolor="#ffffff"
     bordercolor="#000000"
     borderopacity="0.25"
     inkscape:showpageshadow="2"
     inkscape:pageopacity="0.0"
     inkscape:pagecheckerboard="0"
     inkscape:deskcolor="#d1d1d1"
     inkscape:document-units="mm"
     inkscape:zoom="3.2957842"
     inkscape:cx="164.90764"
     inkscape:cy="70.08954"
     inkscape:window-width="2560"
     inkscape:window-height="1600"
     inkscape:window-x="0"
     inkscape:window-y="0"
     inkscape:window-maximized="1"
     inkscape:current-layer="layer1">
    <inkscape:page
       x="0"
       y="0"
       width="89.791283"
       height="38.365097"
       id="page1"
       margin="5.0000005"
       bleed="0" />
  </sodipodi:namedview>
  <defs
     id="defs1">
    <clipPath
       clipPathUnits="userSpaceOnUse"
       id="clipPath3726">
      <path
         d="M 102.91,230.16 H 329.1 v 80.407 H 102.91 Z"
         transform="translate(-326.09003,-244.2)"
         id="path3726" />
    </clipPath>
  </defs>
  <g
     inkscape:label="Layer 1"
     inkscape:groupmode="layer"
     id="layer1"
     transform="translate(-54.531247,-123.05832)">
    <rect
       style="fill:#ffffff;stroke-width:1;stroke-linecap:round;stroke-linejoin:round"
       id="rect1"
       width="89.791283"
       height="38.365097"
       x="54.531246"
       y="123.05832" />
    <g
       id="g1">
      <path
         id="path3725"
         d="m 0,0 v -13.788 h -220.19 v 66.19 m 0,6.199 v 7.517 H 0 V 6.147 M -39.577,39.575 H 0 m -123.6,0 h 77.045 m -154.295,0 h 70.27 m -89.61,0 h 12.31 m 51.39,-7.228 v 33.771 m 0,-79.906 v 39.936 m 78.232,30.473 v 9.497 m 0,-34.553 v 18.911 m 0,-44.747 v 19.793 m 0,-39.31 V -0.313 M -123.39,13.033 H 0 m -156.26,0 h 25.73 m -92.66,45.568 h 6 m -6,-6.199 h 6 m 57.7,-20.055 h 6 m -6,-6.199 h 6 m 72.232,5.417 h 6 m -6,-6.043 h 6 m -6,31.099 h 6 m -6,-6.043 h 6 m -6,-44.849 h 6 m -6,-6.042 h 6 M -3,6.147 H 3 M -3,0 h 6 m -210.88,45.575 v -12 m 7.03,12 v -12 m 70.27,12 v -12 m 7.03,12 v -12 m -7.03,-14.542 v -12 m 7.03,12 v -12 m 76.995,38.542 v -12 m 7.031,12 v -12"
         style="fill:none;stroke:#00adef;stroke-width:0.5;stroke-linecap:butt;stroke-linejoin:miter;stroke-miterlimit:4;stroke-dasharray:none;stroke-opacity:1"
         transform="matrix(0.35277776,0,0,-0.35277776,138.2642,151.47113)"
         clip-path="url(#clipPath3726)" />
      <path
         id="path3727"
         d="m 71.759147,131.82766 -0.818568,1.40973 c -0.23151,0.39687 -0.256302,0.40514 -0.363802,0.42994 v 0.0455 h 0.529167 v -0.0455 c -0.132292,-0.0124 -0.165365,-0.0248 -0.165365,-0.0992 0,-0.062 0.0164,-0.0992 0.05374,-0.17364 l 0.161237,-0.31832 h 0.620131 l 0.05786,0.36793 c 0.0042,0.0413 0.0042,0.0786 0.0042,0.0827 0,0.11163 -0.07027,0.12816 -0.219101,0.14056 v 0.0455 h 0.694531 v -0.0455 c -0.161237,-0.0124 -0.181901,-0.0455 -0.214974,-0.24391 l -0.264583,-1.59576 z m -0.541575,1.14514 0.417539,-0.73173 h 0.0042 l 0.124037,0.73173 z m 25.589123,0.74001 h 0.79375 c 0.363802,0 0.748295,-0.17363 0.748295,-0.56224 0,-0.27699 -0.198438,-0.35967 -0.347266,-0.42581 v -0.004 c 0.264584,-0.0538 0.487813,-0.17777 0.487813,-0.42995 0,-0.3266 -0.272839,-0.42168 -0.566367,-0.42168 h -0.727605 v 0.0455 c 0.132292,0.008 0.214974,0.0165 0.214974,0.11989 0,0.0496 -0.01244,0.11162 -0.02895,0.17776 l -0.347266,1.2485 c -0.04961,0.17364 -0.09094,0.18191 -0.227383,0.20671 z m 0.504376,-0.21084 c 0,-0.0537 0.1447,-0.54157 0.190156,-0.72347 0.190182,0.004 0.318346,0.004 0.38862,0.0496 0.08681,0.0537 0.152955,0.15296 0.152955,0.29766 0,0.28112 -0.161237,0.50436 -0.558112,0.50436 -0.08268,0 -0.173619,-0.0207 -0.173619,-0.12816 z m 0.401002,-1.46761 c 0.01244,-0.0455 0.02064,-0.0827 0.173646,-0.0827 0.21082,0 0.31832,0.10335 0.31832,0.29765 0,0.38861 -0.322474,0.44235 -0.587057,0.44235 -0.02892,0 -0.06199,-0.004 -0.09094,-0.004 z m 0,0"
         style="fill:#231f20;fill-opacity:1;fill-rule:nonzero;stroke:none;stroke-width:0.352777"
         aria-label="AB" />
      <path
         id="path3728"
         d="m 98.67222,141.75366 -0.04548,-0.0124 c -0.02892,0.0413 -0.06615,0.0951 -0.177747,0.0951 -0.0703,0 -0.248047,-0.0951 -0.487839,-0.0951 -0.603568,0 -1.141016,0.55811 -1.141016,1.20303 0,0.11989 0.07855,0.72761 0.826823,0.72761 0.202565,0 0.471302,-0.062 0.64905,-0.17364 l 0.140573,-0.52916 c 0.04548,-0.17777 0.12401,-0.19017 0.272838,-0.20258 v -0.0455 h -0.752396 v 0.0455 c 0.152956,0.0124 0.223229,0.0248 0.223229,0.10336 0,0.0455 -0.103346,0.53743 -0.186028,0.60358 -0.07855,0.0661 -0.152956,0.0951 -0.293529,0.0951 -0.479557,0 -0.570495,-0.3514 -0.570495,-0.57051 0,-0.46302 0.276993,-1.16168 0.84336,-1.16168 0.198437,0 0.483685,0.0951 0.508503,0.46302 l 0.04961,0.008 z m 0,0"
         style="fill:#231f20;fill-opacity:1;fill-rule:nonzero;stroke:none;stroke-width:0.352777"
         aria-label="G" />
      <path
         id="path3729"
         d="m 98.653619,151.4864 h -1.409726 v 0.0455 c 0.148828,0.0124 0.219101,0.0165 0.219101,0.11988 0,0.0538 -0.02064,0.13643 -0.03307,0.17777 l -0.347265,1.24851 c -0.04961,0.17776 -0.08681,0.18603 -0.231511,0.2067 v 0.0455 h 0.715196 v -0.0455 c -0.09922,-0.004 -0.214974,-0.0124 -0.214974,-0.12402 0,-0.0289 0.0082,-0.0661 0.02487,-0.12816 l 0.173619,-0.62839 c 0.05376,0.004 0.165365,0.008 0.305938,0.008 0.04961,0 0.140546,0.008 0.140546,0.13229 0,0.0579 -0.01243,0.12402 -0.02064,0.16536 l 0.04548,0.0124 0.214974,-0.66145 -0.04961,-0.0124 c -0.132291,0.25218 -0.136419,0.25218 -0.611849,0.26045 l 0.186029,-0.65733 c 0.02064,-0.062 0.05374,-0.0703 0.23151,-0.0703 0.417539,0 0.516758,0.0331 0.516758,0.21084 0,0.0413 -0.0042,0.0827 -0.0082,0.11989 l 0.06202,0.008 z m 0,0"
         style="fill:#231f20;fill-opacity:1;fill-rule:nonzero;stroke:none;stroke-width:0.352777"
         aria-label="F" />
      <path
         id="path3730"
         d="m 125.47782,132.39816 0.1075,-0.56224 h -0.062 c -0.0124,0.0289 -0.029,0.0662 -0.11163,0.0662 -0.0661,0 -0.23564,-0.0703 -0.44235,-0.0703 -0.64493,0 -1.14515,0.62425 -1.14515,1.16995 0,0.56224 0.41341,0.76068 0.74002,0.76068 0.41341,0 0.66558,-0.29352 0.76893,-0.41755 l -0.0496,-0.0413 c -0.13642,0.13229 -0.33073,0.33487 -0.65318,0.33487 -0.33486,0 -0.48784,-0.23565 -0.48784,-0.60772 0,-0.41341 0.28528,-1.09554 0.85164,-1.09554 0.40513,0 0.42995,0.37621 0.43408,0.45475 z m 0,0"
         style="fill:#231f20;fill-opacity:1;fill-rule:nonzero;stroke:none;stroke-width:0.352777"
         aria-label="C" />
      <path
         id="path3731"
         d="m 123.92855,141.82394 c 0.1447,0.0124 0.21497,0.0248 0.21497,0.11989 0,0.0579 -0.0206,0.14469 -0.0289,0.17777 l -0.34727,1.2485 c -0.0496,0.17363 -0.0909,0.1819 -0.22738,0.20671 v 0.0455 h 0.71107 c 0.83098,0 1.28571,-0.5209 1.28571,-1.0914 0,-0.29766 -0.17362,-0.75241 -0.82269,-0.75241 h -0.78547 z m 0.51676,0.11989 c 0.0124,-0.0372 0.0206,-0.0827 0.1819,-0.0827 0.50022,0 0.59531,0.3514 0.59531,0.63252 0,0.17363 -0.0909,1.04593 -0.97978,1.04593 -0.13229,0 -0.20256,-0.0207 -0.20256,-0.11162 0,-0.0455 0.0372,-0.1695 0.062,-0.26459 z m 0,0"
         style="fill:#231f20;fill-opacity:1;fill-rule:nonzero;stroke:none;stroke-width:0.352777"
         aria-label="D" />
      <path
         id="path3732"
         d="m 125.50573,151.4864 h -1.40147 v 0.0455 c 0.14055,0.0124 0.21497,0.0248 0.21497,0.12402 0,0.0289 -0.0206,0.14469 -0.0289,0.17363 l -0.34727,1.24851 c -0.0496,0.17363 -0.0909,0.1819 -0.23151,0.2067 v 0.0455 h 1.43455 l 0.17362,-0.45889 -0.0455,-0.0207 c -0.19844,0.28112 -0.32247,0.38447 -0.86818,0.38447 -0.0703,0 -0.19431,-0.008 -0.19431,-0.0951 0,-0.0331 0.0124,-0.0827 0.19431,-0.73587 0.4589,0.0124 0.4589,0.0124 0.4589,0.15297 0,0.0455 -0.008,0.0909 -0.0206,0.13229 l 0.0579,0.0124 0.19019,-0.65319 -0.0496,-0.0124 c -0.0289,0.062 -0.0538,0.11575 -0.0786,0.15709 -0.062,0.0868 -0.0785,0.11162 -0.53329,0.11576 l 0.18603,-0.65733 c 0.0164,-0.0537 0.0206,-0.0703 0.22738,-0.0703 0.44233,0 0.52089,0.0413 0.52089,0.21498 0,0.0331 -0.004,0.0703 -0.004,0.11575 l 0.0579,0.008 z m 0,0"
         style="fill:#231f20;fill-opacity:1;fill-rule:nonzero;stroke:none;stroke-width:0.352777"
         aria-label="E" />
      <path
         id="path3733"
         d="m 72.732708,145.85264 h -0.698659 v 0.0455 c 0.12401,0.0124 0.198438,0.0207 0.198438,0.11989 0,0.0537 -0.01244,0.11989 -0.03307,0.17777 l -0.128164,0.46302 h -0.806159 l 0.152982,-0.55397 c 0.05374,-0.18604 0.186028,-0.19844 0.285247,-0.20671 v -0.0455 h -0.768958 v 0.0455 c 0.140573,0.0124 0.214974,0.0248 0.214974,0.11989 0,0.0537 -0.01244,0.11989 -0.02892,0.17777 l -0.347266,1.2485 c -0.04961,0.17363 -0.09096,0.1819 -0.227383,0.20671 v 0.0455 h 0.694531 v -0.0455 c -0.124036,-0.0165 -0.202565,-0.0248 -0.202565,-0.11989 0,-0.0165 0.0042,-0.0413 0.0082,-0.0661 l 0.186029,-0.6904 h 0.806159 l -0.186029,0.66973 c -0.04961,0.17777 -0.152955,0.19017 -0.285247,0.20671 v 0.0455 h 0.77306 v -0.0455 c -0.128138,-0.0124 -0.219102,-0.0207 -0.219102,-0.11989 0,-0.0165 0,-0.0413 0.0082,-0.0661 l 0.372057,-1.36012 c 0.04548,-0.17777 0.09096,-0.1819 0.231511,-0.20671 z m 0,0"
         style="fill:#231f20;fill-opacity:1;fill-rule:nonzero;stroke:none;stroke-width:0.352777"
         aria-label="H" />
    </g>
  </g>
</svg>
