<?xml version="1.0" encoding="UTF-8" standalone="no"?>
<!-- Created with Inkscape (http://www.inkscape.org/) -->

<svg
   width="34.105103mm"
   height="29.720964mm"
   viewBox="0 0 34.105103 29.720964"
   version="1.1"
   id="svg1"
   inkscape:version="1.3.2 (091e20ef0f, 2023-11-25)"
   sodipodi:docname="6b.svg"
   xmlns:inkscape="http://www.inkscape.org/namespaces/inkscape"
   xmlns:sodipodi="http://sodipodi.sourceforge.net/DTD/sodipodi-0.dtd"
   xmlns="http://www.w3.org/2000/svg"
   xmlns:svg="http://www.w3.org/2000/svg">
  <sodipodi:namedview
     id="namedview1"
     pagecolor="#ffffff"
     bordercolor="#000000"
     borderopacity="0.25"
     inkscape:showpageshadow="2"
     inkscape:pageopacity="0.0"
     inkscape:pagecheckerboard="0"
     inkscape:deskcolor="#d1d1d1"
     inkscape:document-units="mm"
     inkscape:zoom="4.6609428"
     inkscape:cx="21.991259"
     inkscape:cy="56.211804"
     inkscape:window-width="2560"
     inkscape:window-height="1600"
     inkscape:window-x="0"
     inkscape:window-y="0"
     inkscape:window-maximized="1"
     inkscape:current-layer="layer1">
    <inkscape:page
       x="0"
       y="0"
       width="34.105106"
       height="29.720963"
       id="page1"
       margin="5.0000005"
       bleed="0" />
  </sodipodi:namedview>
  <defs
     id="defs1">
    <clipPath
       clipPathUnits="userSpaceOnUse"
       id="clipPath791">
      <path
         d="m 215,626 h 78.617 v 59.999 H 215 Z"
         transform="translate(-284.18401,-631.44001)"
         id="path791" />
    </clipPath>
    <clipPath
       clipPathUnits="userSpaceOnUse"
       id="clipPath798">
      <path
         d="m 215,626 h 78.617 v 59.999 H 215 Z"
         transform="translate(0,2.5000001e-5)"
         id="path798" />
    </clipPath>
    <clipPath
       clipPathUnits="userSpaceOnUse"
       id="clipPath800">
      <path
         d="m 215,626 h 78.617 v 59.999 H 215 Z"
         transform="translate(-285.33998,-673.62001)"
         id="path800" />
    </clipPath>
    <clipPath
       clipPathUnits="userSpaceOnUse"
       id="clipPath802">
      <path
         d="m 215,626 h 78.617 v 59.999 H 215 Z"
         transform="translate(-285.67703,-631.44702)"
         id="path802" />
    </clipPath>
    <clipPath
       clipPathUnits="userSpaceOnUse"
       id="clipPath804">
      <path
         d="m 215,626 h 78.617 v 59.999 H 215 Z"
         transform="translate(-263.41103,-631.44702)"
         id="path804" />
    </clipPath>
    <clipPath
       clipPathUnits="userSpaceOnUse"
       id="clipPath806">
      <path
         d="m 215,626 h 78.617 v 59.999 H 215 Z"
         transform="translate(-273.87001,-641.75701)"
         id="path806" />
    </clipPath>
    <clipPath
       clipPathUnits="userSpaceOnUse"
       id="clipPath808">
      <path
         d="m 215,626 h 78.617 v 59.999 H 215 Z"
         transform="translate(-222.30803,-641.75701)"
         id="path808" />
    </clipPath>
    <clipPath
       clipPathUnits="userSpaceOnUse"
       id="clipPath810">
      <path
         d="m 215,626 h 78.617 v 59.999 H 215 Z"
         transform="translate(-261.89198,-673.62001)"
         id="path810" />
    </clipPath>
    <clipPath
       clipPathUnits="userSpaceOnUse"
       id="clipPath812">
      <path
         d="m 215,626 h 78.617 v 59.999 H 215 Z"
         transform="translate(-234.39698,-673.62001)"
         id="path812" />
    </clipPath>
    <clipPath
       clipPathUnits="userSpaceOnUse"
       id="clipPath814">
      <path
         d="m 215,626 h 78.617 v 59.999 H 215 Z"
         transform="translate(-261.89198,-652.19602)"
         id="path814" />
    </clipPath>
    <clipPath
       clipPathUnits="userSpaceOnUse"
       id="clipPath816">
      <path
         d="m 215,626 h 78.617 v 59.999 H 215 Z"
         transform="translate(-234.39698,-652.19602)"
         id="path816" />
    </clipPath>
    <clipPath
       clipPathUnits="userSpaceOnUse"
       id="clipPath820">
      <path
         d="m 215,626 h 78.617 v 59.999 H 215 Z"
         transform="matrix(1,0,0,-1,-290.61998,626.76001)"
         id="path820" />
    </clipPath>
    <clipPath
       clipPathUnits="userSpaceOnUse"
       id="clipPath822">
      <path
         d="m 215,626 h 78.617 v 59.999 H 215 Z"
         transform="matrix(1,0,0,-1,-255.84998,626.76001)"
         id="path822" />
    </clipPath>
  </defs>
  <g
     inkscape:label="Layer 1"
     inkscape:groupmode="layer"
     id="layer1"
     transform="translate(-166.58739,-152.29795)">
    <rect
       style="fill:#ffffff;stroke-width:1;stroke-linecap:round;stroke-linejoin:round"
       id="rect1"
       width="34.105106"
       height="29.720963"
       x="166.58739"
       y="152.29794" />
    <g
       id="g4926"
       transform="matrix(0.26458333,0,0,0.26458333,-102.62961,131.9643)"><path
   id="path790"
   d="m 0,0 h -22.266 l 10.351,10.308 M -23.785,20.749 0,0 M -51.28,20.749 -63.369,10.31"
   style="fill:none;stroke:#00adef;stroke-width:0.5;stroke-linecap:butt;stroke-linejoin:miter;stroke-miterlimit:4;stroke-dasharray:none;stroke-opacity:1"
   transform="matrix(1.3333333,0,0,-1.3333333,1122.912,162.07467)"
   clip-path="url(#clipPath791)" />
<path
   id="path792"
   d="m 1057.3352,95.952378 c 1.0312,0 1.0468,2.015625 1.0468,2.5625 0,0.625 -0.016,2.546872 -1.0468,2.546872 -1.0313,0 -1.0469,-1.906247 -1.0469,-2.546872 0,-0.546875 0.016,-2.5625 1.0469,-2.5625 z m 0,-0.203125 c -1.4688,0 -1.8125,1.8125 -1.8125,2.765625 0,0.953125 0.3437,2.750002 1.8125,2.750002 1.4687,0 1.8125,-1.796877 1.8125,-2.750002 0,-0.953125 -0.3438,-2.765625 -1.8125,-2.765625 z m 0,0"
   style="fill:#231f20;fill-opacity:1;fill-rule:nonzero;stroke:none;stroke-width:1.33333"
   aria-label="" />
0&quot; /&gt;<path
   id="path793"
   d="m 1092.9367,101.1555 h 2.2188 v -0.125 c -0.6094,0 -0.7656,-0.0781 -0.7656,-0.46875 v -4.796872 l -0.062,-0.01563 -1.4375,0.71875 v 0.125 c 0.4531,-0.1875 0.4531,-0.1875 0.5468,-0.1875 0.2657,0 0.2657,0.21875 0.2657,0.375 v 3.625002 c 0,0.59375 -0.2969,0.60938 -0.7657,0.625 z m 0,0"
   style="fill:#231f20;fill-opacity:1;fill-rule:nonzero;stroke:none;stroke-width:1.33333"
   aria-label="" />
1&quot; /&gt;<path
   id="path794"
   d="m 1126.3977,100.06175 -0.094,-0.0469 c -0.3125,0.51562 -0.4687,0.53125 -0.7656,0.53125 h -1.9062 l 1.3437,-1.406252 c 0.3438,-0.375 1.0156,-1.109375 1.0156,-1.953125 0,-0.890625 -0.7187,-1.4375 -1.4531,-1.4375 -0.7031,0 -1.4531,0.375 -1.6875,1.59375 l 0.1719,0.03125 c 0.1719,-0.421875 0.4062,-1.03125 1.1406,-1.03125 0.9375,0 1.1406,0.734375 1.1406,1.140625 0,0.59375 -0.3437,1.3125 -1.0468,2.0625 l -1.4219,1.515622 v 0.0937 h 3.125 z m 0,0"
   style="fill:#231f20;fill-opacity:1;fill-rule:nonzero;stroke:none;stroke-width:1.33333"
   aria-label="" />
2&quot; /&gt;<path
   id="path795"
   d="m 1058.6594,141.53832 h -2.9687 l -0.125,0.35937 -0.3438,0.8125 0.1407,0.0625 c 0.2656,-0.40625 0.4062,-0.64062 0.9218,-0.64062 h 1.7344 l -1.5781,4.76562 h 0.5156 l 1.7031,-5.23437 z m 0,0"
   style="fill:#231f20;fill-opacity:1;fill-rule:nonzero;stroke:none;stroke-width:1.33333"
   aria-label="" />
7&quot; /&gt;<path
   id="path796"
   d="m 1040.2493,158.29613 c 0.9062,0.65625 1.25,0.90625 1.25,1.48437 0,0.5625 -0.375,0.90625 -0.875,0.90625 -0.6563,0 -1.0156,-0.51562 -1.0156,-1.14062 0,-0.71875 0.375,-1.03125 0.6406,-1.25 z m -1.25,1.32812 c 0,0.625 0.5156,1.28125 1.5156,1.28125 1.3281,0 1.5938,-0.89062 1.5938,-1.3125 0,-0.53125 -0.1719,-1 -1.25,-1.76562 0.4375,-0.23438 1.0781,-0.5625 1.0781,-1.29688 0,-0.60937 -0.5,-1.14062 -1.4063,-1.14062 -0.6875,0 -1.4843,0.4375 -1.4843,1.23437 0,0.65625 0.3125,0.92188 0.9843,1.51563 -0.7031,0.54687 -1.0312,0.79687 -1.0312,1.48437 z m 0.6406,-3.20312 c 0,-0.39063 0.25,-0.8125 0.8438,-0.8125 0.625,0 0.9062,0.4375 0.9062,0.875 0,0.70312 -0.4531,1 -0.75,1.20312 -0.2969,-0.1875 -1,-0.64062 -1,-1.26562 z m 0,0"
   style="fill:#231f20;fill-opacity:1;fill-rule:nonzero;stroke:none;stroke-width:1.33333"
   aria-label="" />
8&quot; /&gt;<path
   id="path797"
   d="m 232.9,673.62 h 27.495 V 652.196 H 232.9 Z m 27.49,0 h 23.45"
   style="fill:none;stroke:#00adef;stroke-width:0.5;stroke-linecap:butt;stroke-linejoin:miter;stroke-miterlimit:4;stroke-dasharray:none;stroke-opacity:1"
   transform="matrix(1.3333333,0,0,-1.3333333,744,1003.9947)"
   clip-path="url(#clipPath798)" />
<path
   id="path799"
   d="M 0,0 C 0,-0.829 -0.672,-1.5 -1.5,-1.5 -2.328,-1.5 -3,-0.829 -3,0 -3,0.827 -2.328,1.5 -1.5,1.5 -0.672,1.5 0,0.827 0,0"
   style="fill:#231f20;fill-opacity:1;fill-rule:nonzero;stroke:none"
   transform="matrix(1.3333333,0,0,-1.3333333,1124.4533,105.83467)"
   clip-path="url(#clipPath800)" />
<path
   id="path801"
   d="M 0,0 C 0,-0.828 -0.672,-1.5 -1.5,-1.5 -2.328,-1.5 -3,-0.828 -3,0 -3,0.829 -2.328,1.5 -1.5,1.5 -0.672,1.5 0,0.829 0,0"
   style="fill:#231f20;fill-opacity:1;fill-rule:nonzero;stroke:none"
   transform="matrix(1.3333333,0,0,-1.3333333,1124.9027,162.06533)"
   clip-path="url(#clipPath802)" />
<path
   id="path803"
   d="M 0,0 C 0,-0.828 -0.672,-1.5 -1.5,-1.5 -2.328,-1.5 -3,-0.828 -3,0 -3,0.829 -2.328,1.5 -1.5,1.5 -0.672,1.5 0,0.829 0,0"
   style="fill:#231f20;fill-opacity:1;fill-rule:nonzero;stroke:none"
   transform="matrix(1.3333333,0,0,-1.3333333,1095.2147,162.06533)"
   clip-path="url(#clipPath804)" />
<path
   id="path805"
   d="M 0,0 C 0,-0.829 -0.672,-1.5 -1.5,-1.5 -2.328,-1.5 -3,-0.829 -3,0 -3,0.829 -2.328,1.5 -1.5,1.5 -0.672,1.5 0,0.829 0,0"
   style="fill:#231f20;fill-opacity:1;fill-rule:nonzero;stroke:none"
   transform="matrix(1.3333333,0,0,-1.3333333,1109.16,148.31867)"
   clip-path="url(#clipPath806)" />
<path
   id="path807"
   d="M 0,0 C 0,-0.829 -0.672,-1.5 -1.5,-1.5 -2.328,-1.5 -3,-0.829 -3,0 -3,0.829 -2.328,1.5 -1.5,1.5 -0.672,1.5 0,0.829 0,0"
   style="fill:#231f20;fill-opacity:1;fill-rule:nonzero;stroke:none"
   transform="matrix(1.3333333,0,0,-1.3333333,1040.4107,148.31867)"
   clip-path="url(#clipPath808)" />
<path
   id="path809"
   d="M 0,0 C 0,-0.829 -0.671,-1.5 -1.5,-1.5 -2.327,-1.5 -3,-0.829 -3,0 -3,0.827 -2.327,1.5 -1.5,1.5 -0.671,1.5 0,0.827 0,0"
   style="fill:#231f20;fill-opacity:1;fill-rule:nonzero;stroke:none"
   transform="matrix(1.3333333,0,0,-1.3333333,1093.1893,105.83467)"
   clip-path="url(#clipPath810)" />
<path
   id="path811"
   d="M 0,0 C 0,-0.829 -0.673,-1.5 -1.5,-1.5 -2.328,-1.5 -3,-0.829 -3,0 -3,0.827 -2.328,1.5 -1.5,1.5 -0.673,1.5 0,0.827 0,0"
   style="fill:#231f20;fill-opacity:1;fill-rule:nonzero;stroke:none"
   transform="matrix(1.3333333,0,0,-1.3333333,1056.5293,105.83467)"
   clip-path="url(#clipPath812)" />
<path
   id="path813"
   d="M 0,0 C 0,-0.827 -0.671,-1.5 -1.5,-1.5 -2.327,-1.5 -3,-0.827 -3,0 -3,0.828 -2.327,1.5 -1.5,1.5 -0.671,1.5 0,0.828 0,0"
   style="fill:#231f20;fill-opacity:1;fill-rule:nonzero;stroke:none"
   transform="matrix(1.3333333,0,0,-1.3333333,1093.1893,134.4)"
   clip-path="url(#clipPath814)" />
<path
   id="path815"
   d="M 0,0 C 0,-0.827 -0.673,-1.5 -1.5,-1.5 -2.328,-1.5 -3,-0.827 -3,0 -3,0.828 -2.328,1.5 -1.5,1.5 -0.673,1.5 0,0.828 0,0"
   style="fill:#231f20;fill-opacity:1;fill-rule:nonzero;stroke:none"
   transform="matrix(1.3333333,0,0,-1.3333333,1056.5293,134.4)"
   clip-path="url(#clipPath816)" />
<path
   id="path817"
   d="m 1099.8703,131.92894 c 0.5625,-0.0156 0.75,0.0312 1.0469,0.17187 0.5156,0.26563 0.6094,0.85938 0.6094,1.0625 0,0.59375 -0.3282,1.23438 -1.0782,1.23438 -0.4687,0 -0.7656,-0.45313 -1.1406,-0.45313 -0.125,0 -0.3125,0.0625 -0.3125,0.28125 0,0.42188 0.7031,0.45313 0.8906,0.45313 1.25,0 2.2188,-0.70313 2.2188,-1.84375 0,-1.04688 -0.6875,-1.32813 -1.0156,-1.46875 0.5156,-0.34375 0.7343,-0.6875 0.7343,-1.125 0,-0.32813 -0.2187,-1.07813 -1.25,-1.07813 -0.5312,0 -1.2343,0.25 -1.5625,1.29688 l 0.125,0.0312 c 0.1094,-0.21875 0.4532,-0.84375 1.1719,-0.84375 0.5938,0 0.8906,0.42187 0.8906,0.82812 0,0.73438 -0.6093,1.125 -1.3281,1.34375 z m 0,0"
   style="fill:#231f20;fill-opacity:1;fill-rule:nonzero;stroke:none;stroke-width:1.33333"
   aria-label="" />
3&quot; /&gt;<path
   id="path818"
   d="m 1117.4211,146.16331 h -0.8281 v -3.5625 h -0.3438 l -2.5156,3.5625 v 0.5 h 2.25 v 1.34375 h 0.6094 v -1.34375 h 0.8281 z m -1.4375,0 h -1.9219 l 1.8907,-2.71875 h 0.031 z m 0,0"
   style="fill:#231f20;fill-opacity:1;fill-rule:nonzero;stroke:none;stroke-width:1.33333"
   aria-label="" />
4&quot; /&gt;<path
   id="path819"
   d="m 1125.9814,166.71092 h 1.1719 c 0.07,0 0.1172,0 0.1406,-0.0586 l 0.2227,-0.53907 -0.047,-0.0351 c -0.07,0.082 -0.1289,0.15234 -0.2812,0.15234 h -1.2539 l -0.6563,1.41797 c -0.012,0.0469 0,0.082 0.035,0.082 0.6563,0.0234 1.7109,0.30469 1.7109,1.26563 0,0.73828 -0.4453,1.0664 -0.832,1.0664 -0.3281,0 -0.4805,-0.375 -0.8672,-0.375 -0.2461,0 -0.2461,0.17578 -0.2461,0.23438 0,0.22265 0.2813,0.36328 0.7618,0.36328 0.9492,0 1.6054,-0.63281 1.6054,-1.42969 0,-0.53906 -0.07,-0.71484 -0.3281,-1.01953 -0.3516,-0.43359 -0.9141,-0.53906 -1.3945,-0.62109 z m 0,0"
   style="fill:#231f20;fill-opacity:1;fill-rule:nonzero;stroke:none"
   aria-label="" />
5&quot;
         transform=&quot;matrix(1.3333333,0,0,1.3333333,1131.4933,168.31467)&quot;
         clip-path=&quot;url(#clipPath820)&quot; /&gt;<path
   id="path821"
   d="m 1090.3553,166.08985 c -1.4531,0.0469 -2.4726,1.13671 -2.4726,2.35546 0,1.26563 0.6211,1.82813 1.3242,1.82813 1.0664,0 1.2891,-0.94922 1.2891,-1.39453 0,-0.79688 -0.4688,-1.25391 -1.1133,-1.25391 -0.3281,0 -0.457,0.0703 -0.7852,0.26953 0.1172,-0.73828 0.7032,-1.54687 1.7696,-1.71093 z m -1.2187,1.80468 c 0.6328,0 0.8203,0.60938 0.8203,1.21875 0,0.67969 -0.2812,0.9961 -0.6562,0.9961 -0.4571,0 -0.8555,-0.44532 -0.8555,-1.45313 0,-0.36328 0.059,-0.5039 0.1172,-0.5625 0.1523,-0.14062 0.3633,-0.19922 0.5742,-0.19922 z m 0,0"
   style="fill:#231f20;fill-opacity:1;fill-rule:nonzero;stroke:none"
   aria-label="" />
6&quot;
         transform=&quot;matrix(1.3333333,0,0,1.3333333,1085.1333,168.31467)&quot;
         clip-path=&quot;url(#clipPath822)&quot; /&gt;</g>
  </g>
</svg>
