<?xml version="1.0" encoding="UTF-8" standalone="no"?>
<!-- Created with Inkscape (http://www.inkscape.org/) -->

<svg
   width="48.262871mm"
   height="34.485146mm"
   viewBox="0 0 48.262871 34.485146"
   version="1.1"
   id="svg1"
   inkscape:version="1.3.2 (091e20ef0f, 2023-11-25)"
   sodipodi:docname="8c.svg"
   xmlns:inkscape="http://www.inkscape.org/namespaces/inkscape"
   xmlns:sodipodi="http://sodipodi.sourceforge.net/DTD/sodipodi-0.dtd"
   xmlns="http://www.w3.org/2000/svg"
   xmlns:svg="http://www.w3.org/2000/svg">
  <sodipodi:namedview
     id="namedview1"
     pagecolor="#ffffff"
     bordercolor="#000000"
     borderopacity="0.25"
     inkscape:showpageshadow="2"
     inkscape:pageopacity="0.0"
     inkscape:pagecheckerboard="0"
     inkscape:deskcolor="#d1d1d1"
     inkscape:document-units="mm"
     inkscape:zoom="3.2957842"
     inkscape:cx="105.13431"
     inkscape:cy="70.696376"
     inkscape:window-width="2560"
     inkscape:window-height="1600"
     inkscape:window-x="0"
     inkscape:window-y="0"
     inkscape:window-maximized="1"
     inkscape:current-layer="layer1">
    <inkscape:page
       x="0"
       y="0"
       width="48.262875"
       height="34.485146"
       id="page1"
       margin="5.0000005"
       bleed="0" />
  </sodipodi:namedview>
  <defs
     id="defs1">
    <clipPath
       clipPathUnits="userSpaceOnUse"
       id="clipPath1292">
      <path
         d="m 101,215 h 112.9 v 78.953 H 101 Z"
         transform="translate(-163.303,-239.72801)"
         id="path1292" />
    </clipPath>
    <clipPath
       clipPathUnits="userSpaceOnUse"
       id="clipPath1290">
      <path
         d="m 101,215 h 112.9 v 78.953 H 101 Z"
         transform="translate(-151.618,-252.89801)"
         id="path1290" />
    </clipPath>
    <clipPath
       clipPathUnits="userSpaceOnUse"
       id="clipPath1288">
      <path
         d="m 101,215 h 112.9 v 78.953 H 101 Z"
         transform="translate(-111.92301,-239.72801)"
         id="path1288" />
    </clipPath>
    <clipPath
       clipPathUnits="userSpaceOnUse"
       id="clipPath1286">
      <path
         d="m 101,215 h 112.9 v 78.953 H 101 Z"
         transform="translate(-123.60801,-252.89801)"
         id="path1286" />
    </clipPath>
    <clipPath
       clipPathUnits="userSpaceOnUse"
       id="clipPath1284">
      <path
         d="m 101,215 h 112.9 v 78.953 H 101 Z"
         transform="translate(-206.52301,-266.439)"
         id="path1284" />
    </clipPath>
    <clipPath
       clipPathUnits="userSpaceOnUse"
       id="clipPath1282">
      <path
         d="m 101,215 h 112.9 v 78.953 H 101 Z"
         transform="translate(-187.974,-240.65601)"
         id="path1282" />
    </clipPath>
    <clipPath
       clipPathUnits="userSpaceOnUse"
       id="clipPath1280">
      <path
         d="m 101,215 h 112.9 v 78.953 H 101 Z"
         transform="translate(-153.472,-218.583)"
         id="path1280" />
    </clipPath>
    <clipPath
       clipPathUnits="userSpaceOnUse"
       id="clipPath1278">
      <path
         d="m 101,215 h 112.9 v 78.953 H 101 Z"
         transform="translate(-122.68101,-218.583)"
         id="path1278" />
    </clipPath>
    <clipPath
       clipPathUnits="userSpaceOnUse"
       id="clipPath1276">
      <path
         d="m 101,215 h 112.9 v 78.953 H 101 Z"
         transform="translate(-138.07701,-241.76901)"
         id="path1276" />
    </clipPath>
    <clipPath
       clipPathUnits="userSpaceOnUse"
       id="clipPath1274">
      <path
         d="m 101,215 h 112.9 v 78.953 H 101 Z"
         transform="translate(-138.07701,-262.72901)"
         id="path1274" />
    </clipPath>
    <clipPath
       clipPathUnits="userSpaceOnUse"
       id="clipPath1272">
      <path
         d="m 101,215 h 112.9 v 78.953 H 101 Z"
         transform="translate(-205.02301,-266.439)"
         id="path1272" />
    </clipPath>
  </defs>
  <g
     inkscape:label="Layer 1"
     inkscape:groupmode="layer"
     id="layer1"
     transform="translate(-74.044039,-119.01484)">
    <rect
       style="fill:#ffffff;stroke-width:1;stroke-linecap:round;stroke-linejoin:round"
       id="rect1"
       width="48.262867"
       height="34.485146"
       x="74.044037"
       y="119.01484"
       transform="translate(-1.0625e-6)" />
    <g
       id="g1">
      <path
         id="path1271"
         d="m 0,0 -18.549,-25.783 m -49.897,43.589 c 6.57,0 9.038,-5.194 8.115,-10.953 -1.031,-6.442 -5.383,-10.563 -8.115,-10.563 -2.246,0 -7.084,4.121 -8.113,10.563 -0.924,5.759 1.545,10.953 8.113,10.953 z m -26.154,-44.517 11.685,13.17 h 28.01 l 11.685,-13.17 M -68.446,-3.71 v -20.96 l 15.395,-23.186 m -15.395,23.186 -15.396,-23.186"
         style="fill:none;stroke:#00adef;stroke-width:0.5;stroke-linecap:butt;stroke-linejoin:miter;stroke-miterlimit:4;stroke-dasharray:none;stroke-opacity:1"
         transform="matrix(0.35277776,0,0,-0.35277776,114.87644,130.38461)"
         clip-path="url(#clipPath1272)" />
      <path
         id="path1273"
         d="M 0,0 C 0,-0.828 -0.672,-1.5 -1.5,-1.5 -2.328,-1.5 -3,-0.828 -3,0 -3,0.828 -2.328,1.5 -1.5,1.5 -0.672,1.5 0,0.828 0,0"
         style="fill:#231f20;fill-opacity:1;fill-rule:nonzero;stroke:none"
         transform="matrix(0.35277776,0,0,-0.35277776,91.259391,131.69342)"
         clip-path="url(#clipPath1274)" />
      <path
         id="path1275"
         d="M 0,0 C 0,-0.828 -0.672,-1.5 -1.5,-1.5 -2.328,-1.5 -3,-0.828 -3,0 -3,0.828 -2.328,1.5 -1.5,1.5 -0.672,1.5 0,0.828 0,0"
         style="fill:#231f20;fill-opacity:1;fill-rule:nonzero;stroke:none"
         transform="matrix(0.35277776,0,0,-0.35277776,91.259391,139.08764)"
         clip-path="url(#clipPath1276)" />
      <path
         id="path1277"
         d="M 0,0 C 0,-0.829 -0.671,-1.5 -1.5,-1.5 -2.328,-1.5 -3,-0.829 -3,0 -3,0.828 -2.328,1.5 -1.5,1.5 -0.671,1.5 0,0.828 0,0"
         style="fill:#231f20;fill-opacity:1;fill-rule:nonzero;stroke:none"
         transform="matrix(0.35277776,0,0,-0.35277776,85.828021,147.26715)"
         clip-path="url(#clipPath1278)" />
      <path
         id="path1279"
         d="M 0,0 C 0,-0.829 -0.67,-1.5 -1.5,-1.5 -2.328,-1.5 -3,-0.829 -3,0 -3,0.828 -2.328,1.5 -1.5,1.5 -0.67,1.5 0,0.828 0,0"
         style="fill:#231f20;fill-opacity:1;fill-rule:nonzero;stroke:none"
         transform="matrix(0.35277776,0,0,-0.35277776,96.690401,147.26715)"
         clip-path="url(#clipPath1280)" />
      <path
         id="path1281"
         d="M 0,0 C 0,-0.828 -0.671,-1.5 -1.5,-1.5 -2.329,-1.5 -3,-0.828 -3,0 -3,0.828 -2.329,1.5 -1.5,1.5 -0.671,1.5 0,0.828 0,0"
         style="fill:#231f20;fill-opacity:1;fill-rule:nonzero;stroke:none"
         transform="matrix(0.35277776,0,0,-0.35277776,108.86194,139.48028)"
         clip-path="url(#clipPath1282)" />
      <path
         id="path1283"
         d="M 0,0 C 0,-0.828 -0.671,-1.5 -1.5,-1.5 -2.33,-1.5 -3,-0.828 -3,0 -3,0.828 -2.33,1.5 -1.5,1.5 -0.671,1.5 0,0.828 0,0"
         style="fill:#231f20;fill-opacity:1;fill-rule:nonzero;stroke:none"
         transform="matrix(0.35277776,0,0,-0.35277776,115.40561,130.38461)"
         clip-path="url(#clipPath1284)" />
      <path
         id="path1285"
         d="M 0,0 C 0,-0.828 -0.671,-1.5 -1.5,-1.5 -2.327,-1.5 -3,-0.828 -3,0 -3,0.828 -2.327,1.5 -1.5,1.5 -0.671,1.5 0,0.828 0,0"
         style="fill:#231f20;fill-opacity:1;fill-rule:nonzero;stroke:none"
         transform="matrix(0.35277776,0,0,-0.35277776,86.155041,135.16158)"
         clip-path="url(#clipPath1286)" />
      <path
         id="path1287"
         d="M 0,0 C 0,-0.828 -0.671,-1.5 -1.5,-1.5 -2.329,-1.5 -3,-0.828 -3,0 -3,0.828 -2.329,1.5 -1.5,1.5 -0.671,1.5 0,0.828 0,0"
         style="fill:#231f20;fill-opacity:1;fill-rule:nonzero;stroke:none"
         transform="matrix(0.35277776,0,0,-0.35277776,82.032841,139.80766)"
         clip-path="url(#clipPath1288)" />
      <path
         id="path1289"
         d="M 0,0 C 0,-0.828 -0.672,-1.5 -1.5,-1.5 -2.329,-1.5 -3,-0.828 -3,0 -3,0.828 -2.329,1.5 -1.5,1.5 -0.672,1.5 0,0.828 0,0"
         style="fill:#231f20;fill-opacity:1;fill-rule:nonzero;stroke:none"
         transform="matrix(0.35277776,0,0,-0.35277776,96.036351,135.16158)"
         clip-path="url(#clipPath1290)" />
      <path
         id="path1291"
         d="M 0,0 C 0,-0.828 -0.671,-1.5 -1.5,-1.5 -2.328,-1.5 -3,-0.828 -3,0 -3,0.828 -2.328,1.5 -1.5,1.5 -0.671,1.5 0,0.828 0,0"
         style="fill:#231f20;fill-opacity:1;fill-rule:nonzero;stroke:none"
         transform="matrix(0.35277776,0,0,-0.35277776,100.15856,139.80766)"
         clip-path="url(#clipPath1292)" />
      <path
         id="path1293"
         d="m 80.304521,140.14906 c -0.12815,0.12403 -0.1819,0.19431 -0.22737,0.19431 -0.0207,0 -0.0372,-0.0165 -0.0372,-0.0372 0,-0.0868 0.26045,-1.05007 0.26872,-1.08314 l -0.0207,-0.008 -0.17364,0.0207 -0.008,0.008 -0.0289,0.12402 h -0.004 c -0.008,-0.0786 -0.10335,-0.15296 -0.22324,-0.15296 -0.3762,0 -0.80615,0.52916 -0.80615,0.94257 0,0.0827 0.008,0.33487 0.28939,0.33487 0.16949,0 0.31832,-0.0868 0.55397,-0.42995 l 0.004,0.004 c -0.0455,0.17363 -0.0579,0.23564 -0.0579,0.29765 0,0.0496 0,0.12403 0.11989,0.12403 0.11989,0 0.21497,-0.10335 0.38447,-0.31006 z m -1.02526,0.004 c 0,-0.25631 0.25219,-0.87643 0.58291,-0.87643 0.0827,0 0.16123,0.0537 0.16123,0.19017 0,0.27698 -0.27698,0.8847 -0.57464,0.8847 -0.0744,0 -0.1695,-0.0496 -0.1695,-0.19844 z m 0,0"
         style="fill:#231f20;fill-opacity:1;fill-rule:nonzero;stroke:none;stroke-width:0.352777"
         aria-label="a" />
      <path
         id="path1294"
         d="m 83.530171,147.92533 c -0.0538,0.21911 -0.12403,0.51263 -0.26872,0.51263 -0.0248,0 -0.0537,-0.004 -0.0537,-0.0331 0,-0.0331 0.0372,-0.0331 0.0372,-0.0909 0,-0.062 -0.0579,-0.10335 -0.11575,-0.10335 -0.10335,0 -0.11576,0.0992 -0.11576,0.11162 0,0.13643 0.12816,0.17777 0.22324,0.17777 0.24805,0 0.41342,-0.21084 0.52917,-0.66146 l 0.29352,-1.16169 -0.008,-0.004 c -0.11162,0.0207 -0.3638,0.0662 -0.47956,0.0703 v 0.0455 l 0.0951,-0.004 c 0.0951,0.008 0.11162,0.0289 0.11162,0.0786 0,0.004 0,0.0124 0,0.0207 0,0.0372 -0.0124,0.10335 -0.0455,0.2191 z m 0.61598,-1.69912 c 0,-0.062 -0.0496,-0.15709 -0.14469,-0.15709 -0.0662,0 -0.13229,0.0537 -0.13229,0.15296 0,0.0992 0.0661,0.14883 0.13642,0.14883 0.0951,0 0.14056,-0.0868 0.14056,-0.1447 z m 14.59446,1.36013 c -0.10749,0.13642 -0.17777,0.22324 -0.23151,0.22324 -0.0248,0 -0.0455,-0.0207 -0.0455,-0.0537 0,-0.0579 0.22738,-0.78135 0.22738,-0.88057 0,-0.1819 -0.12816,-0.20257 -0.19017,-0.20257 -0.25632,0 -0.5457,0.43408 -0.63252,0.57464 l -0.004,-0.004 0.33073,-1.24023 -0.0124,-0.0124 c -0.14469,0.0331 -0.29765,0.0579 -0.44235,0.0744 v 0.0455 l 0.0744,-0.004 c 0.091,0.004 0.11576,0.0413 0.11576,0.0744 0,0.0413 -0.0455,0.20257 -0.0786,0.32246 l -0.37207,1.41386 h 0.21084 c 0.0951,-0.35553 0.13643,-0.51263 0.26458,-0.7028 0.0537,-0.0785 0.29353,-0.39687 0.43409,-0.39687 0.0455,0 0.0827,0.0248 0.0827,0.0744 0,0.0372 -0.23151,0.8475 -0.23151,0.92191 0,0.0744 0.0372,0.12816 0.12402,0.12816 0.19017,0 0.31006,-0.17363 0.40928,-0.32246 z m 0,0"
         style="fill:#231f20;fill-opacity:1;fill-rule:nonzero;stroke:none;stroke-width:0.352777"
         aria-label="jh" />
      <path
         id="path1295"
         d="m 101.26862,139.74806 c 0.10335,-0.25219 0.29766,-0.46716 0.44648,-0.46716 0.0703,0 0.0992,0.0496 0.0992,0.11162 0,0.0207 -0.0124,0.35967 -0.59531,0.47956 z m 0.58291,0.40514 c -0.14469,0.11575 -0.26045,0.21084 -0.41341,0.21084 -0.11989,0 -0.26459,-0.0662 -0.26459,-0.25632 0,-0.0579 0.0124,-0.11575 0.0248,-0.17363 l 0.0827,-0.0124 c 0.45475,-0.062 0.71933,-0.29352 0.71933,-0.51677 0,-0.12402 -0.0868,-0.19016 -0.23151,-0.19016 -0.39687,0 -0.84336,0.47542 -0.84336,0.87643 0,0.17777 0.091,0.40101 0.38861,0.40101 0.28112,0 0.53744,-0.26045 0.57051,-0.30593 z m 0,0"
         style="fill:#231f20;fill-opacity:1;fill-rule:nonzero;stroke:none;stroke-width:0.352777"
         aria-label="e" />
      <path
         id="path1296"
         d="m 97.159311,135.57984 c -0.1695,0 -0.1695,-0.16124 -0.1695,-0.21084 0,-0.25632 0.26872,-0.86403 0.58291,-0.86403 0.13229,0 0.13229,0.12402 0.13229,0.18603 0,0.3514 -0.27698,0.88884 -0.5457,0.88884 z m 0.84749,-0.21084 c -0.11575,0.13642 -0.17363,0.20257 -0.23151,0.20257 -0.0289,0 -0.0496,-0.0207 -0.0496,-0.062 0,-0.0455 0.34314,-1.24851 0.46302,-1.74047 l -0.0124,-0.0124 c -0.14469,0.0289 -0.28938,0.0496 -0.43408,0.062 v 0.0496 c 0.1571,0.004 0.17363,0.0165 0.17363,0.0827 0,0.0372 -0.0165,0.10749 -0.0413,0.18603 l -0.11989,0.45062 -0.008,0.004 c -0.008,-0.062 -0.0289,-0.15296 -0.18604,-0.15296 -0.33899,0 -0.81855,0.51676 -0.81855,0.94258 0,0.14469 0.062,0.33486 0.29352,0.33486 0.14056,0 0.30179,-0.0496 0.50436,-0.35967 l 0.004,0.004 c -0.0207,0.0992 -0.0331,0.16537 -0.0331,0.22738 0,0.062 0.0207,0.13229 0.13229,0.13229 0.0951,0 0.27699,-0.13229 0.39688,-0.32246 z m 0,0"
         style="fill:#231f20;fill-opacity:1;fill-rule:nonzero;stroke:none;stroke-width:0.352777"
         aria-label="d" />
      <path
         id="path1297"
         d="m 84.147181,134.81502 c 0,0.23978 -0.26871,0.83509 -0.65319,0.83509 -0.13642,0 -0.13642,-0.0744 -0.13642,-0.0951 0,-0.29352 0.27285,-0.97978 0.58291,-0.97978 0.17776,0 0.2067,0.15296 0.2067,0.23977 z m -0.78548,-0.94671 c 0.16537,0.004 0.18604,0.0165 0.18604,0.0827 0,0.0372 -0.0289,0.10748 -0.0455,0.18603 l -0.38447,1.418 v 0.008 c 0,0.062 0.21497,0.15296 0.3638,0.15296 0.43408,0 0.90537,-0.49196 0.90537,-0.93845 0,-0.20257 -0.13642,-0.33899 -0.33486,-0.33899 -0.25632,0 -0.43408,0.26045 -0.52503,0.40927 l -0.008,-0.004 c 0.0992,-0.31833 0.22738,-0.84336 0.28939,-1.07487 l -0.0124,-0.0124 c -0.14883,0.0248 -0.29352,0.0455 -0.43408,0.062 z m 0,0"
         style="fill:#231f20;fill-opacity:1;fill-rule:nonzero;stroke:none;stroke-width:0.352777"
         aria-label="b" />
      <path
         id="path1298"
         d="m 92.372001,133.02909 c -0.10335,0.11162 -0.23564,0.22737 -0.40514,0.22737 -0.1695,0 -0.25632,-0.12815 -0.25632,-0.34313 0,-0.27285 0.19431,-0.77308 0.56224,-0.77308 0.0496,0 0.10749,0.0165 0.10749,0.0579 0,0.0455 -0.0413,0.0661 -0.0413,0.13643 0,0.0661 0.0413,0.10748 0.11162,0.10748 0.0703,0 0.13229,-0.0537 0.13229,-0.13229 0,-0.0868 -0.0703,-0.22738 -0.30592,-0.22738 -0.41755,0 -0.81029,0.42995 -0.81029,0.83096 0,0.37207 0.23565,0.44649 0.42168,0.44649 0.29352,0 0.45889,-0.21498 0.52917,-0.30593 z m 0,0"
         style="fill:#231f20;fill-opacity:1;fill-rule:nonzero;stroke:none;stroke-width:0.352777"
         aria-label="c" />
      <path
         id="path1299"
         d="m 92.591111,139.2871 c -0.11575,0.16537 -0.19844,0.21911 -0.23151,0.21911 -0.0289,0 -0.0455,-0.0207 -0.0455,-0.0413 0,-0.0331 0.0331,-0.14469 0.0455,-0.18603 l 0.24805,-0.90951 -0.008,-0.004 c -0.11162,0.0207 -0.34726,0.0661 -0.45475,0.0703 v 0.0455 c 0.1571,0 0.17777,0.0124 0.17777,0.0744 0,0.0786 -0.22325,0.77722 -0.22325,0.90951 0,0.0496 0,0.17776 0.13643,0.17776 0.1571,0 0.28112,-0.15709 0.39274,-0.32246 z m 0.11576,-1.36839 c 0,-0.062 -0.0455,-0.1571 -0.14056,-0.1571 -0.0661,0 -0.13229,0.0537 -0.13229,0.15297 0,0.0992 0.0661,0.14883 0.13642,0.14883 0.091,0 0.13643,-0.0868 0.13643,-0.1447 z m 0,0"
         style="fill:#231f20;fill-opacity:1;fill-rule:nonzero;stroke:none;stroke-width:0.352777"
         aria-label="i" />
      <path
         id="path1300"
         d="m 117.30691,129.63084 h -0.16949 c -0.0206,0 -0.0455,-0.0248 -0.0951,-0.0496 -0.0496,-0.0248 -0.11988,-0.0496 -0.23563,-0.0496 -0.23151,0 -0.55812,0.16122 -0.55812,0.47955 0,0.1943 0.11991,0.26045 0.22326,0.30593 -0.0992,0.0661 -0.2191,0.14883 -0.2191,0.23564 0,0.0538 0.0413,0.0868 0.0744,0.11162 -0.23564,0.1571 -0.33073,0.21911 -0.33073,0.38034 0,0.15296 0.15296,0.31419 0.45889,0.31419 0.3886,0 0.60772,-0.17363 0.60772,-0.41341 0,-0.3886 -0.60359,-0.34313 -0.60359,-0.49609 0,-0.0331 0.0662,-0.11162 0.10335,-0.11162 0.0372,0 0.0786,0.0124 0.11162,0.0124 0.24805,0 0.51676,-0.23152 0.51676,-0.44236 0,-0.0537 -0.008,-0.11162 -0.0249,-0.16536 h 0.14055 z m -0.41341,1.39733 c 0,0.14056 -0.13642,0.26872 -0.39273,0.26872 -0.0414,0 -0.34726,-0.0124 -0.34726,-0.27698 0,-0.062 0,-0.14056 0.11575,-0.23978 0.008,-0.008 0.10335,-0.0827 0.11989,-0.0827 0.0249,0 0.29765,0.10335 0.34726,0.12815 0.0537,0.0248 0.15709,0.0744 0.15709,0.20257 z m 0.0744,-1.24436 c 0,0.23564 -0.14057,0.50849 -0.3266,0.50849 -0.12816,0 -0.17362,-0.0951 -0.17362,-0.22324 0,-0.19017 0.12401,-0.47542 0.33899,-0.47542 0.11988,0 0.16123,0.0827 0.16123,0.19017 z m 0,0"
         style="fill:#231f20;fill-opacity:1;fill-rule:nonzero;stroke:none;stroke-width:0.352777"
         aria-label="g" />
      <path
         id="path1301"
         d="m 109.59473,139.47727 h 0.25218 l -0.24805,1.18236 c -0.0207,0.11575 -0.0951,0.45889 -0.27698,0.45889 -0.0331,0 -0.0537,-0.0207 -0.0537,-0.0455 0,-0.0289 0.0289,-0.0289 0.0289,-0.0785 0,-0.0661 -0.0703,-0.10335 -0.10749,-0.10335 h -0.008 c -0.0992,0.004 -0.0992,0.11162 -0.0992,0.11989 0.0165,0.13229 0.13229,0.16536 0.21911,0.16536 0.33073,0 0.48782,-0.45475 0.56637,-0.79788 l 0.20257,-0.90124 h 0.31006 l 0.0164,-0.0909 h -0.30593 c 0.0248,-0.14469 0.11162,-0.64492 0.34315,-0.64492 0.0372,0 0.062,0.0124 0.062,0.0331 0,0.0331 -0.0249,0.0331 -0.0249,0.0951 0,0.0289 0.0164,0.10748 0.10748,0.10748 0.062,0 0.11575,-0.0579 0.11575,-0.11575 0,-0.0537 -0.0454,-0.1819 -0.25215,-0.1819 -0.35554,0 -0.4961,0.46715 -0.56638,0.70693 h -0.26045 z m 0,0"
         style="fill:#231f20;fill-opacity:1;fill-rule:nonzero;stroke:none;stroke-width:0.352777"
         aria-label="f" />
    </g>
  </g>
</svg>
