<?xml version="1.0" encoding="UTF-8" standalone="no"?>
<!-- Created with Inkscape (http://www.inkscape.org/) -->

<svg
   width="78.583603mm"
   height="47.918915mm"
   viewBox="0 0 78.583603 47.918915"
   version="1.1"
   id="svg1"
   inkscape:version="1.3.2 (091e20ef0f, 2023-11-25)"
   sodipodi:docname="1drawE.svg"
   xmlns:inkscape="http://www.inkscape.org/namespaces/inkscape"
   xmlns:sodipodi="http://sodipodi.sourceforge.net/DTD/sodipodi-0.dtd"
   xmlns="http://www.w3.org/2000/svg"
   xmlns:svg="http://www.w3.org/2000/svg">
  <sodipodi:namedview
     id="namedview1"
     pagecolor="#ffffff"
     bordercolor="#000000"
     borderopacity="0.25"
     inkscape:showpageshadow="2"
     inkscape:pageopacity="0.0"
     inkscape:pagecheckerboard="0"
     inkscape:deskcolor="#d1d1d1"
     inkscape:document-units="mm"
     inkscape:zoom="6.5915685"
     inkscape:cx="145.10962"
     inkscape:cy="86.625817"
     inkscape:window-width="2560"
     inkscape:window-height="1600"
     inkscape:window-x="0"
     inkscape:window-y="0"
     inkscape:window-maximized="1"
     inkscape:current-layer="layer1">
    <inkscape:page
       x="0"
       y="0"
       width="78.583603"
       height="47.918915"
       id="page6"
       margin="5.0000005"
       bleed="0" />
  </sodipodi:namedview>
  <defs
     id="defs1" />
  <g
     inkscape:label="Layer 1"
     inkscape:groupmode="layer"
     id="layer1"
     transform="translate(-23.485509,-103.25808)">
    <rect
       style="fill:#ffffff;stroke:none;stroke-width:0.264999;stroke-linecap:round;stroke-linejoin:round;stroke-dasharray:none;stroke-opacity:1"
       id="rect6"
       width="78.583595"
       height="47.918915"
       x="23.48551"
       y="103.25808" />
    <circle
       style="fill:#000000;stroke-width:0.264583"
       id="path1"
       cx="56.766056"
       cy="125.68005"
       r="2.3841741" />
    <g
       id="path2">
      <path
         style="color:#000000;fill:#000000;stroke-linecap:round;stroke-linejoin:round;-inkscape-stroke:none"
         d="M 56.766054,125.68005 H 68.090882"
         id="path11" />
      <path
         style="color:#000000;fill:#000000;stroke-linecap:round;stroke-linejoin:round;-inkscape-stroke:none"
         d="m 56.765625,125.54688 a 0.13249999,0.13249999 0 0 0 -0.132813,0.13281 0.13249999,0.13249999 0 0 0 0.132813,0.13281 h 11.326172 a 0.13249999,0.13249999 0 0 0 0.130859,-0.13281 0.13249999,0.13249999 0 0 0 -0.130859,-0.13281 z"
         id="path12" />
      <g
         id="g10">
        <path
           style="color:#000000;fill:#000000;stroke-linecap:round;-inkscape-stroke:none"
           d="m 67.361328,124.75195 a 0.13249999,0.13249999 0 0 0 -0.09375,0.0391 0.13249999,0.13249999 0 0 0 0,0.1875 l 0.701172,0.70117 -0.701172,0.70117 a 0.13249999,0.13249999 0 0 0 0,0.1875 0.13249999,0.13249999 0 0 0 0.1875,0 l 0.888672,-0.88867 -0.888672,-0.88867 a 0.13249999,0.13249999 0 0 0 -0.09375,-0.0391 z"
           id="path10" />
      </g>
    </g>
    <g
       id="path2-5">
      <path
         style="color:#000000;fill:#000000;stroke-linecap:round;stroke-linejoin:round;-inkscape-stroke:none"
         d="M 56.766056,125.92177 V 114.59694"
         id="path8" />
      <path
         style="color:#000000;fill:#000000;stroke-linecap:round;stroke-linejoin:round;-inkscape-stroke:none"
         d="m 56.765625,114.46484 a 0.13249999,0.13249999 0 0 0 -0.132813,0.13282 v 11.32422 a 0.13249999,0.13249999 0 0 0 0.132813,0.13281 0.13249999,0.13249999 0 0 0 0.132812,-0.13281 v -11.32422 a 0.13249999,0.13249999 0 0 0 -0.132812,-0.13282 z"
         id="path9" />
      <g
         id="g7">
        <path
           style="color:#000000;fill:#000000;stroke-linecap:round;-inkscape-stroke:none"
           d="m 56.765625,114.34375 -0.888672,0.88867 a 0.13249999,0.13249999 0 0 0 0,0.1875 0.13249999,0.13249999 0 0 0 0.1875,0 l 0.701172,-0.70117 0.701172,0.70117 a 0.13249999,0.13249999 0 0 0 0.1875,0 0.13249999,0.13249999 0 0 0 0,-0.1875 z"
           id="path7" />
      </g>
    </g>
    <g
       id="path2-5-7">
      <path
         style="color:#000000;fill:#000000;stroke-linecap:round;stroke-linejoin:round;-inkscape-stroke:none"
         d="M 56.766054,125.68005 H 45.441224"
         id="path29" />
      <path
         style="color:#000000;fill:#000000;stroke-linecap:round;stroke-linejoin:round;-inkscape-stroke:none"
         d="m 45.441406,125.54688 a 0.13249999,0.13249999 0 0 0 -0.132812,0.13281 0.13249999,0.13249999 0 0 0 0.132812,0.13281 h 11.324219 a 0.13249999,0.13249999 0 0 0 0.132812,-0.13281 0.13249999,0.13249999 0 0 0 -0.132812,-0.13281 z"
         id="path30" />
      <g
         id="g28">
        <path
           style="color:#000000;fill:#000000;stroke-linecap:round;-inkscape-stroke:none"
           d="m 46.076172,124.79102 -0.888672,0.88867 0.888672,0.88867 a 0.13249999,0.13249999 0 0 0 0.1875,0 0.13249999,0.13249999 0 0 0 0,-0.1875 l -0.701172,-0.70117 0.701172,-0.70117 a 0.13249999,0.13249999 0 0 0 0,-0.1875 0.13249999,0.13249999 0 0 0 -0.1875,0 z"
           id="path28" />
      </g>
    </g>
    <g
       id="path2-5-7-6">
      <path
         style="color:#000000;fill:#000000;stroke-linecap:round;stroke-linejoin:round;-inkscape-stroke:none"
         d="M 56.766056,125.92177 V 137.2466"
         id="path26" />
      <path
         style="color:#000000;fill:#000000;stroke-linecap:round;stroke-linejoin:round;-inkscape-stroke:none"
         d="m 56.765625,125.78906 a 0.13249999,0.13249999 0 0 0 -0.132813,0.13282 v 11.32421 a 0.13249999,0.13249999 0 0 0 0.132813,0.13282 0.13249999,0.13249999 0 0 0 0.132812,-0.13282 v -11.32421 a 0.13249999,0.13249999 0 0 0 -0.132812,-0.13282 z"
         id="path27" />
      <g
         id="g25">
        <path
           style="color:#000000;fill:#000000;stroke-linecap:round;-inkscape-stroke:none"
           d="m 55.876953,136.42383 a 0.13249999,0.13249999 0 0 0 0,0.1875 l 0.888672,0.88867 0.888672,-0.88867 a 0.13249999,0.13249999 0 0 0 0,-0.1875 0.13249999,0.13249999 0 0 0 -0.1875,0 l -0.701172,0.70117 -0.701172,-0.70117 a 0.13249999,0.13249999 0 0 0 -0.1875,0 z"
           id="path25" />
      </g>
    </g>
    <text
       xml:space="preserve"
       style="font-size:3.175px;fill:#000000;stroke:none;stroke-width:0.264999;stroke-linecap:round;stroke-linejoin:round;stroke-dasharray:none;stroke-opacity:1"
       x="63.94696"
       y="128.8745"
       id="text3"><tspan
         sodipodi:role="line"
         id="tspan3"
         style="stroke:none;stroke-width:0.265"
         x="63.94696"
         y="128.8745">F<tspan
   style="font-size:65%;baseline-shift:sub"
   id="tspan4">app</tspan></tspan></text>
    <text
       xml:space="preserve"
       style="font-size:3.175px;fill:#000000;stroke:none;stroke-width:0.264999;stroke-linecap:round;stroke-linejoin:round;stroke-dasharray:none;stroke-opacity:1"
       x="46.525833"
       y="129.12215"
       id="text3-8"><tspan
         sodipodi:role="line"
         id="tspan3-7"
         style="stroke:none;stroke-width:0.265"
         x="46.525833"
         y="129.12215">N<tspan
   style="font-size:65%;baseline-shift:sub"
   id="tspan4-9">12</tspan></tspan></text>
    <text
       xml:space="preserve"
       style="font-size:3.175px;fill:#000000;stroke:none;stroke-width:0.264999;stroke-linecap:round;stroke-linejoin:round;stroke-dasharray:none;stroke-opacity:1"
       x="57.693558"
       y="118.43924"
       id="text3-8-3"><tspan
         sodipodi:role="line"
         id="tspan3-7-7"
         style="stroke:none;stroke-width:0.265"
         x="57.693558"
         y="118.43924">N<tspan
   style="font-size:65%;baseline-shift:sub"
   id="tspan4-9-5">1</tspan></tspan></text>
    <text
       xml:space="preserve"
       style="font-size:3.175px;fill:#000000;stroke:none;stroke-width:0.264999;stroke-linecap:round;stroke-linejoin:round;stroke-dasharray:none;stroke-opacity:1"
       x="44.129875"
       y="110.67108"
       id="text3-8-3-0"><tspan
         sodipodi:role="line"
         id="tspan3-7-7-6"
         style="stroke:none;stroke-width:0.265"
         x="44.129875"
         y="110.67108">Block 1, m<tspan
   style="font-size:65%;baseline-shift:sub"
   id="tspan6">1</tspan> mass</tspan></text>
    <text
       xml:space="preserve"
       style="font-size:3.175px;fill:#000000;stroke:none;stroke-width:0.264999;stroke-linecap:round;stroke-linejoin:round;stroke-dasharray:none;stroke-opacity:1"
       x="71.507645"
       y="110.67108"
       id="text3-8-3-0-6"><tspan
         sodipodi:role="line"
         id="tspan3-7-7-6-4"
         style="stroke:none;stroke-width:0.265"
         x="71.507645"
         y="110.67108">Block 2, m<tspan
   style="font-size:65%;baseline-shift:sub"
   id="tspan6-9">2</tspan> mass</tspan></text>
    <text
       xml:space="preserve"
       style="font-size:3.175px;fill:#000000;stroke:none;stroke-width:0.264999;stroke-linecap:round;stroke-linejoin:round;stroke-dasharray:none;stroke-opacity:1"
       x="57.693558"
       y="135.35333"
       id="text3-8-3-8"><tspan
         sodipodi:role="line"
         id="tspan3-7-7-9"
         style="stroke:none;stroke-width:0.265"
         x="57.693558"
         y="135.35333">W<tspan
   style="font-size:65%;baseline-shift:sub"
   id="tspan4-9-5-7">1</tspan></tspan></text>
    <circle
       style="fill:#000000;stroke-width:0.264583"
       id="path1-0"
       cx="84.420738"
       cy="125.57083"
       r="2.3841741" />
    <g
       id="path2-3">
      <path
         style="color:#000000;fill:#000000;stroke-linecap:round;stroke-linejoin:round;-inkscape-stroke:none"
         d="M 84.42074,125.57083 H 95.745568"
         id="path20" />
      <path
         style="color:#000000;fill:#000000;stroke-linecap:round;stroke-linejoin:round;-inkscape-stroke:none"
         d="m 84.419922,125.4375 a 0.13249999,0.13249999 0 0 0 -0.13086,0.13281 0.13249999,0.13249999 0 0 0 0.13086,0.13282 h 11.326172 a 0.13249999,0.13249999 0 0 0 0.132812,-0.13282 0.13249999,0.13249999 0 0 0 -0.132812,-0.13281 z"
         id="path21" />
      <g
         id="g19">
        <path
           style="color:#000000;fill:#000000;stroke-linecap:round;-inkscape-stroke:none"
           d="m 95.017578,124.64258 a 0.13249999,0.13249999 0 0 0 -0.09375,0.0391 0.13249999,0.13249999 0 0 0 0,0.1875 l 0.701172,0.70117 -0.701172,0.70117 a 0.13249999,0.13249999 0 0 0 0,0.1875 0.13249999,0.13249999 0 0 0 0.1875,0 L 96,125.57031 95.111328,124.68164 a 0.13249999,0.13249999 0 0 0 -0.09375,-0.0391 z"
           id="path19" />
      </g>
    </g>
    <g
       id="path2-5-6">
      <path
         style="color:#000000;fill:#000000;stroke-linecap:round;stroke-linejoin:round;-inkscape-stroke:none"
         d="M 84.420742,125.81255 V 114.48772"
         id="path17" />
      <path
         style="color:#000000;fill:#000000;stroke-linecap:round;stroke-linejoin:round;-inkscape-stroke:none"
         d="m 84.419922,114.35547 a 0.13249999,0.13249999 0 0 0 -0.13086,0.13281 v 11.32422 a 0.13249999,0.13249999 0 0 0 0.13086,0.13281 0.13249999,0.13249999 0 0 0 0.132812,-0.13281 v -11.32422 a 0.13249999,0.13249999 0 0 0 -0.132812,-0.13281 z"
         id="path18" />
      <g
         id="g16">
        <path
           style="color:#000000;fill:#000000;stroke-linecap:round;-inkscape-stroke:none"
           d="m 84.419922,114.23438 -0.888672,0.88867 a 0.13249999,0.13249999 0 0 0 0,0.1875 0.13249999,0.13249999 0 0 0 0.1875,0 l 0.701172,-0.70117 0.701172,0.70117 a 0.13249999,0.13249999 0 0 0 0.1875,0 0.13249999,0.13249999 0 0 0 0,-0.1875 z"
           id="path16" />
      </g>
    </g>
    <g
       id="path2-5-7-1">
      <path
         style="color:#000000;fill:#000000;stroke-linecap:round;stroke-linejoin:round;-inkscape-stroke:none"
         d="M 84.42074,125.57083 H 73.09591"
         id="path14" />
      <path
         style="color:#000000;fill:#000000;stroke-linecap:round;stroke-linejoin:round;-inkscape-stroke:none"
         d="m 73.095703,125.4375 a 0.13249999,0.13249999 0 0 0 -0.132812,0.13281 0.13249999,0.13249999 0 0 0 0.132812,0.13282 h 11.324219 a 0.13249999,0.13249999 0 0 0 0.132812,-0.13282 0.13249999,0.13249999 0 0 0 -0.132812,-0.13281 z"
         id="path15" />
      <g
         id="g13">
        <path
           style="color:#000000;fill:#000000;stroke-linecap:round;-inkscape-stroke:none"
           d="m 73.824219,124.64258 a 0.13249999,0.13249999 0 0 0 -0.09375,0.0391 l -0.888672,0.88867 0.888672,0.88867 a 0.13249999,0.13249999 0 0 0 0.1875,0 0.13249999,0.13249999 0 0 0 0,-0.1875 l -0.701172,-0.70117 0.701172,-0.70117 a 0.13249999,0.13249999 0 0 0 0,-0.1875 0.13249999,0.13249999 0 0 0 -0.09375,-0.0391 z"
           id="path13" />
      </g>
    </g>
    <g
       id="path2-5-7-6-0">
      <path
         style="color:#000000;fill:#000000;stroke-linecap:round;stroke-linejoin:round;-inkscape-stroke:none"
         d="m 84.420742,125.81255 v 11.32483"
         id="path23" />
      <path
         style="color:#000000;fill:#000000;stroke-linecap:round;stroke-linejoin:round;-inkscape-stroke:none"
         d="m 84.419922,125.67969 a 0.13249999,0.13249999 0 0 0 -0.13086,0.13281 v 11.32422 a 0.13249999,0.13249999 0 0 0 0.13086,0.13281 0.13249999,0.13249999 0 0 0 0.132812,-0.13281 V 125.8125 a 0.13249999,0.13249999 0 0 0 -0.132812,-0.13281 z"
         id="path24" />
      <g
         id="g22">
        <path
           style="color:#000000;fill:#000000;stroke-linecap:round;-inkscape-stroke:none"
           d="m 83.53125,136.31445 a 0.13249999,0.13249999 0 0 0 0,0.1875 l 0.888672,0.88867 0.888672,-0.88867 a 0.13249999,0.13249999 0 0 0 0,-0.1875 0.13249999,0.13249999 0 0 0 -0.1875,0 l -0.701172,0.70117 -0.701172,-0.70117 a 0.13249999,0.13249999 0 0 0 -0.1875,0 z"
           id="path22" />
      </g>
    </g>
    <text
       xml:space="preserve"
       style="font-size:3.175px;fill:#000000;stroke:none;stroke-width:0.264999;stroke-linecap:round;stroke-linejoin:round;stroke-dasharray:none;stroke-opacity:1"
       x="92.743011"
       y="129.12215"
       id="text3-8-0"><tspan
         sodipodi:role="line"
         id="tspan3-7-6"
         style="stroke:none;stroke-width:0.265"
         x="92.743011"
         y="129.12215">N<tspan
   style="font-size:65%;baseline-shift:sub"
   id="tspan4-9-1">21</tspan></tspan></text>
    <text
       xml:space="preserve"
       style="font-size:3.175px;fill:#000000;stroke:none;stroke-width:0.264999;stroke-linecap:round;stroke-linejoin:round;stroke-dasharray:none;stroke-opacity:1"
       x="85.348236"
       y="118.33002"
       id="text3-8-3-5"><tspan
         sodipodi:role="line"
         id="tspan3-7-7-5"
         style="stroke:none;stroke-width:0.265"
         x="85.348236"
         y="118.33002">N<tspan
   style="font-size:65%;baseline-shift:sub"
   id="tspan4-9-5-4">2</tspan></tspan></text>
    <text
       xml:space="preserve"
       style="font-size:3.175px;fill:#000000;stroke:none;stroke-width:0.264999;stroke-linecap:round;stroke-linejoin:round;stroke-dasharray:none;stroke-opacity:1"
       x="85.348236"
       y="135.24411"
       id="text3-8-3-8-7"><tspan
         sodipodi:role="line"
         id="tspan3-7-7-9-6"
         style="stroke:none;stroke-width:0.265"
         x="85.348236"
         y="135.24411">W<tspan
   style="font-size:65%;baseline-shift:sub"
   id="tspan4-9-5-7-5">2</tspan></tspan></text>
    <g
       id="path4">
      <path
         style="color:#000000;fill:#000000;stroke-linecap:round;stroke-linejoin:round;-inkscape-stroke:none"
         d="M 32.299885,137.50023 H 42.858372"
         id="path37" />
      <path
         style="color:#000000;fill:#000000;stroke-linecap:round;stroke-linejoin:round;-inkscape-stroke:none"
         d="m 32.300781,137.36719 a 0.1324995,0.1324995 0 0 0 -0.132812,0.13281 0.1324995,0.1324995 0 0 0 0.132812,0.13281 H 42.857422 A 0.1324995,0.1324995 0 0 0 42.990234,137.5 0.1324995,0.1324995 0 0 0 42.857422,137.36719 Z"
         id="path38" />
      <g
         id="g35">
        <path
           style="color:#000000;fill:#000000;stroke-linecap:round;-inkscape-stroke:none"
           d="m 42.128906,136.57227 a 0.1324995,0.1324995 0 0 0 -0.09375,0.0391 0.1324995,0.1324995 0 0 0 0,0.1875 l 0.701172,0.70117 -0.701172,0.70117 a 0.1324995,0.1324995 0 0 0 0,0.1875 0.1324995,0.1324995 0 0 0 0.1875,0 L 43.111328,137.5 42.222656,136.61133 a 0.1324995,0.1324995 0 0 0 -0.09375,-0.0391 z"
           id="path36" />
        <path
           style="color:#000000;fill:#000000;stroke-linecap:round;-inkscape-stroke:none"
           d="m 33.029297,136.57227 a 0.1324995,0.1324995 0 0 0 -0.09375,0.0391 l -0.888672,0.88867 0.888672,0.88867 a 0.1324995,0.1324995 0 0 0 0.1875,0 0.1324995,0.1324995 0 0 0 0,-0.1875 L 32.421875,137.5 l 0.701172,-0.70117 a 0.1324995,0.1324995 0 0 0 0,-0.1875 0.1324995,0.1324995 0 0 0 -0.09375,-0.0391 z"
           id="path35" />
      </g>
    </g>
    <g
       id="path4-2">
      <path
         style="color:#000000;fill:#000000;stroke-linecap:round;stroke-linejoin:round;-inkscape-stroke:none"
         d="m 37.579128,132.22099 v 10.55848"
         id="path33" />
      <path
         style="color:#000000;fill:#000000;stroke-linecap:round;stroke-linejoin:round;-inkscape-stroke:none"
         d="m 37.580078,132.08789 a 0.1324995,0.1324995 0 0 0 -0.132812,0.13281 v 10.5586 a 0.1324995,0.1324995 0 0 0 0.132812,0.13281 0.1324995,0.1324995 0 0 0 0.130859,-0.13281 v -10.5586 a 0.1324995,0.1324995 0 0 0 -0.130859,-0.13281 z"
         id="path34" />
      <g
         id="g31">
        <path
           style="color:#000000;fill:#000000;stroke-linecap:round;-inkscape-stroke:none"
           d="m 36.783203,141.91797 a 0.1324995,0.1324995 0 0 0 -0.0918,0.0391 0.1324995,0.1324995 0 0 0 0,0.1875 l 0.888672,0.88867 0.888672,-0.88867 a 0.1324995,0.1324995 0 0 0 0,-0.1875 0.1324995,0.1324995 0 0 0 -0.1875,0 l -0.703125,0.70313 -0.701172,-0.70313 a 0.1324995,0.1324995 0 0 0 -0.09375,-0.0391 z"
           id="path32" />
        <path
           style="color:#000000;fill:#000000;stroke-linecap:round;-inkscape-stroke:none"
           d="m 37.580078,131.9668 -0.888672,0.88867 a 0.1324995,0.1324995 0 0 0 0,0.1875 0.1324995,0.1324995 0 0 0 0.185547,0 l 0.701172,-0.70313 0.703125,0.70313 a 0.1324995,0.1324995 0 0 0 0.1875,0 0.1324995,0.1324995 0 0 0 0,-0.1875 z"
           id="path31" />
      </g>
    </g>
    <text
       xml:space="preserve"
       style="font-size:3.175px;fill:#000000;stroke:none;stroke-width:0.264999;stroke-linecap:round;stroke-linejoin:round;stroke-dasharray:none;stroke-opacity:1"
       x="43.68148"
       y="138.65108"
       id="text5"><tspan
         sodipodi:role="line"
         id="tspan5"
         style="stroke:none;stroke-width:0.265"
         x="43.68148"
         y="138.65108">+x</tspan></text>
    <text
       xml:space="preserve"
       style="font-size:3.175px;fill:#000000;stroke:none;stroke-width:0.264999;stroke-linecap:round;stroke-linejoin:round;stroke-dasharray:none;stroke-opacity:1"
       x="35.782078"
       y="130.88214"
       id="text5-8"><tspan
         sodipodi:role="line"
         id="tspan5-6"
         style="stroke:none;stroke-width:0.265"
         x="35.782078"
         y="130.88214">+y</tspan></text>
    <text
       xml:space="preserve"
       style="font-size:3.175px;fill:#000000;stroke:none;stroke-width:0.264999;stroke-linecap:round;stroke-linejoin:round;stroke-dasharray:none;stroke-opacity:1"
       x="36.194828"
       y="145.41499"
       id="text5-3"><tspan
         sodipodi:role="line"
         id="tspan5-1"
         style="stroke:none;stroke-width:0.265"
         x="36.194828"
         y="145.41499">-y</tspan></text>
    <text
       xml:space="preserve"
       style="font-size:3.175px;fill:#000000;stroke:none;stroke-width:0.264999;stroke-linecap:round;stroke-linejoin:round;stroke-dasharray:none;stroke-opacity:1"
       x="28.358509"
       y="138.46185"
       id="text5-4"><tspan
         sodipodi:role="line"
         id="tspan5-4"
         style="stroke:none;stroke-width:0.265"
         x="28.358509"
         y="138.46185">-x</tspan></text>
  </g>
</svg>
