<?xml version="1.0" encoding="UTF-8" standalone="no"?>
<!-- Created with Inkscape (http://www.inkscape.org/) -->

<svg
   width="136.3015mm"
   height="73.150749mm"
   viewBox="0 0 136.3015 73.150749"
   version="1.1"
   id="svg1"
   inkscape:version="1.3.2 (091e20ef0f, 2023-11-25)"
   sodipodi:docname="5.svg"
   xmlns:inkscape="http://www.inkscape.org/namespaces/inkscape"
   xmlns:sodipodi="http://sodipodi.sourceforge.net/DTD/sodipodi-0.dtd"
   xmlns="http://www.w3.org/2000/svg"
   xmlns:svg="http://www.w3.org/2000/svg">
  <sodipodi:namedview
     id="namedview1"
     pagecolor="#ffffff"
     bordercolor="#000000"
     borderopacity="0.25"
     inkscape:showpageshadow="2"
     inkscape:pageopacity="0.0"
     inkscape:pagecheckerboard="0"
     inkscape:deskcolor="#d1d1d1"
     inkscape:document-units="mm"
     inkscape:zoom="1.1652357"
     inkscape:cx="257.88774"
     inkscape:cy="138.16947"
     inkscape:window-width="2560"
     inkscape:window-height="1600"
     inkscape:window-x="0"
     inkscape:window-y="0"
     inkscape:window-maximized="1"
     inkscape:current-layer="layer1">
    <inkscape:page
       x="0"
       y="0"
       width="136.3015"
       height="73.150749"
       id="page1"
       margin="5.0000005"
       bleed="0" />
  </sodipodi:namedview>
  <defs
     id="defs1">
    <clipPath
       clipPathUnits="userSpaceOnUse"
       id="clipPath322">
      <path
         d="M 0,0 H 362 V 182 H 0 Z"
         transform="matrix(10,0,0,10,0,2.513826e-5)"
         id="path322" />
    </clipPath>
    <clipPath
       clipPathUnits="userSpaceOnUse"
       id="clipPath323">
      <path
         d="M 0,0 H 362 V 182 H 0 Z"
         transform="matrix(10,0,0,10,0,2.513826e-5)"
         id="path323" />
    </clipPath>
    <clipPath
       clipPathUnits="userSpaceOnUse"
       id="clipPath324">
      <path
         d="M 0,0 H 362 V 182 H 0 Z"
         transform="matrix(10,0,0,10,0,2.513826e-5)"
         id="path324" />
    </clipPath>
    <clipPath
       clipPathUnits="userSpaceOnUse"
       id="clipPath325">
      <path
         d="M 0,0 H 362 V 182 H 0 Z"
         transform="matrix(10,0,0,10,0,2.513826e-5)"
         id="path325" />
    </clipPath>
    <clipPath
       clipPathUnits="userSpaceOnUse"
       id="clipPath326">
      <path
         d="M 0,0 H 362 V 182 H 0 Z"
         transform="matrix(10,0,0,10,0,2.513826e-5)"
         id="path326" />
    </clipPath>
    <clipPath
       clipPathUnits="userSpaceOnUse"
       id="clipPath327">
      <path
         d="M 0,0 H 362 V 182 H 0 Z"
         transform="matrix(10,0,0,10,0,2.513826e-5)"
         id="path327" />
    </clipPath>
    <clipPath
       clipPathUnits="userSpaceOnUse"
       id="clipPath328">
      <path
         d="M 0,0 H 362 V 182 H 0 Z"
         transform="matrix(10,0,0,10,0,2.513826e-5)"
         id="path328" />
    </clipPath>
    <clipPath
       clipPathUnits="userSpaceOnUse"
       id="clipPath329">
      <path
         d="M 0,1820 V 0 h 3620 v 1820 z m 1895.8,-747.4 -106.8,-10.2 5.4,-54 106.8,10.8 v 0 l -91.8,17.4 z"
         transform="translate(0,2.513826e-5)"
         clip-rule="evenodd"
         id="path329" />
    </clipPath>
    <clipPath
       clipPathUnits="userSpaceOnUse"
       id="clipPath330">
      <path
         d="M 0,0 H 362 V 182 H 0 Z"
         transform="matrix(10,0,0,10,0,2.513826e-5)"
         id="path330" />
    </clipPath>
    <clipPath
       clipPathUnits="userSpaceOnUse"
       id="clipPath331">
      <path
         d="M 0,0 H 362 V 182 H 0 Z"
         transform="matrix(10,0,0,10,0,2.513826e-5)"
         id="path331" />
    </clipPath>
    <clipPath
       clipPathUnits="userSpaceOnUse"
       id="clipPath332">
      <path
         d="M 0,0 H 362 V 182 H 0 Z"
         transform="matrix(10,0,0,10,0,2.513826e-5)"
         id="path332" />
    </clipPath>
    <clipPath
       clipPathUnits="userSpaceOnUse"
       id="clipPath333">
      <path
         d="M 0,0 H 362 V 182 H 0 Z"
         transform="matrix(1,0,0,-1,-144.1,112.6)"
         id="path333" />
    </clipPath>
  </defs>
  <g
     inkscape:label="Layer 1"
     inkscape:groupmode="layer"
     id="layer1"
     transform="translate(-36.804173,-111.94584)">
    <g
       id="g348"
       transform="matrix(0.26458333,0,0,0.26458333,-1330.3082,78.230394)">
      <path
         d="M 1,1 H 3601 V 361 H 1 Z"
         style="fill:#d9d9d9;fill-opacity:1;fill-rule:evenodd;stroke:none"
         transform="matrix(0.1326,0,0,-0.1326,5185.804,385.13867)"
         clip-path="url(#clipPath322)"
         id="path334" />
      <path
         d="M 1,334 H 361 V 1774 H 1 Z"
         style="fill:#d9d9d9;fill-opacity:1;fill-rule:evenodd;stroke:none"
         transform="matrix(0.1326,0,0,-0.1326,5185.804,385.13867)"
         clip-path="url(#clipPath323)"
         id="path335" />
      <path
         d="M 361,1801 V 361 h 3240"
         style="fill:none;stroke:#000000;stroke-width:9;stroke-linecap:butt;stroke-linejoin:miter;stroke-miterlimit:10;stroke-dasharray:none;stroke-opacity:1"
         transform="matrix(0.1326,0,0,-0.1326,5185.804,385.13867)"
         clip-path="url(#clipPath324)"
         id="path336" />
      <path
         d="m 1054,991 v 0 c -34.79,0 -63,-28.207 -63,-63 V 424 c 0,-34.793 28.21,-63 63,-63 h 909 c 34.79,0 63,28.207 63,63 v 504 c 0,34.793 -28.21,63 -63,63"
         style="fill:#bde4ff;fill-opacity:1;fill-rule:evenodd;stroke:none"
         transform="matrix(0.1326,0,0,-0.1326,5185.804,385.13867)"
         clip-path="url(#clipPath325)"
         id="path337" />
      <path
         d="m 1054,991 v 0 c -34.79,0 -63,-28.207 -63,-63 V 424 c 0,-34.793 28.21,-63 63,-63 h 909 c 34.79,0 63,28.207 63,63 v 504 c 0,34.793 -28.21,63 -63,63 z"
         style="fill:none;stroke:#000000;stroke-width:27;stroke-linecap:butt;stroke-linejoin:miter;stroke-miterlimit:10;stroke-dasharray:none;stroke-opacity:1"
         transform="matrix(0.1326,0,0,-0.1326,5185.804,385.13867)"
         clip-path="url(#clipPath326)"
         id="path338" />
      <path
         d="m 1324,1396 v 0 c -34.79,0 -63,-28.21 -63,-63 v -279 c 0,-34.79 28.21,-63 63,-63 h 369 c 34.79,0 63,28.21 63,63 v 279 c 0,34.79 -28.21,63 -63,63"
         style="fill:#bde4ff;fill-opacity:1;fill-rule:evenodd;stroke:none"
         transform="matrix(0.1326,0,0,-0.1326,5185.804,385.13867)"
         clip-path="url(#clipPath327)"
         id="path339" />
      <path
         d="m 1324,1396 v 0 c -34.79,0 -63,-28.21 -63,-63 v -279 c 0,-34.79 28.21,-63 63,-63 h 369 c 34.79,0 63,28.21 63,63 v 279 c 0,34.79 -28.21,63 -63,63 z"
         style="fill:none;stroke:#000000;stroke-width:27;stroke-linecap:butt;stroke-linejoin:miter;stroke-miterlimit:10;stroke-dasharray:none;stroke-opacity:1"
         transform="matrix(0.1326,0,0,-0.1326,5185.804,385.13867)"
         clip-path="url(#clipPath328)"
         id="path340" />
      <path
         d="m 2251,1081 -450,-45"
         style="fill:none;stroke:#000000;stroke-width:4.5;stroke-linecap:butt;stroke-linejoin:miter;stroke-miterlimit:10;stroke-dasharray:none;stroke-opacity:1"
         transform="matrix(0.1326,0,0,-0.1326,5185.804,385.13867)"
         clip-path="url(#clipPath329)"
         id="path341" />
      <path
         d="m 1895.8,1072.6 -86.4,-36 91.8,-17.4"
         style="fill:none;stroke:#000000;stroke-width:4.5;stroke-linecap:butt;stroke-linejoin:miter;stroke-miterlimit:10;stroke-dasharray:none;stroke-opacity:1"
         transform="matrix(0.1326,0,0,-0.1326,5185.804,385.13867)"
         clip-path="url(#clipPath330)"
         id="path342" />
      <path
         d="M 1261,1216 H 361"
         style="fill:none;stroke:#000000;stroke-width:18;stroke-linecap:butt;stroke-linejoin:miter;stroke-miterlimit:10;stroke-dasharray:none;stroke-opacity:1"
         transform="matrix(0.1326,0,0,-0.1326,5185.804,385.13867)"
         clip-path="url(#clipPath331)"
         id="path343" />
      <path
         d="M 2026,676 H 3421"
         style="fill:none;stroke:#000000;stroke-width:18;stroke-linecap:butt;stroke-linejoin:miter;stroke-miterlimit:10;stroke-dasharray:none;stroke-opacity:1"
         transform="matrix(0.1326,0,0,-0.1326,5185.804,385.13867)"
         clip-path="url(#clipPath332)"
         id="path344" />
      <g
         aria-label="A&#10;B&#10;T&#10;T&#10;1&#10;app&#10;µ&#10;k&#10;frictionless"
         transform="matrix(1.326,0,0,1.326,5376.8806,235.83107)"
         clip-path="url(#clipPath333)"
         id="g347">
        <path
           d="M 6.008338,-1.7668065 6.5857325,7.2743841e-4 H 8.4357513 L 5.4073765,-8.7426738 H 3.4159549 L 0.30509521,7.2743841e-4 H 2.1433305 L 2.7325085,-1.7668065 Z M 5.5134285,-3.2633186 H 3.2392015 L 4.3822068,-6.6805508 Z M 0.97675811,44.999196 H 4.912467 c 1.0133861,0 1.685049,-0.188537 2.2153092,-0.636313 0.5184766,-0.447775 0.8601999,-1.190139 0.8601999,-1.885369 0,-0.8602 -0.4713424,-1.543646 -1.4493779,-2.121041 0.8601999,-0.553827 1.2019231,-1.06052 1.2019231,-1.802885 0,-0.600961 -0.3063725,-1.237273 -0.801282,-1.661481 C 6.4325462,36.444331 5.8198011,36.255794 4.8771163,36.255794 H 0.97675811 Z m 1.80288459,-7.24689 h 1.9560709 c 0.8248492,0 1.2726244,0.353507 1.2726244,1.001603 0,0.636312 -0.4477752,0.978035 -1.2726244,0.978035 H 2.7796427 Z m 0,3.476151 h 2.1446079 c 0.8837669,0 1.3315422,0.400641 1.3315422,1.143005 0,0.73058 -0.4477753,1.131222 -1.3315422,1.131222 H 2.7796427 Z M -71.880991,-25.245549 h 2.557033 v -1.496512 h -7.011218 v 1.496512 h 2.651301 v 7.246889 h 1.802884 z M 171.11957,28.752613 h 2.55704 v -1.496512 h -7.01122 v 1.496512 h 2.6513 v 7.246889 h 1.80288 z M -64.648831,-19.368499 v 5.868213 h 1.685049 v -8.50773 h -1.119438 c -0.259239,1.013386 -1.143005,1.531863 -2.604167,1.531863 v 1.107654 z m 246.429581,59.669 c -0.29459,-0.282805 -0.37707,-0.459559 -0.37707,-0.789498 v -3.60577 c 0,-1.319758 -0.89555,-1.991421 -2.6513,-1.991421 -1.75575,0 -2.66309,0.742364 -2.76914,2.238876 h 1.61435 c 0.0825,-0.671663 0.36529,-0.883767 1.19014,-0.883767 0.64809,0 0.96625,0.212104 0.96625,0.648096 0,0.212104 -0.10605,0.412425 -0.28281,0.506693 -0.22388,0.117836 -0.22388,0.117836 -1.06052,0.247455 L 177.73899,36.789 c -1.28441,0.223888 -1.89715,0.883767 -1.89715,2.038556 0,0.553828 0.15318,1.013386 0.44777,1.331542 0.37708,0.388858 0.94269,0.612746 1.5083,0.612746 0.73058,0 1.39046,-0.306373 1.96785,-0.919118 0,0.341723 0.0353,0.459559 0.20032,0.648096 h 1.81467 z m -2.02677,-2.403846 c 0,0.978035 -0.47134,1.520079 -1.33154,1.520079 -0.55383,0 -0.90734,-0.294589 -0.90734,-0.777715 0,-0.506693 0.25924,-0.742364 0.95447,-0.883767 l 0.57739,-0.106052 c 0.44778,-0.08248 0.51848,-0.106052 0.70702,-0.212104 z m 4.79885,-3.876791 h -1.68505 v 9.096908 h 1.68505 V 39.73489 c 0.40064,0.718797 0.97804,1.048737 1.7911,1.048737 1.56722,0 2.71022,-1.461161 2.71022,-3.429016 0,-0.907334 -0.25924,-1.814668 -0.69523,-2.415629 -0.42421,-0.612746 -1.23727,-1.02517 -2.01499,-1.02517 -0.81306,0 -1.39046,0.353507 -1.7911,1.072304 z m 1.41403,1.296191 c 0.84842,0 1.41403,0.82485 1.41403,2.062123 0,1.178356 -0.58918,2.003206 -1.41403,2.003206 -0.84842,0 -1.41403,-0.813066 -1.41403,-2.026773 0,-1.213706 0.56561,-2.038556 1.41403,-2.038556 z m 5.91829,-1.296191 h -1.68505 v 9.096908 h 1.68505 V 39.73489 c 0.40064,0.718797 0.97804,1.048737 1.7911,1.048737 1.56722,0 2.71022,-1.461161 2.71022,-3.429016 0,-0.907334 -0.25924,-1.814668 -0.69523,-2.415629 -0.42421,-0.612746 -1.23727,-1.02517 -2.01499,-1.02517 -0.81306,0 -1.39046,0.353507 -1.7911,1.072304 z m 1.41403,1.296191 c 0.84842,0 1.41403,0.82485 1.41403,2.062123 0,1.178356 -0.58918,2.003206 -1.41403,2.003206 -0.84842,0 -1.41403,-0.813066 -1.41403,-2.026773 0,-1.213706 0.56561,-2.038556 1.41403,-2.038556 z m 0,0"
           style="fill:#000000;fill-opacity:1;fill-rule:nonzero;stroke:none"
           id="path345" />
        <path
           d="M 93.454134,-0.00221845 H 91.85157 l 0.02357,6.64592765 c -0.648096,0.9191176 -1.260841,1.3079751 -2.014989,1.3079751 -1.048737,0 -1.661482,-0.7305807 -1.661482,-1.9914216 v -5.96248115 h -1.579 V 8.6351307 c 0,0.3888575 -0.0707,0.8366327 -0.20032,1.3786763 -0.306373,1.107655 -0.32994,1.213707 -0.32994,1.637915 0,0.754148 0.388857,1.296192 0.907334,1.296192 0.518477,0 0.883767,-0.542044 0.883767,-1.331543 0,-0.388857 -0.05892,-0.612745 -0.341723,-1.6614816 C 87.35025,9.3067936 87.314899,9.1300402 87.314899,8.6233472 V 8.4112431 c 0.765932,0.6245286 1.178356,0.8248492 1.791101,0.8248492 0.895551,0 1.814668,-0.5656109 2.769137,-1.6732655 0.141402,0.5773944 0.235671,0.7894985 0.412424,1.0605204 0.271022,0.3770739 0.754148,0.6127451 1.284408,0.6127451 1.107655,0 1.88537,-0.7894985 2.132825,-2.1799586 l -0.483126,-0.023567 c -0.0707,0.69523 -0.447776,1.2254902 -0.8602,1.2254902 -0.542044,0 -0.907334,-0.6480958 -0.907334,-1.6143476 z m 0,0"
           style="fill:#000000;fill-opacity:1;fill-rule:nonzero;stroke:none"
           id="path346" />
        <path
           d="M 101.39331,9.5395189 V 4.7553937 h -1.685052 v 8.7434013 h 1.685052 v -2.121041 l 0.67166,-0.73058 1.54365,2.851621 h 1.96785 l -2.36849,-4.0299774 2.2153,-2.4509804 h -1.90893 z M 67.659922,67.449822 h -1.001603 v -0.624528 c 0,-0.341723 0.141403,-0.506693 0.459559,-0.506693 0.141403,0 0.32994,0.01178 0.483126,0.03535 v -1.26084 c -0.318156,-0.02357 -0.742364,-0.03535 -0.966252,-0.03535 -1.119438,0 -1.649698,0.53026 -1.649698,1.614348 v 0.777714 h -0.919118 v 1.119439 h 0.919118 v 5.2319 h 1.673265 v -5.2319 h 1.001603 z m 0.989819,-0.129619 v 6.480958 h 1.685049 v -3.440799 c 0,-0.989819 0.483126,-1.472945 1.472945,-1.472945 0.176753,0 0.294589,0.01178 0.53026,0.04713 v -1.708616 c -0.09427,-0.01178 -0.16497,-0.01178 -0.212104,-0.01178 -0.765932,0 -1.437594,0.506693 -1.791101,1.378677 v -1.272625 z m 6.401419,0 h -1.68505 v 6.480958 h 1.68505 z m 0,-2.262443 h -1.68505 v 1.496512 h 1.68505 z m 7.105486,4.689857 c -0.117836,-1.578997 -1.166572,-2.533466 -2.792704,-2.533466 -1.932503,0 -3.051942,1.272625 -3.051942,3.47615 0,2.144608 1.107655,3.381882 3.028375,3.381882 1.578997,0 2.663085,-0.966252 2.816271,-2.509898 h -1.602564 c -0.212104,0.836632 -0.553827,1.154789 -1.201923,1.154789 -0.848417,0 -1.366893,-0.765932 -1.366893,-2.026773 0,-0.612745 0.117835,-1.178356 0.32994,-1.567213 0.188536,-0.36529 0.553827,-0.553827 1.036953,-0.553827 0.683446,0 1.013386,0.329939 1.201923,1.178356 z m 4.02114,-2.297795 h -0.930902 v -1.732183 h -1.685049 v 1.732183 h -0.824849 v 1.119439 h 0.824849 v 3.982843 c 0,1.025169 0.542044,1.520079 1.649699,1.520079 0.377074,0 0.671663,-0.03535 0.966252,-0.129619 v -1.178356 c -0.16497,0.02357 -0.259239,0.04713 -0.377074,0.04713 -0.447776,0 -0.553828,-0.141403 -0.553828,-0.718797 v -3.523284 h 0.930902 z m 2.875188,-0.129619 h -1.685049 v 6.480958 h 1.685049 z m 0,-2.262443 h -1.685049 v 1.496512 h 1.685049 z m 4.457132,2.156391 c -1.979638,0 -3.181562,1.307975 -3.181562,3.429016 0,2.132824 1.201924,3.429016 3.193345,3.429016 1.967855,0 3.205128,-1.307975 3.205128,-3.381882 0,-2.191742 -1.190139,-3.47615 -3.216911,-3.47615 z m 0.01178,1.35511 c 0.930901,0 1.531863,0.824849 1.531863,2.097473 0,1.213707 -0.624529,2.05034 -1.531863,2.05034 -0.907334,0 -1.520079,-0.836633 -1.520079,-2.073907 0,-1.237274 0.612745,-2.073906 1.520079,-2.073906 z m 4.468915,-1.249058 v 6.480958 h 1.685049 v -3.888575 c 0,-0.765931 0.53026,-1.272624 1.35511,-1.272624 0.7188,0 1.07231,0.400641 1.07231,1.166572 v 3.994627 h 1.68505 v -4.348133 c 0,-1.425811 -0.7895,-2.238877 -2.16818,-2.238877 -0.88377,0 -1.47294,0.32994 -1.94429,1.048737 v -0.942685 z m 9.064509,-2.262443 h -1.68505 v 8.743401 h 1.68505 z m 7.12905,6.033182 c 0.0118,-0.141402 0.0118,-0.20032 0.0118,-0.294589 0,-0.636312 -0.0943,-1.237273 -0.24745,-1.696832 -0.43599,-1.178356 -1.47295,-1.88537 -2.78092,-1.88537 -1.8618,0 -3.00481,1.343326 -3.00481,3.511501 0,2.08569 1.13122,3.346531 2.96946,3.346531 1.44938,0 2.62773,-0.824849 2.99302,-2.097474 h -1.6497 c -0.20032,0.518477 -0.67166,0.813066 -1.2844,0.813066 -0.48313,0 -0.8602,-0.200321 -1.10766,-0.553827 -0.15318,-0.247455 -0.2121,-0.530261 -0.23567,-1.143006 z m -4.31278,-1.119438 c 0.10605,-0.978035 0.53026,-1.472945 1.27262,-1.472945 0.41243,0 0.80128,0.200321 1.03696,0.542044 0.16497,0.235671 0.23567,0.49491 0.27102,0.930901 z m 10.76133,-0.565611 c -0.0236,-1.366893 -1.08408,-2.191742 -2.81627,-2.191742 -1.6497,0 -2.66308,0.824849 -2.66308,2.156392 0,0.435991 0.12962,0.813065 0.35351,1.06052 0.23567,0.223888 0.43599,0.32994 1.06052,0.542044 l 2.0032,0.624528 c 0.42421,0.12962 0.56561,0.259239 0.56561,0.518477 0,0.400641 -0.47134,0.636312 -1.24906,0.636312 -0.43599,0 -0.77771,-0.08249 -1.0016,-0.223887 -0.17675,-0.12962 -0.24745,-0.259239 -0.31815,-0.612745 h -1.63792 c 0.0471,1.414027 1.08409,2.156391 3.05194,2.156391 0.89555,0 1.579,-0.188537 2.06213,-0.565611 0.48312,-0.388857 0.76593,-0.989819 0.76593,-1.626131 0,-0.836633 -0.41243,-1.378677 -1.27263,-1.626131 L 117.416,69.641565 c -0.45956,-0.141403 -0.58918,-0.247455 -0.58918,-0.506694 0,-0.36529 0.38886,-0.600961 0.97804,-0.600961 0.80128,0 1.20192,0.294589 1.21371,0.871983 z m 6.67244,0 c -0.0236,-1.366893 -1.08408,-2.191742 -2.81627,-2.191742 -1.64969,0 -2.66308,0.824849 -2.66308,2.156392 0,0.435991 0.12962,0.813065 0.35351,1.06052 0.23567,0.223888 0.43599,0.32994 1.06052,0.542044 l 2.0032,0.624528 c 0.42421,0.12962 0.56561,0.259239 0.56561,0.518477 0,0.400641 -0.47134,0.636312 -1.24905,0.636312 -0.436,0 -0.77772,-0.08249 -1.00161,-0.223887 -0.17675,-0.12962 -0.24745,-0.259239 -0.31815,-0.612745 h -1.63792 c 0.0471,1.414027 1.08409,2.156391 3.05194,2.156391 0.89555,0 1.579,-0.188537 2.06213,-0.565611 0.48312,-0.388857 0.76593,-0.989819 0.76593,-1.626131 0,-0.836633 -0.41243,-1.378677 -1.27263,-1.626131 l -2.12104,-0.612745 c -0.45956,-0.141403 -0.58918,-0.247455 -0.58918,-0.506694 0,-0.36529 0.38886,-0.600961 0.97804,-0.600961 0.80128,0 1.20192,0.294589 1.21371,0.871983 z m 0,0"
           style="fill:#000000;fill-opacity:1;fill-rule:nonzero;stroke:none"
           id="path347" />
      </g>
    </g>
  </g>
</svg>
