<svg version="1.1" xmlns="http://www.w3.org/2000/svg" viewBox="0 0 1076.666748046875 726.6666564941406" width="1076.666748046875" height="726.6666564941406" filter="invert(93%) hue-rotate(180deg)">
  <!-- svg-source:excalidraw -->
  
  <defs>
    <style>
      @font-face {
        font-family: "Virgil";
        src: url("https://unpkg.com/@zsviczian/excalidraw@0.11.0-obsidian-25/dist/excalidraw-assets/Virgil.woff2");
      }
      @font-face {
        font-family: "Cascadia";
        src: url("https://unpkg.com/@zsviczian/excalidraw@0.11.0-obsidian-25/dist/excalidraw-assets/Cascadia.woff2");
      }
    </style>
  </defs>
  <rect x="0" y="0" width="1076.666748046875" height="726.6666564941406" fill="#ffffff"/><g stroke-linecap="round" transform="translate(10 10) rotate(0 528.3333740234375 353.3333282470703)"><path d="M-0.78 0.16 C282.39 3.96, 565.73 3.66, 1057.23 0.75 M0.27 0.08 C217.8 -1.95, 436.01 -2.03, 1056.36 -0.24 M1056.88 0.1 C1058.56 151.18, 1057.36 301.97, 1056.76 707.25 M1056.86 0.07 C1056.13 257.39, 1056.62 515.4, 1056.27 706.93 M1056.8 706.85 C818.13 708.47, 577.48 708.91, 0.16 706.21 M1056.9 706.66 C750.67 707.91, 444.54 708.03, -0.09 706.65 M-0.05 706.19 C-2.79 545.33, -2.9 384.71, 0.2 -0.09 M-0.25 706.81 C2.28 509.56, 2.11 311.99, 0.26 0.3" stroke="#000000" stroke-width="1" fill="none"/></g><g transform="translate(491.3333740234375 126) rotate(0 9.33331298828125 237.6666717529297)" stroke="none"><path fill="#000000" d="M 1.45,-0.58 Q 1.45,-0.58 2.20,1.34 2.95,3.26 3.65,5.26 4.35,7.25 5.02,9.46 5.69,11.68 6.36,14.37 7.03,17.06 7.51,20.37 7.99,23.68 8.56,27.54 9.14,31.41 9.96,38.83 10.78,46.25 11.32,52.48 11.86,58.70 12.28,64.41 12.70,70.13 13.26,75.60 13.82,81.08 14.44,86.66 15.06,92.25 15.51,97.52 15.97,102.78 16.54,108.07 17.12,113.35 17.56,119.46 18.00,125.57 18.37,132.39 18.75,139.20 19.10,147.27 19.46,155.35 19.61,163.58 19.75,171.82 19.82,181.07 19.88,190.32 19.91,196.94 19.94,203.55 19.76,210.40 19.57,217.26 19.31,224.20 19.04,231.13 18.92,236.94 18.81,242.75 18.57,246.78 18.33,250.82 18.23,254.42 18.13,258.01 17.89,264.92 17.66,271.83 17.36,277.46 17.07,283.09 16.95,288.14 16.82,293.20 16.58,298.24 16.33,303.29 16.04,308.12 15.74,312.95 15.62,317.66 15.49,322.37 15.44,327.05 15.39,331.74 15.17,338.54 14.96,345.34 14.67,352.25 14.39,359.17 14.27,363.63 14.15,368.09 14.10,371.32 14.05,374.56 14.03,377.08 14.01,379.60 14.02,381.63 14.03,383.66 13.92,385.38 13.80,387.09 14.00,388.40 14.20,389.71 14.31,391.33 14.41,392.94 14.62,394.68 14.83,396.43 14.85,399.77 14.88,403.12 14.87,405.86 14.86,408.61 14.64,410.98 14.43,413.36 14.52,415.59 14.61,417.82 14.64,419.98 14.67,422.14 14.74,424.01 14.80,425.89 14.86,427.64 14.92,429.40 15.00,430.91 15.08,432.43 14.97,433.79 14.85,435.16 14.80,436.73 14.75,438.29 14.78,439.56 14.81,440.82 14.92,442.70 15.03,444.58 15.07,445.75 15.11,446.92 15.14,448.00 15.18,449.07 15.26,450.92 15.34,452.76 15.67,453.78 16.00,454.80 15.56,456.49 15.13,458.18 15.41,459.72 15.69,461.25 15.69,463.22 15.70,465.20 15.71,467.01 15.73,468.82 15.51,470.04 15.30,471.27 15.94,472.36 16.58,473.46 16.74,473.94 16.90,474.43 16.90,474.94 16.89,475.45 16.73,475.93 16.56,476.42 16.25,476.82 15.94,477.23 15.51,477.51 15.09,477.79 14.59,477.93 14.10,478.06 13.59,478.03 13.08,478.00 12.61,477.81 12.14,477.61 11.75,477.28 11.36,476.95 11.10,476.51 10.84,476.07 10.74,475.57 10.63,475.07 10.69,474.56 10.75,474.05 10.96,473.59 11.18,473.13 11.53,472.76 11.89,472.39 12.34,472.16 12.79,471.92 13.30,471.84 13.80,471.76 14.31,471.85 14.81,471.93 15.26,472.18 15.71,472.42 16.06,472.79 16.41,473.17 16.62,473.63 16.83,474.10 16.88,474.60 16.93,475.11 16.82,475.61 16.71,476.11 16.44,476.54 16.17,476.98 15.78,477.31 15.39,477.63 14.91,477.82 14.44,478.01 13.93,478.03 13.42,478.05 12.93,477.91 12.44,477.77 12.02,477.49 11.60,477.20 11.29,476.79 10.98,476.38 10.98,476.38 10.98,476.38 10.12,473.19 9.26,470.01 9.44,468.59 9.62,467.18 9.64,465.18 9.65,463.18 9.68,461.16 9.71,459.14 10.05,457.04 10.38,454.94 10.18,453.87 9.99,452.80 10.06,450.93 10.14,449.07 10.18,447.99 10.23,446.91 10.27,445.73 10.31,444.55 10.46,442.63 10.62,440.71 10.72,439.40 10.81,438.10 10.92,436.33 11.03,434.57 11.30,433.50 11.56,432.43 11.63,430.92 11.71,429.41 11.75,427.67 11.79,425.92 11.82,424.06 11.84,422.20 11.77,420.08 11.70,417.97 11.56,415.55 11.42,413.13 11.55,410.89 11.69,408.65 11.60,405.93 11.51,403.21 11.36,400.03 11.21,396.85 10.99,394.95 10.77,393.05 10.79,391.51 10.80,389.96 10.78,388.35 10.77,386.74 11.04,385.20 11.32,383.65 11.35,381.62 11.38,379.58 11.40,377.05 11.42,374.52 11.48,371.27 11.53,368.02 11.65,363.54 11.77,359.06 12.05,352.16 12.33,345.25 12.55,338.48 12.76,331.71 12.81,327.00 12.87,322.30 12.99,317.54 13.12,312.79 13.42,307.97 13.71,303.16 13.95,298.15 14.20,293.13 14.32,288.04 14.45,282.96 14.74,277.35 15.03,271.74 15.26,264.84 15.50,257.94 15.60,254.30 15.71,250.66 15.94,246.68 16.18,242.70 16.30,236.87 16.41,231.03 16.68,224.11 16.95,217.19 17.13,210.37 17.31,203.56 17.28,196.95 17.25,190.34 17.19,181.10 17.13,171.87 16.98,163.66 16.83,155.46 16.48,147.40 16.12,139.34 15.75,132.55 15.37,125.76 14.93,119.70 14.50,113.64 13.92,108.33 13.34,103.01 12.88,97.78 12.43,92.54 11.80,86.94 11.18,81.35 10.61,75.84 10.04,70.33 9.62,64.63 9.19,58.93 8.65,52.74 8.10,46.55 7.27,39.18 6.45,31.82 5.85,27.95 5.26,24.08 4.78,20.92 4.30,17.76 3.62,15.15 2.94,12.54 2.24,10.40 1.54,8.26 0.83,6.33 0.11,4.40 -0.67,2.49 -1.45,0.58 -1.50,0.40 -1.55,0.21 -1.55,0.02 -1.56,-0.16 -1.52,-0.34 -1.47,-0.53 -1.39,-0.69 -1.30,-0.86 -1.18,-1.01 -1.06,-1.15 -0.90,-1.26 -0.75,-1.37 -0.57,-1.44 -0.40,-1.51 -0.21,-1.54 -0.02,-1.57 0.16,-1.55 0.34,-1.53 0.52,-1.46 0.70,-1.40 0.86,-1.29 1.02,-1.19 1.14,-1.05 1.27,-0.91 1.36,-0.74 1.45,-0.58 1.45,-0.58 L 1.45,-0.58 Z"/></g><g transform="translate(310.66668701171875 250.66665649414062) rotate(0 199.00003051757812 134)" stroke="none"><path fill="#000000" d="M 0.49,-1.48 Q 0.49,-1.48 3.35,-0.49 6.22,0.49 9.02,1.71 11.82,2.93 15.10,4.41 18.39,5.89 22.86,8.06 27.34,10.23 31.94,12.70 36.54,15.17 44.25,19.68 51.97,24.19 59.06,28.21 66.15,32.22 73.96,36.62 81.77,41.01 91.00,45.54 100.22,50.08 109.90,54.69 119.58,59.31 128.87,63.76 138.16,68.22 146.73,72.61 155.29,77.01 163.36,81.57 171.42,86.13 179.46,91.14 187.51,96.16 195.16,101.56 202.82,106.96 213.75,115.60 224.69,124.23 232.78,130.97 240.88,137.71 247.58,143.45 254.29,149.19 260.77,154.69 267.26,160.19 273.65,165.60 280.05,171.00 286.42,176.56 292.79,182.13 299.14,187.75 305.49,193.37 311.83,199.02 318.17,204.67 327.95,213.20 337.73,221.72 344.56,227.45 351.39,233.18 356.39,237.14 361.39,241.10 364.86,243.73 368.32,246.37 371.48,248.43 374.65,250.48 377.71,252.31 380.77,254.14 383.83,256.09 386.88,258.03 389.47,259.40 392.05,260.77 393.79,261.73 395.52,262.68 396.49,263.18 397.47,263.68 397.62,263.80 397.78,263.92 397.91,264.07 398.03,264.22 398.12,264.40 398.20,264.58 398.24,264.77 398.28,264.97 398.27,265.16 398.26,265.36 398.21,265.55 398.15,265.74 398.05,265.91 397.96,266.08 397.82,266.22 397.68,266.37 397.52,266.47 397.35,266.58 397.16,266.64 396.98,266.70 396.78,266.72 396.58,266.73 396.39,266.70 396.19,266.67 396.01,266.59 395.83,266.52 391.50,267.98 387.16,269.44 386.87,269.45 386.59,269.46 386.31,269.38 386.04,269.29 385.80,269.13 385.57,268.96 385.40,268.73 385.23,268.50 385.15,268.22 385.06,267.95 385.07,267.66 385.08,267.38 385.18,267.11 385.27,266.84 385.45,266.61 385.63,266.39 385.87,266.23 386.11,266.08 386.39,266.01 386.67,265.94 386.96,265.96 387.24,265.98 387.51,266.09 387.77,266.21 387.98,266.40 388.20,266.59 388.34,266.84 388.48,267.09 388.54,267.37 388.59,267.65 388.55,267.93 388.52,268.22 388.39,268.48 388.26,268.73 388.06,268.94 387.86,269.14 387.60,269.27 387.35,269.40 387.06,269.44 386.78,269.48 386.50,269.42 386.21,269.37 385.96,269.23 385.71,269.09 385.52,268.88 385.33,268.66 385.22,268.40 385.10,268.14 385.08,267.85 385.05,267.57 385.12,267.29 385.19,267.01 385.34,266.77 385.50,266.52 385.72,266.34 385.94,266.16 386.21,266.06 386.48,265.96 386.48,265.96 386.48,265.96 389.74,265.46 393.00,264.95 395.23,264.31 397.47,263.68 397.62,263.80 397.78,263.92 397.91,264.07 398.03,264.22 398.11,264.40 398.20,264.58 398.24,264.77 398.28,264.97 398.27,265.16 398.26,265.36 398.21,265.55 398.15,265.74 398.05,265.91 397.96,266.08 397.82,266.22 397.68,266.37 397.52,266.47 397.35,266.58 397.16,266.64 396.98,266.70 396.78,266.72 396.58,266.73 396.39,266.70 396.19,266.67 396.01,266.59 395.83,266.52 394.98,265.80 394.13,265.09 392.48,264.09 390.82,263.09 388.14,261.67 385.47,260.24 382.45,258.32 379.43,256.40 376.32,254.54 373.21,252.68 369.97,250.57 366.73,248.46 363.25,245.81 359.76,243.16 354.73,239.17 349.70,235.19 342.85,229.45 336.00,223.70 326.21,215.17 316.42,206.63 310.08,200.98 303.74,195.34 297.40,189.72 291.06,184.10 284.71,178.56 278.36,173.01 271.96,167.60 265.56,162.19 259.07,156.69 252.58,151.18 245.89,145.46 239.20,139.73 231.13,133.01 223.06,126.29 212.18,117.70 201.30,109.11 193.71,103.75 186.11,98.39 178.12,93.40 170.13,88.42 162.11,83.89 154.09,79.35 145.56,74.98 137.02,70.60 127.73,66.15 118.44,61.70 108.75,57.08 99.05,52.46 89.76,47.90 80.46,43.33 72.65,38.94 64.83,34.56 57.72,30.54 50.60,26.52 42.93,22.05 35.25,17.58 30.69,15.15 26.13,12.72 21.69,10.59 17.24,8.46 13.97,7.03 10.69,5.59 7.98,4.46 5.27,3.33 2.39,2.40 -0.49,1.48 -0.66,1.40 -0.83,1.32 -0.98,1.20 -1.12,1.08 -1.23,0.93 -1.35,0.78 -1.42,0.60 -1.50,0.43 -1.53,0.24 -1.56,0.06 -1.54,-0.12 -1.53,-0.31 -1.47,-0.49 -1.41,-0.66 -1.31,-0.82 -1.21,-0.98 -1.07,-1.11 -0.93,-1.24 -0.77,-1.34 -0.61,-1.43 -0.43,-1.48 -0.25,-1.54 -0.06,-1.54 0.12,-1.55 0.30,-1.51 0.49,-1.48 0.49,-1.48 L 0.49,-1.48 Z"/></g><g transform="translate(297.3333740234375 520.6666564941406) rotate(0 158.66665649414062 -130)" stroke="none"><path fill="#000000" d="M -0.91,-1.26 Q -0.91,-1.26 1.20,-2.76 3.33,-4.27 5.77,-6.05 8.21,-7.83 11.55,-10.30 14.89,-12.77 18.80,-15.74 22.71,-18.70 27.63,-22.63 32.54,-26.56 44.42,-35.52 56.31,-44.49 71.72,-55.59 87.12,-66.69 98.07,-74.65 109.02,-82.62 118.08,-89.45 127.13,-96.28 135.57,-103.01 144.01,-109.73 152.19,-116.61 160.37,-123.49 168.65,-130.25 176.93,-137.02 184.85,-143.72 192.76,-150.42 200.55,-156.73 208.34,-163.04 215.27,-168.96 222.20,-174.89 228.61,-180.29 235.02,-185.69 242.54,-191.82 250.06,-197.96 254.59,-201.71 259.12,-205.46 262.59,-208.21 266.06,-210.97 269.24,-213.65 272.42,-216.34 275.69,-219.20 278.95,-222.07 282.26,-225.01 285.56,-227.95 288.49,-230.73 291.41,-233.50 295.13,-237.34 298.85,-241.19 301.41,-243.80 303.96,-246.40 305.59,-248.25 307.23,-250.10 308.48,-251.52 309.73,-252.94 310.38,-253.80 311.04,-254.66 312.07,-256.07 313.11,-257.48 316.29,-258.42 319.48,-259.36 319.52,-259.00 319.56,-258.63 319.48,-258.28 319.40,-257.92 319.21,-257.61 319.02,-257.29 318.74,-257.06 318.46,-256.82 318.12,-256.69 317.78,-256.56 317.41,-256.54 317.04,-256.52 316.69,-256.62 316.34,-256.72 316.04,-256.92 315.74,-257.13 315.52,-257.42 315.30,-257.72 315.18,-258.06 315.07,-258.41 315.07,-258.78 315.07,-259.14 315.19,-259.49 315.31,-259.84 315.53,-260.13 315.75,-260.42 316.05,-260.62 316.36,-260.82 316.71,-260.92 317.07,-261.02 317.43,-261.00 317.80,-260.97 318.14,-260.84 318.47,-260.70 318.75,-260.46 319.03,-260.22 319.22,-259.91 319.41,-259.60 319.48,-259.24 319.56,-258.88 319.52,-258.52 319.48,-258.15 319.32,-257.82 319.17,-257.49 318.91,-257.22 318.66,-256.96 318.34,-256.79 318.01,-256.62 317.65,-256.56 317.29,-256.50 316.93,-256.57 316.57,-256.63 316.24,-256.80 315.92,-256.97 315.67,-257.24 315.42,-257.51 315.27,-257.84 315.12,-258.17 315.12,-258.17 315.12,-258.17 315.23,-256.26 315.35,-254.36 314.40,-253.36 313.45,-252.37 312.63,-251.69 311.81,-251.00 310.50,-249.68 309.19,-248.36 307.51,-246.46 305.83,-244.56 303.29,-241.96 300.74,-239.37 296.98,-235.48 293.22,-231.59 290.27,-228.79 287.31,-225.99 284.00,-223.04 280.69,-220.09 277.40,-217.21 274.12,-214.33 270.91,-211.62 267.70,-208.91 264.25,-206.17 260.80,-203.43 256.26,-199.68 251.72,-195.92 244.22,-189.80 236.71,-183.68 230.31,-178.28 223.91,-172.89 216.95,-166.94 209.99,-160.99 202.23,-154.70 194.46,-148.41 186.53,-141.69 178.60,-134.98 170.33,-128.22 162.07,-121.47 153.86,-114.57 145.66,-107.66 137.20,-100.91 128.73,-94.16 119.66,-87.31 110.59,-80.47 99.64,-72.49 88.69,-64.51 73.31,-53.42 57.93,-42.34 46.09,-33.38 34.24,-24.43 29.32,-20.46 24.39,-16.50 20.48,-13.51 16.58,-10.52 13.25,-8.01 9.93,-5.50 7.51,-3.68 5.09,-1.85 3.00,-0.29 0.91,1.26 0.75,1.35 0.58,1.44 0.40,1.49 0.22,1.54 0.03,1.55 -0.15,1.55 -0.33,1.51 -0.51,1.47 -0.68,1.39 -0.85,1.30 -0.99,1.18 -1.14,1.06 -1.25,0.91 -1.36,0.75 -1.43,0.58 -1.50,0.41 -1.53,0.22 -1.56,0.03 -1.54,-0.14 -1.52,-0.33 -1.46,-0.51 -1.40,-0.69 -1.29,-0.84 -1.19,-1.00 -1.05,-1.13 -0.91,-1.26 -0.91,-1.26 L -0.91,-1.26 Z"/></g><g transform="translate(614.6666870117188 253.33334350585938) rotate(0 4 10)" stroke="none"><path fill="#000000" d="M -0.33,-2.34 Q -0.33,-2.34 0.99,-2.55 2.33,-2.76 3.44,-3.18 4.55,-3.60 5.80,-4.15 7.05,-4.70 9.33,-5.24 11.61,-5.78 13.06,-6.25 14.51,-6.72 16.34,-7.39 18.17,-8.05 19.22,-7.76 20.27,-7.47 21.08,-5.66 21.89,-3.86 22.16,-1.26 22.43,1.33 22.47,2.66 22.52,4.00 22.54,5.34 22.57,6.68 22.58,8.02 22.59,9.35 22.61,10.49 22.64,11.64 22.65,12.89 22.66,14.15 22.45,15.64 22.24,17.13 22.17,18.34 22.10,19.55 21.87,20.72 21.64,21.90 21.60,23.43 21.55,24.96 21.55,25.11 21.55,25.26 21.49,25.60 21.43,25.94 21.29,26.25 21.15,26.57 20.94,26.84 20.73,27.12 20.46,27.33 20.19,27.55 19.88,27.69 19.56,27.84 19.23,27.90 18.89,27.97 18.54,27.95 18.20,27.93 17.87,27.83 17.54,27.73 17.24,27.56 16.94,27.38 16.70,27.14 16.45,26.90 16.27,26.60 16.09,26.31 15.98,25.98 15.88,25.65 15.85,25.31 15.83,24.96 16.25,26.09 16.67,27.21 15.49,25.63 14.31,24.06 12.48,21.84 10.64,19.62 8.92,17.63 7.19,15.63 5.38,13.83 3.56,12.02 1.82,10.24 0.08,8.45 -1.56,6.95 -3.20,5.44 -4.67,4.25 -6.15,3.06 -7.30,2.50 -8.44,1.94 -9.17,2.91 -9.89,3.89 -10.11,4.15 -10.32,4.42 -10.61,4.60 -10.90,4.78 -11.23,4.86 -11.56,4.94 -11.90,4.92 -12.23,4.89 -12.55,4.75 -12.86,4.62 -13.11,4.39 -13.36,4.16 -13.53,3.86 -13.70,3.57 -13.76,3.23 -13.82,2.90 -13.78,2.56 -13.73,2.22 -13.58,1.92 -13.43,1.62 -13.19,1.38 -12.94,1.14 -12.64,0.99 -12.33,0.83 -12.00,0.79 -11.66,0.74 -11.32,0.81 -10.99,0.87 -10.69,1.04 -10.40,1.21 -10.17,1.47 -9.95,1.72 -9.81,2.03 -9.68,2.35 -9.65,2.68 -9.63,3.02 -9.71,3.35 -9.79,3.68 -9.98,3.97 -10.16,4.26 -10.43,4.47 -10.69,4.68 -11.01,4.80 -11.33,4.91 -11.67,4.92 -12.01,4.93 -12.34,4.83 -12.66,4.73 -12.94,4.53 -13.21,4.33 -13.41,4.05 -13.61,3.78 -13.71,3.45 -13.81,3.13 -13.80,2.79 -13.79,2.45 -13.67,2.13 -13.55,1.81 -13.55,1.81 -13.55,1.81 -11.54,-0.08 -9.53,-1.97 -8.08,-1.58 -6.63,-1.19 -5.36,-0.34 -4.09,0.50 -2.57,1.74 -1.05,2.97 0.72,4.45 2.51,5.93 4.33,7.56 6.15,9.20 8.20,10.93 10.26,12.67 12.22,14.49 14.18,16.32 17.05,19.40 19.91,22.49 20.73,23.87 21.55,25.26 21.49,25.60 21.43,25.94 21.29,26.25 21.15,26.57 20.94,26.84 20.73,27.12 20.46,27.33 20.19,27.55 19.88,27.69 19.56,27.84 19.23,27.90 18.89,27.97 18.54,27.95 18.20,27.93 17.87,27.83 17.54,27.73 17.24,27.56 16.94,27.38 16.70,27.14 16.45,26.90 16.27,26.60 16.09,26.31 15.98,25.98 15.88,25.65 15.85,25.31 15.83,24.96 15.94,23.96 16.04,22.95 16.42,21.08 16.80,19.21 16.89,17.78 16.98,16.36 17.15,15.25 17.33,14.14 17.34,12.90 17.34,11.65 17.36,10.52 17.38,9.38 17.38,8.06 17.38,6.74 17.37,5.45 17.36,4.15 17.33,2.88 17.30,1.60 17.17,0.15 17.05,-1.30 17.52,-2.29 17.99,-3.28 16.90,-2.93 15.81,-2.57 14.32,-2.13 12.84,-1.68 10.91,-0.96 8.99,-0.24 7.57,0.36 6.15,0.98 4.59,1.49 3.03,2.00 1.68,2.17 0.33,2.34 0.04,2.35 -0.23,2.36 -0.51,2.29 -0.79,2.23 -1.05,2.10 -1.30,1.98 -1.52,1.79 -1.74,1.61 -1.91,1.37 -2.07,1.14 -2.18,0.88 -2.29,0.61 -2.33,0.33 -2.37,0.04 -2.34,-0.23 -2.31,-0.51 -2.22,-0.78 -2.12,-1.05 -1.96,-1.29 -1.80,-1.53 -1.59,-1.73 -1.38,-1.92 -1.13,-2.06 -0.88,-2.20 -0.61,-2.27 -0.33,-2.35 -0.33,-2.34 L -0.33,-2.34 Z"/></g><g transform="translate(290 261.3333435058594) rotate(0 18.000030517578125 -8.333328247070312)" stroke="none"><path fill="#000000" d="M -2.32,0.23 Q -2.32,0.23 -2.43,-1.69 -2.55,-3.61 -2.64,-5.25 -2.73,-6.88 -2.56,-8.67 -2.40,-10.46 -2.33,-12.05 -2.26,-13.64 -2.05,-15.23 -1.84,-16.82 -1.79,-18.12 -1.73,-19.43 -1.49,-21.07 -1.25,-22.71 -1.17,-24.19 -1.08,-25.67 -0.47,-26.61 0.12,-27.55 1.37,-28.01 2.62,-28.47 4.59,-28.61 6.55,-28.75 7.74,-28.77 8.92,-28.78 10.38,-28.75 11.84,-28.72 13.42,-28.68 14.99,-28.63 16.48,-28.76 17.96,-28.90 20.80,-29.02 23.64,-29.14 25.84,-29.14 28.05,-29.14 29.55,-29.23 31.06,-29.32 32.28,-29.40 33.51,-29.48 35.28,-29.28 37.05,-29.08 38.04,-27.69 39.04,-26.30 38.87,-25.09 38.70,-23.89 36.90,-22.10 35.10,-20.30 33.68,-19.02 32.25,-17.74 30.86,-16.44 29.48,-15.15 28.10,-13.85 26.73,-12.54 25.14,-11.08 23.55,-9.62 21.89,-8.07 20.23,-6.51 18.81,-4.78 17.38,-3.05 15.97,-1.34 14.56,0.37 12.82,2.78 11.09,5.19 9.98,6.68 8.87,8.17 6.49,9.89 4.10,11.60 3.85,11.55 3.59,11.50 3.37,11.37 3.15,11.23 2.98,11.04 2.81,10.84 2.71,10.60 2.61,10.36 2.59,10.10 2.58,9.84 2.64,9.59 2.71,9.34 2.86,9.13 3.00,8.91 3.20,8.75 3.41,8.59 3.65,8.51 3.90,8.42 4.16,8.42 4.42,8.42 4.66,8.50 4.91,8.58 5.12,8.73 5.33,8.89 5.47,9.10 5.62,9.32 5.69,9.57 5.77,9.81 5.75,10.07 5.74,10.33 5.65,10.57 5.55,10.82 5.39,11.02 5.22,11.22 5.00,11.35 4.78,11.49 4.53,11.54 4.28,11.60 4.02,11.58 3.76,11.55 3.52,11.45 3.29,11.34 3.10,11.16 2.91,10.99 2.78,10.76 2.66,10.53 2.61,10.27 2.57,10.02 2.61,9.76 2.65,9.51 2.77,9.27 2.89,9.04 3.07,8.86 3.26,8.68 3.50,8.57 3.73,8.46 3.99,8.43 4.25,8.40 4.24,8.40 4.24,8.40 5.34,7.33 6.43,6.26 7.57,4.88 8.71,3.51 10.45,1.00 12.19,-1.51 13.54,-3.26 14.89,-5.02 16.37,-6.96 17.84,-8.90 19.40,-10.56 20.96,-12.21 22.42,-13.81 23.88,-15.40 25.19,-16.77 26.50,-18.14 27.80,-19.53 29.10,-20.92 30.41,-22.34 31.72,-23.76 32.65,-24.43 33.58,-25.11 32.39,-25.15 31.20,-25.19 29.73,-25.19 28.26,-25.18 26.17,-24.94 24.07,-24.71 21.31,-24.28 18.55,-23.86 16.78,-23.61 15.00,-23.36 13.43,-23.31 11.85,-23.26 10.40,-23.22 8.96,-23.19 7.81,-23.19 6.66,-23.18 5.14,-23.94 3.63,-24.69 3.43,-23.36 3.23,-22.04 3.01,-20.58 2.79,-19.12 2.66,-17.64 2.53,-16.16 2.29,-14.81 2.06,-13.47 2.00,-11.75 1.93,-10.04 1.79,-8.57 1.64,-7.10 1.71,-5.57 1.78,-4.04 2.05,-2.14 2.32,-0.23 2.32,0.04 2.31,0.33 2.24,0.60 2.17,0.87 2.03,1.12 1.89,1.36 1.70,1.57 1.51,1.78 1.27,1.93 1.04,2.09 0.77,2.18 0.51,2.28 0.23,2.31 -0.04,2.33 -0.32,2.29 -0.60,2.25 -0.86,2.15 -1.13,2.04 -1.36,1.88 -1.58,1.71 -1.77,1.50 -1.95,1.28 -2.07,1.03 -2.20,0.78 -2.26,0.50 -2.32,0.23 -2.32,0.23 L -2.32,0.23 Z"/></g><g transform="translate(283.3333740234375 508.6666564941406) rotate(0 11.6666259765625 13.66668701171875)" stroke="none"><path fill="#000000" d="M 1.32,-1.62 Q 1.32,-1.62 3.36,0.18 5.41,1.98 8.14,4.09 10.87,6.20 12.96,7.68 15.05,9.17 16.77,10.63 18.49,12.09 19.97,13.23 21.45,14.36 22.81,15.14 24.17,15.92 25.17,16.39 26.17,16.85 27.13,17.48 28.09,18.11 29.21,19.78 30.33,21.45 29.55,23.17 28.78,24.90 27.07,25.92 25.37,26.93 23.27,27.83 21.16,28.74 19.89,28.96 18.62,29.19 17.49,29.43 16.37,29.67 15.11,29.96 13.86,30.24 12.80,30.55 11.74,30.86 10.27,31.04 8.80,31.22 7.42,31.27 6.03,31.33 4.68,31.35 3.32,31.36 1.94,31.18 0.57,30.99 -0.89,30.68 -2.37,30.38 -3.41,30.04 -4.45,29.70 -5.82,28.96 -7.18,28.22 -7.70,26.86 -8.22,25.51 -8.27,24.45 -8.31,23.38 -8.08,21.81 -7.84,20.25 -7.68,18.66 -7.52,17.08 -7.17,15.11 -6.82,13.14 -6.58,10.54 -6.34,7.93 -6.42,6.13 -6.50,4.33 -6.79,3.05 -7.07,1.77 -4.59,-0.24 -2.12,-2.27 -1.77,-2.20 -1.42,-2.13 -1.11,-1.95 -0.80,-1.77 -0.57,-1.51 -0.33,-1.24 -0.19,-0.91 -0.06,-0.59 -0.03,-0.23 -0.00,0.11 -0.09,0.46 -0.18,0.80 -0.37,1.10 -0.57,1.40 -0.85,1.62 -1.12,1.84 -1.46,1.96 -1.79,2.08 -2.15,2.09 -2.51,2.10 -2.84,1.99 -3.18,1.88 -3.47,1.67 -3.76,1.46 -3.96,1.17 -4.17,0.88 -4.27,0.54 -4.37,0.20 -4.36,-0.14 -4.35,-0.50 -4.23,-0.83 -4.10,-1.17 -3.88,-1.44 -3.65,-1.72 -3.35,-1.91 -3.05,-2.10 -2.70,-2.18 -2.36,-2.26 -2.00,-2.23 -1.65,-2.20 -1.32,-2.06 -1.00,-1.91 -0.73,-1.67 -0.47,-1.44 -0.30,-1.12 -0.12,-0.81 -0.06,-0.46 0.00,-0.11 -0.04,0.23 -0.10,0.58 -0.26,0.90 -0.42,1.22 -0.67,1.47 -0.92,1.72 -1.24,1.87 -1.56,2.03 -1.92,2.07 -2.27,2.12 -2.27,2.12 -2.27,2.12 -2.55,1.56 -2.83,1.00 -2.60,2.50 -2.37,4.00 -2.15,6.05 -1.93,8.09 -1.88,10.91 -1.83,13.74 -1.93,15.54 -2.03,17.33 -2.03,19.19 -2.02,21.04 -2.83,22.64 -3.63,24.24 -2.50,24.66 -1.36,25.07 0.93,25.48 3.23,25.89 4.51,25.85 5.79,25.82 8.01,25.67 10.23,25.52 11.41,25.19 12.59,24.86 13.90,24.54 15.21,24.22 17.33,23.86 19.45,23.50 21.18,22.85 22.91,22.19 24.66,22.25 26.41,22.30 25.34,21.22 24.27,20.13 23.31,19.47 22.36,18.81 20.92,17.83 19.49,16.85 18.01,15.66 16.53,14.47 14.88,13.16 13.24,11.85 11.02,10.42 8.81,8.99 5.91,6.95 3.02,4.91 0.84,3.26 -1.32,1.62 -1.50,1.43 -1.67,1.25 -1.80,1.03 -1.92,0.81 -1.99,0.57 -2.06,0.33 -2.07,0.08 -2.08,-0.17 -2.03,-0.41 -1.98,-0.66 -1.87,-0.89 -1.76,-1.12 -1.60,-1.31 -1.44,-1.51 -1.24,-1.66 -1.04,-1.81 -0.81,-1.91 -0.58,-2.01 -0.33,-2.05 -0.08,-2.09 0.16,-2.07 0.42,-2.05 0.66,-1.97 0.89,-1.89 1.11,-1.75 1.32,-1.62 1.32,-1.62 L 1.32,-1.62 Z"/></g><g transform="translate(693.3333740234375 524.0000305175781) rotate(0 22.66668701171875 -9.000030517578125)" stroke="none"><path fill="#000000" d="M -1.12,-1.49 Q -1.12,-1.49 0.42,-2.62 1.97,-3.75 3.31,-5.08 4.66,-6.41 6.29,-7.79 7.93,-9.18 9.60,-10.52 11.26,-11.86 12.94,-13.18 14.62,-14.50 16.85,-16.38 19.09,-18.27 20.60,-19.64 22.11,-21.01 23.37,-21.95 24.64,-22.89 25.42,-23.64 26.20,-24.39 27.16,-24.91 28.11,-25.42 30.00,-25.53 31.89,-25.65 33.57,-23.37 35.25,-21.09 35.87,-19.99 36.49,-18.90 37.03,-17.23 37.57,-15.55 38.12,-14.26 38.66,-12.97 39.27,-11.65 39.88,-10.34 40.53,-9.01 41.17,-7.68 41.70,-6.22 42.23,-4.77 42.87,-2.86 43.51,-0.96 44.18,0.06 44.85,1.09 45.85,2.57 46.84,4.06 46.46,5.85 46.08,7.65 45.19,8.28 44.31,8.91 43.22,9.08 42.14,9.25 40.13,9.35 38.13,9.46 36.71,9.26 35.30,9.06 33.96,8.76 32.62,8.46 31.29,8.14 29.96,7.81 27.64,6.90 25.32,6.00 23.63,5.46 21.94,4.92 20.60,4.53 19.25,4.15 18.09,3.82 16.94,3.50 15.86,3.19 14.78,2.88 13.14,3.05 11.51,3.22 10.80,4.57 10.10,5.92 9.74,6.24 9.39,6.56 8.95,6.74 8.51,6.93 8.03,6.97 7.56,7.01 7.10,6.89 6.63,6.77 6.23,6.52 5.83,6.26 5.54,5.88 5.24,5.51 5.07,5.06 4.91,4.62 4.90,4.14 4.89,3.66 5.03,3.21 5.17,2.75 5.45,2.37 5.73,1.98 6.12,1.70 6.51,1.43 6.96,1.29 7.42,1.15 7.89,1.16 8.37,1.18 8.82,1.34 9.26,1.51 9.64,1.81 10.01,2.11 10.26,2.51 10.52,2.91 10.63,3.38 10.74,3.84 10.70,4.31 10.66,4.79 10.47,5.23 10.29,5.66 9.97,6.02 9.65,6.37 9.23,6.61 8.81,6.84 8.35,6.93 7.88,7.02 7.41,6.95 6.93,6.88 6.51,6.67 6.08,6.46 5.74,6.12 5.41,5.78 5.20,5.35 4.99,4.93 4.92,4.45 4.86,3.98 4.95,3.51 5.04,3.04 5.28,2.63 5.52,2.22 5.52,2.22 5.52,2.22 6.76,0.75 8.00,-0.71 9.10,-1.40 10.21,-2.09 11.66,-2.32 13.11,-2.56 14.72,-2.21 16.33,-1.85 17.37,-1.47 18.40,-1.09 19.51,-0.70 20.62,-0.30 21.90,0.11 23.18,0.53 24.96,0.97 26.74,1.41 28.98,1.92 31.22,2.42 32.51,2.71 33.79,2.99 34.98,3.24 36.18,3.48 38.05,3.66 39.93,3.84 41.34,3.86 42.74,3.87 42.69,5.06 42.63,6.24 41.83,4.81 41.03,3.37 40.28,2.01 39.52,0.65 38.61,-1.26 37.70,-3.18 37.30,-4.40 36.89,-5.61 36.23,-6.97 35.57,-8.33 34.92,-9.73 34.28,-11.13 33.66,-12.62 33.04,-14.11 32.65,-15.37 32.26,-16.63 31.58,-17.94 30.90,-19.24 29.68,-20.36 28.45,-21.48 27.43,-20.80 26.40,-20.13 25.22,-19.50 24.04,-18.88 22.50,-17.47 20.97,-16.07 18.73,-14.13 16.50,-12.19 14.88,-10.82 13.26,-9.46 11.69,-8.09 10.11,-6.72 8.62,-5.35 7.14,-3.97 5.65,-2.41 4.16,-0.84 2.64,0.32 1.12,1.49 0.92,1.60 0.73,1.72 0.51,1.78 0.29,1.84 0.07,1.85 -0.15,1.86 -0.37,1.81 -0.59,1.77 -0.79,1.67 -1.00,1.57 -1.17,1.43 -1.35,1.29 -1.48,1.11 -1.62,0.93 -1.70,0.72 -1.79,0.51 -1.83,0.29 -1.86,0.07 -1.85,-0.15 -1.83,-0.37 -1.76,-0.58 -1.68,-0.80 -1.56,-0.99 -1.44,-1.18 -1.28,-1.34 -1.12,-1.49 -1.12,-1.49 L -1.12,-1.49 Z"/></g><g transform="translate(502.66668701171875 397.3333435058594) rotate(0 4 0.666656494140625)" stroke="none"><path fill="#000000" d="M 0.48,-2.43 Q 0.48,-2.43 1.45,-2.29 2.41,-2.14 5.16,-1.77 7.90,-1.40 8.32,-1.28 8.73,-1.15 9.09,-0.90 9.45,-0.64 9.70,-0.29 9.96,0.06 10.09,0.48 10.22,0.89 10.21,1.33 10.20,1.77 10.05,2.18 9.90,2.59 9.63,2.93 9.35,3.28 8.99,3.51 8.62,3.75 8.19,3.86 7.77,3.96 7.33,3.93 6.90,3.90 6.49,3.72 6.09,3.55 5.76,3.26 5.44,2.97 5.22,2.59 5.00,2.21 4.92,1.78 4.84,1.35 4.89,0.92 4.95,0.48 5.15,0.09 5.34,-0.29 5.65,-0.60 5.96,-0.91 6.35,-1.11 6.74,-1.31 7.17,-1.37 7.61,-1.43 8.04,-1.35 8.47,-1.26 8.85,-1.05 9.23,-0.84 9.52,-0.51 9.82,-0.19 9.99,0.21 10.16,0.61 10.20,1.04 10.24,1.48 10.13,1.90 10.03,2.33 9.79,2.70 9.56,3.07 9.22,3.34 8.88,3.62 8.47,3.77 8.06,3.92 7.62,3.94 7.18,3.95 7.18,3.95 7.18,3.95 5.42,3.56 3.65,3.18 2.53,3.04 1.41,2.90 0.46,2.67 -0.48,2.43 -0.77,2.34 -1.05,2.25 -1.31,2.09 -1.56,1.93 -1.77,1.71 -1.98,1.50 -2.13,1.24 -2.28,0.98 -2.36,0.69 -2.45,0.40 -2.46,0.10 -2.48,-0.19 -2.42,-0.48 -2.36,-0.77 -2.23,-1.05 -2.10,-1.32 -1.91,-1.55 -1.73,-1.78 -1.49,-1.96 -1.25,-2.14 -0.97,-2.26 -0.70,-2.38 -0.40,-2.43 -0.10,-2.48 0.18,-2.46 0.48,-2.43 0.48,-2.43 L 0.48,-2.43 Z"/></g><g transform="translate(498 437.3333435058594) rotate(0 6 1)" stroke="none"><path fill="#000000" d="M 0.50,-2.52 Q 0.50,-2.52 1.46,-2.37 2.43,-2.21 4.33,-1.94 6.23,-1.67 8.94,-1.29 11.65,-0.92 12.10,-0.81 12.56,-0.71 12.96,-0.46 13.36,-0.22 13.66,0.13 13.96,0.49 14.13,0.93 14.30,1.36 14.32,1.83 14.34,2.30 14.21,2.75 14.09,3.20 13.82,3.58 13.55,3.97 13.18,4.25 12.80,4.53 12.36,4.68 11.91,4.82 11.45,4.82 10.98,4.82 10.53,4.66 10.09,4.51 9.72,4.22 9.35,3.94 9.09,3.55 8.83,3.16 8.71,2.71 8.59,2.25 8.62,1.79 8.64,1.32 8.82,0.88 9.00,0.45 9.30,0.10 9.61,-0.25 10.01,-0.49 10.42,-0.73 10.87,-0.82 11.33,-0.92 11.80,-0.87 12.26,-0.81 12.69,-0.61 13.11,-0.41 13.45,-0.09 13.79,0.23 14.00,0.64 14.22,1.06 14.29,1.52 14.36,1.99 14.28,2.45 14.20,2.91 13.98,3.32 13.76,3.73 13.42,4.05 13.07,4.37 12.65,4.57 12.22,4.76 11.75,4.81 11.29,4.85 11.29,4.85 11.29,4.85 8.59,4.54 5.90,4.22 4.77,3.73 3.64,3.24 2.52,3.11 1.39,2.98 0.44,2.75 -0.50,2.52 -0.80,2.42 -1.09,2.33 -1.35,2.16 -1.62,2.00 -1.83,1.77 -2.05,1.55 -2.20,1.28 -2.36,1.01 -2.45,0.72 -2.54,0.42 -2.55,0.11 -2.56,-0.19 -2.50,-0.50 -2.44,-0.80 -2.31,-1.08 -2.18,-1.36 -1.98,-1.60 -1.79,-1.85 -1.54,-2.03 -1.29,-2.22 -1.01,-2.34 -0.72,-2.47 -0.42,-2.52 -0.11,-2.57 0.19,-2.54 0.50,-2.52 0.50,-2.52 L 0.50,-2.52 Z"/></g><g transform="translate(292.66668701171875 408.6666564941406) rotate(0 203.66665649414062 29.3333740234375)" stroke="none"><path fill="#000000" d="M -0.97,-1.30 Q -0.97,-1.30 0.55,-2.45 2.08,-3.61 3.48,-4.70 4.87,-5.79 6.43,-6.98 7.99,-8.18 9.60,-9.58 11.20,-10.98 14.22,-13.69 17.23,-16.39 19.87,-18.69 22.50,-21.00 24.97,-23.12 27.44,-25.24 30.05,-27.31 32.66,-29.37 35.09,-31.38 37.52,-33.39 40.11,-35.40 42.70,-37.42 45.54,-39.44 48.39,-41.46 52.85,-44.61 57.31,-47.76 60.90,-50.61 64.49,-53.45 67.94,-56.21 71.40,-58.96 74.97,-61.85 78.54,-64.74 82.17,-67.69 85.80,-70.65 89.23,-73.80 92.66,-76.94 96.06,-79.84 99.47,-82.74 102.82,-85.68 106.17,-88.62 109.13,-91.22 112.09,-93.81 114.67,-96.24 117.25,-98.67 121.29,-101.68 125.33,-104.68 128.18,-106.71 131.03,-108.74 133.19,-110.36 135.34,-111.97 137.21,-113.43 139.08,-114.88 140.63,-116.10 142.18,-117.33 143.62,-118.32 145.07,-119.32 146.37,-120.30 147.68,-121.28 148.89,-122.02 150.10,-122.75 151.25,-123.57 152.40,-124.40 153.60,-125.58 154.81,-126.77 156.41,-127.99 158.01,-129.20 158.94,-129.86 159.86,-130.51 160.82,-131.19 161.78,-131.86 163.59,-133.11 165.39,-134.37 166.92,-135.50 168.44,-136.63 170.45,-136.83 172.47,-137.03 173.75,-136.79 175.03,-136.54 177.26,-135.68 179.50,-134.81 180.78,-134.16 182.06,-133.50 183.47,-132.83 184.88,-132.15 186.42,-131.43 187.97,-130.71 191.45,-129.13 194.93,-127.55 197.91,-126.26 200.90,-124.96 203.86,-123.80 206.82,-122.65 209.66,-121.34 212.51,-120.02 215.62,-118.49 218.74,-116.95 221.94,-115.53 225.14,-114.12 228.44,-112.53 231.75,-110.94 234.86,-109.50 237.97,-108.06 243.14,-105.52 248.31,-102.97 252.24,-100.93 256.17,-98.88 259.36,-97.24 262.55,-95.61 265.64,-93.95 268.74,-92.29 271.57,-90.82 274.40,-89.35 277.14,-87.96 279.88,-86.57 282.36,-85.41 284.85,-84.25 287.46,-82.98 290.06,-81.72 292.53,-80.40 295.00,-79.09 297.35,-77.97 299.71,-76.85 303.21,-75.23 306.70,-73.60 309.53,-72.33 312.35,-71.07 315.06,-69.96 317.78,-68.86 320.29,-67.81 322.80,-66.76 325.38,-65.74 327.97,-64.73 330.60,-63.72 333.23,-62.71 335.88,-61.71 338.54,-60.71 342.39,-58.92 346.25,-57.13 350.13,-55.63 354.01,-54.13 356.85,-52.90 359.69,-51.67 361.84,-50.77 363.98,-49.87 365.71,-49.15 367.43,-48.43 368.96,-47.79 370.49,-47.14 371.69,-46.76 372.89,-46.37 374.23,-45.83 375.58,-45.28 376.68,-44.93 377.77,-44.57 380.14,-43.73 382.51,-42.88 383.86,-42.24 385.22,-41.60 386.40,-40.96 387.58,-40.31 388.57,-39.61 389.57,-38.91 391.12,-38.24 392.68,-37.58 394.35,-36.61 396.01,-35.64 397.34,-34.62 398.67,-33.60 399.84,-32.79 401.02,-31.98 402.10,-31.27 403.18,-30.55 404.22,-29.87 405.26,-29.19 406.72,-28.15 408.18,-27.10 408.72,-25.95 409.25,-24.80 409.02,-23.68 408.78,-22.55 407.79,-21.53 406.81,-20.52 406.03,-19.79 405.26,-19.05 404.16,-17.92 403.06,-16.79 401.46,-15.35 399.86,-13.91 398.22,-12.24 396.58,-10.58 394.15,-7.46 391.73,-4.34 389.71,-1.50 387.69,1.33 385.63,3.92 383.56,6.51 381.73,8.91 379.90,11.31 377.75,13.89 375.59,16.47 373.33,19.09 371.06,21.71 368.79,24.88 366.53,28.04 364.01,31.52 361.49,34.99 358.89,38.75 356.29,42.51 353.45,46.43 350.60,50.34 347.68,54.49 344.75,58.63 340.05,65.37 335.36,72.11 331.64,77.47 327.92,82.83 324.61,87.60 321.30,92.36 318.36,96.51 315.41,100.65 312.83,104.50 310.25,108.35 308.02,112.07 305.78,115.79 303.68,119.30 301.57,122.82 298.38,128.14 295.18,133.47 292.87,137.45 290.56,141.43 288.40,144.69 286.25,147.95 284.18,150.87 282.11,153.79 280.06,156.40 278.02,159.00 275.98,161.28 273.95,163.55 271.93,165.67 269.91,167.79 268.07,169.48 266.23,171.17 263.96,173.57 261.69,175.97 259.96,177.94 258.23,179.92 256.94,181.52 255.64,183.12 254.56,184.60 253.48,186.07 252.72,187.44 251.97,188.80 251.28,190.02 250.60,191.25 249.84,192.15 249.08,193.06 247.48,194.02 245.89,194.98 244.15,193.83 242.41,192.69 240.83,190.53 239.26,188.37 239.08,188.00 238.90,187.64 238.86,187.23 238.81,186.83 238.89,186.43 238.97,186.03 239.18,185.68 239.38,185.33 239.69,185.07 239.99,184.80 240.37,184.64 240.74,184.49 241.15,184.46 241.56,184.43 241.95,184.54 242.34,184.64 242.68,184.86 243.02,185.09 243.27,185.41 243.52,185.73 243.65,186.11 243.79,186.50 243.79,186.90 243.80,187.31 243.68,187.70 243.55,188.08 243.31,188.41 243.07,188.74 242.73,188.97 242.40,189.20 242.01,189.31 241.62,189.43 241.21,189.41 240.81,189.39 240.43,189.25 240.05,189.10 239.74,188.84 239.42,188.58 239.21,188.24 238.99,187.89 238.90,187.50 238.81,187.10 238.85,186.70 238.89,186.29 239.05,185.92 239.22,185.55 239.50,185.25 239.77,184.95 240.13,184.76 240.48,184.56 240.88,184.49 241.28,184.42 241.69,184.48 242.09,184.54 242.45,184.73 242.81,184.92 243.09,185.21 243.38,185.50 243.38,185.50 243.38,185.50 244.31,188.29 245.25,191.08 246.43,190.19 247.61,189.30 248.43,188.20 249.25,187.10 250.22,185.69 251.20,184.29 252.39,182.86 253.57,181.43 254.91,179.81 256.25,178.19 258.02,176.18 259.78,174.16 262.11,171.70 264.45,169.24 266.23,167.61 268.01,165.98 270.00,163.89 271.99,161.80 273.97,159.59 275.95,157.37 277.96,154.82 279.96,152.27 282.01,149.39 284.05,146.50 286.17,143.30 288.28,140.11 290.60,136.11 292.92,132.11 296.12,126.79 299.31,121.46 301.42,117.95 303.53,114.44 305.79,110.66 308.06,106.88 310.66,103.00 313.26,99.12 316.20,94.99 319.13,90.86 322.43,86.09 325.74,81.32 329.46,75.95 333.17,70.59 337.87,63.84 342.56,57.09 345.49,52.93 348.42,48.76 351.24,44.87 354.05,40.97 356.65,37.18 359.25,33.38 361.75,29.90 364.24,26.42 366.56,23.13 368.88,19.85 371.09,17.22 373.30,14.59 375.36,12.03 377.42,9.47 379.20,7.00 380.98,4.52 382.89,1.95 384.80,-0.62 386.73,-3.61 388.66,-6.60 391.03,-9.99 393.39,-13.37 394.88,-15.29 396.38,-17.22 397.65,-18.80 398.93,-20.37 400.08,-21.84 401.24,-23.30 402.16,-24.17 403.07,-25.04 403.81,-24.22 404.55,-23.40 403.45,-24.12 402.34,-24.84 401.32,-25.55 400.29,-26.25 399.21,-26.99 398.13,-27.72 396.93,-28.53 395.72,-29.33 393.72,-30.72 391.72,-32.11 390.26,-32.94 388.81,-33.76 386.99,-35.01 385.18,-36.26 384.17,-36.90 383.17,-37.54 382.09,-38.13 381.00,-38.72 378.63,-39.72 376.25,-40.73 375.10,-41.26 373.96,-41.80 372.75,-42.44 371.54,-43.07 370.33,-43.68 369.12,-44.28 367.68,-45.05 366.25,-45.83 364.61,-46.64 362.97,-47.45 360.81,-48.36 358.64,-49.26 355.85,-50.47 353.06,-51.68 349.10,-53.22 345.14,-54.75 341.37,-56.50 337.61,-58.25 334.95,-59.25 332.29,-60.26 329.65,-61.27 327.01,-62.28 324.40,-63.31 321.78,-64.33 319.29,-65.38 316.79,-66.42 314.03,-67.55 311.27,-68.67 308.43,-69.94 305.59,-71.21 302.09,-72.84 298.58,-74.47 296.17,-75.62 293.76,-76.76 291.33,-78.05 288.91,-79.34 286.32,-80.59 283.73,-81.85 281.20,-83.03 278.67,-84.20 275.93,-85.59 273.18,-86.98 270.32,-88.45 267.47,-89.92 264.39,-91.56 261.32,-93.20 258.11,-94.82 254.91,-96.45 251.00,-98.46 247.09,-100.47 241.94,-102.98 236.79,-105.48 233.65,-106.89 230.50,-108.30 227.22,-109.82 223.94,-111.33 220.66,-112.71 217.38,-114.08 214.27,-115.50 211.16,-116.92 208.37,-118.06 205.58,-119.19 202.51,-120.19 199.43,-121.19 196.33,-122.26 193.23,-123.33 189.61,-124.61 185.98,-125.88 184.34,-126.47 182.70,-127.06 181.13,-127.66 179.56,-128.25 178.33,-128.80 177.10,-129.34 175.24,-130.04 173.38,-130.75 171.83,-131.07 170.27,-131.39 168.38,-130.18 166.50,-128.97 165.58,-128.26 164.66,-127.55 163.67,-126.92 162.68,-126.29 161.72,-125.69 160.76,-125.08 159.28,-124.24 157.80,-123.40 156.17,-122.27 154.54,-121.14 153.16,-120.31 151.79,-119.48 150.68,-119.01 149.57,-118.55 148.13,-117.63 146.69,-116.70 145.27,-115.92 143.85,-115.13 142.27,-113.97 140.69,-112.80 138.80,-111.34 136.92,-109.87 134.74,-108.24 132.56,-106.60 129.73,-104.59 126.90,-102.57 122.97,-99.66 119.05,-96.76 116.44,-94.30 113.82,-91.84 110.86,-89.24 107.90,-86.65 104.54,-83.69 101.18,-80.73 97.81,-77.87 94.44,-75.00 90.95,-71.80 87.46,-68.60 83.84,-65.65 80.21,-62.69 76.63,-59.79 73.05,-56.89 69.59,-54.13 66.14,-51.37 62.49,-48.48 58.85,-45.58 54.39,-42.43 49.94,-39.27 47.15,-37.28 44.36,-35.29 41.82,-33.29 39.27,-31.29 36.83,-29.25 34.39,-27.21 31.84,-25.16 29.30,-23.11 26.86,-20.97 24.43,-18.82 21.84,-16.50 19.26,-14.17 16.29,-11.41 13.32,-8.65 11.69,-7.10 10.05,-5.54 8.49,-4.30 6.92,-3.06 5.48,-2.02 4.05,-0.98 2.51,0.15 0.97,1.30 0.80,1.40 0.63,1.49 0.44,1.55 0.25,1.60 0.06,1.61 -0.13,1.62 -0.32,1.58 -0.51,1.54 -0.69,1.45 -0.87,1.37 -1.02,1.25 -1.17,1.12 -1.29,0.96 -1.41,0.81 -1.48,0.63 -1.56,0.45 -1.59,0.25 -1.62,0.06 -1.61,-0.13 -1.59,-0.32 -1.53,-0.51 -1.47,-0.69 -1.36,-0.86 -1.26,-1.03 -1.11,-1.16 -0.97,-1.30 -0.97,-1.30 L -0.97,-1.30 Z"/></g><g transform="translate(290.66668701171875 414.6666564941406) rotate(0 126.66665649414062 83.66668701171875)" stroke="none"><path fill="#000000" d="M 1.81,-0.80 Q 1.81,-0.80 2.55,0.92 3.29,2.66 4.00,3.88 4.72,5.10 5.44,6.41 6.16,7.73 7.36,9.08 8.57,10.43 9.96,11.34 11.36,12.25 12.76,13.01 14.16,13.78 15.66,14.47 17.16,15.16 18.67,15.60 20.17,16.04 22.09,16.92 24.00,17.79 26.10,18.77 28.19,19.75 32.00,21.74 35.80,23.73 38.95,25.56 42.10,27.38 45.32,29.11 48.54,30.83 51.67,32.75 54.81,34.67 57.83,36.43 60.86,38.19 64.07,40.10 67.28,42.01 70.53,43.77 73.79,45.53 77.29,47.43 80.79,49.34 86.30,52.25 91.80,55.17 96.07,57.57 100.35,59.97 104.26,62.14 108.18,64.30 111.79,66.58 115.41,68.87 119.06,71.38 122.71,73.89 126.37,76.49 130.03,79.09 133.67,81.52 137.32,83.95 140.79,86.34 144.27,88.72 147.65,90.87 151.02,93.02 154.02,95.11 157.01,97.19 161.34,100.18 165.67,103.16 169.04,105.38 172.40,107.60 175.18,109.52 177.97,111.43 180.32,113.22 182.68,115.00 184.80,116.51 186.92,118.01 188.81,119.44 190.69,120.86 192.45,122.23 194.21,123.61 195.89,124.72 197.57,125.84 199.10,126.87 200.64,127.90 202.73,129.09 204.82,130.29 206.55,131.39 208.29,132.50 209.56,133.03 210.83,133.56 212.05,134.17 213.26,134.77 214.38,135.39 215.50,136.00 216.47,136.67 217.44,137.34 218.36,137.92 219.27,138.51 220.25,139.12 221.23,139.74 222.23,140.37 223.23,141.00 224.24,141.63 225.25,142.27 226.89,143.40 228.53,144.53 229.88,145.37 231.22,146.21 232.71,147.16 234.21,148.11 235.58,148.86 236.95,149.61 238.52,150.56 240.08,151.51 241.56,152.51 243.04,153.51 244.44,154.52 245.84,155.52 247.26,156.78 248.67,158.05 249.89,158.84 251.12,159.62 252.00,160.87 252.88,162.12 253.58,163.11 254.27,164.09 252.20,164.83 250.12,165.58 250.10,165.14 250.08,164.71 250.19,164.30 250.31,163.88 250.55,163.52 250.80,163.16 251.14,162.90 251.49,162.64 251.90,162.50 252.31,162.37 252.74,162.37 253.18,162.37 253.59,162.51 254.00,162.65 254.34,162.91 254.69,163.17 254.93,163.53 255.17,163.89 255.28,164.31 255.40,164.73 255.37,165.16 255.35,165.59 255.19,165.99 255.03,166.39 254.75,166.72 254.46,167.05 254.09,167.28 253.72,167.50 253.30,167.59 252.87,167.68 252.44,167.63 252.01,167.59 251.62,167.40 251.23,167.22 250.92,166.92 250.60,166.62 250.40,166.24 250.20,165.86 250.13,165.43 250.06,165.00 250.13,164.57 250.20,164.15 250.41,163.76 250.61,163.38 250.93,163.09 251.24,162.79 251.63,162.61 252.03,162.43 252.46,162.38 252.89,162.34 253.31,162.43 253.73,162.52 254.11,162.75 254.48,162.97 254.76,163.30 255.03,163.64 255.19,164.04 255.35,164.44 255.35,164.44 255.35,164.44 252.49,165.50 249.63,166.55 249.15,165.02 248.68,163.49 247.33,162.30 245.99,161.11 244.71,160.00 243.42,158.90 242.07,157.93 240.72,156.97 239.34,156.06 237.97,155.14 236.41,154.28 234.86,153.41 233.41,152.61 231.95,151.80 230.40,150.90 228.85,150.00 227.55,149.18 226.25,148.36 224.36,147.39 222.47,146.41 221.49,145.72 220.51,145.02 219.54,144.32 218.56,143.62 217.60,142.90 216.64,142.18 215.01,140.77 213.38,139.36 212.39,138.64 211.41,137.92 210.37,137.21 209.34,136.49 208.03,135.71 206.71,134.93 205.07,133.84 203.43,132.76 201.19,131.52 198.94,130.27 197.50,129.17 196.06,128.07 194.33,126.87 192.60,125.68 190.85,124.32 189.11,122.96 187.26,121.56 185.40,120.16 183.25,118.63 181.09,117.09 178.79,115.34 176.48,113.60 173.72,111.70 170.95,109.80 167.56,107.56 164.18,105.33 159.85,102.34 155.51,99.35 152.56,97.30 149.61,95.24 146.20,93.07 142.78,90.89 139.32,88.52 135.85,86.14 132.18,83.69 128.50,81.24 124.86,78.65 121.21,76.06 117.60,73.58 113.99,71.10 110.44,68.86 106.89,66.62 102.97,64.45 99.05,62.29 94.80,59.91 90.55,57.53 85.03,54.62 79.51,51.70 76.01,49.81 72.50,47.91 69.19,46.14 65.88,44.37 62.67,42.49 59.46,40.61 56.40,38.85 53.33,37.10 50.25,35.27 47.17,33.43 43.89,31.73 40.61,30.03 37.48,28.31 34.35,26.58 30.60,24.73 26.85,22.89 24.70,22.04 22.54,21.20 20.78,20.50 19.01,19.79 17.27,19.23 15.53,18.67 13.89,17.89 12.25,17.12 10.79,16.24 9.32,15.37 7.57,14.21 5.83,13.06 4.15,11.37 2.47,9.69 1.82,8.35 1.17,7.02 0.47,5.63 -0.22,4.23 -1.02,2.52 -1.81,0.80 -1.88,0.57 -1.95,0.34 -1.97,0.10 -1.98,-0.12 -1.93,-0.36 -1.89,-0.60 -1.79,-0.81 -1.69,-1.03 -1.54,-1.22 -1.39,-1.41 -1.20,-1.55 -1.02,-1.70 -0.80,-1.80 -0.58,-1.90 -0.34,-1.94 -0.11,-1.98 0.12,-1.96 0.36,-1.95 0.59,-1.88 0.82,-1.80 1.02,-1.68 1.23,-1.55 1.40,-1.38 1.57,-1.21 1.69,-1.01 1.81,-0.80 1.81,-0.80 L 1.81,-0.80 Z"/></g><g transform="translate(496 441.3333435058594) rotate(0 8.000030517578125 -3.33331298828125)" stroke="none"><path fill="#000000" d="M -2.50,-0.50 Q -2.50,-0.50 -2.34,-1.47 -2.19,-2.45 -1.63,-3.75 -1.08,-5.06 0.35,-6.55 1.78,-8.04 2.87,-9.11 3.96,-10.18 4.90,-10.96 5.83,-11.75 6.80,-12.46 7.76,-13.17 9.35,-14.18 10.94,-15.19 13.04,-15.33 15.13,-15.47 16.11,-14.66 17.08,-13.84 17.65,-12.76 18.22,-11.68 18.57,-9.68 18.91,-7.68 19.07,-6.27 19.22,-4.87 19.30,-3.67 19.38,-2.47 19.42,-1.37 19.46,-0.27 19.26,0.91 19.06,2.10 18.43,3.30 17.80,4.49 16.94,5.35 16.07,6.21 14.39,6.86 12.71,7.51 11.63,7.75 10.55,7.99 8.52,7.90 6.49,7.81 4.79,6.12 3.09,4.42 2.78,2.88 2.48,1.34 2.40,0.19 2.33,-0.95 2.32,-2.22 2.31,-3.50 2.52,-4.73 2.72,-5.97 3.30,-7.27 3.88,-8.58 4.45,-9.84 5.02,-11.10 6.67,-12.04 8.31,-12.99 9.59,-12.82 10.86,-12.66 12.60,-10.94 14.35,-9.22 14.79,-7.88 15.23,-6.55 15.26,-4.18 15.30,-1.81 15.33,-0.34 15.36,1.12 15.19,2.55 15.02,3.98 14.18,5.96 13.35,7.95 12.17,8.56 10.99,9.17 9.65,9.14 8.31,9.10 7.11,8.47 5.91,7.83 4.93,6.79 3.96,5.75 3.15,3.62 2.35,1.49 2.01,-0.00 1.68,-1.50 1.48,-3.61 1.29,-5.72 1.83,-6.98 2.36,-8.24 4.29,-9.47 6.21,-10.70 7.32,-10.82 8.43,-10.94 10.92,-10.77 13.41,-10.60 14.46,-10.23 15.52,-9.86 16.57,-8.96 17.61,-8.06 18.17,-6.63 18.73,-5.21 18.67,-3.76 18.61,-2.31 18.00,-0.02 17.39,2.27 16.20,3.64 15.00,5.02 13.73,5.93 12.45,6.84 9.91,7.29 7.38,7.74 6.15,7.08 4.92,6.42 4.11,5.66 3.31,4.89 2.67,3.24 2.03,1.60 1.88,0.37 1.73,-0.84 1.68,-1.95 1.62,-3.06 1.85,-4.32 2.07,-5.57 2.80,-6.64 3.53,-7.70 4.96,-8.30 6.39,-8.91 7.80,-8.79 9.22,-8.68 11.16,-7.63 13.10,-6.58 13.84,-5.71 14.58,-4.84 15.14,-3.71 15.71,-2.58 15.99,-1.48 16.28,-0.39 16.13,1.13 15.99,2.66 15.20,3.97 14.40,5.28 13.26,5.98 12.13,6.67 9.62,7.02 7.12,7.36 5.91,7.10 4.70,6.83 3.58,6.48 2.46,6.14 1.30,5.35 0.15,4.56 -0.55,3.69 -1.27,2.83 -1.84,1.63 -2.41,0.42 -1.97,-1.78 -1.52,-3.99 1.04,-1.62 3.61,0.75 3.21,1.07 2.80,1.39 2.32,1.57 1.83,1.74 1.32,1.75 0.80,1.77 0.31,1.61 -0.17,1.46 -0.59,1.16 -1.01,0.85 -1.30,0.43 -1.60,0.01 -1.75,-0.47 -1.90,-0.96 -1.88,-1.48 -1.87,-1.99 -1.69,-2.48 -1.51,-2.96 -1.18,-3.36 -0.86,-3.76 -0.42,-4.04 0.00,-4.31 0.50,-4.43 1.01,-4.55 1.52,-4.51 2.03,-4.47 2.50,-4.26 2.98,-4.05 3.36,-3.71 3.74,-3.36 3.99,-2.91 4.24,-2.46 4.34,-1.95 4.43,-1.45 4.36,-0.94 4.29,-0.43 4.06,0.02 3.83,0.48 3.46,0.85 3.09,1.21 2.63,1.43 2.17,1.66 1.66,1.73 1.15,1.80 0.64,1.70 0.13,1.60 -0.30,1.34 -0.75,1.08 -1.09,0.70 -1.43,0.31 -1.64,-0.15 -1.84,-0.63 -1.88,-1.14 -1.92,-1.65 -1.79,-2.15 -1.66,-2.65 -1.38,-3.08 -1.10,-3.52 -1.10,-3.52 -1.10,-3.52 1.22,-2.74 3.55,-1.97 4.00,-0.97 4.45,0.03 6.02,0.43 7.60,0.82 8.75,0.85 9.90,0.88 9.48,-0.31 9.06,-1.52 8.57,-2.77 8.08,-4.03 8.00,-2.77 7.92,-1.52 8.20,0.29 8.48,2.11 9.45,1.58 10.42,1.05 11.35,0.01 12.28,-1.01 12.37,-2.80 12.46,-4.59 10.70,-4.70 8.95,-4.82 7.90,-5.06 6.85,-5.30 7.00,-4.00 7.14,-2.70 7.37,-1.64 7.60,-0.58 8.12,0.61 8.65,1.81 9.00,3.11 9.36,4.41 9.57,2.88 9.77,1.35 9.68,-0.01 9.59,-1.38 9.50,-3.65 9.41,-5.92 8.92,-4.76 8.43,-3.61 8.48,-2.48 8.52,-1.35 8.97,0.40 9.42,2.16 10.86,1.89 12.30,1.63 13.05,0.73 13.79,-0.16 13.73,-2.21 13.68,-4.25 13.54,-5.41 13.41,-6.56 13.51,-8.44 13.60,-10.31 12.21,-9.59 10.81,-8.87 9.18,-7.75 7.54,-6.62 6.50,-5.54 5.46,-4.45 4.20,-2.91 2.95,-1.38 2.73,-0.44 2.50,0.50 2.40,0.79 2.31,1.08 2.14,1.34 1.98,1.60 1.76,1.82 1.54,2.03 1.27,2.19 1.01,2.34 0.71,2.43 0.41,2.52 0.11,2.53 -0.19,2.54 -0.49,2.48 -0.79,2.42 -1.07,2.29 -1.35,2.16 -1.59,1.97 -1.83,1.77 -2.02,1.53 -2.20,1.28 -2.33,1.00 -2.45,0.72 -2.50,0.41 -2.55,0.11 -2.52,-0.19 -2.50,-0.50 -2.50,-0.50 L -2.50,-0.50 Z"/></g><g transform="translate(532 430.0000305175781) rotate(0 7.333343505859375 -1.000030517578125)" stroke="none"><path fill="#000000" d="M -2.61,-0.43 Q -2.61,-0.43 -2.43,-1.59 -2.26,-2.74 -1.71,-4.26 -1.17,-5.77 -0.41,-6.87 0.34,-7.98 1.17,-8.72 1.99,-9.45 3.86,-10.35 5.73,-11.24 6.98,-11.17 8.24,-11.09 9.51,-10.52 10.79,-9.95 11.74,-9.10 12.70,-8.26 13.38,-7.11 14.07,-5.95 14.63,-4.26 15.20,-2.56 15.63,-1.32 16.05,-0.08 16.52,2.12 16.99,4.32 16.42,6.02 15.85,7.73 13.95,8.63 12.04,9.54 10.81,9.41 9.58,9.29 7.54,9.00 5.51,8.71 2.78,6.43 0.06,4.14 -0.17,3.77 -0.41,3.40 -0.52,2.97 -0.62,2.54 -0.59,2.10 -0.55,1.66 -0.38,1.26 -0.20,0.85 0.08,0.52 0.37,0.20 0.76,-0.01 1.14,-0.23 1.58,-0.31 2.01,-0.40 2.45,-0.34 2.88,-0.28 3.28,-0.08 3.68,0.10 3.99,0.41 4.30,0.72 4.50,1.12 4.69,1.52 4.75,1.95 4.81,2.39 4.73,2.82 4.65,3.26 4.43,3.64 4.22,4.03 3.89,4.32 3.56,4.62 3.15,4.79 2.75,4.97 2.31,5.00 1.87,5.04 1.44,4.93 1.01,4.83 0.64,4.59 0.27,4.35 -0.00,4.01 -0.28,3.67 -0.43,3.25 -0.58,2.84 -0.60,2.40 -0.61,1.95 -0.48,1.53 -0.35,1.11 -0.09,0.75 0.15,0.39 0.51,0.13 0.87,-0.11 1.29,-0.24 1.71,-0.37 2.16,-0.36 2.60,-0.35 3.01,-0.20 3.43,-0.05 3.77,0.22 4.12,0.50 4.12,0.50 4.11,0.49 4.96,1.53 5.81,2.57 7.10,2.76 8.38,2.95 9.74,3.51 11.10,4.07 10.88,2.95 10.66,1.83 10.22,0.65 9.79,-0.52 9.05,-2.30 8.32,-4.07 7.41,-4.84 6.51,-5.61 5.15,-4.73 3.79,-3.84 3.41,-2.84 3.02,-1.85 2.82,-0.70 2.61,0.43 2.52,0.74 2.43,1.04 2.27,1.32 2.11,1.60 1.88,1.82 1.66,2.05 1.39,2.22 1.12,2.39 0.82,2.49 0.51,2.59 0.20,2.62 -0.11,2.64 -0.43,2.59 -0.74,2.54 -1.04,2.41 -1.33,2.28 -1.58,2.09 -1.84,1.90 -2.04,1.65 -2.24,1.40 -2.38,1.11 -2.51,0.82 -2.57,0.51 -2.64,0.20 -2.62,-0.11 -2.61,-0.43 -2.61,-0.43 L -2.61,-0.43 Z"/></g><g transform="translate(531.3333740234375 430.6666564941406) rotate(0 2.33331298828125 16)" stroke="none"><path fill="#000000" d="M 2.14,-0.26 Q 2.14,-0.26 2.34,1.26 2.55,2.79 2.83,4.13 3.12,5.48 3.32,8.29 3.52,11.10 3.57,13.26 3.62,15.43 3.67,17.31 3.72,19.20 3.95,20.86 4.17,22.52 4.49,23.96 4.81,25.41 5.18,26.54 5.54,27.68 3.94,28.29 2.34,28.90 2.43,28.54 2.51,28.17 2.71,27.86 2.91,27.54 3.19,27.31 3.48,27.07 3.83,26.94 4.18,26.81 4.55,26.79 4.92,26.78 5.28,26.89 5.63,26.99 5.94,27.20 6.24,27.42 6.46,27.72 6.68,28.02 6.79,28.37 6.91,28.73 6.90,29.10 6.89,29.47 6.77,29.82 6.65,30.17 6.42,30.46 6.19,30.75 5.87,30.96 5.56,31.16 5.20,31.25 4.84,31.35 4.47,31.32 4.10,31.30 3.76,31.15 3.42,31.01 3.14,30.76 2.86,30.52 2.67,30.20 2.49,29.88 2.41,29.51 2.34,29.15 2.38,28.78 2.43,28.41 2.59,28.07 2.75,27.74 3.01,27.47 3.27,27.21 3.60,27.04 3.94,26.87 4.30,26.82 4.67,26.76 5.04,26.83 5.40,26.90 5.73,27.08 6.05,27.25 6.31,27.53 6.56,27.80 6.71,28.14 6.86,28.48 6.89,28.85 6.93,29.22 6.93,29.22 6.93,29.22 4.22,28.97 1.52,28.71 1.26,27.42 1.01,26.12 0.76,24.55 0.52,22.97 0.31,21.14 0.10,19.31 0.05,17.48 -0.00,15.65 -0.22,13.60 -0.43,11.55 -0.85,8.93 -1.26,6.32 -1.52,4.83 -1.78,3.33 -1.96,1.80 -2.14,0.26 -2.14,0.00 -2.14,-0.25 -2.08,-0.50 -2.02,-0.75 -1.90,-0.98 -1.78,-1.21 -1.60,-1.41 -1.43,-1.61 -1.22,-1.75 -1.00,-1.90 -0.76,-2.00 -0.52,-2.09 -0.26,-2.12 -0.00,-2.15 0.25,-2.12 0.50,-2.09 0.75,-2.00 0.99,-1.91 1.21,-1.76 1.42,-1.62 1.59,-1.42 1.77,-1.23 1.89,-1.00 2.01,-0.77 2.07,-0.51 2.14,-0.26 2.14,-0.26 L 2.14,-0.26 Z"/></g><g transform="translate(481.3333740234375 127.33334350585938) rotate(0 16 -8)" stroke="none"><path fill="#000000" d="M -1.84,-1.00 Q -1.84,-1.00 -0.60,-3.06 0.63,-5.12 2.37,-7.75 4.10,-10.37 5.20,-12.36 6.29,-14.35 7.37,-16.19 8.45,-18.03 9.22,-19.59 10.00,-21.14 10.92,-22.65 11.84,-24.17 12.59,-25.27 13.35,-26.38 14.06,-27.30 14.77,-28.22 15.81,-28.86 16.84,-29.51 18.11,-29.46 19.37,-29.42 21.02,-27.50 22.67,-25.59 23.73,-23.39 24.79,-21.20 25.60,-18.87 26.41,-16.53 27.11,-13.99 27.81,-11.45 28.47,-9.04 29.12,-6.63 29.77,-4.47 30.41,-2.31 30.95,-0.62 31.49,1.06 31.96,2.08 32.44,3.09 32.74,4.33 33.03,5.58 32.51,6.55 31.99,7.52 30.59,8.05 29.19,8.59 27.27,8.66 25.35,8.74 23.23,8.67 21.11,8.60 18.95,8.71 16.79,8.83 14.45,8.85 12.11,8.87 10.36,8.95 8.60,9.02 7.05,9.23 5.50,9.44 4.75,10.85 4.00,12.26 3.83,12.52 3.66,12.78 3.41,12.97 3.16,13.16 2.86,13.26 2.57,13.37 2.25,13.37 1.94,13.37 1.64,13.27 1.35,13.17 1.09,12.99 0.84,12.80 0.67,12.54 0.49,12.28 0.40,11.98 0.32,11.68 0.33,11.37 0.34,11.06 0.46,10.76 0.57,10.47 0.77,10.23 0.97,9.99 1.24,9.83 1.51,9.66 1.81,9.59 2.12,9.52 2.43,9.56 2.74,9.59 3.03,9.72 3.31,9.85 3.54,10.06 3.77,10.27 3.92,10.55 4.07,10.82 4.12,11.13 4.18,11.44 4.13,11.75 4.08,12.06 3.93,12.34 3.79,12.62 3.56,12.83 3.34,13.05 3.05,13.18 2.77,13.32 2.46,13.35 2.15,13.39 1.84,13.33 1.54,13.26 1.27,13.10 1.00,12.94 0.79,12.71 0.59,12.47 0.47,12.18 0.35,11.89 0.33,11.57 0.31,11.26 0.39,10.96 0.47,10.66 0.47,10.66 0.47,10.66 2.66,8.30 4.85,5.93 6.69,5.73 8.53,5.53 10.25,5.52 11.98,5.52 14.22,5.37 16.45,5.22 18.75,4.92 21.04,4.62 23.09,4.47 25.13,4.33 27.09,4.32 29.05,4.32 28.73,3.13 28.41,1.94 27.99,0.26 27.57,-1.42 26.85,-3.59 26.14,-5.76 25.40,-8.13 24.66,-10.50 23.88,-12.88 23.10,-15.27 22.24,-17.32 21.37,-19.38 20.29,-21.19 19.21,-23.00 18.83,-24.23 18.45,-25.47 17.40,-24.75 16.35,-24.02 15.55,-23.15 14.75,-22.28 13.82,-20.94 12.89,-19.60 12.02,-18.06 11.15,-16.52 10.16,-14.68 9.17,-12.85 8.11,-10.69 7.05,-8.53 5.50,-5.92 3.96,-3.31 2.90,-1.15 1.84,1.00 1.69,1.21 1.55,1.41 1.35,1.58 1.16,1.74 0.93,1.86 0.71,1.97 0.46,2.03 0.21,2.08 -0.03,2.08 -0.28,2.08 -0.53,2.01 -0.77,1.95 -0.99,1.83 -1.22,1.71 -1.40,1.53 -1.59,1.36 -1.73,1.15 -1.87,0.94 -1.96,0.70 -2.04,0.46 -2.07,0.21 -2.10,-0.03 -2.06,-0.28 -2.03,-0.53 -1.93,-0.77 -1.84,-1.00 -1.84,-1.00 L -1.84,-1.00 Z"/></g><g transform="translate(492 597.3333435058594) rotate(0 13.66668701171875 13.333343505859375)" stroke="none"><path fill="#000000" d="M 0.18,-2.05 Q 0.18,-2.05 2.28,-1.76 4.38,-1.47 6.46,-1.14 8.54,-0.80 10.64,-0.24 12.74,0.32 14.77,0.96 16.81,1.60 18.82,2.27 20.83,2.94 22.44,3.34 24.05,3.73 26.08,4.05 28.11,4.36 29.02,5.70 29.94,7.04 28.93,8.97 27.92,10.89 26.91,11.88 25.89,12.87 24.66,14.04 23.42,15.20 22.11,16.44 20.79,17.67 19.98,18.84 19.18,20.01 17.97,21.94 16.77,23.87 16.14,25.28 15.50,26.69 15.08,27.73 14.66,28.78 14.50,29.37 14.33,29.96 14.21,30.21 14.09,30.46 13.92,30.68 13.74,30.90 13.52,31.07 13.29,31.24 13.03,31.35 12.78,31.46 12.50,31.50 12.22,31.55 11.94,31.53 11.66,31.51 11.40,31.42 11.13,31.33 10.89,31.18 10.65,31.03 10.46,30.83 10.26,30.63 10.12,30.38 9.98,30.14 9.90,29.87 9.83,29.60 9.81,29.32 9.80,29.04 9.86,28.76 9.91,28.49 9.10,26.71 8.28,24.92 7.71,22.90 7.13,20.88 6.54,18.86 5.95,16.84 5.34,14.83 4.73,12.81 4.20,11.18 3.67,9.55 3.08,7.96 2.49,6.37 1.84,4.97 1.19,3.57 0.79,2.23 0.40,0.88 1.34,0.93 2.29,0.98 1.98,1.15 1.67,1.33 1.32,1.39 0.97,1.46 0.62,1.41 0.26,1.36 -0.04,1.20 -0.36,1.04 -0.61,0.79 -0.86,0.54 -1.02,0.22 -1.18,-0.09 -1.22,-0.45 -1.27,-0.80 -1.20,-1.15 -1.13,-1.50 -0.96,-1.81 -0.78,-2.11 -0.52,-2.35 -0.25,-2.59 0.07,-2.73 0.39,-2.87 0.75,-2.89 1.10,-2.92 1.45,-2.83 1.79,-2.75 2.09,-2.55 2.39,-2.36 2.61,-2.08 2.83,-1.81 2.96,-1.47 3.08,-1.14 3.09,-0.78 3.09,-0.43 2.99,-0.09 2.88,0.24 2.67,0.53 2.47,0.82 2.18,1.03 1.89,1.23 1.55,1.34 1.21,1.44 0.85,1.43 0.49,1.42 0.16,1.29 -0.16,1.17 -0.44,0.95 -0.72,0.72 -0.91,0.42 -1.10,0.12 -1.18,-0.22 -1.26,-0.56 -1.23,-0.91 -1.20,-1.27 -1.06,-1.60 -0.92,-1.92 -0.68,-2.19 -0.44,-2.45 -0.44,-2.45 -0.44,-2.45 2.11,-0.18 4.67,2.08 5.29,3.62 5.90,5.15 6.48,6.85 7.06,8.55 7.48,10.15 7.90,11.75 8.63,13.73 9.35,15.70 10.09,17.67 10.83,19.63 11.60,21.58 12.36,23.52 13.13,25.36 13.89,27.20 14.11,28.58 14.33,29.96 14.21,30.21 14.09,30.46 13.92,30.68 13.74,30.90 13.52,31.07 13.29,31.24 13.03,31.35 12.78,31.46 12.50,31.50 12.22,31.55 11.94,31.53 11.66,31.51 11.40,31.42 11.13,31.33 10.89,31.18 10.65,31.03 10.46,30.83 10.27,30.63 10.12,30.38 9.98,30.14 9.90,29.87 9.83,29.60 9.81,29.32 9.80,29.04 9.86,28.77 9.91,28.49 10.34,27.70 10.76,26.91 11.30,25.94 11.84,24.97 12.58,23.46 13.32,21.95 14.44,19.70 15.56,17.45 16.61,15.99 17.66,14.54 18.91,13.22 20.16,11.90 21.35,10.66 22.54,9.43 23.98,8.47 25.41,7.52 24.28,7.21 23.15,6.89 21.53,6.36 19.91,5.83 17.91,5.23 15.91,4.63 13.93,4.08 11.95,3.53 10.01,3.10 8.07,2.66 6.06,2.45 4.04,2.24 1.93,2.14 -0.18,2.05 -0.42,2.00 -0.67,1.94 -0.89,1.84 -1.11,1.73 -1.31,1.57 -1.50,1.41 -1.64,1.21 -1.79,1.01 -1.89,0.78 -1.98,0.55 -2.02,0.30 -2.06,0.06 -2.03,-0.18 -2.01,-0.43 -1.93,-0.66 -1.85,-0.90 -1.71,-1.11 -1.58,-1.32 -1.40,-1.49 -1.22,-1.66 -1.00,-1.78 -0.78,-1.90 -0.54,-1.97 -0.31,-2.03 -0.06,-2.04 0.18,-2.05 0.18,-2.05 L 0.18,-2.05 Z"/></g><g transform="translate(478.66668701171875 401.3333435058594) rotate(0 5.666656494140625 0)" stroke="none"><path fill="#000000" d="M 0,-2.42 Q 0,-2.42 1.34,-2.44 2.69,-2.45 3.89,-2.28 5.09,-2.11 7.43,-2.60 9.77,-3.09 10.21,-3.12 10.65,-3.15 11.08,-3.04 11.50,-2.93 11.87,-2.69 12.24,-2.44 12.51,-2.10 12.78,-1.75 12.93,-1.34 13.08,-0.92 13.08,-0.48 13.09,-0.04 12.95,0.37 12.82,0.79 12.56,1.14 12.29,1.50 11.93,1.75 11.57,2.00 11.15,2.13 10.73,2.25 10.29,2.23 9.85,2.21 9.44,2.06 9.02,1.90 8.68,1.62 8.35,1.34 8.11,0.96 7.88,0.59 7.78,0.16 7.68,-0.26 7.72,-0.70 7.76,-1.13 7.94,-1.54 8.12,-1.94 8.42,-2.26 8.72,-2.59 9.10,-2.80 9.49,-3.01 9.92,-3.09 10.36,-3.16 10.79,-3.10 11.23,-3.03 11.62,-2.83 12.01,-2.63 12.32,-2.32 12.63,-2.00 12.82,-1.60 13.01,-1.21 13.06,-0.77 13.12,-0.33 13.03,0.09 12.94,0.52 12.72,0.90 12.49,1.28 12.16,1.57 11.83,1.86 11.42,2.03 11.02,2.20 11.02,2.20 11.02,2.20 8.48,2.68 5.94,3.16 4.30,2.81 2.67,2.45 1.33,2.44 0,2.42 -0.29,2.39 -0.58,2.35 -0.85,2.25 -1.12,2.14 -1.36,1.98 -1.60,1.81 -1.80,1.59 -1.99,1.37 -2.13,1.11 -2.26,0.86 -2.33,0.57 -2.40,0.29 -2.40,-0.00 -2.40,-0.29 -2.33,-0.57 -2.26,-0.86 -2.13,-1.11 -1.99,-1.37 -1.80,-1.59 -1.60,-1.81 -1.36,-1.98 -1.12,-2.14 -0.85,-2.25 -0.58,-2.35 -0.29,-2.39 0.00,-2.42 0.00,-2.42 L 0,-2.42 Z"/></g><g transform="translate(487.3333740234375 381.3333435058594) rotate(0 2.33331298828125 12.666656494140625)" stroke="none"><path fill="#000000" d="M 2.02,-0.55 Q 2.02,-0.55 2.49,1.58 2.97,3.72 3.35,6.44 3.73,9.17 4.09,11.02 4.46,12.88 4.86,14.41 5.25,15.95 5.48,17.48 5.71,19.01 6.15,21.46 6.59,23.92 6.58,24.26 6.58,24.60 6.46,24.92 6.35,25.25 6.13,25.51 5.92,25.78 5.64,25.97 5.35,26.15 5.02,26.24 4.69,26.32 4.35,26.30 4.01,26.27 3.70,26.14 3.38,26.01 3.12,25.78 2.87,25.56 2.70,25.26 2.53,24.97 2.46,24.63 2.39,24.30 2.44,23.96 2.48,23.62 2.63,23.31 2.78,23.01 3.02,22.76 3.26,22.52 3.56,22.37 3.86,22.21 4.20,22.16 4.54,22.11 4.88,22.18 5.21,22.24 5.51,22.40 5.81,22.57 6.04,22.82 6.27,23.07 6.41,23.38 6.54,23.70 6.57,24.04 6.61,24.38 6.53,24.71 6.45,25.04 6.26,25.33 6.08,25.62 5.82,25.83 5.55,26.05 5.24,26.17 4.92,26.29 4.58,26.30 4.23,26.32 3.91,26.22 3.58,26.12 3.30,25.92 3.02,25.73 2.82,25.45 2.62,25.18 2.52,24.85 2.41,24.53 2.41,24.53 2.41,24.53 2.13,21.97 1.84,19.41 1.77,18.08 1.70,16.74 1.39,15.15 1.08,13.55 0.70,11.65 0.31,9.74 -0.17,7.22 -0.67,4.71 -1.34,2.63 -2.02,0.55 -2.05,0.30 -2.09,0.05 -2.07,-0.19 -2.04,-0.45 -1.96,-0.68 -1.87,-0.92 -1.74,-1.13 -1.60,-1.35 -1.41,-1.52 -1.23,-1.69 -1.01,-1.81 -0.79,-1.94 -0.54,-2.00 -0.30,-2.07 -0.05,-2.07 0.20,-2.08 0.44,-2.03 0.69,-1.97 0.92,-1.86 1.14,-1.75 1.34,-1.59 1.53,-1.42 1.68,-1.22 1.83,-1.01 1.92,-0.78 2.02,-0.55 2.02,-0.55 L 2.02,-0.55 Z"/></g><g transform="translate(459.3333740234375 440.6666564941406) rotate(0 5 -3.33331298828125)" stroke="none"><path fill="#000000" d="M -1.85,-1.85 Q -1.85,-1.85 -0.89,-2.81 0.06,-3.77 0.83,-4.57 1.61,-5.38 3.15,-6.79 4.69,-8.19 8.51,-6.97 12.33,-5.75 12.49,-5.31 12.65,-4.87 12.67,-4.40 12.68,-3.93 12.54,-3.48 12.40,-3.03 12.13,-2.65 11.85,-2.27 11.47,-2.00 11.09,-1.73 10.64,-1.59 10.19,-1.46 9.72,-1.47 9.26,-1.48 8.82,-1.65 8.38,-1.81 8.01,-2.10 7.65,-2.40 7.39,-2.79 7.14,-3.19 7.03,-3.64 6.92,-4.10 6.96,-4.57 7.00,-5.03 7.18,-5.46 7.37,-5.89 7.68,-6.24 8.00,-6.59 8.41,-6.82 8.81,-7.05 9.28,-7.14 9.74,-7.23 10.20,-7.16 10.66,-7.10 11.08,-6.89 11.50,-6.68 11.83,-6.35 12.17,-6.01 12.37,-5.59 12.58,-5.17 12.64,-4.71 12.70,-4.24 12.61,-3.78 12.53,-3.32 12.29,-2.91 12.06,-2.51 11.71,-2.19 11.36,-1.88 10.93,-1.70 10.50,-1.51 10.03,-1.48 9.57,-1.44 9.11,-1.55 8.66,-1.67 8.26,-1.92 7.87,-2.18 7.57,-2.54 7.28,-2.91 7.28,-2.91 7.28,-2.91 7.61,-3.28 7.93,-3.66 6.66,-2.63 5.38,-1.61 4.57,-0.83 3.77,-0.06 2.81,0.89 1.85,1.85 1.60,2.05 1.36,2.25 1.07,2.38 0.78,2.51 0.47,2.56 0.15,2.62 -0.15,2.60 -0.47,2.58 -0.77,2.49 -1.07,2.39 -1.35,2.23 -1.62,2.06 -1.84,1.84 -2.06,1.62 -2.23,1.35 -2.39,1.07 -2.49,0.77 -2.58,0.47 -2.60,0.15 -2.62,-0.15 -2.56,-0.47 -2.51,-0.78 -2.38,-1.07 -2.25,-1.36 -2.05,-1.60 -1.85,-1.85 -1.85,-1.85 L -1.85,-1.85 Z"/></g><g transform="translate(472 427.3333435058594) rotate(0 10.333343505859375 11)" stroke="none"><path fill="#000000" d="M -2.15,-1.29 Q -2.15,-1.29 -1.60,-2.26 -1.05,-3.24 -0.12,-4.39 0.79,-5.54 1.85,-6.50 2.91,-7.46 3.80,-8.12 4.69,-8.78 5.73,-9.21 6.77,-9.64 8.98,-9.19 11.18,-8.75 12.02,-6.76 12.85,-4.77 12.99,-3.00 13.13,-1.22 12.91,0.80 12.70,2.83 12.55,4.69 12.40,6.56 11.85,10.51 11.31,14.47 10.84,17.28 10.38,20.10 10.23,21.82 10.09,23.53 11.30,23.79 12.51,24.04 14.49,24.29 16.48,24.53 19.27,25.81 22.06,27.09 22.34,27.41 22.62,27.73 22.77,28.13 22.93,28.52 22.96,28.94 22.98,29.36 22.87,29.77 22.76,30.18 22.53,30.53 22.29,30.88 21.95,31.14 21.62,31.40 21.22,31.53 20.82,31.67 20.40,31.67 19.97,31.68 19.57,31.54 19.17,31.41 18.83,31.16 18.49,30.90 18.25,30.55 18.01,30.20 17.90,29.80 17.78,29.39 17.81,28.97 17.83,28.54 17.98,28.15 18.13,27.76 18.41,27.43 18.68,27.11 19.04,26.89 19.40,26.67 19.81,26.58 20.23,26.48 20.65,26.53 21.07,26.57 21.45,26.75 21.84,26.92 22.15,27.21 22.46,27.50 22.66,27.87 22.86,28.25 22.93,28.66 23.00,29.08 22.93,29.50 22.86,29.92 22.67,30.29 22.47,30.67 22.17,30.96 21.86,31.25 21.48,31.43 21.09,31.61 20.67,31.66 20.25,31.70 19.84,31.62 19.43,31.53 19.06,31.31 18.70,31.09 18.70,31.09 18.70,31.10 17.13,30.24 15.57,29.39 14.27,29.13 12.97,28.87 11.15,28.22 9.32,27.57 8.20,26.78 7.08,25.99 6.72,24.61 6.36,23.24 6.52,21.43 6.69,19.62 6.95,16.83 7.22,14.04 7.48,10.23 7.75,6.43 7.71,4.45 7.67,2.48 7.70,0.88 7.74,-0.70 7.71,-2.50 7.68,-4.30 6.23,-3.26 4.77,-2.21 4.06,-1.40 3.35,-0.58 2.75,0.35 2.15,1.29 1.96,1.53 1.78,1.77 1.54,1.95 1.30,2.14 1.03,2.27 0.75,2.39 0.45,2.45 0.15,2.50 -0.14,2.48 -0.44,2.47 -0.73,2.38 -1.02,2.29 -1.28,2.13 -1.54,1.98 -1.75,1.76 -1.97,1.55 -2.12,1.29 -2.28,1.03 -2.37,0.74 -2.46,0.46 -2.48,0.15 -2.50,-0.14 -2.45,-0.44 -2.40,-0.73 -2.27,-1.01 -2.15,-1.29 -2.15,-1.29 L -2.15,-1.29 Z"/></g></svg>