<?xml version="1.0" encoding="UTF-8" standalone="no"?>
<!-- Created with Inkscape (http://www.inkscape.org/) -->

<svg
   width="31.398314mm"
   height="35.011402mm"
   viewBox="0 0 31.398314 35.011402"
   version="1.1"
   id="svg1"
   inkscape:version="1.3.2 (091e20ef0f, 2023-11-25)"
   sodipodi:docname="2b.svg"
   xmlns:inkscape="http://www.inkscape.org/namespaces/inkscape"
   xmlns:sodipodi="http://sodipodi.sourceforge.net/DTD/sodipodi-0.dtd"
   xmlns="http://www.w3.org/2000/svg"
   xmlns:svg="http://www.w3.org/2000/svg">
  <sodipodi:namedview
     id="namedview1"
     pagecolor="#ffffff"
     bordercolor="#000000"
     borderopacity="0.25"
     inkscape:showpageshadow="2"
     inkscape:pageopacity="0.0"
     inkscape:pagecheckerboard="0"
     inkscape:deskcolor="#d1d1d1"
     inkscape:document-units="mm"
     inkscape:zoom="2.3304714"
     inkscape:cx="60.288232"
     inkscape:cy="125.72564"
     inkscape:window-width="2560"
     inkscape:window-height="1600"
     inkscape:window-x="0"
     inkscape:window-y="0"
     inkscape:window-maximized="1"
     inkscape:current-layer="layer1">
    <inkscape:page
       x="0"
       y="0"
       width="31.398314"
       height="35.011402"
       id="page1"
       margin="5.0000005"
       bleed="0" />
  </sodipodi:namedview>
  <defs
     id="defs1"><clipPath
   clipPathUnits="userSpaceOnUse"
   id="clipPath587">
  <path
     d="m 333.93,156.07 h 183.91 v 75.236 H 333.93 Z"
     transform="translate(-472.54891,-201.37021)"
     id="path587" />
</clipPath>
<clipPath
   clipPathUnits="userSpaceOnUse"
   id="clipPath585">
  <path
     d="m 333.93,156.07 h 183.91 v 75.236 H 333.93 Z"
     transform="translate(-474.56601,-203.55081)"
     id="path585" />
</clipPath>
<clipPath
   clipPathUnits="userSpaceOnUse"
   id="clipPath583">
  <path
     d="m 333.93,156.07 h 183.91 v 75.236 H 333.93 Z"
     transform="translate(-475.54891,-206.63181)"
     id="path583" />
</clipPath>
<clipPath
   clipPathUnits="userSpaceOnUse"
   id="clipPath581">
  <path
     d="m 333.93,156.07 h 183.91 v 75.236 H 333.93 Z"
     transform="translate(-466.08101,-167.93181)"
     id="path581" />
</clipPath>
<clipPath
   clipPathUnits="userSpaceOnUse"
   id="clipPath579">
  <path
     d="m 333.93,156.07 h 183.91 v 75.236 H 333.93 Z"
     transform="translate(-510.23001,-211.0198)"
     id="path579" />
</clipPath>
<clipPath
   clipPathUnits="userSpaceOnUse"
   id="clipPath577">
  <path
     d="m 333.93,156.07 h 183.91 v 75.236 H 333.93 Z"
     transform="translate(-510.23001,-167.93181)"
     id="path577" />
</clipPath>
<clipPath
   clipPathUnits="userSpaceOnUse"
   id="clipPath575">
  <path
     d="m 333.93,156.07 h 183.91 v 75.236 H 333.93 Z"
     transform="translate(-507.66602,-169.17201)"
     id="path575" />
</clipPath>
<clipPath
   clipPathUnits="userSpaceOnUse"
   id="clipPath573">
  <path
     d="m 333.93,156.07 h 183.91 v 75.236 H 333.93 Z"
     transform="translate(-464.57401,-167.93181)"
     id="path573" />
</clipPath>
<clipPath
   clipPathUnits="userSpaceOnUse"
   id="clipPath571">
  <path
     d="m 333.93,156.07 h 183.91 v 75.236 H 333.93 Z"
     transform="translate(-465.95901,-168.2023)"
     id="path571" />
</clipPath>
<clipPath
   clipPathUnits="userSpaceOnUse"
   id="clipPath569">
  <path
     d="m 333.93,156.07 h 183.91 v 75.236 H 333.93 Z"
     transform="translate(-508.73001,-167.93181)"
     id="path569" />
</clipPath>
<clipPath
   clipPathUnits="userSpaceOnUse"
   id="clipPath567">
  <path
     d="m 333.93,156.07 h 183.91 v 75.236 H 333.93 Z"
     transform="translate(-507.15501,-170.4943)"
     id="path567" />
</clipPath>
<clipPath
   clipPathUnits="userSpaceOnUse"
   id="clipPath565">
  <path
     d="m 333.93,156.07 h 183.91 v 75.236 H 333.93 Z"
     transform="translate(-473.36901,-202.13031)"
     id="path565" />
</clipPath>
<clipPath
   clipPathUnits="userSpaceOnUse"
   id="clipPath563">
  <path
     d="m 333.93,156.07 h 183.91 v 75.236 H 333.93 Z"
     transform="translate(-474.55991,-200.9614)"
     id="path563" />
</clipPath>
<clipPath
   clipPathUnits="userSpaceOnUse"
   id="clipPath561">
  <path
     d="m 333.93,156.07 h 183.91 v 75.236 H 333.93 Z"
     transform="translate(-508.92692,-168.46941)"
     id="path561" />
</clipPath>
<clipPath
   clipPathUnits="userSpaceOnUse"
   id="clipPath559">
  <path
     d="m 333.93,156.07 h 183.91 v 75.236 H 333.93 Z"
     transform="translate(-508.73001,-169.65201)"
     id="path559" />
</clipPath>
<clipPath
   clipPathUnits="userSpaceOnUse"
   id="clipPath557">
  <path
     d="m 333.93,156.07 h 183.91 v 75.236 H 333.93 Z"
     transform="translate(-508.73001,-211.02001)"
     id="path557" />
</clipPath>
1&quot; /&gt;2&quot; /&gt;3&quot; /&gt;4&quot; /&gt;</defs>
  <g
     inkscape:label="Layer 1"
     inkscape:groupmode="layer"
     id="layer1"
     transform="translate(-87.604166,-88.133329)">
    <rect
       style="fill:#ffffff;stroke-width:1;stroke-linecap:round;stroke-linejoin:round"
       id="rect1"
       width="31.398314"
       height="35.011398"
       x="87.604164"
       y="88.133331"
       transform="translate(-8.3333305e-8)" />
    <g
       id="g1">
      <path
         id="path556"
         d="M 0,0 V -37.838"
         style="fill:none;stroke:#00adef;stroke-width:0.5;stroke-linecap:butt;stroke-linejoin:miter;stroke-miterlimit:4;stroke-dasharray:none;stroke-opacity:1"
         transform="matrix(0.35277776,0,0,-0.35277776,110.8464,99.192922)"
         clip-path="url(#clipPath557)" />
      <path
         id="path558"
         d="M 0,0 -2.033,4.975 0,3.793 2.031,4.975 Z"
         style="fill:#00adef;fill-opacity:1;fill-rule:nonzero;stroke:none"
         transform="matrix(0.35277776,0,0,-0.35277776,110.8464,113.78663)"
         clip-path="url(#clipPath559)" />
      <path
         id="path560"
         d="m 0,0 c -6.546,2.914 -12.41,7.86 -16.238,11.067 -7.099,5.948 -12.308,10.342 -16.858,18.617"
         style="fill:none;stroke:#00adef;stroke-width:0.5;stroke-linecap:butt;stroke-linejoin:miter;stroke-miterlimit:4;stroke-dasharray:none;stroke-opacity:1"
         transform="matrix(0.35277776,0,0,-0.35277776,110.91586,114.20383)"
         clip-path="url(#clipPath561)" />
      <path
         id="path562"
         d="M 0,0 4.089,-3.486 1.742,-3.371 0.478,-5.354 Z"
         style="fill:#00adef;fill-opacity:1;fill-rule:nonzero;stroke:none"
         transform="matrix(0.35277776,0,0,-0.35277776,98.791946,102.74137)"
         clip-path="url(#clipPath563)" />
      <path
         id="path564"
         d="m 0,0 c 7.838,-1.718 17.38,-9.624 20.703,-13.23 5.961,-6.468 7.958,-9.296 11.65,-15.673"
         style="fill:none;stroke:#00adef;stroke-width:0.5;stroke-linecap:butt;stroke-linejoin:miter;stroke-miterlimit:4;stroke-dasharray:none;stroke-opacity:1"
         transform="matrix(0.35277776,0,0,-0.35277776,98.371822,102.32901)"
         clip-path="url(#clipPath565)" />
      <path
         id="path566"
         d="m 0,0 -4.089,3.486 2.347,-0.117 1.264,1.983 z"
         style="fill:#00adef;fill-opacity:1;fill-rule:nonzero;stroke:none"
         transform="matrix(0.35277776,0,0,-0.35277776,110.29077,113.48949)"
         clip-path="url(#clipPath567)" />
      <path
         id="path568"
         d="m 0,0 c -6.756,-2.388 -13.868,-3.628 -18.771,-3.628 -9.262,0 -13.602,0.649 -20.667,2.735"
         style="fill:none;stroke:#00adef;stroke-width:0.5;stroke-linecap:butt;stroke-linejoin:miter;stroke-miterlimit:4;stroke-dasharray:none;stroke-opacity:1"
         transform="matrix(0.35277776,0,0,-0.35277776,110.8464,114.39348)"
         clip-path="url(#clipPath569)" />
      <path
         id="path570"
         d="M 0,0 5.365,0.281 3.583,-1.249 4.028,-3.557 Z"
         style="fill:#00adef;fill-opacity:1;fill-rule:nonzero;stroke:none"
         transform="matrix(0.35277776,0,0,-0.35277776,95.757739,114.29806)"
         clip-path="url(#clipPath571)" />
      <path
         id="path572"
         d="m 0,0 c 6.871,4.143 14.188,5.138 19.092,5.138 9.261,0 13.602,-0.649 20.667,-2.738"
         style="fill:none;stroke:#00adef;stroke-width:0.5;stroke-linecap:butt;stroke-linejoin:miter;stroke-miterlimit:4;stroke-dasharray:none;stroke-opacity:1"
         transform="matrix(0.35277776,0,0,-0.35277776,95.269143,114.39348)"
         clip-path="url(#clipPath573)" />
      <path
         id="path574"
         d="m 0,0 -5.367,-0.282 1.784,1.529 -0.445,2.309 z"
         style="fill:#00adef;fill-opacity:1;fill-rule:nonzero;stroke:none"
         transform="matrix(0.35277776,0,0,-0.35277776,110.47104,113.95597)"
         clip-path="url(#clipPath575)" />
      <path
         id="path576"
         d="M 0,0 C 0,-0.829 -0.671,-1.5 -1.5,-1.5 -2.329,-1.5 -3,-0.829 -3,0 -3,0.827 -2.329,1.5 -1.5,1.5 -0.671,1.5 0,0.827 0,0"
         style="fill:#231f20;fill-opacity:1;fill-rule:nonzero;stroke:none"
         transform="matrix(0.35277776,0,0,-0.35277776,111.37556,114.39348)"
         clip-path="url(#clipPath577)" />
      <path
         id="path578"
         d="M 0,0 C 0,-0.828 -0.671,-1.5 -1.5,-1.5 -2.329,-1.5 -3,-0.828 -3,0 -3,0.829 -2.329,1.5 -1.5,1.5 -0.671,1.5 0,0.829 0,0"
         style="fill:#231f20;fill-opacity:1;fill-rule:nonzero;stroke:none"
         transform="matrix(0.35277776,0,0,-0.35277776,111.37556,99.192994)"
         clip-path="url(#clipPath579)" />
      <path
         id="path580"
         d="M 0,0 C 0,-0.829 -0.671,-1.5 -1.5,-1.5 -2.328,-1.5 -3,-0.829 -3,0 -3,0.827 -2.328,1.5 -1.5,1.5 -0.671,1.5 0,0.827 0,0"
         style="fill:#231f20;fill-opacity:1;fill-rule:nonzero;stroke:none"
         transform="matrix(0.35277776,0,0,-0.35277776,95.800778,114.39348)"
         clip-path="url(#clipPath581)" />
      <path
         id="path582"
         d="m 0,0 c 0.315,2.549 -0.036,5.821 -1.709,8.963 -2.741,5.15 -7.844,7.801 -13.082,3.836 -5.236,-3.964 -4.069,-9.595 0.143,-13.631 4.709,-4.513 10.668,-5.172 12.844,-3.525"
         style="fill:none;stroke:#00adef;stroke-width:0.5;stroke-linecap:butt;stroke-linejoin:miter;stroke-miterlimit:4;stroke-dasharray:none;stroke-opacity:1"
         transform="matrix(0.35277776,0,0,-0.35277776,99.140844,100.74098)"
         clip-path="url(#clipPath583)" />
      <path
         id="path584"
         d="M 0,0 3.283,4.255 1.008,3.656 -0.635,5.337 Z"
         style="fill:#00adef;fill-opacity:1;fill-rule:nonzero;stroke:none"
         transform="matrix(0.35277776,0,0,-0.35277776,98.794097,101.82789)"
         clip-path="url(#clipPath585)" />
      <path
         id="path586"
         d="M 0,0 C 0.5,-0.661 1.44,-0.792 2.101,-0.291 2.763,0.209 2.891,1.15 2.392,1.81 1.892,2.471 0.952,2.6 0.291,2.102 -0.371,1.601 -0.5,0.66 0,0"
         style="fill:#231f20;fill-opacity:1;fill-rule:nonzero;stroke:none"
         transform="matrix(0.35277776,0,0,-0.35277776,98.082511,102.59716)"
         clip-path="url(#clipPath587)" />
      <path
         id="path588"
         d="m 97.522861,105.16878 h 0.587045 v -0.0331 c -0.161232,0 -0.202573,-0.0207 -0.202573,-0.12402 v -1.26917 l -0.01654,-0.004 -0.380338,0.19017 v 0.0331 c 0.11989,-0.0496 0.11989,-0.0496 0.144695,-0.0496 0.07028,0 0.07028,0.0579 0.07028,0.0992 v 0.95912 c 0,0.15709 -0.07855,0.16122 -0.202571,0.16536 z m 0,0"
         style="fill:#231f20;fill-opacity:1;fill-rule:nonzero;stroke:none;stroke-width:0.352777"
         aria-label="" />
      <path
         id="path589"
         d="m 114.00248,99.881244 -0.0248,-0.01241 c -0.0827,0.136426 -0.12402,0.140556 -0.20257,0.140556 h -0.50436 l 0.35553,-0.372067 c 0.091,-0.09922 0.26872,-0.29352 0.26872,-0.516763 0,-0.235645 -0.19017,-0.380338 -0.38447,-0.380338 -0.18604,0 -0.38447,0.09922 -0.44649,0.42168 l 0.0455,0.0083 c 0.0455,-0.111623 0.10749,-0.272852 0.30179,-0.272852 0.24805,0 0.30179,0.194302 0.30179,0.301789 0,0.157096 -0.0909,0.347266 -0.27699,0.545703 l -0.3762,0.401008 v 0.0248 h 0.82682 z m 0,0"
         style="fill:#231f20;fill-opacity:1;fill-rule:nonzero;stroke:none;stroke-width:0.352777"
         aria-label="" />
      <path
         id="path590"
         d="m 113.32035,115.25085 c 0.14882,-0.004 0.19843,0.008 0.27698,0.0455 0.13643,0.0703 0.16123,0.22738 0.16123,0.28112 0,0.1571 -0.0868,0.3266 -0.28525,0.3266 -0.12402,0 -0.20257,-0.11989 -0.30179,-0.11989 -0.0331,0 -0.0827,0.0165 -0.0827,0.0744 0,0.11162 0.18603,0.11989 0.23564,0.11989 0.33073,0 0.58705,-0.18603 0.58705,-0.48782 0,-0.27699 -0.18191,-0.3514 -0.26872,-0.38861 0.13642,-0.0909 0.1943,-0.1819 0.1943,-0.29766 0,-0.0868 -0.0579,-0.28525 -0.33073,-0.28525 -0.14056,0 -0.32659,0.0662 -0.41341,0.34313 l 0.0331,0.008 c 0.0289,-0.0579 0.11989,-0.22325 0.31006,-0.22325 0.1571,0 0.23565,0.11163 0.23565,0.21911 0,0.1943 -0.16123,0.29766 -0.3514,0.35554 z m 0,0"
         style="fill:#231f20;fill-opacity:1;fill-rule:nonzero;stroke:none;stroke-width:0.352777"
         aria-label="" />
      <path
         id="path591"
         d="m 93.978889,115.46169 h -0.219106 v -0.94258 h -0.09095 l -0.665594,0.94258 v 0.13229 h 0.595313 v 0.35553 h 0.161232 v -0.35553 h 0.219106 z m -0.380338,0 h -0.508495 l 0.500227,-0.71934 h 0.0083 z m 0,0"
         style="fill:#231f20;fill-opacity:1;fill-rule:nonzero;stroke:none;stroke-width:0.352777"
         aria-label="" />
      <path
         id="path592"
         d="m 99.916512,107.87972 c 0.103358,-0.25218 0.297658,-0.46715 0.446488,-0.46715 0.0703,0 0.0992,0.0496 0.0992,0.11162 0,0.0207 -0.0124,0.35967 -0.595317,0.47956 z m 0.582908,0.40515 c -0.14469,0.11575 -0.26045,0.21084 -0.41341,0.21084 -0.119888,0 -0.264581,-0.0662 -0.264581,-0.25632 0,-0.0579 0.01241,-0.11575 0.02479,-0.17363 l 0.08268,-0.0124 c 0.454761,-0.062 0.719341,-0.29352 0.719341,-0.51676 0,-0.12403 -0.0868,-0.19017 -0.23151,-0.19017 -0.39688,0 -0.843365,0.47542 -0.843365,0.87643 0,0.17777 0.09095,0.40101 0.388607,0.40101 0.281128,0 0.537438,-0.26045 0.570508,-0.30593 z m 0,0"
         style="fill:#231f20;fill-opacity:1;fill-rule:nonzero;stroke:none;stroke-width:0.352777"
         aria-label="e" />
      <path
         id="path593"
         d="m 101.74379,109.0073 -0.0248,-0.0124 c -0.0827,0.13643 -0.12402,0.14056 -0.20257,0.14056 h -0.50437 l 0.35554,-0.37207 c 0.091,-0.0992 0.26872,-0.29352 0.26872,-0.51676 0,-0.23565 -0.19017,-0.38034 -0.38448,-0.38034 -0.18603,0 -0.38447,0.0992 -0.44648,0.42168 l 0.0455,0.008 c 0.0455,-0.11162 0.10748,-0.27285 0.30178,-0.27285 0.24805,0 0.3018,0.19431 0.3018,0.30179 0,0.1571 -0.0909,0.34727 -0.27699,0.54571 l -0.3762,0.401 v 0.0248 h 0.82682 z m 0,0"
         style="fill:#231f20;fill-opacity:1;fill-rule:nonzero;stroke:none;stroke-width:0.352777"
         aria-label="2" />
      <path
         id="path594"
         d="m 98.04376,110.93173 c 0.103351,-0.25218 0.297656,-0.46715 0.446484,-0.46715 0.07028,0 0.09922,0.0496 0.09922,0.11162 0,0.0207 -0.01241,0.35967 -0.595313,0.47955 z m 0.582909,0.40514 c -0.144693,0.11576 -0.260448,0.21084 -0.413412,0.21084 -0.119888,0 -0.264583,-0.0661 -0.264583,-0.25631 0,-0.0579 0.01241,-0.11576 0.02479,-0.17363 l 0.08268,-0.0124 c 0.454752,-0.062 0.719335,-0.29352 0.719335,-0.51676 0,-0.12403 -0.08681,-0.19017 -0.23151,-0.19017 -0.396875,0 -0.843359,0.47542 -0.843359,0.87643 0,0.17776 0.09095,0.40101 0.388606,0.40101 0.28112,0 0.537435,-0.26045 0.570508,-0.30593 z m 0,0"
         style="fill:#231f20;fill-opacity:1;fill-rule:nonzero;stroke:none;stroke-width:0.352777"
         aria-label="e" />
      <path
         id="path595"
         d="m 99.250919,111.1126 h 0.413411 c 0.02479,0 0.04134,0 0.04961,-0.0207 l 0.07855,-0.19017 -0.01654,-0.0124 c -0.02479,0.0289 -0.04548,0.0537 -0.09922,0.0537 h -0.442352 l -0.23151,0.50023 c -0.0041,0.0165 0,0.0289 0.01241,0.0289 0.23151,0.008 0.60358,0.10749 0.60358,0.44648 0,0.26045 -0.157096,0.37621 -0.293523,0.37621 -0.115755,0 -0.169497,-0.1323 -0.305925,-0.1323 -0.08682,0 -0.08682,0.062 -0.08682,0.0827 0,0.0785 0.09922,0.12816 0.268716,0.12816 0.334865,0 0.566376,-0.22325 0.566376,-0.50437 0,-0.19017 -0.02479,-0.25218 -0.115756,-0.35967 -0.124023,-0.15296 -0.322461,-0.19016 -0.491961,-0.2191 z m 0,0"
         style="fill:#231f20;fill-opacity:1;fill-rule:nonzero;stroke:none;stroke-width:0.352777"
         aria-label="5" />
      <path
         id="path596"
         d="m 104.47851,116.70296 c 0.10335,-0.25219 0.29765,-0.46716 0.44648,-0.46716 0.0703,0 0.0992,0.0496 0.0992,0.11162 0,0.0207 -0.0124,0.35967 -0.59531,0.47956 z m 0.58291,0.40514 c -0.1447,0.11576 -0.26045,0.21084 -0.41341,0.21084 -0.11989,0 -0.26459,-0.0661 -0.26459,-0.25632 0,-0.0579 0.0124,-0.11575 0.0248,-0.17363 l 0.0827,-0.0124 c 0.45475,-0.062 0.71933,-0.29352 0.71933,-0.51676 0,-0.12403 -0.0868,-0.19017 -0.23151,-0.19017 -0.39687,0 -0.84336,0.47542 -0.84336,0.87643 0,0.17777 0.0909,0.40101 0.38861,0.40101 0.28112,0 0.53743,-0.26045 0.57051,-0.30592 z m 0,0"
         style="fill:#231f20;fill-opacity:1;fill-rule:nonzero;stroke:none;stroke-width:0.352777"
         aria-label="e" />
      <path
         id="path597"
         d="m 106.24377,116.66885 c -0.51263,0.0165 -0.87229,0.40101 -0.87229,0.83096 0,0.44648 0.2191,0.64492 0.46715,0.64492 0.37621,0 0.45475,-0.33486 0.45475,-0.49196 0,-0.28112 -0.16536,-0.44235 -0.39274,-0.44235 -0.11575,0 -0.16123,0.0248 -0.27698,0.0951 0.0413,-0.26044 0.24804,-0.5457 0.62425,-0.60358 z m -0.42994,0.63665 c 0.22324,0 0.28938,0.21498 0.28938,0.42995 0,0.23978 -0.0992,0.3514 -0.23151,0.3514 -0.16123,0 -0.30179,-0.15709 -0.30179,-0.51263 0,-0.12816 0.0207,-0.17777 0.0414,-0.19844 0.0537,-0.0496 0.12815,-0.0703 0.20257,-0.0703 z m 0,0"
         style="fill:#231f20;fill-opacity:1;fill-rule:nonzero;stroke:none;stroke-width:0.352777"
         aria-label="6" />
      <path
         id="path598"
         d="m 94.995882,93.666636 c 0.103354,-0.252179 0.297656,-0.467153 0.446484,-0.467153 0.07028,0 0.09922,0.04961 0.09922,0.11162 0,0.02066 -0.01241,0.359669 -0.595313,0.479557 z m 0.582911,0.405144 c -0.144695,0.115755 -0.260451,0.210841 -0.413411,0.210841 -0.119891,0 -0.264584,-0.06615 -0.264584,-0.256315 0,-0.05788 0.01241,-0.115758 0.02479,-0.173636 l 0.08268,-0.01241 c 0.454753,-0.06201 0.719336,-0.293521 0.719336,-0.516763 0,-0.124023 -0.08682,-0.190169 -0.231511,-0.190169 -0.396875,0 -0.843359,0.475422 -0.843359,0.87643 0,0.177768 0.09095,0.40101 0.388607,0.40101 0.28112,0 0.537435,-0.260448 0.570508,-0.305924 z m 0,0"
         style="fill:#231f20;fill-opacity:1;fill-rule:nonzero;stroke:none;stroke-width:0.352777"
         aria-label="e" />
      <path
         id="path599"
         d="m 96.066619,95.082573 h 0.587044 V 95.0495 c -0.161232,0 -0.202573,-0.02066 -0.202573,-0.124024 v -1.269174 l -0.01654,-0.0041 -0.380338,0.19017 v 0.03307 c 0.11989,-0.04961 0.11989,-0.04961 0.144695,-0.04961 0.07028,0 0.07028,0.05788 0.07028,0.09922 v 0.959114 c 0,0.157097 -0.07855,0.16123 -0.20257,0.165365 z m 0,0"
         style="fill:#231f20;fill-opacity:1;fill-rule:nonzero;stroke:none;stroke-width:0.352777"
         aria-label="1" />
      <path
         id="path600"
         d="m 105.49447,104.83185 c 0.10335,-0.25219 0.29765,-0.46716 0.44648,-0.46716 0.0703,0 0.0992,0.0496 0.0992,0.11162 0,0.0207 -0.0124,0.35967 -0.59531,0.47956 z m 0.58291,0.40514 c -0.1447,0.11575 -0.26045,0.21084 -0.41341,0.21084 -0.11989,0 -0.26459,-0.0661 -0.26459,-0.25632 0,-0.0579 0.0124,-0.11575 0.0248,-0.17363 l 0.0827,-0.0124 c 0.45475,-0.062 0.71933,-0.29352 0.71933,-0.51676 0,-0.12403 -0.0868,-0.19017 -0.23151,-0.19017 -0.39687,0 -0.84336,0.47542 -0.84336,0.87643 0,0.17777 0.091,0.40101 0.38861,0.40101 0.28112,0 0.53743,-0.26045 0.57051,-0.30593 z m 0,0"
         style="fill:#231f20;fill-opacity:1;fill-rule:nonzero;stroke:none;stroke-width:0.352777"
         aria-label="e" />
      <path
         id="path601"
         d="m 106.63961,105.54601 c 0.14883,-0.004 0.19844,0.008 0.27699,0.0455 0.13643,0.0703 0.16123,0.22737 0.16123,0.28112 0,0.1571 -0.0868,0.32659 -0.28525,0.32659 -0.12403,0 -0.20257,-0.11989 -0.30179,-0.11989 -0.0331,0 -0.0827,0.0165 -0.0827,0.0744 0,0.11162 0.18604,0.11989 0.23565,0.11989 0.33073,0 0.58704,-0.18604 0.58704,-0.48783 0,-0.27698 -0.1819,-0.3514 -0.26871,-0.38861 0.13642,-0.091 0.1943,-0.1819 0.1943,-0.29765 0,-0.0868 -0.0579,-0.28525 -0.33073,-0.28525 -0.14056,0 -0.3266,0.0661 -0.41341,0.34313 l 0.0331,0.008 c 0.0289,-0.0579 0.11989,-0.22324 0.31006,-0.22324 0.1571,0 0.23565,0.11162 0.23565,0.21911 0,0.1943 -0.16124,0.29765 -0.35141,0.35553 z m 0,0"
         style="fill:#231f20;fill-opacity:1;fill-rule:nonzero;stroke:none;stroke-width:0.352777"
         aria-label="3" />
      <path
         id="path602"
         d="m 111.98192,105.68864 c 0.10336,-0.25218 0.29766,-0.46715 0.44649,-0.46715 0.0703,0 0.0992,0.0496 0.0992,0.11162 0,0.0207 -0.0124,0.35967 -0.59531,0.47955 z m 0.58292,0.40514 c -0.1447,0.11576 -0.26045,0.21085 -0.41342,0.21085 -0.11989,0 -0.26458,-0.0662 -0.26458,-0.25632 0,-0.0579 0.0124,-0.11576 0.0248,-0.17363 l 0.0827,-0.0124 c 0.45475,-0.062 0.71933,-0.29352 0.71933,-0.51677 0,-0.12402 -0.0868,-0.19017 -0.23151,-0.19017 -0.39687,0 -0.84336,0.47543 -0.84336,0.87644 0,0.17776 0.091,0.401 0.38861,0.401 0.28112,0 0.53743,-0.26044 0.57051,-0.30592 z m 0,0"
         style="fill:#231f20;fill-opacity:1;fill-rule:nonzero;stroke:none;stroke-width:0.352777"
         aria-label="e" />
      <path
         id="path603"
         d="m 113.80507,106.61778 h -0.21911 v -0.94257 h -0.091 l -0.66559,0.94257 v 0.1323 h 0.59531 v 0.35553 h 0.16123 v -0.35553 h 0.21911 z m -0.38034,0 h -0.5085 l 0.50023,-0.71933 h 0.008 z m 0,0"
         style="fill:#231f20;fill-opacity:1;fill-rule:nonzero;stroke:none;stroke-width:0.352777"
         aria-label="4" />
    </g>
  </g>
</svg>
