<?xml version="1.0" encoding="UTF-8" standalone="no"?>
<!-- Created with Inkscape (http://www.inkscape.org/) -->

<svg
   width="136.35358mm"
   height="69.137703mm"
   viewBox="0 0 136.35358 69.137703"
   version="1.1"
   id="svg1"
   inkscape:version="1.3.2 (091e20ef0f, 2023-11-25)"
   sodipodi:docname="1.svg"
   xmlns:inkscape="http://www.inkscape.org/namespaces/inkscape"
   xmlns:sodipodi="http://sodipodi.sourceforge.net/DTD/sodipodi-0.dtd"
   xmlns="http://www.w3.org/2000/svg"
   xmlns:svg="http://www.w3.org/2000/svg">
  <sodipodi:namedview
     id="namedview1"
     pagecolor="#ffffff"
     bordercolor="#000000"
     borderopacity="0.25"
     inkscape:showpageshadow="2"
     inkscape:pageopacity="0.0"
     inkscape:pagecheckerboard="0"
     inkscape:deskcolor="#d1d1d1"
     inkscape:document-units="mm"
     inkscape:zoom="1.1893044"
     inkscape:cx="272.42815"
     inkscape:cy="105.10345"
     inkscape:window-width="1277"
     inkscape:window-height="1440"
     inkscape:window-x="2560"
     inkscape:window-y="0"
     inkscape:window-maximized="1"
     inkscape:current-layer="layer1">
    <inkscape:page
       x="0"
       y="0"
       width="136.35358"
       height="69.137703"
       id="page1"
       margin="5.0000005"
       bleed="0" />
  </sodipodi:namedview>
  <defs
     id="defs1">
    <clipPath
       clipPathUnits="userSpaceOnUse"
       id="clipPath24">
      <path
         d="m 1273.2,4598.4 h 3600 v 1688.89 h -3600 z"
         id="path24" />
    </clipPath>
    <clipPath
       clipPathUnits="userSpaceOnUse"
       id="clipPath25">
      <path
         d="m 1273.2,4598.4 h 3600 v 1688.89 h -3600 z"
         id="path25" />
    </clipPath>
    <clipPath
       clipPathUnits="userSpaceOnUse"
       id="clipPath26">
      <path
         d="m 1273.2,4598.4 h 3600 v 1688.89 h -3600 z"
         id="path26" />
    </clipPath>
    <clipPath
       clipPathUnits="userSpaceOnUse"
       id="clipPath27">
      <path
         d="m 1273.2,4598.4 h 3600 v 1688.89 h -3600 z"
         id="path27" />
    </clipPath>
    <clipPath
       clipPathUnits="userSpaceOnUse"
       id="clipPath28">
      <path
         d="m 1273.2,4598.4 h 3600 v 1688.89 h -3600 z"
         id="path28" />
    </clipPath>
    <clipPath
       clipPathUnits="userSpaceOnUse"
       id="clipPath29">
      <path
         d="m 1273.2,4598.4 h 3600 v 1688.89 h -3600 z"
         id="path29" />
    </clipPath>
    <clipPath
       clipPathUnits="userSpaceOnUse"
       id="clipPath30">
      <path
         d="m 1273.2,4598.4 h 3600 v 1688.89 h -3600 z"
         id="path30" />
    </clipPath>
    <clipPath
       clipPathUnits="userSpaceOnUse"
       id="clipPath31">
      <path
         d="m 1273.2,4598.4 h 3600 v 1688.89 h -3600 z"
         id="path31" />
    </clipPath>
    <clipPath
       clipPathUnits="userSpaceOnUse"
       id="clipPath32">
      <path
         d="m 1273.2,4598.4 h 3600 v 1688.89 h -3600 z"
         id="path32" />
    </clipPath>
    <clipPath
       clipPathUnits="userSpaceOnUse"
       id="clipPath33">
      <path
         d="m 1273.2,4598.4 h 3600 v 1688.89 h -3600 z"
         id="path33" />
    </clipPath>
    <clipPath
       clipPathUnits="userSpaceOnUse"
       id="clipPath34">
      <path
         d="m 1273.2,4598.4 h 3600 v 1688.89 h -3600 z"
         id="path34" />
    </clipPath>
    <clipPath
       clipPathUnits="userSpaceOnUse"
       id="clipPath35">
      <path
         d="m 1273.2,4598.4 h 3600 v 1688.89 h -3600 z"
         id="path35" />
    </clipPath>
    <clipPath
       clipPathUnits="userSpaceOnUse"
       id="clipPath36">
      <path
         d="m 1273.2,4598.4 h 3600 v 1688.89 h -3600 z"
         id="path36" />
    </clipPath>
    <clipPath
       clipPathUnits="userSpaceOnUse"
       id="clipPath37">
      <path
         d="m 1273.2,4598.4 h 3600 v 1688.89 h -3600 z"
         id="path37" />
    </clipPath>
    <clipPath
       clipPathUnits="userSpaceOnUse"
       id="clipPath38">
      <path
         d="m 1273.2,4598.4 h 3600 v 1688.89 h -3600 z m 1826.82,79.41 v -6.22 l -85.78,-16.89 60,20 -60,20 z"
         clip-rule="evenodd"
         id="path38" />
    </clipPath>
    <clipPath
       clipPathUnits="userSpaceOnUse"
       id="clipPath39">
      <path
         d="m 1273.2,4598.4 h 3600 v 1688.89 h -3600 z"
         id="path39" />
    </clipPath>
    <clipPath
       clipPathUnits="userSpaceOnUse"
       id="clipPath40">
      <path
         d="m 1273.2,4598.4 h 3600 v 1688.89 h -3600 z"
         id="path40" />
    </clipPath>
    <clipPath
       clipPathUnits="userSpaceOnUse"
       id="clipPath41">
      <path
         d="m 1273.2,4598.4 h 3600 v 1688.89 h -3600 z"
         transform="matrix(0.1,0,0,-0.1,-362.135,523.914)"
         id="path41" />
    </clipPath>
    <clipPath
       clipPathUnits="userSpaceOnUse"
       id="clipPath42">
      <path
         d="m 1273.2,4598.4 h 3600 v 1688.89 h -3600 z"
         id="path42" />
    </clipPath>
    <clipPath
       clipPathUnits="userSpaceOnUse"
       id="clipPath43">
      <path
         d="m 1273.2,4598.4 h 3600 v 1688.89 h -3600 z"
         id="path43" />
    </clipPath>
    <clipPath
       clipPathUnits="userSpaceOnUse"
       id="clipPath44">
      <path
         d="m 1273.2,4598.4 h 3600 v 1688.89 h -3600 z"
         transform="matrix(0.1,0,0,-0.1,-188.80199,513.914)"
         id="path44" />
    </clipPath>
    <clipPath
       clipPathUnits="userSpaceOnUse"
       id="clipPath45">
      <path
         d="m 1273.2,4598.4 h 3600 v 1688.89 h -3600 z"
         transform="matrix(0.1,0,0,-0.1,-265.46801,553.914)"
         id="path45" />
    </clipPath>
    <clipPath
       clipPathUnits="userSpaceOnUse"
       id="clipPath46">
      <path
         d="m 1273.2,4598.4 h 3600 v 1688.89 h -3600 z"
         transform="matrix(0.1,0,0,-0.1,-132.135,573.914)"
         id="path46" />
    </clipPath>
    <clipPath
       clipPathUnits="userSpaceOnUse"
       id="clipPath47">
      <path
         d="m 1273.2,4598.4 h 3600 v 1688.89 h -3600 z"
         transform="matrix(0.1,0,0,-0.1,-275.46801,527.248)"
         id="path47" />
    </clipPath>
  </defs>
  <g
     inkscape:label="Layer 1"
     inkscape:groupmode="layer"
     id="layer1"
     transform="translate(-37.59792,-138.13957)">
    <rect
       style="fill:#ffffff;stroke-width:0.264583"
       id="rect1"
       width="136.35358"
       height="69.137703"
       x="37.597919"
       y="138.13957"
       transform="translate(1.2708333e-6)" />
    <path
       d="m 1654.68,4772.48 h 3200 v 300 h -3200 z"
       style="fill:none;stroke:#000000;stroke-width:13.3333;stroke-linecap:butt;stroke-linejoin:miter;stroke-miterlimit:10;stroke-dasharray:none;stroke-opacity:1"
       transform="matrix(0.03529436,0,0,-0.03529436,-2.6266261,364.75803)"
       clip-path="url(#clipPath24)"
       id="path75" />
    <path
       d="m 2237.79,5253.36 c -21.84,0 -39.55,23.49 -39.55,52.45 0,28.96 17.71,52.44 39.55,52.44 21.85,0 39.56,-23.48 39.56,-52.44 0,-28.96 -17.71,-52.45 -39.56,-52.45 z"
       style="fill:none;stroke:#000000;stroke-width:6.66667;stroke-linecap:butt;stroke-linejoin:miter;stroke-miterlimit:10;stroke-dasharray:none;stroke-opacity:1"
       transform="matrix(0.03529436,0,0,-0.03529436,-2.6266261,364.75803)"
       clip-path="url(#clipPath25)"
       id="path76" />
    <path
       d="m 2194.24,5253.36 c -21.85,0 -39.56,23.49 -39.56,52.45 0,28.96 17.71,52.44 39.55,52.44 21.85,0 39.56,-23.48 39.56,-52.44 0,-28.96 -17.71,-52.45 -39.55,-52.45 z"
       style="fill:none;stroke:#000000;stroke-width:6.66667;stroke-linecap:butt;stroke-linejoin:miter;stroke-miterlimit:10;stroke-dasharray:none;stroke-opacity:1"
       transform="matrix(0.03529436,0,0,-0.03529436,-2.6266261,364.75803)"
       clip-path="url(#clipPath26)"
       id="path77" />
    <path
       d="m 2160.91,5253.36 c -21.85,0 -39.56,23.49 -39.56,52.45 0,28.96 17.71,52.44 39.55,52.44 21.85,0 39.56,-23.48 39.56,-52.44 0,-28.96 -17.71,-52.45 -39.55,-52.45 z"
       style="fill:none;stroke:#000000;stroke-width:6.66667;stroke-linecap:butt;stroke-linejoin:miter;stroke-miterlimit:10;stroke-dasharray:none;stroke-opacity:1"
       transform="matrix(0.03529436,0,0,-0.03529436,-2.6266261,364.75803)"
       clip-path="url(#clipPath27)"
       id="path78" />
    <path
       d="m 2127.57,5253.36 c -21.84,0 -39.55,23.49 -39.55,52.45 0,28.96 17.71,52.44 39.55,52.44 21.84,0 39.56,-23.48 39.56,-52.44 0,-28.96 -17.72,-52.45 -39.56,-52.45 z"
       style="fill:none;stroke:#000000;stroke-width:6.66667;stroke-linecap:butt;stroke-linejoin:miter;stroke-miterlimit:10;stroke-dasharray:none;stroke-opacity:1"
       transform="matrix(0.03529436,0,0,-0.03529436,-2.6266261,364.75803)"
       clip-path="url(#clipPath28)"
       id="path79" />
    <path
       d="m 2094.24,5253.36 c -21.85,0 -39.56,23.49 -39.56,52.45 0,28.96 17.71,52.44 39.55,52.44 21.85,0 39.56,-23.48 39.56,-52.44 0,-28.96 -17.71,-52.45 -39.55,-52.45 z"
       style="fill:none;stroke:#000000;stroke-width:6.66667;stroke-linecap:butt;stroke-linejoin:miter;stroke-miterlimit:10;stroke-dasharray:none;stroke-opacity:1"
       transform="matrix(0.03529436,0,0,-0.03529436,-2.6266261,364.75803)"
       clip-path="url(#clipPath29)"
       id="path80" />
    <path
       d="m 2060.91,5253.36 c -21.85,0 -39.56,23.49 -39.56,52.45 0,28.96 17.71,52.44 39.55,52.44 21.85,0 39.56,-23.48 39.56,-52.44 0,-28.96 -17.71,-52.45 -39.55,-52.45 z"
       style="fill:none;stroke:#000000;stroke-width:6.66667;stroke-linecap:butt;stroke-linejoin:miter;stroke-miterlimit:10;stroke-dasharray:none;stroke-opacity:1"
       transform="matrix(0.03529436,0,0,-0.03529436,-2.6266261,364.75803)"
       clip-path="url(#clipPath30)"
       id="path81" />
    <path
       d="m 2027.57,5253.36 c -21.84,0 -39.55,23.49 -39.55,52.45 0,28.96 17.71,52.44 39.55,52.44 21.84,0 39.56,-23.48 39.56,-52.44 0,-28.96 -17.72,-52.45 -39.56,-52.45 z"
       style="fill:none;stroke:#000000;stroke-width:6.66667;stroke-linecap:butt;stroke-linejoin:miter;stroke-miterlimit:10;stroke-dasharray:none;stroke-opacity:1"
       transform="matrix(0.03529436,0,0,-0.03529436,-2.6266261,364.75803)"
       clip-path="url(#clipPath31)"
       id="path82" />
    <path
       d="m 1994.24,5253.36 c -21.85,0 -39.56,23.49 -39.56,52.45 0,28.96 17.71,52.44 39.55,52.44 21.85,0 39.56,-23.48 39.56,-52.44 0,-28.96 -17.71,-52.45 -39.55,-52.45 z"
       style="fill:none;stroke:#000000;stroke-width:6.66667;stroke-linecap:butt;stroke-linejoin:miter;stroke-miterlimit:10;stroke-dasharray:none;stroke-opacity:1"
       transform="matrix(0.03529436,0,0,-0.03529436,-2.6266261,364.75803)"
       clip-path="url(#clipPath32)"
       id="path83" />
    <path
       d="M 2621.35,5305.81 H 2254.68"
       style="fill:none;stroke:#000000;stroke-width:6.66667;stroke-linecap:butt;stroke-linejoin:miter;stroke-miterlimit:10;stroke-dasharray:none;stroke-opacity:1"
       transform="matrix(0.03529436,0,0,-0.03529436,-2.6266261,364.75803)"
       clip-path="url(#clipPath33)"
       id="path84" />
    <path
       d="m 1954.68,5305.81 h -300"
       style="fill:none;stroke:#000000;stroke-width:6.66667;stroke-linecap:butt;stroke-linejoin:miter;stroke-miterlimit:10;stroke-dasharray:none;stroke-opacity:1"
       transform="matrix(0.03529436,0,0,-0.03529436,-2.6266261,364.75803)"
       clip-path="url(#clipPath34)"
       id="path85" />
    <path
       d="m 3621.35,5339.14 h 100 l -33.33,33.34"
       style="fill:none;stroke:#000000;stroke-width:3.33333;stroke-linecap:butt;stroke-linejoin:miter;stroke-miterlimit:10;stroke-dasharray:none;stroke-opacity:1"
       transform="matrix(0.03529436,0,0,-0.03529436,-2.6266261,364.75803)"
       clip-path="url(#clipPath35)"
       id="path86" />
    <path
       d="m 2821.35,5072.48 v -100"
       style="fill:none;stroke:#000000;stroke-width:3.33333;stroke-linecap:butt;stroke-linejoin:miter;stroke-miterlimit:10;stroke-dasharray:none;stroke-opacity:1"
       transform="matrix(0.03529436,0,0,-0.03529436,-2.6266261,364.75803)"
       clip-path="url(#clipPath36)"
       id="path87" />
    <path
       d="M 2824.46,4736.92 V 4603.59"
       style="fill:none;stroke:#000000;stroke-width:3.33333;stroke-linecap:butt;stroke-linejoin:miter;stroke-miterlimit:10;stroke-dasharray:none;stroke-opacity:1"
       transform="matrix(0.03529436,0,0,-0.03529436,-2.6266261,364.75803)"
       clip-path="url(#clipPath37)"
       id="path88" />
    <path
       d="M 2830.24,4674.7 H 3096.9"
       style="fill:none;stroke:#000000;stroke-width:3.33333;stroke-linecap:butt;stroke-linejoin:miter;stroke-miterlimit:10;stroke-dasharray:none;stroke-opacity:1"
       transform="matrix(0.03529436,0,0,-0.03529436,-2.6266261,364.75803)"
       clip-path="url(#clipPath38)"
       id="path89" />
    <path
       d="m 3014.24,4694.7 60,-20 -60,-20"
       style="fill:none;stroke:#000000;stroke-width:13.3333;stroke-linecap:butt;stroke-linejoin:miter;stroke-miterlimit:10;stroke-dasharray:none;stroke-opacity:1"
       transform="matrix(0.03529436,0,0,-0.03529436,-2.6266261,364.75803)"
       clip-path="url(#clipPath39)"
       id="path90" />
    <path
       d="m 2668.02,5505.81 v 0 c -25.78,0 -46.67,-20.9 -46.67,-46.67 v -340 c 0,-25.77 20.89,-46.66 46.67,-46.66 h 306.66 c 25.77,0 46.67,20.89 46.67,46.66 v 340 c 0,25.77 -20.9,46.67 -46.67,46.67 z"
       style="fill:none;stroke:#0000ff;stroke-width:26.6667;stroke-linecap:butt;stroke-linejoin:miter;stroke-miterlimit:10;stroke-dasharray:none;stroke-opacity:1"
       transform="matrix(0.03529436,0,0,-0.03529436,-2.6266261,364.75803)"
       clip-path="url(#clipPath40)"
       id="path91" />
    <path
       d="M 3.1166286,-3.6962128e-4 4.7681961,-4.8028 H 3.4445995 L 2.4841134,-1.2888265 1.4416346,-4.8028 H 0.12975119 L 1.8047452,-3.6962128e-4 Z M 12.42573,-3.1102361 c -0.667655,0 -1.253317,0.2928311 -1.628141,0.8199271 -0.374824,0.4802431 -0.538809,1.288457 -0.538809,2.50663441 0,1.12447149 0.140559,1.90925889 0.445103,2.38950189 0.374824,0.5973755 0.983912,0.9253464 1.721847,0.9253464 0.691081,0 1.241604,-0.2694047 1.639854,-0.7965007 0.351398,-0.4919562 0.527096,-1.3001701 0.527096,-2.48320786 0,-1.14789799 -0.140559,-1.93268534 -0.445103,-2.42464164 -0.363111,-0.5973755 -0.983913,-0.9370596 -1.721847,-0.9370596 z m 0,1.007339 c 0.327971,0 0.585662,0.1756987 0.726221,0.5153828 0.128846,0.2576914 0.199125,0.94877284 0.199125,1.81555295 0,0.71450793 -0.05857,1.40558935 -0.163985,1.66328075 -0.140559,0.3748238 -0.398251,0.573949 -0.761361,0.573949 -0.327971,0 -0.573949,-0.1639854 -0.726221,-0.480243 -0.128846,-0.2694047 -0.199125,-0.9253464 -0.199125,-1.76869999 0,-0.74964767 0.07028,-1.46415561 0.163985,-1.72184701 0.128846,-0.3865371 0.409964,-0.5973755 0.761361,-0.5973755 z m 0,0"
       style="fill:#000000;fill-opacity:1;fill-rule:nonzero;stroke:none"
       aria-label="v &#10;0"
       transform="matrix(0.35294358,0,0,0.35294358,125.1866,179.84595)"
       clip-path="url(#clipPath41)"
       id="path92" />
    <path
       d="m 3028.9,5295.59 519.12,2.22 -133.34,-66.67 100,66.67 -100,66.67"
       style="fill:none;stroke:#00b000;stroke-width:6.66667;stroke-linecap:butt;stroke-linejoin:miter;stroke-miterlimit:10;stroke-dasharray:none;stroke-opacity:1"
       transform="matrix(0.03529436,0,0,-0.03529436,-2.6266261,364.75803)"
       clip-path="url(#clipPath42)"
       id="path93" />
    <path
       d="m 1288.02,4772.48 h 366.664 v 1500 H 1288.02 Z"
       style="fill:none;stroke:#803000;stroke-width:13.3333;stroke-linecap:butt;stroke-linejoin:miter;stroke-miterlimit:10;stroke-dasharray:none;stroke-opacity:1"
       transform="matrix(0.03529436,0,0,-0.03529436,-2.6266261,364.75803)"
       clip-path="url(#clipPath43)"
       id="path94" />
    <path
       d="M 7.4860727,-5.4234192 C 7.450933,-7.1101265 6.1507628,-8.1291788 4.007239,-8.1291788 c -2.0381046,0 -3.29142175,1.0190523 -3.29142175,2.6589066 0,0.5388093 0.16398543,0.9956258 0.44510335,1.3118834 0.2811178,0.2811179 0.527096,0.4099636 1.3001701,0.6559417 l 2.4714947,0.7730742 c 0.527096,0.1639854 0.7027947,0.3279708 0.7027947,0.6559417 0,0.4919563 -0.5856623,0.7847874 -1.5461484,0.7847874 -0.5505225,0 -0.960486,-0.093706 -1.2298907,-0.2811179 C 2.6367894,-1.7337471 2.5547967,-1.8977325 2.4610907,-2.3311226 H 0.43469938 c 0.0585662,1.76869996 1.34702312,2.6706198 3.77166482,2.6706198 1.1127582,0 1.9561119,-0.23426489 2.5534874,-0.71450793 0.5856622,-0.46852979 0.9487728,-1.20646417 0.9487728,-1.99125157 0,-1.0424788 -0.5153828,-1.7101338 -1.5695748,-2.0146781 L 3.5152828,-5.1423014 C 2.9296205,-5.318 2.7890616,-5.4351325 2.7890616,-5.7631033 c 0,-0.4451033 0.4685298,-0.7379344 1.1947509,-0.7379344 0.9956258,0 1.4875821,0.3513973 1.4992954,1.0776185 z M 11.164032,-8.0003331 H 9.0907873 V 3.2326687 h 2.0732447 v -4.18162842 c 0.503669,0.8902066 1.218177,1.30017017 2.225516,1.30017017 1.932685,0 3.349988,-1.80383965 3.349988,-4.22848135 0,-1.1361848 -0.327971,-2.2606563 -0.855067,-2.9985907 -0.538809,-0.7496476 -1.534435,-1.2533172 -2.494921,-1.2533172 -1.007339,0 -1.721847,0.4216768 -2.225516,1.3118834 z m 1.756986,1.6047146 c 1.054192,0 1.745274,1.007339 1.745274,2.5417741 0,1.4641556 -0.714508,2.4714946 -1.745274,2.4714946 -1.054192,0 -1.756986,-1.007339 -1.756986,-2.4949211 0,-1.5110086 0.702794,-2.5183476 1.756986,-2.5183476 z m 5.3061,-1.6047146 v 8.00014620534 h 2.073245 V -4.2520947 c 0,-1.2181775 0.609088,-1.8272662 1.815552,-1.8272662 0.222552,0 0.374824,0.023427 0.655942,0.058566 v -2.0966708 c -0.117132,-0.011713 -0.163985,-0.011713 -0.245978,-0.011713 -0.948773,0 -1.7687,0.620802 -2.225516,1.6984205 V -8.000333 Z m 7.894727,0 h -2.073244 v 8.00014620534 h 2.073244 z m 0,-2.7994659 h -2.073244 v 1.8506931 h 2.073244 z m 1.985395,2.7994659 v 8.00014620534 h 2.073244 V -4.8026173 c 0,-0.9487728 0.644229,-1.5695748 1.674994,-1.5695748 0.890207,0 1.33531,0.4919563 1.33531,1.4407292 v 4.93127600534 h 2.073245 V -5.364853 c 0,-1.7804132 -0.9722,-2.7643258 -2.682333,-2.7643258 -1.089332,0 -1.815553,0.3748239 -2.401216,1.288457 v -1.1596113 z m 14.041252,0 v 1.2298907 c -0.573949,-0.9370596 -1.218177,-1.3587364 -2.061531,-1.3587364 -0.714508,0 -1.499295,0.3513974 -2.038104,0.9253464 -0.808214,0.8316403 -1.218178,1.9912516 -1.218178,3.396841 0,2.4597814 1.30017,4.1464886 3.209429,4.1464886 0.86678,0 1.382163,-0.28111787 2.108384,-1.15961123 v 1.08933177 c 0,0.96048606 -0.679368,1.62814106 -1.66328,1.62814106 -0.737935,0 -1.194751,-0.3279709 -1.358737,-0.93705962 h -2.13181 c 0.01171,0.62080192 0.234265,1.05419202 0.784787,1.49929532 0.632515,0.5153828 1.511009,0.7730742 2.63548,0.7730742 2.307509,0 3.701385,-1.1127583 3.701385,-2.96345096 V -8.0003331 Z m -1.674994,1.6047146 c 0.983913,0 1.710134,1.0776185 1.710134,2.5534873 0,1.4524424 -0.702795,2.4480682 -1.73356,2.4480682 -0.913633,0 -1.546148,-0.9956258 -1.546148,-2.4480682 0,-1.5110086 0.632515,-2.5534873 1.569574,-2.5534873 z M 16.285648,-34.885158 v -5.915189 h -2.073244 v 10.799612 h 2.073244 v -2.623767 l 0.83164,-0.90192 1.909259,3.525687 h 2.424642 l -2.916598,-4.978129 2.729186,-3.022017 H 18.909415 Z M 154.63957,8.8315997 h -1.22989 V 8.0468123 c 0,-0.4216768 0.17569,-0.620802 0.56223,-0.620802 0.18741,0 0.38654,0.011713 0.59738,0.03514 V 5.9150017 c -0.44511,-0.03514 -0.8785,-0.046853 -1.19475,-0.046853 -1.37045,0 -2.03811,0.6442285 -2.03811,2.0029649 v 0.9604861 h -1.12447 v 1.3704493 h 1.12447 v 6.465711 h 2.07325 v -6.465711 h 1.22989 z M 153.8987,8.6676142 V 16.66776 h 2.07325 v -4.251907 c 0,-1.218178 0.60909,-1.827267 1.81555,-1.827267 0.22255,0 0.37483,0.02343 0.65594,0.05857 V 8.5504818 c -0.11713,-0.011713 -0.16398,-0.011713 -0.24598,-0.011713 -0.94877,0 -1.7687,0.620802 -2.22551,1.6984202 V 8.6676142 Z m 5.58722,0 h -2.07324 V 16.66776 h 2.07324 z m 0,-2.7994655 h -2.07324 v 1.8506927 h 2.07324 z m 7.13337,5.7863433 c -0.14056,-1.9561122 -1.42902,-3.1157235 -3.4437,-3.1157235 -2.40121,0 -3.78337,1.5695745 -3.78337,4.2870475 0,2.647193 1.38216,4.181629 3.74823,4.181629 1.9444,0 3.29143,-1.194751 3.47884,-3.115724 h -1.97954 c -0.25769,1.042479 -0.66766,1.44073 -1.4993,1.44073 -1.05419,0 -1.67499,-0.93706 -1.67499,-2.506635 0,-0.761361 0.15227,-1.464155 0.39825,-1.932685 0.24598,-0.445104 0.7028,-0.691082 1.28846,-0.691082 0.84335,0 1.25331,0.409964 1.48758,1.452443 z m 1.67499,-2.8228923 h -1.15961 V 6.6763626 h -2.07324 v 2.1552371 h -1.01906 v 1.3704493 h 1.01906 v 4.919563 c 0,1.265031 0.66765,1.885833 2.02639,1.885833 0.48024,0 0.81992,-0.04685 1.20646,-0.163986 v -1.452442 c -0.21084,0.03514 -0.31626,0.04685 -0.48024,0.04685 -0.55052,0 -0.67937,-0.163986 -0.67937,-0.878494 v -4.357327 h 1.15961 z m 1.56665,-0.1639855 h -2.07325 V 16.66776 h 2.07325 z m 0,-2.7994655 h -2.07325 v 1.8506927 h 2.07325 z m 3.86537,2.6706198 c -2.44807,0 -3.94736,1.6047145 -3.94736,4.2284815 0,2.63548 1.49929,4.240195 3.95907,4.240195 2.44807,0 3.95908,-1.604715 3.95908,-4.181629 0,-2.705759 -1.46416,-4.2870475 -3.97079,-4.2870475 z m 0.0117,1.6632805 c 1.13619,0 1.88583,1.030766 1.88583,2.600341 0,1.499295 -0.77307,2.530061 -1.88583,2.530061 -1.12447,0 -1.88583,-1.019053 -1.88583,-2.565201 0,-1.534435 0.76136,-2.565201 1.88583,-2.565201 z m 1.8917,-1.5344348 V 16.66776 h 2.07325 v -4.80243 c 0,-0.948773 0.64422,-1.569575 1.67499,-1.569575 0.89021,0 1.33531,0.491957 1.33531,1.440729 v 4.931276 h 2.07324 v -5.364666 c 0,-1.7804129 -0.9722,-2.7643255 -2.68233,-2.7643255 -1.08933,0 -1.81555,0.3748239 -2.40121,1.288457 V 8.6676142 Z m 7.56383,-2.7994655 h -2.07325 V 16.66776 h 2.07325 z m 7.16851,7.4496233 c 0.0117,-0.175698 0.0117,-0.245978 0.0117,-0.351397 0,-0.808214 -0.11713,-1.546148 -0.30455,-2.108384 -0.53881,-1.4524423 -1.82726,-2.3192225 -3.44369,-2.3192225 -2.2958,0 -3.70139,1.6515675 -3.70139,4.3339005 0,2.565201 1.39388,4.134776 3.65454,4.134776 1.79212,0 3.24457,-1.00734 3.7131,-2.588628 h -2.04982 c -0.25769,0.632516 -0.83164,1.007339 -1.58129,1.007339 -0.59738,0 -1.06591,-0.257691 -1.37045,-0.702794 -0.18741,-0.292831 -0.2694,-0.644229 -0.29283,-1.40559 z M 185.0208,11.93561 c 0.14055,-1.229891 0.65594,-1.815553 1.58128,-1.815553 0.94878,0 1.51101,0.632515 1.60472,1.815553 z m 10.00311,-0.691082 c -0.0351,-1.6867072 -1.33531,-2.7057595 -3.47884,-2.7057595 -2.0381,0 -3.29142,1.0190523 -3.29142,2.6589065 0,0.538809 0.16399,0.995626 0.4451,1.311884 0.28112,0.281117 0.5271,0.409963 1.30017,0.655941 l 2.4715,0.773074 c 0.5271,0.163986 0.70279,0.327971 0.70279,0.655942 0,0.491956 -0.58566,0.784787 -1.54614,0.784787 -0.55053,0 -0.96049,-0.0937 -1.2299,-0.281117 -0.22255,-0.163986 -0.30454,-0.327971 -0.39825,-0.761361 h -2.02639 c 0.0586,1.7687 1.34703,2.67062 3.77167,2.67062 1.11276,0 1.95611,-0.234265 2.55349,-0.714508 0.58566,-0.46853 0.94877,-1.206465 0.94877,-1.991252 0,-1.042479 -0.51538,-1.710134 -1.56958,-2.014678 l -2.62376,-0.761361 c -0.58567,-0.175699 -0.72622,-0.292831 -0.72622,-0.620802 0,-0.445103 0.46853,-0.737934 1.19475,-0.737934 0.99562,0 1.48758,0.351397 1.49929,1.077618 z m 4.94006,0 c -0.0351,-1.6867072 -1.33531,-2.7057595 -3.47884,-2.7057595 -2.0381,0 -3.29142,1.0190523 -3.29142,2.6589065 0,0.538809 0.16399,0.995626 0.44511,1.311884 0.28111,0.281117 0.52709,0.409963 1.30017,0.655941 l 2.47149,0.773074 c 0.5271,0.163986 0.70279,0.327971 0.70279,0.655942 0,0.491956 -0.58566,0.784787 -1.54614,0.784787 -0.55053,0 -0.96049,-0.0937 -1.22989,-0.281117 -0.22256,-0.163986 -0.30455,-0.327971 -0.39825,-0.761361 h -2.0264 c 0.0586,1.7687 1.34703,2.67062 3.77167,2.67062 1.11276,0 1.95611,-0.234265 2.55349,-0.714508 0.58566,-0.46853 0.94877,-1.206465 0.94877,-1.991252 0,-1.042479 -0.51538,-1.710134 -1.56958,-2.014678 l -2.62376,-0.761361 c -0.58566,-0.175699 -0.72622,-0.292831 -0.72622,-0.620802 0,-0.445103 0.46853,-0.737934 1.19475,-0.737934 0.99562,0 1.48758,0.351397 1.49929,1.077618 z m 7.41448,0 c -0.0351,-1.6867072 -1.33531,-2.7057595 -3.47883,-2.7057595 -2.03811,0 -3.29142,1.0190523 -3.29142,2.6589065 0,0.538809 0.16398,0.995626 0.4451,1.311884 0.28112,0.281117 0.5271,0.409963 1.30017,0.655941 l 2.47149,0.773074 c 0.5271,0.163986 0.7028,0.327971 0.7028,0.655942 0,0.491956 -0.58566,0.784787 -1.54615,0.784787 -0.55052,0 -0.96049,-0.0937 -1.22989,-0.281117 -0.22255,-0.163986 -0.30454,-0.327971 -0.39825,-0.761361 h -2.02639 c 0.0586,1.7687 1.34702,2.67062 3.77166,2.67062 1.11276,0 1.95611,-0.234265 2.55349,-0.714508 0.58566,-0.46853 0.94877,-1.206465 0.94877,-1.991252 0,-1.042479 -0.51538,-1.710134 -1.56957,-2.014678 l -2.62377,-0.761361 c -0.58566,-0.175699 -0.72622,-0.292831 -0.72622,-0.620802 0,-0.445103 0.46853,-0.737934 1.19475,-0.737934 0.99563,0 1.48758,0.351397 1.4993,1.077618 z m 5.47009,5.423232 V 8.6676142 h -2.07325 V 13.66917 c 0,0.948773 -0.64423,1.581288 -1.67499,1.581288 -0.89021,0 -1.33531,-0.480243 -1.33531,-1.440729 V 8.6676142 h -2.07325 v 5.5755048 c 0,1.7687 0.9722,2.764326 2.68234,2.764326 1.08933,0 1.81555,-0.386538 2.40121,-1.288457 V 16.66776 Z M 211.20283,8.6676142 V 16.66776 h 2.07324 v -4.251907 c 0,-1.218178 0.60909,-1.827267 1.81555,-1.827267 0.22255,0 0.37483,0.02343 0.65594,0.05857 V 8.5504818 c -0.11713,-0.011713 -0.16398,-0.011713 -0.24597,-0.011713 -0.94878,0 -1.7687,0.620802 -2.22552,1.6984202 V 8.6676142 Z m 7.15972,0.1639855 h -1.22989 V 8.0468123 c 0,-0.4216768 0.17569,-0.620802 0.56223,-0.620802 0.18741,0 0.38654,0.011713 0.59738,0.03514 V 5.9150017 c -0.44511,-0.03514 -0.8785,-0.046853 -1.19475,-0.046853 -1.37045,0 -2.03811,0.6442285 -2.03811,2.0029649 v 0.9604861 h -1.12447 v 1.3704493 h 1.12447 v 6.465711 h 2.07325 v -6.465711 h 1.22989 z m 6.08796,7.5784693 c -0.36311,-0.339684 -0.48025,-0.573949 -0.48025,-0.972199 v -4.43932 c 0,-1.6398543 -1.10104,-2.4597815 -3.26799,-2.4597815 -2.16695,0 -3.29142,0.9136331 -3.42027,2.7643255 h 1.99125 c 0.10542,-0.83164 0.4451,-1.101045 1.47587,-1.101045 0.7965,0 1.19475,0.269405 1.19475,0.808214 0,0.269405 -0.12884,0.491956 -0.3514,0.620802 -0.28111,0.152272 -0.28111,0.152272 -1.31188,0.304545 l -0.81993,0.152272 c -1.593,0.269404 -2.36607,1.077618 -2.36607,2.518347 0,1.440729 0.9722,2.401216 2.43635,2.401216 0.89021,0 1.68671,-0.374824 2.42464,-1.136185 0,0.409963 0.0469,0.562236 0.24598,0.7965 h 2.24895 z m -2.50664,-2.963451 c 0,1.206464 -0.59737,1.885833 -1.63985,1.885833 -0.7028,0 -1.12447,-0.363111 -1.12447,-0.960487 0,-0.620802 0.31625,-0.925346 1.18303,-1.101045 l 0.7028,-0.128845 c 0.55052,-0.105419 0.64423,-0.128846 0.87849,-0.257692 z m 7.41449,-1.792126 c -0.14056,-1.9561122 -1.42902,-3.1157235 -3.4437,-3.1157235 -2.40121,0 -3.78338,1.5695745 -3.78338,4.2870475 0,2.647193 1.38217,4.181629 3.74824,4.181629 1.9444,0 3.29142,-1.194751 3.47884,-3.115724 h -1.97954 c -0.25769,1.042479 -0.66766,1.44073 -1.4993,1.44073 -1.05419,0 -1.67499,-0.93706 -1.67499,-2.506635 0,-0.761361 0.15227,-1.464155 0.39825,-1.932685 0.24598,-0.445104 0.70279,-0.691082 1.28845,-0.691082 0.84336,0 1.25332,0.409964 1.48759,1.452443 z m 4.9752,1.66328 c 0.0117,-0.175698 0.0117,-0.245978 0.0117,-0.351397 0,-0.808214 -0.11713,-1.546148 -0.30455,-2.108384 -0.5388,-1.4524423 -1.82726,-2.3192225 -3.44369,-2.3192225 -2.2958,0 -3.70138,1.6515675 -3.70138,4.3339005 0,2.565201 1.39387,4.134776 3.65453,4.134776 1.79212,0 3.24457,-1.00734 3.7131,-2.588628 h -2.04982 c -0.25769,0.632516 -0.83164,1.007339 -1.58129,1.007339 -0.59737,0 -1.0659,-0.257691 -1.37045,-0.702794 -0.18741,-0.292831 -0.2694,-0.644229 -0.29283,-1.40559 z m -5.34124,-1.382162 c 0.14056,-1.229891 0.65594,-1.815553 1.58128,-1.815553 0.94878,0 1.51101,0.632515 1.60472,1.815553 z m -132.623218,7.145079 2.612054,-3.97079 h -2.494921 l -1.288457,2.412928 -1.30017,-2.412928 h -2.494921 l 2.612053,3.97079 -2.67062,4.029356 h 2.494922 l 1.358736,-2.494921 1.347023,2.494921 h 2.494921 z m 10.073388,-2.061531 h -7.180216 v 1.7687 h 7.180216 z m 0,3.560826 h -7.180216 v 1.756987 h 7.180216 z m 1.31481,-8.199271 c -1.12447,0 -2.08495,0.480243 -2.71747,1.347023 -0.60909,0.819927 -0.8902,2.155237 -0.8902,4.193342 0,1.874119 0.23426,3.174289 0.73793,3.97079 0.6208,1.007339 1.63985,1.557861 2.86974,1.557861 1.1479,0 2.07325,-0.456816 2.72919,-1.33531 0.59738,-0.808214 0.89021,-2.155237 0.89021,-4.134775 0,-1.920972 -0.23427,-3.221142 -0.73794,-4.04107 -0.6208,-1.007339 -1.65156,-1.557861 -2.88146,-1.557861 z m 0,1.674994 c 0.53881,0 0.9722,0.292831 1.21818,0.843353 0.21084,0.445104 0.32797,1.593002 0.32797,3.045444 0,1.183038 -0.10542,2.330936 -0.2694,2.764326 -0.23427,0.620802 -0.67937,0.960486 -1.27675,0.960486 -0.5388,0 -0.96048,-0.281118 -1.20646,-0.808214 -0.21084,-0.445103 -0.32797,-1.546148 -0.32797,-2.951738 0,-1.241604 0.10542,-2.424641 0.2694,-2.858031 0.22256,-0.644229 0.67937,-0.995626 1.26503,-0.995626 z m -8.161199,2.770182 c -1.124471,0 -2.084957,0.480243 -2.717472,1.347023 -0.609089,0.819928 -0.890207,2.155237 -0.890207,4.193342 0,1.874119 0.234265,3.174289 0.737934,3.97079 0.620802,1.007339 1.639855,1.557862 2.869745,1.557862 1.147899,0 2.073249,-0.456817 2.729189,-1.33531 0.59737,-0.808214 0.8902,-2.155237 0.8902,-4.134776 0,-1.920972 -0.23426,-3.221142 -0.73793,-4.041069 -0.6208,-1.007339 -1.65157,-1.557862 -2.881459,-1.557862 z m 0,1.674994 c 0.538809,0 0.972199,0.292831 1.218179,0.843354 0.21084,0.445103 0.32797,1.593001 0.32797,3.045443 0,1.183038 -0.10542,2.330936 -0.2694,2.764326 -0.23427,0.620802 -0.67937,0.960486 -1.276749,0.960486 -0.538809,0 -0.960486,-0.281118 -1.206464,-0.808214 -0.210838,-0.445103 -0.327971,-1.546148 -0.327971,-2.951737 0,-1.241604 0.105419,-2.424642 0.269405,-2.858032 0.222552,-0.644228 0.679368,-0.995626 1.26503,-0.995626 z m 28.996139,30.580354 2.61205,-3.97079 h -2.49492 l -1.28846,2.412928 -1.30017,-2.412928 h -2.49492 l 2.61206,3.97079 -2.67062,4.029356 h 2.49492 l 1.35873,-2.494921 1.34703,2.494921 h 2.49492 z m 0,0"
       style="fill:#000000;fill-opacity:1;fill-rule:nonzero;stroke:none"
       aria-label="spring&#10;k&#10;frictionless surface&#10;x =0&#10;0&#10;x"
       transform="matrix(0.35294358,0,0,0.35294358,64.009823,183.37539)"
       clip-path="url(#clipPath44)"
       id="path95" />
    <path
       d="M 0.87991804,-10.800529 V -9.1780113e-4 H 2.9531624 V -0.82084494 c 0.5036695,0.7847874 1.1947509,1.15961124 2.20209,1.15961124 1.9092589,0 3.3617012,-1.8155529 3.3617012,-4.2401946 0,-1.0776185 -0.3162576,-2.1786635 -0.8550668,-2.9400244 -0.5505225,-0.7847874 -1.5227219,-1.288457 -2.5066344,-1.288457 -1.0073391,0 -1.6984205,0.3631106 -2.20209,1.1596113 v -3.8302306 z m 3.81851776,4.4041796 c 1.0190523,0 1.7452735,1.0307655 1.7452735,2.5183476 0,1.4641556 -0.7027947,2.4832079 -1.7452735,2.4832079 -1.054192,0 -1.7452734,-0.9956258 -1.7452734,-2.5300609 0,-1.4641556 0.7027947,-2.4714946 1.7452734,-2.4714946 z M 12.121705,-10.800529 H 10.04846 V -9.1780113e-4 h 2.073245 z m 5.511081,2.6706193 c -2.448068,0 -3.947363,1.6047146 -3.947363,4.2284814 0,2.6354801 1.499295,4.2401946 3.959077,4.2401946 2.448068,0 3.959076,-1.6047145 3.959076,-4.1816284 0,-2.7057595 -1.464155,-4.2870476 -3.97079,-4.2870476 z m 0.01171,1.6632808 c 1.136184,0 1.885832,1.0307655 1.885832,2.6003403 0,1.4992954 -0.773074,2.5300609 -1.885832,2.5300609 -1.124472,0 -1.885833,-1.0190523 -1.885833,-2.5652006 0,-1.5344351 0.761361,-2.5652006 1.885833,-2.5652006 z m 12.307692,1.4524423 c -0.140559,-1.9561118 -1.429016,-3.1157231 -3.443694,-3.1157231 -2.401216,0 -3.783378,1.5695748 -3.783378,4.2870476 0,2.6471933 1.382162,4.1816284 3.748238,4.1816284 1.944399,0 3.291422,-1.19475097 3.478834,-3.1157231 h -1.979539 c -0.257691,1.0424788 -0.667655,1.4407291 -1.499295,1.4407291 -1.054192,0 -1.674994,-0.9370596 -1.674994,-2.5066344 0,-0.7613609 0.152272,-1.4641556 0.39825,-1.9326854 0.245978,-0.4451033 0.702795,-0.6910814 1.288457,-0.6910814 0.843354,0 1.253317,0.4099636 1.487582,1.4524423 z m 3.458335,0.1288457 v -5.9151881 h -2.07324 V -9.1780113e-4 h 2.073244 V -2.6246846 l 0.83164,-0.9019199 1.909259,3.52568669887 h 2.424642 L 35.65947,-4.9790468 38.388656,-8.001064 h -2.354362 z m 0,0"
       style="fill:#0000ff;fill-opacity:1;fill-rule:nonzero;stroke:none"
       aria-label="block"
       transform="matrix(0.35294358,0,0,0.35294358,91.068602,169.25764)"
       clip-path="url(#clipPath45)"
       id="path96" />
    <path
       d="M 9.0773958,-0.00128325 11.349765,-8.0014294 H 9.2062415 L 7.988064,-2.4024984 6.7815998,-8.0014294 H 4.7083555 l -1.2064642,5.598931 -1.2767437,-5.598931 H 0.06991057 L 2.3305668,-0.00128325 H 4.4623774 L 5.739121,-5.6470672 6.933872,-0.00128325 Z M 19.291345,-0.25897464 c -0.36311,-0.3396841 -0.480243,-0.57394899 -0.480243,-0.97219936 v -4.4393197 c 0,-1.6398543 -1.101045,-2.4597814 -3.267995,-2.4597814 -2.16695,0 -3.291422,0.9136331 -3.420268,2.7643257 h 1.991252 c 0.105419,-0.8316403 0.445103,-1.101045 1.475869,-1.101045 0.796501,0 1.194751,0.2694047 1.194751,0.8082139 0,0.2694046 -0.128846,0.4919563 -0.351397,0.620802 -0.281118,0.1522722 -0.281118,0.1522722 -1.311884,0.3045444 l -0.819927,0.1522721 c -1.593001,0.2694047 -2.366075,1.0776186 -2.366075,2.5183477 0,1.44072907 0.972199,2.40121514 2.436354,2.40121514 0.890207,0 1.686708,-0.37482383 2.424642,-1.13618474 0,0.40996357 0.04685,0.56223575 0.245978,0.79650065 h 2.248943 z M 16.784711,-3.2224256 c 0,1.2064642 -0.597376,1.8858324 -1.639854,1.8858324 -0.702795,0 -1.124472,-0.3631105 -1.124472,-0.960486 0,-0.620802 0.316258,-0.9253464 1.183038,-1.101045 l 0.702795,-0.1288457 c 0.550522,-0.1054192 0.644228,-0.1288457 0.878493,-0.2576914 z m 6.046962,-7.5784694 h -2.073244 v 10.79961175 h 2.073244 z m 4.117206,0 h -2.073244 v 10.79961175 h 2.073244 z m 0,0"
       style="fill:#803000;fill-opacity:1;fill-rule:nonzero;stroke:none"
       aria-label="wall"
       transform="matrix(0.35294358,0,0,0.35294358,44.009572,162.19877)"
       clip-path="url(#clipPath46)"
       id="path97" />
    <path
       d="M 0.8888857,-7.9989339 V 0.00121224 H 2.96213 V -4.8012181 c 0,-0.9956258 0.5388093,-1.5695748 1.4173026,-1.5695748 0.7027947,0 1.1361848,0.3982503 1.1361848,1.0424788 V 0.00121224 H 7.5888617 V -4.8012181 c 0,-0.9721993 0.527096,-1.5695748 1.4173026,-1.5695748 0.7027947,0 1.1244717,0.3982503 1.1244717,1.0424788 V 0.00121224 H 12.20388 V -5.656285 c 0,-1.5578615 -0.948773,-2.4714946 -2.541774,-2.4714946 -1.0307655,0 -1.7218469,0.3513973 -2.3426489,1.1830377 C 6.93292,-7.7061028 6.1364194,-8.1277796 5.1407936,-8.1277796 c -0.9136331,0 -1.5110086,0.2928311 -2.1903768,1.1244715 v -0.9956258 z m 0,0"
       style="fill:#0000ff;fill-opacity:1;fill-rule:nonzero;stroke:none"
       aria-label="m"
       transform="matrix(0.35294358,0,0,0.35294358,94.598037,178.66924)"
       clip-path="url(#clipPath47)"
       id="path98" />
  </g>
</svg>
