<?xml version="1.0" encoding="UTF-8" standalone="no"?>
<!-- Created with Inkscape (http://www.inkscape.org/) -->

<svg
   width="162.19434mm"
   height="53.000137mm"
   viewBox="0 0 162.19434 53.000137"
   version="1.1"
   id="svg1"
   inkscape:version="1.3.2 (091e20ef0f, 2023-11-25)"
   sodipodi:docname="3.svg"
   xmlns:inkscape="http://www.inkscape.org/namespaces/inkscape"
   xmlns:sodipodi="http://sodipodi.sourceforge.net/DTD/sodipodi-0.dtd"
   xmlns="http://www.w3.org/2000/svg"
   xmlns:svg="http://www.w3.org/2000/svg">
  <sodipodi:namedview
     id="namedview1"
     pagecolor="#ffffff"
     bordercolor="#000000"
     borderopacity="0.25"
     inkscape:showpageshadow="2"
     inkscape:pageopacity="0.0"
     inkscape:pagecheckerboard="0"
     inkscape:deskcolor="#d1d1d1"
     inkscape:document-units="mm"
     inkscape:zoom="0.84096521"
     inkscape:cx="205.716"
     inkscape:cy="250.90218"
     inkscape:window-width="1277"
     inkscape:window-height="1410"
     inkscape:window-x="2560"
     inkscape:window-y="30"
     inkscape:window-maximized="1"
     inkscape:current-layer="layer1">
    <inkscape:page
       x="0"
       y="0"
       width="162.19435"
       height="53.000137"
       id="page1"
       margin="5.0000005"
       bleed="0" />
  </sodipodi:namedview>
  <defs
     id="defs1">
    <clipPath
       clipPathUnits="userSpaceOnUse"
       id="clipPath163">
      <path
         d="m 913.199,5496 h 4320 v 1224.25 h -4320 z"
         id="path163" />
    </clipPath>
    <clipPath
       clipPathUnits="userSpaceOnUse"
       id="clipPath164">
      <path
         d="m 913.199,5496 h 4320 v 1224.25 h -4320 z"
         id="path164" />
    </clipPath>
    <clipPath
       clipPathUnits="userSpaceOnUse"
       id="clipPath165">
      <path
         d="m 913.199,5496 h 4320 v 1224.25 h -4320 z"
         id="path165" />
    </clipPath>
    <clipPath
       clipPathUnits="userSpaceOnUse"
       id="clipPath166">
      <path
         d="m 913.199,5496 h 4320 v 1224.25 h -4320 z"
         id="path166" />
    </clipPath>
    <clipPath
       clipPathUnits="userSpaceOnUse"
       id="clipPath167">
      <path
         d="m 913.199,5496 h 4320 v 1224.25 h -4320 z"
         id="path167" />
    </clipPath>
    <clipPath
       clipPathUnits="userSpaceOnUse"
       id="clipPath168">
      <path
         d="m 913.199,5496 h 4320 v 1224.25 h -4320 z"
         id="path168" />
    </clipPath>
    <clipPath
       clipPathUnits="userSpaceOnUse"
       id="clipPath169">
      <path
         d="m 913.199,5496 h 4320 v 1224.25 h -4320 z"
         id="path169" />
    </clipPath>
    <clipPath
       clipPathUnits="userSpaceOnUse"
       id="clipPath170">
      <path
         d="m 913.199,5496 h 4320 v 1224.25 h -4320 z m 221.181,227.1 v 26.63 h -63.69 l 53.26,-13.32 -53.26,-13.31 z m -189.743,216.36 h -26.629 l 0.222,-63.91 13.317,53.26 13.312,-53.26 z"
         clip-rule="evenodd"
         id="path170" />
    </clipPath>
    <clipPath
       clipPathUnits="userSpaceOnUse"
       id="clipPath171">
      <path
         d="m 913.199,5496 h 4320 v 1224.25 h -4320 z"
         id="path171" />
    </clipPath>
    <clipPath
       clipPathUnits="userSpaceOnUse"
       id="clipPath172">
      <path
         d="m 913.199,5496 h 4320 v 1224.25 h -4320 z"
         id="path172" />
    </clipPath>
    <clipPath
       clipPathUnits="userSpaceOnUse"
       id="clipPath173">
      <path
         d="m 913.199,5496 h 4320 v 1224.25 h -4320 z"
         id="path173" />
    </clipPath>
    <clipPath
       clipPathUnits="userSpaceOnUse"
       id="clipPath174">
      <path
         d="m 913.199,5496 h 4320 v 1224.25 h -4320 z"
         id="path174" />
    </clipPath>
    <clipPath
       clipPathUnits="userSpaceOnUse"
       id="clipPath175">
      <path
         d="m 913.199,5496 h 4320 v 1224.25 h -4320 z"
         id="path175" />
    </clipPath>
    <clipPath
       clipPathUnits="userSpaceOnUse"
       id="clipPath176">
      <path
         d="m 913.199,5496 h 4320 v 1224.25 h -4320 z"
         id="path176" />
    </clipPath>
    <clipPath
       clipPathUnits="userSpaceOnUse"
       id="clipPath177">
      <path
         d="m 913.199,5496 h 4320 v 1224.25 h -4320 z"
         id="path177" />
    </clipPath>
    <clipPath
       clipPathUnits="userSpaceOnUse"
       id="clipPath178">
      <path
         d="m 913.199,5496 h 4320 v 1224.25 h -4320 z"
         id="path178" />
    </clipPath>
    <clipPath
       clipPathUnits="userSpaceOnUse"
       id="clipPath179">
      <path
         d="m 913.199,5496 h 4320 v 1224.25 h -4320 z"
         transform="matrix(0.1,0,0,-0.1,-188.89202,590.285)"
         id="path179" />
    </clipPath>
    <clipPath
       clipPathUnits="userSpaceOnUse"
       id="clipPath180">
      <path
         d="m 913.199,5496 h 4320 v 1224.25 h -4320 z"
         id="path180" />
    </clipPath>
    <clipPath
       clipPathUnits="userSpaceOnUse"
       id="clipPath181">
      <path
         d="m 913.199,5496 h 4320 v 1224.25 h -4320 z"
         id="path181" />
    </clipPath>
    <clipPath
       clipPathUnits="userSpaceOnUse"
       id="clipPath182">
      <path
         d="m 913.199,5496 h 4320 v 1224.25 h -4320 z m 1372.711,528.02 -6.66,25.74 -61.91,-16.2 55.03,0.66 -48.16,-26.4 z"
         clip-rule="evenodd"
         id="path182" />
    </clipPath>
    <clipPath
       clipPathUnits="userSpaceOnUse"
       id="clipPath183">
      <path
         d="m 913.199,5496 h 4320 v 1224.25 h -4320 z"
         id="path183" />
    </clipPath>
    <clipPath
       clipPathUnits="userSpaceOnUse"
       id="clipPath184">
      <path
         d="m 913.199,5496 h 4320 v 1224.25 h -4320 z"
         id="path184" />
    </clipPath>
    <clipPath
       clipPathUnits="userSpaceOnUse"
       id="clipPath185">
      <path
         d="m 913.199,5496 h 4320 v 1224.25 h -4320 z"
         id="path185" />
    </clipPath>
    <clipPath
       clipPathUnits="userSpaceOnUse"
       id="clipPath186">
      <path
         d="m 913.199,5496 h 4320 v 1224.25 h -4320 z"
         id="path186" />
    </clipPath>
    <clipPath
       clipPathUnits="userSpaceOnUse"
       id="clipPath187">
      <path
         d="m 913.199,5496 h 4320 v 1224.25 h -4320 z"
         transform="matrix(0.1,0,0,-0.1,-151.38602,553.668)"
         id="path187" />
    </clipPath>
  </defs>
  <g
     inkscape:label="Layer 1"
     inkscape:groupmode="layer"
     id="layer1"
     transform="translate(-15.902083,-143.43122)">
    <rect
       style="fill:#ffffff;stroke-width:0.264583"
       id="rect1"
       width="162.19435"
       height="53.000137"
       x="15.902083"
       y="143.43121" />
    <path
       d="m 2645.64,5936.14 v 0"
       style="fill:none;stroke:#ffffff;stroke-width:0.221918;stroke-linecap:butt;stroke-linejoin:miter;stroke-miterlimit:10;stroke-dasharray:none;stroke-opacity:1"
       transform="matrix(0.03529436,0,0,-0.03529436,-11.449268,385.55286)"
       clip-path="url(#clipPath163)"
       id="path193" />
    <path
       d="m 1513.86,5553.33 v 981.99 h 1364.79 v -532.61 332.88 -482.67 l -233.01,-183.08"
       style="fill:#d9d9d9;fill-opacity:1;fill-rule:evenodd;stroke:none"
       transform="matrix(0.03529436,0,0,-0.03529436,-11.449268,385.55286)"
       clip-path="url(#clipPath164)"
       id="path194" />
    <path
       d="m 1475.02,5961.87 c -6.95,-6.41 -16.06,-9.98 -25.52,-9.98 -9.46,0 -18.57,3.57 -25.52,9.98"
       style="fill:none;stroke:#a14000;stroke-width:3.32877;stroke-linecap:butt;stroke-linejoin:miter;stroke-miterlimit:10;stroke-dasharray:none;stroke-opacity:1"
       transform="matrix(0.03529436,0,0,-0.03529436,-11.449268,385.55286)"
       clip-path="url(#clipPath165)"
       id="path195" />
    <path
       d="m 1484.12,5990.06 c 0,-29.41 -23.85,-53.26 -53.26,-53.26 -29.41,0 -53.26,23.85 -53.26,53.26 0,29.42 23.85,53.26 53.26,53.26 29.41,0 53.26,-23.84 53.26,-53.26 z"
       style="fill:none;stroke:#a14000;stroke-width:3.32877;stroke-linecap:butt;stroke-linejoin:miter;stroke-miterlimit:10;stroke-dasharray:none;stroke-opacity:1"
       transform="matrix(0.03529436,0,0,-0.03529436,-11.449268,385.55286)"
       clip-path="url(#clipPath166)"
       id="path196" />
    <path
       d="m 1466.37,6002.71 c 0,-8.33 -5.57,-15.09 -12.43,-15.09 -6.86,0 -12.43,6.76 -12.43,15.09 0,8.33 5.57,15.09 12.43,15.09 6.86,0 12.43,-6.76 12.43,-15.09"
       style="fill:#0000b0;fill-opacity:1;fill-rule:evenodd;stroke:none"
       transform="matrix(0.03529436,0,0,-0.03529436,-11.449268,385.55286)"
       clip-path="url(#clipPath167)"
       id="path197" />
    <path
       d="m 1466.37,6002.71 c 0,-8.33 -5.57,-15.09 -12.43,-15.09 -6.86,0 -12.43,6.76 -12.43,15.09 0,8.33 5.57,15.09 12.43,15.09 6.86,0 12.43,-6.76 12.43,-15.09 z"
       style="fill:none;stroke:#a14000;stroke-width:3.32877;stroke-linecap:butt;stroke-linejoin:miter;stroke-miterlimit:10;stroke-dasharray:none;stroke-opacity:1"
       transform="matrix(0.03529436,0,0,-0.03529436,-11.449268,385.55286)"
       clip-path="url(#clipPath168)"
       id="path198" />
    <path
       d="m 1513.86,5569.97 v 965.35 h 1364.79"
       style="fill:none;stroke:#000000;stroke-width:3.32877;stroke-linecap:butt;stroke-linejoin:miter;stroke-miterlimit:10;stroke-dasharray:none;stroke-opacity:1"
       transform="matrix(0.03529436,0,0,-0.03529436,-11.449268,385.55286)"
       clip-path="url(#clipPath169)"
       id="path199" />
    <path
       d="M 931.324,5936.14 V 5736.41 H 1131.05"
       style="fill:none;stroke:#000000;stroke-width:3.32877;stroke-linecap:butt;stroke-linejoin:miter;stroke-miterlimit:10;stroke-dasharray:none;stroke-opacity:1"
       transform="matrix(0.03529436,0,0,-0.03529436,-11.449268,385.55286)"
       clip-path="url(#clipPath170)"
       id="path200" />
    <path
       d="m 944.859,5875.55 -13.312,53.26 -13.317,-53.26"
       style="fill:none;stroke:#000000;stroke-width:3.32877;stroke-linecap:butt;stroke-linejoin:miter;stroke-miterlimit:10;stroke-dasharray:none;stroke-opacity:1"
       transform="matrix(0.03529436,0,0,-0.03529436,-11.449268,385.55286)"
       clip-path="url(#clipPath171)"
       id="path201" />
    <path
       d="m 1070.69,5723.1 53.26,13.31 -53.26,13.32"
       style="fill:none;stroke:#000000;stroke-width:3.32877;stroke-linecap:butt;stroke-linejoin:miter;stroke-miterlimit:10;stroke-dasharray:none;stroke-opacity:1"
       transform="matrix(0.03529436,0,0,-0.03529436,-11.449268,385.55286)"
       clip-path="url(#clipPath172)"
       id="path202" />
    <path
       d="m 1422.43,5930.59 v -150.91 l 62.36,-188.63"
       style="fill:none;stroke:#a14000;stroke-width:3.32877;stroke-linecap:butt;stroke-linejoin:miter;stroke-miterlimit:10;stroke-dasharray:none;stroke-opacity:1"
       transform="matrix(0.03529436,0,0,-0.03529436,-11.449268,385.55286)"
       clip-path="url(#clipPath173)"
       id="path203" />
    <path
       d="m 1422.43,5779.68 -62.58,-188.63"
       style="fill:none;stroke:#a14000;stroke-width:3.32877;stroke-linecap:butt;stroke-linejoin:miter;stroke-miterlimit:10;stroke-dasharray:none;stroke-opacity:1"
       transform="matrix(0.03529436,0,0,-0.03529436,-11.449268,385.55286)"
       clip-path="url(#clipPath174)"
       id="path204" />
    <path
       d="m 1513.86,5886.21 -91.43,-31.07 93.65,75.45"
       style="fill:none;stroke:#a14000;stroke-width:3.32877;stroke-linecap:butt;stroke-linejoin:miter;stroke-miterlimit:10;stroke-dasharray:none;stroke-opacity:1"
       transform="matrix(0.03529436,0,0,-0.03529436,-11.449268,385.55286)"
       clip-path="url(#clipPath175)"
       id="path205" />
    <path
       d="m 2361.14,6036 h 3.33"
       style="fill:none;stroke:#000000;stroke-width:3.32877;stroke-linecap:butt;stroke-linejoin:miter;stroke-miterlimit:10;stroke-dasharray:none;stroke-opacity:1"
       transform="matrix(0.03529436,0,0,-0.03529436,-11.449268,385.55286)"
       clip-path="url(#clipPath176)"
       id="path206" />
    <path
       d="m 2908.61,6502.03 v 0 c -12.87,0 -23.3,-10.44 -23.3,-23.3 v -119.84 c 0,-12.87 10.43,-23.3 23.3,-23.3 h 129.82 c 12.87,0 23.3,10.43 23.3,23.3 v 119.84 c 0,12.86 -10.43,23.3 -23.3,23.3"
       style="fill:#bde4ff;fill-opacity:1;fill-rule:evenodd;stroke:none"
       transform="matrix(0.03529436,0,0,-0.03529436,-11.449268,385.55286)"
       clip-path="url(#clipPath177)"
       id="path207" />
    <path
       d="m 2908.61,6502.03 v 0 c -12.87,0 -23.3,-10.44 -23.3,-23.3 v -119.84 c 0,-12.87 10.43,-23.3 23.3,-23.3 h 129.82 c 12.87,0 23.3,10.43 23.3,23.3 v 119.84 c 0,12.86 -10.43,23.3 -23.3,23.3 z"
       style="fill:none;stroke:#000000;stroke-width:9.9863;stroke-linecap:butt;stroke-linejoin:miter;stroke-miterlimit:10;stroke-dasharray:none;stroke-opacity:1"
       transform="matrix(0.03529436,0,0,-0.03529436,-11.449268,385.55286)"
       clip-path="url(#clipPath178)"
       id="path208" />
    <g
       aria-label="A&#10;q&#10;y&#10;x&#10;Joe the Plumber&#10;Contraption&#10;m&#10;contraption"
       transform="matrix(0.35294358,0,0,0.35294358,55.218957,177.21556)"
       clip-path="url(#clipPath179)"
       id="g211">
      <path
         d="M 4.0050884,-1.1708673 4.3799122,4.5717263e-4 H 5.6098029 L 3.606838,-5.8210255 H 2.2715281 L 0.20999706,4.5717263e-4 H 1.4281745 L 1.8147116,-1.1708673 Z M 3.6771175,-2.1782064 H 2.1543957 l 0.7613609,-2.2723694 z m 0,0"
         style="fill:#000000;fill-opacity:1;fill-rule:nonzero;stroke:none"
         id="path209" />
      <path
         d="m -24.88563,26.844286 c -0.327971,-0.187412 -0.550522,-0.257691 -0.843353,-0.257691 -0.925347,0 -1.616428,0.819927 -1.616428,1.874119 0,0.925346 0.480243,1.569574 1.171324,1.569574 0.421677,0 0.831641,-0.187411 1.147898,-0.538809 v 1.382163 c 0,0.409964 -0.140559,0.527096 -0.644228,0.550523 v 0.128845 h 1.721847 v -0.105419 c -0.398251,-0.09371 -0.445104,-0.140559 -0.456817,-0.456816 v -4.369041 l -0.08199,-0.01171 z m -0.140559,2.190377 c 0,0.175698 -0.02343,0.269404 -0.105419,0.327971 -0.152272,0.140558 -0.39825,0.222551 -0.620802,0.222551 -0.234265,0 -0.43339,-0.07028 -0.573949,-0.210838 -0.234265,-0.222552 -0.386537,-0.691082 -0.386537,-1.183038 0,-0.855067 0.386537,-1.393876 1.007339,-1.393876 0.456817,0 0.679368,0.245978 0.679368,0.726221 z m 0,0"
         style="fill:#000000;fill-opacity:1;fill-rule:nonzero;stroke:none"
         id="path210" />
      <path
         d="m -93.507674,-10.254489 -0.749648,2.6237672 -0.784787,-2.6237672 h -1.030766 l 1.33531,3.7365255 c 0,0.3748238 -0.234265,0.6325152 -0.573949,0.6325152 -0.07028,0 -0.128846,-0.011713 -0.245978,-0.046853 v 0.7027947 c 0.140559,0.023426 0.222551,0.023426 0.327971,0.023426 0.245978,0 0.503669,-0.046853 0.679368,-0.1054192 0.257691,-0.1054192 0.36311,-0.2576914 0.515383,-0.6910815 l 1.487582,-4.2519077 z m 21.3796,26.758908 1.171324,-1.792126 h -1.124471 l -0.573949,1.089331 -0.585663,-1.089331 h -1.124471 l 1.171324,1.792126 -1.194751,1.80384 h 1.124472 l 0.609089,-1.112758 0.597375,1.112758 h 1.124472 z m -17.596222,-41.658155 v 3.584253 c 0,0.363111 -0.199125,0.562236 -0.53881,0.562236 -0.386537,0 -0.538809,-0.187412 -0.538809,-0.632516 v -0.456816 h -0.995626 v 0.480243 c 0,0.503669 0.117133,0.808214 0.398251,1.077618 0.281118,0.257692 0.655941,0.386538 1.112758,0.386538 0.995626,0 1.557861,-0.515383 1.557861,-1.417303 v -3.584253 z m 3.46712,1.194751 c -1.101045,0 -1.7687,0.726221 -1.7687,1.909259 0,1.183038 0.667655,1.897546 1.780413,1.897546 1.089332,0 1.7687,-0.714508 1.7687,-1.87412 0,-1.218177 -0.655941,-1.932685 -1.780413,-1.932685 z m 0.01171,0.749648 c 0.50367,0 0.843354,0.468529 0.843354,1.171324 0,0.667655 -0.351397,1.136185 -0.843354,1.136185 -0.515382,0 -0.855066,-0.456817 -0.855066,-1.147898 0,-0.691082 0.339684,-1.159611 0.855066,-1.159611 z m 5.543293,1.405589 c 0,-0.08199 0,-0.117132 0,-0.163985 0,-0.363111 -0.04685,-0.691082 -0.140558,-0.948773 -0.234265,-0.644229 -0.819928,-1.042479 -1.546149,-1.042479 -1.030765,0 -1.663281,0.749648 -1.663281,1.956112 0,1.147898 0.632516,1.850693 1.651568,1.850693 0.808214,0 1.452442,-0.456817 1.663281,-1.159612 h -0.925347 c -0.105419,0.281118 -0.36311,0.445104 -0.702794,0.445104 -0.269405,0 -0.480243,-0.10542 -0.620802,-0.304545 -0.08199,-0.140559 -0.117133,-0.292831 -0.128846,-0.632515 z m -2.401215,-0.620802 c 0.05857,-0.550522 0.292831,-0.819927 0.702795,-0.819927 0.43339,0 0.679368,0.281118 0.726221,0.819927 z m 6.465711,-1.393876 h -0.515382 v -0.972199 h -0.93706 v 0.972199 h -0.456816 v 0.609089 h 0.456816 v 2.213803 c 0,0.562236 0.304544,0.843354 0.913633,0.843354 0.210839,0 0.363111,-0.02343 0.538809,-0.07028 v -0.655942 c -0.09371,0.01171 -0.140559,0.02343 -0.210838,0.02343 -0.245978,0 -0.304544,-0.07028 -0.304544,-0.39825 v -1.956112 h 0.515382 z m 0.65887,-1.33531 v 4.849283 h 0.93706 v -2.155237 c 0,-0.409963 0.292831,-0.702794 0.714508,-0.702794 0.210838,0 0.363111,0.07028 0.46853,0.222551 0.08199,0.117133 0.105419,0.210839 0.105419,0.445104 v 2.190376 h 0.925346 v -2.412928 c 0,-0.445103 -0.117132,-0.761361 -0.36311,-0.972199 -0.210839,-0.163986 -0.50367,-0.269405 -0.808214,-0.269405 -0.456817,0 -0.784788,0.187412 -1.042479,0.585662 v -1.780413 z m 7.112868,3.349988 c 0,-0.08199 0,-0.117132 0,-0.163985 0,-0.363111 -0.04685,-0.691082 -0.140559,-0.948773 -0.234265,-0.644229 -0.819927,-1.042479 -1.546148,-1.042479 -1.030765,0 -1.663281,0.749648 -1.663281,1.956112 0,1.147898 0.632516,1.850693 1.651568,1.850693 0.808214,0 1.452442,-0.456817 1.663281,-1.159612 h -0.925347 c -0.105419,0.281118 -0.36311,0.445104 -0.702794,0.445104 -0.269405,0 -0.480243,-0.10542 -0.620802,-0.304545 -0.08199,-0.140559 -0.117133,-0.292831 -0.128846,-0.632515 z m -2.401215,-0.620802 c 0.05857,-0.550522 0.292831,-0.819927 0.702795,-0.819927 0.43339,0 0.679368,0.281118 0.726221,0.819927 z m 5.962042,0.386537 h 1.253317 c 0.890207,0 1.464156,-0.632515 1.464156,-1.616428 0,-0.972199 -0.562236,-1.499295 -1.569575,-1.499295 h -2.143524 v 4.849283 h 0.995626 z m 0,-0.83164 v -1.452443 h 0.937059 c 0.527096,0 0.773074,0.234265 0.773074,0.726222 0,0.491956 -0.245978,0.726221 -0.773074,0.726221 z m 4.325115,-2.284083 h -0.937059 v 4.849283 h 0.937059 z m 4.064496,4.849283 v -3.595966 h -0.925346 v 2.248943 c 0,0.43339 -0.292831,0.702795 -0.749648,0.702795 -0.39825,0 -0.609088,-0.210839 -0.609088,-0.644229 v -2.307509 h -0.925347 v 2.506635 c 0,0.7965 0.43339,1.241604 1.206464,1.241604 0.480243,0 0.808214,-0.175699 1.077619,-0.573949 v 0.421676 z m 0.869709,-3.595966 v 3.595966 h 0.937059 v -2.155237 c 0,-0.445103 0.234265,-0.702794 0.632516,-0.702794 0.316257,0 0.503669,0.175698 0.503669,0.468529 v 2.389502 h 0.93706 v -2.155237 c 0,-0.445103 0.234265,-0.702794 0.632515,-0.702794 0.316257,0 0.515383,0.175698 0.515383,0.468529 v 2.389502 h 0.925346 v -2.541774 c 0,-0.702794 -0.421677,-1.112758 -1.147898,-1.112758 -0.456817,0 -0.773074,0.163985 -1.042479,0.538809 -0.175698,-0.339684 -0.538809,-0.538809 -0.983912,-0.538809 -0.409964,0 -0.679369,0.140559 -0.983913,0.50367 v -0.445104 z m 5.918117,-1.253317 v 4.849283 h 0.925346 v -0.36311 c 0.222552,0.351397 0.538809,0.515383 0.995626,0.515383 0.855067,0 1.511008,-0.819928 1.511008,-1.897546 0,-0.491956 -0.152272,-0.983913 -0.386537,-1.323597 -0.245978,-0.36311 -0.691081,-0.585662 -1.124471,-0.585662 -0.456817,0 -0.773074,0.163985 -0.995626,0.527096 v -1.721847 z m 1.710133,1.979538 c 0.456817,0 0.784788,0.456817 0.784788,1.124472 0,0.655942 -0.316258,1.124471 -0.784788,1.124471 -0.468529,0 -0.784787,-0.445103 -0.784787,-1.147898 0,-0.655941 0.316258,-1.101045 0.784787,-1.101045 z m 5.449588,1.37045 c 0,-0.08199 0,-0.117132 0,-0.163985 0,-0.363111 -0.04685,-0.691082 -0.140559,-0.948773 -0.234265,-0.644229 -0.819928,-1.042479 -1.546149,-1.042479 -1.030765,0 -1.66328,0.749648 -1.66328,1.956112 0,1.147898 0.632515,1.850693 1.651567,1.850693 0.808214,0 1.452442,-0.456817 1.663281,-1.159612 h -0.925347 c -0.105419,0.281118 -0.36311,0.445104 -0.702794,0.445104 -0.269405,0 -0.480243,-0.10542 -0.620802,-0.304545 -0.08199,-0.140559 -0.117133,-0.292831 -0.128846,-0.632515 z m -2.401216,-0.620802 c 0.05857,-0.550522 0.292831,-0.819927 0.702795,-0.819927 0.43339,0 0.679368,0.281118 0.726221,0.819927 z m 3.033731,-1.475869 v 3.595966 h 0.925346 v -1.909259 c 0,-0.550522 0.281118,-0.819927 0.819927,-0.819927 0.105419,0 0.163986,0.01171 0.292831,0.02343 v -0.93706 c -0.04685,-0.01171 -0.07028,-0.01171 -0.105419,-0.01171 -0.43339,0 -0.796501,0.281118 -1.007339,0.761361 v -0.702795 z m 73.834438,47.655337 c -0.02343,-0.421677 -0.117132,-0.679369 -0.316257,-0.960486 -0.374824,-0.491957 -0.9722,-0.761361 -1.698421,-0.761361 -1.37045,0 -2.225516,0.983912 -2.225516,2.553487 0,1.557862 0.843353,2.530061 2.190376,2.530061 1.218178,0 2.014678,-0.702795 2.073245,-1.80384 h -0.9722 c -0.07028,0.609089 -0.445103,0.960486 -1.065905,0.960486 -0.773074,0 -1.229891,-0.620802 -1.229891,-1.674994 0,-1.077618 0.480243,-1.710134 1.265031,-1.710134 0.573949,0 0.90192,0.281118 1.030765,0.866781 z m 2.278226,-0.445104 c -1.101045,0 -1.7687,0.726221 -1.7687,1.909259 0,1.183038 0.667655,1.897546 1.780414,1.897546 1.089331,0 1.768699,-0.714508 1.768699,-1.874119 0,-1.218178 -0.655941,-1.932686 -1.780413,-1.932686 z m 0.01171,0.749648 c 0.503669,0 0.843353,0.46853 0.843353,1.171324 0,0.667655 -0.351397,1.136185 -0.843353,1.136185 -0.515383,0 -0.855067,-0.456816 -0.855067,-1.147898 0,-0.691081 0.339684,-1.159611 0.855067,-1.159611 z m 2.474422,-0.691082 v 3.595967 h 0.925347 V 24.80911 c 0,-0.421677 0.292831,-0.702795 0.749647,-0.702795 0.409964,0 0.609089,0.222552 0.609089,0.644228 v 2.213804 h 0.925347 v -2.412929 c 0,-0.7965 -0.433391,-1.241604 -1.206465,-1.241604 -0.480243,0 -0.808214,0.175699 -1.077618,0.585663 V 23.36838 Z m 5.648713,0.08199 h -0.515383 v -0.972199 h -0.93706 v 0.972199 h -0.456816 v 0.609089 h 0.456816 v 2.213803 c 0,0.562236 0.304545,0.843354 0.913634,0.843354 0.210838,0 0.36311,-0.02343 0.538809,-0.07028 v -0.655941 c -0.09371,0.01171 -0.140559,0.02343 -0.210839,0.02343 -0.245978,0 -0.304544,-0.07028 -0.304544,-0.39825 v -1.956112 h 0.515383 z m 0.635443,-0.08199 v 3.595967 h 0.925347 v -1.909259 c 0,-0.550523 0.281118,-0.819927 0.819927,-0.819927 0.105419,0 0.163985,0.01171 0.292831,0.02343 v -0.937059 c -0.04685,-0.01171 -0.07028,-0.01171 -0.105419,-0.01171 -0.43339,0 -0.796501,0.281118 -1.007339,0.761361 V 23.36838 Z m 5.660426,3.478834 c -0.163986,-0.152272 -0.222552,-0.257691 -0.222552,-0.43339 v -2.002965 c 0,-0.726221 -0.491956,-1.101045 -1.464155,-1.101045 -0.9722,0 -1.475869,0.409964 -1.534435,1.241604 h 0.890206 c 0.04685,-0.36311 0.199125,-0.491956 0.667655,-0.491956 0.351397,0 0.538809,0.128846 0.538809,0.363111 0,0.117132 -0.05857,0.222551 -0.163985,0.281117 -0.128846,0.07028 -0.128846,0.07028 -0.585662,0.140559 l -0.374824,0.05857 c -0.714508,0.128845 -1.054192,0.491956 -1.054192,1.136184 0,0.644229 0.43339,1.077619 1.089332,1.077619 0.39825,0 0.76136,-0.163986 1.089331,-0.515383 0,0.187412 0.02343,0.257691 0.10542,0.363111 h 1.019052 z m -1.124472,-1.323596 c 0,0.538809 -0.269404,0.843353 -0.737934,0.843353 -0.316258,0 -0.515383,-0.163985 -0.515383,-0.43339 0,-0.281118 0.152272,-0.409963 0.538809,-0.491956 l 0.316258,-0.05857 c 0.245978,-0.04685 0.292831,-0.05857 0.39825,-0.117133 z m 2.647194,-2.155238 h -0.925347 v 5.048409 h 0.925347 V 26.54267 c 0.234265,0.39825 0.550522,0.585662 1.007339,0.585662 0.86678,0 1.499295,-0.819927 1.499295,-1.909259 0,-0.503669 -0.140559,-1.007339 -0.386537,-1.347023 -0.234265,-0.339684 -0.679368,-0.562236 -1.112758,-0.562236 -0.456817,0 -0.773074,0.199125 -1.007339,0.597376 z m 0.784787,0.726222 c 0.480243,0 0.796501,0.445103 0.796501,1.136184 0,0.667655 -0.327971,1.112759 -0.796501,1.112759 -0.46853,0 -0.784787,-0.445104 -0.784787,-1.124472 0,-0.679368 0.316257,-1.124471 0.784787,-1.124471 z m 3.973718,-0.644229 h -0.515382 v -0.972199 h -0.93706 v 0.972199 h -0.456817 v 0.609089 h 0.456817 v 2.213803 c 0,0.562236 0.304544,0.843354 0.913633,0.843354 0.210838,0 0.363111,-0.02343 0.538809,-0.07028 v -0.655941 c -0.09371,0.01171 -0.140559,0.02343 -0.210838,0.02343 -0.245978,0 -0.304544,-0.07028 -0.304544,-0.39825 v -1.956112 h 0.515382 z m 1.59593,-0.08199 h -0.93706 v 3.595967 h 0.93706 z m 0,-1.253317 h -0.93706 v 0.831641 h 0.93706 z m 2.471495,1.194751 c -1.101045,0 -1.7687,0.726221 -1.7687,1.909259 0,1.183038 0.667655,1.897546 1.780413,1.897546 1.089332,0 1.7687,-0.714508 1.7687,-1.874119 0,-1.218178 -0.655942,-1.932686 -1.780413,-1.932686 z m 0.01171,0.749648 c 0.503669,0 0.843353,0.46853 0.843353,1.171324 0,0.667655 -0.351397,1.136185 -0.843353,1.136185 -0.515383,0 -0.855067,-0.456816 -0.855067,-1.147898 0,-0.691081 0.339684,-1.159611 0.855067,-1.159611 z m 2.474423,-0.691082 v 3.595967 h 0.925356 v -2.15524 c 0,-0.421677 0.292831,-0.702795 0.749648,-0.702795 0.409963,0 0.609089,0.222552 0.609089,0.644228 v 2.213804 h 0.925346 v -2.412929 c 0,-0.7965 -0.43339,-1.241604 -1.206464,-1.241604 -0.480243,0 -0.808214,0.175699 -1.077619,0.585663 V 23.36838 Z M 103.43881,-53.52614 v 3.595966 h 0.93706 v -2.155237 c 0,-0.445103 0.23427,-0.702795 0.63252,-0.702795 0.31626,0 0.50367,0.175699 0.50367,0.46853 v 2.389502 h 0.93706 v -2.155237 c 0,-0.445103 0.23426,-0.702795 0.63251,-0.702795 0.31626,0 0.51539,0.175699 0.51539,0.46853 v 2.389502 h 0.92534 v -2.541774 c 0,-0.702795 -0.42168,-1.112758 -1.1479,-1.112758 -0.45681,0 -0.77307,0.163985 -1.04248,0.538809 -0.17569,-0.339684 -0.5388,-0.538809 -0.98391,-0.538809 -0.40996,0 -0.67937,0.140559 -0.98391,0.503669 V -53.52614 Z M 5.9084906,-40.530298 c -0.058566,-0.878493 -0.6442284,-1.405589 -1.5461483,-1.405589 -1.0776185,0 -1.6984205,0.702794 -1.6984205,1.932685 0,1.183038 0.620802,1.874119 1.6867073,1.874119 0.8667801,0 1.4758688,-0.538809 1.5578615,-1.393876 H 5.018284 c -0.1054192,0.46853 -0.2928311,0.644228 -0.6676549,0.644228 -0.4685298,0 -0.7496477,-0.421676 -0.7496477,-1.124471 0,-0.351397 0.070279,-0.655942 0.1756987,-0.878493 0.1054192,-0.199126 0.3162576,-0.304545 0.5856622,-0.304545 0.3748239,0 0.5505225,0.187412 0.6559417,0.655942 z m 2.2372298,-1.405589 c -1.101045,0 -1.7687,0.726221 -1.7687,1.909258 0,1.183038 0.667655,1.897546 1.7804132,1.897546 1.0893318,0 1.7687,-0.714508 1.7687,-1.874119 0,-1.218178 -0.6559417,-1.932685 -1.7804132,-1.932685 z m 0.011713,0.749647 c 0.5036696,0 0.8433537,0.46853 0.8433537,1.171325 0,0.667655 -0.3513974,1.136184 -0.8433537,1.136184 -0.5153827,0 -0.8550668,-0.456816 -0.8550668,-1.147898 0,-0.691081 0.3396841,-1.159611 0.8550668,-1.159611 z m 2.4744236,-0.691081 v 3.595966 h 0.925346 v -2.155237 c 0,-0.421677 0.292831,-0.702795 0.749648,-0.702795 0.409963,0 0.609088,0.222552 0.609088,0.644229 v 2.213803 h 0.925347 v -2.412928 c 0,-0.796501 -0.43339,-1.241604 -1.206465,-1.241604 -0.480243,0 -0.808213,0.175698 -1.077618,0.585662 v -0.527096 z m 5.648712,0.08199 h -0.515383 v -0.9722 h -0.937059 v 0.9722 H 14.37131 v 0.609088 h 0.456817 v 2.213803 c 0,0.562236 0.304544,0.843354 0.913633,0.843354 0.210838,0 0.36311,-0.02343 0.538809,-0.07028 v -0.655942 c -0.09371,0.01171 -0.140559,0.02343 -0.210839,0.02343 -0.245978,0 -0.304544,-0.07028 -0.304544,-0.39825 v -1.956112 h 0.515383 z m 0.635443,-0.08199 v 3.595966 h 0.925347 v -1.909259 c 0,-0.550522 0.281118,-0.819927 0.819927,-0.819927 0.105419,0 0.163985,0.01171 0.292831,0.02343 v -0.937059 c -0.04685,-0.01171 -0.07028,-0.01171 -0.105419,-0.01171 -0.43339,0 -0.796501,0.281117 -1.007339,0.76136 v -0.702794 z m 5.657498,3.478833 c -0.163986,-0.152272 -0.222552,-0.257691 -0.222552,-0.43339 v -2.002964 c 0,-0.726222 -0.491956,-1.101045 -1.464156,-1.101045 -0.972199,0 -1.475868,0.409963 -1.534435,1.241604 h 0.890207 c 0.04685,-0.363111 0.199125,-0.491957 0.667655,-0.491957 0.351397,0 0.538809,0.128846 0.538809,0.363111 0,0.117132 -0.05857,0.222551 -0.163985,0.281118 -0.128846,0.07028 -0.128846,0.07028 -0.585663,0.140559 l -0.374823,0.05857 c -0.714508,0.128846 -1.054192,0.491956 -1.054192,1.136185 0,0.644228 0.43339,1.077618 1.089331,1.077618 0.398251,0 0.761361,-0.163985 1.089332,-0.515383 0,0.187412 0.02343,0.257692 0.105419,0.363111 h 1.019053 z m -1.124472,-1.323596 c 0,0.538809 -0.269404,0.843353 -0.737934,0.843353 -0.316258,0 -0.515383,-0.163985 -0.515383,-0.43339 0,-0.281117 0.152272,-0.409963 0.538809,-0.491956 l 0.316258,-0.05857 c 0.245978,-0.04685 0.292831,-0.05857 0.39825,-0.117133 z m 2.647193,-2.155237 h -0.925346 v 5.048408 h 0.925346 v -1.874119 c 0.234265,0.39825 0.550523,0.585662 1.00734,0.585662 0.86678,0 1.499295,-0.819927 1.499295,-1.909259 0,-0.503669 -0.140559,-1.007339 -0.386537,-1.347023 -0.234265,-0.339684 -0.679368,-0.562235 -1.112758,-0.562235 -0.456817,0 -0.773075,0.199125 -1.00734,0.597375 z m 0.784788,0.726221 c 0.480243,0 0.796501,0.445103 0.796501,1.136185 0,0.667655 -0.327971,1.112758 -0.796501,1.112758 -0.46853,0 -0.784788,-0.445103 -0.784788,-1.124472 0,-0.679368 0.316258,-1.124471 0.784788,-1.124471 z m 3.976646,-0.644228 h -0.515382 v -0.9722 h -0.93706 v 0.9722 h -0.456816 v 0.609088 h 0.456816 v 2.213803 c 0,0.562236 0.304544,0.843354 0.913633,0.843354 0.210839,0 0.363111,-0.02343 0.538809,-0.07028 v -0.655942 c -0.0937,0.01171 -0.140558,0.02343 -0.210838,0.02343 -0.245978,0 -0.304544,-0.07028 -0.304544,-0.39825 v -1.956112 h 0.515382 z m 1.59593,-0.08199 h -0.93706 v 3.595966 h 0.93706 z m 0,-1.253317 h -0.93706 v 0.83164 h 0.93706 z m 2.471495,1.194751 c -1.101045,0 -1.7687,0.726221 -1.7687,1.909258 0,1.183038 0.667655,1.897546 1.780413,1.897546 1.089332,0 1.7687,-0.714508 1.7687,-1.874119 0,-1.218178 -0.655942,-1.932685 -1.780413,-1.932685 z m 0.01171,0.749647 c 0.503669,0 0.843354,0.46853 0.843354,1.171325 0,0.667655 -0.351398,1.136184 -0.843354,1.136184 -0.515383,0 -0.855067,-0.456816 -0.855067,-1.147898 0,-0.691081 0.339684,-1.159611 0.855067,-1.159611 z m 2.474423,-0.691081 v 3.595966 h 0.925346 v -2.155237 c 0,-0.421677 0.292831,-0.702795 0.749648,-0.702795 0.409963,0 0.609089,0.222552 0.609089,0.644229 v 2.213803 h 0.925346 v -2.412928 c 0,-0.796501 -0.43339,-1.241604 -1.206464,-1.241604 -0.480243,0 -0.808214,0.175698 -1.077619,0.585662 v -0.527096 z m 0,0"
         style="fill:#000000;fill-opacity:1;fill-rule:nonzero;stroke:none"
         id="path211" />
    </g>
    <path
       d="m 2862.01,6701.75 v 0 16.65"
       style="fill:#d9d9d9;fill-opacity:1;fill-rule:evenodd;stroke:none"
       transform="matrix(0.03529436,0,0,-0.03529436,-11.449268,385.55286)"
       clip-path="url(#clipPath180)"
       id="path212" />
    <path
       d="m 2860.45,6485.38 h 3.34"
       style="fill:none;stroke:#000000;stroke-width:3.32877;stroke-linecap:butt;stroke-linejoin:miter;stroke-miterlimit:10;stroke-dasharray:none;stroke-opacity:1"
       transform="matrix(0.03529436,0,0,-0.03529436,-11.449268,385.55286)"
       clip-path="url(#clipPath181)"
       id="path213" />
    <path
       d="M 1963.24,5952.78 2279.47,6036"
       style="fill:none;stroke:#000000;stroke-width:3.32877;stroke-linecap:butt;stroke-linejoin:miter;stroke-miterlimit:10;stroke-dasharray:none;stroke-opacity:1"
       transform="matrix(0.03529436,0,0,-0.03529436,-11.449268,385.55286)"
       clip-path="url(#clipPath182)"
       id="path214" />
    <path
       d="m 2224.21,6007.82 48.16,26.4 -55.03,-0.66"
       style="fill:none;stroke:#000000;stroke-width:3.32877;stroke-linecap:butt;stroke-linejoin:miter;stroke-miterlimit:10;stroke-dasharray:none;stroke-opacity:1"
       transform="matrix(0.03529436,0,0,-0.03529436,-11.449268,385.55286)"
       clip-path="url(#clipPath183)"
       id="path215" />
    <path
       d="M 2878.65,6535.32 V 5986.07"
       style="fill:none;stroke:#000000;stroke-width:3.32877;stroke-linecap:butt;stroke-linejoin:miter;stroke-miterlimit:10;stroke-dasharray:none;stroke-opacity:1"
       transform="matrix(0.03529436,0,0,-0.03529436,-11.449268,385.55286)"
       clip-path="url(#clipPath184)"
       id="path216" />
    <path
       d="M 5225.43,6601.89 997.898,5503.4 H 5225.43"
       style="fill:#bfbff4;fill-opacity:1;fill-rule:evenodd;stroke:none"
       transform="matrix(0.03529436,0,0,-0.03529436,-11.449268,385.55286)"
       clip-path="url(#clipPath185)"
       id="path217" />
    <path
       d="M 5225.43,6601.89 997.898,5503.4 H 5225.43 Z"
       style="fill:none;stroke:#000000;stroke-width:6.65753;stroke-linecap:butt;stroke-linejoin:miter;stroke-miterlimit:10;stroke-dasharray:none;stroke-opacity:1"
       transform="matrix(0.03529436,0,0,-0.03529436,-11.449268,385.55286)"
       clip-path="url(#clipPath186)"
       id="path218" />
    <g
       aria-label="θ&#10;ramp"
       transform="matrix(0.35294358,0,0,0.35294358,41.981457,190.1393)"
       clip-path="url(#clipPath187)"
       id="g220">
      <path
         d="m 2.2834316,-5.9395548 c -0.3396841,0 -0.6793682,0.140559 -1.007339,0.4099636 -0.58566227,0.4685298 -0.90191988,1.3938761 -0.90191988,2.6237668 0,1.1361848 0.28111787,2.02639138 0.79650068,2.51834766 0.3396841,0.32797086 0.7379344,0.50366953 1.1127582,0.50366953 0.3396841,0 0.6793682,-0.14055894 1.0073391,-0.40996357 0.5856622,-0.48024304 0.9019198,-1.39387612 0.9019198,-2.57691382 0,-1.1830378 -0.2694046,-2.0615311 -0.7965006,-2.5652006 C 3.068219,-5.7521428 2.6699687,-5.9395548 2.2834316,-5.9395548 Z m 1.0190523,3.2328556 c -0.011713,0.9956258 -0.1171324,1.5578616 -0.3631106,2.0146781 -0.1639854,0.26940463 -0.43339,0.46852979 -0.6559417,0.46852979 -0.2225516,0 -0.5036695,-0.19912516 -0.6442284,-0.46852979 C 1.3815118,-1.1488376 1.2760926,-1.7110734 1.2643793,-2.7066992 Z M 1.2643793,-3.1869422 C 1.2760926,-4.1357151 1.393225,-4.6979508 1.6392032,-5.1547674 1.7797621,-5.424172 2.06088,-5.6232972 2.2834316,-5.6232972 c 0.2225517,0 0.4919563,0.1991252 0.6559417,0.4685298 0.2342649,0.4568166 0.3513974,1.0190523 0.3631106,1.9678252 z m 0,0"
         style="fill:#000000;fill-opacity:1;fill-rule:nonzero;stroke:none"
         id="path219" />
      <path
         d="m 102.64837,-25.565096 v 3.595966 h 0.92535 v -1.909259 c 0,-0.550523 0.28111,-0.819927 0.81992,-0.819927 0.10542,0 0.16399,0.01171 0.29283,0.02343 v -0.937059 c -0.0469,-0.01171 -0.0703,-0.01171 -0.10542,-0.01171 -0.43339,0 -0.7965,0.281118 -1.00733,0.761361 v -0.702794 z m 5.6575,3.478833 c -0.16399,-0.152272 -0.22255,-0.257691 -0.22255,-0.43339 v -2.002965 c 0,-0.726221 -0.49196,-1.101045 -1.46416,-1.101045 -0.9722,0 -1.47587,0.409964 -1.53444,1.241604 h 0.89021 c 0.0469,-0.36311 0.19913,-0.491956 0.66766,-0.491956 0.35139,0 0.53881,0.128846 0.53881,0.363111 0,0.117132 -0.0586,0.222551 -0.16399,0.281118 -0.12885,0.07028 -0.12885,0.07028 -0.58566,0.140558 l -0.37483,0.05857 c -0.7145,0.128845 -1.05419,0.491956 -1.05419,1.136184 0,0.644229 0.43339,1.077619 1.08933,1.077619 0.39825,0 0.76136,-0.163985 1.08934,-0.515383 0,0.187412 0.0234,0.257692 0.10541,0.363111 h 1.01906 z m -1.12447,-1.323596 c 0,0.538809 -0.26941,0.843353 -0.73794,0.843353 -0.31626,0 -0.51538,-0.163985 -0.51538,-0.43339 0,-0.281118 0.15227,-0.409963 0.53881,-0.491956 l 0.31625,-0.05857 c 0.24598,-0.04685 0.29284,-0.05857 0.39826,-0.117133 z m 1.73648,-2.155237 v 3.595966 h 0.93706 v -2.155237 c 0,-0.445104 0.23427,-0.702795 0.63252,-0.702795 0.31626,0 0.50367,0.175699 0.50367,0.46853 v 2.389502 h 0.93706 v -2.155237 c 0,-0.445104 0.23426,-0.702795 0.63251,-0.702795 0.31626,0 0.51539,0.175699 0.51539,0.46853 v 2.389502 h 0.92534 v -2.541774 c 0,-0.702795 -0.42167,-1.112759 -1.1479,-1.112759 -0.45681,0 -0.77307,0.163986 -1.04247,0.53881 -0.1757,-0.339684 -0.53881,-0.53881 -0.98392,-0.53881 -0.40996,0 -0.67937,0.140559 -0.98391,0.50367 v -0.445103 z m 6.83175,0 h -0.92534 v 5.048408 h 0.92534 v -1.874119 c 0.23427,0.39825 0.55053,0.585662 1.00734,0.585662 0.86678,0 1.4993,-0.819927 1.4993,-1.909259 0,-0.503669 -0.14056,-1.007339 -0.38654,-1.347023 -0.23426,-0.339684 -0.67937,-0.562236 -1.11276,-0.562236 -0.45681,0 -0.77307,0.199126 -1.00734,0.597376 z m 0.78479,0.726221 c 0.48024,0 0.7965,0.445103 0.7965,1.136185 0,0.667654 -0.32797,1.112758 -0.7965,1.112758 -0.46853,0 -0.78479,-0.445104 -0.78479,-1.124472 0,-0.679368 0.31626,-1.124471 0.78479,-1.124471 z m 0,0"
         style="fill:#000000;fill-opacity:1;fill-rule:nonzero;stroke:none"
         id="path220" />
    </g>
  </g>
</svg>
