<svg version="1.1" xmlns="http://www.w3.org/2000/svg" viewBox="0 0 529.5238603864397 617.1428571428571" width="529.5238603864397" height="617.1428571428571" filter="invert(93%) hue-rotate(180deg)">
  <!-- svg-source:excalidraw -->
  
  <defs>
    <style>
      @font-face {
        font-family: "Virgil";
        src: url("https://unpkg.com/@zsviczian/excalidraw@0.11.0-obsidian-25/dist/excalidraw-assets/Virgil.woff2");
      }
      @font-face {
        font-family: "Cascadia";
        src: url("https://unpkg.com/@zsviczian/excalidraw@0.11.0-obsidian-25/dist/excalidraw-assets/Cascadia.woff2");
      }
    </style>
  </defs>
  <rect x="0" y="0" width="529.5238603864397" height="617.1428571428571" fill="#ffffff"/><g transform="translate(68.92262922014504 310.2812619890485) rotate(0 162.33334350585938 10.33331298828125)" stroke="none"><path fill="#000000" d="M -0.28,-1.96 Q -0.28,-1.96 2.36,-2.63 5.00,-3.30 7.06,-3.66 9.13,-4.02 11.09,-4.20 13.05,-4.37 15.05,-4.45 17.05,-4.53 19.04,-4.57 21.04,-4.60 23.23,-4.62 25.43,-4.64 28.18,-4.45 30.93,-4.27 33.91,-4.19 36.90,-4.12 40.73,-3.89 44.56,-3.67 51.28,-3.57 58.00,-3.48 63.13,-3.63 68.26,-3.78 72.59,-3.85 76.92,-3.92 80.61,-4.13 84.30,-4.35 88.04,-4.45 91.79,-4.54 95.49,-4.58 99.19,-4.62 102.68,-4.64 106.17,-4.66 111.58,-4.28 117.00,-3.90 121.07,-3.35 125.14,-2.79 128.54,-2.37 131.94,-1.95 135.36,-1.38 138.79,-0.81 142.16,-0.18 145.54,0.43 148.81,0.88 152.09,1.32 155.40,1.71 158.71,2.09 161.85,2.44 164.98,2.80 168.23,3.14 171.47,3.48 174.69,3.62 177.90,3.76 181.00,3.82 184.09,3.87 188.85,3.90 193.61,3.92 196.98,3.93 200.35,3.94 203.03,4.14 205.71,4.34 207.72,4.42 209.73,4.50 211.85,4.74 213.97,4.97 216.20,5.26 218.42,5.55 220.89,5.87 223.35,6.18 227.35,6.90 231.34,7.62 234.33,8.11 237.32,8.60 239.92,9.00 242.53,9.40 244.98,9.76 247.43,10.12 249.63,10.46 251.84,10.81 254.10,11.15 256.37,11.49 258.61,12.04 260.85,12.59 262.84,12.99 264.84,13.40 266.83,13.76 268.83,14.12 270.82,14.47 272.82,14.82 274.99,15.15 277.16,15.49 279.25,15.83 281.35,16.17 284.36,16.70 287.37,17.23 289.50,17.44 291.63,17.65 293.66,17.74 295.68,17.83 297.64,18.07 299.59,18.31 301.25,18.40 302.90,18.50 304.37,18.54 305.84,18.58 307.42,18.60 308.99,18.62 311.13,18.85 313.27,19.08 314.65,19.18 316.03,19.28 317.19,19.34 318.34,19.41 319.82,19.79 321.30,20.17 322.85,20.76 324.40,21.34 324.61,21.38 324.82,21.42 325.01,21.52 325.20,21.62 325.34,21.78 325.48,21.94 325.57,22.13 325.66,22.33 325.67,22.54 325.69,22.75 325.65,22.96 325.60,23.16 325.48,23.34 325.37,23.52 325.21,23.66 325.04,23.79 324.85,23.87 324.65,23.94 324.43,23.95 324.22,23.96 324.02,23.90 323.81,23.84 323.64,23.72 323.47,23.60 323.34,23.43 323.21,23.25 323.15,23.05 323.09,22.85 323.09,22.64 323.09,22.42 323.16,22.22 323.23,22.02 323.36,21.86 323.50,21.69 323.67,21.57 323.85,21.46 324.06,21.40 324.26,21.35 324.47,21.36 324.69,21.38 324.88,21.46 325.08,21.54 325.24,21.68 325.40,21.82 325.51,22.01 325.61,22.19 325.65,22.40 325.70,22.61 325.67,22.82 325.64,23.03 325.55,23.22 325.46,23.41 325.31,23.56 325.16,23.72 324.97,23.81 324.78,23.91 324.57,23.94 324.36,23.97 324.36,23.97 324.36,23.97 322.53,24.43 320.69,24.89 319.42,24.68 318.15,24.48 316.93,24.47 315.72,24.46 314.24,24.39 312.75,24.32 310.84,24.15 308.93,23.98 307.31,23.97 305.69,23.95 304.14,23.91 302.60,23.87 300.76,23.76 298.93,23.66 297.18,23.43 295.44,23.21 293.27,23.11 291.10,23.01 288.77,22.77 286.44,22.54 283.46,22.02 280.49,21.50 278.41,21.16 276.34,20.83 274.12,20.49 271.90,20.15 269.88,19.79 267.86,19.44 265.81,19.07 263.76,18.70 261.65,18.27 259.55,17.84 257.56,17.34 255.57,16.84 253.28,16.50 251.00,16.16 248.82,15.81 246.64,15.47 244.17,15.11 241.71,14.74 239.08,14.34 236.44,13.94 233.41,13.44 230.38,12.94 226.53,12.24 222.67,11.55 220.20,11.23 217.72,10.92 215.55,10.63 213.37,10.35 211.44,10.13 209.51,9.91 207.41,9.82 205.30,9.73 202.82,9.54 200.33,9.35 196.96,9.34 193.58,9.32 188.78,9.30 183.99,9.27 180.83,9.20 177.67,9.13 174.29,8.98 170.91,8.83 167.64,8.49 164.38,8.14 161.23,7.79 158.09,7.43 154.72,7.04 151.36,6.65 147.96,6.18 144.55,5.72 141.23,5.10 137.90,4.48 134.59,3.93 131.28,3.37 127.85,2.95 124.41,2.52 120.51,1.99 116.62,1.45 111.41,1.08 106.19,0.71 102.72,0.72 99.25,0.74 95.59,0.78 91.92,0.82 88.27,0.91 84.61,1.00 80.80,1.22 77.00,1.44 72.70,1.50 68.41,1.56 63.17,1.71 57.93,1.86 51.08,1.77 44.24,1.67 40.50,1.44 36.76,1.21 33.66,1.13 30.55,1.05 28.00,0.86 25.45,0.68 23.28,0.68 21.12,0.68 19.17,0.70 17.22,0.72 15.35,0.77 13.47,0.82 11.73,0.94 9.99,1.07 7.86,1.41 5.72,1.76 3.00,1.86 0.28,1.96 0.04,1.96 -0.19,1.97 -0.43,1.92 -0.66,1.86 -0.87,1.76 -1.09,1.65 -1.27,1.50 -1.45,1.34 -1.59,1.15 -1.73,0.95 -1.82,0.73 -1.91,0.51 -1.94,0.27 -1.98,0.04 -1.95,-0.19 -1.93,-0.43 -1.85,-0.65 -1.77,-0.88 -1.64,-1.08 -1.51,-1.28 -1.33,-1.44 -1.16,-1.60 -0.95,-1.72 -0.74,-1.83 -0.51,-1.90 -0.28,-1.96 -0.28,-1.96 L -0.28,-1.96 Z"/></g><g transform="translate(403.5893162318638 322.947887965611) rotate(0 8.33331298828125 11.333343505859375)" stroke="none"><path fill="#000000" d="M 1.45,-1.24 Q 1.45,-1.24 2.78,-0.06 4.12,1.12 5.09,2.57 6.06,4.03 7.02,5.58 7.98,7.13 8.83,8.85 9.67,10.56 10.41,12.25 11.14,13.94 11.80,15.38 12.46,16.82 12.91,17.83 13.36,18.83 14.04,16.79 14.71,14.74 14.82,13.57 14.93,12.39 15.16,11.14 15.39,9.89 13.93,10.47 12.46,11.05 11.33,12.01 10.19,12.98 9.23,14.21 8.27,15.45 7.21,16.79 6.15,18.13 5.06,19.33 3.96,20.53 1.00,21.20 -1.95,21.86 -2.08,21.70 -2.22,21.54 -2.29,21.34 -2.37,21.14 -2.38,20.93 -2.39,20.72 -2.33,20.51 -2.27,20.31 -2.15,20.13 -2.03,19.96 -1.86,19.83 -1.69,19.71 -1.49,19.64 -1.28,19.57 -1.07,19.58 -0.86,19.58 -0.66,19.65 -0.46,19.72 -0.29,19.85 -0.12,19.98 -0.00,20.16 0.10,20.33 0.16,20.54 0.21,20.74 0.20,20.96 0.18,21.17 0.10,21.37 0.02,21.56 -0.11,21.72 -0.25,21.88 -0.43,21.99 -0.61,22.10 -0.82,22.14 -1.03,22.18 -1.24,22.16 -1.45,22.13 -1.64,22.04 -1.83,21.95 -1.99,21.80 -2.14,21.66 -2.24,21.47 -2.33,21.28 -2.37,21.07 -2.40,20.86 -2.36,20.65 -2.33,20.44 -2.22,20.25 -2.12,20.07 -1.97,19.92 -1.81,19.78 -1.62,19.69 -1.42,19.60 -1.21,19.58 -1.00,19.56 -0.79,19.61 -0.59,19.66 -0.41,19.77 -0.22,19.88 -0.22,19.88 -0.22,19.88 0.08,18.63 0.39,17.38 1.34,16.26 2.29,15.15 3.34,13.75 4.39,12.35 5.69,10.75 6.98,9.15 8.45,7.95 9.92,6.75 11.41,5.90 12.90,5.05 14.68,4.78 16.45,4.51 18.14,6.44 19.82,8.36 19.83,9.58 19.85,10.81 19.57,11.84 19.29,12.88 19.10,14.36 18.91,15.85 18.50,17.33 18.10,18.81 17.66,19.83 17.21,20.85 16.43,21.90 15.65,22.95 14.44,23.37 13.22,23.80 12.04,23.36 10.85,22.91 10.02,21.88 9.20,20.85 8.68,19.85 8.16,18.84 7.45,17.35 6.73,15.87 6.03,14.27 5.33,12.68 4.60,11.18 3.88,9.68 2.95,8.17 2.02,6.67 1.24,5.46 0.47,4.24 -0.48,2.74 -1.45,1.24 -1.57,1.05 -1.70,0.86 -1.78,0.64 -1.86,0.42 -1.88,0.19 -1.91,-0.03 -1.88,-0.25 -1.84,-0.48 -1.76,-0.70 -1.67,-0.91 -1.54,-1.10 -1.41,-1.29 -1.23,-1.44 -1.06,-1.59 -0.85,-1.69 -0.64,-1.79 -0.42,-1.85 -0.19,-1.90 0.03,-1.89 0.26,-1.89 0.48,-1.83 0.70,-1.77 0.90,-1.66 1.11,-1.55 1.28,-1.40 1.45,-1.24 1.45,-1.24 L 1.45,-1.24 Z"/></g><g transform="translate(379.5893162318638 318.2812619890485) rotate(0 5.666656494140625 10.33331298828125)" stroke="none"><path fill="#000000" d="M 1.40,-0.40 Q 1.40,-0.40 2.06,0.86 2.72,2.12 2.95,3.17 3.18,4.23 3.30,5.31 3.41,6.39 3.50,8.64 3.59,10.89 3.40,12.33 3.21,13.78 2.68,16.34 2.14,18.90 1.96,19.62 1.79,20.34 1.67,20.59 1.55,20.84 1.37,21.06 1.19,21.27 0.97,21.44 0.74,21.61 0.49,21.72 0.23,21.82 -0.04,21.87 -0.31,21.91 -0.59,21.89 -0.87,21.87 -1.13,21.78 -1.40,21.69 -1.63,21.54 -1.87,21.39 -2.06,21.19 -2.25,20.99 -2.39,20.74 -2.53,20.50 -2.61,20.23 -2.69,19.97 -2.70,19.69 -2.71,19.41 -2.65,19.13 -2.59,18.86 -2.76,17.42 -2.92,15.98 -2.93,14.64 -2.94,13.31 -2.94,11.97 -2.95,10.64 -2.97,9.49 -2.99,8.35 -3.00,6.92 -3.02,5.49 -1.88,3.90 -0.75,2.30 0.84,2.47 2.45,2.63 3.49,2.96 4.54,3.29 5.72,3.89 6.91,4.48 7.98,5.12 9.05,5.76 10.08,6.42 11.11,7.07 12.04,7.80 12.96,8.52 14.32,10.16 15.69,11.79 15.84,12.89 15.99,13.99 15.71,15.03 15.44,16.06 14.49,17.20 13.54,18.35 12.56,19.12 11.58,19.89 10.15,20.53 8.72,21.18 7.36,21.61 6.00,22.04 4.90,22.40 3.80,22.75 1.05,22.35 -1.69,21.95 -1.91,21.94 -2.12,21.93 -2.32,21.85 -2.51,21.77 -2.68,21.64 -2.84,21.50 -2.95,21.32 -3.06,21.14 -3.11,20.93 -3.15,20.72 -3.13,20.51 -3.11,20.30 -3.02,20.11 -2.93,19.91 -2.79,19.76 -2.64,19.60 -2.46,19.50 -2.27,19.40 -2.06,19.37 -1.85,19.33 -1.64,19.36 -1.43,19.40 -1.24,19.50 -1.05,19.59 -0.91,19.75 -0.76,19.90 -0.67,20.09 -0.58,20.29 -0.56,20.50 -0.53,20.71 -0.58,20.92 -0.62,21.12 -0.73,21.31 -0.84,21.49 -1.00,21.63 -1.16,21.77 -1.36,21.85 -1.55,21.93 -1.77,21.94 -1.98,21.95 -2.18,21.89 -2.39,21.84 -2.57,21.72 -2.74,21.60 -2.87,21.43 -3.00,21.27 -3.07,21.06 -3.14,20.86 -3.14,20.65 -3.14,20.44 -3.07,20.24 -3.01,20.03 -2.88,19.86 -2.75,19.70 -2.58,19.58 -2.40,19.46 -2.20,19.40 -1.99,19.34 -1.99,19.34 -1.99,19.34 0.06,18.43 2.12,17.52 3.23,17.15 4.35,16.79 6.31,16.14 8.27,15.50 9.59,14.28 10.91,13.07 9.75,12.05 8.58,11.03 7.61,10.40 6.64,9.77 4.88,8.76 3.11,7.75 2.40,6.62 1.68,5.49 1.67,6.92 1.65,8.35 1.64,9.49 1.62,10.63 1.62,11.96 1.62,13.29 1.62,14.61 1.63,15.93 1.43,17.06 1.23,18.18 1.51,19.26 1.79,20.34 1.67,20.59 1.55,20.84 1.37,21.06 1.19,21.27 0.97,21.44 0.74,21.61 0.49,21.72 0.23,21.82 -0.04,21.87 -0.31,21.91 -0.59,21.89 -0.87,21.87 -1.13,21.78 -1.40,21.69 -1.63,21.54 -1.87,21.39 -2.06,21.19 -2.25,20.99 -2.39,20.74 -2.53,20.50 -2.61,20.23 -2.69,19.97 -2.70,19.69 -2.71,19.41 -2.65,19.13 -2.59,18.86 -2.05,17.18 -1.51,15.50 -1.42,14.31 -1.33,13.12 -1.14,12.02 -0.96,10.92 -0.95,8.81 -0.95,6.70 -1.07,4.97 -1.19,3.24 -1.30,1.82 -1.40,0.40 -1.43,0.22 -1.46,0.05 -1.44,-0.12 -1.43,-0.29 -1.37,-0.46 -1.32,-0.63 -1.22,-0.78 -1.13,-0.93 -1.00,-1.05 -0.87,-1.17 -0.72,-1.26 -0.56,-1.35 -0.39,-1.39 -0.22,-1.44 -0.05,-1.45 0.12,-1.46 0.29,-1.42 0.46,-1.38 0.62,-1.31 0.78,-1.23 0.92,-1.12 1.06,-1.01 1.16,-0.86 1.27,-0.72 1.34,-0.56 1.40,-0.40 1.40,-0.40 L 1.40,-0.40 Z"/></g><g transform="translate(56.92262922014504 298.947887965611) rotate(0 -2.66668701171875 10.3333740234375)" stroke="none"><path fill="#000000" d="M -1.37,-0.68 Q -1.37,-0.68 -1.10,-1.72 -0.82,-2.75 0.11,-3.45 1.05,-4.14 2.41,-3.63 3.76,-3.11 4.35,-1.98 4.95,-0.84 5.34,1.57 5.74,3.98 5.97,5.36 6.19,6.74 6.31,8.45 6.42,10.16 6.65,11.69 6.87,13.22 7.13,15.26 7.40,17.30 7.51,18.60 7.62,19.90 6.54,22.47 5.45,25.04 4.07,24.74 2.69,24.43 1.73,23.61 0.76,22.79 -2.25,20.54 -5.27,18.30 -6.80,17.31 -8.32,16.32 -9.59,15.49 -10.86,14.67 -11.84,14.22 -12.82,13.77 -13.84,13.13 -14.85,12.50 -15.10,12.33 -15.35,12.17 -15.56,11.94 -15.76,11.72 -15.91,11.46 -16.05,11.20 -16.13,10.91 -16.21,10.62 -16.22,10.32 -16.22,10.02 -16.16,9.72 -16.09,9.43 -15.96,9.16 -15.82,8.89 -15.63,8.66 -15.44,8.43 -15.19,8.26 -14.95,8.08 -14.67,7.97 -14.39,7.85 -14.09,7.81 -13.80,7.77 -13.50,7.80 -13.20,7.83 -12.91,7.93 -12.63,8.03 -11.12,7.77 -9.61,7.51 -7.14,7.05 -4.67,6.58 -3.59,6.00 -2.52,5.41 -1.28,4.61 -0.04,3.81 1.00,2.97 2.05,2.14 3.52,0.83 4.99,-0.46 6.39,-1.63 7.78,-2.81 7.94,-2.96 8.09,-3.10 8.29,-3.19 8.48,-3.28 8.69,-3.30 8.90,-3.32 9.11,-3.27 9.32,-3.22 9.50,-3.11 9.68,-3.00 9.82,-2.84 9.95,-2.67 10.03,-2.48 10.11,-2.28 10.12,-2.07 10.13,-1.85 10.07,-1.65 10.01,-1.44 9.89,-1.27 9.77,-1.09 9.60,-0.97 9.43,-0.84 9.22,-0.77 9.02,-0.71 8.81,-0.71 8.60,-0.71 8.40,-0.78 8.20,-0.85 8.03,-0.98 7.86,-1.11 7.74,-1.29 7.62,-1.47 7.57,-1.67 7.51,-1.88 7.53,-2.09 7.54,-2.30 7.62,-2.50 7.70,-2.69 7.84,-2.85 7.98,-3.02 8.16,-3.12 8.35,-3.23 8.55,-3.27 8.76,-3.32 8.97,-3.29 9.18,-3.27 9.38,-3.18 9.57,-3.09 9.72,-2.94 9.87,-2.79 9.97,-2.60 10.07,-2.41 10.10,-2.20 10.13,-1.99 10.10,-1.79 10.06,-1.58 9.96,-1.39 9.86,-1.20 9.86,-1.20 9.86,-1.20 8.95,0.58 8.05,2.38 6.62,4.18 5.20,5.98 3.95,7.03 2.69,8.09 1.21,9.02 -0.26,9.96 -1.97,10.76 -3.69,11.55 -5.21,11.83 -6.73,12.11 -8.13,12.32 -9.54,12.52 -11.03,12.53 -12.53,12.53 -13.69,12.51 -14.85,12.50 -15.10,12.33 -15.35,12.17 -15.56,11.94 -15.76,11.72 -15.91,11.46 -16.05,11.20 -16.13,10.91 -16.21,10.62 -16.22,10.32 -16.22,10.02 -16.16,9.72 -16.09,9.43 -15.96,9.16 -15.82,8.89 -15.63,8.66 -15.44,8.43 -15.19,8.26 -14.95,8.08 -14.67,7.97 -14.39,7.85 -14.09,7.81 -13.80,7.77 -13.50,7.80 -13.20,7.83 -12.92,7.93 -12.63,8.03 -11.59,8.60 -10.55,9.18 -9.31,9.82 -8.07,10.47 -6.82,11.32 -5.57,12.18 -3.87,13.33 -2.17,14.49 -0.31,16.02 1.54,17.55 3.34,18.85 5.14,20.14 3.90,20.27 2.67,20.40 2.53,19.20 2.40,18.01 2.08,15.98 1.76,13.95 1.52,12.22 1.27,10.49 1.18,9.02 1.09,7.56 0.77,4.99 0.45,2.41 0.20,1.35 -0.04,0.30 1.15,-0.00 2.36,-0.30 1.86,0.18 1.37,0.68 1.27,0.84 1.16,0.99 1.03,1.12 0.89,1.24 0.73,1.33 0.57,1.42 0.39,1.47 0.21,1.52 0.02,1.52 -0.15,1.52 -0.33,1.48 -0.51,1.44 -0.68,1.36 -0.84,1.28 -0.98,1.16 -1.12,1.04 -1.23,0.89 -1.34,0.74 -1.41,0.56 -1.48,0.39 -1.50,0.21 -1.53,0.03 -1.51,-0.15 -1.49,-0.33 -1.43,-0.51 -1.37,-0.68 -1.37,-0.68 L -1.37,-0.68 Z"/></g><g transform="translate(218.2559422084263 147.61457497732977) rotate(0 -1.999969482421875 140.33334350585938)" stroke="none"><path fill="#000000" d="M 1.61,0.16 Q 1.61,0.16 1.63,2.09 1.65,4.03 1.61,6.50 1.57,8.98 1.39,12.96 1.20,16.94 1.14,22.03 1.07,27.12 1.05,32.93 1.02,38.74 1.21,45.20 1.39,51.66 1.66,58.24 1.93,64.82 2.43,71.61 2.92,78.40 3.33,85.92 3.73,93.45 4.28,101.41 4.84,109.37 5.06,117.60 5.29,125.83 5.18,138.36 5.07,150.89 4.64,160.26 4.22,169.64 3.65,177.28 3.09,184.92 2.67,191.21 2.26,197.51 1.70,203.28 1.13,209.06 0.71,214.17 0.28,219.28 -0.09,224.13 -0.46,228.99 -1.01,233.41 -1.56,237.83 -2.18,244.44 -2.79,251.05 -3.25,255.79 -3.71,260.54 -4.09,263.92 -4.48,267.29 -4.65,269.63 -4.82,271.96 -4.90,273.52 -4.98,275.08 -5.17,276.94 -5.36,278.79 -5.43,279.34 -5.49,279.88 -5.52,280.10 -5.55,280.32 -5.63,280.52 -5.71,280.73 -5.84,280.91 -5.97,281.09 -6.14,281.23 -6.30,281.37 -6.50,281.47 -6.70,281.57 -6.91,281.62 -7.13,281.67 -7.35,281.67 -7.57,281.67 -7.78,281.61 -7.99,281.55 -8.19,281.45 -8.38,281.34 -8.54,281.19 -8.71,281.05 -8.83,280.86 -8.95,280.68 -9.03,280.47 -9.10,280.27 -9.13,280.05 -9.15,279.83 -8.32,277.80 -7.49,275.78 -7.40,275.59 -7.31,275.39 -7.16,275.24 -7.01,275.09 -6.83,274.99 -6.64,274.90 -6.43,274.86 -6.22,274.83 -6.01,274.87 -5.80,274.91 -5.61,275.01 -5.42,275.11 -5.28,275.27 -5.14,275.42 -5.05,275.62 -4.96,275.81 -4.94,276.02 -4.92,276.24 -4.97,276.44 -5.02,276.65 -5.13,276.83 -5.25,277.01 -5.41,277.15 -5.57,277.28 -5.77,277.36 -5.97,277.43 -6.18,277.44 -6.39,277.45 -6.60,277.39 -6.80,277.33 -6.98,277.21 -7.15,277.09 -7.28,276.92 -7.40,276.74 -7.47,276.54 -7.53,276.34 -7.53,276.13 -7.53,275.92 -7.46,275.71 -7.39,275.51 -7.25,275.35 -7.12,275.18 -6.95,275.06 -6.77,274.95 -6.56,274.89 -6.36,274.84 -6.15,274.85 -5.93,274.87 -5.74,274.95 -5.54,275.03 -5.38,275.17 -5.22,275.31 -5.11,275.49 -5.01,275.68 -4.96,275.89 -4.92,276.09 -4.95,276.30 -4.97,276.52 -4.97,276.52 -4.97,276.51 -5.23,278.20 -5.49,279.88 -5.52,280.10 -5.55,280.32 -5.63,280.52 -5.71,280.73 -5.84,280.91 -5.97,281.09 -6.14,281.23 -6.30,281.37 -6.50,281.47 -6.70,281.57 -6.91,281.62 -7.13,281.67 -7.35,281.67 -7.57,281.67 -7.78,281.61 -7.99,281.55 -8.19,281.45 -8.38,281.34 -8.54,281.20 -8.71,281.05 -8.83,280.86 -8.95,280.68 -9.03,280.47 -9.10,280.27 -9.13,280.05 -9.15,279.83 -9.29,278.43 -9.43,277.04 -9.45,275.96 -9.47,274.88 -9.41,273.26 -9.35,271.65 -9.20,269.21 -9.04,266.77 -8.66,263.44 -8.28,260.10 -7.83,255.36 -7.38,250.62 -6.77,243.94 -6.16,237.26 -5.62,232.94 -5.09,228.63 -4.71,223.76 -4.33,218.89 -3.90,213.75 -3.46,208.61 -2.89,202.90 -2.32,197.19 -1.87,190.89 -1.43,184.58 -0.86,177.01 -0.30,169.43 0.11,160.14 0.53,150.85 0.60,138.41 0.67,125.96 0.42,117.83 0.18,109.69 -0.37,101.70 -0.92,93.70 -1.32,86.22 -1.72,78.74 -2.22,71.87 -2.72,65.01 -2.98,58.39 -3.24,51.78 -3.40,45.24 -3.57,38.71 -3.51,32.87 -3.45,27.03 -3.33,21.86 -3.20,16.69 -2.93,12.76 -2.67,8.84 -2.54,6.23 -2.42,3.62 -2.01,1.73 -1.61,-0.16 -1.56,-0.35 -1.52,-0.54 -1.43,-0.71 -1.35,-0.89 -1.22,-1.04 -1.09,-1.18 -0.94,-1.30 -0.78,-1.41 -0.60,-1.49 -0.42,-1.56 -0.22,-1.59 -0.03,-1.61 0.15,-1.59 0.35,-1.57 0.53,-1.51 0.72,-1.44 0.88,-1.34 1.04,-1.23 1.18,-1.09 1.31,-0.94 1.40,-0.77 1.50,-0.60 1.55,-0.41 1.60,-0.22 1.60,-0.03 1.61,0.16 1.61,0.16 L 1.61,0.16 Z"/></g><g transform="translate(198.92262922014504 148.94788796561102) rotate(0 12.33331298828125 2.6666717529296875)" stroke="none"><path fill="#000000" d="M -0.60,-1.50 Q -0.60,-1.50 0.21,-2.24 1.02,-2.99 2.80,-4.06 4.59,-5.13 5.84,-5.81 7.09,-6.49 8.52,-7.03 9.95,-7.57 11.34,-7.97 12.72,-8.38 14.24,-8.58 15.76,-8.77 17.18,-8.64 18.59,-8.51 19.98,-7.99 21.37,-7.46 22.56,-6.45 23.75,-5.44 24.76,-3.19 25.77,-0.95 26.30,0.67 26.84,2.30 27.11,3.70 27.37,5.09 27.50,6.30 27.62,7.50 27.46,9.47 27.29,11.43 26.54,12.44 25.79,13.45 24.73,13.92 23.68,14.39 21.84,14.57 20.01,14.74 18.61,14.55 17.22,14.36 15.75,14.09 14.27,13.81 12.85,13.50 11.43,13.18 10.24,13.08 9.06,12.98 7.10,12.70 5.14,12.42 3.83,12.21 2.53,12.01 1.64,11.67 0.76,11.34 0.52,11.30 0.28,11.26 0.07,11.16 -0.14,11.06 -0.33,10.91 -0.52,10.77 -0.67,10.58 -0.82,10.39 -0.92,10.17 -1.02,9.95 -1.06,9.72 -1.10,9.48 -1.09,9.24 -1.08,9.00 -1.01,8.78 -0.94,8.55 -0.81,8.34 -0.69,8.14 -0.52,7.97 -0.35,7.80 -0.15,7.67 0.05,7.55 0.28,7.47 0.50,7.40 0.74,7.39 0.98,7.37 2.57,7.69 4.16,8.02 4.37,8.05 4.58,8.08 4.77,8.18 4.95,8.28 5.10,8.44 5.25,8.59 5.34,8.78 5.43,8.97 5.45,9.18 5.47,9.40 5.43,9.60 5.38,9.81 5.28,9.99 5.17,10.18 5.01,10.31 4.84,10.45 4.65,10.53 4.45,10.61 4.24,10.62 4.03,10.64 3.82,10.58 3.62,10.52 3.44,10.41 3.26,10.29 3.13,10.12 3.01,9.95 2.94,9.75 2.87,9.55 2.87,9.34 2.87,9.12 2.93,8.92 3.00,8.72 3.13,8.55 3.26,8.38 3.43,8.26 3.61,8.14 3.81,8.08 4.02,8.03 4.23,8.04 4.44,8.05 4.64,8.12 4.84,8.20 5.00,8.34 5.16,8.48 5.27,8.66 5.38,8.84 5.43,9.05 5.47,9.25 5.45,9.47 5.43,9.68 5.34,9.87 5.25,10.06 5.11,10.22 4.96,10.37 4.77,10.47 4.59,10.57 4.38,10.61 4.17,10.64 4.17,10.64 4.17,10.64 2.46,10.99 0.76,11.34 0.52,11.30 0.29,11.26 0.07,11.16 -0.14,11.06 -0.33,10.91 -0.52,10.77 -0.67,10.58 -0.82,10.39 -0.92,10.17 -1.02,9.95 -1.06,9.72 -1.10,9.48 -1.09,9.24 -1.08,9.00 -1.01,8.78 -0.94,8.55 -0.81,8.34 -0.69,8.14 -0.52,7.97 -0.35,7.80 -0.15,7.67 0.05,7.55 0.28,7.47 0.50,7.40 0.74,7.39 0.98,7.37 1.94,7.17 2.91,6.96 4.38,6.96 5.85,6.97 7.72,7.18 9.59,7.40 11.11,7.55 12.63,7.71 13.97,8.01 15.30,8.30 17.55,8.72 19.81,9.15 21.30,9.31 22.78,9.46 22.72,7.69 22.65,5.91 22.49,4.83 22.32,3.76 21.85,2.27 21.37,0.79 20.43,-1.17 19.49,-3.15 17.91,-3.61 16.32,-4.06 15.20,-3.93 14.07,-3.79 12.84,-3.42 11.61,-3.05 10.50,-2.65 9.38,-2.26 8.26,-1.65 7.13,-1.04 6.09,-0.40 5.05,0.24 3.93,0.85 2.81,1.46 1.70,1.48 0.60,1.50 0.41,1.55 0.22,1.60 0.02,1.60 -0.16,1.60 -0.35,1.56 -0.54,1.52 -0.72,1.43 -0.89,1.34 -1.04,1.22 -1.19,1.09 -1.30,0.93 -1.41,0.77 -1.49,0.59 -1.56,0.41 -1.58,0.22 -1.61,0.02 -1.59,-0.16 -1.57,-0.35 -1.51,-0.54 -1.44,-0.72 -1.33,-0.88 -1.22,-1.05 -1.08,-1.18 -0.94,-1.31 -0.77,-1.40 -0.60,-1.50 -0.60,-1.50 L -0.60,-1.50 Z"/></g><g transform="translate(242.2559422084263 144.2812314714704) rotate(0 17.333343505859375 16.666671752929688)" stroke="none"><path fill="#000000" d="M 1.44,-0.41 Q 1.44,-0.41 2.12,0.84 2.80,2.10 3.15,3.22 3.49,4.34 4.07,5.54 4.65,6.74 6.08,6.19 7.52,5.63 8.48,4.31 9.45,3.00 12.21,2.81 14.97,2.62 15.64,4.97 16.30,7.31 16.57,8.69 16.84,10.08 16.99,11.99 17.13,13.89 17.20,15.84 17.26,17.79 17.10,19.72 16.94,21.65 16.67,23.27 16.40,24.89 16.08,26.21 15.77,27.53 15.17,28.87 14.57,30.21 13.30,32.05 12.02,33.89 10.34,34.63 8.65,35.37 7.28,35.44 5.90,35.50 4.12,34.74 2.35,33.98 1.53,32.72 0.72,31.47 0.62,30.13 0.53,28.79 1.05,27.45 1.57,26.10 3.06,24.14 4.56,22.19 6.21,20.56 7.86,18.94 9.79,17.46 11.71,15.98 13.70,14.62 15.68,13.26 17.71,11.96 19.73,10.67 21.62,9.59 23.50,8.51 25.79,7.57 28.08,6.63 30.55,5.66 33.03,4.68 33.23,4.62 33.43,4.55 33.65,4.56 33.86,4.56 34.06,4.63 34.26,4.71 34.42,4.84 34.59,4.97 34.71,5.15 34.82,5.33 34.87,5.53 34.93,5.74 34.91,5.95 34.89,6.16 34.81,6.36 34.73,6.55 34.59,6.71 34.45,6.87 34.26,6.98 34.08,7.08 33.87,7.12 33.66,7.17 33.45,7.14 33.24,7.11 33.05,7.02 32.86,6.92 32.71,6.77 32.56,6.62 32.46,6.43 32.36,6.24 32.34,6.03 32.31,5.82 32.34,5.62 32.38,5.41 32.49,5.22 32.59,5.04 32.75,4.89 32.91,4.75 33.10,4.66 33.29,4.58 33.51,4.56 33.72,4.54 33.92,4.59 34.13,4.64 34.31,4.76 34.49,4.87 34.62,5.04 34.76,5.20 34.83,5.40 34.91,5.60 34.91,5.81 34.92,6.02 34.86,6.23 34.80,6.43 34.67,6.60 34.55,6.78 34.38,6.90 34.21,7.03 34.21,7.03 34.21,7.03 31.95,8.43 29.69,9.83 27.78,11.02 25.86,12.20 24.15,13.42 22.45,14.63 20.55,16.03 18.65,17.42 16.81,18.79 14.97,20.16 13.31,21.47 11.64,22.79 10.25,24.16 8.87,25.52 7.46,27.69 6.06,29.86 7.43,29.68 8.81,29.49 9.63,27.84 10.46,26.19 10.75,25.07 11.04,23.95 11.30,22.54 11.56,21.12 11.75,19.52 11.93,17.91 11.90,16.06 11.87,14.21 11.81,12.59 11.74,10.96 11.50,9.45 11.27,7.93 10.97,6.15 10.68,4.37 11.67,5.62 12.65,6.88 11.47,8.10 10.29,9.32 9.35,9.97 8.41,10.62 7.18,11.08 5.94,11.53 4.77,11.40 3.61,11.27 2.31,10.10 1.01,8.92 0.23,7.26 -0.54,5.60 -0.90,4.43 -1.27,3.26 -1.35,1.83 -1.44,0.41 -1.47,0.23 -1.49,0.05 -1.48,-0.12 -1.46,-0.30 -1.41,-0.47 -1.35,-0.64 -1.25,-0.80 -1.15,-0.95 -1.02,-1.07 -0.89,-1.20 -0.73,-1.29 -0.58,-1.38 -0.40,-1.43 -0.23,-1.48 -0.05,-1.48 0.12,-1.49 0.30,-1.45 0.48,-1.42 0.64,-1.34 0.80,-1.26 0.94,-1.14 1.08,-1.03 1.19,-0.88 1.30,-0.74 1.37,-0.57 1.44,-0.41 1.44,-0.41 L 1.44,-0.41 Z"/></g><g transform="translate(192.2559422084263 426.2812619890485) rotate(0 12.66668701171875 10.666656494140625)" stroke="none"><path fill="#000000" d="M 0.46,-1.87 Q 0.46,-1.87 2.83,-1.56 5.20,-1.25 7.10,-0.83 9.01,-0.40 10.65,-0.24 12.29,-0.08 13.74,-0.00 15.20,0.06 16.62,-0.08 18.05,-0.23 19.36,-0.30 20.67,-0.36 21.83,-0.39 22.99,-0.42 24.06,-0.17 25.14,0.07 26.23,1.03 27.32,1.99 27.63,3.22 27.93,4.45 27.71,5.61 27.48,6.77 26.64,8.14 25.80,9.50 25.15,10.45 24.50,11.40 23.56,12.51 22.61,13.62 21.92,14.54 21.23,15.46 20.14,16.86 19.04,18.26 18.53,19.37 18.02,20.48 16.44,21.99 14.86,23.50 13.73,23.28 12.59,23.07 11.58,21.84 10.57,20.60 9.92,19.41 9.27,18.22 8.06,15.55 6.85,12.88 5.86,10.84 4.87,8.80 3.97,6.93 3.08,5.05 1.97,3.41 0.86,1.78 0.68,1.66 0.50,1.55 0.36,1.39 0.23,1.22 0.15,1.03 0.08,0.83 0.07,0.61 0.06,0.40 0.12,0.20 0.18,-0.00 0.30,-0.17 0.42,-0.34 0.59,-0.47 0.76,-0.60 0.97,-0.66 1.17,-0.73 1.38,-0.72 1.59,-0.72 1.79,-0.65 1.99,-0.58 2.16,-0.45 2.33,-0.32 2.45,-0.14 2.56,0.03 2.62,0.23 2.67,0.44 2.66,0.65 2.64,0.86 2.56,1.06 2.48,1.25 2.34,1.41 2.20,1.57 2.02,1.68 1.83,1.79 1.62,1.83 1.42,1.87 1.21,1.85 0.99,1.82 0.80,1.73 0.61,1.64 0.46,1.49 0.31,1.34 0.21,1.15 0.11,0.96 0.08,0.75 0.05,0.54 0.09,0.33 0.12,0.13 0.23,-0.05 0.33,-0.24 0.49,-0.38 0.64,-0.53 0.84,-0.61 1.03,-0.70 1.24,-0.72 1.45,-0.74 1.66,-0.69 1.87,-0.64 1.87,-0.64 1.87,-0.64 4.26,1.19 6.65,3.02 7.83,4.81 9.01,6.60 10.21,8.67 11.40,10.74 12.62,13.24 13.84,15.74 13.54,16.96 13.23,18.18 14.03,16.58 14.82,14.98 15.89,13.62 16.96,12.25 17.77,11.19 18.58,10.12 19.34,9.26 20.11,8.39 20.79,7.41 21.46,6.43 22.51,5.58 23.56,4.73 22.25,4.65 20.93,4.56 19.73,4.63 18.53,4.69 16.74,4.86 14.95,5.03 13.36,4.95 11.77,4.86 9.85,4.65 7.92,4.44 5.96,4.00 3.99,3.55 1.76,2.71 -0.46,1.87 -0.68,1.79 -0.90,1.70 -1.09,1.57 -1.28,1.44 -1.44,1.26 -1.59,1.09 -1.70,0.88 -1.80,0.67 -1.86,0.45 -1.91,0.22 -1.91,-0.00 -1.91,-0.23 -1.86,-0.46 -1.80,-0.69 -1.69,-0.89 -1.58,-1.10 -1.43,-1.27 -1.27,-1.45 -1.08,-1.58 -0.89,-1.71 -0.67,-1.79 -0.45,-1.87 -0.22,-1.90 0.00,-1.93 0.23,-1.90 0.46,-1.87 0.46,-1.87 L 0.46,-1.87 Z"/></g><g transform="translate(77.58928571428567 302.2812619890485) rotate(0 140.6666717529297 11.33331298828125)" stroke="none"><path fill="#000000" d="M 0.29,-1.76 Q 0.29,-1.76 1.49,-1.89 2.70,-2.02 3.91,-1.93 5.13,-1.84 6.28,-2.02 7.42,-2.19 8.55,-2.31 9.67,-2.42 11.27,-2.48 12.87,-2.54 14.26,-2.56 15.65,-2.57 16.80,-2.58 17.95,-2.58 19.17,-2.59 20.38,-2.60 21.83,-2.89 23.28,-3.17 24.77,-3.24 26.27,-3.31 27.63,-3.32 29.00,-3.33 30.72,-3.35 32.44,-3.36 34.20,-3.36 35.96,-3.37 37.64,-3.37 39.32,-3.38 40.99,-3.39 42.66,-3.40 44.14,-3.40 45.61,-3.41 47.25,-3.41 48.88,-3.41 49.97,-3.41 51.05,-3.42 52.64,-3.42 54.23,-3.42 55.88,-3.42 57.54,-3.42 58.93,-3.43 60.32,-3.43 61.57,-3.43 62.82,-3.44 64.50,-3.44 66.19,-3.44 67.86,-3.44 69.53,-3.44 71.19,-3.44 72.86,-3.44 74.53,-3.44 76.20,-3.45 77.78,-3.45 79.37,-3.45 80.51,-3.45 81.64,-3.45 83.26,-3.45 84.88,-3.45 86.27,-3.45 87.65,-3.45 88.80,-3.45 89.96,-3.45 91.75,-3.45 93.54,-3.44 94.84,-3.16 96.13,-2.88 97.28,-2.84 98.42,-2.81 99.72,-2.80 101.02,-2.79 102.35,-2.79 103.68,-2.79 105.39,-2.79 107.11,-2.79 108.48,-2.79 109.86,-2.79 110.92,-2.79 111.99,-2.79 113.38,-2.79 114.77,-2.79 116.35,-2.78 117.93,-2.77 119.07,-2.49 120.22,-2.22 121.66,-2.17 123.10,-2.13 124.48,-2.13 125.86,-2.13 127.51,-1.88 129.17,-1.63 130.88,-1.29 132.59,-0.96 133.73,-0.89 134.86,-0.81 136.08,-0.80 137.30,-0.79 138.69,-0.51 140.08,-0.23 141.35,-0.19 142.62,-0.15 143.86,0.07 145.09,0.29 146.41,0.39 147.73,0.48 148.86,0.50 149.98,0.52 151.26,0.52 152.54,0.53 153.97,0.79 155.40,1.06 157.13,1.50 158.87,1.93 160.17,1.89 161.47,1.85 162.82,1.85 164.17,1.84 165.74,1.85 167.30,1.85 168.69,2.13 170.08,2.41 171.40,2.45 172.72,2.50 174.31,2.75 175.90,3.01 177.21,3.40 178.52,3.78 179.70,4.18 180.88,4.58 182.18,4.81 183.48,5.04 184.94,5.10 186.41,5.16 187.63,5.45 188.85,5.74 189.97,5.78 191.10,5.82 192.73,6.12 194.37,6.43 195.81,6.73 197.26,7.04 198.41,7.38 199.56,7.72 200.82,7.77 202.07,7.82 204.06,8.10 206.05,8.37 207.71,8.77 209.37,9.18 210.51,9.46 211.65,9.74 213.04,10.06 214.43,10.38 215.89,10.72 217.36,11.06 218.71,11.37 220.05,11.69 221.96,12.02 223.86,12.35 225.26,12.70 226.66,13.06 228.18,13.42 229.70,13.78 230.85,14.08 232.00,14.37 233.08,14.72 234.16,15.07 235.40,15.39 236.63,15.71 238.44,16.08 240.25,16.45 241.64,16.54 243.03,16.62 244.84,17.26 246.65,17.90 248.04,18.25 249.43,18.61 250.92,18.60 252.40,18.59 253.52,18.89 254.63,19.19 255.91,19.22 257.19,19.24 258.45,19.25 259.71,19.25 261.59,19.26 263.46,19.26 264.53,19.50 265.60,19.73 267.06,19.82 268.52,19.91 270.17,20.16 271.81,20.42 273.13,20.50 274.46,20.57 275.64,20.58 276.81,20.59 278.67,21.09 280.52,21.58 280.73,21.53 280.93,21.47 281.15,21.49 281.36,21.50 281.55,21.59 281.75,21.67 281.91,21.81 282.07,21.95 282.18,22.13 282.28,22.31 282.33,22.52 282.37,22.73 282.34,22.94 282.32,23.15 282.23,23.34 282.13,23.53 281.99,23.69 281.84,23.84 281.65,23.94 281.46,24.03 281.25,24.06 281.04,24.10 280.83,24.06 280.62,24.02 280.43,23.92 280.25,23.82 280.10,23.66 279.96,23.50 279.87,23.31 279.79,23.12 279.77,22.90 279.75,22.69 279.80,22.49 279.85,22.28 279.96,22.10 280.07,21.92 280.23,21.78 280.40,21.65 280.60,21.57 280.79,21.50 281.01,21.49 281.22,21.48 281.42,21.54 281.63,21.60 281.80,21.72 281.97,21.84 282.10,22.01 282.23,22.18 282.29,22.39 282.36,22.59 282.35,22.80 282.35,23.01 282.28,23.21 282.21,23.41 282.08,23.58 281.95,23.75 281.77,23.87 281.59,23.98 281.59,23.98 281.59,23.98 279.73,24.88 277.87,25.78 276.57,25.91 275.28,26.05 274.12,26.03 272.97,26.00 271.32,25.69 269.67,25.38 268.37,25.36 267.08,25.34 265.65,25.18 264.22,25.02 263.00,24.88 261.79,24.73 260.09,24.73 258.40,24.73 257.17,24.72 255.94,24.71 254.73,24.64 253.52,24.56 252.19,24.30 250.87,24.05 249.50,23.96 248.14,23.86 247.09,23.54 246.04,23.23 244.33,22.63 242.63,22.03 241.57,22.02 240.50,22.01 239.35,21.80 238.20,21.58 237.13,21.40 236.07,21.22 235.01,20.90 233.96,20.58 232.68,20.24 231.40,19.90 230.38,19.59 229.36,19.28 227.57,18.93 225.79,18.58 223.98,18.14 222.18,17.70 221.09,17.50 220.00,17.31 218.28,16.98 216.57,16.64 215.16,16.31 213.75,15.98 212.21,15.64 210.67,15.30 208.84,14.68 207.01,14.07 205.64,13.89 204.26,13.72 203.11,13.60 201.97,13.48 200.85,13.44 199.72,13.41 198.23,13.15 196.73,12.88 195.60,12.60 194.46,12.31 193.36,11.88 192.25,11.46 190.91,11.44 189.56,11.43 187.86,11.10 186.16,10.78 184.48,10.71 182.80,10.63 181.44,10.31 180.08,9.98 178.75,9.62 177.41,9.26 175.83,8.84 174.25,8.41 172.99,8.27 171.73,8.13 170.55,8.07 169.36,8.01 167.82,7.74 166.27,7.48 164.55,7.48 162.82,7.48 161.75,7.47 160.67,7.46 159.60,7.43 158.54,7.39 157.19,7.06 155.85,6.73 154.72,6.55 153.60,6.36 152.52,6.25 151.45,6.13 150.18,6.12 148.91,6.11 147.38,6.05 145.85,5.99 144.19,5.71 142.52,5.44 140.94,5.38 139.36,5.32 137.78,5.05 136.21,4.78 134.43,4.71 132.66,4.64 131.47,4.35 130.28,4.06 128.66,3.76 127.05,3.45 125.90,3.45 124.74,3.45 123.25,3.44 121.75,3.44 120.59,3.37 119.43,3.31 118.07,3.05 116.70,2.79 115.36,2.79 114.02,2.79 112.55,2.79 111.09,2.79 109.93,2.79 108.77,2.79 106.89,2.79 105.01,2.79 103.67,2.79 102.34,2.79 101.00,2.78 99.66,2.78 98.28,2.75 96.90,2.73 95.16,2.42 93.43,2.11 91.69,2.11 89.96,2.12 88.80,2.12 87.65,2.12 86.27,2.12 84.88,2.11 83.26,2.11 81.64,2.11 80.51,2.11 79.37,2.11 77.78,2.11 76.20,2.11 74.53,2.11 72.86,2.11 71.19,2.11 69.53,2.11 67.86,2.11 66.19,2.11 64.50,2.11 62.82,2.10 61.57,2.10 60.32,2.10 58.93,2.09 57.54,2.09 55.88,2.09 54.23,2.09 52.64,2.09 51.05,2.08 49.21,2.08 47.37,2.08 45.78,2.08 44.20,2.07 42.53,2.07 40.86,2.06 39.19,2.05 37.51,2.04 35.81,2.04 34.10,2.03 32.22,2.03 30.35,2.02 29.02,2.02 27.69,2.01 26.39,2.03 25.09,2.04 23.88,2.11 22.66,2.18 21.54,2.39 20.41,2.60 18.71,2.59 17.01,2.58 15.67,2.58 14.33,2.58 12.96,2.59 11.58,2.60 9.97,2.67 8.37,2.74 6.62,2.91 4.87,3.07 3.38,2.93 1.89,2.78 0.80,2.27 -0.29,1.76 -0.49,1.69 -0.70,1.63 -0.89,1.53 -1.07,1.42 -1.23,1.27 -1.38,1.12 -1.50,0.94 -1.61,0.75 -1.68,0.55 -1.75,0.34 -1.76,0.13 -1.78,-0.07 -1.74,-0.29 -1.71,-0.50 -1.62,-0.70 -1.54,-0.89 -1.41,-1.07 -1.28,-1.24 -1.11,-1.37 -0.94,-1.51 -0.75,-1.60 -0.55,-1.69 -0.34,-1.73 -0.13,-1.77 0.07,-1.76 0.29,-1.76 0.29,-1.76 L 0.29,-1.76 Z"/></g><g transform="translate(352.92262922014504 320.947887965611) rotate(0 29.666656494140625 -16)" stroke="none"><path fill="#000000" d="M -1.29,-1.03 Q -1.29,-1.03 -0.82,-2.22 -0.34,-3.42 0.30,-4.36 0.96,-5.31 1.62,-6.29 2.27,-7.27 3.14,-8.50 4.01,-9.72 4.95,-11.01 5.89,-12.30 7.12,-13.70 8.35,-15.11 9.89,-16.53 11.44,-17.96 14.00,-20.11 16.57,-22.26 18.91,-23.82 21.24,-25.38 23.34,-26.77 25.43,-28.16 27.63,-29.23 29.83,-30.30 32.16,-31.14 34.49,-31.99 36.48,-32.55 38.48,-33.11 40.43,-33.38 42.38,-33.64 44.67,-33.93 46.96,-34.22 49.10,-34.16 51.24,-34.10 52.43,-34.07 53.62,-34.04 55.24,-33.65 56.86,-33.26 57.86,-32.92 58.86,-32.58 59.07,-32.58 59.28,-32.58 59.48,-32.51 59.68,-32.44 59.85,-32.31 60.02,-32.18 60.14,-32.00 60.26,-31.83 60.31,-31.62 60.37,-31.42 60.35,-31.21 60.34,-30.99 60.26,-30.80 60.18,-30.60 60.04,-30.44 59.90,-30.28 59.72,-30.17 59.54,-30.06 59.33,-30.02 59.12,-29.97 58.91,-30.00 58.70,-30.02 58.51,-30.12 58.31,-30.21 58.16,-30.35 58.01,-30.50 57.91,-30.69 57.81,-30.88 57.78,-31.09 57.75,-31.30 57.78,-31.51 57.82,-31.72 57.92,-31.90 58.02,-32.09 58.18,-32.24 58.33,-32.38 58.53,-32.47 58.72,-32.56 58.93,-32.58 59.14,-32.60 59.35,-32.55 59.56,-32.50 59.74,-32.39 59.92,-32.28 60.06,-32.12 60.19,-31.95 60.27,-31.76 60.35,-31.56 60.35,-31.35 60.36,-31.13 60.31,-30.93 60.25,-30.72 60.13,-30.55 60.01,-30.38 59.84,-30.25 59.67,-30.12 59.46,-30.05 59.26,-29.99 59.26,-29.99 59.26,-29.99 56.37,-29.35 53.48,-28.70 52.27,-28.73 51.05,-28.76 49.33,-28.84 47.61,-28.92 45.34,-28.63 43.06,-28.35 41.48,-28.16 39.90,-27.97 38.10,-27.47 36.30,-26.97 34.21,-26.23 32.12,-25.48 30.24,-24.60 28.36,-23.72 26.26,-22.33 24.16,-20.95 22.04,-19.57 19.92,-18.20 17.42,-16.16 14.92,-14.12 13.55,-12.90 12.19,-11.68 11.08,-10.47 9.98,-9.26 9.03,-8.01 8.08,-6.75 7.22,-5.60 6.36,-4.45 5.65,-3.45 4.93,-2.44 4.17,-1.42 3.41,-0.41 2.35,0.31 1.29,1.03 1.15,1.17 1.00,1.31 0.83,1.41 0.66,1.51 0.47,1.57 0.28,1.63 0.08,1.64 -0.11,1.65 -0.31,1.61 -0.50,1.57 -0.69,1.49 -0.87,1.40 -1.02,1.28 -1.18,1.16 -1.30,1.00 -1.42,0.84 -1.50,0.65 -1.58,0.47 -1.62,0.28 -1.65,0.08 -1.64,-0.11 -1.62,-0.31 -1.56,-0.50 -1.50,-0.69 -1.39,-0.86 -1.29,-1.03 -1.29,-1.03 L -1.29,-1.03 Z"/></g><g transform="translate(425.5893162318638 284.2812619890485) rotate(0 3.999969482421875 3.999969482421875)" stroke="none"><path fill="#000000" d="M 1.02,1.02 Q 1.02,1.02 0.34,2.22 -0.33,3.42 -0.68,4.49 -1.03,5.56 -1.44,6.64 -1.84,7.73 -1.76,9.18 -1.68,10.64 -0.85,11.30 -0.01,11.96 1.90,11.17 3.81,10.37 4.69,9.73 5.56,9.09 6.43,8.16 7.30,7.22 8.00,6.16 8.70,5.09 9.13,4.01 9.56,2.93 9.96,1.88 10.35,0.83 9.71,-0.51 9.08,-1.86 7.66,-2.41 6.25,-2.97 4.96,-3.29 3.67,-3.62 2.38,-3.60 1.08,-3.59 0.00,-3.49 -1.08,-3.39 -2.47,-2.87 -3.87,-2.35 -4.02,-2.30 -4.17,-2.24 -4.33,-2.23 -4.48,-2.21 -4.64,-2.23 -4.80,-2.25 -4.95,-2.31 -5.09,-2.37 -5.22,-2.46 -5.35,-2.55 -5.45,-2.67 -5.56,-2.79 -5.63,-2.93 -5.70,-3.07 -5.74,-3.23 -5.77,-3.38 -5.77,-3.54 -5.77,-3.70 -5.73,-3.85 -5.69,-4.00 -5.61,-4.14 -5.54,-4.28 -5.43,-4.40 -5.32,-4.52 -5.19,-4.60 -5.06,-4.69 -3.07,-3.61 -1.08,-2.53 -0.94,-2.37 -0.80,-2.21 -0.71,-2.02 -0.62,-1.82 -0.60,-1.61 -0.59,-1.40 -0.63,-1.19 -0.68,-0.99 -0.80,-0.81 -0.91,-0.63 -1.07,-0.49 -1.24,-0.36 -1.44,-0.28 -1.64,-0.21 -1.85,-0.20 -2.06,-0.19 -2.26,-0.25 -2.47,-0.31 -2.64,-0.43 -2.82,-0.56 -2.94,-0.73 -3.07,-0.90 -3.13,-1.10 -3.20,-1.30 -3.19,-1.52 -3.19,-1.73 -3.12,-1.93 -3.04,-2.13 -2.91,-2.30 -2.78,-2.46 -2.60,-2.58 -2.43,-2.70 -2.22,-2.75 -2.01,-2.80 -1.80,-2.79 -1.59,-2.77 -1.39,-2.69 -1.20,-2.61 -1.04,-2.47 -0.88,-2.33 -0.77,-2.14 -0.67,-1.96 -0.62,-1.75 -0.58,-1.54 -0.61,-1.33 -0.64,-1.12 -0.73,-0.93 -0.82,-0.74 -0.97,-0.59 -1.12,-0.43 -1.31,-0.34 -1.50,-0.24 -1.71,-0.21 -1.92,-0.18 -2.13,-0.22 -2.34,-0.26 -2.52,-0.36 -2.71,-0.46 -2.71,-0.46 -2.71,-0.46 -3.29,-1.41 -3.87,-2.35 -4.02,-2.30 -4.17,-2.24 -4.33,-2.23 -4.48,-2.21 -4.64,-2.23 -4.80,-2.25 -4.95,-2.31 -5.09,-2.37 -5.22,-2.46 -5.35,-2.55 -5.45,-2.67 -5.56,-2.79 -5.63,-2.93 -5.70,-3.07 -5.74,-3.23 -5.77,-3.38 -5.77,-3.54 -5.77,-3.70 -5.73,-3.85 -5.69,-4.00 -5.61,-4.14 -5.54,-4.28 -5.43,-4.40 -5.32,-4.52 -5.19,-4.60 -5.06,-4.69 -4.61,-5.51 -4.17,-6.33 -3.01,-7.09 -1.84,-7.85 -0.40,-8.15 1.03,-8.45 2.98,-8.46 4.92,-8.47 6.75,-7.96 8.58,-7.46 10.89,-6.05 13.19,-4.64 14.17,-2.63 15.16,-0.61 15.11,0.93 15.05,2.48 14.60,3.68 14.14,4.87 13.48,6.37 12.82,7.87 11.85,9.28 10.87,10.68 9.61,11.94 8.34,13.19 6.91,14.11 5.47,15.02 3.87,15.54 2.28,16.06 0.23,16.11 -1.80,16.16 -2.77,15.58 -3.75,15.00 -4.52,14.18 -5.30,13.36 -5.81,11.23 -6.33,9.09 -6.25,7.64 -6.16,6.18 -5.68,4.96 -5.19,3.73 -4.34,2.07 -3.49,0.41 -2.26,-0.30 -1.02,-1.02 -0.89,-1.13 -0.75,-1.24 -0.59,-1.31 -0.43,-1.38 -0.26,-1.42 -0.08,-1.45 0.08,-1.44 0.26,-1.43 0.42,-1.37 0.59,-1.32 0.74,-1.23 0.89,-1.14 1.02,-1.02 1.14,-0.89 1.23,-0.74 1.32,-0.59 1.37,-0.42 1.43,-0.26 1.44,-0.08 1.45,0.08 1.42,0.26 1.38,0.43 1.31,0.59 1.24,0.75 1.13,0.89 1.02,1.02 1.02,1.02 L 1.02,1.02 Z"/></g><g transform="translate(87.58928571428567 390.2812619890485) rotate(0 151.00001525878906 -88.00001525878906)" stroke="none"><path fill="#000000" d="M -1.27,-1.06 Q -1.27,-1.06 -0.56,-2.41 0.15,-3.77 1.07,-4.59 1.99,-5.40 3.53,-6.90 5.06,-8.39 5.73,-9.23 6.39,-10.07 7.61,-11.19 8.82,-12.30 9.83,-13.27 10.84,-14.23 12.03,-15.42 13.22,-16.60 14.81,-17.79 16.41,-18.99 17.72,-20.15 19.03,-21.31 21.44,-23.05 23.84,-24.79 25.59,-26.07 27.33,-27.35 29.17,-28.37 31.00,-29.38 32.41,-30.30 33.82,-31.23 35.19,-32.19 36.55,-33.15 37.99,-34.01 39.44,-34.86 40.71,-35.74 41.99,-36.62 44.12,-38.00 46.25,-39.37 48.67,-40.92 51.10,-42.47 52.61,-43.64 54.13,-44.81 55.58,-45.91 57.03,-47.01 58.25,-47.88 59.47,-48.75 60.73,-49.67 61.98,-50.60 63.12,-51.40 64.26,-52.20 65.48,-53.09 66.70,-53.98 67.99,-54.94 69.27,-55.90 70.59,-56.88 71.90,-57.86 73.81,-59.25 75.73,-60.64 77.30,-61.79 78.86,-62.95 80.29,-64.01 81.73,-65.07 83.20,-65.98 84.67,-66.88 85.96,-67.77 87.26,-68.67 88.68,-69.50 90.10,-70.33 91.21,-71.02 92.32,-71.71 94.03,-72.63 95.73,-73.55 96.82,-74.13 97.91,-74.70 98.88,-75.28 99.85,-75.87 101.47,-76.75 103.08,-77.63 104.57,-78.49 106.06,-79.34 107.70,-80.32 109.34,-81.30 110.44,-81.81 111.54,-82.32 113.73,-83.66 115.92,-85.00 117.22,-85.59 118.52,-86.17 119.66,-86.61 120.81,-87.06 121.97,-87.59 123.13,-88.13 124.29,-88.58 125.45,-89.04 126.78,-89.45 128.10,-89.86 129.27,-90.35 130.44,-90.85 132.33,-91.66 134.21,-92.46 135.87,-93.03 137.53,-93.60 138.87,-94.17 140.22,-94.75 141.30,-95.34 142.37,-95.93 144.16,-96.95 145.94,-97.96 147.62,-98.96 149.31,-99.96 150.42,-100.48 151.53,-100.99 153.21,-101.98 154.90,-102.97 156.42,-103.72 157.94,-104.48 159.23,-105.02 160.53,-105.56 162.35,-106.60 164.17,-107.63 165.23,-108.04 166.29,-108.45 168.24,-109.41 170.20,-110.36 172.58,-111.84 174.97,-113.31 176.33,-113.99 177.69,-114.68 178.99,-115.33 180.28,-115.97 181.33,-116.59 182.38,-117.21 184.26,-118.38 186.13,-119.56 187.74,-120.45 189.34,-121.35 191.14,-122.49 192.94,-123.63 194.62,-124.65 196.30,-125.67 197.63,-126.60 198.97,-127.52 200.20,-128.35 201.42,-129.17 202.51,-129.74 203.61,-130.31 205.43,-131.22 207.26,-132.13 208.85,-132.92 210.43,-133.71 211.81,-134.40 213.19,-135.09 214.83,-135.81 216.48,-136.53 217.96,-136.94 219.43,-137.34 220.40,-137.79 221.36,-138.24 222.46,-138.67 223.56,-139.10 224.82,-139.49 226.08,-139.88 227.34,-140.39 228.60,-140.90 229.94,-141.59 231.29,-142.28 232.33,-142.62 233.38,-142.96 234.45,-143.47 235.51,-143.97 237.03,-144.87 238.56,-145.77 239.46,-146.40 240.35,-147.04 241.84,-148.07 243.32,-149.11 244.43,-149.70 245.54,-150.29 247.01,-151.02 248.48,-151.76 249.83,-152.43 251.19,-153.11 252.20,-153.65 253.22,-154.19 254.67,-154.91 256.11,-155.63 257.39,-156.13 258.67,-156.63 259.72,-157.28 260.78,-157.94 262.27,-158.82 263.77,-159.70 265.35,-160.69 266.93,-161.68 268.04,-162.37 269.16,-163.05 270.44,-163.54 271.71,-164.03 272.73,-164.57 273.75,-165.11 274.82,-165.85 275.90,-166.58 276.88,-167.07 277.87,-167.57 279.22,-168.28 280.58,-168.99 281.47,-169.86 282.37,-170.73 284.09,-171.53 285.81,-172.33 286.85,-172.96 287.90,-173.59 288.95,-174.00 290.00,-174.40 291.32,-175.04 292.63,-175.67 293.72,-176.04 294.81,-176.41 296.12,-177.05 297.42,-177.69 299.56,-177.49 301.69,-177.30 301.90,-177.27 302.11,-177.25 302.31,-177.15 302.50,-177.06 302.65,-176.91 302.80,-176.76 302.90,-176.58 302.99,-176.39 303.03,-176.18 303.06,-175.97 303.02,-175.76 302.98,-175.55 302.88,-175.36 302.78,-175.18 302.62,-175.03 302.47,-174.89 302.27,-174.80 302.08,-174.71 301.87,-174.69 301.65,-174.67 301.45,-174.72 301.24,-174.77 301.06,-174.88 300.88,-175.00 300.74,-175.16 300.61,-175.32 300.53,-175.52 300.46,-175.72 300.45,-175.93 300.44,-176.15 300.50,-176.35 300.56,-176.55 300.68,-176.73 300.80,-176.90 300.98,-177.03 301.15,-177.15 301.35,-177.22 301.55,-177.28 301.76,-177.28 301.98,-177.28 302.18,-177.21 302.38,-177.14 302.54,-177.01 302.71,-176.87 302.83,-176.70 302.94,-176.52 303.00,-176.31 303.05,-176.11 303.04,-175.90 303.02,-175.68 302.94,-175.49 302.86,-175.29 302.72,-175.13 302.58,-174.97 302.40,-174.86 302.21,-174.76 302.00,-174.72 301.80,-174.67 301.80,-174.67 301.80,-174.67 300.09,-173.67 298.37,-172.67 297.26,-172.04 296.15,-171.42 294.93,-170.99 293.71,-170.56 292.32,-170.01 290.93,-169.46 289.77,-168.73 288.61,-168.01 287.58,-167.64 286.56,-167.27 285.48,-166.40 284.41,-165.53 283.07,-164.86 281.72,-164.19 280.53,-163.43 279.33,-162.67 277.81,-161.76 276.28,-160.86 274.88,-160.16 273.48,-159.46 272.04,-158.72 270.60,-157.98 269.27,-157.25 267.94,-156.53 267.10,-155.87 266.25,-155.21 265.07,-154.53 263.88,-153.86 262.96,-153.20 262.05,-152.55 260.79,-152.03 259.53,-151.52 258.25,-151.11 256.97,-150.70 255.85,-150.05 254.73,-149.40 253.43,-148.64 252.13,-147.87 250.74,-147.18 249.35,-146.48 247.93,-145.81 246.51,-145.13 244.88,-143.99 243.25,-142.84 241.50,-141.75 239.74,-140.65 238.65,-139.99 237.57,-139.33 236.09,-138.69 234.61,-138.05 233.46,-137.80 232.32,-137.55 230.93,-136.75 229.54,-135.94 228.10,-135.27 226.65,-134.60 225.07,-134.12 223.48,-133.63 222.32,-133.10 221.15,-132.57 219.72,-132.19 218.30,-131.80 216.88,-131.18 215.46,-130.56 214.08,-129.87 212.70,-129.18 211.11,-128.39 209.52,-127.59 208.43,-127.05 207.35,-126.51 205.96,-125.86 204.58,-125.21 203.73,-124.55 202.88,-123.89 201.64,-123.18 200.41,-122.47 199.46,-121.79 198.50,-121.11 197.16,-120.28 195.82,-119.46 193.89,-118.24 191.97,-117.01 190.97,-116.42 189.97,-115.82 188.45,-115.08 186.93,-114.34 185.93,-113.59 184.94,-112.84 183.74,-112.14 182.54,-111.44 181.25,-110.79 179.95,-110.15 178.82,-109.59 177.70,-109.04 176.06,-108.00 174.43,-106.96 172.42,-105.96 170.41,-104.97 169.27,-104.36 168.13,-103.74 166.42,-103.03 164.72,-102.33 163.61,-101.62 162.50,-100.91 161.34,-100.42 160.18,-99.94 157.90,-98.85 155.62,-97.76 153.81,-96.72 151.99,-95.68 150.28,-94.66 148.57,-93.65 146.68,-92.57 144.78,-91.49 143.49,-90.80 142.20,-90.10 140.68,-89.46 139.15,-88.81 137.67,-88.31 136.19,-87.81 134.29,-87.01 132.40,-86.20 130.99,-85.61 129.57,-85.03 128.43,-84.69 127.29,-84.34 126.26,-83.94 125.23,-83.54 123.93,-82.95 122.63,-82.35 121.60,-81.96 120.57,-81.56 119.46,-81.07 118.35,-80.58 116.99,-79.84 115.63,-79.11 113.82,-78.07 112.01,-77.03 110.35,-76.05 108.69,-75.07 107.05,-74.14 105.41,-73.22 103.91,-72.41 102.42,-71.61 101.32,-70.95 100.22,-70.29 99.15,-69.73 98.09,-69.17 96.52,-68.33 94.95,-67.50 93.77,-66.76 92.59,-66.03 91.33,-65.30 90.07,-64.57 88.66,-63.60 87.25,-62.64 85.97,-61.86 84.69,-61.09 83.25,-60.02 81.81,-58.95 80.22,-57.78 78.64,-56.62 76.75,-55.25 74.86,-53.89 73.55,-52.90 72.23,-51.92 70.92,-50.95 69.62,-49.99 68.36,-49.07 67.10,-48.15 66.00,-47.39 64.91,-46.62 63.62,-45.68 62.33,-44.73 61.17,-43.90 60.00,-43.08 58.56,-41.99 57.11,-40.89 55.41,-39.61 53.71,-38.33 51.28,-36.81 48.85,-35.30 46.77,-33.98 44.69,-32.66 43.27,-31.71 41.86,-30.75 40.58,-30.00 39.30,-29.25 37.86,-28.24 36.43,-27.23 34.86,-26.21 33.29,-25.19 31.72,-24.35 30.15,-23.50 28.39,-22.21 26.63,-20.92 24.41,-19.33 22.18,-17.73 20.70,-16.44 19.23,-15.15 17.88,-14.18 16.54,-13.21 15.31,-12.02 14.08,-10.83 13.02,-9.82 11.95,-8.81 10.99,-7.97 10.03,-7.13 9.17,-6.10 8.32,-5.06 7.42,-4.18 6.51,-3.31 5.09,-2.06 3.67,-0.82 2.47,0.11 1.27,1.06 1.13,1.20 0.98,1.33 0.81,1.43 0.63,1.53 0.44,1.59 0.25,1.64 0.04,1.65 -0.15,1.65 -0.34,1.61 -0.54,1.57 -0.72,1.48 -0.90,1.39 -1.05,1.26 -1.21,1.13 -1.32,0.97 -1.44,0.81 -1.52,0.63 -1.60,0.44 -1.63,0.24 -1.66,0.05 -1.64,-0.14 -1.62,-0.34 -1.56,-0.53 -1.49,-0.72 -1.38,-0.89 -1.27,-1.06 -1.27,-1.06 L -1.27,-1.06 Z"/></g><g transform="translate(377.5893162318638 219.61457497732977) rotate(0 44.666656494140625 -17.333343505859375)" stroke="none"><path fill="#000000" d="M -1.64,-0.59 Q -1.64,-0.59 -1.12,-2.79 -0.60,-4.99 1.25,-8.58 3.11,-12.17 6.05,-16.26 9.00,-20.36 11.29,-22.75 13.59,-25.14 15.82,-26.81 18.05,-28.48 19.94,-29.75 21.83,-31.02 24.10,-32.20 26.36,-33.38 32.99,-34.59 39.62,-35.80 43.69,-36.28 47.77,-36.75 50.97,-36.77 54.17,-36.79 56.72,-36.61 59.27,-36.43 61.70,-36.16 64.13,-35.89 66.16,-35.59 68.19,-35.28 70.19,-34.96 72.19,-34.65 76.26,-33.52 80.33,-32.40 83.00,-31.53 85.68,-30.66 87.81,-27.88 89.94,-25.10 89.93,-24.89 89.91,-24.68 89.83,-24.48 89.74,-24.29 89.60,-24.13 89.46,-23.97 89.27,-23.87 89.09,-23.76 88.88,-23.72 88.67,-23.68 88.46,-23.71 88.25,-23.74 88.06,-23.83 87.87,-23.93 87.72,-24.08 87.57,-24.23 87.47,-24.42 87.38,-24.61 87.35,-24.82 87.32,-25.03 87.36,-25.24 87.40,-25.45 87.50,-25.63 87.61,-25.82 87.77,-25.96 87.92,-26.10 88.12,-26.18 88.31,-26.27 88.53,-26.29 88.74,-26.30 88.94,-26.25 89.15,-26.20 89.33,-26.09 89.51,-25.97 89.64,-25.81 89.78,-25.64 89.85,-25.44 89.92,-25.24 89.93,-25.03 89.94,-24.82 89.87,-24.62 89.81,-24.41 89.69,-24.24 89.56,-24.07 89.39,-23.94 89.22,-23.82 89.02,-23.76 88.81,-23.69 88.60,-23.70 88.39,-23.70 88.19,-23.78 87.99,-23.85 87.82,-23.98 87.66,-24.12 87.54,-24.29 87.43,-24.47 87.38,-24.68 87.33,-24.89 87.33,-24.89 87.33,-24.89 85.61,-25.03 83.90,-25.17 81.33,-26.00 78.77,-26.83 75.01,-27.90 71.26,-28.97 69.28,-29.29 67.31,-29.62 65.40,-29.93 63.48,-30.24 61.16,-30.52 58.83,-30.80 56.49,-31.00 54.16,-31.21 51.27,-31.24 48.37,-31.27 44.44,-30.85 40.50,-30.44 34.59,-29.57 28.68,-28.70 26.70,-27.69 24.71,-26.68 22.91,-25.50 21.12,-24.32 19.19,-22.93 17.26,-21.55 15.17,-19.44 13.09,-17.34 10.24,-13.57 7.39,-9.81 5.53,-6.62 3.66,-3.43 2.65,-1.41 1.64,0.59 1.54,0.78 1.45,0.97 1.31,1.13 1.17,1.29 1.00,1.41 0.83,1.53 0.63,1.61 0.44,1.69 0.23,1.72 0.02,1.74 -0.18,1.72 -0.39,1.70 -0.59,1.63 -0.79,1.55 -0.96,1.44 -1.14,1.32 -1.28,1.16 -1.42,1.01 -1.52,0.82 -1.62,0.64 -1.68,0.43 -1.73,0.23 -1.73,0.02 -1.73,-0.18 -1.69,-0.39 -1.64,-0.59 -1.64,-0.59 L -1.64,-0.59 Z"/></g><g transform="translate(480.2559422084263 188.2812314714704) rotate(0 1.333343505859375 6)" stroke="none"><path fill="#000000" d="M -1.48,-0.59 Q -1.48,-0.59 -1.34,-1.65 -1.20,-2.71 -0.04,-4.26 1.11,-5.81 2.24,-5.83 3.38,-5.85 4.26,-4.16 5.15,-2.48 5.19,-0.98 5.22,0.51 5.23,1.90 5.24,3.28 5.24,4.64 5.24,5.99 5.22,7.33 5.21,8.68 5.16,9.82 5.12,10.97 5.04,12.03 4.96,13.09 4.47,14.71 3.97,16.32 3.94,16.53 3.91,16.74 3.81,16.93 3.71,17.11 3.55,17.26 3.40,17.41 3.21,17.49 3.01,17.58 2.80,17.61 2.59,17.63 2.38,17.58 2.18,17.54 1.99,17.43 1.81,17.32 1.67,17.16 1.54,17.00 1.46,16.80 1.38,16.60 1.37,16.39 1.36,16.18 1.41,15.97 1.47,15.77 1.59,15.59 1.71,15.42 1.88,15.29 2.05,15.16 2.25,15.09 2.45,15.02 2.66,15.02 2.87,15.02 3.08,15.09 3.28,15.16 3.45,15.29 3.62,15.42 3.73,15.59 3.85,15.77 3.91,15.97 3.97,16.18 3.96,16.39 3.94,16.60 3.87,16.80 3.79,17.00 3.65,17.16 3.51,17.32 3.33,17.43 3.15,17.54 2.94,17.58 2.73,17.63 2.52,17.61 2.31,17.58 2.12,17.49 1.92,17.41 1.77,17.26 1.62,17.11 1.52,16.93 1.42,16.74 1.38,16.53 1.35,16.32 1.35,16.32 1.35,16.32 0.86,14.71 0.36,13.09 0.28,12.03 0.20,10.97 0.16,9.83 0.11,8.68 0.09,7.34 0.07,6.01 0.07,4.66 0.06,3.31 0.05,1.95 0.04,0.58 0.16,-0.94 0.27,-2.47 1.50,-1.80 2.74,-1.12 2.11,-0.26 1.48,0.59 1.39,0.76 1.30,0.93 1.17,1.07 1.04,1.21 0.87,1.32 0.71,1.43 0.53,1.49 0.35,1.56 0.16,1.58 -0.02,1.60 -0.22,1.57 -0.41,1.54 -0.59,1.47 -0.77,1.40 -0.92,1.29 -1.08,1.18 -1.20,1.03 -1.33,0.88 -1.42,0.71 -1.50,0.54 -1.55,0.35 -1.59,0.16 -1.59,-0.02 -1.58,-0.22 -1.53,-0.40 -1.48,-0.59 -1.48,-0.59 L -1.48,-0.59 Z"/></g><g transform="translate(284.2559422084263 163.61457497732977) rotate(0 -59.666656494140625 124.33331298828125)" stroke="none"><path fill="#000000" d="M -1.39,-0.27 Q -1.39,-0.27 -1.29,-1.25 -1.19,-2.23 -0.94,-3.85 -0.70,-5.47 -0.66,-6.77 -0.62,-8.08 -0.66,-9.62 -0.69,-11.16 -0.45,-12.48 -0.21,-13.81 0.11,-14.86 0.43,-15.91 1.64,-16.99 2.84,-18.07 1.58,-17.29 0.33,-16.51 0.42,-16.78 0.51,-17.04 0.67,-17.28 0.82,-17.51 1.03,-17.70 1.23,-17.89 1.48,-18.03 1.73,-18.16 2.00,-18.24 2.27,-18.31 2.55,-18.32 2.83,-18.32 3.10,-18.26 3.38,-18.20 3.63,-18.08 3.88,-17.95 4.09,-17.77 4.31,-17.59 4.47,-17.36 4.64,-17.14 4.74,-16.88 4.85,-16.62 4.89,-16.34 4.93,-16.06 4.90,-15.78 4.87,-15.50 4.14,-13.53 3.41,-11.55 2.89,-10.28 2.38,-9.01 1.61,-6.78 0.85,-4.55 -0.11,-2.50 -1.07,-0.45 -1.82,1.28 -2.57,3.03 -3.29,4.58 -4.01,6.13 -4.44,7.58 -4.87,9.03 -5.72,10.84 -6.57,12.65 -7.24,14.42 -7.92,16.18 -9.19,19.12 -10.46,22.07 -11.60,24.33 -12.74,26.58 -13.55,28.57 -14.37,30.56 -15.33,32.64 -16.29,34.73 -17.29,36.62 -18.30,38.51 -19.04,40.32 -19.78,42.13 -20.74,44.00 -21.69,45.88 -22.44,47.53 -23.18,49.18 -23.88,50.84 -24.58,52.50 -25.26,54.16 -25.94,55.83 -26.98,58.61 -28.02,61.40 -29.09,63.65 -30.15,65.91 -31.17,67.99 -32.18,70.07 -33.19,72.11 -34.19,74.14 -34.98,75.92 -35.77,77.69 -36.70,79.65 -37.63,81.60 -38.62,83.44 -39.61,85.28 -40.61,87.02 -41.61,88.76 -42.61,90.46 -43.61,92.16 -44.97,94.59 -46.33,97.01 -47.29,98.79 -48.24,100.57 -49.28,102.20 -50.32,103.82 -51.30,105.41 -52.29,107.00 -53.32,108.50 -54.35,110.01 -55.37,111.42 -56.39,112.82 -57.35,114.31 -58.31,115.80 -59.34,117.27 -60.36,118.73 -61.72,120.83 -63.08,122.93 -64.01,124.55 -64.95,126.17 -65.54,127.24 -66.13,128.31 -66.64,129.73 -67.15,131.15 -67.78,132.75 -68.41,134.36 -69.06,135.98 -69.71,137.60 -70.27,138.83 -70.83,140.06 -71.84,142.11 -72.84,144.16 -73.40,145.68 -73.97,147.19 -74.67,148.58 -75.37,149.98 -76.02,151.28 -76.68,152.58 -77.11,153.63 -77.54,154.67 -78.28,156.44 -79.02,158.20 -79.91,160.31 -80.80,162.41 -81.47,163.66 -82.13,164.91 -82.90,166.82 -83.67,168.73 -84.34,170.83 -85.01,172.94 -85.34,174.19 -85.67,175.44 -86.28,176.78 -86.88,178.11 -87.66,179.96 -88.43,181.81 -88.96,183.09 -89.49,184.37 -89.90,185.46 -90.30,186.55 -91.02,188.35 -91.74,190.16 -92.41,192.09 -93.07,194.02 -93.39,195.14 -93.70,196.27 -94.24,197.96 -94.78,199.66 -95.20,200.94 -95.62,202.23 -96.01,203.23 -96.41,204.24 -97.13,205.81 -97.85,207.38 -98.58,208.80 -99.30,210.23 -99.94,211.53 -100.58,212.83 -101.38,215.04 -102.18,217.25 -102.61,218.33 -103.05,219.42 -103.75,221.37 -104.45,223.33 -104.90,224.79 -105.35,226.25 -105.72,227.37 -106.09,228.48 -106.65,230.11 -107.21,231.74 -107.55,233.23 -107.89,234.71 -108.29,236.05 -108.68,237.40 -109.38,238.97 -110.08,240.54 -110.36,241.58 -110.64,242.61 -110.95,244.13 -111.27,245.65 -111.94,247.18 -112.60,248.71 -113.24,250.29 -113.89,251.88 -114.57,253.44 -115.24,255.00 -115.94,255.94 -116.64,256.88 -117.03,257.95 -117.41,259.03 -117.67,260.37 -117.94,261.71 -118.37,263.08 -118.80,264.44 -119.90,265.52 -121.00,266.61 -121.86,264.05 -122.72,261.49 -122.63,261.30 -122.55,261.10 -122.41,260.94 -122.27,260.78 -122.09,260.67 -121.91,260.57 -121.70,260.52 -121.49,260.48 -121.28,260.51 -121.07,260.53 -120.88,260.62 -120.69,260.72 -120.53,260.86 -120.38,261.01 -120.28,261.20 -120.19,261.39 -120.16,261.60 -120.12,261.81 -120.16,262.02 -120.20,262.23 -120.30,262.42 -120.40,262.60 -120.56,262.75 -120.71,262.89 -120.91,262.98 -121.10,263.06 -121.31,263.08 -121.52,263.10 -121.73,263.06 -121.94,263.01 -122.12,262.90 -122.30,262.78 -122.44,262.62 -122.57,262.46 -122.65,262.26 -122.72,262.06 -122.73,261.85 -122.74,261.63 -122.68,261.43 -122.62,261.23 -122.50,261.05 -122.38,260.88 -122.21,260.75 -122.04,260.63 -121.83,260.56 -121.63,260.49 -121.42,260.50 -121.21,260.50 -121.01,260.57 -120.81,260.64 -120.64,260.77 -120.47,260.90 -120.35,261.08 -120.24,261.26 -120.18,261.46 -120.13,261.67 -120.14,261.88 -120.16,262.09 -120.16,262.09 -120.16,262.09 -121.82,262.69 -123.49,263.29 -123.08,261.94 -122.67,260.59 -122.21,258.67 -121.74,256.76 -121.28,255.70 -120.81,254.64 -119.84,253.19 -118.87,251.74 -118.36,250.12 -117.85,248.50 -117.19,246.92 -116.53,245.33 -116.09,244.22 -115.65,243.10 -115.28,241.52 -114.91,239.93 -114.45,238.70 -113.98,237.46 -113.60,236.05 -113.22,234.64 -112.73,233.22 -112.25,231.81 -111.77,230.16 -111.29,228.51 -110.59,226.33 -109.89,224.15 -109.53,222.92 -109.18,221.69 -108.83,220.67 -108.47,219.64 -107.71,217.62 -106.94,215.60 -106.04,213.09 -105.13,210.58 -104.54,209.35 -103.94,208.12 -103.45,206.98 -102.96,205.85 -102.38,204.82 -101.81,203.80 -101.15,202.22 -100.48,200.65 -100.07,199.38 -99.66,198.11 -99.14,196.49 -98.63,194.88 -98.28,193.63 -97.92,192.38 -97.23,190.38 -96.55,188.38 -95.83,186.57 -95.11,184.76 -94.67,183.59 -94.24,182.41 -93.34,180.29 -92.44,178.16 -91.55,176.14 -90.65,174.11 -90.31,172.81 -89.97,171.52 -89.61,170.25 -89.24,168.98 -88.88,167.94 -88.52,166.91 -88.13,165.83 -87.73,164.75 -87.23,163.59 -86.72,162.43 -86.17,161.43 -85.63,160.43 -84.77,158.38 -83.91,156.34 -83.15,154.49 -82.39,152.65 -81.88,151.43 -81.37,150.22 -80.71,148.91 -80.05,147.60 -79.47,146.47 -78.88,145.33 -78.22,143.59 -77.56,141.86 -76.59,139.87 -75.61,137.88 -75.12,136.82 -74.64,135.77 -73.99,134.15 -73.33,132.52 -72.81,131.30 -72.28,130.07 -71.51,127.92 -70.73,125.77 -70.12,124.65 -69.50,123.53 -68.50,121.80 -67.49,120.07 -66.08,117.89 -64.67,115.71 -63.70,114.33 -62.73,112.95 -61.69,111.35 -60.65,109.74 -59.67,108.38 -58.69,107.03 -57.73,105.63 -56.76,104.23 -55.76,102.60 -54.75,100.97 -53.81,99.53 -52.88,98.08 -51.89,96.25 -50.91,94.42 -49.51,91.97 -48.11,89.51 -47.12,87.84 -46.13,86.16 -45.16,84.48 -44.19,82.79 -43.25,81.08 -42.31,79.37 -41.40,77.48 -40.50,75.58 -39.66,73.72 -38.83,71.85 -37.82,69.83 -36.82,67.81 -35.82,65.75 -34.81,63.70 -33.82,61.64 -32.84,59.59 -31.77,56.73 -30.69,53.88 -30.00,52.19 -29.31,50.50 -28.59,48.79 -27.86,47.07 -27.06,45.30 -26.26,43.53 -25.39,41.85 -24.52,40.17 -23.67,38.13 -22.82,36.09 -21.87,34.34 -20.93,32.58 -20.01,30.60 -19.09,28.61 -18.19,26.44 -17.29,24.27 -16.21,22.15 -15.13,20.03 -13.88,17.19 -12.62,14.35 -11.86,12.42 -11.10,10.49 -10.38,9.02 -9.66,7.55 -9.10,5.78 -8.54,4.02 -7.84,2.53 -7.13,1.04 -6.33,-0.77 -5.53,-2.58 -4.65,-4.39 -3.78,-6.20 -2.91,-8.54 -2.05,-10.89 -1.45,-12.26 -0.85,-13.63 -0.26,-15.07 0.33,-16.51 0.42,-16.78 0.51,-17.04 0.67,-17.28 0.82,-17.51 1.03,-17.70 1.23,-17.89 1.48,-18.03 1.73,-18.16 2.00,-18.24 2.27,-18.31 2.55,-18.32 2.83,-18.32 3.10,-18.26 3.38,-18.20 3.63,-18.08 3.88,-17.95 4.09,-17.77 4.31,-17.59 4.47,-17.36 4.64,-17.14 4.74,-16.88 4.85,-16.62 4.89,-16.34 4.93,-16.06 4.90,-15.78 4.87,-15.50 4.55,-14.95 4.22,-14.40 3.79,-13.19 3.36,-11.98 3.33,-10.55 3.30,-9.12 3.22,-8.05 3.15,-6.99 2.93,-5.69 2.70,-4.40 2.33,-3.00 1.95,-1.60 1.67,-0.66 1.39,0.27 1.34,0.44 1.28,0.60 1.19,0.74 1.10,0.89 0.98,1.01 0.85,1.13 0.71,1.21 0.56,1.30 0.39,1.35 0.23,1.40 0.06,1.40 -0.10,1.41 -0.27,1.38 -0.44,1.35 -0.59,1.27 -0.75,1.20 -0.88,1.09 -1.02,0.98 -1.12,0.85 -1.22,0.71 -1.29,0.55 -1.36,0.40 -1.39,0.23 -1.42,0.06 -1.40,-0.10 -1.39,-0.27 -1.39,-0.27 L -1.39,-0.27 Z"/></g><g transform="translate(304.92262922014504 132.94788796561102) rotate(0 8 7.0000152587890625)" stroke="none"><path fill="#000000" d="M -0.87,-1.31 Q -0.87,-1.31 0.08,-2.37 1.04,-3.44 2.14,-3.88 3.24,-4.32 4.93,-4.84 6.62,-5.36 8.32,-4.78 10.03,-4.20 10.89,-2.62 11.75,-1.05 11.73,0.10 11.71,1.25 11.26,3.04 10.81,4.82 10.19,6.26 9.57,7.71 8.90,8.91 8.23,10.12 7.20,12.20 6.16,14.27 5.61,15.22 5.05,16.17 6.37,15.55 7.68,14.94 9.20,15.00 10.72,15.07 13.42,15.54 16.11,16.01 16.32,16.05 16.53,16.08 16.72,16.18 16.91,16.28 17.05,16.44 17.20,16.59 17.29,16.79 17.38,16.98 17.40,17.19 17.42,17.40 17.38,17.61 17.33,17.82 17.22,18.00 17.11,18.18 16.95,18.32 16.79,18.45 16.59,18.53 16.39,18.61 16.18,18.62 15.97,18.63 15.76,18.58 15.56,18.52 15.38,18.40 15.21,18.28 15.08,18.11 14.95,17.94 14.88,17.74 14.82,17.54 14.82,17.33 14.82,17.11 14.88,16.91 14.95,16.71 15.08,16.54 15.21,16.37 15.39,16.25 15.56,16.13 15.77,16.08 15.97,16.02 16.18,16.03 16.40,16.05 16.59,16.12 16.79,16.20 16.95,16.34 17.11,16.48 17.22,16.66 17.33,16.84 17.38,17.05 17.42,17.26 17.40,17.47 17.38,17.68 17.29,17.87 17.20,18.07 17.05,18.22 16.90,18.37 16.72,18.47 16.53,18.57 16.32,18.61 16.11,18.64 16.11,18.64 16.11,18.64 13.38,19.09 10.64,19.54 8.92,19.50 7.20,19.46 5.12,19.10 3.03,18.74 1.92,17.63 0.81,16.52 1.12,14.81 1.44,13.11 2.34,11.66 3.25,10.20 3.76,9.06 4.26,7.91 4.84,6.89 5.41,5.87 5.91,4.77 6.41,3.68 6.43,1.47 6.45,-0.74 5.00,-0.18 3.55,0.37 2.21,0.84 0.87,1.31 0.70,1.39 0.53,1.48 0.34,1.52 0.16,1.56 -0.02,1.56 -0.21,1.56 -0.39,1.51 -0.58,1.46 -0.74,1.37 -0.91,1.28 -1.05,1.15 -1.19,1.02 -1.30,0.86 -1.40,0.70 -1.47,0.53 -1.53,0.35 -1.55,0.16 -1.57,-0.02 -1.55,-0.21 -1.52,-0.40 -1.45,-0.57 -1.38,-0.75 -1.27,-0.90 -1.16,-1.06 -1.01,-1.18 -0.87,-1.31 -0.87,-1.31 L -0.87,-1.31 Z"/></g><g transform="translate(263.5893162318638 131.61457497732977) rotate(0 -43.333343505859375 171.3333282470703)" stroke="none"><path fill="#000000" d="M 0,1.58 Q 0,1.58 -0.44,1.70 -0.89,1.83 -0.61,3.82 -0.33,5.82 -0.62,7.76 -0.90,9.70 -1.19,10.75 -1.48,11.80 -1.79,12.83 -2.10,13.85 -2.41,15.00 -2.71,16.15 -3.23,17.85 -3.75,19.55 -4.15,20.99 -4.55,22.43 -4.92,23.66 -5.28,24.88 -5.63,25.98 -5.98,27.08 -6.36,29.06 -6.73,31.05 -7.06,33.20 -7.39,35.34 -7.70,36.50 -8.01,37.66 -8.34,38.73 -8.67,39.80 -8.96,41.45 -9.26,43.11 -9.60,44.51 -9.94,45.91 -10.29,47.10 -10.63,48.28 -10.97,49.36 -11.31,50.45 -11.68,52.42 -12.06,54.39 -12.37,55.45 -12.68,56.50 -13.00,57.52 -13.33,58.55 -13.86,59.99 -14.40,61.43 -14.81,62.57 -15.21,63.71 -15.57,64.77 -15.93,65.83 -16.28,66.86 -16.62,67.88 -17.05,69.43 -17.48,70.99 -17.76,72.07 -18.04,73.15 -18.35,74.18 -18.66,75.21 -19.17,76.80 -19.69,78.40 -20.09,79.64 -20.50,80.89 -21.22,82.80 -21.93,84.70 -22.60,86.42 -23.26,88.14 -23.67,89.59 -24.09,91.04 -24.68,92.89 -25.28,94.75 -25.81,96.14 -26.33,97.53 -26.71,98.79 -27.08,100.06 -27.44,101.22 -27.81,102.38 -28.13,103.59 -28.45,104.80 -28.80,105.94 -29.14,107.08 -29.48,108.14 -29.81,109.20 -30.15,110.23 -30.49,111.26 -30.80,112.40 -31.12,113.55 -31.51,115.38 -31.90,117.21 -32.24,118.91 -32.59,120.60 -32.92,122.28 -33.25,123.95 -33.54,125.09 -33.82,126.24 -34.14,127.35 -34.47,128.47 -34.80,129.52 -35.12,130.57 -35.44,131.72 -35.75,132.88 -36.12,133.88 -36.48,134.88 -36.77,136.08 -37.06,137.29 -37.48,139.11 -37.89,140.92 -38.24,142.36 -38.60,143.79 -38.91,145.25 -39.22,146.72 -39.50,147.83 -39.78,148.95 -40.11,150.05 -40.44,151.16 -40.88,152.60 -41.31,154.04 -41.66,155.38 -42.01,156.72 -42.35,158.06 -42.68,159.39 -43.30,161.04 -43.91,162.69 -44.71,164.96 -45.50,167.24 -45.90,168.60 -46.29,169.95 -46.66,171.15 -47.04,172.35 -47.62,173.73 -48.20,175.12 -48.60,176.18 -49.00,177.25 -49.76,178.94 -50.51,180.63 -50.90,182.24 -51.29,183.85 -51.65,185.27 -52.01,186.69 -52.34,188.18 -52.68,189.68 -52.93,190.93 -53.18,192.18 -53.75,193.49 -54.32,194.81 -54.67,195.90 -55.01,196.98 -55.38,198.07 -55.74,199.17 -56.08,200.21 -56.43,201.25 -56.98,202.70 -57.52,204.15 -57.96,205.17 -58.39,206.20 -58.82,207.66 -59.24,209.13 -59.86,210.93 -60.48,212.73 -60.78,213.84 -61.09,214.94 -61.61,216.95 -62.12,218.95 -62.54,220.58 -62.95,222.20 -63.33,223.51 -63.71,224.82 -64.07,225.95 -64.43,227.09 -64.59,228.43 -64.75,229.77 -65.03,231.40 -65.31,233.03 -65.38,234.09 -65.45,235.15 -65.90,236.85 -66.34,238.54 -66.76,240.77 -67.19,242.99 -67.49,244.22 -67.80,245.45 -68.13,246.59 -68.47,247.74 -68.87,249.61 -69.26,251.48 -69.37,252.90 -69.47,254.33 -69.70,255.58 -69.93,256.84 -70.04,258.26 -70.15,259.69 -70.39,261.72 -70.63,263.75 -70.93,265.90 -71.24,268.04 -71.54,269.35 -71.83,270.66 -72.13,272.48 -72.43,274.29 -72.77,275.74 -73.11,277.20 -73.46,278.41 -73.80,279.62 -74.14,280.72 -74.48,281.81 -74.87,283.65 -75.27,285.50 -75.37,286.82 -75.48,288.15 -75.71,289.30 -75.95,290.45 -76.26,292.91 -76.57,295.37 -76.67,296.53 -76.76,297.69 -77.02,298.94 -77.28,300.20 -77.39,301.89 -77.51,303.58 -77.82,305.09 -78.12,306.61 -78.38,308.42 -78.64,310.24 -78.94,311.34 -79.24,312.45 -79.37,313.94 -79.50,315.44 -79.74,316.59 -79.98,317.75 -80.31,319.74 -80.63,321.74 -80.99,323.37 -81.34,324.99 -81.69,326.97 -82.03,328.94 -82.36,330.35 -82.69,331.77 -83.00,333.23 -83.31,334.69 -83.72,336.03 -84.12,337.37 -84.19,339.10 -84.27,340.82 -84.78,341.48 -85.29,342.14 -85.08,342.12 -84.87,342.10 -84.66,342.14 -84.46,342.19 -84.28,342.30 -84.09,342.41 -83.96,342.58 -83.82,342.74 -83.75,342.94 -83.67,343.14 -83.66,343.35 -83.65,343.56 -83.71,343.76 -83.77,343.97 -83.89,344.14 -84.01,344.32 -84.18,344.45 -84.35,344.57 -84.55,344.64 -84.75,344.70 -84.97,344.70 -85.18,344.70 -85.38,344.63 -85.58,344.56 -85.75,344.43 -85.92,344.30 -86.03,344.12 -86.15,343.95 -86.21,343.74 -86.26,343.54 -86.25,343.32 -86.23,343.11 -86.15,342.92 -86.07,342.72 -85.93,342.56 -85.79,342.40 -85.61,342.29 -85.43,342.18 -85.22,342.14 -85.01,342.09 -84.80,342.12 -84.59,342.14 -84.40,342.24 -84.21,342.33 -84.05,342.47 -83.90,342.62 -83.80,342.81 -83.71,343.00 -83.67,343.21 -83.64,343.42 -83.68,343.63 -83.71,343.84 -83.81,344.02 -83.92,344.21 -84.07,344.36 -84.23,344.50 -84.42,344.59 -84.61,344.68 -84.61,344.68 -84.61,344.68 -86.81,343.24 -89.00,341.81 -88.98,340.39 -88.96,338.97 -88.90,337.76 -88.84,336.54 -88.41,334.98 -87.99,333.42 -87.64,331.82 -87.28,330.22 -86.98,328.91 -86.68,327.59 -86.45,326.19 -86.22,324.79 -85.90,323.65 -85.59,322.50 -85.26,320.74 -84.94,318.98 -84.64,317.07 -84.34,315.16 -84.13,313.17 -83.92,311.18 -83.47,309.35 -83.03,307.52 -82.86,305.88 -82.69,304.25 -82.48,302.90 -82.26,301.56 -81.94,299.43 -81.61,297.30 -81.51,295.98 -81.41,294.66 -81.19,293.16 -80.97,291.66 -80.86,290.52 -80.75,289.39 -80.51,287.64 -80.27,285.89 -79.92,284.35 -79.56,282.80 -79.38,281.58 -79.19,280.36 -78.87,279.31 -78.55,278.27 -78.23,277.17 -77.92,276.06 -77.61,274.77 -77.30,273.47 -76.97,271.52 -76.64,269.57 -76.36,268.34 -76.08,267.11 -75.87,266.06 -75.66,265.00 -75.55,263.88 -75.44,262.75 -75.25,261.09 -75.06,259.44 -74.91,257.67 -74.77,255.91 -74.53,254.13 -74.29,252.35 -73.94,250.57 -73.58,248.80 -73.41,247.57 -73.24,246.35 -72.93,245.30 -72.63,244.25 -72.09,242.07 -71.54,239.89 -71.34,238.55 -71.14,237.21 -70.78,236.03 -70.43,234.86 -70.26,233.24 -70.08,231.61 -69.90,230.48 -69.72,229.35 -69.46,227.48 -69.20,225.61 -68.86,224.52 -68.52,223.42 -68.17,222.20 -67.82,220.97 -67.40,219.33 -66.99,217.70 -66.46,215.64 -65.93,213.59 -65.26,211.39 -64.59,209.20 -64.06,207.73 -63.52,206.27 -62.88,204.32 -62.23,202.37 -61.72,201.02 -61.21,199.67 -60.86,198.63 -60.52,197.59 -60.16,196.50 -59.80,195.42 -59.35,194.07 -58.91,192.72 -58.29,190.91 -57.68,189.09 -57.52,187.96 -57.37,186.84 -57.02,185.46 -56.68,184.09 -56.30,182.53 -55.91,180.97 -55.51,179.73 -55.11,178.49 -54.43,176.97 -53.74,175.45 -53.30,174.29 -52.86,173.13 -52.36,171.98 -51.87,170.84 -51.51,169.69 -51.15,168.53 -50.72,167.07 -50.29,165.60 -49.77,164.06 -49.24,162.52 -48.64,161.01 -48.03,159.50 -47.70,158.17 -47.36,156.84 -47.02,155.48 -46.67,154.12 -46.27,152.65 -45.87,151.19 -45.27,149.44 -44.68,147.69 -44.17,145.82 -43.67,143.96 -43.33,142.59 -42.99,141.22 -42.63,139.72 -42.27,138.21 -42.11,137.15 -41.94,136.08 -41.27,133.81 -40.59,131.55 -40.25,130.30 -39.90,129.05 -39.27,127.03 -38.64,125.02 -38.34,123.86 -38.05,122.70 -37.71,121.03 -37.37,119.36 -37.02,117.66 -36.68,115.96 -36.28,114.09 -35.88,112.23 -35.53,110.97 -35.18,109.72 -34.85,108.71 -34.52,107.69 -34.18,106.67 -33.85,105.64 -33.51,104.56 -33.18,103.49 -32.81,102.19 -32.44,100.90 -32.07,99.77 -31.70,98.65 -31.26,97.24 -30.81,95.83 -30.32,94.53 -29.83,93.24 -29.32,91.76 -28.82,90.28 -28.28,88.39 -27.74,86.49 -27.05,84.80 -26.36,83.11 -25.66,81.27 -24.95,79.43 -24.54,78.19 -24.13,76.95 -23.62,75.41 -23.11,73.86 -22.60,72.07 -22.08,70.27 -21.54,68.33 -21.01,66.40 -20.66,65.36 -20.31,64.33 -19.93,63.25 -19.56,62.17 -19.14,60.99 -18.72,59.81 -17.91,57.50 -17.10,55.19 -16.58,53.34 -16.07,51.50 -15.88,50.29 -15.70,49.08 -15.37,48.04 -15.05,47.00 -14.72,45.90 -14.40,44.81 -14.09,43.54 -13.77,42.28 -13.41,40.37 -13.06,38.46 -12.47,36.46 -11.89,34.45 -11.67,33.36 -11.44,32.26 -11.07,30.20 -10.70,28.14 -10.51,26.92 -10.32,25.70 -9.97,24.63 -9.62,23.56 -9.25,22.39 -8.88,21.21 -8.45,19.71 -8.03,18.21 -7.51,16.60 -6.99,14.98 -6.32,12.79 -5.65,10.59 -5.14,8.82 -4.63,7.05 -4.50,5.96 -4.37,4.87 -4.09,3.35 -3.81,1.83 -2.61,0.00 -1.40,-1.83 -0.70,-1.70 0,-1.58 0.18,-1.56 0.37,-1.54 0.55,-1.47 0.73,-1.40 0.89,-1.29 1.05,-1.18 1.17,-1.04 1.30,-0.90 1.39,-0.73 1.48,-0.56 1.52,-0.37 1.57,-0.19 1.57,0.00 1.57,0.19 1.52,0.37 1.48,0.56 1.39,0.73 1.30,0.90 1.17,1.04 1.05,1.18 0.89,1.29 0.73,1.40 0.55,1.47 0.37,1.54 0.18,1.56 -0.00,1.58 -0.00,1.58 L 0,1.58 Z"/></g><g transform="translate(275.5893162318638 103.61457497732977) rotate(0 -1.66668701171875 6.3333282470703125)" stroke="none"><path fill="#000000" d="M -1.20,0.90 Q -1.20,0.90 -2.00,0.30 -2.81,-0.29 -3.59,-1.09 -4.37,-1.89 -5.46,-2.86 -6.55,-3.82 -6.44,-5.56 -6.34,-7.30 -5.75,-8.19 -5.15,-9.08 -3.96,-10.23 -2.77,-11.38 -1.06,-11.62 0.64,-11.86 1.72,-10.73 2.79,-9.61 2.64,-8.04 2.48,-6.47 1.95,-4.60 1.42,-2.72 0.94,-1.27 0.46,0.18 0.54,1.31 0.62,2.45 0.89,3.69 1.15,4.93 2.02,6.61 2.89,8.30 3.45,9.77 4.01,11.23 3.95,13.10 3.88,14.97 3.18,16.45 2.47,17.94 1.30,19.03 0.14,20.12 -1.16,20.59 -2.46,21.06 -3.21,21.98 -3.97,22.90 -4.10,23.07 -4.22,23.24 -4.40,23.36 -4.57,23.48 -4.78,23.54 -4.98,23.59 -5.19,23.58 -5.41,23.57 -5.60,23.50 -5.80,23.42 -5.97,23.28 -6.13,23.15 -6.24,22.97 -6.35,22.79 -6.40,22.58 -6.45,22.37 -6.42,22.16 -6.40,21.95 -6.32,21.76 -6.23,21.56 -6.08,21.41 -5.94,21.25 -5.75,21.15 -5.56,21.05 -5.36,21.01 -5.15,20.98 -4.94,21.01 -4.73,21.04 -4.54,21.14 -4.35,21.24 -4.20,21.39 -4.05,21.54 -3.96,21.74 -3.87,21.93 -3.85,22.14 -3.82,22.35 -3.87,22.56 -3.91,22.77 -4.02,22.95 -4.13,23.13 -4.29,23.27 -4.45,23.41 -4.65,23.49 -4.84,23.57 -5.05,23.58 -5.27,23.60 -5.47,23.54 -5.68,23.49 -5.85,23.37 -6.03,23.25 -6.16,23.08 -6.29,22.91 -6.36,22.71 -6.43,22.51 -6.43,22.30 -6.43,22.09 -6.37,21.89 -6.30,21.68 -6.30,21.68 -6.30,21.68 -5.77,20.08 -5.25,18.47 -4.42,17.61 -3.60,16.76 -2.38,15.78 -1.17,14.80 -0.91,13.24 -0.64,11.68 -1.27,10.00 -1.90,8.32 -2.80,6.47 -3.71,4.61 -3.95,3.09 -4.20,1.58 -3.94,-0.10 -3.67,-1.79 -3.26,-3.09 -2.86,-4.39 -1.74,-5.82 -0.63,-7.25 -1.82,-6.85 -3.02,-6.45 -1.97,-5.61 -0.91,-4.77 -0.20,-3.77 0.51,-2.77 0.85,-1.83 1.20,-0.90 1.29,-0.74 1.38,-0.58 1.43,-0.41 1.48,-0.24 1.49,-0.05 1.50,0.12 1.46,0.30 1.42,0.47 1.35,0.64 1.27,0.80 1.15,0.94 1.04,1.08 0.89,1.19 0.75,1.30 0.58,1.37 0.41,1.44 0.23,1.47 0.05,1.50 -0.12,1.49 -0.30,1.47 -0.47,1.41 -0.64,1.36 -0.80,1.26 -0.95,1.16 -1.08,1.03 -1.20,0.90 -1.20,0.90 L -1.20,0.90 Z"/></g><g transform="translate(238.92262922014504 122.94788796561102) rotate(0 -25.666656494140625 194.33334350585938)" stroke="none"><path fill="#000000" d="M 1.53,0.15 Q 1.53,0.15 1.62,2.09 1.72,4.04 1.66,5.57 1.61,7.10 1.39,8.83 1.17,10.55 0.88,12.24 0.60,13.93 0.29,15.61 -0.00,17.29 -0.32,18.96 -0.64,20.63 -0.97,22.47 -1.29,24.31 -1.62,26.07 -1.96,27.83 -2.29,29.54 -2.63,31.25 -2.94,33.63 -3.26,36.01 -3.60,38.05 -3.93,40.08 -4.05,41.79 -4.18,43.50 -4.43,45.30 -4.69,47.11 -4.78,48.89 -4.88,50.67 -5.12,52.52 -5.36,54.37 -5.45,55.81 -5.55,57.24 -5.78,59.65 -6.00,62.06 -6.30,63.90 -6.60,65.75 -6.71,67.18 -6.82,68.60 -7.08,70.12 -7.34,71.64 -7.43,72.72 -7.52,73.80 -7.79,76.03 -8.06,78.27 -8.16,80.37 -8.26,82.48 -8.48,83.70 -8.71,84.92 -8.77,85.99 -8.84,87.05 -9.28,89.08 -9.72,91.11 -10.08,92.68 -10.45,94.25 -10.79,95.69 -11.14,97.12 -11.47,98.50 -11.81,99.88 -12.14,101.23 -12.48,102.59 -12.82,103.78 -13.17,104.98 -13.49,106.20 -13.82,107.43 -14.14,108.88 -14.46,110.32 -14.58,111.41 -14.70,112.50 -14.99,113.58 -15.28,114.66 -15.62,116.30 -15.96,117.95 -16.29,119.86 -16.61,121.77 -16.94,124.01 -17.27,126.25 -17.34,127.32 -17.42,128.38 -17.67,129.79 -17.92,131.19 -18.24,134.07 -18.57,136.95 -18.67,138.23 -18.77,139.51 -18.81,140.62 -18.85,141.72 -18.86,142.95 -18.88,144.18 -18.89,145.27 -18.90,146.37 -19.11,148.66 -19.32,150.94 -19.38,152.36 -19.44,153.78 -19.69,155.18 -19.93,156.59 -20.24,157.78 -20.55,158.97 -20.91,161.01 -21.27,163.05 -21.39,164.40 -21.50,165.74 -21.81,167.52 -22.11,169.30 -22.36,170.49 -22.62,171.67 -22.95,173.70 -23.28,175.72 -23.39,177.51 -23.51,179.29 -23.74,180.48 -23.97,181.68 -24.08,183.48 -24.18,185.28 -24.20,187.62 -24.23,189.96 -24.23,191.13 -24.23,192.29 -24.45,193.42 -24.67,194.55 -24.76,196.26 -24.85,197.97 -25.08,200.30 -25.31,202.64 -25.60,203.97 -25.88,205.29 -25.98,206.45 -26.07,207.61 -26.34,208.89 -26.60,210.16 -26.88,211.93 -27.17,213.69 -27.50,215.12 -27.84,216.55 -28.00,218.55 -28.17,220.55 -28.43,222.38 -28.70,224.20 -28.78,226.04 -28.87,227.89 -29.29,230.23 -29.71,232.56 -30.07,234.45 -30.44,236.34 -30.78,238.10 -31.13,239.86 -31.26,241.26 -31.40,242.66 -31.67,244.00 -31.94,245.35 -32.04,246.49 -32.13,247.63 -32.40,248.75 -32.68,249.87 -32.79,251.59 -32.90,253.31 -32.93,254.99 -32.95,256.67 -33.17,257.85 -33.39,259.04 -33.66,260.25 -33.94,261.46 -34.03,262.74 -34.12,264.03 -34.37,265.69 -34.63,267.35 -34.93,268.85 -35.24,270.35 -35.56,271.75 -35.88,273.15 -36.00,274.36 -36.11,275.56 -36.20,277.79 -36.29,280.02 -36.30,281.76 -36.32,283.50 -36.32,285.10 -36.32,286.69 -36.32,288.81 -36.32,290.93 -36.32,292.20 -36.32,293.46 -36.33,295.53 -36.33,297.60 -36.54,299.21 -36.74,300.81 -36.82,301.93 -36.90,303.06 -36.95,304.92 -37.00,306.79 -37.01,308.22 -37.02,309.66 -37.30,311.14 -37.59,312.61 -37.83,315.01 -38.07,317.40 -38.36,318.88 -38.66,320.36 -38.76,321.60 -38.86,322.84 -39.12,324.13 -39.38,325.42 -39.52,327.16 -39.65,328.89 -39.96,330.74 -40.27,332.58 -40.32,334.29 -40.37,336.00 -40.59,337.17 -40.81,338.34 -41.12,340.77 -41.43,343.19 -41.72,344.54 -42.02,345.89 -42.34,347.23 -42.66,348.56 -43.04,350.75 -43.43,352.94 -43.52,354.18 -43.60,355.43 -43.95,357.00 -44.29,358.58 -44.35,359.83 -44.41,361.07 -44.72,362.51 -45.03,363.95 -45.31,365.99 -45.59,368.04 -45.94,369.77 -46.29,371.50 -46.39,372.64 -46.49,373.78 -46.75,375.73 -47.02,377.67 -47.33,379.26 -47.64,380.84 -48.01,382.77 -48.39,384.70 -50.51,386.11 -52.63,387.51 -52.61,387.30 -52.59,387.09 -52.50,386.90 -52.41,386.71 -52.26,386.55 -52.11,386.40 -51.92,386.30 -51.73,386.20 -51.52,386.17 -51.31,386.14 -51.11,386.17 -50.90,386.21 -50.71,386.31 -50.52,386.41 -50.38,386.57 -50.23,386.72 -50.14,386.91 -50.05,387.11 -50.03,387.32 -50.01,387.53 -50.06,387.74 -50.11,387.94 -50.22,388.13 -50.33,388.31 -50.49,388.44 -50.65,388.58 -50.85,388.66 -51.05,388.74 -51.26,388.75 -51.47,388.76 -51.68,388.70 -51.88,388.64 -52.06,388.52 -52.23,388.40 -52.36,388.23 -52.49,388.06 -52.55,387.86 -52.62,387.66 -52.62,387.44 -52.62,387.23 -52.55,387.03 -52.48,386.83 -52.35,386.66 -52.22,386.49 -52.04,386.37 -51.87,386.26 -51.66,386.20 -51.46,386.14 -51.24,386.16 -51.03,386.17 -50.84,386.25 -50.64,386.33 -50.48,386.47 -50.32,386.61 -50.21,386.79 -50.10,386.97 -50.05,387.18 -50.01,387.39 -50.01,387.39 -50.01,387.39 -51.13,385.65 -52.25,383.91 -52.08,382.85 -51.92,381.79 -51.61,380.16 -51.31,378.53 -51.04,377.14 -50.76,375.74 -50.74,374.63 -50.71,373.53 -50.53,371.90 -50.35,370.27 -50.07,368.77 -49.79,367.27 -49.58,365.34 -49.37,363.40 -49.12,362.16 -48.86,360.92 -48.80,359.44 -48.73,357.96 -48.40,356.51 -48.07,355.07 -47.73,352.56 -47.38,350.05 -47.22,348.78 -47.07,347.52 -46.76,346.21 -46.45,344.91 -46.17,343.65 -45.89,342.39 -45.68,341.24 -45.46,340.09 -45.18,338.00 -44.90,335.90 -44.85,334.06 -44.79,332.21 -44.67,330.92 -44.54,329.62 -44.33,328.24 -44.13,326.87 -43.79,324.65 -43.45,322.44 -43.31,320.95 -43.18,319.46 -42.91,318.12 -42.64,316.78 -42.44,315.37 -42.25,313.96 -42.09,312.16 -41.93,310.37 -41.78,309.29 -41.62,308.21 -41.60,306.60 -41.58,304.99 -41.55,303.86 -41.52,302.74 -41.43,301.47 -41.35,300.21 -41.17,298.90 -40.99,297.60 -41.00,295.53 -41.00,293.46 -41.00,292.20 -41.00,290.93 -41.00,288.81 -41.00,286.69 -41.00,285.08 -40.99,283.48 -40.98,281.71 -40.96,279.93 -40.89,277.52 -40.81,275.10 -40.66,273.60 -40.51,272.10 -40.19,270.75 -39.88,269.39 -39.60,268.02 -39.32,266.64 -39.09,265.14 -38.85,263.65 -38.71,262.02 -38.57,260.39 -38.30,259.24 -38.03,258.10 -37.85,256.43 -37.67,254.75 -37.60,252.87 -37.54,250.98 -37.21,249.10 -36.88,247.22 -36.75,245.80 -36.63,244.37 -36.39,243.28 -36.16,242.19 -36.00,240.56 -35.84,238.94 -35.50,237.18 -35.15,235.43 -34.80,233.56 -34.44,231.69 -34.06,229.70 -33.68,227.71 -33.64,226.63 -33.61,225.54 -33.48,224.24 -33.36,222.94 -33.17,221.62 -32.99,220.29 -32.93,219.15 -32.87,218.02 -32.71,216.73 -32.55,215.45 -32.25,214.18 -31.95,212.91 -31.43,210.05 -30.90,207.18 -30.76,205.72 -30.62,204.27 -30.18,202.05 -29.73,199.82 -29.68,197.77 -29.62,195.72 -29.35,193.99 -29.08,192.26 -29.08,191.10 -29.08,189.94 -29.06,187.51 -29.03,185.09 -28.99,184.03 -28.95,182.97 -28.65,181.02 -28.36,179.07 -28.31,178.01 -28.27,176.94 -27.93,174.94 -27.60,172.93 -27.28,170.91 -26.95,168.89 -26.82,167.58 -26.68,166.28 -26.47,165.05 -26.26,163.82 -25.91,161.99 -25.56,160.17 -25.14,157.94 -24.72,155.72 -24.51,154.62 -24.30,153.53 -24.20,151.78 -24.10,150.04 -23.92,148.19 -23.74,146.34 -23.73,145.22 -23.72,144.11 -23.70,142.82 -23.69,141.54 -23.64,140.35 -23.60,139.16 -23.50,137.74 -23.40,136.33 -23.17,134.56 -22.94,132.79 -22.83,131.56 -22.71,130.32 -22.49,129.16 -22.28,127.99 -21.94,125.68 -21.61,123.37 -21.27,121.18 -20.93,118.99 -20.59,117.09 -20.25,115.19 -19.89,113.56 -19.53,111.92 -19.37,110.59 -19.21,109.26 -18.86,107.72 -18.52,106.18 -18.18,104.90 -17.84,103.62 -17.51,102.51 -17.19,101.41 -16.85,100.06 -16.51,98.72 -16.16,97.35 -15.82,95.98 -15.47,94.56 -15.11,93.14 -14.74,91.60 -14.36,90.06 -13.96,88.38 -13.56,86.70 -13.26,84.50 -12.96,82.30 -12.91,81.17 -12.86,80.04 -12.56,77.84 -12.27,75.64 -12.22,74.51 -12.17,73.39 -12.05,72.11 -11.93,70.84 -11.70,69.53 -11.47,68.22 -11.33,66.61 -11.20,65.00 -10.91,63.30 -10.63,61.60 -10.39,59.27 -10.15,56.94 -10.04,55.35 -9.93,53.75 -9.70,52.08 -9.46,50.41 -9.34,48.43 -9.22,46.45 -8.97,44.80 -8.73,43.14 -8.57,41.24 -8.41,39.33 -8.08,37.37 -7.74,35.40 -7.40,32.89 -7.05,30.38 -6.72,28.69 -6.38,26.99 -6.05,25.26 -5.73,23.52 -5.39,21.65 -5.05,19.77 -4.72,18.11 -4.39,16.46 -4.07,14.82 -3.75,13.17 -3.46,11.56 -3.17,9.95 -2.93,8.41 -2.70,6.88 -2.59,5.25 -2.48,3.62 -2.01,1.73 -1.53,-0.15 -1.49,-0.33 -1.45,-0.51 -1.37,-0.68 -1.28,-0.84 -1.16,-0.99 -1.04,-1.13 -0.89,-1.24 -0.74,-1.35 -0.57,-1.42 -0.40,-1.49 -0.21,-1.51 -0.03,-1.54 0.15,-1.52 0.33,-1.50 0.51,-1.44 0.68,-1.38 0.84,-1.27 0.99,-1.17 1.12,-1.04 1.25,-0.90 1.34,-0.74 1.43,-0.57 1.47,-0.39 1.52,-0.21 1.53,-0.03 1.53,0.15 1.53,0.15 L 1.53,0.15 Z"/></g><g transform="translate(248.92262922014504 88.28123147147039) rotate(0 -3 9)" stroke="none"><path fill="#000000" d="M -1.30,0.97 Q -1.30,0.97 -2.04,0.49 -2.78,0.02 -2.31,1.13 -1.84,2.23 -2.38,3.24 -2.92,4.25 -3.55,5.45 -4.17,6.66 -4.82,7.94 -5.47,9.22 -5.87,10.39 -6.28,11.56 -6.70,12.56 -7.11,13.56 -7.60,14.76 -8.09,15.96 -6.59,15.72 -5.09,15.48 -3.81,15.71 -2.53,15.94 -0.57,16.36 1.38,16.77 3.49,18.25 5.61,19.73 5.71,19.92 5.80,20.11 5.84,20.32 5.87,20.53 5.83,20.74 5.79,20.95 5.69,21.14 5.59,21.32 5.43,21.47 5.27,21.61 5.08,21.70 4.89,21.79 4.68,21.81 4.46,21.83 4.26,21.78 4.05,21.73 3.87,21.62 3.69,21.50 3.55,21.34 3.42,21.18 3.34,20.98 3.27,20.78 3.26,20.57 3.25,20.35 3.31,20.15 3.37,19.95 3.49,19.77 3.61,19.60 3.78,19.47 3.95,19.35 4.16,19.28 4.36,19.22 4.57,19.22 4.78,19.22 4.98,19.29 5.18,19.36 5.35,19.49 5.52,19.63 5.64,19.80 5.75,19.98 5.81,20.19 5.86,20.39 5.85,20.60 5.83,20.82 5.75,21.01 5.67,21.21 5.53,21.37 5.39,21.53 5.21,21.63 5.02,21.74 4.81,21.78 4.61,21.83 4.39,21.80 4.18,21.78 3.99,21.68 3.80,21.59 3.65,21.44 3.50,21.29 3.50,21.29 3.50,21.29 1.20,21.11 -1.09,20.92 -2.26,20.84 -3.43,20.76 -5.37,20.50 -7.30,20.25 -8.69,19.82 -10.07,19.39 -11.22,18.38 -12.37,17.38 -12.41,15.54 -12.45,13.70 -11.72,11.79 -10.99,9.88 -10.46,8.42 -9.92,6.96 -9.27,5.66 -8.61,4.36 -7.96,3.11 -7.31,1.85 -6.18,-0.04 -5.05,-1.95 -3.61,-2.99 -2.16,-4.03 -0.83,-3.56 0.48,-3.08 0.89,-2.03 1.30,-0.97 1.39,-0.80 1.49,-0.63 1.55,-0.44 1.60,-0.25 1.61,-0.06 1.61,0.13 1.58,0.32 1.54,0.51 1.45,0.69 1.37,0.86 1.24,1.02 1.12,1.17 0.96,1.29 0.81,1.40 0.63,1.48 0.45,1.56 0.25,1.59 0.06,1.62 -0.13,1.60 -0.32,1.59 -0.51,1.52 -0.69,1.46 -0.86,1.36 -1.02,1.25 -1.16,1.11 -1.30,0.97 -1.30,0.97 L -1.30,0.97 Z"/></g><g transform="translate(251.5893162318638 105.61457497732977) rotate(0 -1.333343505859375 8.333328247070312)" stroke="none"><path fill="#000000" d="M 1.47,0.36 Q 1.47,0.36 1.68,1.23 1.88,2.10 1.60,3.18 1.31,4.27 1.17,5.33 1.03,6.38 0.42,9.46 -0.18,12.53 -0.68,14.87 -1.19,17.20 -1.26,17.41 -1.33,17.61 -1.46,17.77 -1.59,17.94 -1.77,18.06 -1.95,18.18 -2.15,18.23 -2.36,18.29 -2.57,18.27 -2.78,18.26 -2.98,18.18 -3.17,18.10 -3.33,17.96 -3.49,17.82 -3.60,17.64 -3.71,17.45 -3.75,17.24 -3.80,17.04 -3.77,16.83 -3.75,16.61 -3.66,16.42 -3.56,16.23 -3.42,16.08 -3.27,15.93 -3.08,15.83 -2.89,15.73 -2.68,15.70 -2.47,15.67 -2.26,15.70 -2.05,15.74 -1.87,15.84 -1.68,15.94 -1.53,16.10 -1.39,16.25 -1.30,16.45 -1.22,16.64 -1.19,16.85 -1.17,17.06 -1.22,17.27 -1.27,17.48 -1.38,17.66 -1.49,17.84 -1.66,17.98 -1.82,18.11 -2.02,18.19 -2.22,18.26 -2.43,18.27 -2.64,18.28 -2.84,18.22 -3.05,18.17 -3.22,18.04 -3.40,17.92 -3.52,17.75 -3.65,17.58 -3.72,17.38 -3.78,17.18 -3.78,16.97 -3.78,16.75 -3.78,16.75 -3.78,16.75 -3.48,14.48 -3.19,12.21 -3.24,10.25 -3.30,8.28 -3.33,7.12 -3.35,5.97 -3.26,4.56 -3.17,3.16 -2.91,2.06 -2.65,0.96 -2.06,0.29 -1.47,-0.36 -1.41,-0.54 -1.34,-0.71 -1.24,-0.86 -1.13,-1.01 -0.99,-1.13 -0.86,-1.25 -0.69,-1.33 -0.53,-1.42 -0.35,-1.46 -0.17,-1.51 0.00,-1.51 0.18,-1.50 0.36,-1.46 0.54,-1.42 0.70,-1.33 0.86,-1.24 1.00,-1.12 1.14,-1.00 1.24,-0.85 1.34,-0.70 1.41,-0.53 1.47,-0.35 1.50,-0.17 1.52,0.00 1.49,0.18 1.47,0.36 1.47,0.36 L 1.47,0.36 Z"/></g><g transform="translate(227.5893162318638 114.28123147147039) rotate(0 -17 236.66668701171875)" stroke="none"><path fill="#000000" d="M 1.47,0 Q 1.47,0 1.80,1.34 2.13,2.68 2.14,3.82 2.16,4.97 2.17,6.22 2.19,7.48 2.21,8.78 2.22,10.08 2.03,11.56 1.84,13.04 1.58,14.59 1.31,16.15 1.01,17.77 0.70,19.39 0.60,20.90 0.49,22.42 0.24,24.16 -0.00,25.89 -0.28,28.47 -0.56,31.05 -0.88,33.17 -1.21,35.29 -1.53,37.15 -1.86,39.02 -1.98,40.65 -2.10,42.28 -2.36,44.05 -2.61,45.83 -2.71,47.23 -2.81,48.63 -2.85,50.17 -2.89,51.71 -3.11,54.00 -3.32,56.29 -3.41,57.76 -3.49,59.23 -3.53,60.60 -3.56,61.97 -3.57,63.32 -3.58,64.67 -3.59,66.01 -3.59,67.35 -3.58,68.69 -3.58,70.02 -3.79,71.53 -3.99,73.03 -4.31,75.31 -4.62,77.60 -4.69,78.66 -4.76,79.73 -5.03,80.83 -5.30,81.94 -5.57,83.56 -5.83,85.18 -6.16,86.57 -6.49,87.96 -6.60,89.13 -6.70,90.29 -6.97,91.72 -7.23,93.14 -7.32,94.35 -7.41,95.55 -7.66,97.00 -7.91,98.45 -8.20,99.99 -8.49,101.54 -8.79,103.66 -9.10,105.79 -9.44,107.38 -9.78,108.96 -10.11,110.39 -10.45,111.81 -10.83,114.21 -11.21,116.60 -11.54,118.95 -11.87,121.30 -11.99,123.26 -12.11,125.22 -12.33,127.10 -12.54,128.98 -12.63,130.80 -12.71,132.62 -12.74,134.17 -12.77,135.72 -12.79,136.96 -12.81,138.19 -13.02,139.66 -13.23,141.12 -13.30,142.33 -13.37,143.54 -13.40,144.82 -13.43,146.10 -13.65,147.76 -13.87,149.42 -13.95,150.74 -14.02,152.06 -14.26,154.43 -14.49,156.80 -14.58,158.50 -14.68,160.21 -14.72,161.68 -14.76,163.16 -14.78,164.36 -14.80,165.56 -14.81,166.84 -14.81,168.11 -14.82,169.23 -14.82,170.35 -14.82,171.58 -14.82,172.82 -14.64,173.94 -14.46,175.05 -14.37,177.07 -14.28,179.09 -14.24,180.69 -14.21,182.28 -14.01,183.35 -13.82,184.41 -13.72,185.83 -13.62,187.24 -13.58,188.81 -13.54,190.37 -13.53,191.60 -13.51,192.83 -13.50,194.12 -13.50,195.41 -13.23,197.50 -12.95,199.58 -12.92,200.65 -12.88,201.73 -12.45,203.50 -12.02,205.27 -11.85,206.44 -11.69,207.61 -11.60,209.43 -11.52,211.26 -11.51,213.23 -11.50,215.20 -11.51,217.77 -11.51,220.34 -11.34,222.18 -11.18,224.03 -11.04,225.95 -10.91,227.87 -10.72,229.63 -10.53,231.39 -10.43,232.73 -10.32,234.07 -10.28,235.39 -10.24,236.71 -10.23,238.04 -10.21,239.37 -10.21,241.47 -10.20,243.57 -10.40,245.37 -10.60,247.16 -10.68,248.38 -10.75,249.59 -10.78,250.67 -10.82,251.75 -10.83,252.97 -10.85,254.19 -11.07,255.50 -11.29,256.80 -11.39,258.69 -11.50,260.58 -11.72,262.27 -11.94,263.97 -12.02,265.33 -12.11,266.68 -12.55,268.99 -13.00,271.29 -13.37,273.00 -13.75,274.70 -14.10,276.36 -14.44,278.02 -14.79,279.52 -15.14,281.02 -15.26,282.27 -15.39,283.52 -15.67,284.81 -15.95,286.11 -16.10,288.19 -16.25,290.28 -16.27,291.35 -16.29,292.42 -16.52,294.42 -16.74,296.42 -16.84,298.46 -16.93,300.49 -16.94,301.69 -16.96,302.89 -17.16,304.51 -17.37,306.12 -17.64,308.28 -17.92,310.43 -18.24,312.18 -18.56,313.93 -18.68,315.13 -18.80,316.32 -18.85,317.57 -18.90,318.82 -19.14,320.12 -19.38,321.42 -19.46,322.54 -19.53,323.65 -19.57,324.72 -19.61,325.78 -19.83,327.17 -20.05,328.55 -20.13,329.73 -20.20,330.91 -20.24,332.18 -20.27,333.45 -20.49,335.62 -20.70,337.80 -20.79,339.40 -20.87,341.01 -21.11,342.59 -21.35,344.18 -21.44,345.29 -21.53,346.41 -21.59,348.27 -21.64,350.13 -21.66,351.82 -21.67,353.52 -21.67,355.00 -21.68,356.48 -21.88,358.03 -22.09,359.58 -22.16,360.85 -22.23,362.12 -22.26,363.62 -22.30,365.11 -22.31,366.71 -22.32,368.30 -22.53,370.25 -22.73,372.20 -22.81,373.87 -22.89,375.54 -23.13,377.16 -23.37,378.78 -23.46,380.28 -23.55,381.77 -23.60,383.75 -23.66,385.72 -23.68,387.91 -23.70,390.09 -23.91,391.92 -24.13,393.74 -24.21,395.35 -24.29,396.96 -24.33,398.60 -24.37,400.24 -24.59,402.02 -24.80,403.80 -24.89,405.58 -24.97,407.35 -25.21,409.19 -25.45,411.03 -25.74,413.49 -26.03,415.94 -26.15,417.70 -26.28,419.46 -26.55,420.93 -26.82,422.39 -26.97,424.27 -27.13,426.15 -27.16,428.03 -27.19,429.90 -27.39,432.94 -27.58,435.98 -27.87,437.66 -28.15,439.33 -28.26,440.50 -28.36,441.67 -28.62,443.07 -28.87,444.46 -29.00,446.49 -29.13,448.53 -29.38,450.33 -29.63,452.13 -29.72,453.28 -29.81,454.44 -29.83,456.30 -29.85,458.17 -29.85,459.46 -29.85,460.75 -30.05,462.22 -30.26,463.69 -30.33,464.93 -30.40,466.17 -30.65,467.45 -30.89,468.73 -32.76,470.59 -34.63,472.45 -34.55,472.26 -34.46,472.06 -34.32,471.90 -34.18,471.75 -33.99,471.64 -33.81,471.54 -33.60,471.50 -33.39,471.46 -33.18,471.49 -32.97,471.52 -32.78,471.61 -32.59,471.71 -32.44,471.86 -32.29,472.01 -32.19,472.20 -32.10,472.39 -32.07,472.60 -32.04,472.81 -32.08,473.02 -32.12,473.23 -32.23,473.41 -32.33,473.60 -32.49,473.74 -32.65,473.88 -32.85,473.96 -33.04,474.05 -33.25,474.06 -33.46,474.08 -33.67,474.03 -33.88,473.98 -34.06,473.86 -34.23,473.75 -34.37,473.58 -34.50,473.42 -34.57,473.22 -34.65,473.02 -34.65,472.80 -34.66,472.59 -34.59,472.39 -34.53,472.19 -34.41,472.01 -34.28,471.84 -34.11,471.72 -33.94,471.59 -33.73,471.53 -33.53,471.47 -33.32,471.48 -33.11,471.48 -32.91,471.56 -32.71,471.63 -32.54,471.76 -32.38,471.90 -32.26,472.08 -32.15,472.25 -32.10,472.46 -32.05,472.67 -32.06,472.88 -32.08,473.09 -32.08,473.09 -32.08,473.09 -33.70,471.66 -35.32,470.24 -35.00,468.07 -34.68,465.90 -34.59,464.49 -34.50,463.07 -34.31,461.91 -34.13,460.74 -34.13,459.44 -34.13,458.14 -34.10,456.18 -34.08,454.21 -33.92,452.61 -33.77,451.02 -33.58,449.68 -33.40,448.35 -33.35,447.24 -33.31,446.14 -33.19,444.91 -33.07,443.69 -32.85,442.48 -32.62,441.28 -32.49,439.94 -32.36,438.61 -32.10,437.08 -31.84,435.56 -31.64,433.71 -31.45,431.86 -31.45,429.87 -31.44,427.89 -31.38,426.00 -31.32,424.11 -31.22,422.86 -31.12,421.62 -30.90,420.39 -30.68,419.16 -30.56,417.29 -30.44,415.42 -30.15,412.94 -29.87,410.45 -29.65,408.80 -29.42,407.14 -29.33,405.20 -29.24,403.25 -29.04,401.70 -28.85,400.14 -28.81,398.43 -28.78,396.73 -28.69,394.97 -28.61,393.22 -28.42,391.64 -28.24,390.06 -28.22,387.84 -28.21,385.63 -28.18,383.56 -28.15,381.49 -28.05,379.79 -27.95,378.09 -27.73,376.70 -27.51,375.31 -27.43,373.51 -27.34,371.70 -27.15,369.98 -26.95,368.26 -26.94,366.63 -26.92,365.00 -26.89,363.43 -26.85,361.85 -26.76,360.40 -26.67,358.95 -26.49,357.71 -26.31,356.47 -26.31,354.20 -26.31,351.93 -26.29,350.12 -26.26,348.30 -26.22,347.17 -26.17,346.03 -26.07,344.75 -25.96,343.46 -25.74,342.11 -25.53,340.76 -25.43,339.05 -25.34,337.34 -25.14,335.33 -24.94,333.32 -24.90,331.95 -24.86,330.59 -24.76,329.19 -24.65,327.78 -24.46,326.69 -24.27,325.61 -24.23,324.46 -24.19,323.31 -23.89,320.96 -23.59,318.61 -23.53,317.23 -23.47,315.85 -23.33,314.46 -23.19,313.08 -22.89,311.46 -22.59,309.84 -22.31,307.67 -22.04,305.50 -21.84,304.16 -21.65,302.83 -21.64,301.58 -21.62,300.34 -21.58,299.22 -21.55,298.11 -21.44,296.79 -21.34,295.47 -21.16,293.90 -20.98,292.34 -20.96,291.22 -20.94,290.10 -20.90,288.80 -20.87,287.51 -20.75,286.30 -20.63,285.10 -20.40,284.06 -20.18,283.02 -20.01,281.48 -19.85,279.94 -19.51,278.48 -19.18,277.03 -18.83,275.34 -18.48,273.66 -18.11,272.01 -17.75,270.36 -17.35,268.37 -16.96,266.38 -16.87,264.86 -16.78,263.34 -16.58,261.87 -16.39,260.40 -16.35,259.33 -16.32,258.26 -16.04,256.19 -15.76,254.12 -15.75,252.86 -15.74,251.60 -15.70,250.44 -15.67,249.28 -15.58,247.94 -15.50,246.60 -15.32,245.09 -15.14,243.58 -15.15,241.50 -15.16,239.43 -15.17,238.14 -15.19,236.85 -15.28,234.60 -15.38,232.35 -15.61,230.21 -15.85,228.06 -15.95,226.50 -16.05,224.94 -16.26,222.64 -16.48,220.34 -16.48,218.77 -16.49,217.20 -16.50,215.23 -16.52,213.26 -16.54,211.46 -16.57,209.65 -16.68,208.20 -16.80,206.75 -17.12,205.70 -17.43,204.65 -17.66,203.28 -17.88,201.91 -17.98,200.00 -18.08,198.10 -18.30,196.77 -18.51,195.45 -18.52,194.17 -18.53,192.90 -18.54,191.70 -18.56,190.49 -18.59,189.04 -18.63,187.58 -18.70,186.41 -18.78,185.23 -19.00,183.82 -19.22,182.40 -19.25,180.85 -19.29,179.31 -19.36,177.54 -19.42,175.78 -19.63,174.30 -19.83,172.83 -19.83,171.58 -19.83,170.33 -19.82,169.21 -19.82,168.08 -19.81,166.79 -19.81,165.49 -19.79,164.26 -19.78,163.02 -19.73,161.48 -19.69,159.93 -19.59,158.12 -19.49,156.31 -19.27,154.03 -19.04,151.75 -18.94,150.24 -18.84,148.74 -18.65,147.35 -18.45,145.96 -18.41,144.59 -18.37,143.22 -18.27,141.79 -18.17,140.37 -17.99,139.24 -17.80,138.12 -17.79,136.86 -17.77,135.60 -17.73,134.00 -17.69,132.39 -17.59,130.39 -17.49,128.40 -17.29,126.71 -17.09,125.02 -17.04,123.91 -16.99,122.81 -16.87,121.58 -16.75,120.36 -16.53,119.24 -16.30,118.11 -16.17,116.88 -16.04,115.65 -15.80,114.47 -15.57,113.30 -15.40,112.00 -15.23,110.69 -14.91,109.31 -14.58,107.92 -14.27,106.50 -13.96,105.08 -13.63,102.85 -13.30,100.61 -13.01,99.11 -12.72,97.60 -12.49,96.38 -12.27,95.17 -12.15,93.71 -12.03,92.25 -11.79,91.02 -11.56,89.79 -11.40,88.31 -11.24,86.83 -10.93,85.60 -10.63,84.37 -10.12,81.85 -9.61,79.33 -9.28,77.06 -8.95,74.80 -8.86,73.57 -8.76,72.34 -8.58,71.17 -8.40,70.01 -8.39,68.67 -8.38,67.32 -8.37,65.97 -8.36,64.61 -8.34,63.23 -8.32,61.85 -8.28,60.40 -8.23,58.95 -8.14,57.39 -8.05,55.84 -7.84,53.71 -7.63,51.58 -7.58,49.93 -7.53,48.29 -7.42,46.72 -7.30,45.14 -7.06,43.52 -6.82,41.90 -6.66,40.05 -6.50,38.20 -6.17,36.39 -5.84,34.58 -5.53,32.55 -5.22,30.52 -4.90,27.87 -4.59,25.21 -4.34,23.63 -4.10,22.05 -3.95,20.29 -3.79,18.53 -3.48,16.94 -3.17,15.35 -2.89,13.87 -2.61,12.39 -2.42,11.23 -2.22,10.07 -2.21,8.77 -2.19,7.48 -2.17,6.22 -2.16,4.97 -2.14,3.82 -2.13,2.68 -1.80,1.34 -1.47,0 -1.44,-0.17 -1.42,-0.35 -1.36,-0.51 -1.30,-0.68 -1.20,-0.82 -1.10,-0.97 -0.96,-1.09 -0.83,-1.21 -0.67,-1.29 -0.52,-1.37 -0.34,-1.41 -0.17,-1.46 0.00,-1.46 0.17,-1.46 0.34,-1.41 0.52,-1.37 0.67,-1.29 0.83,-1.21 0.96,-1.09 1.10,-0.97 1.20,-0.82 1.30,-0.68 1.36,-0.51 1.42,-0.35 1.44,-0.17 1.47,0.00 1.47,0.00 L 1.47,0 Z"/></g><g transform="translate(212.2559422084263 108.28123147147039) rotate(0 33 -31.666671752929688)" stroke="none"><path fill="#000000" d="M -1.52,0 Q -1.52,0 -2.05,-0.05 -2.58,-0.10 -3.53,-1.21 -4.48,-2.31 -5.03,-3.42 -5.58,-4.52 -6.08,-6.15 -6.59,-7.79 -6.98,-9.65 -7.38,-11.52 -7.75,-15.09 -8.12,-18.66 -8.27,-21.32 -8.42,-23.99 -8.48,-26.48 -8.54,-28.97 -8.37,-31.12 -8.20,-33.26 -7.71,-35.28 -7.22,-37.30 -6.60,-38.97 -5.97,-40.65 -5.30,-42.15 -4.64,-43.66 -3.40,-45.15 -2.15,-46.65 0.55,-48.84 3.27,-51.03 5.61,-52.55 7.95,-54.06 10.73,-55.51 13.51,-56.95 16.92,-58.18 20.32,-59.41 24.07,-60.50 27.83,-61.59 31.57,-62.45 35.32,-63.31 38.68,-63.87 42.04,-64.43 44.68,-64.68 47.33,-64.92 49.22,-65.02 51.12,-65.13 52.90,-65.17 54.69,-65.22 57.37,-65.23 60.05,-65.25 61.95,-65.26 63.85,-65.27 65.25,-65.06 66.65,-64.86 68.81,-64.53 70.97,-64.20 71.16,-64.30 71.35,-64.40 71.56,-64.44 71.77,-64.47 71.98,-64.44 72.19,-64.41 72.37,-64.31 72.56,-64.21 72.71,-64.06 72.86,-63.90 72.95,-63.71 73.04,-63.52 73.06,-63.31 73.09,-63.10 73.04,-62.89 73.00,-62.68 72.89,-62.50 72.78,-62.31 72.62,-62.18 72.46,-62.04 72.26,-61.96 72.06,-61.88 71.85,-61.86 71.64,-61.85 71.43,-61.91 71.23,-61.96 71.05,-62.08 70.88,-62.20 70.75,-62.37 70.62,-62.54 70.55,-62.74 70.48,-62.94 70.48,-63.15 70.48,-63.36 70.54,-63.57 70.61,-63.77 70.74,-63.94 70.87,-64.11 71.04,-64.23 71.22,-64.35 71.42,-64.41 71.62,-64.46 71.84,-64.45 72.05,-64.44 72.25,-64.37 72.44,-64.29 72.61,-64.15 72.77,-64.01 72.88,-63.83 72.99,-63.65 73.04,-63.44 73.09,-63.24 73.06,-63.03 73.04,-62.81 72.95,-62.62 72.87,-62.43 72.72,-62.27 72.57,-62.12 72.58,-62.12 72.58,-62.12 70.18,-60.81 67.78,-59.50 65.82,-59.77 63.86,-60.03 61.97,-60.03 60.08,-60.02 57.45,-60.00 54.81,-59.98 53.11,-59.94 51.40,-59.90 49.60,-59.81 47.80,-59.71 45.35,-59.49 42.90,-59.27 39.69,-58.74 36.48,-58.21 32.88,-57.39 29.28,-56.57 25.68,-55.53 22.08,-54.49 18.99,-53.39 15.90,-52.30 13.34,-50.99 10.78,-49.67 8.65,-48.31 6.53,-46.94 4.15,-45.07 1.77,-43.19 0.94,-42.33 0.11,-41.47 -0.47,-40.14 -1.05,-38.80 -1.58,-37.41 -2.11,-36.01 -2.52,-34.41 -2.94,-32.82 -3.10,-30.96 -3.26,-29.11 -3.20,-26.70 -3.13,-24.29 -2.99,-21.74 -2.84,-19.19 -2.51,-15.90 -2.18,-12.62 -1.83,-10.96 -1.48,-9.31 -1.14,-8.10 -0.79,-6.88 -0.06,-5.30 0.66,-3.72 1.62,-2.19 2.58,-0.66 2.05,-0.33 1.52,0 1.49,0.18 1.47,0.36 1.41,0.53 1.34,0.70 1.24,0.85 1.13,1.00 1.00,1.13 0.86,1.25 0.70,1.33 0.53,1.42 0.36,1.46 0.18,1.50 -0.00,1.50 -0.18,1.50 -0.36,1.46 -0.53,1.42 -0.70,1.33 -0.86,1.25 -1.00,1.12 -1.13,1.00 -1.24,0.85 -1.34,0.70 -1.41,0.53 -1.47,0.36 -1.49,0.18 -1.52,-0.00 -1.52,-0.00 L -1.52,0 Z"/></g><g transform="translate(324.92262922014504 34.28123147147039) rotate(0 -9.666656494140625 6.333343505859375)" stroke="none"><path fill="#000000" d="M -1.49,0.59 Q -1.49,0.59 -2.30,-0.18 -3.11,-0.96 -4.32,-2.58 -5.52,-4.20 -6.61,-5.59 -7.69,-6.99 -8.52,-7.92 -9.34,-8.86 -10.31,-9.48 -11.28,-10.10 -12.18,-8.26 -13.07,-6.42 -13.59,-4.99 -14.10,-3.56 -14.78,-2.03 -15.46,-0.50 -15.89,0.77 -16.32,2.05 -16.76,4.35 -17.20,6.65 -17.37,8.33 -17.54,10.01 -17.26,11.05 -16.98,12.08 -15.65,11.86 -14.33,11.64 -12.25,11.65 -10.16,11.66 -9.09,11.89 -8.01,12.11 -6.98,12.42 -5.95,12.74 -4.75,13.63 -3.55,14.53 -2.85,15.37 -2.15,16.21 -1.72,17.28 -1.30,18.35 -1.35,19.57 -1.41,20.79 -1.99,21.91 -2.57,23.03 -3.71,24.46 -4.84,25.89 -7.12,26.76 -9.40,27.62 -10.92,27.66 -12.44,27.71 -14.19,27.09 -15.94,26.47 -16.15,26.51 -16.36,26.54 -16.57,26.51 -16.78,26.47 -16.97,26.38 -17.16,26.28 -17.31,26.12 -17.45,25.97 -17.54,25.78 -17.63,25.59 -17.66,25.37 -17.68,25.16 -17.64,24.96 -17.59,24.75 -17.48,24.57 -17.37,24.38 -17.21,24.24 -17.05,24.11 -16.85,24.03 -16.66,23.95 -16.45,23.93 -16.23,23.92 -16.03,23.98 -15.82,24.03 -15.65,24.15 -15.47,24.27 -15.34,24.44 -15.21,24.61 -15.14,24.81 -15.07,25.01 -15.07,25.22 -15.07,25.43 -15.14,25.64 -15.21,25.84 -15.33,26.01 -15.46,26.18 -15.64,26.30 -15.81,26.42 -16.02,26.48 -16.22,26.53 -16.43,26.52 -16.65,26.51 -16.84,26.43 -17.04,26.36 -17.20,26.22 -17.37,26.08 -17.48,25.90 -17.59,25.72 -17.63,25.51 -17.68,25.31 -17.66,25.09 -17.64,24.88 -17.55,24.69 -17.46,24.50 -17.31,24.34 -17.17,24.19 -16.98,24.09 -16.79,23.99 -16.79,23.99 -16.79,23.99 -14.23,23.35 -11.67,22.71 -9.94,22.37 -8.22,22.03 -7.52,21.17 -6.83,20.32 -6.78,19.20 -6.74,18.08 -7.91,17.36 -9.08,16.64 -10.67,16.48 -12.27,16.31 -14.12,16.28 -15.97,16.25 -17.90,15.85 -19.83,15.44 -20.86,13.86 -21.89,12.29 -22.10,11.04 -22.30,9.79 -22.14,7.70 -21.97,5.61 -21.71,4.40 -21.45,3.19 -21.21,1.85 -20.96,0.50 -20.46,-0.99 -19.96,-2.49 -19.34,-3.89 -18.72,-5.30 -18.00,-7.16 -17.28,-9.01 -16.16,-10.80 -15.04,-12.58 -13.07,-13.83 -11.10,-15.08 -9.58,-14.78 -8.05,-14.48 -6.75,-13.34 -5.46,-12.21 -4.57,-11.16 -3.68,-10.11 -2.55,-8.66 -1.42,-7.20 -0.59,-6.07 0.22,-4.94 0.90,-3.90 1.58,-2.87 1.53,-1.73 1.49,-0.59 1.54,-0.40 1.59,-0.22 1.59,-0.02 1.59,0.16 1.55,0.35 1.51,0.54 1.42,0.71 1.33,0.88 1.21,1.03 1.08,1.18 0.93,1.29 0.77,1.41 0.59,1.48 0.41,1.55 0.22,1.58 0.02,1.60 -0.16,1.58 -0.35,1.56 -0.53,1.50 -0.72,1.43 -0.88,1.32 -1.04,1.22 -1.17,1.07 -1.30,0.93 -1.39,0.76 -1.49,0.59 -1.49,0.59 L -1.49,0.59 Z"/></g><g transform="translate(248.92262922014504 82.94788796561102) rotate(0 -1.333343505859375 11.333343505859375)" stroke="none"><path fill="#000000" d="M 1.61,0.60 Q 1.61,0.60 1.22,2.21 0.83,3.81 0.12,5.03 -0.57,6.24 -1.36,7.98 -2.15,9.71 -2.92,11.09 -3.69,12.47 -4.58,14.15 -5.47,15.84 -6.17,17.23 -6.88,18.62 -7.33,19.58 -7.79,20.55 -6.60,20.45 -5.41,20.35 -4.18,20.35 -2.94,20.36 -1.27,20.36 0.39,20.35 1.51,20.35 2.64,20.35 3.70,20.37 4.77,20.38 5.40,20.04 6.02,19.70 6.14,19.52 6.26,19.34 6.43,19.21 6.59,19.08 6.80,19.01 7.00,18.94 7.21,18.94 7.42,18.94 7.62,19.01 7.82,19.08 7.99,19.20 8.16,19.33 8.29,19.51 8.41,19.68 8.46,19.88 8.52,20.09 8.51,20.30 8.50,20.51 8.42,20.71 8.35,20.91 8.21,21.07 8.07,21.24 7.89,21.35 7.71,21.46 7.50,21.50 7.30,21.55 7.08,21.53 6.87,21.51 6.68,21.42 6.49,21.33 6.33,21.19 6.18,21.04 6.08,20.85 5.98,20.67 5.94,20.46 5.90,20.25 5.94,20.04 5.97,19.83 6.07,19.64 6.17,19.45 6.32,19.30 6.47,19.16 6.67,19.07 6.86,18.98 7.07,18.95 7.28,18.93 7.49,18.97 7.70,19.02 7.88,19.12 8.06,19.23 8.20,19.39 8.34,19.56 8.42,19.75 8.50,19.95 8.51,20.16 8.52,20.37 8.47,20.58 8.41,20.78 8.41,20.78 8.41,20.78 6.64,22.86 4.87,24.94 3.75,24.96 2.63,24.97 1.51,24.97 0.39,24.97 -1.28,24.96 -2.96,24.96 -4.26,24.94 -5.56,24.93 -6.70,24.82 -7.84,24.71 -8.83,24.29 -9.82,23.87 -10.89,22.63 -11.95,21.40 -11.56,19.68 -11.17,17.96 -10.61,16.62 -10.05,15.29 -9.27,13.77 -8.48,12.25 -7.97,11.29 -7.45,10.33 -6.36,8.31 -5.27,6.28 -4.20,4.29 -3.13,2.31 -2.37,0.85 -1.61,-0.60 -1.51,-0.78 -1.42,-0.97 -1.28,-1.13 -1.14,-1.28 -0.97,-1.40 -0.80,-1.52 -0.61,-1.59 -0.41,-1.67 -0.21,-1.69 -0.00,-1.72 0.20,-1.69 0.40,-1.67 0.60,-1.60 0.79,-1.52 0.96,-1.41 1.13,-1.29 1.27,-1.13 1.41,-0.98 1.51,-0.80 1.60,-0.61 1.66,-0.41 1.71,-0.21 1.71,-0.00 1.71,0.20 1.66,0.40 1.61,0.60 1.61,0.60 L 1.61,0.60 Z"/></g><g transform="translate(252.92262922014504 94.94788796561102) rotate(0 -1.666656494140625 12.000015258789062)" stroke="none"><path fill="#000000" d="M 1.71,0.28 Q 1.71,0.28 1.74,2.65 1.77,5.02 1.40,6.81 1.04,8.60 0.69,10.13 0.35,11.67 0.23,12.92 0.10,14.18 0.05,15.47 -0.00,16.76 -0.26,18.09 -0.52,19.42 -0.76,21.12 -1.01,22.82 -1.11,22.80 -1.21,22.78 -1.00,22.76 -0.79,22.75 -0.58,22.80 -0.38,22.85 -0.20,22.97 -0.02,23.08 0.10,23.25 0.23,23.42 0.31,23.62 0.38,23.82 0.38,24.03 0.39,24.24 0.32,24.44 0.26,24.65 0.13,24.82 0.01,24.99 -0.16,25.11 -0.33,25.23 -0.53,25.30 -0.74,25.36 -0.95,25.35 -1.16,25.34 -1.36,25.27 -1.56,25.19 -1.72,25.06 -1.89,24.92 -2.00,24.74 -2.11,24.56 -2.16,24.36 -2.21,24.15 -2.20,23.94 -2.18,23.73 -2.09,23.53 -2.01,23.34 -1.86,23.18 -1.72,23.02 -1.53,22.92 -1.35,22.82 -1.14,22.78 -0.93,22.74 -0.72,22.77 -0.51,22.80 -0.32,22.90 -0.13,22.99 0.01,23.14 0.16,23.30 0.25,23.49 0.34,23.68 0.37,23.89 0.40,24.10 0.36,24.31 0.31,24.52 0.21,24.70 0.10,24.88 -0.05,25.02 -0.21,25.17 -0.40,25.25 -0.60,25.33 -0.60,25.33 -0.60,25.33 -3.10,23.10 -5.61,20.88 -5.38,18.70 -5.14,16.52 -5.08,15.09 -5.01,13.65 -4.84,12.09 -4.67,10.53 -4.33,9.05 -3.99,7.57 -3.65,5.87 -3.30,4.17 -2.51,1.94 -1.71,-0.28 -1.65,-0.48 -1.59,-0.68 -1.49,-0.87 -1.38,-1.05 -1.24,-1.20 -1.09,-1.35 -0.91,-1.46 -0.73,-1.57 -0.54,-1.64 -0.34,-1.70 -0.13,-1.72 0.07,-1.73 0.28,-1.70 0.49,-1.67 0.68,-1.58 0.87,-1.50 1.04,-1.37 1.21,-1.25 1.34,-1.08 1.47,-0.92 1.56,-0.73 1.65,-0.54 1.69,-0.33 1.73,-0.13 1.72,0.07 1.71,0.28 1.71,0.28 L 1.71,0.28 Z"/></g><g stroke-linecap="round" transform="translate(10 10) rotate(0 254.76193019321983 298.57142857142856)"><path d="M-0.28 -0.56 C141.44 1.29, 282.66 1.18, 509.33 -0.43 M-0.02 -0.26 C198.5 -2.2, 397.34 -1.99, 509.55 -0.36 M509.94 0.7 C510.72 151.2, 511.54 303.3, 510.03 596.7 M509.73 -0.31 C509.27 190.99, 508.92 381.92, 509.58 596.75 M510.17 597.38 C369.85 594.63, 231.32 595.76, -0.71 597.86 M509.38 596.8 C319.96 596.38, 130.15 596.91, -0.4 597.24 M-0.7 596.74 C-0.06 394.95, 0.38 193.4, -0.14 0.51 M0.18 597.18 C1.99 455.15, 2.32 313.76, -0.04 -0.17" stroke="#000000" stroke-width="1" fill="none"/></g></svg>