<?xml version="1.0" encoding="UTF-8" standalone="no"?>
<!-- Created with Inkscape (http://www.inkscape.org/) -->

<svg
   width="144.39119mm"
   height="110.73273mm"
   viewBox="0 0 144.39118 110.73273"
   version="1.1"
   id="svg1"
   inkscape:version="1.3.2 (091e20ef0f, 2023-11-25)"
   sodipodi:docname="diagram.svg"
   xmlns:inkscape="http://www.inkscape.org/namespaces/inkscape"
   xmlns:sodipodi="http://sodipodi.sourceforge.net/DTD/sodipodi-0.dtd"
   xmlns="http://www.w3.org/2000/svg"
   xmlns:svg="http://www.w3.org/2000/svg">
  <sodipodi:namedview
     id="namedview1"
     pagecolor="#ffffff"
     bordercolor="#000000"
     borderopacity="0.25"
     inkscape:showpageshadow="2"
     inkscape:pageopacity="0.0"
     inkscape:pagecheckerboard="0"
     inkscape:deskcolor="#d1d1d1"
     inkscape:document-units="mm"
     inkscape:zoom="2.0774691"
     inkscape:cx="351.14842"
     inkscape:cy="178.10132"
     inkscape:window-width="2560"
     inkscape:window-height="1440"
     inkscape:window-x="2560"
     inkscape:window-y="1440"
     inkscape:window-maximized="1"
     inkscape:current-layer="layer1">
    <inkscape:page
       x="0"
       y="0"
       width="144.39117"
       height="110.73273"
       id="page23"
       margin="5.0000005"
       bleed="0" />
  </sodipodi:namedview>
  <defs
     id="defs1" />
  <g
     inkscape:label="Layer 1"
     inkscape:groupmode="layer"
     id="layer1"
     transform="translate(-35.927995,-5.1481355)">
    <rect
       style="fill:#ffffff;stroke:#fefefe;stroke-width:0.2;stroke-linecap:round;stroke-linejoin:round;stroke-dasharray:none;stroke-opacity:1;paint-order:stroke fill markers"
       id="rect23"
       width="144.39119"
       height="110.73273"
       x="35.927994"
       y="5.1481357" />
    <ellipse
       style="fill:none;stroke:#000000;stroke-width:1.44585;stroke-linecap:round;stroke-linejoin:round;stroke-opacity:1"
       id="path7"
       cx="74.20282"
       cy="33.269604"
       rx="32.551899"
       ry="13.509038" />
    <path
       id="path7-7"
       style="fill:none;stroke:#000000;stroke-width:1.44585;stroke-linecap:round;stroke-linejoin:round"
       d="m 143.25582,67.969326 c -2.53223,-1.050877 -4.96416,-7.689564 -4.96416,-14.633819 0,-6.944256 2.1688,-11.67364 4.96416,-10.51356 2.79536,1.16008 4.96416,7.689562 4.96416,14.633814 0,6.944253 -2.49574,11.537959 -4.96416,10.513565 z"
       sodipodi:nodetypes="sszss" />
    <path
       style="fill:none;stroke:#000000;stroke-width:1.44585;stroke-linecap:round;stroke-linejoin:round;stroke-opacity:1"
       d="M 97.220482,23.717275 51.185148,42.82194"
       id="path8" />
    <path
       style="fill:none;stroke:#000000;stroke-width:1.44585;stroke-linecap:round;stroke-linejoin:round;stroke-opacity:1"
       d="M 166.27348,45.843301 120.23815,64.947966"
       id="path8-2" />
    <path
       style="fill:none;stroke:#000000;stroke-width:1.44585;stroke-linecap:round;stroke-linejoin:round;stroke-opacity:1"
       d="M 51.185148,23.717275 97.220482,42.82194"
       id="path9" />
    <path
       style="fill:none;stroke:#000000;stroke-width:0.722925;stroke-linecap:round;stroke-linejoin:round;stroke-dasharray:none;stroke-opacity:1"
       d="M 97.220482,23.717275 143.25582,42.82194"
       id="path9-6" />
    <path
       style="fill:none;stroke:#000000;stroke-width:1.44585;stroke-linecap:round;stroke-linejoin:round;stroke-opacity:1"
       d="M 74.202816,33.269606 V 90.973742"
       id="path10" />
    <path
       style="fill:none;stroke:#000000;stroke-width:0.722925;stroke-linecap:round;stroke-linejoin:round;stroke-dasharray:none;stroke-opacity:1"
       d="M 148.21998,55.395634 V 102.48258"
       id="path11" />
    <path
       style="fill:none;stroke:#000000;stroke-width:0.722925;stroke-linecap:round;stroke-linejoin:round;stroke-dasharray:none;stroke-opacity:1"
       d="m 143.25582,42.821944 v 25.14738"
       id="path12" />
    <path
       style="fill:none;stroke:#000000;stroke-width:0.722925;stroke-linecap:round;stroke-linejoin:round;stroke-dasharray:none;stroke-opacity:1"
       d="m 138.29165,53.335503 9.92833,4.120256"
       id="path13" />
    <rect
       style="fill:#000000;stroke:#000000;stroke-width:0.722925;stroke-linecap:round;stroke-linejoin:round;stroke-dasharray:none;stroke-opacity:1"
       id="rect14"
       width="4.7968307"
       height="9.357687"
       x="145.82156"
       y="97.803734" />
    <rect
       style="fill:#000000;stroke:#000000;stroke-width:0.722925;stroke-linecap:round;stroke-linejoin:round;stroke-dasharray:none;stroke-opacity:1"
       id="rect14-6"
       width="4.7968307"
       height="9.357687"
       x="48.786736"
       y="33.464245" />
    <rect
       style="fill:#000000;stroke:#000000;stroke-width:0.722925;stroke-linecap:round;stroke-linejoin:round;stroke-dasharray:none;stroke-opacity:1"
       id="rect14-6-3"
       width="4.7968307"
       height="9.357687"
       x="48.786736"
       y="14.359583" />
    <rect
       style="fill:#000000;stroke:#000000;stroke-width:0.722925;stroke-linecap:round;stroke-linejoin:round;stroke-dasharray:none;stroke-opacity:1"
       id="rect14-6-1"
       width="4.7968307"
       height="9.357687"
       x="94.822075"
       y="33.464245" />
    <rect
       style="fill:#000000;stroke:#000000;stroke-width:0.722925;stroke-linecap:round;stroke-linejoin:round;stroke-dasharray:none;stroke-opacity:1"
       id="rect14-6-7"
       width="4.7968307"
       height="9.357687"
       x="94.822075"
       y="14.359583" />
    <path
       id="path23"
       style="color:#000000;fill:#000000;stroke:#fefefe;stroke-width:0.361463;stroke-linecap:round;stroke-linejoin:round;stroke-dasharray:none;stroke-opacity:1;paint-order:stroke fill markers"
       d="m 142.41209,40.379084 c -0.14435,8.78e-4 -0.29065,0.0083 -0.43896,0.02429 v 9.32e-4 a 0.36146261,0.36146261 0 0 0 -0.32128,0.3988 0.36146261,0.36146261 0 0 0 0.39973,0.321281 c 1.97898,-0.214046 3.63243,1.27732 4.63055,2.946627 0.92682,1.657957 1.61858,3.426215 2.10981,5.257233 l -1.85577,-1.137557 a 0.36146261,0.36146261 0 0 0 -0.4978,0.116734 0.36146261,0.36146261 0 0 0 0.12048,0.497799 l 2.91955,1.793193 1.79319,-2.923278 a 0.36146261,0.36146261 0 0 0 -0.11675,-0.494064 0.36146261,0.36146261 0 0 0 -0.49779,0.116753 l -1.15718,1.883787 c -0.50612,-1.899724 -1.22196,-3.741421 -2.18918,-5.470174 a 0.36149875,0.36149875 0 0 0 -0.007,-0.0103 c -1.01404,-1.695921 -2.72582,-3.335268 -4.89112,-3.322076 z" />
    <path
       id="path16"
       style="color:#000000;fill:#000000;stroke:#ffffff;stroke-width:0.361463;stroke-linecap:round;stroke-linejoin:round;stroke-dasharray:none;stroke-opacity:1;paint-order:stroke fill markers"
       d="m 74.82738,16.549224 a 0.36146261,0.36146261 0 0 0 -0.367046,0.355836 0.36146261,0.36146261 0 0 0 0.353035,0.367046 c 7.999466,0.151199 16.149248,1.105754 23.530061,4.22988 l -2.039758,0.786391 a 0.36146261,0.36146261 0 0 0 -0.204536,0.466043 0.36146261,0.36146261 0 0 0 0.466043,0.208273 l 3.197861,-1.235622 -1.231886,-3.197863 a 0.36146261,0.36146261 0 0 0 -0.469778,-0.204536 0.36146261,0.36146261 0 0 0 -0.204538,0.466043 l 0.792928,2.053767 C 91.135673,17.658146 82.88372,16.701508 74.82738,16.549224 Z" />
    <text
       xml:space="preserve"
       style="font-size:1.87706px;fill:#000000;stroke:#ffffff;stroke-width:0.361463;stroke-linecap:round;stroke-linejoin:round;stroke-dasharray:none;stroke-opacity:1;paint-order:stroke fill markers"
       x="41.132381"
       y="12.383759"
       id="text16"
       transform="scale(1.0599233,0.9434645)"><tspan
         sodipodi:role="line"
         id="tspan16"
         style="stroke-width:0.361463"
         x="41.132381"
         y="12.383759">m<tspan
   style="font-size:1.22008px;baseline-shift:sub;stroke-width:0.361463"
   id="tspan17">L</tspan>: Sum of 4 masses</tspan></text>
    <text
       xml:space="preserve"
       style="font-size:1.87706px;fill:#000000;stroke:#ffffff;stroke-width:0.361463;stroke-linecap:round;stroke-linejoin:round;stroke-dasharray:none;stroke-opacity:1;paint-order:stroke fill markers"
       x="72.281006"
       y="53.063953"
       id="text16-4"
       transform="scale(1.0599233,0.9434645)"><tspan
         sodipodi:role="line"
         id="tspan16-31"
         style="stroke-width:0.361463"
         x="72.281006"
         y="53.063953">m<tspan
   style="font-size:1.22008px;baseline-shift:sub;stroke-width:0.361463"
   id="tspan17-4">w</tspan>: Mass of the roto-dyne</tspan></text>
    <text
       xml:space="preserve"
       style="font-size:1.87706px;fill:#000000;stroke:#ffffff;stroke-width:0.361463;stroke-linecap:round;stroke-linejoin:round;stroke-dasharray:none;stroke-opacity:1;paint-order:stroke fill markers"
       x="127.47176"
       y="116.88316"
       id="text16-9"
       transform="scale(1.0599233,0.9434645)"><tspan
         sodipodi:role="line"
         id="tspan16-3"
         style="stroke-width:0.361463"
         x="127.47176"
         y="116.88316">m<tspan
   style="font-size:1.22009px;baseline-shift:sub;stroke-width:0.361463"
   id="tspan19">h</tspan>: mass of hanging weight</tspan></text>
    <text
       xml:space="preserve"
       style="font-size:1.87706px;fill:#000000;stroke:#ffffff;stroke-width:0.361463;stroke-linecap:round;stroke-linejoin:round;stroke-dasharray:none;stroke-opacity:1;paint-order:stroke fill markers"
       x="63.777004"
       y="26.009647"
       id="text16-5"
       transform="scale(1.0599233,0.9434645)"><tspan
         sodipodi:role="line"
         id="tspan16-4"
         style="stroke-width:0.361463"
         x="63.777004"
         y="26.009647">R<tspan
   style="font-size:1.22009px;baseline-shift:sub;stroke-width:0.361463"
   id="tspan20">wheel</tspan>: radius to the string</tspan></text>
    <text
       xml:space="preserve"
       style="font-size:1.87706px;fill:#000000;stroke:#ffffff;stroke-width:0.361463;stroke-linecap:round;stroke-linejoin:round;stroke-dasharray:none;stroke-opacity:1;paint-order:stroke fill markers"
       x="44.105625"
       y="33.835011"
       id="text16-5-0"
       transform="scale(1.0599233,0.9434645)"><tspan
         sodipodi:role="line"
         id="tspan16-4-7"
         style="stroke-width:0.361463"
         x="44.105625"
         y="33.835011">r: radius to the mass</tspan></text>
    <text
       xml:space="preserve"
       style="font-size:1.87706px;fill:#000000;stroke:#ffffff;stroke-width:0.361463;stroke-linecap:round;stroke-linejoin:round;stroke-dasharray:none;stroke-opacity:1;paint-order:stroke fill markers"
       x="133.631"
       y="39.810623"
       id="text16-6"
       transform="scale(1.0599233,0.9434645)"><tspan
         sodipodi:role="line"
         id="tspan16-8"
         style="stroke-width:0.361463"
         x="133.631"
         y="39.810623">Encoded flywheel</tspan><tspan
         sodipodi:role="line"
         style="stroke-width:0.361463"
         x="133.631"
         y="42.156948"
         id="tspan21">DS distance between each encoding</tspan></text>
  </g>
</svg>
