<?xml version="1.0" encoding="UTF-8" standalone="no"?>
<!-- Created with Inkscape (http://www.inkscape.org/) -->

<svg
   width="84.359634mm"
   height="65.736183mm"
   viewBox="0 0 84.359634 65.736183"
   version="1.1"
   id="svg1"
   inkscape:version="1.3.2 (091e20ef0f, 2023-11-25)"
   sodipodi:docname="diagram.svg"
   xmlns:inkscape="http://www.inkscape.org/namespaces/inkscape"
   xmlns:sodipodi="http://sodipodi.sourceforge.net/DTD/sodipodi-0.dtd"
   xmlns="http://www.w3.org/2000/svg"
   xmlns:svg="http://www.w3.org/2000/svg">
  <sodipodi:namedview
     id="namedview1"
     pagecolor="#ffffff"
     bordercolor="#000000"
     borderopacity="0.25"
     inkscape:showpageshadow="2"
     inkscape:pageopacity="0.0"
     inkscape:pagecheckerboard="0"
     inkscape:deskcolor="#d1d1d1"
     inkscape:document-units="mm"
     inkscape:zoom="2.937985"
     inkscape:cx="239.79019"
     inkscape:cy="127.97887"
     inkscape:window-width="2560"
     inkscape:window-height="1440"
     inkscape:window-x="2560"
     inkscape:window-y="1440"
     inkscape:window-maximized="1"
     inkscape:current-layer="layer1">
    <inkscape:page
       x="0"
       y="0"
       width="84.359634"
       height="65.736183"
       id="page23"
       margin="5.0000005"
       bleed="0" />
  </sodipodi:namedview>
  <defs
     id="defs1" />
  <g
     inkscape:label="Layer 1"
     inkscape:groupmode="layer"
     id="layer1"
     transform="translate(-36.25092,-50.063956)">
    <rect
       style="fill:#ffffff;stroke:#fefefe;stroke-width:0.2;stroke-linecap:round;stroke-linejoin:round;stroke-dasharray:none;stroke-opacity:1;paint-order:stroke fill markers"
       id="rect23"
       width="84.359634"
       height="65.736183"
       x="36.250919"
       y="50.063957" />
    <ellipse
       style="fill:none;stroke:#000000;stroke-width:0.799999;stroke-linecap:round;stroke-linejoin:round;stroke-opacity:1"
       id="path7"
       cx="59.662132"
       cy="67.857239"
       rx="18.011211"
       ry="7.4746532" />
    <path
       id="path7-7"
       style="fill:none;stroke:#000000;stroke-width:0.8;stroke-linecap:round;stroke-linejoin:round"
       transform="rotate(90)"
       d="m 87.056857,-97.869682 c -0.581458,1.401104 -4.254694,2.74671 -8.097003,2.74671 -3.842309,0 -6.459113,-1.200016 -5.817232,-2.74671 0.641881,-1.546694 4.254693,-2.746708 8.097,-2.746708 3.842308,0 6.38404,1.380912 5.817235,2.746708 z"
       sodipodi:nodetypes="sszss" />
    <path
       style="fill:none;stroke:#000000;stroke-width:0.799999;stroke-linecap:round;stroke-linejoin:round;stroke-opacity:1"
       d="M 72.39798,62.571862 46.926281,73.142618"
       id="path8" />
    <path
       style="fill:none;stroke:#000000;stroke-width:0.799999;stroke-linecap:round;stroke-linejoin:round;stroke-opacity:1"
       d="M 110.60553,74.81436 85.133831,85.385116"
       id="path8-2" />
    <path
       style="fill:none;stroke:#000000;stroke-width:0.799999;stroke-linecap:round;stroke-linejoin:round;stroke-opacity:1"
       d="M 46.926281,62.571862 72.39798,73.142618"
       id="path9" />
    <path
       style="fill:none;stroke:#000000;stroke-width:0.4;stroke-linecap:round;stroke-linejoin:round;stroke-dasharray:none;stroke-opacity:1"
       d="M 72.39798,62.571862 97.869679,73.142618"
       id="path9-6" />
    <path
       style="fill:none;stroke:#000000;stroke-width:0.799999;stroke-linecap:round;stroke-linejoin:round;stroke-opacity:1"
       d="M 59.662131,67.857239 V 99.785375"
       id="path10" />
    <path
       style="fill:none;stroke:#000000;stroke-width:0.4;stroke-linecap:round;stroke-linejoin:round;stroke-dasharray:none;stroke-opacity:1"
       d="M 100.61639,80.099738 V 106.1533"
       id="path11" />
    <path
       style="fill:none;stroke:#000000;stroke-width:0.4;stroke-linecap:round;stroke-linejoin:round;stroke-dasharray:none;stroke-opacity:1"
       d="M 97.869681,73.14262 V 87.056856"
       id="path12" />
    <path
       style="fill:none;stroke:#000000;stroke-width:0.4;stroke-linecap:round;stroke-linejoin:round;stroke-dasharray:none;stroke-opacity:1"
       d="m 95.12297,78.959852 5.49342,2.279769"
       id="path13" />
    <rect
       style="fill:#000000;stroke:#000000;stroke-width:0.4;stroke-linecap:round;stroke-linejoin:round;stroke-dasharray:none;stroke-opacity:1"
       id="rect14"
       width="2.6541228"
       height="5.1776791"
       x="99.28933"
       y="103.56446" />
    <rect
       style="fill:#000000;stroke:#000000;stroke-width:0.4;stroke-linecap:round;stroke-linejoin:round;stroke-dasharray:none;stroke-opacity:1"
       id="rect14-6"
       width="2.6541228"
       height="5.1776791"
       x="45.59922"
       y="67.964935" />
    <rect
       style="fill:#000000;stroke:#000000;stroke-width:0.4;stroke-linecap:round;stroke-linejoin:round;stroke-dasharray:none;stroke-opacity:1"
       id="rect14-6-3"
       width="2.6541228"
       height="5.1776791"
       x="45.59922"
       y="57.39418" />
    <rect
       style="fill:#000000;stroke:#000000;stroke-width:0.4;stroke-linecap:round;stroke-linejoin:round;stroke-dasharray:none;stroke-opacity:1"
       id="rect14-6-1"
       width="2.6541228"
       height="5.1776791"
       x="71.070923"
       y="67.964935" />
    <rect
       style="fill:#000000;stroke:#000000;stroke-width:0.4;stroke-linecap:round;stroke-linejoin:round;stroke-dasharray:none;stroke-opacity:1"
       id="rect14-6-7"
       width="2.6541228"
       height="5.1776791"
       x="71.070923"
       y="57.39418" />
    <path
       id="path23"
       style="color:#000000;fill:#000000;stroke:#fefefe;stroke-width:0.2;stroke-linecap:round;stroke-linejoin:round;stroke-dasharray:none;stroke-opacity:1;paint-order:stroke fill markers"
       d="m 97.40284,71.790967 c -0.07987,4.86e-4 -0.160817,0.0046 -0.242879,0.01344 v 5.16e-4 a 0.2,0.2 0 0 0 -0.177767,0.220659 0.2,0.2 0 0 0 0.221175,0.177767 c 1.09498,-0.118433 2.009851,0.706751 2.562118,1.630391 0.512813,0.91736 0.895573,1.895751 1.167373,2.908867 l -1.026813,-0.629419 a 0.2,0.2 0 0 0 -0.275436,0.06459 0.2,0.2 0 0 0 0.06666,0.275436 l 1.615409,0.992187 0.99219,-1.617472 a 0.2,0.2 0 0 0 -0.0646,-0.273369 0.2,0.2 0 0 0 -0.27543,0.0646 l -0.64028,1.042314 c -0.28004,-1.051132 -0.67612,-2.070157 -1.21129,-3.026689 a 0.20002,0.20002 0 0 0 -0.004,-0.0057 c -0.561074,-0.938366 -1.508216,-1.845429 -2.706293,-1.83813 z" />
    <path
       id="path16"
       style="color:#000000;fill:#000000;stroke:#ffffff;stroke-width:0.2;stroke-linecap:round;stroke-linejoin:round;stroke-dasharray:none;stroke-opacity:1;paint-order:stroke fill markers"
       d="m 60.007707,58.605725 a 0.2,0.2 0 0 0 -0.203089,0.196887 0.2,0.2 0 0 0 0.195337,0.203089 c 4.426165,0.08366 8.935501,0.611822 13.019361,2.340425 l -1.128614,0.435116 a 0.2,0.2 0 0 0 -0.113171,0.257865 0.2,0.2 0 0 0 0.257865,0.115239 l 1.769401,-0.683679 -0.681612,-1.769402 a 0.2,0.2 0 0 0 -0.259932,-0.113171 0.2,0.2 0 0 0 -0.113172,0.257865 l 0.438733,1.136365 C 69.031209,59.2193 64.465341,58.689985 60.007707,58.605725 Z" />
    <text
       xml:space="preserve"
       style="font-size:1.03859px;fill:#000000;stroke:#ffffff;stroke-width:0.2;stroke-linecap:round;stroke-linejoin:round;stroke-dasharray:none;stroke-opacity:1;paint-order:stroke fill markers"
       x="40.312157"
       y="59.264084"
       id="text16"
       transform="scale(1.0599233,0.9434645)"><tspan
         sodipodi:role="line"
         id="tspan16"
         style="stroke-width:0.2"
         x="40.312157"
         y="59.264084">m<tspan
   style="font-size:0.67508px;baseline-shift:sub;stroke-width:0.2"
   id="tspan17">L</tspan>: Sum of 4 masses</tspan></text>
    <text
       xml:space="preserve"
       style="font-size:1.03859px;fill:#000000;stroke:#ffffff;stroke-width:0.2;stroke-linecap:round;stroke-linejoin:round;stroke-dasharray:none;stroke-opacity:1;paint-order:stroke fill markers"
       x="57.546928"
       y="81.772743"
       id="text16-4"
       transform="scale(1.0599233,0.9434645)"><tspan
         sodipodi:role="line"
         id="tspan16-31"
         style="stroke-width:0.2"
         x="57.546928"
         y="81.772743">m<tspan
   style="font-size:0.67508px;baseline-shift:sub;stroke-width:0.2"
   id="tspan17-4">w</tspan>: Mass of the roto-dyne</tspan></text>
    <text
       xml:space="preserve"
       style="font-size:1.03859px;fill:#000000;stroke:#ffffff;stroke-width:0.2;stroke-linecap:round;stroke-linejoin:round;stroke-dasharray:none;stroke-opacity:1;paint-order:stroke fill markers"
       x="88.084389"
       y="117.0844"
       id="text16-9"
       transform="scale(1.0599233,0.9434645)"><tspan
         sodipodi:role="line"
         id="tspan16-3"
         style="stroke-width:0.2"
         x="88.084389"
         y="117.0844">m<tspan
   style="font-size:65%;baseline-shift:sub"
   id="tspan19">a</tspan>: mass of hanging weight</tspan></text>
    <text
       xml:space="preserve"
       style="font-size:1.03859px;fill:#000000;stroke:#ffffff;stroke-width:0.2;stroke-linecap:round;stroke-linejoin:round;stroke-dasharray:none;stroke-opacity:1;paint-order:stroke fill markers"
       x="52.841599"
       y="66.803391"
       id="text16-5"
       transform="scale(1.0599233,0.9434645)"><tspan
         sodipodi:role="line"
         id="tspan16-4"
         style="stroke-width:0.2"
         x="52.841599"
         y="66.803391">R<tspan
   style="font-size:65%;baseline-shift:sub"
   id="tspan20">wheel</tspan>: radius to the string</tspan></text>
    <text
       xml:space="preserve"
       style="font-size:1.03859px;fill:#000000;stroke:#ffffff;stroke-width:0.2;stroke-linecap:round;stroke-linejoin:round;stroke-dasharray:none;stroke-opacity:1;paint-order:stroke fill markers"
       x="41.957275"
       y="71.133224"
       id="text16-5-0"
       transform="scale(1.0599233,0.9434645)"><tspan
         sodipodi:role="line"
         id="tspan16-4-7"
         style="stroke-width:0.2"
         x="41.957275"
         y="71.133224">r: radius to the mass</tspan></text>
    <text
       xml:space="preserve"
       style="font-size:1.03859px;fill:#000000;stroke:#ffffff;stroke-width:0.2;stroke-linecap:round;stroke-linejoin:round;stroke-dasharray:none;stroke-opacity:1;paint-order:stroke fill markers"
       x="91.49234"
       y="74.439575"
       id="text16-6"
       transform="scale(1.0599233,0.9434645)"><tspan
         sodipodi:role="line"
         id="tspan16-8"
         style="stroke-width:0.2"
         x="91.49234"
         y="74.439575">Encoded flywheel</tspan><tspan
         sodipodi:role="line"
         style="stroke-width:0.2"
         x="91.49234"
         y="75.737816"
         id="tspan21">DS distance between each encoding</tspan></text>
  </g>
</svg>
