<?xml version="1.0" encoding="UTF-8" standalone="no"?>
<!-- Created with Inkscape (http://www.inkscape.org/) -->

<svg
   width="111.77729mm"
   height="102.12358mm"
   viewBox="0 0 111.77729 102.12358"
   version="1.1"
   id="svg1"
   inkscape:version="1.3.2 (091e20ef0f, 2023-11-25)"
   sodipodi:docname="2.svg"
   xmlns:inkscape="http://www.inkscape.org/namespaces/inkscape"
   xmlns:sodipodi="http://sodipodi.sourceforge.net/DTD/sodipodi-0.dtd"
   xmlns="http://www.w3.org/2000/svg"
   xmlns:svg="http://www.w3.org/2000/svg">
  <sodipodi:namedview
     id="namedview1"
     pagecolor="#ffffff"
     bordercolor="#000000"
     borderopacity="0.25"
     inkscape:showpageshadow="2"
     inkscape:pageopacity="0.0"
     inkscape:pagecheckerboard="0"
     inkscape:deskcolor="#d1d1d1"
     inkscape:document-units="mm"
     inkscape:zoom="1.1652357"
     inkscape:cx="88.823232"
     inkscape:cy="258.31684"
     inkscape:window-width="2560"
     inkscape:window-height="1600"
     inkscape:window-x="0"
     inkscape:window-y="0"
     inkscape:window-maximized="1"
     inkscape:current-layer="layer1">
    <inkscape:page
       x="0"
       y="0"
       width="111.77728"
       height="102.12358"
       id="page1"
       margin="5.0000005"
       bleed="0" />
  </sodipodi:namedview>
  <defs
     id="defs1">
    <clipPath
       clipPathUnits="userSpaceOnUse"
       id="clipPath95">
      <path
         d="m 733.199,3615.6 h 4680 v 2645.91 h -4680 z"
         id="path95" />
    </clipPath>
    <clipPath
       clipPathUnits="userSpaceOnUse"
       id="clipPath96">
      <path
         d="m 733.199,3615.6 h 4680 v 2645.91 h -4680 z"
         id="path96" />
    </clipPath>
    <clipPath
       clipPathUnits="userSpaceOnUse"
       id="clipPath97">
      <path
         d="m 733.199,3615.6 h 4680 v 2645.91 h -4680 z"
         id="path97" />
    </clipPath>
    <clipPath
       clipPathUnits="userSpaceOnUse"
       id="clipPath98">
      <path
         d="m 733.199,3615.6 h 4680 v 2645.91 h -4680 z"
         id="path98" />
    </clipPath>
    <clipPath
       clipPathUnits="userSpaceOnUse"
       id="clipPath99">
      <path
         d="m 733.199,3615.6 h 4680 v 2645.91 h -4680 z"
         id="path99" />
    </clipPath>
    <clipPath
       clipPathUnits="userSpaceOnUse"
       id="clipPath100">
      <path
         d="m 733.199,3615.6 h 4680 v 2645.91 h -4680 z"
         id="path100" />
    </clipPath>
    <clipPath
       clipPathUnits="userSpaceOnUse"
       id="clipPath101">
      <path
         d="m 733.199,3615.6 h 4680 v 2645.91 h -4680 z"
         id="path101" />
    </clipPath>
    <clipPath
       clipPathUnits="userSpaceOnUse"
       id="clipPath102">
      <path
         d="m 733.199,3615.6 h 4680 v 2645.91 h -4680 z"
         transform="matrix(0.1,0,0,-0.1,-74.035203,541.927)"
         id="path102" />
    </clipPath>
    <clipPath
       clipPathUnits="userSpaceOnUse"
       id="clipPath103">
      <path
         d="m 733.199,3615.6 h 4680 v 2645.91 h -4680 z"
         transform="matrix(0.09063079,-0.0422618,-0.0422618,-0.09063079,-67.712648,613.74459)"
         id="path103" />
    </clipPath>
    <clipPath
       clipPathUnits="userSpaceOnUse"
       id="clipPath104">
      <path
         d="m 733.199,3615.6 h 4680 v 2645.91 h -4680 z"
         transform="matrix(0.1,0,0,-0.1,-413.713,473.991)"
         id="path104" />
    </clipPath>
    <clipPath
       clipPathUnits="userSpaceOnUse"
       id="clipPath105">
      <path
         d="m 733.199,3615.6 h 4680 v 2645.91 h -4680 z"
         id="path105" />
    </clipPath>
  </defs>
  <g
     inkscape:label="Layer 1"
     inkscape:groupmode="layer"
     id="layer1"
     transform="translate(-81.489252,-80.195821)">
    <rect
       style="fill:#ffffff;stroke-width:0.264583"
       id="rect1"
       width="111.77729"
       height="102.12358"
       x="81.48925"
       y="80.195824"
       transform="translate(9.7916669e-7)" />
    <path
       d="m 3073.52,5573.25 72.46,124.91 1671.45,-964.92 -70.08,-123.48 z"
       style="fill:#e6d6cc;fill-opacity:1;fill-rule:evenodd;stroke:#0000ff;stroke-width:14.3022;stroke-linecap:butt;stroke-linejoin:miter;stroke-miterlimit:10;stroke-dasharray:none;stroke-opacity:1"
       transform="matrix(0.03529436,0,0,-0.03529436,-1.7757584,305.49051)"
       clip-path="url(#clipPath95)"
       id="path126" />
    <path
       d="m 4744.97,4811.9 c 49.49,0 89.63,-40.13 89.63,-89.63 0,-49.49 -40.14,-89.63 -89.63,-89.63 -49.5,0 -89.63,40.14 -89.63,89.63 0,49.5 40.13,89.63 89.63,89.63"
       style="fill:#b28366;fill-opacity:1;fill-rule:evenodd;stroke:none"
       transform="matrix(0.03529436,0,0,-0.03529436,-1.7757584,305.49051)"
       clip-path="url(#clipPath96)"
       id="path127" />
    <path
       d="m 4744.97,4811.9 c 49.49,0 89.63,-40.13 89.63,-89.63 0,-49.49 -40.14,-89.63 -89.63,-89.63 -49.5,0 -89.63,40.14 -89.63,89.63 0,49.5 40.13,89.63 89.63,89.63 z"
       style="fill:none;stroke:#0000ff;stroke-width:14.3022;stroke-linecap:butt;stroke-linejoin:miter;stroke-miterlimit:10;stroke-dasharray:none;stroke-opacity:1"
       transform="matrix(0.03529436,0,0,-0.03529436,-1.7757584,305.49051)"
       clip-path="url(#clipPath97)"
       id="path128" />
    <path
       d="m 990.641,6241.64 v -643.6 l 71.509,71.51"
       style="fill:none;stroke:#000000;stroke-width:14.3022;stroke-linecap:butt;stroke-linejoin:miter;stroke-miterlimit:10;stroke-dasharray:none;stroke-opacity:1"
       transform="matrix(0.03529436,0,0,-0.03529436,60.107241,305.49051)"
       clip-path="url(#clipPath98)"
       id="path129" />
    <path
       d="m 4709.21,3631.49 h 178.777 V 5919.84 H 4709.21 Z"
       style="fill:#a6a6ff;fill-opacity:1;fill-rule:evenodd;stroke:none"
       transform="matrix(0.03529436,0,0,-0.03529436,-1.7757584,305.49051)"
       clip-path="url(#clipPath99)"
       id="path130" />
    <path
       d="M 4709.21,4704.16 H 3922.59"
       style="fill:none;stroke:#000000;stroke-width:3.57555;stroke-linecap:butt;stroke-linejoin:miter;stroke-miterlimit:10;stroke-dasharray:28.6044;stroke-dashoffset:0;stroke-opacity:1"
       transform="matrix(0.03529436,0,0,-0.03529436,-1.7757584,305.49051)"
       clip-path="url(#clipPath100)"
       id="path131" />
    <path
       d="M 3135.97,5598.04 H 4780.72"
       style="fill:none;stroke:#000000;stroke-width:7.1511;stroke-linecap:butt;stroke-linejoin:miter;stroke-miterlimit:10;stroke-dasharray:none;stroke-opacity:1"
       transform="matrix(0.03529436,0,0,-0.03529436,-1.7757584,305.49051)"
       clip-path="url(#clipPath101)"
       id="path132" />
    <path
       d="m 6.9916158,-9.4402871 v 1.4524424 c -0.6793682,-1.101045 -1.4407291,-1.6047145 -2.4363549,-1.6047145 -0.8316404,0 -1.7569867,0.4216768 -2.4012152,1.101045 -0.9487728,0.9721993 -1.44072907,2.3426489 -1.44072907,4.0059297 0,2.8931714 1.53443507,4.88442305 3.79509127,4.88442305 1.0073391,0 1.6281411,-0.32797086 2.4832079,-1.3587364 v 1.27674368 c 0,1.13618477 -0.8082139,1.92097217 -1.9561118,1.92097217 -0.8784934,0 -1.4173027,-0.3865371 -1.6164278,-1.101045 H 0.9124418 c 0.0117132,0.7379344 0.2694046,1.2416039 0.9253463,1.7686999 0.7496477,0.6090888 1.7804132,0.9019199 3.1040099,0.9019199 2.729186,0 4.3690403,-1.3118834 4.3690403,-3.49054697 V -9.4402871 Z m -1.9795383,1.8858324 c 1.1596112,0 2.0146781,1.2767437 2.0146781,3.0337304 0,1.7101338 -0.8199272,2.8814583 -2.0498179,2.8814583 -1.0659052,0 -1.8155529,-1.1713245 -1.8155529,-2.8814583 0,-1.7921264 0.7496477,-3.0337304 1.8506927,-3.0337304 z M 11.782333,-9.4402871 V 5.8822603e-4 h 2.448068 V -5.0126805 c 0,-1.4407291 0.714508,-2.1552371 2.143524,-2.1552371 0.269405,0 0.445103,0.023427 0.773074,0.070279 V -9.580846 c -0.140559,-0.011713 -0.187412,-0.011713 -0.292831,-0.011713 -1.124472,0 -2.084958,0.7379344 -2.623767,2.0029648 v -1.8506927 z m 14.858251,9.14804421 C 26.218907,-0.70220646 26.078348,-0.98332434 26.078348,-1.4518541 v -5.2358204 c 0,-1.9326854 -1.311883,-2.9048847 -3.865371,-2.9048847 -2.541774,0 -3.877084,1.0776185 -4.029356,3.2679952 h 2.354362 c 0.128846,-0.9839125 0.527096,-1.3001701 1.733561,-1.3001701 0.937059,0 1.417302,0.3162576 1.417302,0.9487728 0,0.3162576 -0.163985,0.573949 -0.421677,0.7379344 -0.32797,0.1756987 -0.32797,0.1756987 -1.534435,0.3631106 l -0.983912,0.1756987 c -1.874119,0.3162576 -2.776039,1.2767437 -2.776039,2.9751642 0,1.68670721 1.136185,2.82289195 2.858032,2.82289195 1.054192,0 2.002964,-0.43339006 2.869745,-1.34702315 0,0.49195628 0.05857,0.66765495 0.281117,0.94877282603 h 2.658907 z M 23.688846,-3.7945031 c 0,1.4173026 -0.702794,2.2255165 -1.944398,2.2255165 -0.819928,0 -1.323597,-0.4451033 -1.323597,-1.1361847 0,-0.7379344 0.374824,-1.0893318 1.393876,-1.3001702 l 0.843354,-0.1522722 c 0.644228,-0.1288457 0.749647,-0.1639854 1.030765,-0.2928311 z M 33.314205,5.8822603e-4 36.570487,-9.4402871 H 33.98186 l -1.909259,6.9108145 -2.038104,-6.9108145 H 27.44587 L 30.749005,5.8822603e-4 Z M 40.538349,-9.4402871 H 38.090281 V 5.8822603e-4 h 2.448068 z m 0,-3.3031349 h -2.448068 v 2.190377 h 2.448068 z m 6.500851,3.5022601 h -1.358737 v -2.5417741 h -2.448068 v 2.5417741 h -1.206464 v 1.6164278 h 1.206464 v 5.8097694 c 0,1.48758207 0.784788,2.21380325 2.389502,2.21380325 0.562236,0 0.960486,-0.046853 1.417303,-0.18741192 V -1.4987071 c -0.245978,0.03514 -0.363111,0.046853 -0.562236,0.046853 -0.644228,0 -0.796501,-0.1874119 -0.796501,-1.0307656 V -7.6247341 H 47.0392 Z m 7.446695,-0.1991252 -1.956112,6.8756747 -2.084957,-6.8756747 h -2.694047 l 3.513974,9.8274124 c 0,0.9721993 -0.609089,1.6398543 -1.511009,1.6398543 -0.199125,0 -0.351397,-0.03514 -0.655942,-0.1054192 v 1.8389794 c 0.374824,0.046853 0.585663,0.070279 0.878494,0.070279 0.632515,0 1.323597,-0.1288457 1.7687,-0.3045444 0.679368,-0.2694046 0.972199,-0.6559417 1.370449,-1.7921264 l 3.888798,-11.1744356 z m 0,0"
       style="fill:#000000;fill-opacity:1;fill-rule:nonzero;stroke:none"
       aria-label="gravity"
       transform="matrix(0.35294358,0,0,0.35294358,86.23749,114.22085)"
       clip-path="url(#clipPath102)"
       id="path133" />
    <path
       d="m 1.1061052,-9.4329295 -0.00632,9.43756647 2.4526232,-0.00635227 7.727e-4,-5.0149242 c 0.00255,-1.4357663 0.7139202,-2.155209 2.1341205,-2.1583279 0.2724342,0.0022 0.4500415,0.022777 0.7734087,0.078774 l 0.00498,-2.4837554 c -0.1464752,-0.00924 -0.1832729,-0.00501 -0.2880003,-0.00787 -1.1265345,-0.00458 -2.1004417,0.7338927 -2.6223331,1.998261 l 0.00338,-1.8497256 z M 12.061217,-9.5882034 c -2.8821486,-1.431e-4 -4.6581359,1.9007158 -4.6484358,4.9979846 -9.157e-4,3.1022191 1.7711228,4.98997278 4.6794528,4.99083124 2.882149,1.4311e-4 4.652471,-1.88514974 4.64629,-4.91943904 -0.0019,-3.1913804 -1.732179,-5.0727532 -4.677307,-5.0693768 z m 0.02489,1.9657842 c 1.331039,-3.148e-4 2.210262,1.1922896 2.20122,3.0575812 0.0044,1.755614 -0.899568,3.0043018 -2.193809,3.0003817 -1.346605,-0.00535 -2.2357289,-1.2191868 -2.2281175,-3.0321147 -0.00229,-1.8341596 0.8741015,-3.0311991 2.2207065,-3.0258482 z m 12.46536,7.62194891365 2.457574,0.004263526 0.0023,-12.74429024 -2.457573,-0.0043 -0.0035,4.5379852 c -0.613228,-0.9547645 -1.408469,-1.3852341 -2.597983,-1.3862928 -2.258735,0.00641 -3.96828,2.160617 -3.967708,5.0165837 -0.0032,1.2680595 0.391268,2.5574651 1.026443,3.4761473 0.635174,0.91868218 1.787719,1.50564187 2.946101,1.49536945 1.189514,0.001059 1.981464,-0.40700599 2.599499,-1.35433079 z M 22.499473,-7.5606128 c 1.241878,0.00249 2.047506,1.2035635 2.050511,3.0115413 2e-4,1.7188164 -0.828777,2.9066707 -2.055089,2.9098469 -1.215696,-0.00177 -2.063072,-1.2092291 -2.068222,-2.9386613 0.0012,-1.7711801 0.857104,-2.984501 2.0728,-2.9827269 z m 0,0"
       style="fill:#000000;fill-opacity:1;fill-rule:nonzero;stroke:none"
       aria-label="rod"
       transform="matrix(0.31987556,0.1491603,-0.1491603,0.31987556,111.43019,119.26865)"
       clip-path="url(#clipPath103)"
       id="path134" />
    <g
       aria-label="θ&#10;guy wire&#10;hinge"
       transform="matrix(0.35294358,0,0,0.35294358,144.24159,138.19843)"
       clip-path="url(#clipPath104)"
       id="g136">
      <path
         d="m 4.614269,-11.992955 c -0.6793682,0 -1.3821629,0.281118 -2.0263913,0.831641 -1.194751,0.960486 -1.83897948,2.8228916 -1.83897948,5.2943863 0,2.2840827 0.57394898,4.0996357 1.60471458,5.08354822 0.7027946,0.66765495 1.487582,1.00733905 2.2606562,1.00733905 0.6793682,0 1.3587364,-0.26940463 2.0263913,-0.81992713 1.1830378,-0.96048604 1.8389795,-2.81117874 1.8389795,-5.18896744 0,-2.3895019 -0.5622358,-4.1699151 -1.6164278,-5.188967 -0.6793682,-0.644229 -1.4758688,-1.019053 -2.248943,-1.019053 z m 2.0615311,6.5359909 c -0.03514,2.0029648 -0.2459782,3.1391496 -0.7496477,4.0644959 -0.3162576,0.53880925 -0.8784933,0.93705957 -1.3118834,0.93705957 -0.4568166,0 -1.0190523,-0.39825032 -1.3118834,-0.93705957 C 2.7987161,-2.3178145 2.5878777,-3.4539993 2.5527379,-5.4569641 Z M 2.5527379,-6.4291635 c 0.03514,-1.9092589 0.2576914,-3.0571568 0.7496477,-3.9707895 0.2928311,-0.53881 0.8550668,-0.93706 1.3118834,-0.93706 0.4333901,0 0.9956258,0.39825 1.3118834,0.93706 0.4919563,0.9136327 0.7145079,2.0615306 0.7496477,3.9707895 z m 0,0"
         style="fill:#000000;fill-opacity:1;fill-rule:nonzero;stroke:none"
         id="path135" />
      <path
         d="m -35.913558,-102.40456 v 1.45244 c -0.679368,-1.10105 -1.440729,-1.60472 -2.436355,-1.60472 -0.83164,0 -1.756987,0.42168 -2.401215,1.10105 -0.948773,0.9722 -1.440729,2.342649 -1.440729,4.00593 0,2.893171 1.534435,4.884423 3.795091,4.884423 1.007339,0 1.628141,-0.327971 2.483208,-1.358737 v 1.276744 c 0,1.136185 -0.808214,1.920972 -1.956112,1.920972 -0.878493,0 -1.417302,-0.386537 -1.616428,-1.101045 h -2.506634 c 0.01171,0.737935 0.269405,1.241604 0.925346,1.7687 0.749648,0.609089 1.780414,0.90192 3.10401,0.90192 2.729186,0 4.369041,-1.311883 4.369041,-3.490547 v -9.75713 z m -1.979538,1.88583 c 1.159611,0 2.014678,1.276743 2.014678,3.03373 0,1.710134 -0.819927,2.881458 -2.049818,2.881458 -1.065905,0 -1.815553,-1.171324 -1.815553,-2.881458 0,-1.792126 0.749648,-3.03373 1.850693,-3.03373 z m 15.11887,7.555042 v -9.440872 h -2.448068 v 5.915186 c 0,1.112758 -0.761361,1.850692 -1.967825,1.850692 -1.054192,0 -1.581288,-0.562235 -1.581288,-1.69842 v -6.067458 h -2.436355 v 6.571127 c 0,2.096671 1.136185,3.267996 3.162576,3.267996 1.276744,0 2.131811,-0.445104 2.822892,-1.511009 v 1.112758 z m 8.117279,-9.440872 -1.956112,6.875672 -2.084957,-6.875672 h -2.694047 l 3.513974,9.82741 c 0,0.972199 -0.609089,1.639854 -1.511009,1.639854 -0.199125,0 -0.351397,-0.03514 -0.655942,-0.105419 v 1.838979 c 0.374824,0.04685 0.585663,0.07028 0.878494,0.07028 0.632515,0 1.323596,-0.128845 1.7687,-0.304544 0.679368,-0.269404 0.972199,-0.655942 1.370449,-1.792126 l 3.888798,-11.174434 z m 18.4073642,9.440872 2.6706198,-9.440872 H 3.8909761 l -1.4407291,6.606267 -1.4173026,-6.606267 h -2.4480682 l -1.4290158,6.606267 -1.4992953,-6.606267 h -2.5417742 l 2.6589066,9.440872 h 2.5183476 l 1.49929536,-6.653123 1.41730264,6.653123 z m 6.5037788,-9.440872 H 7.8061282 v 9.440872 h 2.4480678 z m 0,-3.30314 H 7.8061282 v 2.19038 h 2.4480678 z m 2.339721,3.30314 v 9.440872 h 2.448068 v -5.013268 c 0,-1.440729 0.714508,-2.155234 2.143524,-2.155234 0.269405,0 0.445103,0.0234 0.773074,0.0703 v -2.48321 c -0.140559,-0.0117 -0.187412,-0.0117 -0.292831,-0.0117 -1.124472,0 -2.084958,0.73794 -2.623767,2.00297 v -1.85069 z m 14.858251,5.493509 c 0.01171,-0.210838 0.01171,-0.304544 0.01171,-0.421677 0,-0.948773 -0.140559,-1.815553 -0.36311,-2.483208 -0.632516,-1.710134 -2.155237,-2.740904 -4.052783,-2.740904 -2.70576,0 -4.36904,1.95612 -4.36904,5.118693 0,3.022017 1.639854,4.87271 4.310474,4.87271 2.120097,0 3.830231,-1.183038 4.36904,-3.057157 h -2.412928 c -0.292832,0.749648 -0.9722,1.194751 -1.862406,1.194751 -0.702795,0 -1.265031,-0.304545 -1.604715,-0.819927 -0.234265,-0.351398 -0.316257,-0.773074 -0.351397,-1.663281 z m -6.290012,-1.628141 c 0.152272,-1.452442 0.76136,-2.143528 1.850692,-2.143528 1.112758,0 1.780413,0.749652 1.897546,2.143528 z M 79.833799,-2.0161985 V 10.727812 h 2.448068 V 5.0703146 c 0,-1.0893318 0.784787,-1.8624059 1.885832,-1.8624059 0.538809,0 0.948773,0.1991251 1.218178,0.5856622 0.234265,0.3162576 0.281118,0.573949 0.281118,1.1713245 v 5.7629166 h 2.448068 V 4.4026596 c 0,-1.1713244 -0.316258,-2.0146781 -0.960486,-2.5534873 -0.53881,-0.4568166 -1.323597,-0.7145079 -2.108384,-0.7145079 -1.206465,0 -2.084958,0.4685297 -2.764326,1.5227218 v -4.6735847 z m 13.127619,3.303135 H 90.51335 v 9.4408755 h 2.448068 z m 0,-3.303135 H 90.51335 v 2.19037678 h 2.448068 z m 2.342649,3.303135 v 9.4408755 h 2.448068 V 5.0703146 c 0,-1.1244715 0.773074,-1.8624059 1.967825,-1.8624059 1.05419,0 1.58129,0.5856622 1.58129,1.6984205 v 5.8214828 h 2.44807 V 4.4026596 c 0,-2.0966708 -1.13619,-3.2679952 -3.16258,-3.2679952 -1.276744,0 -2.13181,0.4568165 -2.834605,1.5227218 V 1.2869365 Z m 16.571313,0 v 1.4524424 c -0.67937,-1.101045 -1.44073,-1.6047145 -2.43636,-1.6047145 -0.83164,0 -1.75698,0.4216768 -2.40121,1.101045 -0.94877,0.9721993 -1.44073,2.3426489 -1.44073,4.0059297 0,2.8931714 1.53444,4.8844229 3.79509,4.8844229 1.00734,0 1.62814,-0.327971 2.48321,-1.3587362 v 1.2767432 c 0,1.136185 -0.80821,1.920973 -1.95611,1.920973 -0.8785,0 -1.4173,-0.386538 -1.61643,-1.101045 h -2.50663 c 0.0117,0.737934 0.2694,1.241604 0.92534,1.7687 0.74965,0.609088 1.78042,0.901919 3.10401,0.901919 2.72919,0 4.36904,-1.311883 4.36904,-3.490547 V 1.2869365 Z m -1.97954,1.8858324 c 1.15961,0 2.01468,1.2767437 2.01468,3.0337304 0,1.7101338 -0.81993,2.8814583 -2.04982,2.8814583 -1.0659,0 -1.81555,-1.1713245 -1.81555,-2.8814583 0,-1.7921264 0.74965,-3.0337304 1.85069,-3.0337304 z m 14.82897,3.6076794 c 0.0117,-0.2108384 0.0117,-0.3045443 0.0117,-0.4216768 0,-0.9487728 -0.14056,-1.8155529 -0.36311,-2.4832079 -0.63251,-1.7101337 -2.15524,-2.7408992 -4.05278,-2.7408992 -2.70576,0 -4.36904,1.9561118 -4.36904,5.1186879 0,3.0220172 1.63985,4.8727097 4.31047,4.8727097 2.1201,0 3.83023,-1.1830376 4.36904,-3.0571567 h -2.41293 c -0.29283,0.7496476 -0.97219,1.1947509 -1.8624,1.1947509 -0.7028,0 -1.26503,-0.3045443 -1.60472,-0.8199271 -0.23426,-0.3513974 -0.31625,-0.7730742 -0.35139,-1.6632808 z m -6.29001,-1.628141 c 0.15227,-1.4524423 0.76136,-2.1435238 1.85069,-2.1435238 1.11276,0 1.78041,0.7496477 1.89755,2.1435238 z m 0,0"
         style="fill:#000000;fill-opacity:1;fill-rule:nonzero;stroke:none"
         id="path136" />
    </g>
    <path
       d="M 4709.21,3631.49 V 5919.84"
       style="fill:none;stroke:#000000;stroke-width:14.3022;stroke-linecap:butt;stroke-linejoin:miter;stroke-miterlimit:10;stroke-dasharray:none;stroke-opacity:1"
       transform="matrix(0.03529436,0,0,-0.03529436,-1.7757584,305.49051)"
       clip-path="url(#clipPath105)"
       id="path137" />
  </g>
</svg>
