<?xml version="1.0" encoding="UTF-8" standalone="no"?>
<!-- Created with Inkscape (http://www.inkscape.org/) -->

<svg
   width="86.128716mm"
   height="90.294952mm"
   viewBox="0 0 86.128715 90.294952"
   version="1.1"
   id="svg1"
   inkscape:version="1.3.2 (091e20ef0f, 2023-11-25)"
   sodipodi:docname="2a.svg"
   xmlns:inkscape="http://www.inkscape.org/namespaces/inkscape"
   xmlns:sodipodi="http://sodipodi.sourceforge.net/DTD/sodipodi-0.dtd"
   xmlns="http://www.w3.org/2000/svg"
   xmlns:svg="http://www.w3.org/2000/svg">
  <sodipodi:namedview
     id="namedview1"
     pagecolor="#ffffff"
     bordercolor="#000000"
     borderopacity="0.25"
     inkscape:showpageshadow="2"
     inkscape:pageopacity="0.0"
     inkscape:pagecheckerboard="0"
     inkscape:deskcolor="#d1d1d1"
     inkscape:document-units="mm"
     inkscape:zoom="3.2957843"
     inkscape:cx="215.88185"
     inkscape:cy="149.58503"
     inkscape:window-width="2560"
     inkscape:window-height="1440"
     inkscape:window-x="2560"
     inkscape:window-y="1440"
     inkscape:window-maximized="1"
     inkscape:current-layer="path1-9">
    <inkscape:page
       x="0"
       y="0"
       width="86.128716"
       height="90.294952"
       id="page1"
       margin="5.0000005"
       bleed="0" />
  </sodipodi:namedview>
  <defs
     id="defs1">
    <clipPath
       clipPathUnits="userSpaceOnUse"
       id="clipPath95">
      <path
         d="m 733.199,3615.6 h 4680 v 2645.91 h -4680 z"
         id="path95" />
    </clipPath>
    <clipPath
       clipPathUnits="userSpaceOnUse"
       id="clipPath96">
      <path
         d="m 733.199,3615.6 h 4680 v 2645.91 h -4680 z"
         id="path96" />
    </clipPath>
    <clipPath
       clipPathUnits="userSpaceOnUse"
       id="clipPath97">
      <path
         d="m 733.199,3615.6 h 4680 v 2645.91 h -4680 z"
         id="path97" />
    </clipPath>
    <clipPath
       clipPathUnits="userSpaceOnUse"
       id="clipPath98">
      <path
         d="m 733.199,3615.6 h 4680 v 2645.91 h -4680 z"
         id="path98" />
    </clipPath>
    <clipPath
       clipPathUnits="userSpaceOnUse"
       id="clipPath99">
      <path
         d="m 733.199,3615.6 h 4680 v 2645.91 h -4680 z"
         id="path99" />
    </clipPath>
    <clipPath
       clipPathUnits="userSpaceOnUse"
       id="clipPath100">
      <path
         d="m 733.199,3615.6 h 4680 v 2645.91 h -4680 z"
         id="path100" />
    </clipPath>
    <clipPath
       clipPathUnits="userSpaceOnUse"
       id="clipPath101">
      <path
         d="m 733.199,3615.6 h 4680 v 2645.91 h -4680 z"
         id="path101" />
    </clipPath>
    <clipPath
       clipPathUnits="userSpaceOnUse"
       id="clipPath102">
      <path
         d="m 733.199,3615.6 h 4680 v 2645.91 h -4680 z"
         transform="matrix(0.1,0,0,-0.1,-74.035203,541.927)"
         id="path102" />
    </clipPath>
    <clipPath
       clipPathUnits="userSpaceOnUse"
       id="clipPath103">
      <path
         d="m 733.199,3615.6 h 4680 v 2645.91 h -4680 z"
         transform="matrix(0.09063079,-0.0422618,-0.0422618,-0.09063079,-67.712648,613.74459)"
         id="path103" />
    </clipPath>
    <clipPath
       clipPathUnits="userSpaceOnUse"
       id="clipPath104">
      <path
         d="m 733.199,3615.6 h 4680 v 2645.91 h -4680 z"
         transform="matrix(0.1,0,0,-0.1,-413.713,473.991)"
         id="path104" />
    </clipPath>
    <clipPath
       clipPathUnits="userSpaceOnUse"
       id="clipPath105">
      <path
         d="m 733.199,3615.6 h 4680 v 2645.91 h -4680 z"
         id="path105" />
    </clipPath>
  </defs>
  <g
     inkscape:label="Layer 1"
     inkscape:groupmode="layer"
     id="layer1"
     transform="translate(-93.501086,-90.580601)">
    <rect
       style="fill:#ffffff;stroke:none;stroke-width:0.545999;stroke-linecap:round;stroke-linejoin:round;stroke-dasharray:none;stroke-opacity:1"
       id="rect9"
       width="86.128716"
       height="90.294945"
       x="93.501083"
       y="90.580605" />
    <path
       d="m 3073.52,5573.25 72.46,124.91 1671.45,-964.92 -70.08,-123.48 z"
       style="fill:#ffffff;fill-opacity:1;fill-rule:evenodd;stroke:#000000;stroke-width:14.3022;stroke-linecap:butt;stroke-linejoin:miter;stroke-miterlimit:10;stroke-dasharray:none;stroke-opacity:1"
       transform="matrix(0.03529436,0,0,-0.03529436,-2.9110795,332.71503)"
       clip-path="url(#clipPath95)"
       id="path126" />
    <g
       id="path1">
      <path
         style="color:#000000;fill:#ffffff;stroke-linecap:round;stroke-linejoin:round;-inkscape-stroke:none"
         d="m 106.84556,133.80643 h 19.9901"
         id="path21" />
      <path
         style="color:#000000;fill:#000000;stroke-linecap:round;stroke-linejoin:round;-inkscape-stroke:none"
         d="m 106.8457,133.5332 a 0.273,0.273 0 0 0 -0.27343,0.27344 0.273,0.273 0 0 0 0.27343,0.27344 h 19.99024 a 0.273,0.273 0 0 0 0.27344,-0.27344 0.273,0.273 0 0 0 -0.27344,-0.27344 z"
         id="path22" />
      <g
         id="g20">
        <path
           style="color:#000000;fill:#000000;stroke-linecap:round;-inkscape-stroke:none"
           d="m 125.14063,131.97461 a 0.273,0.273 0 0 0 0,0.38672 l 1.44531,1.44531 -1.44531,1.44531 a 0.273,0.273 0 0 0 0,0.38477 0.273,0.273 0 0 0 0.38671,0 l 1.83008,-1.83008 -1.83008,-1.83203 a 0.273,0.273 0 0 0 -0.38671,0 z"
           id="path20" />
      </g>
    </g>
    <g
       id="path1-9">
      <path
         style="color:#000000;fill:#ffffff;stroke-linecap:round;stroke-linejoin:round;-inkscape-stroke:none"
         d="m 145.07013,113.96687 h 19.9901"
         id="path15" />
      <path
         style="color:#000000;fill:#000000;stroke-linecap:round;stroke-linejoin:round;-inkscape-stroke:none"
         d="m 145.07031,113.69336 a 0.273,0.273 0 0 0 -0.27344,0.27344 0.273,0.273 0 0 0 0.27344,0.27343 h 19.99024 a 0.273,0.273 0 0 0 0.27343,-0.27343 0.273,0.273 0 0 0 -0.27343,-0.27344 z"
         id="path16" />
      <g
         id="g14">
        <path
           style="color:#000000;fill:#000000;stroke-linecap:round;-inkscape-stroke:none"
           d="m 163.55859,112.05664 a 0.273,0.273 0 0 0 -0.19336,0.0801 0.273,0.273 0 0 0 0,0.38476 l 1.44532,1.44532 -1.44532,1.44531 a 0.273,0.273 0 0 0 0,0.38672 0.273,0.273 0 0 0 0.38672,0 l 1.83008,-1.83203 -1.83008,-1.83008 a 0.273,0.273 0 0 0 -0.19336,-0.0801 z"
           id="path14" />
      </g>
    </g>
    <g
       id="path1-9-3">
      <path
         style="color:#000000;fill:#ffffff;stroke-linecap:round;stroke-linejoin:round;-inkscape-stroke:none"
         d="m 140.57449,113.96687 h -19.9901"
         id="path7" />
      <path
         style="color:#000000;fill:#000000;stroke-linecap:round;stroke-linejoin:round;-inkscape-stroke:none"
         d="m 120.58398,113.69336 a 0.273,0.273 0 0 0 -0.27343,0.27344 0.273,0.273 0 0 0 0.27343,0.27343 h 19.99024 a 0.273,0.273 0 0 0 0.27344,-0.27343 0.273,0.273 0 0 0 -0.27344,-0.27344 z"
         id="path10" />
      <g
         id="g2">
        <path
           style="color:#000000;fill:#000000;stroke-linecap:round;-inkscape-stroke:none"
           d="m 121.89258,112.13672 -1.83008,1.83008 1.83008,1.83203 a 0.273,0.273 0 0 0 0.38672,0 0.273,0.273 0 0 0 0,-0.38672 l -1.44532,-1.44531 1.44532,-1.44532 a 0.273,0.273 0 0 0 0,-0.38476 0.273,0.273 0 0 0 -0.38672,0 z"
           id="path2" />
      </g>
    </g>
    <g
       id="path4">
      <path
         style="color:#000000;fill:#ffffff;stroke-linecap:round;stroke-linejoin:round;-inkscape-stroke:none"
         d="m 136.34083,150.80977 v 15.61587"
         id="path24" />
      <path
         style="color:#000000;fill:#000000;stroke-linecap:round;stroke-linejoin:round;-inkscape-stroke:none"
         d="m 136.3418,150.53711 a 0.2729995,0.2729995 0 0 0 -0.27344,0.27344 v 15.61523 a 0.2729995,0.2729995 0 0 0 0.27344,0.27344 0.2729995,0.2729995 0 0 0 0.27148,-0.27344 v -15.61523 a 0.2729995,0.2729995 0 0 0 -0.27148,-0.27344 z"
         id="path25" />
      <g
         id="g23">
        <path
           style="color:#000000;fill:#000000;stroke-linecap:round;-inkscape-stroke:none"
           d="m 134.50977,164.73047 a 0.2729995,0.2729995 0 0 0 0,0.38672 l 1.83203,1.83008 1.83007,-1.83008 a 0.2729995,0.2729995 0 0 0 0,-0.38672 0.2729995,0.2729995 0 0 0 -0.38671,0 l -1.44532,1.44531 -1.44336,-1.44531 a 0.2729995,0.2729995 0 0 0 -0.38671,0 z"
           id="path23" />
      </g>
    </g>
    <g
       id="path5">
      <path
         style="color:#000000;fill:#ffffff;stroke-linecap:round;stroke-linejoin:round;-inkscape-stroke:none"
         d="m 165.88032,167.83743 0.13165,-17.30066"
         id="path30" />
      <path
         style="color:#000000;fill:#000000;stroke-linecap:round;stroke-linejoin:round;-inkscape-stroke:none"
         d="m 166.01367,150.26367 a 0.2729995,0.2729995 0 0 0 -0.27539,0.27149 l -0.13086,17.30078 a 0.2729995,0.2729995 0 0 0 0.27149,0.27539 0.2729995,0.2729995 0 0 0 0.27343,-0.27149 l 0.13282,-17.30078 a 0.2729995,0.2729995 0 0 0 -0.27149,-0.27539 z"
         id="path31" />
      <g
         id="g29">
        <path
           style="color:#000000;fill:#000000;stroke-linecap:round;-inkscape-stroke:none"
           d="m 166.01562,150.01367 -1.84375,1.81836 a 0.2729995,0.2729995 0 0 0 -0.004,0.38477 0.2729995,0.2729995 0 0 0 0.38672,0.004 l 1.45508,-1.43359 1.43359,1.45508 a 0.2729995,0.2729995 0 0 0 0.38672,0.004 0.2729995,0.2729995 0 0 0 0.002,-0.38672 z"
           id="path29" />
      </g>
    </g>
    <g
       id="path6">
      <path
         style="color:#000000;fill:#ffffff;stroke-linecap:round;stroke-linejoin:round;-inkscape-stroke:none"
         d="M 165.88032,167.83743 H 148.0294"
         id="path27" />
      <path
         style="color:#000000;fill:#000000;stroke-linecap:round;stroke-linejoin:round;-inkscape-stroke:none"
         d="m 148.0293,167.56445 a 0.2729995,0.2729995 0 0 0 -0.27344,0.27344 0.2729995,0.2729995 0 0 0 0.27344,0.27344 h 17.85156 a 0.2729995,0.2729995 0 0 0 0.27148,-0.27344 0.2729995,0.2729995 0 0 0 -0.27148,-0.27344 z"
         id="path28" />
      <g
         id="g26">
        <path
           style="color:#000000;fill:#000000;stroke-linecap:round;-inkscape-stroke:none"
           d="m 149.33789,166.00586 -1.83203,1.83203 1.83203,1.83008 a 0.2729995,0.2729995 0 0 0 0.38672,0 0.2729995,0.2729995 0 0 0 0,-0.38477 l -1.44531,-1.44531 1.44531,-1.44531 a 0.2729995,0.2729995 0 0 0 0,-0.38672 0.2729995,0.2729995 0 0 0 -0.38672,0 z"
           id="path26" />
      </g>
    </g>
    <text
       xml:space="preserve"
       style="font-size:6.03242px;fill:#000000;stroke:none;stroke-width:0.545999;stroke-linecap:round;stroke-linejoin:round;stroke-dasharray:none;stroke-opacity:1"
       x="118.69886"
       y="131.89543"
       id="text6"><tspan
         sodipodi:role="line"
         id="tspan6"
         style="fill:#000000;stroke:none;stroke-width:0.545999"
         x="118.69886"
         y="131.89543">T</tspan></text>
    <text
       xml:space="preserve"
       style="font-size:6.03242px;fill:#000000;stroke:none;stroke-width:0.545999;stroke-linecap:round;stroke-linejoin:round;stroke-dasharray:none;stroke-opacity:1"
       x="152.63124"
       y="112.05587"
       id="text6-9"><tspan
         sodipodi:role="line"
         id="tspan6-7"
         style="fill:#000000;stroke:none;stroke-width:0.545999"
         x="152.63124"
         y="112.05587">T</tspan></text>
    <text
       xml:space="preserve"
       style="font-size:6.03242px;fill:#000000;stroke:none;stroke-width:0.545999;stroke-linecap:round;stroke-linejoin:round;stroke-dasharray:none;stroke-opacity:1"
       x="129.02216"
       y="161.2159"
       id="text6-5"><tspan
         sodipodi:role="line"
         id="tspan6-3"
         style="fill:#000000;stroke:none;stroke-width:0.545999"
         x="129.02216"
         y="161.2159">W</tspan></text>
    <g
       id="path4-8">
      <path
         style="color:#000000;fill:#ffffff;stroke-linecap:round;stroke-linejoin:round;-inkscape-stroke:none"
         d="m 142.82231,116.21469 v 15.61587"
         id="path18" />
      <path
         style="color:#000000;fill:#000000;stroke-linecap:round;stroke-linejoin:round;-inkscape-stroke:none"
         d="m 142.82227,115.94141 a 0.2729995,0.2729995 0 0 0 -0.27344,0.27343 v 15.61524 a 0.2729995,0.2729995 0 0 0 0.27344,0.27344 0.2729995,0.2729995 0 0 0 0.27343,-0.27344 v -15.61524 a 0.2729995,0.2729995 0 0 0 -0.27343,-0.27343 z"
         id="path19" />
      <g
         id="g17">
        <path
           style="color:#000000;fill:#000000;stroke-linecap:round;-inkscape-stroke:none"
           d="m 140.99219,130.13672 a 0.2729995,0.2729995 0 0 0 0,0.38476 l 1.83008,1.83204 1.83203,-1.83204 a 0.2729995,0.2729995 0 0 0 0,-0.38476 0.2729995,0.2729995 0 0 0 -0.38672,0 l -1.44531,1.44336 -1.44532,-1.44336 a 0.2729995,0.2729995 0 0 0 -0.38476,0 z"
           id="path17" />
      </g>
    </g>
    <g
       id="path4-8-4">
      <path
         style="color:#000000;fill:#ffffff;stroke-linecap:round;stroke-linejoin:round;-inkscape-stroke:none"
         d="M 142.82231,111.71905 V 96.103181"
         id="path12" />
      <path
         style="color:#000000;fill:#000000;stroke-linecap:round;stroke-linejoin:round;-inkscape-stroke:none"
         d="m 142.82227,95.830078 a 0.2729995,0.2729995 0 0 0 -0.27344,0.273438 v 15.615234 a 0.2729995,0.2729995 0 0 0 0.27344,0.27344 0.2729995,0.2729995 0 0 0 0.27343,-0.27344 V 96.103516 a 0.2729995,0.2729995 0 0 0 -0.27343,-0.273438 z"
         id="path13" />
      <g
         id="g11">
        <path
           style="color:#000000;fill:#000000;stroke-linecap:round;-inkscape-stroke:none"
           d="m 142.82227,95.580078 -1.83008,1.832031 a 0.2729995,0.2729995 0 0 0 0,0.384766 0.2729995,0.2729995 0 0 0 0.38476,0 l 1.44532,-1.443359 1.44531,1.443359 a 0.2729995,0.2729995 0 0 0 0.38672,0 0.2729995,0.2729995 0 0 0 0,-0.384766 z"
           id="path11" />
      </g>
    </g>
    <text
       xml:space="preserve"
       style="font-size:6.03242px;fill:#000000;stroke:none;stroke-width:0.545999;stroke-linecap:round;stroke-linejoin:round;stroke-dasharray:none;stroke-opacity:1"
       x="135.37958"
       y="125.17918"
       id="text6-5-7"><tspan
         sodipodi:role="line"
         id="tspan6-3-9"
         style="fill:#000000;stroke:none;stroke-width:0.545999"
         x="135.37958"
         y="125.17918">W</tspan></text>
    <text
       xml:space="preserve"
       style="font-size:6.03242px;fill:#000000;stroke:none;stroke-width:0.545999;stroke-linecap:round;stroke-linejoin:round;stroke-dasharray:none;stroke-opacity:1"
       x="151.6897"
       y="174.66907"
       id="text6-5-9"><tspan
         sodipodi:role="line"
         id="tspan6-3-1"
         style="fill:#000000;stroke:none;stroke-width:0.545999"
         x="151.6897"
         y="174.66907">H<tspan
   style="font-size:65%;baseline-shift:sub"
   id="tspan7">H</tspan></tspan></text>
    <text
       xml:space="preserve"
       style="font-size:6.03242px;fill:#000000;stroke:none;stroke-width:0.545999;stroke-linecap:round;stroke-linejoin:round;stroke-dasharray:none;stroke-opacity:1"
       x="124.88148"
       y="112.05587"
       id="text6-5-9-0"><tspan
         sodipodi:role="line"
         id="tspan6-3-1-6"
         style="fill:#000000;stroke:none;stroke-width:0.545999"
         x="124.88148"
         y="112.05587">H<tspan
   style="font-size:65%;baseline-shift:sub"
   id="tspan7-1">H</tspan></tspan></text>
    <text
       xml:space="preserve"
       style="font-size:6.03242px;fill:#000000;stroke:none;stroke-width:0.545999;stroke-linecap:round;stroke-linejoin:round;stroke-dasharray:none;stroke-opacity:1"
       x="167.80714"
       y="161.2159"
       id="text6-5-9-9"><tspan
         sodipodi:role="line"
         id="tspan6-3-1-3"
         style="fill:#000000;stroke:none;stroke-width:0.545999"
         x="167.80714"
         y="161.2159">H<tspan
   style="font-size:65%;baseline-shift:sub"
   id="tspan8">V</tspan></tspan></text>
    <text
       xml:space="preserve"
       style="font-size:6.03242px;fill:#000000;stroke:none;stroke-width:0.545999;stroke-linecap:round;stroke-linejoin:round;stroke-dasharray:none;stroke-opacity:1"
       x="133.674"
       y="105.85523"
       id="text6-5-9-9-6"><tspan
         sodipodi:role="line"
         id="tspan6-3-1-3-1"
         style="fill:#000000;stroke:none;stroke-width:0.545999"
         x="133.674"
         y="105.85523">H<tspan
   style="font-size:65%;baseline-shift:sub"
   id="tspan8-0">V</tspan></tspan></text>
    <circle
       style="fill:#000000;stroke:none;stroke-width:0.545999;stroke-linecap:round;stroke-linejoin:round;stroke-dasharray:none;stroke-opacity:1"
       id="path8"
       cx="142.82231"
       cy="113.96687"
       r="2.2478211" />
    <path
       style="fill:none;stroke:#000000;stroke-width:0.545999;stroke-linecap:round;stroke-linejoin:round;stroke-dasharray:none;stroke-opacity:1"
       d="m 98.774086,117.91915 h 8.509604 v -7.86737"
       id="path9" />
    <text
       xml:space="preserve"
       style="font-size:3.175px;fill:#000000;stroke:none;stroke-width:0.545999;stroke-linecap:round;stroke-linejoin:round;stroke-dasharray:none;stroke-opacity:1"
       x="103.02572"
       y="112.39466"
       id="text9"><tspan
         sodipodi:role="line"
         id="tspan9"
         style="fill:#000000;stroke:none;stroke-width:0.546"
         x="103.02572"
         y="112.39466">y+</tspan></text>
    <text
       xml:space="preserve"
       style="font-size:3.175px;fill:#000000;stroke:none;stroke-width:0.545999;stroke-linecap:round;stroke-linejoin:round;stroke-dasharray:none;stroke-opacity:1"
       x="98.501091"
       y="116.65077"
       id="text9-7"><tspan
         sodipodi:role="line"
         id="tspan9-6"
         style="fill:#000000;stroke:none;stroke-width:0.546"
         x="98.501091"
         y="116.65077">x+</tspan></text>
  </g>
</svg>
