<?xml version="1.0" encoding="UTF-8" standalone="no"?>
<!-- Created with Inkscape (http://www.inkscape.org/) -->

<svg
   width="106.48389mm"
   height="86.112785mm"
   viewBox="0 0 106.48389 86.112785"
   version="1.1"
   id="svg1"
   inkscape:version="1.3.2 (091e20ef0f, 2023-11-25)"
   sodipodi:docname="3a.svg"
   xmlns:inkscape="http://www.inkscape.org/namespaces/inkscape"
   xmlns:sodipodi="http://sodipodi.sourceforge.net/DTD/sodipodi-0.dtd"
   xmlns="http://www.w3.org/2000/svg"
   xmlns:svg="http://www.w3.org/2000/svg">
  <sodipodi:namedview
     id="namedview1"
     pagecolor="#ffffff"
     bordercolor="#000000"
     borderopacity="0.25"
     inkscape:showpageshadow="2"
     inkscape:pageopacity="0.0"
     inkscape:pagecheckerboard="0"
     inkscape:deskcolor="#d1d1d1"
     inkscape:document-units="mm"
     inkscape:zoom="2.362542"
     inkscape:cx="271.52956"
     inkscape:cy="134.60078"
     inkscape:window-width="2560"
     inkscape:window-height="1440"
     inkscape:window-x="2560"
     inkscape:window-y="1440"
     inkscape:window-maximized="1"
     inkscape:current-layer="layer1">
    <inkscape:page
       x="0"
       y="0"
       width="106.48389"
       height="86.112785"
       id="page1"
       margin="5.0000005"
       bleed="0" />
  </sodipodi:namedview>
  <defs
     id="defs1">
    <clipPath
       clipPathUnits="userSpaceOnUse"
       id="clipPath188">
      <path
         d="m 913.199,4358.4 h 4320 v 2496.39 h -4320 z"
         id="path188" />
    </clipPath>
    <clipPath
       clipPathUnits="userSpaceOnUse"
       id="clipPath189">
      <path
         d="m 913.199,4358.4 h 4320 v 2496.39 h -4320 z"
         id="path189" />
    </clipPath>
    <clipPath
       clipPathUnits="userSpaceOnUse"
       id="clipPath190">
      <path
         d="m 913.199,4358.4 h 4320 v 2496.39 h -4320 z"
         id="path190" />
    </clipPath>
    <clipPath
       clipPathUnits="userSpaceOnUse"
       id="clipPath191">
      <path
         d="m 913.199,4358.4 h 4320 v 2496.39 h -4320 z"
         id="path191" />
    </clipPath>
    <clipPath
       clipPathUnits="userSpaceOnUse"
       id="clipPath192">
      <path
         d="m 913.199,4358.4 h 4320 v 2496.39 h -4320 z"
         id="path192" />
    </clipPath>
    <clipPath
       clipPathUnits="userSpaceOnUse"
       id="clipPath193">
      <path
         d="m 913.199,4358.4 h 4320 v 2496.39 h -4320 z"
         id="path193" />
    </clipPath>
    <clipPath
       clipPathUnits="userSpaceOnUse"
       id="clipPath194">
      <path
         d="m 913.199,4358.4 h 4320 v 2496.39 h -4320 z"
         id="path194" />
    </clipPath>
    <clipPath
       clipPathUnits="userSpaceOnUse"
       id="clipPath195">
      <path
         d="m 913.199,4358.4 h 4320 v 2496.39 h -4320 z"
         id="path195" />
    </clipPath>
    <clipPath
       clipPathUnits="userSpaceOnUse"
       id="clipPath196">
      <path
         d="m 913.199,4358.4 h 4320 v 2496.39 h -4320 z"
         id="path196" />
    </clipPath>
    <clipPath
       clipPathUnits="userSpaceOnUse"
       id="clipPath197">
      <path
         d="m 913.199,4358.4 h 4320 v 2496.39 h -4320 z"
         id="path197" />
    </clipPath>
    <clipPath
       clipPathUnits="userSpaceOnUse"
       id="clipPath198">
      <path
         d="m 913.199,4358.4 h 4320 v 2496.39 h -4320 z"
         id="path198" />
    </clipPath>
    <clipPath
       clipPathUnits="userSpaceOnUse"
       id="clipPath199">
      <path
         d="m 913.199,4358.4 h 4320 v 2496.39 h -4320 z"
         transform="matrix(0.1,0,0,-0.1,-92.11678,508.342)"
         id="path199" />
    </clipPath>
    <clipPath
       clipPathUnits="userSpaceOnUse"
       id="clipPath200">
      <path
         d="m 913.199,4358.4 h 4320 v 2496.39 h -4320 z"
         transform="matrix(0.05000002,0.08660253,0.08660253,-0.05000002,-660.75386,-56.071089)"
         id="path200" />
    </clipPath>
    <clipPath
       clipPathUnits="userSpaceOnUse"
       id="clipPath201">
      <path
         d="m 913.199,4358.4 h 4320 v 2496.39 h -4320 z"
         transform="matrix(0,0.1,0.1,0,-576.063,-522.34602)"
         id="path201" />
    </clipPath>
    <clipPath
       clipPathUnits="userSpaceOnUse"
       id="clipPath202">
      <path
         d="m 913.199,4358.4 h 4320 v 2496.39 h -4320 z"
         transform="matrix(0.1,0,0,-0.1,-263.41202,591.997)"
         id="path202" />
    </clipPath>
    <clipPath
       clipPathUnits="userSpaceOnUse"
       id="clipPath203">
      <path
         d="m 913.199,4358.4 h 4320 v 2496.39 h -4320 z"
         id="path203" />
    </clipPath>
    <clipPath
       clipPathUnits="userSpaceOnUse"
       id="clipPath204">
      <path
         d="m 913.199,4358.4 h 4320 v 2496.39 h -4320 z"
         transform="matrix(0.1,0,0,-0.1,-386.90403,492.407)"
         id="path204" />
    </clipPath>
  </defs>
  <g
     inkscape:label="Layer 1"
     inkscape:groupmode="layer"
     id="layer1"
     transform="translate(-69.153368,-95.176003)">
    <rect
       style="fill:#ffffff;stroke:none;stroke-width:0.799999;stroke-linecap:round;stroke-linejoin:round;stroke-dasharray:none;stroke-opacity:1"
       id="rect7"
       width="106.48388"
       height="86.112785"
       x="69.153366"
       y="95.176003" />
    <path
       d="m 4650.36,6750.69 103.04,-60.55 -1075.58,-1862.21 -103.04,58.43 z"
       style="fill:#ffffff;fill-opacity:1;fill-rule:evenodd;stroke:#000000;stroke-width:23.9016;stroke-linecap:butt;stroke-linejoin:miter;stroke-miterlimit:10;stroke-dasharray:none;stroke-opacity:1"
       transform="matrix(0.03529436,0,0,-0.03529436,2.2944079,339.10021)"
       clip-path="url(#clipPath191)"
       id="path212" />
    <g
       id="path1">
      <path
         style="color:#000000;fill:#000000;stroke-linecap:round;stroke-linejoin:round;-inkscape-stroke:none"
         d="m 149.26172,134.36719 a 0.40000001,0.40000001 0 0 0 -0.40039,0.40039 v 18.1582 a 0.40000001,0.40000001 0 0 0 0.40039,0.40039 0.40000001,0.40000001 0 0 0 0.40039,-0.40039 v -18.1582 a 0.40000001,0.40000001 0 0 0 -0.40039,-0.40039 z"
         id="path21" />
      <g
         id="g20">
        <path
           style="color:#000000;fill:#000000;stroke-linecap:round;-inkscape-stroke:none"
           d="m 146.86133,150.32617 a 0.40000001,0.40000001 0 0 0 -0.28321,0.11719 0.40000001,0.40000001 0 0 0 0,0.56445 l 2.6836,2.6836 2.68359,-2.6836 a 0.40000001,0.40000001 0 0 0 0,-0.56445 0.40000001,0.40000001 0 0 0 -0.5664,0 l -2.11719,2.11719 -2.11719,-2.11719 a 0.40000001,0.40000001 0 0 0 -0.2832,-0.11719 z"
           id="path20" />
      </g>
    </g>
    <g
       id="path3">
      <path
         style="color:#000000;fill:#000000;stroke-linecap:round;stroke-linejoin:round;-inkscape-stroke:none"
         d="m 149.25977,168.20508 -17.16211,0.0957 a 0.3999995,0.3999995 0 0 0 -0.39649,0.40234 0.3999995,0.3999995 0 0 0 0.40235,0.39844 l 17.16015,-0.0957 a 0.3999995,0.3999995 0 0 0 0.39844,-0.40234 0.3999995,0.3999995 0 0 0 -0.40234,-0.39844 z"
         id="path19" />
      <g
         id="g18">
        <path
           style="color:#000000;fill:#000000;stroke-linecap:round;-inkscape-stroke:none"
           d="m 147.33008,165.93359 a 0.3999995,0.3999995 0 0 0 -0.56641,0.002 0.3999995,0.3999995 0 0 0 0.004,0.5664 l 2.1289,2.10547 -2.10546,2.12891 a 0.3999995,0.3999995 0 0 0 0.004,0.5664 0.3999995,0.3999995 0 0 0 0.56445,-0.004 l 2.66797,-2.69727 z"
           id="path18" />
      </g>
    </g>
    <g
       id="path3-8">
      <path
         style="color:#000000;fill:#000000;stroke-linecap:round;stroke-linejoin:round;-inkscape-stroke:none"
         d="m 115.09961,152.38672 -17.16211,0.0977 a 0.3999995,0.3999995 0 0 0 -0.396484,0.40235 0.3999995,0.3999995 0 0 0 0.40039,0.39648 l 17.162114,-0.0957 a 0.3999995,0.3999995 0 0 0 0.39843,-0.40234 0.3999995,0.3999995 0 0 0 -0.40234,-0.39844 z"
         id="path11" />
      <g
         id="g10">
        <path
           style="color:#000000;fill:#000000;stroke-linecap:round;-inkscape-stroke:none"
           d="m 112.88477,150 a 0.3999995,0.3999995 0 0 0 -0.28125,0.11914 0.3999995,0.3999995 0 0 0 0.004,0.56445 l 2.12891,2.10743 -2.10547,2.12695 a 0.3999995,0.3999995 0 0 0 0.002,0.5664 0.3999995,0.3999995 0 0 0 0.56641,-0.004 l 2.66797,-2.69727 -2.69727,-2.66797 A 0.3999995,0.3999995 0 0 0 112.88477,150 Z"
           id="path10" />
      </g>
    </g>
    <g
       id="path4">
      <path
         style="color:#000000;fill:#000000;stroke-linecap:round;stroke-linejoin:round;-inkscape-stroke:none"
         d="m 132.10156,150.15039 a 0.3999995,0.3999995 0 0 0 -0.40039,0.40039 v 18.15039 a 0.3999995,0.3999995 0 0 0 0.40039,0.40039 0.3999995,0.3999995 0 0 0 0.39844,-0.40039 v -18.15039 a 0.3999995,0.3999995 0 0 0 -0.39844,-0.40039 z"
         id="path17" />
      <g
         id="g16">
        <path
           style="color:#000000;fill:#000000;stroke-linecap:round;-inkscape-stroke:none"
           d="m 132.10156,149.78516 -2.68359,2.68164 a 0.3999995,0.3999995 0 0 0 0,0.5664 0.3999995,0.3999995 0 0 0 0.5664,0 l 2.11719,-2.11718 2.11719,2.11718 a 0.3999995,0.3999995 0 0 0 0.56445,0 0.3999995,0.3999995 0 0 0 0,-0.5664 z"
           id="path16" />
      </g>
    </g>
    <g
       id="path4-2">
      <path
         style="color:#000000;fill:#000000;stroke-linecap:round;stroke-linejoin:round;-inkscape-stroke:none"
         d="m 95.009766,131.40234 a 0.3999995,0.3999995 0 0 0 -0.400391,0.40039 v 18.15039 a 0.3999995,0.3999995 0 0 0 0.400391,0.4004 0.3999995,0.3999995 0 0 0 0.40039,-0.4004 v -18.15039 a 0.3999995,0.3999995 0 0 0 -0.40039,-0.40039 z"
         id="path9" />
      <g
         id="g8">
        <path
           style="color:#000000;fill:#000000;stroke-linecap:round;-inkscape-stroke:none"
           d="m 95.009766,131.03711 -2.681641,2.68164 a 0.3999995,0.3999995 0 0 0 0,0.56641 0.3999995,0.3999995 0 0 0 0.564453,0 l 2.117188,-2.11719 2.117187,2.11719 a 0.3999995,0.3999995 0 0 0 0.566406,0 0.3999995,0.3999995 0 0 0 0,-0.56641 z"
           id="path8" />
      </g>
    </g>
    <g
       id="path3-8-9">
      <path
         style="color:#000000;fill:#000000;stroke-linecap:round;stroke-linejoin:round;-inkscape-stroke:none"
         d="m 92.078125,152.48437 -17.162109,0.0957 a 0.3999995,0.3999995 0 0 0 -0.396485,0.40234 0.3999995,0.3999995 0 0 0 0.402344,0.39844 l 17.160156,-0.0977 a 0.3999995,0.3999995 0 0 0 0.398438,-0.40234 0.3999995,0.3999995 0 0 0 -0.402344,-0.39649 z"
         id="path15" />
      <g
         id="g14">
        <path
           style="color:#000000;fill:#000000;stroke-linecap:round;-inkscape-stroke:none"
           d="m 77.103516,150.16797 a 0.3999995,0.3999995 0 0 0 -0.283204,0.11914 l -2.666015,2.69726 2.697265,2.66797 a 0.3999995,0.3999995 0 0 0 0.564454,-0.004 0.3999995,0.3999995 0 0 0 -0.002,-0.56446 l -2.128906,-2.10546 2.105469,-2.12891 a 0.3999995,0.3999995 0 0 0 -0.0039,-0.56641 0.3999995,0.3999995 0 0 0 -0.283203,-0.11523 z"
           id="path14" />
      </g>
    </g>
    <g
       id="path4-2-3">
      <path
         style="color:#000000;fill:#000000;stroke-linecap:round;stroke-linejoin:round;-inkscape-stroke:none"
         d="m 95.009766,155.41406 a 0.3999995,0.3999995 0 0 0 -0.400391,0.40039 v 18.15039 a 0.3999995,0.3999995 0 0 0 0.400391,0.40039 0.3999995,0.3999995 0 0 0 0.40039,-0.40039 v -18.15039 a 0.3999995,0.3999995 0 0 0 -0.40039,-0.40039 z"
         id="path13" />
      <g
         id="g12">
        <path
           style="color:#000000;fill:#000000;stroke-linecap:round;-inkscape-stroke:none"
           d="m 92.609375,171.36523 a 0.3999995,0.3999995 0 0 0 -0.28125,0.11719 0.3999995,0.3999995 0 0 0 0,0.56641 l 2.681641,2.68164 2.683593,-2.68164 a 0.3999995,0.3999995 0 0 0 0,-0.56641 0.3999995,0.3999995 0 0 0 -0.566406,0 l -2.117187,2.11719 -2.117188,-2.11719 a 0.3999995,0.3999995 0 0 0 -0.283203,-0.11719 z"
           id="path12" />
      </g>
    </g>
    <g
       id="path5">
      <path
         style="color:#000000;fill:#000000;stroke-linecap:round;stroke-linejoin:round;-inkscape-stroke:none"
         d="m 152.55664,102.57617 a 0.3999995,0.3999995 0 0 0 -0.40039,0.40039 0.3999995,0.3999995 0 0 0 0.40039,0.40039 h 17.50586 a 0.3999995,0.3999995 0 0 0 0.40039,-0.40039 0.3999995,0.3999995 0 0 0 -0.40039,-0.40039 z"
         id="path23" />
      <g
         id="g22">
        <path
           style="color:#000000;fill:#000000;stroke-linecap:round;-inkscape-stroke:none"
           d="m 154.47266,100.29297 -2.68164,2.68359 2.68164,2.68164 a 0.3999995,0.3999995 0 0 0 0.5664,0 0.3999995,0.3999995 0 0 0 0,-0.56445 l -2.11719,-2.11719 2.11719,-2.11718 a 0.3999995,0.3999995 0 0 0 0,-0.56641 0.3999995,0.3999995 0 0 0 -0.5664,0 z"
           id="path22" />
      </g>
    </g>
    <text
       xml:space="preserve"
       style="font-size:6.10291px;fill:#000000;stroke:none;stroke-width:0.8;stroke-linecap:round;stroke-linejoin:round;stroke-dasharray:none;stroke-opacity:1"
       x="151.98853"
       y="147.01814"
       id="text5"><tspan
         sodipodi:role="line"
         id="tspan5"
         style="fill:#000000;stroke:none;stroke-width:0.8"
         x="151.98853"
         y="147.01814">W</tspan></text>
    <text
       xml:space="preserve"
       style="font-size:6.10291px;fill:#000000;stroke:none;stroke-width:0.8;stroke-linecap:round;stroke-linejoin:round;stroke-dasharray:none;stroke-opacity:1"
       x="96.622902"
       y="167.94424"
       id="text5-7"><tspan
         sodipodi:role="line"
         id="tspan5-8"
         style="fill:#000000;stroke:none;stroke-width:0.8"
         x="96.622902"
         y="167.94424">W</tspan></text>
    <text
       xml:space="preserve"
       style="font-size:6.10291px;fill:#000000;stroke:none;stroke-width:0.8;stroke-linecap:round;stroke-linejoin:round;stroke-dasharray:none;stroke-opacity:1"
       x="137.77507"
       y="176.28879"
       id="text5-5"><tspan
         sodipodi:role="line"
         id="tspan5-3"
         style="fill:#000000;stroke:none;stroke-width:0.8"
         x="137.77507"
         y="176.28879">f</tspan></text>
    <text
       xml:space="preserve"
       style="font-size:6.10291px;fill:#000000;stroke:none;stroke-width:0.8;stroke-linecap:round;stroke-linejoin:round;stroke-dasharray:none;stroke-opacity:1"
       x="105.60043"
       y="159.78882"
       id="text5-5-0"><tspan
         sodipodi:role="line"
         id="tspan5-3-2"
         style="fill:#000000;stroke:none;stroke-width:0.8"
         x="105.60043"
         y="159.78882">f</tspan></text>
    <text
       xml:space="preserve"
       style="font-size:6.10291px;fill:#000000;stroke:none;stroke-width:0.8;stroke-linecap:round;stroke-linejoin:round;stroke-dasharray:none;stroke-opacity:1"
       x="122.30287"
       y="159.44295"
       id="text5-5-9"><tspan
         sodipodi:role="line"
         id="tspan5-3-1"
         style="fill:#000000;stroke:none;stroke-width:0.8"
         x="122.30287"
         y="159.44295">N<tspan
   style="font-size:65%;baseline-shift:sub"
   id="tspan6">F</tspan></tspan></text>
    <text
       xml:space="preserve"
       style="font-size:6.10291px;fill:#000000;stroke:none;stroke-width:0.8;stroke-linecap:round;stroke-linejoin:round;stroke-dasharray:none;stroke-opacity:1"
       x="96.104156"
       y="142.80882"
       id="text5-5-9-3"><tspan
         sodipodi:role="line"
         id="tspan5-3-1-6"
         style="fill:#000000;stroke:none;stroke-width:0.8"
         x="96.104156"
         y="142.80882">N<tspan
   style="font-size:65%;baseline-shift:sub"
   id="tspan6-1">F</tspan></tspan></text>
    <text
       xml:space="preserve"
       style="font-size:6.10291px;fill:#000000;stroke:none;stroke-width:0.8;stroke-linecap:round;stroke-linejoin:round;stroke-dasharray:none;stroke-opacity:1"
       x="96.948135"
       y="110.42286"
       id="text5-5-9-3-4"><tspan
         sodipodi:role="line"
         id="tspan5-3-1-6-7"
         style="fill:#000000;stroke:none;stroke-width:0.8"
         x="96.948135"
         y="110.42286">y+</tspan></text>
    <text
       xml:space="preserve"
       style="font-size:6.10291px;fill:#000000;stroke:none;stroke-width:0.8;stroke-linecap:round;stroke-linejoin:round;stroke-dasharray:none;stroke-opacity:1"
       x="85.230858"
       y="117.27262"
       id="text5-5-9-3-4-3"><tspan
         sodipodi:role="line"
         id="tspan5-3-1-6-7-7"
         style="fill:#000000;stroke:none;stroke-width:0.8"
         x="85.230858"
         y="117.27262">x+</tspan></text>
    <text
       xml:space="preserve"
       style="font-size:6.10291px;fill:#000000;stroke:none;stroke-width:0.8;stroke-linecap:round;stroke-linejoin:round;stroke-dasharray:none;stroke-opacity:1"
       x="147.78563"
       y="110.13348"
       id="text5-5-9-9"><tspan
         sodipodi:role="line"
         id="tspan5-3-1-3"
         style="fill:#000000;stroke:none;stroke-width:0.8"
         x="147.78563"
         y="110.13348">N<tspan
   style="font-size:65%;baseline-shift:sub"
   id="tspan6-6">W</tspan></tspan></text>
    <text
       xml:space="preserve"
       style="font-size:6.10291px;fill:#000000;stroke:none;stroke-width:0.8;stroke-linecap:round;stroke-linejoin:round;stroke-dasharray:none;stroke-opacity:1"
       x="79.170822"
       y="158.68382"
       id="text5-5-9-9-2"><tspan
         sodipodi:role="line"
         id="tspan5-3-1-3-0"
         style="fill:#000000;stroke:none;stroke-width:0.8"
         x="79.170822"
         y="158.68382">N<tspan
   style="font-size:65%;baseline-shift:sub"
   id="tspan6-6-6">W</tspan></tspan></text>
    <circle
       style="fill:#000000;stroke:none;stroke-width:0.799999;stroke-linecap:round;stroke-linejoin:round;stroke-dasharray:none;stroke-opacity:1"
       id="path6"
       cx="95.010101"
       cy="152.8837"
       r="2.9300139" />
    <path
       style="fill:none;stroke:#000000;stroke-width:0.799999;stroke-linecap:round;stroke-linejoin:round;stroke-dasharray:none;stroke-opacity:1"
       d="M 81.059969,120.23396 H 105.29198 V 104.39605"
       id="path7" />
  </g>
</svg>
