<svg version="1.1" xmlns="http://www.w3.org/2000/svg" viewBox="0 0 611.0126639233683 596.8661204654577" width="611.0126639233683" height="596.8661204654577" filter="invert(93%) hue-rotate(180deg)">
  <!-- svg-source:excalidraw -->
  
  <defs>
    <style>
      @font-face {
        font-family: "Virgil";
        src: url("https://unpkg.com/@zsviczian/excalidraw@0.11.0-obsidian-25/dist/excalidraw-assets/Virgil.woff2");
      }
      @font-face {
        font-family: "Cascadia";
        src: url("https://unpkg.com/@zsviczian/excalidraw@0.11.0-obsidian-25/dist/excalidraw-assets/Cascadia.woff2");
      }
    </style>
  </defs>
  <rect x="0" y="0" width="611.0126639233683" height="596.8661204654577" fill="#ffffff"/><g stroke-linecap="round" transform="translate(10 10) rotate(0 295.50633196168417 288.43306023272885)"><path d="M0.59 -0.73 C232.61 0.37, 465.91 1.32, 591.49 0.08 M-0.21 -0.36 C158.84 0.45, 317.56 0.64, 591.08 0.25 M591.62 0.06 C592.2 150.93, 592.88 303.63, 590.56 577.09 M591.17 -0.18 C589.2 121.83, 588.72 244.6, 591.36 576.56 M591.23 577.27 C371.03 574.71, 150 575.97, -0.63 576.61 M590.93 576.97 C457.6 578.43, 323.1 578.72, 0.09 577.02 M0.06 577.3 C-1.29 388.92, -1.51 200.36, 0.04 0.78 M-0.31 577.07 C-1.66 380.23, -1.6 183.37, -0.1 -0.31" stroke="#000000" stroke-width="1" fill="none"/></g><g transform="translate(65.17301897340292 86.584099356264) rotate(0 47.33332824707031 32)" stroke="none"><path fill="#000000" d="M -2.21,-0.55 Q -2.21,-0.55 -1.82,-2.09 -1.43,-3.63 -0.83,-4.93 -0.23,-6.23 0.44,-7.94 1.13,-9.66 1.65,-10.66 2.18,-11.66 3.36,-13.06 4.55,-14.47 5.84,-15.77 7.13,-17.06 8.47,-18.35 9.82,-19.64 11.28,-20.70 12.74,-21.77 14.53,-22.86 16.32,-23.95 17.88,-24.87 19.44,-25.78 21.08,-26.30 22.71,-26.81 24.43,-27.31 26.15,-27.82 28.22,-28.04 30.30,-28.27 32.71,-28.29 35.13,-28.30 38.07,-28.28 41.00,-28.26 44.55,-28.23 48.09,-28.20 51.51,-28.17 54.94,-28.15 59.14,-27.74 63.35,-27.33 67.43,-26.76 71.52,-26.20 74.44,-25.56 77.37,-24.92 80.13,-24.27 82.90,-23.61 85.25,-22.94 87.61,-22.26 89.53,-21.16 91.44,-20.06 92.70,-19.28 93.95,-18.50 95.33,-16.87 96.72,-15.24 98.01,-13.86 99.29,-12.48 100.32,-10.12 101.36,-7.76 102.12,-5.66 102.89,-3.56 103.61,-0.68 104.33,2.18 104.63,4.61 104.93,7.03 105.06,10.00 105.18,12.97 105.23,15.75 105.27,18.54 105.29,21.64 105.31,24.75 104.92,28.06 104.54,31.37 103.59,34.77 102.64,38.16 101.46,41.15 100.28,44.15 99.00,46.96 97.73,49.77 96.00,52.56 94.27,55.35 92.41,58.41 90.55,61.48 88.17,64.39 85.78,67.30 83.20,69.72 80.62,72.14 78.02,74.67 75.43,77.19 72.71,79.10 69.98,81.01 67.34,82.94 64.69,84.87 61.15,86.52 57.62,88.17 54.56,89.25 51.51,90.34 47.81,90.82 44.10,91.30 41.01,91.50 37.92,91.69 34.68,91.77 31.44,91.85 28.00,91.11 24.56,90.36 21.90,89.24 19.24,88.13 16.88,86.45 14.53,84.77 12.77,83.29 11.02,81.81 9.11,80.02 7.21,78.23 5.58,76.27 3.96,74.30 2.48,71.89 0.99,69.47 -0.39,66.92 -1.78,64.36 -2.78,62.08 -3.77,59.81 -4.58,57.68 -5.38,55.56 -6.15,53.96 -6.92,52.35 -7.64,50.47 -8.36,48.59 -9.08,47.57 -9.80,46.55 -10.26,45.08 -10.72,43.61 -11.08,41.78 -11.44,39.95 -11.59,38.11 -11.74,36.26 -11.77,35.04 -11.81,33.81 -11.83,32.52 -11.84,31.22 -11.29,28.95 -10.74,26.67 -10.06,24.58 -9.39,22.49 -8.69,20.12 -7.99,17.76 -7.27,15.57 -6.55,13.39 -5.69,10.88 -4.82,8.38 -4.66,8.12 -4.51,7.86 -4.28,7.66 -4.05,7.46 -3.77,7.35 -3.49,7.23 -3.19,7.21 -2.89,7.19 -2.59,7.27 -2.30,7.35 -2.05,7.52 -1.80,7.69 -1.61,7.93 -1.43,8.17 -1.33,8.45 -1.23,8.74 -1.23,9.04 -1.23,9.34 -1.32,9.63 -1.42,9.92 -1.60,10.16 -1.78,10.40 -2.03,10.58 -2.28,10.75 -2.57,10.83 -2.86,10.91 -3.16,10.90 -3.46,10.89 -3.74,10.78 -4.03,10.67 -4.26,10.47 -4.49,10.28 -4.65,10.02 -4.81,9.76 -4.87,9.47 -4.94,9.17 -4.91,8.87 -4.88,8.57 -4.76,8.29 -4.63,8.02 -4.42,7.80 -4.22,7.58 -3.95,7.43 -3.69,7.29 -3.39,7.24 -3.09,7.19 -2.79,7.23 -2.49,7.28 -2.22,7.42 -1.95,7.56 -1.74,7.78 -1.53,7.99 -1.41,8.27 -1.28,8.54 -1.24,8.84 -1.21,9.14 -1.27,9.44 -1.33,9.73 -1.33,9.73 -1.33,9.73 -2.34,12.04 -3.34,14.35 -3.92,16.50 -4.49,18.66 -5.02,21.09 -5.55,23.52 -5.97,25.49 -6.38,27.47 -6.59,29.35 -6.81,31.23 -6.82,32.51 -6.84,33.79 -6.86,35.01 -6.89,36.22 -6.98,37.94 -7.06,39.66 -7.07,41.22 -7.09,42.79 -6.97,43.84 -6.86,44.90 -6.23,46.23 -5.59,47.55 -4.93,49.38 -4.27,51.20 -3.60,52.91 -2.93,54.63 -2.14,56.69 -1.36,58.76 -0.42,60.93 0.52,63.11 1.87,65.60 3.23,68.10 4.61,70.37 5.99,72.64 7.50,74.48 9.01,76.32 10.86,78.06 12.71,79.80 14.39,81.22 16.06,82.64 18.17,84.18 20.28,85.72 22.71,86.76 25.14,87.80 28.26,88.51 31.39,89.23 34.57,89.15 37.76,89.07 40.77,88.88 43.78,88.69 47.21,88.28 50.65,87.86 53.58,86.82 56.51,85.79 59.83,84.26 63.15,82.74 65.82,80.80 68.48,78.86 71.04,77.08 73.60,75.30 76.21,72.76 78.83,70.22 81.29,67.92 83.75,65.63 86.02,62.87 88.30,60.10 90.16,57.03 92.03,53.95 93.68,51.31 95.32,48.67 96.56,45.92 97.81,43.17 98.95,40.31 100.08,37.44 100.98,34.25 101.89,31.06 102.25,27.91 102.61,24.76 102.58,21.68 102.55,18.59 102.49,15.84 102.43,13.09 102.29,10.24 102.16,7.39 101.85,5.14 101.55,2.89 100.84,0.19 100.13,-2.51 99.33,-4.52 98.54,-6.53 97.70,-8.43 96.87,-10.33 95.56,-11.76 94.25,-13.19 93.14,-14.56 92.04,-15.94 91.03,-16.81 90.03,-17.69 88.44,-18.68 86.85,-19.67 84.56,-20.31 82.28,-20.95 79.53,-21.59 76.79,-22.22 73.97,-22.81 71.14,-23.40 67.11,-23.93 63.08,-24.45 59.01,-24.80 54.94,-25.15 51.53,-25.11 48.11,-25.07 44.58,-25.01 41.05,-24.94 38.17,-24.84 35.28,-24.73 33.02,-24.55 30.77,-24.37 29.06,-24.14 27.35,-23.91 25.58,-23.32 23.80,-22.74 22.63,-22.50 21.47,-22.27 20.05,-21.43 18.62,-20.59 17.00,-19.35 15.38,-18.11 14.22,-17.29 13.07,-16.47 11.86,-15.13 10.65,-13.79 9.54,-12.51 8.44,-11.23 7.59,-10.19 6.74,-9.15 5.72,-7.61 4.69,-6.07 3.83,-4.28 2.96,-2.50 2.59,-0.97 2.21,0.55 2.11,0.81 2.01,1.06 1.86,1.29 1.70,1.51 1.49,1.70 1.29,1.88 1.04,2.01 0.80,2.13 0.53,2.20 0.26,2.26 -0.00,2.26 -0.28,2.26 -0.54,2.19 -0.81,2.13 -1.06,2.00 -1.30,1.87 -1.50,1.69 -1.71,1.50 -1.86,1.28 -2.02,1.05 -2.12,0.79 -2.21,0.53 -2.25,0.26 -2.28,-0.00 -2.24,-0.28 -2.21,-0.55 -2.21,-0.55 L -2.21,-0.55 Z"/></g><g transform="translate(106.50633196168417 111.91744286212338) rotate(0 2.6666717529296875 1.9999847412109375)" stroke="none"><path fill="#000000" d="M 0.84,-2.52 Q 0.84,-2.52 2.07,-2.10 3.29,-1.67 4.26,-0.86 5.22,-0.05 6.38,0.96 7.53,1.98 7.48,3.77 7.43,5.55 6.80,6.49 6.17,7.42 5.10,7.79 4.04,8.16 2.58,7.94 1.12,7.72 0.14,7.21 -0.84,6.70 -1.72,5.67 -2.60,4.65 -0.28,3.63 2.02,2.61 1.52,2.78 1.02,2.96 0.50,2.96 -0.02,2.97 -0.52,2.80 -1.03,2.64 -1.45,2.33 -1.87,2.01 -2.18,1.58 -2.48,1.14 -2.62,0.63 -2.77,0.13 -2.75,-0.39 -2.72,-0.92 -2.53,-1.41 -2.34,-1.90 -2.00,-2.31 -1.67,-2.72 -1.22,-2.99 -0.77,-3.27 -0.25,-3.39 0.25,-3.51 0.78,-3.46 1.31,-3.41 1.79,-3.19 2.27,-2.97 2.66,-2.61 3.04,-2.25 3.30,-1.79 3.55,-1.32 3.64,-0.80 3.73,-0.28 3.65,0.23 3.57,0.75 3.33,1.22 3.08,1.69 2.70,2.06 2.32,2.42 1.85,2.65 1.37,2.88 0.84,2.94 0.32,3.00 -0.19,2.89 -0.70,2.79 -1.16,2.52 -1.62,2.25 -1.96,1.85 -2.31,1.45 -2.51,0.96 -2.71,0.47 -2.74,-0.04 -2.78,-0.57 -2.64,-1.08 -2.50,-1.59 -2.21,-2.03 -1.92,-2.47 -1.50,-2.80 -1.08,-3.12 -1.09,-3.12 -1.09,-3.12 0.86,-0.31 2.82,2.50 2.94,3.56 3.06,4.63 2.18,3.92 1.30,3.21 0.22,2.86 -0.84,2.52 -1.13,2.38 -1.42,2.24 -1.66,2.04 -1.91,1.84 -2.10,1.58 -2.30,1.33 -2.42,1.03 -2.55,0.74 -2.60,0.42 -2.65,0.10 -2.63,-0.21 -2.60,-0.53 -2.50,-0.83 -2.40,-1.13 -2.23,-1.41 -2.06,-1.68 -1.82,-1.90 -1.59,-2.12 -1.32,-2.28 -1.04,-2.44 -0.73,-2.53 -0.42,-2.62 -0.10,-2.63 0.21,-2.65 0.52,-2.58 0.84,-2.52 0.84,-2.52 L 0.84,-2.52 Z"/></g><g transform="translate(55.83967546754354 95.91744286212338) rotate(0 4.6666717529296875 -1.333343505859375)" stroke="none"><path fill="#000000" d="M -1.85,-1.85 Q -1.85,-1.85 -0.66,-2.98 0.52,-4.10 1.59,-4.77 2.65,-5.44 3.68,-6.46 4.72,-7.48 6.39,-7.44 8.06,-7.40 9.01,-6.78 9.96,-6.15 10.34,-5.10 10.73,-4.05 10.85,-2.63 10.97,-1.22 11.29,0.66 11.61,2.56 11.01,3.63 10.40,4.69 9.27,5.14 8.14,5.60 5.74,5.14 3.34,4.68 1.92,4.03 0.51,3.37 0.00,3.21 -0.49,3.05 -0.92,2.74 -1.34,2.43 -1.65,1.99 -1.95,1.56 -2.10,1.06 -2.25,0.55 -2.23,0.02 -2.21,-0.50 -2.03,-0.99 -1.84,-1.49 -1.51,-1.90 -1.17,-2.30 -0.72,-2.58 -0.27,-2.86 0.23,-2.99 0.74,-3.11 1.27,-3.06 1.80,-3.01 2.28,-2.80 2.76,-2.59 3.15,-2.23 3.54,-1.87 3.80,-1.41 4.05,-0.95 4.15,-0.43 4.24,0.08 4.17,0.60 4.09,1.13 3.85,1.60 3.61,2.07 3.23,2.44 2.86,2.81 2.38,3.04 1.91,3.27 1.38,3.34 0.86,3.40 0.34,3.30 -0.17,3.19 -0.63,2.93 -1.08,2.66 -1.43,2.27 -1.78,1.87 -1.99,1.38 -2.19,0.90 -2.23,0.37 -2.27,-0.15 -2.13,-0.66 -2.00,-1.17 -1.71,-1.61 -1.42,-2.06 -1.01,-2.38 -0.59,-2.71 -0.09,-2.89 0.39,-3.07 0.92,-3.08 1.45,-3.08 1.45,-3.08 1.45,-3.08 3.98,-1.64 6.52,-0.19 6.30,0.86 6.08,1.91 5.50,-0.04 4.92,-1.99 5.90,-2.43 6.88,-2.86 5.47,-1.67 4.07,-0.49 2.96,0.68 1.85,1.85 1.60,2.05 1.35,2.24 1.07,2.37 0.78,2.50 0.47,2.56 0.15,2.62 -0.15,2.60 -0.47,2.58 -0.77,2.49 -1.07,2.39 -1.35,2.23 -1.62,2.06 -1.84,1.84 -2.06,1.62 -2.23,1.34 -2.39,1.07 -2.49,0.77 -2.58,0.47 -2.60,0.15 -2.62,-0.15 -2.56,-0.47 -2.50,-0.78 -2.37,-1.07 -2.24,-1.36 -2.05,-1.60 -1.85,-1.85 -1.85,-1.85 L -1.85,-1.85 Z"/></g><g transform="translate(65.17301897340292 318.58412987384213) rotate(0 41.333343505859375 1.999969482421875)" stroke="none"><path fill="#000000" d="M -2.18,-1.45 Q -2.18,-1.45 -1.41,-2.60 -0.63,-3.74 0.13,-4.74 0.90,-5.73 2.23,-6.73 3.55,-7.72 5.36,-8.92 7.18,-10.11 8.16,-11.04 9.14,-11.97 10.20,-12.49 11.27,-13.01 12.69,-13.79 14.12,-14.57 15.45,-14.71 16.77,-14.85 18.14,-15.45 19.52,-16.05 21.16,-16.23 22.80,-16.41 24.47,-16.95 26.15,-17.48 27.48,-17.57 28.81,-17.65 30.11,-17.66 31.42,-17.67 33.12,-17.58 34.83,-17.50 36.31,-17.46 37.80,-17.43 39.20,-17.41 40.59,-17.39 41.96,-17.38 43.32,-17.37 44.66,-17.36 46.01,-17.35 47.34,-17.34 48.68,-17.34 50.02,-17.33 51.35,-17.33 53.07,-17.26 54.79,-17.19 56.30,-17.18 57.81,-17.16 59.52,-16.73 61.24,-16.30 62.43,-16.18 63.61,-16.05 65.27,-16.05 66.92,-16.04 68.29,-16.10 69.66,-16.16 71.72,-15.64 73.77,-15.12 75.22,-14.49 76.66,-13.85 78.06,-13.20 79.45,-12.55 81.00,-11.17 82.54,-9.78 83.17,-8.67 83.79,-7.57 84.59,-6.09 85.39,-4.62 85.62,-2.89 85.84,-1.17 85.89,0.23 85.94,1.64 85.96,2.99 85.98,4.34 86.00,5.67 86.01,7.01 85.99,8.45 85.97,9.90 85.29,11.40 84.60,12.90 83.64,13.57 82.68,14.25 81.10,15.83 79.53,17.42 77.83,17.94 76.13,18.46 75.03,18.73 73.93,18.99 72.57,19.08 71.21,19.16 69.91,19.16 68.61,19.15 66.14,19.62 63.66,20.09 61.82,20.07 59.98,20.05 58.32,20.30 56.65,20.56 54.53,20.64 52.42,20.73 50.38,20.72 48.33,20.70 46.32,20.66 44.30,20.61 42.68,20.65 41.06,20.68 39.61,20.73 38.15,20.77 36.76,20.81 35.38,20.86 34.02,20.89 32.67,20.93 31.32,20.96 29.98,20.99 28.64,21.02 27.31,21.04 25.97,21.06 24.64,21.08 23.30,21.10 21.97,21.12 20.23,21.07 18.49,21.02 17.01,20.61 15.52,20.21 13.20,19.59 10.87,18.97 9.22,17.95 7.57,16.93 6.53,15.92 5.49,14.91 4.38,13.33 3.27,11.74 1.68,10.18 0.08,8.62 -0.39,6.28 -0.88,3.93 -1.34,3.59 -1.80,3.25 -1.95,2.78 -2.10,2.30 -2.09,1.81 -2.08,1.31 -1.91,0.84 -1.74,0.37 -1.43,-0.01 -1.12,-0.40 -0.71,-0.67 -0.29,-0.94 0.18,-1.07 0.67,-1.19 1.16,-1.16 1.66,-1.12 2.12,-0.93 2.58,-0.73 2.95,-0.40 3.32,-0.07 3.57,0.35 3.82,0.78 3.92,1.27 4.02,1.76 3.95,2.25 3.89,2.74 3.67,3.19 3.46,3.64 3.11,3.99 2.76,4.35 2.31,4.57 1.87,4.80 1.37,4.87 0.88,4.94 0.39,4.85 -0.09,4.76 -0.52,4.52 -0.96,4.28 -1.29,3.91 -1.63,3.54 -1.83,3.09 -2.03,2.63 -2.08,2.13 -2.12,1.64 -2.00,1.15 -1.89,0.67 -1.62,0.25 -1.36,-0.16 -0.97,-0.48 -0.59,-0.79 -0.12,-0.97 0.34,-1.15 0.83,-1.16 1.33,-1.18 1.81,-1.04 2.29,-0.89 2.69,-0.61 3.10,-0.32 3.39,0.07 3.69,0.47 3.69,0.47 3.69,0.47 4.11,2.38 4.53,4.28 5.50,5.85 6.48,7.43 7.33,8.15 8.19,8.87 8.90,9.91 9.62,10.95 10.55,12.45 11.48,13.95 12.84,14.53 14.19,15.11 16.38,15.71 18.58,16.30 20.27,16.25 21.97,16.20 23.30,16.22 24.63,16.24 25.97,16.26 27.30,16.28 28.64,16.31 29.98,16.33 31.32,16.36 32.66,16.39 34.02,16.43 35.37,16.46 36.75,16.50 38.13,16.53 39.58,16.57 41.03,16.60 42.63,16.61 44.24,16.61 46.20,16.51 48.17,16.40 50.08,16.24 52.00,16.07 53.77,15.81 55.55,15.54 57.64,14.97 59.73,14.39 61.31,14.23 62.89,14.07 63.95,13.92 65.00,13.77 66.69,13.25 68.38,12.74 69.57,12.67 70.75,12.60 72.17,12.43 73.58,12.26 75.42,11.70 77.26,11.14 78.31,10.30 79.35,9.45 79.33,8.23 79.31,7.01 79.33,5.68 79.34,4.35 79.35,3.03 79.37,1.71 79.36,0.45 79.36,-0.79 79.37,-1.95 79.37,-3.10 78.17,-4.81 76.97,-6.51 76.20,-7.27 75.44,-8.02 74.17,-8.69 72.90,-9.36 71.26,-9.94 69.62,-10.51 68.17,-10.61 66.72,-10.70 64.87,-10.89 63.02,-11.08 61.48,-11.29 59.94,-11.49 58.85,-11.83 57.76,-12.16 56.27,-12.15 54.79,-12.13 53.07,-12.06 51.35,-11.99 50.02,-11.99 48.68,-11.98 47.35,-11.98 46.01,-11.97 44.66,-11.96 43.32,-11.95 41.96,-11.94 40.60,-11.93 39.21,-11.90 37.82,-11.88 36.34,-11.83 34.87,-11.78 33.22,-11.68 31.57,-11.57 30.38,-11.51 29.20,-11.46 27.70,-11.31 26.19,-11.16 24.69,-10.65 23.19,-10.15 21.66,-10.07 20.13,-9.99 17.76,-9.42 15.39,-8.85 14.39,-8.20 13.40,-7.55 12.35,-6.92 11.30,-6.29 9.88,-5.58 8.46,-4.86 7.54,-4.12 6.62,-3.38 5.16,-2.11 3.70,-0.85 2.94,0.30 2.18,1.45 1.97,1.69 1.77,1.93 1.51,2.11 1.25,2.30 0.96,2.42 0.66,2.53 0.35,2.58 0.04,2.62 -0.27,2.59 -0.58,2.55 -0.88,2.45 -1.18,2.34 -1.44,2.16 -1.70,1.99 -1.92,1.75 -2.13,1.52 -2.28,1.24 -2.43,0.96 -2.51,0.66 -2.59,0.35 -2.60,0.04 -2.60,-0.27 -2.53,-0.58 -2.46,-0.89 -2.32,-1.17 -2.18,-1.45 -2.18,-1.45 L -2.18,-1.45 Z"/></g><g transform="translate(103.83967546754354 319.9174428621234) rotate(0 2 0.66668701171875)" stroke="none"><path fill="#000000" d="M -0.83,-2.50 Q -0.83,-2.50 0.56,-2.88 1.97,-3.26 3.36,-2.86 4.76,-2.46 5.11,-0.08 5.47,2.29 4.33,3.69 3.18,5.09 0.14,2.99 -2.89,0.90 -2.90,0.41 -2.92,-0.06 -2.78,-0.53 -2.63,-1.00 -2.35,-1.39 -2.07,-1.79 -1.67,-2.07 -1.27,-2.36 -0.81,-2.50 -0.34,-2.65 0.14,-2.64 0.62,-2.62 1.08,-2.46 1.54,-2.29 1.92,-1.98 2.30,-1.68 2.56,-1.27 2.83,-0.86 2.95,-0.38 3.06,0.08 3.03,0.57 2.99,1.05 2.79,1.50 2.60,1.95 2.28,2.31 1.95,2.68 1.53,2.92 1.10,3.16 0.62,3.25 0.15,3.34 -0.33,3.28 -0.81,3.21 -1.25,3.00 -1.69,2.78 -2.03,2.44 -2.38,2.09 -2.59,1.65 -2.81,1.22 -2.88,0.73 -2.94,0.25 -2.85,-0.22 -2.76,-0.70 -2.52,-1.12 -2.28,-1.55 -1.92,-1.87 -1.56,-2.20 -1.11,-2.39 -0.66,-2.59 -0.18,-2.63 0.30,-2.67 0.77,-2.55 1.25,-2.43 1.66,-2.17 2.07,-1.91 2.38,-1.53 2.68,-1.15 2.85,-0.69 3.02,-0.23 3.02,-0.23 3.02,-0.23 2.46,-0.63 1.91,-1.03 2.27,0.34 2.62,1.73 1.73,2.12 0.83,2.50 0.52,2.56 0.21,2.63 -0.10,2.61 -0.42,2.60 -0.73,2.51 -1.03,2.42 -1.31,2.26 -1.58,2.10 -1.81,1.88 -2.04,1.66 -2.21,1.39 -2.38,1.13 -2.48,0.82 -2.58,0.52 -2.61,0.20 -2.63,-0.10 -2.58,-0.42 -2.53,-0.73 -2.41,-1.02 -2.28,-1.32 -2.09,-1.57 -1.90,-1.83 -1.65,-2.03 -1.40,-2.23 -1.12,-2.36 -0.83,-2.50 -0.83,-2.50 L -0.83,-2.50 Z"/></g><g transform="translate(105.17301897340292 318.58412987384213) rotate(0 0 -36.00001525878906)" stroke="none"><path fill="#000000" d="M -2.68,0 Q -2.68,0 -2.69,-1.15 -2.71,-2.3 -2.77,-3.92 -2.84,-5.55 -2.90,-6.93 -2.95,-8.32 -3.00,-9.66 -3.05,-11.01 -3.09,-12.34 -3.12,-13.68 -3.16,-15.01 -3.19,-16.34 -3.21,-17.68 -3.24,-19.01 -3.23,-20.73 -3.23,-22.44 -3.24,-24.01 -3.25,-25.57 -3.27,-26.95 -3.29,-28.32 -3.30,-29.67 -3.32,-31.01 -3.33,-32.34 -3.35,-33.68 -3.36,-35.01 -3.37,-36.34 -3.38,-37.68 -3.39,-39.01 -3.40,-40.34 -3.40,-41.68 -3.41,-43.01 -3.42,-44.34 -3.39,-46.22 -3.36,-48.10 -3.33,-49.22 -3.30,-50.34 -3.27,-52.33 -3.24,-54.32 -3.25,-55.94 -3.26,-57.55 -3.27,-58.94 -3.29,-60.32 -3.31,-61.66 -3.32,-63.01 -3.34,-64.34 -3.35,-65.68 -3.36,-67.01 -3.37,-68.34 -3.38,-69.96 -3.39,-71.58 -3.30,-72.12 -3.21,-72.66 -2.96,-73.15 -2.70,-73.63 -2.30,-74.01 -1.90,-74.39 -1.40,-74.62 -0.90,-74.85 -0.36,-74.91 0.18,-74.97 0.72,-74.85 1.25,-74.73 1.72,-74.45 2.19,-74.16 2.55,-73.75 2.91,-73.33 3.11,-72.82 3.31,-72.31 3.34,-71.76 3.37,-71.21 3.22,-70.68 3.08,-70.15 2.77,-69.69 2.46,-69.24 2.02,-68.91 1.59,-68.57 1.06,-68.40 0.54,-68.22 -0.00,-68.22 -0.55,-68.22 -1.07,-68.40 -1.59,-68.58 -2.02,-68.91 -2.46,-69.24 -2.77,-69.70 -3.08,-70.15 -3.23,-70.68 -3.37,-71.21 -3.34,-71.76 -3.31,-72.31 -3.11,-72.82 -2.91,-73.33 -2.55,-73.75 -2.19,-74.17 -1.72,-74.45 -1.25,-74.73 -0.71,-74.85 -0.18,-74.97 0.36,-74.91 0.90,-74.85 1.40,-74.62 1.90,-74.39 2.30,-74.01 2.70,-73.63 2.96,-73.15 3.21,-72.66 3.30,-72.12 3.39,-71.58 3.39,-71.58 3.39,-71.58 3.38,-69.96 3.37,-68.34 3.36,-67.01 3.35,-65.68 3.34,-64.34 3.32,-63.01 3.31,-61.66 3.29,-60.32 3.27,-58.94 3.26,-57.55 3.25,-55.94 3.24,-54.32 3.27,-52.33 3.30,-50.34 3.33,-49.22 3.36,-48.10 3.39,-46.22 3.42,-44.34 3.41,-43.01 3.40,-41.68 3.40,-40.34 3.39,-39.01 3.38,-37.68 3.37,-36.34 3.36,-35.01 3.35,-33.68 3.33,-32.34 3.32,-31.01 3.30,-29.67 3.29,-28.32 3.27,-26.95 3.25,-25.57 3.24,-24.01 3.23,-22.44 3.23,-20.73 3.24,-19.01 3.21,-17.68 3.19,-16.34 3.16,-15.01 3.12,-13.68 3.09,-12.34 3.05,-11.01 3.00,-9.66 2.95,-8.32 2.90,-6.93 2.84,-5.55 2.77,-3.92 2.71,-2.3 2.69,-1.15 2.68,0 2.64,0.32 2.60,0.64 2.48,0.94 2.37,1.24 2.19,1.51 2.00,1.77 1.76,1.99 1.52,2.20 1.23,2.35 0.95,2.50 0.63,2.58 0.32,2.66 -0.00,2.66 -0.32,2.66 -0.63,2.58 -0.95,2.50 -1.23,2.35 -1.52,2.20 -1.76,1.99 -2.00,1.77 -2.19,1.51 -2.37,1.24 -2.48,0.94 -2.60,0.64 -2.64,0.32 -2.68,-0.00 -2.68,-0.00 L -2.68,0 Z"/></g><g transform="translate(95.83967546754354 254.584099356264) rotate(0 10 -4.666656494140625)" stroke="none"><path fill="#000000" d="M -2.53,-0.84 Q -2.53,-0.84 -2.10,-2.07 -1.68,-3.30 -0.87,-4.26 -0.06,-5.22 0.78,-6.21 1.63,-7.19 2.58,-8.78 3.52,-10.37 4.65,-11.67 5.78,-12.98 7.70,-12.94 9.61,-12.90 11.40,-11.99 13.20,-11.08 13.90,-9.96 14.60,-8.84 15.40,-8.00 16.20,-7.16 17.44,-5.87 18.68,-4.59 19.98,-3.14 21.28,-1.68 21.69,-1.35 22.11,-1.02 22.39,-0.58 22.68,-0.13 22.80,0.37 22.93,0.88 22.89,1.41 22.85,1.93 22.64,2.42 22.43,2.90 22.08,3.30 21.73,3.69 21.27,3.95 20.81,4.21 20.29,4.31 19.77,4.41 19.25,4.34 18.73,4.27 18.25,4.04 17.78,3.80 17.40,3.43 17.03,3.06 16.80,2.59 16.56,2.11 16.49,1.59 16.42,1.07 16.51,0.55 16.61,0.03 16.87,-0.42 17.13,-0.88 17.52,-1.23 17.92,-1.59 18.40,-1.80 18.89,-2.01 19.41,-2.05 19.94,-2.09 20.45,-1.97 20.96,-1.84 21.41,-1.56 21.86,-1.27 22.19,-0.86 22.52,-0.45 22.70,0.04 22.88,0.53 22.90,1.06 22.91,1.59 22.76,2.09 22.61,2.60 22.30,3.03 21.99,3.46 21.56,3.76 21.13,4.07 20.63,4.23 20.12,4.38 19.60,4.37 19.07,4.36 18.57,4.18 18.08,3.99 18.08,3.99 18.08,3.99 16.71,2.61 15.34,1.22 14.02,-0.07 12.71,-1.38 11.37,-2.81 10.03,-4.24 9.05,-5.32 8.07,-6.41 7.24,-5.59 6.40,-4.77 5.52,-3.91 4.63,-3.06 3.92,-2.17 3.21,-1.29 2.87,-0.22 2.53,0.84 2.39,1.13 2.25,1.42 2.05,1.67 1.84,1.92 1.59,2.11 1.33,2.31 1.03,2.43 0.74,2.56 0.42,2.61 0.10,2.66 -0.21,2.64 -0.53,2.61 -0.83,2.51 -1.14,2.41 -1.41,2.23 -1.68,2.06 -1.90,1.83 -2.13,1.60 -2.29,1.32 -2.45,1.04 -2.54,0.73 -2.63,0.42 -2.64,0.10 -2.65,-0.21 -2.59,-0.52 -2.53,-0.84 -2.53,-0.84 L -2.53,-0.84 Z"/></g><g transform="translate(65.17301897340292 307.9174428621234) rotate(0 0 -2.666656494140625)" stroke="none"><path fill="#000000" d="M -2.37,0 Q -2.37,0 -2.41,-1.15 -2.45,-2.3 0.03,-2.00 2.52,-1.71 2.45,-1.31 2.38,-0.91 2.19,-0.55 2.00,-0.19 1.71,0.08 1.41,0.36 1.04,0.53 0.67,0.71 0.26,0.75 -0.13,0.79 -0.53,0.71 -0.93,0.62 -1.28,0.41 -1.63,0.20 -1.89,-0.10 -2.16,-0.41 -2.31,-0.79 -2.46,-1.17 -2.48,-1.58 -2.50,-1.99 -2.39,-2.38 -2.28,-2.77 -2.05,-3.11 -1.83,-3.45 -1.50,-3.69 -1.18,-3.94 -0.79,-4.07 -0.40,-4.20 0.00,-4.20 0.40,-4.20 0.79,-4.07 1.18,-3.94 1.50,-3.69 1.83,-3.45 2.05,-3.11 2.28,-2.77 2.39,-2.38 2.50,-1.99 2.48,-1.58 2.46,-1.17 2.31,-0.79 2.16,-0.41 1.89,-0.10 1.63,0.20 1.28,0.41 0.93,0.62 0.53,0.71 0.13,0.79 -0.26,0.75 -0.67,0.71 -1.04,0.53 -1.41,0.36 -1.71,0.08 -2.00,-0.19 -2.19,-0.55 -2.38,-0.91 -2.45,-1.31 -2.52,-1.71 -2.52,-1.71 -2.52,-1.71 -0.03,-2.00 2.45,-2.3 2.41,-1.15 2.37,0 2.34,0.28 2.30,0.56 2.20,0.83 2.10,1.10 1.94,1.34 1.77,1.57 1.56,1.76 1.35,1.95 1.09,2.08 0.84,2.22 0.56,2.29 0.28,2.36 -0.00,2.36 -0.28,2.36 -0.56,2.29 -0.84,2.22 -1.09,2.08 -1.35,1.95 -1.56,1.76 -1.77,1.57 -1.94,1.34 -2.10,1.10 -2.20,0.83 -2.30,0.56 -2.34,0.28 -2.37,-0.00 -2.37,-0.00 L -2.37,0 Z"/></g><g transform="translate(66.50633196168417 289.25075585040463) rotate(0 0 -4)" stroke="none"><path fill="#000000" d="M -2.33,0 Q -2.33,0 -2.38,-1.15 -2.42,-2.3 -2.52,-3.92 -2.62,-5.55 -2.66,-6.25 -2.70,-6.95 -2.66,-7.28 -2.62,-7.60 -2.51,-7.91 -2.39,-8.21 -2.20,-8.48 -2.02,-8.75 -1.78,-8.96 -1.53,-9.18 -1.24,-9.33 -0.95,-9.48 -0.64,-9.56 -0.32,-9.64 0.00,-9.64 0.32,-9.64 0.64,-9.56 0.95,-9.48 1.24,-9.33 1.53,-9.18 1.78,-8.96 2.02,-8.75 2.20,-8.48 2.39,-8.21 2.51,-7.91 2.62,-7.60 2.66,-7.28 2.70,-6.95 2.53,-4.95 2.35,-2.95 2.29,-2.58 2.23,-2.20 2.05,-1.86 1.87,-1.53 1.59,-1.26 1.32,-1.00 0.97,-0.84 0.63,-0.68 0.25,-0.64 -0.12,-0.60 -0.50,-0.68 -0.87,-0.76 -1.19,-0.96 -1.52,-1.16 -1.77,-1.45 -2.01,-1.74 -2.16,-2.09 -2.30,-2.45 -2.32,-2.83 -2.34,-3.21 -2.24,-3.58 -2.13,-3.94 -1.92,-4.26 -1.71,-4.57 -1.40,-4.80 -1.10,-5.04 -0.74,-5.16 -0.38,-5.28 0.00,-5.28 0.38,-5.28 0.74,-5.16 1.10,-5.04 1.40,-4.80 1.71,-4.57 1.92,-4.26 2.13,-3.94 2.24,-3.57 2.34,-3.21 2.32,-2.83 2.30,-2.45 2.16,-2.09 2.01,-1.74 1.77,-1.45 1.52,-1.16 1.19,-0.96 0.87,-0.76 0.49,-0.68 0.12,-0.60 -0.25,-0.64 -0.63,-0.68 -0.97,-0.84 -1.32,-1.00 -1.60,-1.26 -1.87,-1.53 -2.05,-1.86 -2.23,-2.20 -2.29,-2.58 -2.35,-2.95 -2.35,-2.95 -2.35,-2.95 -2.53,-4.95 -2.70,-6.95 -2.66,-7.28 -2.62,-7.60 -2.51,-7.91 -2.39,-8.21 -2.20,-8.48 -2.02,-8.75 -1.78,-8.96 -1.53,-9.18 -1.24,-9.33 -0.95,-9.48 -0.64,-9.56 -0.32,-9.64 -0.00,-9.64 0.32,-9.64 0.64,-9.56 0.95,-9.48 1.24,-9.33 1.53,-9.18 1.78,-8.96 2.02,-8.75 2.20,-8.48 2.39,-8.21 2.51,-7.91 2.62,-7.60 2.66,-7.28 2.70,-6.95 2.66,-6.25 2.62,-5.55 2.52,-3.92 2.42,-2.3 2.38,-1.15 2.33,0 2.30,0.27 2.26,0.55 2.16,0.82 2.06,1.08 1.90,1.31 1.74,1.55 1.53,1.73 1.32,1.92 1.07,2.05 0.82,2.18 0.55,2.25 0.28,2.32 -0.00,2.32 -0.28,2.32 -0.55,2.25 -0.82,2.18 -1.07,2.05 -1.32,1.92 -1.53,1.73 -1.74,1.54 -1.90,1.31 -2.06,1.08 -2.16,0.82 -2.26,0.55 -2.30,0.27 -2.33,-0.00 -2.33,-0.00 L -2.33,0 Z"/></g><g transform="translate(66.50633196168417 267.9174428621234) rotate(0 0 -4.6666717529296875)" stroke="none"><path fill="#000000" d="M -2.44,0 Q -2.44,0 -2.43,-1.53 -2.41,-3.06 -2.49,-5.96 -2.57,-8.87 -2.50,-9.28 -2.44,-9.69 -2.24,-10.06 -2.05,-10.43 -1.74,-10.71 -1.44,-11.00 -1.06,-11.17 -0.68,-11.35 -0.27,-11.39 0.13,-11.44 0.54,-11.35 0.95,-11.26 1.31,-11.05 1.66,-10.83 1.93,-10.51 2.20,-10.20 2.36,-9.81 2.51,-9.42 2.53,-9.01 2.56,-8.59 2.44,-8.19 2.33,-7.79 2.10,-7.44 1.86,-7.10 1.53,-6.84 1.20,-6.59 0.81,-6.46 0.41,-6.33 -0.00,-6.33 -0.41,-6.33 -0.81,-6.46 -1.20,-6.59 -1.53,-6.84 -1.87,-7.10 -2.10,-7.44 -2.33,-7.79 -2.44,-8.19 -2.56,-8.59 -2.53,-9.01 -2.51,-9.42 -2.36,-9.81 -2.20,-10.20 -1.93,-10.51 -1.66,-10.83 -1.30,-11.05 -0.95,-11.26 -0.54,-11.35 -0.13,-11.44 0.27,-11.39 0.68,-11.35 1.06,-11.17 1.44,-11.00 1.74,-10.71 2.05,-10.43 2.24,-10.06 2.44,-9.69 2.50,-9.28 2.57,-8.87 2.57,-8.87 2.57,-8.87 2.49,-5.96 2.41,-3.06 2.43,-1.53 2.44,0 2.40,0.29 2.37,0.58 2.26,0.86 2.16,1.13 1.99,1.37 1.82,1.62 1.60,1.81 1.38,2.01 1.12,2.14 0.86,2.28 0.58,2.35 0.29,2.42 -0.00,2.42 -0.29,2.42 -0.58,2.35 -0.86,2.28 -1.12,2.14 -1.38,2.01 -1.60,1.81 -1.82,1.62 -1.99,1.37 -2.16,1.13 -2.26,0.86 -2.37,0.58 -2.40,0.29 -2.44,-0.00 -2.44,-0.00 L -2.44,0 Z"/></g><g transform="translate(66.50633196168417 241.25075585040463) rotate(0 0 -1.3333282470703125)" stroke="none"><path fill="#000000" d="M 2.12,-0.66 Q 2.12,-0.66 2.15,-0.13 2.18,0.40 1.96,0.88 1.74,1.36 1.32,1.69 0.91,2.02 0.38,2.12 -0.13,2.21 -0.64,2.05 -1.14,1.90 -1.52,1.52 -1.90,1.14 -2.05,0.64 -2.21,0.13 -2.12,-0.38 -2.02,-0.91 -1.69,-1.32 -1.36,-1.74 -0.88,-1.96 -0.39,-2.18 0.13,-2.15 0.66,-2.11 1.11,-1.84 1.57,-1.56 1.84,-1.11 L 2.12,-0.66 Z"/></g><g transform="translate(149.17301897340292 313.25075585040463) rotate(0 0 -4)" stroke="none"><path fill="#000000" d="M -2.33,0 Q -2.33,0 -2.38,-1.15 -2.42,-2.3 -2.52,-3.92 -2.62,-5.55 -2.66,-6.25 -2.70,-6.95 -2.66,-7.28 -2.62,-7.60 -2.51,-7.91 -2.39,-8.21 -2.20,-8.48 -2.02,-8.75 -1.78,-8.96 -1.53,-9.18 -1.24,-9.33 -0.95,-9.48 -0.64,-9.56 -0.32,-9.64 0.00,-9.64 0.32,-9.64 0.64,-9.56 0.95,-9.48 1.24,-9.33 1.53,-9.18 1.78,-8.96 2.02,-8.75 2.20,-8.48 2.39,-8.21 2.51,-7.91 2.62,-7.60 2.66,-7.28 2.70,-6.95 2.53,-4.95 2.35,-2.95 2.29,-2.58 2.23,-2.20 2.05,-1.86 1.87,-1.53 1.59,-1.26 1.32,-1.00 0.97,-0.84 0.63,-0.68 0.25,-0.64 -0.12,-0.60 -0.50,-0.68 -0.87,-0.76 -1.19,-0.96 -1.52,-1.16 -1.77,-1.45 -2.01,-1.74 -2.16,-2.09 -2.30,-2.45 -2.32,-2.83 -2.34,-3.21 -2.24,-3.58 -2.13,-3.94 -1.92,-4.26 -1.71,-4.57 -1.40,-4.80 -1.10,-5.04 -0.74,-5.16 -0.38,-5.28 0.00,-5.28 0.38,-5.28 0.74,-5.16 1.10,-5.04 1.40,-4.80 1.71,-4.57 1.92,-4.26 2.13,-3.94 2.24,-3.57 2.34,-3.21 2.32,-2.83 2.30,-2.45 2.16,-2.09 2.01,-1.74 1.77,-1.45 1.52,-1.16 1.19,-0.96 0.87,-0.76 0.49,-0.68 0.12,-0.60 -0.25,-0.64 -0.63,-0.68 -0.97,-0.84 -1.32,-1.00 -1.60,-1.26 -1.87,-1.53 -2.05,-1.86 -2.23,-2.20 -2.29,-2.58 -2.35,-2.95 -2.35,-2.95 -2.35,-2.95 -2.53,-4.95 -2.70,-6.95 -2.66,-7.28 -2.62,-7.60 -2.51,-7.91 -2.39,-8.21 -2.20,-8.48 -2.02,-8.75 -1.78,-8.96 -1.53,-9.18 -1.24,-9.33 -0.95,-9.48 -0.64,-9.56 -0.32,-9.64 -0.00,-9.64 0.32,-9.64 0.64,-9.56 0.95,-9.48 1.24,-9.33 1.53,-9.18 1.78,-8.96 2.02,-8.75 2.20,-8.48 2.39,-8.21 2.51,-7.91 2.62,-7.60 2.66,-7.28 2.70,-6.95 2.66,-6.25 2.62,-5.55 2.52,-3.92 2.42,-2.3 2.38,-1.15 2.33,0 2.30,0.27 2.26,0.55 2.16,0.82 2.06,1.08 1.90,1.31 1.74,1.55 1.53,1.73 1.32,1.92 1.07,2.05 0.82,2.18 0.55,2.25 0.28,2.32 -0.00,2.32 -0.28,2.32 -0.55,2.25 -0.82,2.18 -1.07,2.05 -1.32,1.92 -1.53,1.73 -1.74,1.54 -1.90,1.31 -2.06,1.08 -2.16,0.82 -2.26,0.55 -2.30,0.27 -2.33,-0.00 -2.33,-0.00 L -2.33,0 Z"/></g><g transform="translate(147.83970598512167 293.25075585040463) rotate(0 0 -2.666656494140625)" stroke="none"><path fill="#000000" d="M -2.37,0 Q -2.37,0 -2.41,-1.15 -2.45,-2.3 0.03,-2.00 2.52,-1.71 2.45,-1.31 2.38,-0.91 2.19,-0.55 2.00,-0.19 1.71,0.08 1.41,0.36 1.04,0.53 0.67,0.71 0.26,0.75 -0.13,0.79 -0.53,0.71 -0.93,0.62 -1.28,0.41 -1.63,0.20 -1.89,-0.10 -2.16,-0.41 -2.31,-0.79 -2.46,-1.17 -2.48,-1.58 -2.50,-1.99 -2.39,-2.38 -2.28,-2.77 -2.05,-3.11 -1.83,-3.45 -1.50,-3.69 -1.18,-3.94 -0.79,-4.07 -0.40,-4.20 0.00,-4.20 0.40,-4.20 0.79,-4.07 1.18,-3.94 1.50,-3.69 1.83,-3.45 2.05,-3.11 2.28,-2.77 2.39,-2.38 2.50,-1.99 2.48,-1.58 2.46,-1.17 2.31,-0.79 2.16,-0.41 1.89,-0.10 1.63,0.20 1.28,0.41 0.93,0.62 0.53,0.71 0.13,0.79 -0.26,0.75 -0.67,0.71 -1.04,0.53 -1.41,0.36 -1.71,0.08 -2.00,-0.19 -2.19,-0.55 -2.38,-0.91 -2.45,-1.31 -2.52,-1.71 -2.52,-1.71 -2.52,-1.71 -0.03,-2.00 2.45,-2.3 2.41,-1.15 2.37,0 2.34,0.28 2.30,0.56 2.20,0.83 2.10,1.10 1.94,1.34 1.77,1.57 1.56,1.76 1.35,1.95 1.09,2.08 0.84,2.22 0.56,2.29 0.28,2.36 -0.00,2.36 -0.28,2.36 -0.56,2.29 -0.84,2.22 -1.09,2.08 -1.35,1.95 -1.56,1.76 -1.77,1.57 -1.94,1.34 -2.10,1.10 -2.20,0.83 -2.30,0.56 -2.34,0.28 -2.37,-0.00 -2.37,-0.00 L -2.37,0 Z"/></g><g transform="translate(147.83970598512167 271.9174428621234) rotate(0 0 -5.333343505859375)" stroke="none"><path fill="#000000" d="M -2.53,0 Q -2.53,0 -2.55,-1.15 -2.58,-2.3 -2.66,-3.92 -2.74,-5.55 -2.81,-7.77 -2.87,-9.99 -2.80,-10.45 -2.72,-10.91 -2.50,-11.32 -2.29,-11.73 -1.95,-12.05 -1.61,-12.37 -1.19,-12.57 -0.76,-12.77 -0.30,-12.82 0.15,-12.87 0.61,-12.77 1.06,-12.67 1.46,-12.43 1.86,-12.19 2.16,-11.83 2.46,-11.48 2.63,-11.04 2.81,-10.61 2.83,-10.15 2.86,-9.68 2.73,-9.23 2.61,-8.78 2.35,-8.40 2.08,-8.01 1.71,-7.73 1.34,-7.45 0.90,-7.30 0.46,-7.15 -0.00,-7.15 -0.46,-7.15 -0.90,-7.30 -1.34,-7.45 -1.71,-7.73 -2.08,-8.01 -2.35,-8.40 -2.61,-8.78 -2.73,-9.23 -2.86,-9.68 -2.83,-10.15 -2.81,-10.61 -2.63,-11.04 -2.46,-11.48 -2.16,-11.83 -1.86,-12.19 -1.46,-12.43 -1.06,-12.67 -0.60,-12.77 -0.15,-12.87 0.30,-12.82 0.77,-12.77 1.19,-12.57 1.61,-12.37 1.95,-12.05 2.29,-11.73 2.50,-11.32 2.72,-10.91 2.80,-10.45 2.87,-9.99 2.87,-9.99 2.87,-9.99 2.81,-7.77 2.74,-5.55 2.66,-3.92 2.58,-2.3 2.55,-1.15 2.53,0 2.49,0.30 2.45,0.60 2.35,0.89 2.24,1.17 2.06,1.42 1.89,1.67 1.66,1.88 1.43,2.08 1.16,2.22 0.89,2.36 0.60,2.44 0.30,2.51 -0.00,2.51 -0.30,2.51 -0.60,2.44 -0.89,2.36 -1.16,2.22 -1.43,2.08 -1.66,1.88 -1.89,1.67 -2.06,1.42 -2.24,1.17 -2.35,0.89 -2.45,0.60 -2.49,0.30 -2.53,-0.00 -2.53,-0.00 L -2.53,0 Z"/></g><g transform="translate(151.83970598512167 243.91744286212338) rotate(0 0.666656494140625 -2.6666717529296875)" stroke="none"><path fill="#000000" d="M -2.24,-0.74 Q -2.24,-0.74 -1.89,-1.90 -1.54,-3.06 0.66,-2.06 2.87,-1.06 2.70,-0.69 2.54,-0.33 2.26,-0.03 1.99,0.26 1.63,0.45 1.27,0.64 0.88,0.71 0.48,0.78 0.08,0.71 -0.31,0.65 -0.67,0.46 -1.03,0.28 -1.31,-0.01 -1.59,-0.30 -1.76,-0.66 -1.93,-1.03 -1.98,-1.43 -2.03,-1.83 -1.94,-2.23 -1.86,-2.62 -1.65,-2.97 -1.45,-3.32 -1.14,-3.58 -0.83,-3.85 -0.46,-4.00 -0.08,-4.15 0.31,-4.18 0.71,-4.20 1.10,-4.09 1.49,-3.99 1.83,-3.76 2.17,-3.54 2.41,-3.22 2.66,-2.90 2.79,-2.52 2.92,-2.13 2.93,-1.73 2.93,-1.33 2.80,-0.94 2.68,-0.56 2.43,-0.23 2.19,0.08 1.86,0.31 1.52,0.54 1.14,0.65 0.75,0.76 0.34,0.74 -0.05,0.72 -0.43,0.57 -0.80,0.43 -1.11,0.17 -1.42,-0.08 -1.64,-0.43 -1.85,-0.77 -1.94,-1.17 -2.03,-1.56 -1.98,-1.96 -1.94,-2.37 -1.94,-2.37 -1.94,-2.37 0.56,-1.95 3.08,-1.53 2.66,-0.39 2.24,0.74 2.12,1.00 2.00,1.26 1.82,1.48 1.64,1.70 1.41,1.87 1.18,2.05 0.92,2.16 0.66,2.27 0.37,2.32 0.09,2.36 -0.18,2.34 -0.47,2.32 -0.74,2.23 -1.01,2.14 -1.25,1.98 -1.49,1.83 -1.69,1.63 -1.89,1.42 -2.03,1.17 -2.17,0.92 -2.25,0.65 -2.33,0.38 -2.35,0.09 -2.36,-0.18 -2.30,-0.46 -2.24,-0.74 -2.24,-0.74 L -2.24,-0.74 Z"/></g><g transform="translate(67.83967546754354 234.584099356264) rotate(0 1.3333282470703125 -2.6666717529296875)" stroke="none"><path fill="#000000" d="M -2.27,-0.75 Q -2.27,-0.75 -1.87,-1.98 -1.47,-3.21 -0.69,-4.15 0.07,-5.08 1.66,-2.90 3.24,-0.72 2.99,-0.39 2.74,-0.06 2.41,0.17 2.07,0.40 1.67,0.51 1.28,0.63 0.86,0.61 0.45,0.59 0.07,0.44 -0.30,0.29 -0.62,0.02 -0.93,-0.23 -1.15,-0.58 -1.36,-0.93 -1.45,-1.33 -1.55,-1.73 -1.50,-2.14 -1.46,-2.55 -1.29,-2.93 -1.12,-3.30 -0.84,-3.60 -0.56,-3.90 -0.20,-4.10 0.15,-4.29 0.56,-4.36 0.96,-4.43 1.37,-4.37 1.78,-4.31 2.14,-4.12 2.51,-3.93 2.79,-3.63 3.08,-3.33 3.25,-2.96 3.43,-2.59 3.47,-2.18 3.52,-1.77 3.44,-1.37 3.35,-0.97 3.14,-0.61 2.93,-0.26 2.62,0.00 2.31,0.27 1.93,0.42 1.55,0.58 1.14,0.60 0.73,0.63 0.33,0.52 -0.06,0.41 -0.40,0.19 -0.74,-0.03 -0.99,-0.36 -1.25,-0.68 -1.38,-1.07 -1.51,-1.46 -1.52,-1.87 -1.52,-2.28 -1.39,-2.68 -1.26,-3.07 -1.26,-3.07 -1.26,-3.07 0.87,-2.22 3.00,-1.38 2.64,-0.31 2.27,0.75 2.14,1.01 2.02,1.27 1.84,1.50 1.65,1.72 1.42,1.89 1.19,2.07 0.93,2.18 0.66,2.29 0.38,2.34 0.09,2.39 -0.19,2.36 -0.47,2.34 -0.75,2.25 -1.02,2.16 -1.26,2.00 -1.51,1.85 -1.71,1.64 -1.91,1.43 -2.05,1.18 -2.20,0.93 -2.28,0.66 -2.36,0.38 -2.37,0.09 -2.38,-0.19 -2.32,-0.47 -2.27,-0.75 -2.27,-0.75 L -2.27,-0.75 Z"/></g><g transform="translate(89.17301897340292 219.91744286212338) rotate(0 3.3333282470703125 -0.6666717529296875)" stroke="none"><path fill="#000000" d="M -0.74,-2.24 Q -0.74,-2.24 0.39,-2.66 1.53,-3.07 3.30,-3.44 5.06,-3.81 5.38,-3.83 5.70,-3.85 6.01,-3.79 6.32,-3.74 6.61,-3.61 6.90,-3.48 7.15,-3.29 7.40,-3.09 7.60,-2.84 7.79,-2.59 7.92,-2.31 8.05,-2.02 8.11,-1.71 8.17,-1.39 8.15,-1.08 8.13,-0.76 8.04,-0.46 7.95,-0.16 7.78,0.11 7.62,0.38 7.40,0.60 7.18,0.83 6.90,0.99 6.63,1.16 6.33,1.25 6.03,1.35 4.46,1.61 2.89,1.87 2.49,1.89 2.09,1.92 1.71,1.81 1.33,1.70 1.00,1.48 0.67,1.26 0.43,0.94 0.19,0.63 0.06,0.25 -0.06,-0.12 -0.06,-0.51 -0.06,-0.91 0.06,-1.29 0.18,-1.67 0.42,-1.98 0.66,-2.30 0.99,-2.52 1.32,-2.75 1.70,-2.85 2.09,-2.96 2.48,-2.94 2.88,-2.92 3.25,-2.77 3.62,-2.63 3.92,-2.37 4.23,-2.11 4.43,-1.77 4.64,-1.43 4.72,-1.04 4.81,-0.65 4.77,-0.26 4.72,0.13 4.56,0.49 4.39,0.85 4.12,1.14 3.84,1.43 3.49,1.61 3.14,1.80 2.75,1.86 2.36,1.93 1.97,1.87 1.57,1.80 1.22,1.62 0.87,1.43 0.60,1.14 0.32,0.85 0.16,0.49 -0.00,0.13 -0.05,-0.25 -0.09,-0.65 -0.00,-1.04 0.07,-1.42 0.28,-1.77 0.48,-2.11 0.78,-2.36 1.09,-2.62 1.45,-2.77 1.82,-2.92 1.82,-2.92 1.82,-2.92 3.44,-3.36 5.06,-3.81 5.38,-3.83 5.70,-3.85 6.01,-3.79 6.32,-3.74 6.61,-3.61 6.90,-3.48 7.15,-3.29 7.40,-3.09 7.60,-2.84 7.79,-2.59 7.92,-2.31 8.05,-2.02 8.11,-1.71 8.17,-1.39 8.15,-1.08 8.13,-0.76 8.04,-0.46 7.95,-0.16 7.79,0.11 7.62,0.38 7.40,0.60 7.18,0.83 6.90,0.99 6.63,1.16 6.33,1.25 6.03,1.35 4.55,1.44 3.06,1.54 1.90,1.89 0.74,2.24 0.46,2.30 0.18,2.35 -0.09,2.34 -0.38,2.33 -0.65,2.25 -0.92,2.17 -1.17,2.03 -1.42,1.88 -1.62,1.69 -1.83,1.49 -1.98,1.25 -2.13,1.01 -2.22,0.74 -2.31,0.47 -2.33,0.18 -2.36,-0.09 -2.31,-0.37 -2.27,-0.65 -2.15,-0.92 -2.04,-1.18 -1.87,-1.41 -1.70,-1.63 -1.48,-1.81 -1.26,-1.99 -1.00,-2.12 -0.74,-2.24 -0.74,-2.24 L -0.74,-2.24 Z"/></g><g transform="translate(115.83967546754354 218.584099356264) rotate(0 4.6666717529296875 0)" stroke="none"><path fill="#000000" d="M 0,-2.53 Q 0,-2.53 1.15,-2.55 2.3,-2.58 3.92,-2.66 5.55,-2.74 7.22,-2.77 8.90,-2.79 9.35,-2.72 9.79,-2.65 10.19,-2.43 10.59,-2.22 10.90,-1.89 11.22,-1.56 11.41,-1.15 11.60,-0.74 11.64,-0.29 11.69,0.15 11.60,0.59 11.50,1.03 11.27,1.42 11.03,1.81 10.69,2.10 10.34,2.39 9.92,2.56 9.50,2.73 9.05,2.75 8.60,2.78 8.16,2.66 7.72,2.53 7.35,2.28 6.98,2.03 6.70,1.67 6.43,1.31 6.28,0.88 6.14,0.45 6.14,-0.00 6.14,-0.45 6.28,-0.88 6.43,-1.31 6.70,-1.67 6.98,-2.03 7.35,-2.28 7.73,-2.53 8.16,-2.66 8.60,-2.78 9.05,-2.75 9.50,-2.73 9.92,-2.56 10.34,-2.39 10.69,-2.10 11.03,-1.81 11.27,-1.42 11.50,-1.03 11.60,-0.59 11.69,-0.15 11.64,0.29 11.60,0.74 11.40,1.15 11.21,1.57 10.90,1.89 10.59,2.22 10.19,2.43 9.79,2.65 9.35,2.72 8.90,2.79 8.90,2.79 8.90,2.79 7.22,2.77 5.55,2.74 3.92,2.66 2.3,2.58 1.15,2.55 0,2.53 -0.30,2.49 -0.60,2.45 -0.89,2.35 -1.17,2.24 -1.42,2.06 -1.67,1.89 -1.88,1.66 -2.08,1.43 -2.22,1.16 -2.36,0.89 -2.44,0.60 -2.51,0.30 -2.51,-0.00 -2.51,-0.30 -2.44,-0.60 -2.36,-0.89 -2.22,-1.16 -2.08,-1.43 -1.88,-1.66 -1.67,-1.89 -1.42,-2.06 -1.17,-2.24 -0.89,-2.35 -0.60,-2.45 -0.30,-2.49 0.00,-2.53 0.00,-2.53 L 0,-2.53 Z"/></g><g transform="translate(147.83970598512167 231.91744286212338) rotate(0 0.666656494140625 2)" stroke="none"><path fill="#000000" d="M 2.21,-0.73 Q 2.21,-0.73 0.10,0.50 -1.99,1.75 -2.05,1.36 -2.12,0.96 -2.05,0.57 -1.99,0.18 -1.80,-0.16 -1.61,-0.50 -1.32,-0.78 -1.04,-1.05 -0.68,-1.21 -0.32,-1.38 0.07,-1.42 0.46,-1.46 0.85,-1.37 1.23,-1.29 1.57,-1.08 1.91,-0.88 2.17,-0.57 2.42,-0.27 2.57,0.09 2.71,0.45 2.73,0.85 2.75,1.25 2.65,1.63 2.54,2.01 2.31,2.33 2.09,2.66 1.78,2.90 1.46,3.14 1.08,3.26 0.71,3.39 0.31,3.39 -0.07,3.39 -0.45,3.26 -0.82,3.13 -1.14,2.89 -1.45,2.65 -1.67,2.32 -1.89,1.99 -2.00,1.61 -2.10,1.23 -2.08,0.83 -2.06,0.44 -1.91,0.07 -1.76,-0.29 -1.50,-0.59 -1.25,-0.89 -0.91,-1.09 -0.57,-1.29 -0.18,-1.38 0.20,-1.46 0.59,-1.42 0.98,-1.37 1.34,-1.21 1.70,-1.04 1.99,-0.76 2.27,-0.49 2.46,-0.14 2.64,0.20 2.64,0.20 2.64,0.20 0.21,0.47 -2.21,0.73 -2.26,0.46 -2.32,0.18 -2.31,-0.09 -2.30,-0.37 -2.22,-0.64 -2.14,-0.91 -2.00,-1.15 -1.86,-1.40 -1.66,-1.60 -1.47,-1.80 -1.23,-1.95 -0.99,-2.10 -0.73,-2.19 -0.46,-2.28 -0.18,-2.30 0.09,-2.32 0.37,-2.28 0.64,-2.23 0.90,-2.12 1.16,-2.01 1.39,-1.84 1.61,-1.67 1.79,-1.46 1.97,-1.24 2.09,-0.99 2.21,-0.73 2.21,-0.73 L 2.21,-0.73 Z"/></g><g transform="translate(142.50633196168417 246.584099356264) rotate(0 -4.666656494140625 2)" stroke="none"><path fill="#000000" d="M 1.35,2.03 Q 1.35,2.03 0.21,2.80 -0.93,3.58 -4.66,5.04 -8.40,6.49 -8.82,6.49 -9.25,6.48 -9.64,6.34 -10.04,6.20 -10.37,5.94 -10.70,5.68 -10.94,5.32 -11.17,4.97 -11.27,4.56 -11.38,4.16 -11.35,3.73 -11.32,3.31 -11.16,2.92 -11.00,2.53 -10.72,2.22 -10.44,1.90 -10.08,1.69 -9.71,1.48 -9.30,1.39 -8.88,1.31 -8.47,1.36 -8.05,1.41 -7.67,1.60 -7.29,1.78 -6.98,2.07 -6.68,2.37 -6.49,2.75 -6.30,3.12 -6.24,3.54 -6.18,3.96 -6.25,4.37 -6.33,4.79 -6.53,5.16 -6.73,5.53 -7.04,5.81 -7.36,6.10 -7.74,6.27 -8.13,6.44 -8.55,6.48 -8.97,6.52 -9.38,6.42 -9.79,6.32 -10.15,6.10 -10.50,5.87 -10.77,5.55 -11.04,5.22 -11.19,4.83 -11.34,4.43 -11.36,4.01 -11.37,3.59 -11.25,3.19 -11.13,2.78 -10.89,2.44 -10.65,2.09 -10.31,1.84 -9.97,1.59 -9.57,1.46 -9.16,1.33 -9.16,1.33 -9.17,1.33 -7.36,1.14 -5.55,0.94 -4.61,0.21 -3.66,-0.51 -2.51,-1.27 -1.35,-2.03 -1.09,-2.16 -0.82,-2.29 -0.54,-2.36 -0.25,-2.43 0.03,-2.42 0.33,-2.42 0.61,-2.34 0.90,-2.27 1.16,-2.13 1.42,-1.98 1.63,-1.79 1.85,-1.59 2.01,-1.34 2.18,-1.10 2.28,-0.82 2.38,-0.54 2.41,-0.25 2.44,0.03 2.40,0.33 2.36,0.62 2.25,0.89 2.14,1.17 1.97,1.41 1.80,1.65 1.57,1.84 1.35,2.03 1.35,2.03 L 1.35,2.03 Z"/></g><g transform="translate(102.50633196168417 254.584099356264) rotate(0 -6 -0.6666717529296875)" stroke="none"><path fill="#000000" d="M 0,2.54 Q 0,2.54 -1.53,2.52 -3.06,2.50 -4.92,2.58 -6.78,2.66 -9.50,2.07 -12.22,1.48 -12.64,1.31 -13.05,1.13 -13.39,0.83 -13.73,0.53 -13.96,0.14 -14.18,-0.24 -14.27,-0.68 -14.36,-1.13 -14.30,-1.58 -14.25,-2.02 -14.05,-2.43 -13.85,-2.84 -13.53,-3.16 -13.22,-3.48 -12.81,-3.69 -12.41,-3.89 -11.96,-3.96 -11.52,-4.02 -11.07,-3.94 -10.63,-3.86 -10.23,-3.64 -9.84,-3.42 -9.53,-3.08 -9.23,-2.75 -9.04,-2.34 -8.86,-1.92 -8.82,-1.47 -8.78,-1.02 -8.89,-0.58 -8.99,-0.14 -9.23,0.23 -9.47,0.61 -9.82,0.90 -10.17,1.19 -10.60,1.35 -11.02,1.50 -11.47,1.52 -11.92,1.54 -12.36,1.41 -12.79,1.28 -13.16,1.02 -13.53,0.76 -13.80,0.39 -14.06,0.03 -14.20,-0.40 -14.33,-0.83 -14.33,-1.28 -14.32,-1.73 -14.17,-2.16 -14.01,-2.58 -13.73,-2.94 -13.45,-3.29 -13.07,-3.54 -12.69,-3.78 -12.26,-3.90 -11.82,-4.01 -11.37,-3.98 -10.92,-3.94 -10.92,-3.94 -10.92,-3.94 -8.85,-3.30 -6.78,-2.66 -4.92,-2.58 -3.06,-2.50 -1.53,-2.52 0,-2.54 0.30,-2.50 0.60,-2.47 0.89,-2.36 1.18,-2.25 1.43,-2.07 1.68,-1.90 1.89,-1.67 2.09,-1.44 2.23,-1.17 2.38,-0.90 2.45,-0.60 2.52,-0.30 2.52,0.00 2.52,0.30 2.45,0.60 2.38,0.90 2.23,1.17 2.09,1.44 1.89,1.67 1.68,1.90 1.43,2.07 1.18,2.25 0.89,2.36 0.60,2.47 0.30,2.50 -0.00,2.54 -0.00,2.54 L 0,2.54 Z"/></g><g transform="translate(74.50633196168417 246.584099356264) rotate(0 -0.666656494140625 0)" stroke="none"><path fill="#000000" d="M 2.12,-0.66 Q 2.12,-0.66 2.15,-0.13 2.18,0.40 1.96,0.88 1.74,1.36 1.32,1.69 0.91,2.02 0.38,2.12 -0.13,2.21 -0.64,2.05 -1.14,1.90 -1.52,1.52 -1.90,1.14 -2.05,0.64 -2.21,0.13 -2.12,-0.38 -2.02,-0.91 -1.69,-1.32 -1.36,-1.74 -0.88,-1.96 -0.39,-2.18 0.13,-2.15 0.66,-2.11 1.11,-1.84 1.57,-1.56 1.84,-1.11 L 2.12,-0.66 Z"/></g><g transform="translate(107.83967546754354 487.9174428621234) rotate(0 2.6666717529296875 -0.66668701171875)" stroke="none"><path fill="#000000" d="M -1.88,-1.88 Q -1.88,-1.88 -1.11,-2.68 -0.33,-3.48 0.73,-4.10 1.80,-4.71 3.44,-4.76 5.08,-4.81 6.11,-4.20 7.14,-3.60 7.59,-2.52 8.03,-1.45 7.83,0.03 7.64,1.51 6.92,2.50 6.20,3.49 5.14,3.85 4.07,4.21 1.98,4.06 -0.11,3.91 -1.17,3.12 -2.23,2.34 -2.57,0.97 -2.92,-0.38 -2.34,-1.97 -1.76,-3.56 0.58,-0.84 2.93,1.88 2.47,2.12 2.00,2.36 1.47,2.44 0.95,2.52 0.43,2.43 -0.08,2.34 -0.54,2.09 -1.01,1.83 -1.36,1.45 -1.72,1.06 -1.94,0.58 -2.16,0.10 -2.21,-0.42 -2.26,-0.95 -2.14,-1.46 -2.02,-1.97 -1.74,-2.42 -1.47,-2.87 -1.06,-3.21 -0.65,-3.55 -0.16,-3.74 0.32,-3.93 0.85,-3.95 1.38,-3.97 1.88,-3.83 2.39,-3.68 2.83,-3.38 3.26,-3.08 3.57,-2.65 3.89,-2.23 4.05,-1.73 4.22,-1.22 4.21,-0.70 4.20,-0.17 4.03,0.32 3.85,0.82 3.53,1.24 3.21,1.65 2.77,1.94 2.33,2.23 1.82,2.37 1.30,2.51 0.78,2.47 0.25,2.44 -0.23,2.24 -0.72,2.04 -1.11,1.69 -1.51,1.34 -1.78,0.89 -2.05,0.43 -2.16,-0.08 -2.26,-0.59 -2.20,-1.12 -2.14,-1.64 -1.91,-2.12 -1.68,-2.60 -1.32,-2.97 -0.95,-3.35 -0.95,-3.35 -0.95,-3.35 0.94,-2.61 2.84,-1.87 3.12,-0.72 3.40,0.41 2.64,1.15 1.88,1.88 1.63,2.08 1.37,2.28 1.08,2.41 0.79,2.54 0.47,2.60 0.16,2.66 -0.15,2.64 -0.48,2.62 -0.78,2.52 -1.09,2.43 -1.36,2.26 -1.64,2.09 -1.87,1.87 -2.09,1.64 -2.26,1.36 -2.43,1.09 -2.52,0.78 -2.62,0.48 -2.64,0.15 -2.66,-0.16 -2.60,-0.47 -2.54,-0.79 -2.41,-1.08 -2.28,-1.37 -2.08,-1.63 -1.88,-1.88 -1.88,-1.88 L -1.88,-1.88 Z"/></g><g transform="translate(59.83967546754354 485.25075585040463) rotate(0 46.00001525878906 -0.6666259765625)" stroke="none"><path fill="#000000" d="M -1.86,-1.86 Q -1.86,-1.86 -1.11,-2.65 -0.36,-3.43 1.40,-4.77 3.17,-6.11 4.62,-6.94 6.07,-7.77 7.95,-8.52 9.83,-9.26 11.82,-9.95 13.81,-10.63 14.81,-11.00 15.81,-11.38 17.39,-11.63 18.97,-11.88 20.04,-12.25 21.12,-12.63 23.14,-12.81 25.16,-13.00 27.34,-13.28 29.52,-13.57 32.17,-13.65 34.81,-13.74 36.91,-14.10 39.01,-14.45 41.48,-14.96 43.95,-15.46 46.13,-16.03 48.30,-16.60 50.51,-16.86 52.72,-17.12 54.41,-17.30 56.10,-17.48 57.82,-17.90 59.54,-18.32 61.18,-18.58 62.82,-18.84 64.30,-18.99 65.78,-19.14 67.18,-19.23 68.58,-19.33 70.39,-19.79 72.20,-20.26 74.09,-20.66 75.97,-21.06 77.14,-21.13 78.31,-21.20 79.93,-21.30 81.54,-21.40 82.63,-21.42 83.72,-21.44 85.69,-21.47 87.66,-21.51 89.36,-21.54 91.06,-21.57 92.40,-21.04 93.73,-20.52 94.61,-19.85 95.49,-19.19 96.88,-18.47 98.26,-17.74 98.84,-16.80 99.42,-15.86 100.34,-14.94 101.26,-14.03 102.05,-12.07 102.83,-10.12 103.00,-8.34 103.17,-6.57 103.21,-5.13 103.26,-3.70 103.28,-2.34 103.30,-0.99 102.70,1.17 102.11,3.34 101.41,4.23 100.70,5.11 99.30,6.57 97.90,8.02 96.76,8.64 95.63,9.27 94.06,10.26 92.48,11.25 90.52,12.49 88.56,13.72 87.24,14.37 85.92,15.02 84.56,15.65 83.20,16.29 81.08,16.61 78.96,16.94 77.66,17.34 76.36,17.75 74.31,17.94 72.26,18.13 70.66,18.22 69.07,18.30 67.45,18.62 65.84,18.94 63.77,19.07 61.69,19.20 58.50,19.17 55.31,19.14 52.44,19.09 49.57,19.04 47.59,19.03 45.60,19.02 43.99,19.08 42.38,19.14 40.54,19.14 38.71,19.14 36.78,19.12 34.85,19.10 33.26,19.15 31.67,19.20 29.85,19.20 28.03,19.19 26.48,19.24 24.94,19.28 23.13,19.27 21.32,19.26 19.23,18.82 17.13,18.38 15.63,18.27 14.13,18.16 12.75,18.14 11.36,18.13 9.98,18.14 8.60,18.16 7.26,17.75 5.92,17.35 3.72,16.77 1.52,16.19 0.02,15.28 -1.48,14.36 -3.05,14.02 -4.62,13.68 -6.13,12.39 -7.64,11.10 -9.02,9.78 -10.41,8.45 -10.58,8.00 -10.75,7.55 -10.76,7.06 -10.77,6.58 -10.63,6.12 -10.49,5.66 -10.21,5.26 -9.93,4.87 -9.54,4.59 -9.15,4.31 -8.69,4.16 -8.23,4.02 -7.75,4.03 -7.27,4.04 -6.81,4.21 -6.36,4.37 -5.98,4.67 -5.60,4.97 -5.34,5.38 -5.08,5.79 -4.96,6.25 -4.85,6.72 -4.88,7.20 -4.92,7.68 -5.11,8.13 -5.30,8.57 -5.62,8.93 -5.94,9.29 -6.36,9.53 -6.78,9.77 -7.25,9.86 -7.73,9.95 -8.21,9.89 -8.68,9.83 -9.12,9.61 -9.55,9.40 -9.89,9.06 -10.23,8.72 -10.45,8.29 -10.67,7.86 -10.73,7.38 -10.80,6.90 -10.71,6.43 -10.62,5.95 -10.38,5.53 -10.15,5.11 -9.79,4.79 -9.43,4.46 -8.99,4.27 -8.55,4.08 -8.07,4.04 -7.58,4.00 -7.12,4.11 -6.65,4.23 -6.24,4.49 -5.83,4.75 -5.53,5.12 -5.23,5.50 -5.23,5.50 -5.23,5.50 -3.85,6.72 -2.47,7.95 -1.04,8.84 0.39,9.73 1.25,10.56 2.11,11.38 3.44,11.99 4.78,12.59 6.79,13.25 8.79,13.92 10.17,13.99 11.55,14.06 13.04,14.19 14.53,14.31 16.19,14.53 17.86,14.74 19.60,15.07 21.34,15.39 23.14,15.38 24.94,15.37 26.48,15.42 28.02,15.46 29.85,15.46 31.67,15.45 33.26,15.50 34.85,15.55 36.77,15.53 38.70,15.51 40.53,15.51 42.37,15.50 43.97,15.55 45.58,15.60 47.55,15.56 49.53,15.52 52.37,15.41 55.22,15.29 58.25,15.11 61.29,14.93 63.04,14.70 64.80,14.47 66.78,13.95 68.76,13.42 70.22,13.32 71.67,13.22 73.18,12.99 74.70,12.75 76.38,12.15 78.06,11.55 79.34,11.31 80.62,11.07 81.85,10.38 83.08,9.68 84.24,9.01 85.41,8.33 86.34,7.75 87.27,7.18 89.12,5.90 90.98,4.62 92.15,3.97 93.33,3.33 94.45,2.12 95.57,0.91 96.13,-0.03 96.69,-0.98 96.70,-2.31 96.72,-3.63 96.72,-4.94 96.72,-6.25 96.64,-7.56 96.56,-8.88 96.36,-10.05 96.16,-11.23 95.06,-12.34 93.97,-13.46 92.34,-14.61 90.71,-15.75 89.19,-15.78 87.67,-15.81 85.70,-15.84 83.73,-15.88 81.93,-15.93 80.12,-15.98 78.28,-16.01 76.44,-16.05 75.04,-15.98 73.64,-15.91 71.16,-15.57 68.68,-15.23 67.34,-15.26 65.99,-15.29 64.62,-15.28 63.24,-15.27 61.77,-15.17 60.30,-15.06 58.32,-14.61 56.34,-14.17 54.72,-14.12 53.11,-14.08 51.14,-13.80 49.18,-13.52 46.96,-12.83 44.73,-12.14 42.25,-11.48 39.78,-10.82 37.46,-10.24 35.14,-9.66 32.80,-9.35 30.45,-9.04 28.11,-8.39 25.77,-7.73 24.38,-7.52 22.98,-7.31 20.41,-6.60 17.84,-5.90 15.68,-5.29 13.52,-4.68 11.74,-4.09 9.96,-3.50 8.65,-2.88 7.35,-2.26 6.41,-1.62 5.46,-0.98 4.45,-0.31 3.43,0.36 2.65,1.11 1.86,1.86 1.61,2.06 1.36,2.25 1.07,2.38 0.78,2.52 0.47,2.57 0.15,2.63 -0.15,2.61 -0.47,2.59 -0.77,2.50 -1.08,2.40 -1.35,2.24 -1.62,2.07 -1.85,1.85 -2.07,1.62 -2.24,1.35 -2.40,1.08 -2.50,0.77 -2.59,0.47 -2.61,0.15 -2.63,-0.15 -2.57,-0.47 -2.52,-0.78 -2.38,-1.07 -2.25,-1.36 -2.06,-1.61 -1.86,-1.86 -1.86,-1.86 L -1.86,-1.86 Z"/></g><g transform="translate(93.17301897340292 451.9174428621234) rotate(0 15.999984741210938 36)" stroke="none"><path fill="#000000" d="M -1.89,-1.89 Q -1.89,-1.89 -1.15,-2.64 -0.42,-3.40 0.57,-4.58 1.56,-5.76 2.00,-6.74 2.43,-7.72 4.25,-9.14 6.08,-10.55 7.80,-10.83 9.53,-11.11 10.93,-11.17 12.32,-11.22 13.66,-11.24 15.00,-11.27 17.15,-10.69 19.29,-10.11 20.68,-9.07 22.08,-8.04 23.07,-7.08 24.07,-6.12 24.63,-4.96 25.19,-3.80 26.02,-2.92 26.86,-2.04 27.57,-0.69 28.28,0.65 28.96,2.01 29.64,3.36 30.28,5.32 30.93,7.27 31.58,9.18 32.24,11.09 32.88,13.09 33.53,15.10 34.14,17.21 34.76,19.32 34.85,20.69 34.95,22.06 34.96,23.39 34.98,24.72 34.96,26.03 34.94,27.34 35.37,30.27 35.79,33.20 35.84,34.77 35.88,36.33 35.90,37.76 35.92,39.20 35.92,40.58 35.93,41.96 35.94,43.31 35.94,44.66 35.94,46.00 35.94,47.35 35.95,48.68 35.95,50.02 35.95,51.35 35.95,52.69 35.95,54.02 35.95,55.36 35.95,56.69 35.95,58.02 35.88,59.75 35.82,61.48 35.38,63.27 34.94,65.06 34.34,66.60 33.74,68.14 33.07,70.34 32.40,72.55 31.73,73.67 31.06,74.78 30.36,76.32 29.66,77.86 28.34,79.42 27.02,80.97 25.67,82.38 24.33,83.79 22.46,85.16 20.59,86.52 18.86,86.81 17.13,87.09 15.62,87.12 14.12,87.14 12.76,86.59 11.40,86.04 9.94,85.37 8.48,84.69 7.63,83.95 6.77,83.21 6.10,82.08 5.44,80.96 4.59,80.03 3.74,79.10 3.18,77.95 2.63,76.80 2.23,75.77 1.83,74.73 1.44,73.62 1.06,72.52 0.37,69.97 -0.32,67.43 -0.70,65.76 -1.08,64.10 -1.32,63.01 -1.57,61.91 -1.65,60.56 -1.73,59.21 -2.30,56.65 -2.88,54.09 -2.93,52.70 -2.99,51.32 -2.99,49.98 -2.99,48.64 -2.97,47.32 -2.95,46.00 -3.44,43.49 -3.92,40.98 -3.98,39.55 -4.04,38.11 -4.05,36.74 -4.07,35.36 -4.07,34.01 -4.07,32.66 -4.06,31.32 -4.06,29.98 -4.05,28.64 -4.04,27.30 -4.02,24.79 -4.01,22.28 -3.50,20.22 -2.99,18.16 -2.75,16.40 -2.51,14.64 -1.94,12.53 -1.37,10.43 -0.69,8.42 -0.02,6.40 0.24,4.56 0.50,2.72 0.99,0.95 1.48,-0.81 1.61,-2.14 1.73,-3.47 2.20,-5.04 2.67,-6.61 3.31,-8.63 3.94,-10.65 5.16,-12.23 6.38,-13.81 6.74,-13.97 7.09,-14.13 7.48,-14.16 7.87,-14.20 8.25,-14.11 8.62,-14.02 8.95,-13.81 9.28,-13.61 9.53,-13.31 9.78,-13.01 9.92,-12.65 10.05,-12.28 10.07,-11.89 10.08,-11.51 9.97,-11.13 9.87,-10.76 9.64,-10.44 9.42,-10.12 9.11,-9.89 8.79,-9.66 8.42,-9.54 8.05,-9.43 7.66,-9.43 7.28,-9.44 6.91,-9.57 6.54,-9.70 6.24,-9.94 5.93,-10.18 5.72,-10.50 5.51,-10.83 5.41,-11.20 5.31,-11.58 5.34,-11.97 5.36,-12.36 5.51,-12.71 5.66,-13.07 5.92,-13.37 6.17,-13.66 6.51,-13.85 6.85,-14.05 7.23,-14.13 7.61,-14.20 7.99,-14.15 8.38,-14.11 8.73,-13.94 9.08,-13.77 9.36,-13.50 9.64,-13.23 9.81,-12.88 9.99,-12.53 10.05,-12.15 10.10,-11.76 10.03,-11.38 9.97,-11.00 9.78,-10.66 9.59,-10.32 9.30,-10.06 9.02,-9.79 9.02,-9.79 9.02,-9.79 8.10,-8.60 7.18,-7.41 6.89,-6.35 6.59,-5.28 6.12,-4.09 5.65,-2.90 5.36,-1.32 5.07,0.25 4.58,1.71 4.10,3.17 3.88,5.31 3.65,7.46 3.17,9.41 2.70,11.37 2.36,13.20 2.03,15.03 1.94,17.11 1.86,19.18 1.60,20.74 1.34,22.30 1.36,24.80 1.38,27.29 1.39,28.62 1.40,29.95 1.42,31.28 1.44,32.61 1.46,33.92 1.49,35.24 1.53,36.53 1.58,37.82 1.66,39.05 1.74,40.28 1.88,41.38 2.03,42.48 2.51,44.18 2.99,45.88 3.04,47.19 3.08,48.49 3.14,49.73 3.20,50.96 3.32,52.65 3.43,54.33 4.02,56.56 4.62,58.79 4.79,60.33 4.97,61.87 5.51,63.38 6.05,64.89 6.10,66.10 6.14,67.30 6.79,69.27 7.43,71.23 8.11,72.85 8.78,74.48 9.39,75.38 10.00,76.28 11.24,78.02 12.48,79.77 14.01,80.27 15.55,80.78 16.81,81.14 18.07,81.49 18.79,80.63 19.50,79.76 20.52,79.03 21.55,78.31 22.81,77.06 24.07,75.80 24.94,74.90 25.81,74.00 26.74,72.30 27.68,70.61 28.11,69.62 28.55,68.63 28.87,67.50 29.20,66.37 29.69,65.11 30.18,63.84 30.51,62.64 30.84,61.44 30.77,59.73 30.71,58.02 30.71,56.69 30.71,55.36 30.71,54.02 30.71,52.69 30.71,51.36 30.71,50.02 30.71,48.69 30.71,47.35 30.70,46.02 30.70,44.68 30.69,43.34 30.69,42.01 30.67,40.66 30.65,39.31 30.61,37.95 30.57,36.58 30.47,35.15 30.37,33.73 30.17,32.29 29.96,30.86 29.48,29.16 29.00,27.47 28.96,26.18 28.91,24.89 28.85,23.70 28.79,22.51 28.59,20.88 28.38,19.25 27.74,17.10 27.10,14.95 26.45,13.11 25.79,11.28 25.02,9.54 24.24,7.80 23.70,6.38 23.17,4.96 22.23,2.91 21.29,0.86 20.42,0.06 19.54,-0.72 19.20,-1.85 18.86,-2.97 17.49,-3.86 16.13,-4.76 14.91,-4.75 13.69,-4.73 12.40,-4.75 11.11,-4.76 9.89,-5.16 8.67,-5.55 7.50,-4.47 6.33,-3.39 5.42,-2.47 4.51,-1.55 4.00,-0.60 3.49,0.34 2.69,1.11 1.89,1.89 1.63,2.09 1.38,2.29 1.09,2.42 0.79,2.55 0.47,2.61 0.16,2.67 -0.16,2.65 -0.48,2.63 -0.79,2.53 -1.09,2.44 -1.37,2.27 -1.65,2.10 -1.87,1.87 -2.10,1.65 -2.27,1.37 -2.44,1.09 -2.53,0.79 -2.63,0.48 -2.65,0.16 -2.67,-0.16 -2.61,-0.47 -2.55,-0.79 -2.42,-1.09 -2.29,-1.38 -2.09,-1.63 -1.89,-1.89 -1.89,-1.89 L -1.89,-1.89 Z"/></g><g transform="translate(53.17301897340292 473.25075585040463) rotate(0 51.333343505859375 16.66668701171875)" stroke="none"><path fill="#000000" d="M -2.16,-1.44 Q -2.16,-1.44 -1.39,-2.59 -0.62,-3.73 0.13,-4.72 0.90,-5.71 1.61,-6.53 2.32,-7.36 3.66,-8.82 5.00,-10.29 6.31,-11.67 7.63,-13.05 9.59,-14.58 11.55,-16.12 13.32,-17.64 15.10,-19.16 16.54,-20.09 17.98,-21.03 19.37,-21.79 20.76,-22.55 22.64,-23.67 24.51,-24.80 25.50,-25.72 26.48,-26.64 27.56,-27.16 28.64,-27.69 29.70,-28.14 30.75,-28.58 31.81,-28.96 32.87,-29.34 34.87,-30.07 36.88,-30.79 38.21,-30.90 39.55,-31.01 41.55,-31.60 43.55,-32.19 45.20,-32.36 46.85,-32.53 48.09,-32.82 49.33,-33.11 50.40,-33.35 51.47,-33.58 53.15,-33.73 54.83,-33.88 56.23,-33.92 57.64,-33.95 58.99,-33.97 60.34,-33.99 61.67,-34.01 63.01,-34.02 64.34,-34.03 65.68,-34.04 67.01,-34.05 68.34,-34.06 70.51,-33.46 72.67,-32.86 74.10,-32.18 75.54,-31.50 76.89,-30.83 78.24,-30.16 79.53,-29.12 80.82,-28.08 82.78,-27.16 84.74,-26.24 86.15,-25.51 87.57,-24.77 88.55,-24.12 89.53,-23.47 90.56,-22.78 91.59,-22.10 93.02,-20.93 94.45,-19.76 95.33,-18.83 96.21,-17.90 97.44,-16.08 98.67,-14.26 99.47,-13.40 100.26,-12.53 101.46,-10.72 102.66,-8.92 103.50,-7.97 104.34,-7.01 104.89,-5.35 105.44,-3.68 106.13,-2.16 106.82,-0.63 107.54,1.42 108.25,3.49 108.94,6.03 109.63,8.57 109.74,10.74 109.84,12.91 109.87,14.56 109.90,16.20 109.89,17.29 109.87,18.38 109.86,20.36 109.84,22.33 109.83,24.33 109.81,26.32 109.28,28.63 108.74,30.95 108.10,32.90 107.45,34.85 106.77,36.86 106.08,38.87 105.37,39.83 104.65,40.79 103.35,42.70 102.04,44.61 101.46,45.56 100.88,46.51 100.11,47.53 99.34,48.54 98.74,49.53 98.13,50.52 96.75,51.73 95.37,52.93 93.27,54.48 91.16,56.03 89.83,56.73 88.50,57.42 87.17,58.08 85.83,58.74 83.77,60.06 81.70,61.38 80.09,61.80 78.48,62.21 76.35,62.97 74.22,63.74 73.19,64.13 72.15,64.53 71.05,64.81 69.95,65.10 68.60,65.22 67.25,65.34 65.92,65.37 64.60,65.40 63.29,65.41 61.98,65.41 59.47,65.93 56.96,66.45 55.53,66.52 54.11,66.59 52.73,66.61 51.36,66.64 49.62,66.58 47.88,66.52 46.38,66.51 44.88,66.50 43.45,66.50 42.01,66.50 40.60,66.07 39.18,65.64 37.46,65.55 35.74,65.45 34.26,64.97 32.77,64.50 30.23,63.85 27.69,63.21 26.29,62.58 24.90,61.95 22.31,61.22 19.73,60.50 17.55,59.84 15.38,59.18 14.23,58.47 13.08,57.77 12.01,56.46 10.95,55.15 9.03,53.21 7.11,51.26 6.31,49.89 5.50,48.52 4.79,47.16 4.08,45.81 3.19,44.66 2.30,43.50 1.40,42.04 0.50,40.59 -0.25,39.19 -1.02,37.80 -1.72,36.44 -2.43,35.08 -3.53,32.24 -4.63,29.40 -4.80,28.28 -4.98,27.16 -5.06,25.86 -5.14,24.56 -5.12,22.86 -5.10,21.15 -5.10,19.67 -5.10,18.19 -5.05,16.41 -4.99,14.64 -5.27,12.94 -5.55,11.24 -5.62,8.75 -5.69,6.26 -5.76,4.47 -5.83,2.68 -5.83,0.75 -5.84,-1.16 -5.92,-2.39 -6.00,-3.62 -5.43,-5.79 -4.85,-7.96 -4.73,-8.28 -4.60,-8.60 -4.38,-8.87 -4.16,-9.13 -3.87,-9.31 -3.57,-9.50 -3.23,-9.57 -2.90,-9.65 -2.55,-9.62 -2.21,-9.58 -1.89,-9.44 -1.58,-9.30 -1.32,-9.06 -1.07,-8.83 -0.91,-8.52 -0.74,-8.22 -0.68,-7.88 -0.62,-7.54 -0.68,-7.19 -0.73,-6.85 -0.89,-6.54 -1.05,-6.24 -1.30,-6.00 -1.55,-5.76 -1.86,-5.61 -2.17,-5.46 -2.52,-5.42 -2.86,-5.38 -3.20,-5.45 -3.54,-5.52 -3.83,-5.70 -4.13,-5.88 -4.36,-6.14 -4.59,-6.40 -4.72,-6.72 -4.85,-7.04 -4.87,-7.38 -4.89,-7.73 -4.80,-8.06 -4.71,-8.40 -4.52,-8.69 -4.33,-8.97 -4.05,-9.19 -3.78,-9.40 -3.45,-9.51 -3.13,-9.62 -2.78,-9.63 -2.43,-9.63 -2.11,-9.52 -1.78,-9.41 -1.50,-9.21 -1.22,-9.00 -1.03,-8.72 -0.83,-8.43 -0.73,-8.10 -0.64,-7.77 -0.66,-7.42 -0.67,-7.07 -0.67,-7.07 -0.67,-7.08 -1.31,-5.30 -1.95,-3.52 -2.01,-2.37 -2.07,-1.22 -2.01,0.65 -1.95,2.52 -1.88,4.26 -1.82,5.99 -1.56,8.19 -1.30,10.38 -0.81,12.50 -0.32,14.61 -0.26,16.38 -0.19,18.16 -0.18,19.62 -0.16,21.09 -0.09,22.71 -0.02,24.34 0.06,26.43 0.15,28.51 0.27,29.61 0.39,30.72 1.11,31.78 1.82,32.84 2.51,34.15 3.20,35.45 3.91,36.72 4.63,37.99 5.40,39.19 6.17,40.38 7.40,41.86 8.64,43.33 9.33,44.57 10.02,45.81 11.30,47.76 12.58,49.72 14.38,51.50 16.18,53.28 17.75,54.15 19.31,55.02 20.42,55.31 21.52,55.59 22.65,56.01 23.78,56.43 25.38,56.76 26.99,57.09 28.23,57.61 29.48,58.14 30.52,58.52 31.57,58.90 33.08,59.14 34.60,59.38 36.35,59.84 38.10,60.30 40.11,60.89 42.13,61.49 43.50,61.48 44.86,61.47 46.36,61.45 47.85,61.43 49.54,61.35 51.24,61.26 52.53,61.23 53.82,61.19 55.05,61.12 56.29,61.05 57.40,60.92 58.51,60.79 60.18,60.33 61.86,59.87 63.15,59.84 64.44,59.81 65.64,59.77 66.83,59.73 68.53,59.56 70.23,59.39 72.48,58.77 74.74,58.15 76.90,57.39 79.06,56.64 80.09,56.04 81.11,55.44 82.22,54.68 83.32,53.93 84.57,53.24 85.83,52.55 86.98,51.88 88.14,51.22 89.05,50.65 89.96,50.08 91.56,48.77 93.16,47.46 94.44,45.47 95.73,43.48 97.01,41.50 98.28,39.52 99.00,38.25 99.72,36.98 100.48,36.04 101.23,35.09 101.85,33.14 102.48,31.20 103.00,28.76 103.51,26.32 103.50,24.33 103.48,22.33 103.46,20.37 103.44,18.40 103.43,16.59 103.41,14.78 103.35,12.92 103.28,11.06 103.24,9.87 103.20,8.67 102.55,6.68 101.90,4.68 101.18,2.54 100.46,0.40 99.80,-0.84 99.13,-2.08 98.53,-3.20 97.94,-4.33 97.28,-5.55 96.62,-6.77 95.27,-8.20 93.92,-9.64 92.63,-11.47 91.35,-13.29 90.44,-14.72 89.54,-16.15 88.34,-16.71 87.14,-17.26 86.01,-17.79 84.88,-18.33 84.01,-19.10 83.14,-19.88 82.02,-20.34 80.89,-20.80 79.44,-21.62 77.99,-22.43 77.10,-23.26 76.21,-24.08 75.11,-24.56 74.01,-25.03 72.74,-25.66 71.46,-26.29 70.46,-26.80 69.45,-27.32 68.23,-27.30 67.01,-27.27 65.68,-27.28 64.34,-27.29 63.01,-27.30 61.68,-27.32 60.35,-27.33 59.02,-27.34 57.70,-27.35 56.39,-27.36 55.13,-27.34 53.88,-27.33 52.72,-27.20 51.55,-27.06 49.35,-26.55 47.15,-26.04 45.77,-25.99 44.39,-25.94 43.04,-25.39 41.70,-24.83 39.83,-24.77 37.96,-24.71 35.95,-24.09 33.93,-23.47 32.31,-22.84 30.68,-22.21 29.63,-21.58 28.58,-20.95 27.05,-20.20 25.53,-19.46 24.46,-18.70 23.40,-17.93 22.20,-17.22 21.00,-16.50 19.96,-15.78 18.92,-15.06 17.76,-13.90 16.59,-12.74 15.63,-11.99 14.66,-11.23 13.19,-10.10 11.72,-8.96 10.37,-7.66 9.01,-6.35 7.66,-5.04 6.32,-3.73 5.00,-2.29 3.69,-0.86 2.92,0.29 2.16,1.44 1.96,1.68 1.75,1.92 1.50,2.10 1.24,2.28 0.95,2.40 0.66,2.51 0.35,2.55 0.04,2.60 -0.27,2.56 -0.58,2.53 -0.87,2.43 -1.17,2.32 -1.43,2.14 -1.69,1.97 -1.90,1.74 -2.11,1.51 -2.26,1.23 -2.41,0.96 -2.49,0.65 -2.57,0.35 -2.58,0.04 -2.58,-0.27 -2.51,-0.57 -2.44,-0.88 -2.30,-1.16 -2.16,-1.44 -2.16,-1.44 L -2.16,-1.44 Z"/></g><g transform="translate(347.83970598512167 149.25075585040463) rotate(0 -0.66668701171875 0.6666717529296875)" stroke="none"><path fill="#000000" d="M 0,2.65 Q 0,2.65 -1.13,2.52 -2.26,2.39 -2.22,2.21 -2.18,2.03 -2.52,1.99 -2.85,1.95 -3.17,1.83 -3.48,1.71 -3.76,1.52 -4.04,1.32 -4.26,1.07 -4.48,0.82 -4.64,0.52 -4.80,0.22 -4.88,-0.10 -4.96,-0.42 -4.96,-0.76 -4.96,-1.10 -4.88,-1.43 -4.80,-1.75 -4.64,-2.05 -4.48,-2.35 -4.26,-2.61 -4.04,-2.86 -3.76,-3.05 -3.48,-3.24 -3.17,-3.36 -2.85,-3.48 -2.51,-3.52 -2.18,-3.56 -0.31,-3.57 1.54,-3.58 2.49,-2.85 3.45,-2.12 3.79,-1.08 4.13,-0.04 3.92,1.39 3.71,2.83 2.97,3.84 2.24,4.85 0.70,5.79 -0.83,6.74 -2.58,6.56 -4.33,6.39 -5.34,5.68 -6.34,4.97 -6.71,3.86 -7.08,2.76 -6.59,0.38 -6.11,-1.99 -4.90,-3.56 -3.70,-5.13 -1.62,-5.08 0.45,-5.03 2.29,-3.58 4.12,-2.13 4.88,-0.71 5.64,0.70 5.49,2.40 5.33,4.11 4.59,5.24 3.85,6.36 2.69,6.79 1.52,7.21 -0.03,7.33 -1.60,7.44 -2.88,7.15 -4.17,6.87 -3.96,2.88 -3.75,-1.10 -3.30,-1.39 -2.84,-1.69 -2.32,-1.82 -1.79,-1.95 -1.26,-1.90 -0.72,-1.86 -0.22,-1.65 0.26,-1.44 0.66,-1.08 1.07,-0.72 1.33,-0.25 1.60,0.21 1.70,0.74 1.80,1.27 1.73,1.81 1.66,2.34 1.42,2.83 1.18,3.31 0.80,3.69 0.42,4.07 -0.05,4.31 -0.54,4.55 -1.07,4.63 -1.61,4.70 -2.14,4.60 -2.67,4.50 -3.14,4.23 -3.61,3.97 -3.97,3.57 -4.33,3.17 -4.54,2.67 -4.76,2.18 -4.80,1.64 -4.84,1.10 -4.71,0.58 -4.58,0.05 -4.29,-0.39 -4.00,-0.85 -3.58,-1.19 -3.16,-1.52 -2.66,-1.71 -2.15,-1.90 -1.61,-1.91 -1.07,-1.93 -0.56,-1.77 -0.04,-1.61 0.39,-1.30 0.83,-0.98 1.14,-0.55 1.46,-0.11 1.62,0.40 1.77,0.91 1.76,1.45 1.75,1.99 1.56,2.50 1.38,3.00 1.04,3.43 0.70,3.85 0.70,3.85 0.70,3.85 -0.10,2.62 -0.91,1.39 -2.15,1.44 -3.39,1.50 -2.27,0.60 -1.16,-0.28 -1.67,0.87 -2.18,2.03 -2.51,1.99 -2.85,1.95 -3.17,1.83 -3.48,1.71 -3.76,1.52 -4.04,1.32 -4.26,1.07 -4.48,0.82 -4.64,0.52 -4.80,0.22 -4.88,-0.10 -4.96,-0.42 -4.96,-0.76 -4.96,-1.10 -4.88,-1.43 -4.80,-1.75 -4.64,-2.05 -4.48,-2.35 -4.26,-2.60 -4.04,-2.86 -3.76,-3.05 -3.48,-3.24 -3.17,-3.36 -2.85,-3.48 -2.52,-3.52 -2.18,-3.56 -1.49,-2.97 -0.80,-2.39 -0.40,-2.52 0,-2.65 0.31,-2.61 0.63,-2.57 0.93,-2.45 1.23,-2.34 1.49,-2.16 1.75,-1.98 1.96,-1.74 2.18,-1.50 2.32,-1.22 2.47,-0.93 2.55,-0.62 2.63,-0.31 2.63,0.00 2.63,0.31 2.55,0.62 2.47,0.93 2.32,1.22 2.18,1.50 1.96,1.74 1.75,1.98 1.49,2.16 1.23,2.34 0.93,2.46 0.63,2.57 0.31,2.61 -0.00,2.65 -0.00,2.65 L 0,2.65 Z"/></g><g transform="translate(450.50633196168417 338.58412987384213) rotate(0 2.000030517578125 3.33331298828125)" stroke="none"><path fill="#000000" d="M -0.84,-2.52 Q -0.84,-2.52 0.56,-2.90 1.96,-3.28 3.37,-2.88 4.77,-2.47 5.52,-1.50 6.27,-0.52 7.06,0.82 7.84,2.18 7.82,4.41 7.79,6.65 7.05,7.70 6.30,8.75 3.26,9.26 0.22,9.77 -0.76,8.98 -1.76,8.18 -2.94,6.40 -4.13,4.61 -4.07,2.21 -4.01,-0.19 -3.22,-1.28 -2.43,-2.38 -0.21,-2.33 1.99,-2.28 -0.19,0.16 -2.37,2.61 -2.59,2.11 -2.80,1.60 -2.84,1.05 -2.89,0.50 -2.75,-0.03 -2.61,-0.56 -2.31,-1.02 -2.01,-1.49 -1.58,-1.83 -1.15,-2.17 -0.63,-2.36 -0.11,-2.54 0.43,-2.56 0.98,-2.57 1.51,-2.40 2.04,-2.24 2.48,-1.91 2.93,-1.59 3.25,-1.13 3.57,-0.68 3.72,-0.16 3.88,0.36 3.86,0.91 3.84,1.46 3.65,1.98 3.46,2.50 3.11,2.92 2.76,3.35 2.29,3.65 1.82,3.94 1.29,4.07 0.75,4.20 0.20,4.15 -0.34,4.10 -0.84,3.88 -1.35,3.66 -1.75,3.29 -2.16,2.91 -2.43,2.43 -2.70,1.95 -2.80,1.41 -2.90,0.87 -2.82,0.32 -2.74,-0.22 -2.49,-0.71 -2.24,-1.20 -1.85,-1.59 -1.46,-1.98 -0.96,-2.22 -0.47,-2.46 0.07,-2.53 0.62,-2.60 1.16,-2.49 1.70,-2.38 2.18,-2.11 2.66,-1.83 3.02,-1.42 3.39,-1.01 3.39,-1.01 3.39,-1.01 1.23,0.80 -0.92,2.62 0.17,2.24 1.27,1.85 2.13,2.60 2.99,3.35 3.42,4.51 3.85,5.67 2.23,5.59 0.61,5.51 1.42,4.73 2.22,3.94 2.42,2.85 2.63,1.75 1.73,2.14 0.84,2.52 0.52,2.59 0.21,2.65 -0.10,2.64 -0.42,2.62 -0.73,2.54 -1.04,2.45 -1.32,2.29 -1.60,2.12 -1.83,1.90 -2.06,1.68 -2.23,1.41 -2.40,1.14 -2.50,0.83 -2.61,0.53 -2.63,0.21 -2.66,-0.10 -2.61,-0.42 -2.55,-0.74 -2.43,-1.03 -2.30,-1.33 -2.11,-1.59 -1.92,-1.84 -1.67,-2.04 -1.42,-2.25 -1.13,-2.39 -0.84,-2.52 -0.84,-2.52 L -0.84,-2.52 Z"/></g><g stroke-linecap="round"><g transform="translate(345.1730189734029 153.25075585040463) rotate(0 54 93.33334350585938)"><path d="M0 0 C18 31.11, 90 155.56, 108 186.67" stroke="#000000" stroke-width="1.5" fill="none" stroke-dasharray="8 9"/></g><g transform="translate(345.1730189734029 153.25075585040463) rotate(0 54 93.33334350585938)"><path d="M85 167.4 C93.46 174.49, 101.93 181.58, 108 186.67" stroke="#000000" stroke-width="1.5" fill="none"/></g><g transform="translate(345.1730189734029 153.25075585040463) rotate(0 54 93.33334350585938)"><path d="M102.76 157.13 C104.69 168, 106.62 178.87, 108 186.67" stroke="#000000" stroke-width="1.5" fill="none"/></g></g><g stroke-linecap="round"><g transform="translate(570.5063319616842 158.584099356264) rotate(0 -172.66665649414062 88.66667175292969)"><path d="M0 0 C-57.56 29.56, -287.78 147.78, -345.33 177.33" stroke="#000000" stroke-width="1.5" fill="none" stroke-dasharray="8 9"/></g></g></svg>