<?xml version="1.0" encoding="UTF-8" standalone="no"?>
<!-- Created with Inkscape (http://www.inkscape.org/) -->

<svg
   width="90.260895mm"
   height="25.567717mm"
   viewBox="0 0 90.260897 25.567717"
   version="1.1"
   id="svg1"
   inkscape:version="1.3.2 (091e20ef0f, 2023-11-25)"
   sodipodi:docname="5b.svg"
   xmlns:inkscape="http://www.inkscape.org/namespaces/inkscape"
   xmlns:sodipodi="http://sodipodi.sourceforge.net/DTD/sodipodi-0.dtd"
   xmlns="http://www.w3.org/2000/svg"
   xmlns:svg="http://www.w3.org/2000/svg">
  <sodipodi:namedview
     id="namedview1"
     pagecolor="#ffffff"
     bordercolor="#000000"
     borderopacity="0.25"
     inkscape:showpageshadow="2"
     inkscape:pageopacity="0.0"
     inkscape:pagecheckerboard="0"
     inkscape:deskcolor="#d1d1d1"
     inkscape:document-units="mm"
     inkscape:zoom="4.9415767"
     inkscape:cx="149.64859"
     inkscape:cy="73.6607"
     inkscape:window-width="2560"
     inkscape:window-height="1600"
     inkscape:window-x="0"
     inkscape:window-y="0"
     inkscape:window-maximized="1"
     inkscape:current-layer="layer1">
    <inkscape:page
       x="0"
       y="0"
       width="90.260902"
       height="25.567717"
       id="page61"
       margin="5.0000005"
       bleed="0" />
  </sodipodi:namedview>
  <defs
     id="defs1">
    <inkscape:path-effect
       effect="powerstroke"
       id="path-effect8"
       is_visible="true"
       lpeversion="1.3"
       scale_width="1"
       interpolator_type="CentripetalCatmullRom"
       interpolator_beta="0.75"
       start_linecap_type="round"
       end_linecap_type="round"
       offset_points="54.761031,0.20078359"
       linejoin_type="spiro"
       miter_limit="4"
       not_jump="true"
       sort_points="true"
       message="&lt;b&gt;Ctrl + click&lt;/b&gt; on existing node and move it" />
    <inkscape:path-effect
       effect="simplify"
       id="path-effect7"
       is_visible="true"
       lpeversion="1.3"
       threshold="0.012"
       steps="1"
       smooth_angles="0"
       helper_size="0"
       simplify_individual_paths="false"
       simplify_just_coalesce="false"
       step="1" />
    <marker
       style="overflow:visible"
       id="ArrowWideHeavy"
       refX="0"
       refY="0"
       orient="auto-start-reverse"
       inkscape:stockid="Wide, heavy arrow"
       markerWidth="1"
       markerHeight="1"
       viewBox="0 0 1 1"
       inkscape:isstock="true"
       inkscape:collect="always"
       preserveAspectRatio="xMidYMid">
      <path
         style="fill:context-stroke;fill-rule:evenodd;stroke:none"
         d="m 1,0 -3,3 h -2 l 3,-3 -3,-3 h 2 z"
         id="path5" />
    </marker>
    <marker
       style="overflow:visible"
       id="ArrowWideHeavy-6"
       refX="0"
       refY="0"
       orient="auto-start-reverse"
       inkscape:stockid="Wide, heavy arrow"
       markerWidth="1"
       markerHeight="1"
       viewBox="0 0 1 1"
       inkscape:isstock="true"
       inkscape:collect="always"
       preserveAspectRatio="xMidYMid">
      <path
         style="fill:context-stroke;fill-rule:evenodd;stroke:none"
         d="m 1,0 -3,3 h -2 l 3,-3 -3,-3 h 2 z"
         id="path5-2" />
    </marker>
    <marker
       style="overflow:visible"
       id="ArrowWideHeavy-6-0"
       refX="0"
       refY="0"
       orient="auto-start-reverse"
       inkscape:stockid="Wide, heavy arrow"
       markerWidth="1"
       markerHeight="1"
       viewBox="0 0 1 1"
       inkscape:isstock="true"
       inkscape:collect="always"
       preserveAspectRatio="xMidYMid">
      <path
         style="fill:context-stroke;fill-rule:evenodd;stroke:none"
         d="m 1,0 -3,3 h -2 l 3,-3 -3,-3 h 2 z"
         id="path5-2-9" />
    </marker>
    <marker
       style="overflow:visible"
       id="ArrowWideHeavy-2"
       refX="0"
       refY="0"
       orient="auto-start-reverse"
       inkscape:stockid="Wide, heavy arrow"
       markerWidth="1"
       markerHeight="1"
       viewBox="0 0 1 1"
       inkscape:isstock="true"
       inkscape:collect="always"
       preserveAspectRatio="xMidYMid">
      <path
         style="fill:context-stroke;fill-rule:evenodd;stroke:none"
         d="m 1,0 -3,3 h -2 l 3,-3 -3,-3 h 2 z"
         id="path5-6" />
    </marker>
    <marker
       style="overflow:visible"
       id="ArrowWideHeavy-6-2"
       refX="0"
       refY="0"
       orient="auto-start-reverse"
       inkscape:stockid="Wide, heavy arrow"
       markerWidth="1"
       markerHeight="1"
       viewBox="0 0 1 1"
       inkscape:isstock="true"
       inkscape:collect="always"
       preserveAspectRatio="xMidYMid">
      <path
         style="fill:context-stroke;fill-rule:evenodd;stroke:none"
         d="m 1,0 -3,3 h -2 l 3,-3 -3,-3 h 2 z"
         id="path5-2-0" />
    </marker>
    <marker
       style="overflow:visible"
       id="ArrowWideHeavy-2-9"
       refX="0"
       refY="0"
       orient="auto-start-reverse"
       inkscape:stockid="Wide, heavy arrow"
       markerWidth="1"
       markerHeight="1"
       viewBox="0 0 1 1"
       inkscape:isstock="true"
       inkscape:collect="always"
       preserveAspectRatio="xMidYMid">
      <path
         style="fill:context-stroke;fill-rule:evenodd;stroke:none"
         d="m 1,0 -3,3 h -2 l 3,-3 -3,-3 h 2 z"
         id="path5-6-2" />
    </marker>
  </defs>
  <g
     inkscape:label="Layer 1"
     inkscape:groupmode="layer"
     id="layer1"
     transform="translate(-36.484019,-90.325136)">
    <rect
       style="fill:#ffffff;stroke-width:1;stroke-linecap:round;stroke-linejoin:round"
       id="rect10"
       width="90.260895"
       height="25.567717"
       x="36.48402"
       y="90.325134"
       transform="translate(-1.25e-6)" />
    <g
       id="g8"
       transform="translate(-12.314727,4.8188061)">
      <path
         style="fill:none;stroke:#000000;stroke-width:0.5;stroke-dasharray:none;stroke-opacity:1;marker-end:url(#ArrowWideHeavy)"
         d="m 66.936686,100.78363 v 4.24033"
         id="path4" />
      <path
         style="fill:none;stroke:#000000;stroke-width:0.499999;stroke-dasharray:none;stroke-opacity:1;marker-end:url(#ArrowWideHeavy)"
         d="M 66.91079,100.60214 V 96.664695"
         id="path6" />
      <g
         id="g1"
         transform="translate(1.0600833,1.5144047)">
        <path
           style="fill:none;stroke:#000000;stroke-width:0.3;stroke-linecap:round;stroke-linejoin:round;stroke-dasharray:none;stroke-opacity:1"
           d="m 68.126824,101.72183 c 0.159404,-0.53731 0.518899,-1.09543 0.776365,-1.56611 1.321416,-2.415717 3.199267,-3.533987 5.795951,-4.203077 0.355275,-0.0915 0.713238,-0.17237 1.070846,-0.25432 0.05364,-0.0123 0.41747,-0.11896 0.48188,-0.0803 0.02786,0.0167 0.01786,0.0625 0.02677,0.0937"
           id="path15" />
        <path
           style="fill:none;stroke:#000000;stroke-width:0.3;stroke-linecap:round;stroke-linejoin:round;stroke-dasharray:none;stroke-opacity:1"
           d="m 77.135315,95.029043 c 0.141838,0.29578 0.195969,0.61471 0.24094,0.93699 0.02056,0.14739 0.0024,0.24634 0.04016,0.24094 0.139176,-0.0199 0.276596,-0.87334 0.388176,-0.60235 0.0597,0.14489 0.22345,0.70428 0.49527,0.60235 0.21738,-0.0815 0.36823,-0.88345 0.0937,-0.88345"
           id="path16" />
        <path
           style="fill:none;stroke:#000000;stroke-width:0.3;stroke-linecap:round;stroke-linejoin:round;stroke-dasharray:none;stroke-opacity:1"
           d="m 77.322712,94.573933 c 0.382239,-0.05858 0.848309,-0.04295 1.218089,0.08031 0.0399,0.0133 -0.0826,-0.03267 -0.10709,-0.06692 -0.0652,-0.09129 -0.0917,-0.18355 -0.18739,-0.240941"
           id="path17" />
        <path
           style="fill:none;stroke:#000000;stroke-width:0.3;stroke-linecap:round;stroke-linejoin:round;stroke-dasharray:none;stroke-opacity:1"
           d="m 78.621111,96.782553 c -0.0368,-0.0893 0.43106,-0.73403 0.49527,-0.68266 0.0879,0.0703 0.0974,0.61357 0.14724,0.76297 0.0153,0.0458 0.0587,0.16364 0.0803,0.12047 0.006,-0.0126 -0.009,-0.0268 -0.0134,-0.0401"
           id="path18" />
        <path
           style="fill:none;stroke:#000000;stroke-width:0.3;stroke-linecap:round;stroke-linejoin:round;stroke-dasharray:none;stroke-opacity:1"
           d="m 78.878201,96.367073 c 0.13711,-0.0613 0.30511,0.006 0.30511,0.17811"
           id="path19" />
      </g>
      <g
         id="g2"
         transform="translate(-20.823064,-11.433755)">
        <path
           style="fill:none;stroke:#000000;stroke-width:0.3;stroke-linecap:round;stroke-linejoin:round;stroke-dasharray:none;stroke-opacity:1"
           d="m 85.707822,108.34283 c -0.326604,-0.17575 -0.486092,-0.53128 -0.803135,-0.72282 -0.856583,-0.51752 -1.877028,-0.62883 -2.83774,-0.82991 -0.847538,-0.17739 -1.424298,-0.37585 -2.275549,-0.12047 -0.141968,0.0426 -0.285372,0.16276 -0.414952,0.22755"
           id="path20" />
        <path
           style="fill:none;stroke:#000000;stroke-width:0.3;stroke-linecap:round;stroke-linejoin:round;stroke-dasharray:none;stroke-opacity:1"
           d="m 74.77181,107.76725 c 0.102621,-0.33018 0.06973,-0.73986 0.307866,-0.99054 0.005,-0.005 0.162275,0.41609 0.30787,0.6559 0.04257,0.0701 0.131019,0.24387 0.174011,0.17401 0.189545,-0.30801 0.153514,-0.78142 0.214169,-1.13777 0.08289,-0.48696 0,-0.36404 0,-0.30908"
           id="path21" />
        <path
           style="fill:none;stroke:#000000;stroke-width:0.3;stroke-linecap:round;stroke-linejoin:round;stroke-dasharray:none;stroke-opacity:1"
           d="m 74.89228,105.83972 c 0.197157,-0.0789 0.136663,-0.0569 0.401566,-0.14724 0.22147,-0.0755 0.301657,-0.11274 0.508651,-0.14724 0.0065,-0.001 0.294484,-0.0188 0.294484,-0.0402 0,-0.0622 -0.21762,-0.35451 -0.267711,-0.25432"
           id="path22" />
        <path
           style="fill:none;stroke:#000000;stroke-width:0.3;stroke-linecap:round;stroke-linejoin:round;stroke-dasharray:none;stroke-opacity:1"
           d="m 76.137137,108.16881 c -0.0089,0.0223 -0.04908,0.058 -0.02677,0.0669 0.04248,0.017 0.40046,-1.0706 0.522036,-1.09762 0.0517,-0.0115 0.241787,0.73762 0.321255,0.87007"
           id="path23" />
        <path
           style="fill:none;stroke:#000000;stroke-width:0.3;stroke-linecap:round;stroke-linejoin:round;stroke-dasharray:none;stroke-opacity:1"
           d="m 76.364692,107.68862 c 0.06212,-0.0723 0.334639,-0.13281 0.334639,0"
           id="path24" />
        <path
           style="fill:none;stroke:#000000;stroke-width:0.3;stroke-linecap:round;stroke-linejoin:round;stroke-dasharray:none;stroke-opacity:1"
           d="m 77.381996,108.04834 c -0.05907,-0.11813 -0.04047,-0.0622 -0.06693,-0.22755 -0.04138,-0.25862 -0.03498,-0.17606 0.01339,-0.49527 0.03532,-0.2331 0.03148,-0.2555 0.294484,-0.32125 0.07568,-0.0189 0.215842,-0.0519 0.281096,0.0134 0.226962,0.22696 -0.33464,0.50829 -0.33464,0.54881 0,0.0134 0.02703,-0.003 0.04016,0 0.131108,0.0262 0.307146,0.14235 0.24094,0.30787 -0.08499,0.21247 -0.671129,-0.0286 -0.468495,0.17401 z"
           id="path25" />
      </g>
      <circle
         style="fill:#000000;stroke-width:1;stroke-linecap:round;stroke-linejoin:round"
         id="path1"
         cx="66.862427"
         cy="100.81616"
         r="1.4386843" />
    </g>
    <g
       id="g9"
       transform="translate(-7.4959206,0.5354229)">
      <path
         style="fill:none;stroke:#000000;stroke-width:0.5;stroke-dasharray:none;stroke-opacity:1;marker-end:url(#ArrowWideHeavy-6)"
         d="m 93.211608,103.05523 v 4.24033"
         id="path4-1" />
      <path
         style="fill:none;stroke:#000000;stroke-width:0.5;stroke-dasharray:none;stroke-opacity:1;marker-end:url(#ArrowWideHeavy-6-0)"
         d="m 93.226341,105.6171 v 4.24033"
         id="path4-1-6" />
      <path
         style="fill:none;stroke:#000000;stroke-width:0.499999;stroke-dasharray:none;stroke-opacity:1;marker-end:url(#ArrowWideHeavy-2)"
         d="M 93.196026,102.80284 V 98.86539"
         id="path6-8" />
      <g
         id="g3"
         transform="translate(3.9374521,-4.3917735)">
        <path
           style="fill:none;stroke:#000000;stroke-width:0.3;stroke-linecap:round;stroke-linejoin:round;stroke-dasharray:none;stroke-opacity:1"
           d="m 91.597474,113.91122 c 0.29546,-0.11364 0.256061,-0.0826 0.615735,-0.37479 0.553416,-0.44965 1.006295,-1.01092 1.525955,-1.49919 0.886053,-0.83253 1.869882,-1.48982 2.931441,-2.07476 0.135043,-0.0744 0.92466,-0.57523 1.003919,-0.54881"
           id="path26" />
        <path
           style="fill:none;stroke:#000000;stroke-width:0.3;stroke-linecap:round;stroke-linejoin:round;stroke-dasharray:none;stroke-opacity:1"
           d="m 98.102863,109.74831 c 0,-0.25513 -0.01082,-0.0275 0.0937,-0.45511 2.65e-4,-0.001 0.128336,-0.59528 0.147243,-0.56219 0.08551,0.14964 0.61413,1.41781 0.629121,0.80313 0.0034,-0.13835 -0.0084,-0.27665 -0.01339,-0.41495 -0.0072,-0.19781 -0.01339,-0.39172 -0.01339,-0.58926"
           id="path27" />
        <path
           style="fill:none;stroke:#000000;stroke-width:0.3;stroke-linecap:round;stroke-linejoin:round;stroke-dasharray:none;stroke-opacity:1"
           d="m 97.95249,107.8074 c 0.08582,-0.009 0.171834,-0.0161 0.257455,-0.0268 0.09393,-0.0117 0.186759,-0.0325 0.281099,-0.0401 0.07116,-0.006 0.14278,0 0.21417,0 0.319082,0 0.04125,-0.009 0.24094,0.0134 0.159604,0.0177 -0.187399,-0.25867 -0.187399,-0.30813"
           id="path28" />
        <path
           style="fill:none;stroke:#000000;stroke-width:0.3;stroke-linecap:round;stroke-linejoin:round;stroke-dasharray:none;stroke-opacity:1"
           d="m 99.398504,110.02941 c 0.0052,-0.1771 0.0097,-0.0402 -0.05078,-0.30787 -0.06543,-0.28975 -0.115218,-0.24252 0.147241,-0.32125 0.07155,-0.0215 0.307869,-0.0533 0.307869,0.0803 0,0.1124 -0.182079,0.15224 -0.254326,0.21417 -0.01968,0.0168 0.32403,0.071 0.281096,0.21417 -0.05704,0.19014 -0.29097,0.19825 -0.431096,0.12047 z"
           id="path29" />
        <path
           style="fill:none;stroke:#000000;stroke-width:0.3;stroke-linecap:round;stroke-linejoin:round;stroke-dasharray:none;stroke-opacity:1"
           d="m 99.98158,110.22624 c 0.03887,-0.12526 0.11817,-0.74564 0.19605,-0.74564 0.10218,0 0.35498,0.53596 0.38818,0.60235"
           id="path30" />
        <path
           style="fill:none;stroke:#000000;stroke-width:0.3;stroke-linecap:round;stroke-linejoin:round;stroke-dasharray:none;stroke-opacity:1"
           d="m 100.13747,109.85342 c 0.28016,0.0936 0.16732,-0.0716 0.42834,0.22953"
           id="path31" />
      </g>
      <g
         id="g4"
         transform="translate(5.6790174,-12.645279)">
        <path
           style="fill:none;stroke:#000000;stroke-width:0.3;stroke-linecap:round;stroke-linejoin:round;stroke-dasharray:none;stroke-opacity:1"
           d="m 89.937663,117.03006 c 0.795105,0.0913 1.526143,-0.0635 2.262161,-0.36141 0.114268,-0.0463 0.578575,-0.21387 0.655894,-0.3167"
           id="path32" />
        <path
           style="fill:none;stroke:#000000;stroke-width:0.3;stroke-linecap:round;stroke-linejoin:round;stroke-dasharray:none;stroke-opacity:1"
           d="m 93.377754,115.98599 c 0.12505,0.23224 0.151236,0.26906 0.267714,0.57558 0.08765,0.23066 0.143155,0.49317 0.174011,0.46849 0.0075,-0.006 0.106185,-0.80319 0.12047,-0.89683 0.01307,-0.0857 0.03475,-0.16976 0.05354,-0.25433 0.008,-0.0359 -0.0048,-0.12601 0.02677,-0.10708 0.05787,0.0347 0.18415,0.94198 0.388181,1.07084 0.244112,0.15418 0.282667,-1.23617 0.227555,-1.07084"
           id="path33" />
        <path
           style="fill:none;stroke:#000000;stroke-width:0.3;stroke-linecap:round;stroke-linejoin:round;stroke-dasharray:none;stroke-opacity:1"
           d="m 93.297443,115.30929 c 0.290033,0.0503 0.628589,-0.0855 0.923602,-0.13982 0.07143,-0.0132 0.14234,-0.0294 0.214169,-0.0402 0.02207,-0.003 0.05115,0.0158 0.06693,0 0.0071,-0.007 -0.186182,-0.3103 -0.227554,-0.22755"
           id="path34" />
        <path
           style="fill:none;stroke:#000000;stroke-width:0.3;stroke-linecap:round;stroke-linejoin:round;stroke-dasharray:none;stroke-opacity:1"
           d="m 95.198193,117.20604 c -0.0391,-0.20599 -0.179564,-0.52197 -0.254325,-0.76494 -0.0026,-0.009 0.01807,0.002 0.02677,0 0.07607,-0.0169 0.15325,-0.0301 0.227555,-0.0536 0.07117,-0.0225 0.251156,-0.12802 0.33464,-0.0803 0.01598,0.009 0.01868,0.0359 0.01339,0.0535 -0.05252,0.17506 -0.11198,0.27016 -0.267713,0.34803 -0.0341,0.017 -0.08013,0.0132 -0.107083,0.0402 -0.02822,0.0282 0.07015,0.0384 0.107083,0.0535 0.131622,0.0538 0.346411,0.11314 0.294484,0.30787 -0.05857,0.21962 -0.664988,0.21394 -0.374796,0.0957 z"
           id="path35" />
      </g>
      <g
         id="g5"
         transform="translate(9.6921898,-13.856803)">
        <path
           style="fill:none;stroke:#000000;stroke-width:0.3;stroke-linecap:round;stroke-linejoin:round;stroke-dasharray:none;stroke-opacity:1"
           d="m 81.585066,115.60889 c -0.668316,-0.94182 -1.851173,-1.11359 -2.90467,-1.26933 -0.457446,-0.0676 -0.953455,-0.13385 -1.41887,-0.13385 -0.405236,0 -0.559882,0.0288 -0.843291,0.29448 -0.03621,0.0339 -0.222996,0.14695 -0.24094,0.20078 -0.0168,0.0504 -0.02717,0.11213 0.0374,0.0365"
           id="path36" />
        <path
           style="fill:none;stroke:#000000;stroke-width:0.3;stroke-linecap:round;stroke-linejoin:round;stroke-dasharray:none;stroke-opacity:1"
           d="m 72.375791,115.2364 c -0.02257,-0.31572 0.06908,-0.67736 0.174014,-0.97715 0.0053,-0.0152 0.01408,-0.05 0.02677,-0.0402 0.145246,0.11297 0.387088,0.64317 0.481881,0.80314 0.0016,0.003 0.0904,0.1773 0.107084,0.16062 0.04826,-0.0483 0.0236,-0.13456 0.04016,-0.20078 0.04344,-0.17377 0.348025,-1.05425 0.348025,-1.21809 0,-0.0223 -0.04462,0 -0.06693,0"
           id="path37" />
        <path
           style="fill:none;stroke:#000000;stroke-width:0.3;stroke-linecap:round;stroke-linejoin:round;stroke-dasharray:none;stroke-opacity:1"
           d="m 72.429335,113.45611 c 0.0052,-0.31503 1.113843,-0.36283 1.271627,-0.44172 0.0089,-0.004 -0.01932,-0.007 -0.02677,-0.0134 -0.03773,-0.0335 -0.06733,-0.076 -0.107084,-0.10708 -0.112242,-0.0878 -0.235247,-0.22366 -0.321252,-0.0803"
           id="path38" />
        <path
           style="fill:none;stroke:#000000;stroke-width:0.3;stroke-linecap:round;stroke-linejoin:round;stroke-dasharray:none;stroke-opacity:1"
           d="m 73.703724,115.75889 c -0.02099,0.0342 0.01064,0.16021 0.01064,0.12001 0,-0.31317 -0.09273,-0.64835 -0.01064,-0.9716 0.09341,-0.16806 0.823964,-0.0192 0.653133,0.20863 -0.09167,0.12222 -0.312286,0.11748 -0.441724,0.16062 -0.04317,0.0144 0.09101,0.0115 0.133856,0.0268 0.138044,0.0493 0.376314,0.10329 0.294482,0.30787 -0.03344,0.0836 -0.712258,0.11071 -0.492194,-0.002"
           id="path39" />
        <path
           style="fill:none;stroke:#000000;stroke-width:0.3;stroke-linecap:round;stroke-linejoin:round;stroke-dasharray:none;stroke-opacity:1"
           d="m 74.532365,114.9073 c 0.238479,-0.26494 0.861115,0.10899 1.06935,-0.0992"
           id="path40" />
        <path
           style="fill:none;stroke:#000000;stroke-width:0.3;stroke-linecap:round;stroke-linejoin:round;stroke-dasharray:none;stroke-opacity:1"
           d="m 74.985977,114.8577 c -0.0089,0.0415 -0.02677,0.082 -0.02677,0.12437 0,0.19486 0.02201,0.37692 0.01339,0.57558 -0.0011,0.0267 -0.02228,0.0952 0,0.0803 0.05308,-0.0354 0.0514,-0.11938 0.09445,-0.16646"
           id="path41" />
      </g>
      <circle
         style="fill:#000000;stroke-width:1;stroke-linecap:round;stroke-linejoin:round"
         id="path1-3"
         cx="93.197594"
         cy="102.79256"
         r="1.4386843" />
    </g>
    <g
       id="g10"
       transform="translate(-2.2487762,2.034607)">
      <path
         style="fill:none;stroke:#000000;stroke-width:0.5;stroke-dasharray:none;stroke-opacity:1;marker-end:url(#ArrowWideHeavy-6-2)"
         d="m 112.56405,102.6514 v 4.24033"
         id="path4-1-3" />
      <path
         style="fill:none;stroke:#000000;stroke-width:0.499999;stroke-dasharray:none;stroke-opacity:1;marker-end:url(#ArrowWideHeavy-2-9)"
         d="M 112.50931,102.46816 V 98.530709"
         id="path6-8-8" />
      <g
         id="g6"
         transform="translate(22.261748,-16.35557)">
        <path
           style="fill:none;stroke:#000000;stroke-width:0.3;stroke-linecap:round;stroke-linejoin:round;stroke-dasharray:none;stroke-opacity:1"
           d="m 92.226595,121.51423 c 0.08031,0.004 0.161938,-0.002 0.24094,0.0134 0.436972,0.0837 0.849434,0.29227 1.218088,0.53542 0.08493,0.056 0.164368,0.1204 0.240941,0.1874 0.03358,0.0294 0.04876,0.13863 0.08031,0.10708 0.02519,-0.0252 0.07419,-0.0937 0.01101,-0.0937"
           id="path42" />
        <path
           style="fill:none;stroke:#000000;stroke-width:0.3;stroke-linecap:round;stroke-linejoin:round;stroke-dasharray:none;stroke-opacity:1"
           d="m 94.793693,123.36144 c -0.123275,-0.12893 -0.06113,-0.0282 -0.02384,-0.30787 0.01603,-0.12015 0.01826,-0.24219 0.04016,-0.36141 0.248811,-1.35464 0.839279,1.68134 1.05746,0.65589 0.03099,-0.14566 0.05536,-0.29325 0.06693,-0.44172 0.01527,-0.19578 0.0071,-0.3927 0.01339,-0.58897 0.0044,-0.13809 0,-0.24754 0,-0.37865"
           id="path43" />
        <path
           style="fill:none;stroke:#000000;stroke-width:0.3;stroke-linecap:round;stroke-linejoin:round;stroke-dasharray:none;stroke-opacity:1"
           d="m 94.793693,121.55439 c 0.134834,0 0.269666,0 0.4045,0 0.307121,0 0.632217,0.0522 0.93699,0.0268 0.03206,-0.003 -0.03777,-0.0523 -0.05354,-0.0803 -0.02935,-0.0522 -0.05354,-0.10708 -0.08031,-0.16062 -0.04797,-0.0959 -0.06084,-0.34073 -0.174014,-0.22756"
           id="path44" />
        <path
           style="fill:none;stroke:#000000;stroke-width:0.3;stroke-linecap:round;stroke-linejoin:round;stroke-dasharray:none;stroke-opacity:1"
           d="m 96.376124,123.17404 c 0.23219,0.023 0.476469,0.0783 0.69605,0.16063"
           id="path45" />
        <path
           style="fill:none;stroke:#000000;stroke-width:0.3;stroke-linecap:round;stroke-linejoin:round;stroke-dasharray:none;stroke-opacity:1"
           d="m 96.673407,123.21994 c -0.0054,0.065 -0.01566,0.12981 -0.01619,0.19504 -0.0019,0.22172 0,0.44623 0,0.66928 0,0.0493 0.0359,0.14724 -0.01339,0.14724 -0.01339,0 0,-0.0268 0,-0.0402"
           id="path46" />
        <path
           style="fill:none;stroke:#000000;stroke-width:0.3;stroke-linecap:round;stroke-linejoin:round;stroke-dasharray:none;stroke-opacity:1"
           d="m 97.222174,124.28504 c 0.07062,-0.21607 0.047,-0.44605 0.06417,-0.66928 0.003,-0.0386 0.02024,-0.28794 0.06693,-0.33464 0.07154,-0.0715 0.47861,-0.0366 0.522038,0.0937 0.05132,0.15395 -0.103068,0.28578 -0.227555,0.34803 -0.05188,0.0259 -0.189404,0.0166 -0.160628,0.0669 0.0639,0.11182 0.20846,0.20471 0.24094,0.33463 0.06649,0.26594 -0.375314,0.19414 -0.505891,0.16063 z"
           id="path47" />
      </g>
      <g
         id="g7">
        <path
           style="fill:none;stroke:#000000;stroke-width:0.3;stroke-linecap:round;stroke-linejoin:round;stroke-dasharray:none;stroke-opacity:1"
           d="m 115.09327,99.149329 c 0.23543,-0.3027 0.20751,-0.29457 0.68148,-0.60576 1.11675,-0.73322 2.57619,-1.64722 3.95638,-1.02223 0.47461,0.21492 0.97834,0.79507 0.77614,0.79507"
           id="path48" />
        <path
           style="fill:none;stroke:#000000;stroke-width:0.3;stroke-linecap:round;stroke-linejoin:round;stroke-dasharray:none;stroke-opacity:1"
           d="m 121.16982,99.299329 c 0.085,-0.29433 0.002,0.016 0.0947,-0.5286 0.028,-0.1647 0.0562,-0.32961 0.0947,-0.49218 0.22784,-0.96202 0.37546,1.01643 0.79506,0.9465 0.13278,-0.0221 0.0568,-1.38701 0.0568,-0.99334"
           id="path49" />
        <path
           style="fill:none;stroke:#000000;stroke-width:0.3;stroke-linecap:round;stroke-linejoin:round;stroke-dasharray:none;stroke-opacity:1"
           d="m 122.61323,98.931629 c 0.15271,0.0292 0.44648,-0.0883 0.55844,0.0237"
           id="path55" />
        <path
           style="fill:none;stroke:#000000;stroke-width:0.3;stroke-linecap:round;stroke-linejoin:round;stroke-dasharray:none;stroke-opacity:1"
           d="m 122.91611,98.936369 c -0.032,0.0956 0.0841,0.4661 -0.005,0.52531"
           id="path56" />
        <path
           style="fill:none;stroke:#000000;stroke-width:0.3;stroke-linecap:round;stroke-linejoin:round;stroke-dasharray:none;stroke-opacity:1"
           d="m 123.38937,98.851179 c 0.14113,0.006 0.33648,0.0295 0.45432,0"
           id="path59" />
        <path
           style="fill:none;stroke:#000000;stroke-width:0.3;stroke-linecap:round;stroke-linejoin:round;stroke-dasharray:none;stroke-opacity:1"
           d="m 123.46035,99.272369 c 0.0156,0.001 0.46399,0.0379 0.36914,0.0142"
           id="path60" />
        <path
           style="fill:none;stroke:#000000;stroke-width:0.3;stroke-linecap:round;stroke-linejoin:round;stroke-dasharray:none;stroke-opacity:1"
           d="m 123.38463,98.780189 c 0.023,0.0921 0.0166,0.0551 0.0284,0.18931 0.0166,0.18763 0.0152,0.37661 0.0379,0.56316 0.002,0.0194 0.0142,0.0373 0.0142,0.0568 0,0.0284 -0.0168,0.18995 -0.0284,0.0852"
           id="path61" />
      </g>
      <circle
         style="fill:#000000;stroke-width:1;stroke-linecap:round;stroke-linejoin:round"
         id="path1-3-1"
         cx="112.51218"
         cy="102.79256"
         r="1.4386843" />
    </g>
    <text
       xml:space="preserve"
       style="font-style:italic;font-size:2.2015px;font-family:'TeX Gyre Schola';-inkscape-font-specification:'TeX Gyre Schola Italic';fill:#000000;stroke-width:0.693387;stroke-linecap:round;stroke-linejoin:round"
       x="51.45414"
       y="97.403152"
       id="text10"><tspan
         sodipodi:role="line"
         id="tspan10"
         style="font-style:normal;font-variant:normal;font-weight:normal;font-stretch:normal;font-family:sans-serif;-inkscape-font-specification:sans-serif;stroke-width:0.693387"
         x="51.45414"
         y="97.403152">Apple</tspan></text>
    <text
       xml:space="preserve"
       style="font-style:italic;font-size:2.2015px;font-family:'TeX Gyre Schola';-inkscape-font-specification:'TeX Gyre Schola Italic';fill:#000000;stroke-width:0.693387;stroke-linecap:round;stroke-linejoin:round"
       x="82.504745"
       y="96.998276"
       id="text10-3"><tspan
         sodipodi:role="line"
         id="tspan10-6"
         style="font-style:normal;font-variant:normal;font-weight:normal;font-stretch:normal;font-family:sans-serif;-inkscape-font-specification:sans-serif;stroke-width:0.693387"
         x="82.504745"
         y="96.998276">Book</tspan></text>
    <text
       xml:space="preserve"
       style="font-style:italic;font-size:2.2015px;font-family:'TeX Gyre Schola';-inkscape-font-specification:'TeX Gyre Schola Italic';fill:#000000;stroke-width:0.693387;stroke-linecap:round;stroke-linejoin:round"
       x="107.10536"
       y="97.237831"
       id="text10-3-1"><tspan
         sodipodi:role="line"
         id="tspan10-6-8"
         style="font-style:normal;font-variant:normal;font-weight:normal;font-stretch:normal;font-family:sans-serif;-inkscape-font-specification:sans-serif;stroke-width:0.693387"
         x="107.10536"
         y="97.237831">Table</tspan></text>
  </g>
</svg>
