<?xml version="1.0" encoding="UTF-8" standalone="no"?>
<!-- Created with Inkscape (http://www.inkscape.org/) -->

<svg
   width="139.57153mm"
   height="76.078712mm"
   viewBox="0 0 139.57153 76.078712"
   version="1.1"
   id="svg1"
   inkscape:version="1.3.2 (091e20ef0f, 2023-11-25)"
   sodipodi:docname="7.svg"
   xmlns:inkscape="http://www.inkscape.org/namespaces/inkscape"
   xmlns:sodipodi="http://sodipodi.sourceforge.net/DTD/sodipodi-0.dtd"
   xmlns="http://www.w3.org/2000/svg"
   xmlns:svg="http://www.w3.org/2000/svg">
  <sodipodi:namedview
     id="namedview1"
     pagecolor="#ffffff"
     bordercolor="#000000"
     borderopacity="0.25"
     inkscape:showpageshadow="2"
     inkscape:pageopacity="0.0"
     inkscape:pagecheckerboard="0"
     inkscape:deskcolor="#d1d1d1"
     inkscape:document-units="mm"
     inkscape:zoom="2.0453984"
     inkscape:cx="260.82938"
     inkscape:cy="176.49373"
     inkscape:window-width="2560"
     inkscape:window-height="1440"
     inkscape:window-x="2560"
     inkscape:window-y="0"
     inkscape:window-maximized="1"
     inkscape:current-layer="layer1" />
  <defs
     id="defs1">
    <clipPath
       clipPathUnits="userSpaceOnUse"
       id="clipPath569">
      <path
         d="M 0,0 H 769 V 421 H 0 Z"
         transform="matrix(10,0,0,10,-0.00485484,-4.8548402e-5)"
         id="path569" />
    </clipPath>
    <clipPath
       clipPathUnits="userSpaceOnUse"
       id="clipPath570">
      <path
         d="M 0,0 H 769 V 421 H 0 Z"
         transform="matrix(10,0,0,10,-0.00485484,-4.8548402e-5)"
         id="path570" />
    </clipPath>
    <clipPath
       clipPathUnits="userSpaceOnUse"
       id="clipPath571">
      <path
         d="M 0,0 H 769 V 421 H 0 Z"
         transform="matrix(10,0,0,10,-0.00485484,-4.8548402e-5)"
         id="path571" />
    </clipPath>
    <clipPath
       clipPathUnits="userSpaceOnUse"
       id="clipPath572">
      <path
         d="M 0,0 H 769 V 421 H 0 Z"
         transform="matrix(10,0,0,10,-0.00485484,-4.8548402e-5)"
         id="path572" />
    </clipPath>
    <clipPath
       clipPathUnits="userSpaceOnUse"
       id="clipPath573">
      <path
         d="M 0,0 H 769 V 421 H 0 Z"
         transform="matrix(10,0,0,10,-0.00485484,-4.8548402e-5)"
         id="path573" />
    </clipPath>
    <clipPath
       clipPathUnits="userSpaceOnUse"
       id="clipPath574">
      <path
         d="M 0,0 H 769 V 421 H 0 Z"
         transform="matrix(10,0,0,10,-0.00485484,-4.8548402e-5)"
         id="path574" />
    </clipPath>
    <clipPath
       clipPathUnits="userSpaceOnUse"
       id="clipPath575">
      <path
         d="M 0,0 H 769 V 421 H 0 Z"
         transform="matrix(10,0,0,10,-0.00485484,-4.8548402e-5)"
         id="path575" />
    </clipPath>
    <clipPath
       clipPathUnits="userSpaceOnUse"
       id="clipPath576">
      <path
         d="M 0,0 H 769 V 421 H 0 Z"
         transform="matrix(10,0,0,10,-0.00485484,-4.8548402e-5)"
         id="path576" />
    </clipPath>
    <clipPath
       clipPathUnits="userSpaceOnUse"
       id="clipPath577">
      <path
         d="M 0,0 H 769 V 421 H 0 Z"
         transform="matrix(10,0,0,10,-0.00485484,-4.8548402e-5)"
         id="path577" />
    </clipPath>
    <clipPath
       clipPathUnits="userSpaceOnUse"
       id="clipPath578">
      <path
         d="M 0,0 H 769 V 421 H 0 Z"
         transform="matrix(10,0,0,10,-0.00485484,-4.8548402e-5)"
         id="path578" />
    </clipPath>
    <clipPath
       clipPathUnits="userSpaceOnUse"
       id="clipPath579">
      <path
         d="M 0,0 H 769 V 421 H 0 Z"
         transform="matrix(10,0,0,10,-0.00485484,-4.8548402e-5)"
         id="path579" />
    </clipPath>
    <clipPath
       clipPathUnits="userSpaceOnUse"
       id="clipPath580">
      <path
         d="M 0,0 H 769 V 421 H 0 Z"
         transform="matrix(10,0,0,10,-0.00485484,-4.8548402e-5)"
         id="path580" />
    </clipPath>
    <clipPath
       clipPathUnits="userSpaceOnUse"
       id="clipPath581">
      <path
         d="M 0,0 H 769 V 421 H 0 Z"
         transform="matrix(1,0,0,-1,-527.19973,124.2)"
         id="path581" />
    </clipPath>
    <clipPath
       clipPathUnits="userSpaceOnUse"
       id="clipPath582">
      <path
         d="M 0,0 H 769 V 421 H 0 Z"
         transform="matrix(0.34201989,-0.93969271,-0.93969271,-0.34201989,283.65658,228.49542)"
         id="path582" />
    </clipPath>
    <clipPath
       clipPathUnits="userSpaceOnUse"
       id="clipPath583">
      <path
         d="M 0,0 H 769 V 421 H 0 Z"
         transform="matrix(0,-1,-1,0,232.2,68.200311)"
         id="path583" />
    </clipPath>
    <clipPath
       clipPathUnits="userSpaceOnUse"
       id="clipPath584">
      <path
         d="M 0,0 H 769 V 421 H 0 Z"
         transform="matrix(0.97437008,-0.22495102,-0.22495102,-0.97437008,-440.21926,196.771)"
         id="path584" />
    </clipPath>
  </defs>
  <g
     inkscape:label="Layer 1"
     inkscape:groupmode="layer"
     id="layer1"
     transform="translate(-65.881107,-48.154165)">
    <g
       id="g600"
       transform="matrix(0.26458333,0,0,0.26458333,-2627.2289,9.4309487)">
      <path
         d="m 979,4049.4 111.6,20.4 17.4,-126 -111,-21 z"
         style="fill:none;stroke:#000000;stroke-width:9;stroke-linecap:butt;stroke-linejoin:miter;stroke-miterlimit:10;stroke-dasharray:none;stroke-opacity:1"
         transform="matrix(0.06866,0,0,-0.06866,10178.203,434.20933)"
         clip-path="url(#clipPath569)"
         id="path585" />
      <path
         d="m 1087,3897 90,-315 45,90"
         style="fill:none;stroke:#000000;stroke-width:4.5;stroke-linecap:butt;stroke-linejoin:miter;stroke-miterlimit:10;stroke-dasharray:none;stroke-opacity:1"
         transform="matrix(0.06866,0,0,-0.06866,10178.203,434.20933)"
         clip-path="url(#clipPath570)"
         id="path586" />
      <path
         d="m 1087,3627 90,-45"
         style="fill:none;stroke:#000000;stroke-width:4.5;stroke-linecap:butt;stroke-linejoin:miter;stroke-miterlimit:10;stroke-dasharray:none;stroke-opacity:1"
         transform="matrix(0.06866,0,0,-0.06866,10178.203,434.20933)"
         clip-path="url(#clipPath571)"
         id="path587" />
      <path
         d="M 5263.02,18 C 3025.52,207.234 1230.61,1945.71 969.996,4176.02"
         style="fill:none;stroke:#000000;stroke-width:27;stroke-linecap:butt;stroke-linejoin:miter;stroke-miterlimit:10;stroke-dasharray:none;stroke-opacity:1"
         transform="matrix(0.06866,0,0,-0.06866,10178.203,434.20933)"
         clip-path="url(#clipPath572)"
         id="path588" />
      <path
         d="m 6014.2,721.801 c 0,-386.707 -313.49,-700.1994 -700.2,-700.1994 -386.71,0 -700.2,313.4924 -700.2,700.1994 0,386.709 313.49,700.199 700.2,700.199 386.71,0 700.2,-313.49 700.2,-700.199 z"
         style="fill:none;stroke:#000000;stroke-width:27;stroke-linecap:butt;stroke-linejoin:miter;stroke-miterlimit:10;stroke-dasharray:none;stroke-opacity:1"
         transform="matrix(0.06866,0,0,-0.06866,10178.203,434.20933)"
         clip-path="url(#clipPath573)"
         id="path589" />
      <path
         d="M 5317,27 H 7477"
         style="fill:none;stroke:#000000;stroke-width:27;stroke-linecap:butt;stroke-linejoin:miter;stroke-miterlimit:10;stroke-dasharray:none;stroke-opacity:1"
         transform="matrix(0.06866,0,0,-0.06866,10178.203,434.20933)"
         clip-path="url(#clipPath574)"
         id="path590" />
      <path
         d="M 592,4032 H 817"
         style="fill:none;stroke:#000000;stroke-width:4.5;stroke-linecap:butt;stroke-linejoin:miter;stroke-miterlimit:10;stroke-dasharray:none;stroke-opacity:1"
         transform="matrix(0.06866,0,0,-0.06866,10178.203,434.20933)"
         clip-path="url(#clipPath575)"
         id="path591" />
      <path
         d="M 727,4032 V 2457"
         style="fill:none;stroke:#000000;stroke-width:4.5;stroke-linecap:butt;stroke-linejoin:miter;stroke-miterlimit:10;stroke-dasharray:none;stroke-opacity:1"
         transform="matrix(0.06866,0,0,-0.06866,10178.203,434.20933)"
         clip-path="url(#clipPath576)"
         id="path592" />
      <path
         d="M 817,27 H 637"
         style="fill:none;stroke:#000000;stroke-width:4.5;stroke-linecap:butt;stroke-linejoin:miter;stroke-miterlimit:10;stroke-dasharray:none;stroke-opacity:1"
         transform="matrix(0.06866,0,0,-0.06866,10178.203,434.20933)"
         clip-path="url(#clipPath577)"
         id="path593" />
      <path
         d="M 727,27 V 1647"
         style="fill:none;stroke:#000000;stroke-width:4.5;stroke-linecap:butt;stroke-linejoin:miter;stroke-miterlimit:10;stroke-dasharray:none;stroke-opacity:1"
         transform="matrix(0.06866,0,0,-0.06866,10178.203,434.20933)"
         clip-path="url(#clipPath578)"
         id="path594" />
      <path
         d="M 5272,747 4642,927"
         style="fill:none;stroke:#000000;stroke-width:4.5;stroke-linecap:butt;stroke-linejoin:miter;stroke-miterlimit:10;stroke-dasharray:none;stroke-opacity:1"
         transform="matrix(0.06866,0,0,-0.06866,10178.203,434.20933)"
         clip-path="url(#clipPath579)"
         id="path595" />
      <path
         d="M 7,27 H 5272"
         style="fill:none;stroke:#000000;stroke-width:4.5;stroke-linecap:butt;stroke-linejoin:miter;stroke-miterlimit:10;stroke-dasharray:none;stroke-opacity:1"
         transform="matrix(0.06866,0,0,-0.06866,10178.203,434.20933)"
         clip-path="url(#clipPath580)"
         id="path596" />
      <path
         d="m 14.634978,-2.2757349 c 1.069582,-1.3199097 1.752294,-3.5045878 1.752294,-5.6665089 0,-2.3667342 -0.819254,-4.6196842 -2.230192,-6.1444072 -1.388181,-1.501966 -3.185989,-2.230192 -5.4844528,-2.230192 -2.2984634,0 -4.0962715,0.728226 -5.4844524,2.230192 -1.433695,1.524723 -2.23019223,3.777673 -2.23019223,6.1899213 0,2.3894917 0.81925433,4.6651981 2.23019223,6.1899214 1.3881809,1.47920914 3.185989,2.20743518 5.4844524,2.20743518 1.6612658,0 2.8901468,-0.31859889 4.1645428,-1.09233906 l 1.888836,1.77505098 1.661266,-1.77505098 z m -4.073515,-3.8459438 -1.6612652,1.7978081 1.6840232,1.5929944 c -0.523413,0.2730848 -1.2288819,0.4096272 -1.9343509,0.4096272 -2.6398194,0 -4.3921133,-2.2074352 -4.3921133,-5.5754807 0,-3.3908023 1.7295369,-5.5982373 4.4148704,-5.5982373 2.6853338,0 4.4148708,2.207435 4.4148708,5.6209944 0,1.3199097 -0.227571,2.503277 -0.728226,3.4818308 z M 63.483015,52.79067 h 4.096272 c 2.958418,0 4.847254,-2.09365 4.847254,-5.34791 0,-3.231503 -1.820565,-4.983797 -5.165853,-4.983797 h -7.100204 v 16.04373 h 3.322531 z m 0,-2.753605 v -4.824497 h 3.072204 c 1.752294,0 2.571548,0.77374 2.571548,2.389492 0,1.661265 -0.819254,2.435005 -2.571548,2.435005 z M 80.641841,-2.5431304 H 77.592395 V 0.32425964 L 78.47992,3.1688926 h 1.228882 l 0.933039,-2.84463296 z m 5.188611,0 h -3.026689 v 2.86739004 l 0.864768,2.84463296 h 1.228881 l 0.93304,-2.84463296 z m 5.649441,0 H 88.407689 V 13.5006 h 3.072204 z m 8.186854,3.9597291 c -3.618373,0 -5.848566,2.4122488 -5.848566,6.3037067 0,3.9142146 2.230193,6.2809496 5.871323,6.2809496 3.641126,0 5.871326,-2.366735 5.871326,-6.1899214 0,-4.0280003 -2.18468,-6.3947349 -5.894083,-6.3947349 z m 0.02276,2.48052 c 1.684023,0 2.799113,1.5247232 2.799113,3.8687008 0,2.2074352 -1.13785,3.7549155 -2.799113,3.7549155 -1.661266,0 -2.799119,-1.5247233 -2.799119,-3.8004296 0,-2.2984635 1.137853,-3.8231867 2.799119,-3.8231867 z m 13.420973,-2.48052 c -3.61837,0 -5.84856,2.4122488 -5.84856,6.3037067 0,3.9142146 2.23019,6.2809496 5.87132,6.2809496 3.64113,0 5.87132,-2.366735 5.87132,-6.1899214 0,-4.0280003 -2.18468,-6.3947349 -5.89408,-6.3947349 z m 0.0228,2.48052 c 1.68402,0 2.79912,1.5247232 2.79912,3.8687008 0,2.2074352 -1.13786,3.7549155 -2.79912,3.7549155 -1.66127,0 -2.79912,-1.5247233 -2.79912,-3.8004296 0,-2.2984635 1.13785,-3.8231867 2.79912,-3.8231867 z m 11.13958,-2.2757064 h -3.0722 V 18.30234 h 3.0722 v -6.212678 c 0.75099,1.319909 1.82057,1.93435 3.32253,1.93435 2.84464,0 4.96104,-2.685333 4.96104,-6.2809496 0,-1.6840227 -0.4779,-3.3452883 -1.27439,-4.4603845 -0.7965,-1.1150961 -2.27571,-1.8660792 -3.68665,-1.8660792 -1.50196,0 -2.57154,0.6371978 -3.32253,1.9571075 z m 2.61706,2.3667346 c 1.54748,0 2.59431,1.5019662 2.59431,3.8004297 0,2.161921 -1.06958,3.6638874 -2.59431,3.6638874 -1.57023,0 -2.61706,-1.5019664 -2.61706,-3.7094016 0,-2.2529493 1.04683,-3.7549155 2.61706,-3.7549155 z m 18.45029,3.1177177 H 134.25748 V 9.722927 h 11.08269 z m 7.49846,-5.2568817 h -1.70678 V -1.337006 h -3.09496 v 3.1859889 h -1.50197 v 2.0481358 h 1.50197 v 7.3050173 c 0,1.888836 1.00131,2.799119 3.02669,2.799119 0.70546,0 1.20612,-0.06827 1.77505,-0.227571 v -2.161921 c -0.29585,0.04551 -0.45514,0.06827 -0.70547,0.06827 -0.81926,0 -1.00131,-0.250327 -1.00131,-1.297152 V 3.8971187 h 1.70678 z m 2.18467,-4.3921133 V 13.5006 h 3.07221 V 6.3776386 c 0,-1.3654238 1.00131,-2.3439776 2.38949,-2.3439776 0.68271,0 1.18337,0.2503277 1.52472,0.7282261 0.29584,0.4096271 0.36412,0.728226 0.36412,1.4792091 V 13.5006 h 3.0722 V 5.5356272 c 0,-1.4792091 -0.38687,-2.526034 -1.20612,-3.2087459 -0.68272,-0.5689266 -1.68403,-0.9102826 -2.66258,-0.9102826 -1.52472,0 -2.61706,0.5916837 -3.48183,1.9115934 v -5.8713225 z m 23.50236,11.059933 c 0.0228,-0.2503277 0.0228,-0.364113 0.0228,-0.5234125 0,-1.1833673 -0.18206,-2.2757063 -0.4779,-3.1177177 -0.77374,-2.1619211 -2.70809,-3.4590737 -5.09758,-3.4590737 -3.41356,0 -5.50721,2.4577629 -5.50721,6.4402491 0,3.8231862 2.07089,6.1444072 5.43894,6.1444072 2.66257,0 4.82449,-1.501966 5.50721,-3.845944 h -3.04945 c -0.36411,0.955797 -1.22888,1.501966 -2.34398,1.501966 -0.88752,0 -1.59299,-0.38687 -2.02538,-1.046825 -0.29584,-0.432384 -0.38687,-0.9557962 -0.43238,-2.0936494 z m -7.9195,-2.0253787 c 0.18206,-1.8433221 0.9558,-2.7080906 2.32122,-2.7080906 1.41094,0 2.25295,0.9330396 2.3895,2.7080906 z m 20.58377,0.6144407 H 180.10728 V 9.722927 h 11.08269 z m 5.42756,-9.648995 h -3.07221 V 13.5006 h 3.07221 z m 8.18685,3.9597291 c -3.61837,0 -5.84856,2.4122488 -5.84856,6.3037067 0,3.9142146 2.23019,6.2809496 5.87132,6.2809496 3.64113,0 5.87132,-2.366735 5.87132,-6.1899214 0,-4.0280003 -2.18468,-6.3947349 -5.89408,-6.3947349 z m 0.0228,2.48052 c 1.68402,0 2.79912,1.5247232 2.79912,3.8687008 0,2.2074352 -1.13786,3.7549155 -2.79912,3.7549155 -1.66127,0 -2.79912,-1.5247233 -2.79912,-3.8004296 0,-2.2984635 1.13785,-3.8231867 2.79912,-3.8231867 z m 13.42098,-2.48052 c -3.61838,0 -5.84857,2.4122488 -5.84857,6.3037067 0,3.9142146 2.23019,6.2809496 5.87132,6.2809496 3.64113,0 5.87133,-2.366735 5.87133,-6.1899214 0,-4.0280003 -2.18468,-6.3947349 -5.89408,-6.3947349 z m 0.0228,2.48052 c 1.68403,0 2.79912,1.5247232 2.79912,3.8687008 0,2.2074352 -1.13785,3.7549155 -2.79912,3.7549155 -1.66126,0 -2.79911,-1.5247233 -2.79911,-3.8004296 0,-2.2984635 1.13785,-3.8231867 2.79911,-3.8231867 z m 11.14528,-2.2757064 h -3.07221 V 18.30234 h 3.07221 v -6.212678 c 0.75098,1.319909 1.82056,1.93435 3.32253,1.93435 2.84463,0 4.96104,-2.685333 4.96104,-6.2809496 0,-1.6840227 -0.4779,-3.3452883 -1.2744,-4.4603845 -0.7965,-1.1150961 -2.2757,-1.8660792 -3.68664,-1.8660792 -1.50197,0 -2.57155,0.6371978 -3.32253,1.9571075 z m 2.61706,2.3667346 c 1.54748,0 2.5943,1.5019662 2.5943,3.8004297 0,2.161921 -1.06958,3.6638874 -2.5943,3.6638874 -1.57024,0 -2.61706,-1.5019664 -2.61706,-3.7094016 0,-2.2529493 1.04682,-3.7549155 2.61706,-3.7549155 z m 10.61617,-6.5312773 h -3.04945 v 2.86739004 l 0.88753,2.84463296 h 1.22888 l 0.93304,-2.84463296 z m 5.18861,0 h -3.02669 v 2.86739004 l 0.86477,2.84463296 h 1.22888 l 0.93304,-2.84463296 z M -391.44776,-295.04536 h -3.0722 v 16.04373 h 3.0722 z m 6.11596,4.16454 h -3.0722 v 11.87919 h 3.0722 z m 0,-4.16454 h -3.0722 v 2.7536 h 3.0722 z m 8.18686,4.39211 h -1.70678 v -3.18599 h -3.09496 v 3.18599 h -1.50197 v 2.04814 h 1.50197 v 7.30502 c 0,1.88883 1.00131,2.79911 3.02669,2.79911 0.70546,0 1.20612,-0.0683 1.77505,-0.22757 v -2.16192 c -0.29584,0.0455 -0.45514,0.0683 -0.70547,0.0683 -0.81926,0 -1.00131,-0.25032 -1.00131,-1.29715 v -6.48576 h 1.70678 z m 7.32777,0 h -1.70678 v -3.18599 h -3.09496 v 3.18599 h -1.50197 v 2.04814 h 1.50197 v 7.30502 c 0,1.88883 1.00131,2.79911 3.02669,2.79911 0.70547,0 1.20612,-0.0683 1.77505,-0.22757 v -2.16192 c -0.29584,0.0455 -0.45514,0.0683 -0.70547,0.0683 -0.81925,0 -1.00131,-0.25032 -1.00131,-1.29715 v -6.48576 h 1.70678 z m 5.25119,-4.39211 h -3.0722 v 16.04373 h 3.0722 z m 13.10238,11.05993 c 0.0228,-0.25033 0.0228,-0.36411 0.0228,-0.52341 0,-1.18337 -0.18206,-2.27571 -0.4779,-3.11772 -0.77374,-2.16192 -2.70809,-3.45907 -5.09758,-3.45907 -3.41356,0 -5.50721,2.45776 -5.50721,6.44025 0,3.82318 2.07089,6.1444 5.43894,6.1444 2.66258,0 4.8245,-1.50196 5.50721,-3.84594 h -3.04945 c -0.36411,0.9558 -1.22888,1.50197 -2.34398,1.50197 -0.88752,0 -1.59299,-0.38687 -2.02537,-1.04683 -0.29585,-0.43238 -0.38687,-0.95579 -0.43239,-2.09365 z m -7.91945,-2.02538 c 0.18205,-1.84332 0.95579,-2.70809 2.32122,-2.70809 1.41093,0 2.25295,0.93304 2.38949,2.70809 z m 16.02666,-9.03455 v 16.04373 h 3.0722 v -1.20613 c 0.75098,1.16062 1.79781,1.70678 3.29978,1.70678 2.82187,0 4.98379,-2.70809 4.98379,-6.28094 0,-1.61576 -0.4779,-3.23151 -1.27439,-4.39212 -0.81926,-1.16061 -2.27571,-1.91159 -3.7094,-1.91159 -1.50197,0 -2.5488,0.54617 -3.29978,1.75229 v -5.71202 z m 5.68926,6.53128 c 1.50197,0 2.59431,1.54748 2.59431,3.75491 0,2.16192 -1.06958,3.68665 -2.59431,3.68665 -1.57023,0 -2.61706,-1.47921 -2.61706,-3.75492 0,-2.18468 1.06958,-3.68664 2.61706,-3.68664 z m 11.00873,-6.53128 h -3.0722 v 16.04373 h 3.0722 z m 8.18686,3.95973 c -3.61838,0 -5.84857,2.41225 -5.84857,6.30371 0,3.91421 2.23019,6.28094 5.87132,6.28094 3.64113,0 5.87133,-2.36673 5.87133,-6.18992 0,-4.028 -2.18468,-6.39473 -5.89408,-6.39473 z m 0.0228,2.48052 c 1.68403,0 2.79912,1.52472 2.79912,3.8687 0,2.20743 -1.13785,3.75491 -2.79912,3.75491 -1.66126,0 -2.79912,-1.52472 -2.79912,-3.80042 0,-2.29847 1.13786,-3.82319 2.79912,-3.82319 z m 18.29099,2.16192 c -0.22757,-2.89015 -2.13916,-4.64244 -5.14309,-4.64244 -3.5501,0 -5.59824,2.34398 -5.59824,6.39473 0,3.91422 2.04814,6.18992 5.57548,6.18992 2.86739,0 4.87001,-1.77505 5.16585,-4.61968 h -2.95841 c -0.36412,1.54748 -0.97856,2.13916 -2.20744,2.13916 -1.57024,0 -2.50328,-1.38818 -2.50328,-3.7094 0,-1.16061 0.22757,-2.18467 0.59169,-2.89014 0.36411,-0.65996 1.04682,-1.02407 1.91159,-1.02407 1.2744,0 1.86608,0.59168 2.20744,2.16192 z m 5.10896,0.18206 v -8.78423 h -3.0722 v 16.04373 h 3.0722 v -3.89146 l 1.25164,-1.34267 2.82188,5.23413 h 3.61837 l -4.3466,-7.39605 4.05076,-4.48314 h -3.48183 z m 27.47347,7.2595 3.36805,-11.87919 h -3.18599 l -1.82057,8.30633 -1.77505,-8.30633 h -3.0722 l -1.82057,8.30633 -1.88883,-8.30633 h -3.18599 l 3.34528,11.87919 h 3.16324 l 1.88883,-8.3746 1.79781,8.3746 z m 8.16979,-11.87919 h -3.07221 v 11.87919 h 3.07221 z m 0,-4.16454 h -3.07221 v 2.7536 h 3.07221 z m 8.18685,4.39211 h -1.70678 v -3.18599 h -3.09496 v 3.18599 h -1.50197 v 2.04814 h 1.50197 v 7.30502 c 0,1.88883 1.00131,2.79911 3.02669,2.79911 0.70547,0 1.20612,-0.0683 1.77505,-0.22757 v -2.16192 c -0.29584,0.0455 -0.45514,0.0683 -0.70547,0.0683 -0.81925,0 -1.00131,-0.25032 -1.00131,-1.29715 v -6.48576 h 1.70678 z m 2.18468,-4.39211 v 16.04373 h 3.0722 v -7.12296 c 0,-1.36543 1.00131,-2.34398 2.38949,-2.34398 0.68271,0 1.18337,0.25033 1.52473,0.72823 0.29584,0.40962 0.36411,0.72822 0.36411,1.47921 v 7.2595 h 3.0722 v -7.96497 c 0,-1.47921 -0.38687,-2.52604 -1.20612,-3.20875 -0.68271,-0.56893 -1.68402,-0.91028 -2.66258,-0.91028 -1.52472,0 -2.61706,0.59168 -3.48183,1.91159 v -5.87132 z m 19.40039,4.16454 v 11.87919 h 3.07221 v -7.12296 c 0,-1.47921 0.7965,-2.34398 2.1164,-2.34398 1.04683,0 1.68403,0.59168 1.68403,1.54748 v 7.91946 h 3.0722 v -7.12296 c 0,-1.45645 0.7965,-2.34398 2.11641,-2.34398 1.02407,0 1.66126,0.59168 1.66126,1.54748 v 7.91946 h 3.09496 v -8.39736 c 0,-2.32122 -1.41093,-3.68664 -3.80043,-3.68664 -1.50196,0 -2.54879,0.52341 -3.45907,1.75229 -0.56893,-1.11509 -1.77505,-1.75229 -3.2315,-1.75229 -1.36543,0 -2.25295,0.43238 -3.27702,1.68402 v -1.47921 z m 29.77762,11.51508 c -0.54617,-0.52342 -0.70547,-0.86477 -0.70547,-1.45646 v -6.59954 c 0,-2.43501 -1.66126,-3.66389 -4.87001,-3.66389 -3.20874,0 -4.89277,1.36542 -5.07482,4.11903 h 2.95841 c 0.1593,-1.22888 0.65996,-1.63851 2.18468,-1.63851 1.18337,0 1.77505,0.40963 1.77505,1.20612 0,0.38687 -0.18205,0.72823 -0.52341,0.91029 -0.40963,0.22757 -0.40963,0.22757 -1.93435,0.47789 l -1.22888,0.20482 c -2.36674,0.40962 -3.50459,1.61575 -3.50459,3.75491 0,2.11641 1.4337,3.5501 3.61837,3.5501 1.31991,0 2.50328,-0.54616 3.59562,-1.68402 0,0.61444 0.0683,0.84201 0.36411,1.18337 h 3.34529 z m -3.73216,-4.41487 c 0,1.77505 -0.86476,2.79911 -2.435,2.79911 -1.04683,0 -1.68402,-0.54616 -1.68402,-1.43369 0,-0.91028 0.50065,-1.36542 1.77505,-1.61575 l 1.04682,-0.20482 c 0.81926,-0.15929 0.9558,-0.20481 1.29715,-0.38687 z m 15.5317,-3.27702 c -0.0455,-2.50328 -1.97986,-4.028 -5.16585,-4.028 -3.00394,0 -4.89277,1.52472 -4.89277,3.95973 0,0.79649 0.25033,1.47921 0.65995,1.93435 0.43239,0.43238 0.7965,0.61444 1.95711,1.00131 l 3.66389,1.13785 c 0.77374,0.25033 1.02407,0.4779 1.02407,0.97856 0,0.72822 -0.84202,1.16061 -2.27571,1.16061 -0.81926,0 -1.4337,-0.13655 -1.82057,-0.43239 -0.34135,-0.22757 -0.47789,-0.4779 -0.59168,-1.11509 h -3.02669 c 0.091,2.61706 2.00262,3.95972 5.621,3.95972 1.6385,0 2.89014,-0.34135 3.77767,-1.04682 0.88752,-0.70547 1.41094,-1.79781 1.41094,-2.98118 0,-1.52472 -0.77374,-2.52603 -2.34398,-2.98117 l -3.89146,-1.13785 c -0.86477,-0.25033 -1.06958,-0.43239 -1.06958,-0.91029 0,-0.65995 0.70547,-1.11509 1.77505,-1.11509 1.47921,0 2.20743,0.54617 2.23019,1.61575 z m 12.23192,0 c -0.0455,-2.50328 -1.97986,-4.028 -5.16585,-4.028 -3.00393,0 -4.89277,1.52472 -4.89277,3.95973 0,0.79649 0.25033,1.47921 0.65995,1.93435 0.43239,0.43238 0.7965,0.61444 1.95711,1.00131 l 3.66389,1.13785 c 0.77374,0.25033 1.02407,0.4779 1.02407,0.97856 0,0.72822 -0.84201,1.16061 -2.27571,1.16061 -0.81925,0 -1.43369,-0.13655 -1.82056,-0.43239 -0.34136,-0.22757 -0.4779,-0.4779 -0.59169,-1.11509 h -3.02669 c 0.091,2.61706 2.00262,3.95972 5.621,3.95972 1.63851,0 2.89014,-0.34135 3.77767,-1.04682 0.88753,-0.70547 1.41094,-1.79781 1.41094,-2.98118 0,-1.52472 -0.77374,-2.52603 -2.34398,-2.98117 l -3.89146,-1.13785 c -0.86477,-0.25033 -1.06958,-0.43239 -1.06958,-0.91029 0,-0.65995 0.70547,-1.11509 1.77505,-1.11509 1.47921,0 2.20744,0.54617 2.23019,1.61575 z m 18.8713,-7.55535 h -10.99166 v 2.75361 h 7.76015 c -0.93304,1.02407 -2.79911,3.84594 -3.41356,5.21137 -1.09233,2.2757 -1.6385,4.32384 -2.04813,7.64637 h 3.09496 c 0.29584,-4.93828 1.88884,-8.71596 5.59824,-13.17634 z m 5.31377,12.4026 h -3.29977 v 3.20875 h 3.29977 z m 2.24726,-0.43238 c 0.0683,2.41225 2.09365,4.16454 4.77898,4.16454 2.00263,0 3.50459,-0.84201 4.43763,-2.41225 0.81926,-1.38818 1.29715,-3.75491 1.29715,-6.25819 0,-2.27571 -0.36411,-4.05076 -1.06958,-5.23412 -1.00131,-1.66127 -2.54879,-2.5488 -4.41487,-2.5488 -3.11772,0 -5.25688,2.25295 -5.25688,5.50721 0,3.20875 1.88884,5.41619 4.6652,5.41619 0.7965,0 1.54748,-0.22758 2.02538,-0.59169 0.29584,-0.18205 0.45514,-0.38687 0.97855,-0.95579 0,3.00393 -0.84201,4.43762 -2.5943,4.43762 -1.09234,0 -1.82057,-0.59168 -1.88884,-1.52472 z m 4.93828,-9.78554 c 1.50197,0 2.43501,1.13785 2.43501,3.00393 0,1.70678 -0.9558,2.84464 -2.38949,2.84464 -1.41094,0 -2.27571,-1.09234 -2.27571,-2.89015 0,-1.82057 0.84201,-2.95842 2.23019,-2.95842 z m 11.23062,6.44025 c 1.18336,0 1.25163,0 1.7978,0.1593 1.04683,0.29584 1.70678,1.18337 1.70678,2.34398 0,1.38818 -0.97855,2.34398 -2.32122,2.34398 -1.45645,0 -2.25295,-0.84202 -2.32122,-2.43501 h -3.00393 c 0.0228,3.11772 2.04814,5.07482 5.25688,5.07482 3.32253,0 5.4617,-1.9571 5.4617,-4.98379 0,-1.84332 -0.7965,-3.02669 -2.54879,-3.8687 1.43369,-0.91029 2.04813,-1.9116 2.04813,-3.32253 0,-2.61707 -1.93435,-4.25558 -4.96104,-4.25558 -2.25295,0 -4.00524,0.97856 -4.68795,2.68534 -0.27309,0.75098 -0.36412,1.25164 -0.36412,2.54879 h 2.84464 c 0.0228,-0.84201 0.091,-1.25164 0.25032,-1.63851 0.29585,-0.68271 1.00131,-1.1151 1.88884,-1.1151 1.22888,0 1.93435,0.75099 1.93435,2.04814 0,1.59299 -0.88752,2.36674 -2.73085,2.36674 h -0.25032 z m 12.23192,0 c 1.18336,0 1.25164,0 1.79781,0.1593 1.04682,0.29584 1.70677,1.18337 1.70677,2.34398 0,1.38818 -0.97855,2.34398 -2.32122,2.34398 -1.45645,0 -2.25295,-0.84202 -2.32122,-2.43501 h -3.00393 c 0.0228,3.11772 2.04814,5.07482 5.25688,5.07482 3.32253,0 5.4617,-1.9571 5.4617,-4.98379 0,-1.84332 -0.7965,-3.02669 -2.54879,-3.8687 1.43369,-0.91029 2.04813,-1.9116 2.04813,-3.32253 0,-2.61707 -1.93435,-4.25558 -4.96104,-4.25558 -2.25295,0 -4.00524,0.97856 -4.68795,2.68534 -0.27309,0.75098 -0.36412,1.25164 -0.36412,2.54879 h 2.84464 c 0.0228,-0.84201 0.091,-1.25164 0.25033,-1.63851 0.29584,-0.68271 1.00131,-1.1151 1.88883,-1.1151 1.22888,0 1.93435,0.75099 1.93435,2.04814 0,1.59299 -0.88752,2.36674 -2.73085,2.36674 h -0.25032 z m 17.93825,-0.27308 v -8.78423 h -3.0722 v 16.04373 h 3.0722 v -3.89146 l 1.25164,-1.34267 2.821877,5.23413 h 3.618373 l -4.346599,-7.39605 4.050757,-4.48314 h -3.481831 z m 16.669552,-4.61969 v 1.82057 c -0.864769,-1.38818 -1.797808,-2.02538 -3.072204,-2.02538 -1.046825,0 -2.207435,0.52341 -3.026689,1.38818 -1.183368,1.22888 -1.797808,2.95842 -1.797808,5.02931 0,3.66389 1.93435,6.16716 4.756226,6.16716 1.297153,0 2.048136,-0.40962 3.140475,-1.70678 v 1.593 c 0,1.43369 -1.024068,2.43501 -2.48052,2.43501 -1.092339,0 -1.775051,-0.4779 -2.002622,-1.38819 h -3.185989 c 0.02276,0.91029 0.364113,1.57024 1.183368,2.2302 0.933039,0.75098 2.230192,1.13785 3.914215,1.13785 3.436316,0 5.484452,-1.66127 5.484452,-4.41487 v -12.26606 z m -2.48052,2.36674 c 1.433695,0 2.526034,1.61575 2.526034,3.82318 0,2.13917 -1.046825,3.61838 -2.571548,3.61838 -1.342667,0 -2.298464,-1.47921 -2.298464,-3.61838 0,-2.25295 0.955797,-3.82318 2.343978,-3.82318 z m 0,0"
         style="fill:#000000;fill-opacity:1;fill-rule:nonzero;stroke:none"
         aria-label="Q&#10;P&#10;&quot;loop−the−loop&quot;&#10;little block with mass 7.933 kg"
         transform="matrix(0.6866,0,0,0.6866,10540.178,348.93361)"
         clip-path="url(#clipPath581)"
         id="path597" />
      <path
         d="m 7.8339992,-11.340364 -6.0836163,0.01376 -1.00704007,6.2932966 2.03759477,-0.00912 C 2.9969065,-5.5692593 3.5238962,-5.8860196 4.2005,-5.8819318 c 1.1373957,0.00228 1.8429321,0.7918597 1.8405743,2.1956199 -0.013994,1.302655 -0.6850149,2.1482136 -1.8224106,2.1459342 C 3.232926,-1.5601107 2.6847871,-2.0502275 2.652002,-2.95821 l -2.21063741,0.018791 c 0.0110865,1.96565743 1.50777641,3.309587 3.71841381,3.29079554 2.4400506,0.0162729 4.1126118,-1.65141564 4.1075,-4.09924964 -0.00126,-2.325344 -1.4259333,-3.9336727 -3.5354654,-3.9265171 -0.7485411,-0.00605 -1.3163347,0.223203 -1.9483607,0.6954737 l 0.3526094,-2.3660693 4.679856,-0.01612 z m 4.4803438,8.9989028 -2.3972818,-7.062e-4 -0.00652,2.34672861 2.3972808,7.062e-4 z m 7.584253,-3.8206814 c 0.365583,-0.2059846 0.556158,-0.3303616 0.725348,-0.4625219 0.4512,-0.4412157 0.729436,-1.1391257 0.727706,-1.8662822 -0.0014,-1.7926153 -1.521456,-3.0723903 -3.623205,-3.0866193 -2.109532,0.0072 -3.663377,1.282137 -3.661961,3.0747519 0.0055,1.116011 0.462208,1.7908063 1.476957,2.3296673 -1.300925,0.7131628 -1.85724,1.5762536 -1.865415,2.9294612 -6.28e-4,2.1309167 1.665174,3.60905055 4.04107,3.60197338 2.375897,-0.007077 4.021177,-1.46673718 4.021805,-3.59765398 0.0082,-1.3532076 -0.543738,-2.2321789 -1.842305,-2.9227764 z m -2.168735,-3.6228087 c 1.014906,0.00613 1.689387,0.6148861 1.700788,1.5150852 -0.0022,0.8710311 -0.702312,1.4638263 -1.695833,1.4654779 -0.993521,0.00165 -1.675786,-0.5857181 -1.679403,-1.5073018 0.0022,-0.8710311 0.680927,-1.4716097 1.674448,-1.4732613 z m -0.01494,4.49903 c 1.108228,0.015881 1.81573,0.7335236 1.797884,1.9136886 0.01329,1.0946264 -0.690755,1.8312963 -1.798982,1.8154157 -1.094627,0.013287 -1.772961,-0.7179569 -1.778465,-1.8339679 0.01006,-1.1587804 0.684937,-1.881849 1.779563,-1.8951364 z m 8.315893,-2.5372494 0.0094,7.82567848 2.253407,-0.003224717 0.0072,-11.331187063 -1.504866,0.0093 c -0.338694,1.3297787 -1.509345,2.0177044 -3.475003,2.028791 l -0.0043,1.4756976 z m 13.456229,3.4506638 -1.187948,0.00354 0.01761,-6.9682491 -2.642261,0.007 -4.149167,6.9417562 -0.0083,1.8859368 4.549582,0.00912 0.01093,2.49838662 2.232022,-0.01100809 -0.01093,-2.49838663 1.187949,-0.00354 z m -3.419971,0.014547 -2.980563,0.00495 2.983941,-4.8714547 z m 9.357076,-4.2833807 0.0013,8.64615689 2.253407,-0.00322472 -0.0024,-5.18341717 c 3.14e-4,-1.0654584 0.593501,-1.6971705 1.53647,-1.6930042 0.748541,0.00605 1.226708,0.4222674 1.22262,1.0988712 l 0.008,5.76669901 2.224238,0.01037656 -0.0024,-5.18341717 c -0.0075,-1.0440737 0.593501,-1.6971705 1.53647,-1.6930042 0.748541,0.00605 1.226708,0.4222674 1.22262,1.0988712 l 0.008,5.76669901 2.224238,0.0103765621 0.0018,-6.1263855721 c -0.0053,-1.6487402 -1.014121,-2.6697777 -2.756183,-2.6741794 -1.094626,0.013287 -1.839394,0.3960886 -2.525982,1.2844165 -0.40222,-0.8244878 -1.27506,-1.2874805 -2.348301,-1.2664097 -0.993521,0.00165 -1.613833,0.3086631 -2.350974,1.2028088 l 3.14e-4,-1.0654583 z m 16.594658,-2.7933984 -3.298967,11.65879917 1.094626,-0.0132874 3.2698,-11.64519777 z m 9.214662,5.606093 c -0.0072,-1.8431675 -1.437883,-2.9693197 -3.741843,-2.9602771 -2.224239,-0.010377 -3.550557,1.1052422 -3.570526,2.8900736 0.01344,0.5618972 0.164945,1.0771727 0.487602,1.3883505 0.293489,0.3247791 0.555923,0.4687321 1.405491,0.7295142 l 2.669228,0.8504311 c 0.557966,0.1304303 0.746497,0.3443552 0.73667,0.7040418 -1.57e-4,0.5327292 -0.599084,0.847524 -1.664543,0.8472102 -0.583281,0.00566 -1.026541,-0.1072371 -1.308394,-0.3309109 -0.25465,-0.1653377 -0.336258,-0.3403458 -0.439172,-0.7895019 l -2.202854,-0.00259 c 0.08499,1.89568564 1.455415,2.8546131 4.089893,2.86899904 1.187949,-0.003539 2.101828,-0.25213558 2.778588,-0.78077691 0.618425,-0.50143878 0.999732,-1.28292193 1.015534,-2.12478493 0.0023,-1.1373957 -0.582733,-1.8588912 -1.718085,-2.1994724 l -2.807285,-0.8038094 c -0.627938,-0.204333 -0.804833,-0.3171526 -0.795006,-0.6768392 -0.01541,-0.4899598 0.51158,-0.8067202 1.289289,-0.8142681 1.065459,3.138e-4 1.580577,0.381542 1.601727,1.1884191 z m 0,0"
         style="fill:#000000;fill-opacity:1;fill-rule:nonzero;stroke:none"
         aria-label="5.814 m/s"
         transform="matrix(0.23483086,0.64519302,-0.64519302,0.23483086,10259.015,197.53831)"
         clip-path="url(#clipPath582)"
         id="path598" />
      <path
         d="M 11.492953,-6.0057633 H 9.8544446 V -15.609244 H 6.2360715 l -5.71202305,9.5579666 v 2.5943052 H 6.782241 V 0.00210154 H 9.8544446 V -3.4569722 h 1.6385084 z m -4.710712,0 H 2.7087266 L 6.782241,-12.673583 Z M 16.94327,-3.2066445 H 13.643496 V 0.00210154 H 16.94327 Z M 29.977378,-15.609244 H 18.985716 v 2.753604 h 7.760159 c -0.933039,1.024068 -2.799119,3.8459443 -3.413559,5.2113681 -1.092339,2.2757064 -1.638509,4.3238421 -2.048136,7.64637344 h 3.094961 C 24.674982,-4.9361813 26.267977,-8.7138539 29.977378,-13.174238 Z m 5.837187,4.847254 V 0.00210154 h 3.094961 V -15.609244 H 36.86139 c -0.500655,1.866079 -2.09365,2.799119 -4.778983,2.799119 v 2.048135 z m 16.009595,2.2757067 c 0.523412,-0.2958418 0.750983,-0.4551412 1.00131,-0.6599548 0.637198,-0.5916837 1.001311,-1.5474799 1.001311,-2.5487909 0,-2.457763 -2.09365,-4.232814 -4.983797,-4.232814 -2.912904,0 -5.029311,1.775051 -5.029311,4.255571 0,1.479209 0.637198,2.4350056 2.025379,3.1859887 -1.797808,0.9785538 -2.548791,2.1619211 -2.548791,4.0052433 0,2.9356612 2.275706,4.98379694 5.552723,4.98379694 3.25426,0 5.529967,-2.04813574 5.529967,-4.98379694 0,-1.8433222 -0.750983,-3.0266895 -2.548791,-4.0052433 z m -2.958419,-4.9610397 c 1.365424,0 2.298464,0.842011 2.298464,2.048136 0,1.183367 -0.955797,2.0481353 -2.298464,2.0481353 -1.388181,0 -2.343977,-0.8420113 -2.343977,-2.0708923 0,-1.183368 0.955796,-2.025379 2.343977,-2.025379 z m -0.04551,6.1899212 c 1.524723,0 2.457763,1.0013108 2.457763,2.6398194 0,1.5019662 -0.955797,2.4805199 -2.457763,2.4805199 -1.501966,0 -2.435006,-0.9785537 -2.435006,-2.526034 0,-1.5929945 0.93304,-2.5943053 2.435006,-2.5943053 z M 62.480155,-11.877086 V 0.00210154 h 3.072203 V -7.1208594 c 0,-1.4792092 0.796497,-2.3439776 2.116407,-2.3439776 1.046825,0 1.684023,0.5916837 1.684023,1.5474803 v 7.91945824 h 3.072204 V -7.1208594 c 0,-1.4564521 0.796497,-2.3439776 2.116406,-2.3439776 1.024068,0 1.661266,0.5916837 1.661266,1.5474803 v 7.91945824 h 3.094961 V -8.395255 c 0,-2.321221 -1.410938,-3.686644 -3.80043,-3.686644 -1.501966,0 -2.548791,0.523412 -3.459074,1.752294 -0.568926,-1.115097 -1.775051,-1.752294 -3.231503,-1.752294 -1.365423,0 -2.252949,0.432384 -3.277017,1.684022 v -1.479209 z m 0,0"
         style="fill:#000000;fill-opacity:1;fill-rule:nonzero;stroke:none"
         aria-label="4.718 m"
         transform="matrix(0,0.6866,-0.6866,0,10225.029,274.78081)"
         clip-path="url(#clipPath583)"
         id="path599" />
      <path
         d="m 5.9906822,-15.932164 c -1.6784213,0.0138 -3.0821585,0.711572 -4.0218857,2.002886 -0.9158564,1.19238 -1.34380369,3.182989 -1.33839932,6.2413335 0.005376,2.7547277 0.37910772,4.6770323 1.10244422,5.8880214 0.9229293,1.46853309 2.4427972,2.28542738 4.2644998,2.28525629 1.6835406,0.00837 3.0923969,-0.66722462 4.0764718,-1.96877689 0.888563,-1.2094347 1.289218,-3.2170978 1.292355,-6.1372805 -0.0037,-2.8485418 -0.333064,-4.7810848 -1.083693,-6.0091288 -0.9502223,-1.485588 -2.4700902,-2.302482 -4.2917928,-2.302311 z m 0.010466,2.473284 c 0.7948631,0.0033 1.4430796,0.484288 1.8098813,1.263765 0.3139126,0.651553 0.4982903,2.360661 0.5087283,4.5303283 C 8.3045708,-5.9096055 8.163158,-4.1953496 7.8868909,-3.5710323 7.544131,-2.6277402 6.8840647,-2.1483726 5.9953872,-2.1534063 5.1783508,-2.1516238 4.572785,-2.5489983 4.2059833,-3.3284752 3.9091253,-4.0073215 3.7179315,-5.644789 3.7109158,-7.6984681 3.72268,-9.5696375 3.8760287,-11.33336 4.1028289,-11.969613 c 0.3427599,-0.943292 1.0147616,-1.472126 1.8983193,-1.489267 z m 10.9584708,10.2631056 -3.317615,-0.00481 -0.0082,3.20162607 3.317614,0.00480556 z m 12.522947,-8.8585226 c -0.136551,-0.996124 -0.331053,-1.535112 -0.740477,-2.094547 -0.796674,-1.123991 -2.23124,-1.773734 -3.936955,-1.776985 -1.937691,0.0036 -3.493222,0.853185 -4.443159,2.403769 -0.927763,1.545464 -1.323327,3.271683 -1.324767,6.0980518 0.01219,2.683087 0.329612,4.3614798 1.134828,5.6236326 0.895636,1.45147855 2.514438,2.29224355 4.380488,2.28183401 3.107811,0.006531 5.219271,-2.27932411 5.225773,-5.69075291 -0.01734,-3.0088779 -1.846058,-5.0623855 -4.534264,-5.0723675 -1.258816,0.01035 -2.132107,0.3754571 -3.116211,1.3733923 l 0.02215,-0.3087364 c 0.03739,-1.4566829 0.122633,-1.8967659 0.332378,-2.5057249 0.412676,-1.146279 1.163134,-1.739938 2.23944,-1.73151 1.004666,0.0016 1.521537,0.419462 1.934411,1.398504 z m -5.02293,4.2425824 c 1.446445,-0.00696 2.376162,1.0863167 2.355856,2.8193241 0.0087,1.6562475 -0.978813,2.8418115 -2.353617,2.8555864 -1.402097,-0.00328 -2.3864,-1.1306643 -2.37803,-2.8142049 0.0033,-1.7057144 0.973694,-2.8639853 2.375791,-2.8607056 z M 39.59736,-8.4804969 c 0.513392,-0.305371 0.736826,-0.4503777 0.989251,-0.6721442 0.634471,-0.5902367 1.021578,-1.5437669 1.023189,-2.5484329 -0.0053,-2.451111 -2.120599,-4.228266 -5.013489,-4.214349 -2.920183,-0.0031 -5.011222,1.764179 -5.022929,4.242583 0.01208,1.468619 0.629636,2.4237605 2.045451,3.1946103 -1.811379,0.95537 -2.56178,2.1562632 -2.578664,4.0052588 0.002,2.9423565 2.289534,4.96000142 5.562801,4.97504543 3.268147,-0.00713 5.529733,-2.04737623 5.527751,-4.98973273 0.01688,-1.8489956 -0.745682,-3.0275724 -2.533361,-3.9928387 z m -2.968409,-4.9667601 c 1.374805,-0.01377 2.319851,0.842404 2.319965,2.056873 -0.005,1.192294 -0.975477,2.0469483 -2.328107,2.0556039 -1.379923,-0.0084 -2.324969,-0.8645789 -2.325083,-2.0790469 0.005,-1.192295 0.953302,-2.041829 2.333225,-2.03343 z m -0.04547,6.1763944 c 1.540259,-0.00526 2.454619,1.0214922 2.458184,2.6555659 1.42e-4,1.5180855 -0.949852,2.4614346 -2.467938,2.4615772 -1.490792,0.017197 -2.417087,-0.96009 -2.427468,-2.5225231 0.0067,-1.5897261 0.94643,-2.5774228 2.437222,-2.59462 z m 11.451411,-3.4845704 0.0095,10.76476092 3.102693,-0.01564282 -0.0049,-15.6004601 -2.053679,0.007 c -0.508129,1.84563 -2.092651,2.771981 -4.775738,2.784173 l -0.01516,2.058799 z m 8.327189,-1.134229 0.01135,11.88541483 3.058344,-0.00540437 -0.0092,-7.12135526 c 0.0101,-1.4737379 0.815112,-2.3369049 2.145569,-2.3404412 1.031958,0.018666 1.678478,0.5934308 1.666628,1.5537489 l 0.0059,7.91621842 3.058344,-0.00540437 -0.0092,-7.12135535 c 0.01522,-1.4515641 0.815112,-2.3369048 2.145569,-2.3404411 1.026839,-0.00351 1.656304,0.59855 1.644454,1.5588682 l 0.0059,7.91621833 3.102692,-0.01564282 -0.0025,-8.40746431 c 0.0032,-2.3129489 -1.429732,-3.6637399 -3.809202,-3.6515759 -1.495912,-0.005 -2.543172,0.51707 -3.44879,1.753798 -0.586871,-1.125716 -1.784342,-1.76013 -3.25296,-1.748052 -1.35775,-0.01352 -2.242977,0.401054 -3.259464,1.663378 l -0.0172,-1.490793 z m 0,0"
         style="fill:#000000;fill-opacity:1;fill-rule:nonzero;stroke:none"
         aria-label="0.681m"
         transform="matrix(0.66900249,0.15445137,-0.15445137,0.66900249,10503.102,370.56151)"
         clip-path="url(#clipPath584)"
         id="path600" />
    </g>
  </g>
</svg>
