<?xml version="1.0" encoding="UTF-8" standalone="no"?>
<!-- Created with Inkscape (http://www.inkscape.org/) -->

<svg
   width="161.29735mm"
   height="28.111509mm"
   viewBox="0 0 161.29735 28.111509"
   version="1.1"
   id="svg1"
   inkscape:version="1.3.2 (091e20ef0f, 2023-11-25)"
   sodipodi:docname="1.svg"
   xmlns:inkscape="http://www.inkscape.org/namespaces/inkscape"
   xmlns:sodipodi="http://sodipodi.sourceforge.net/DTD/sodipodi-0.dtd"
   xmlns="http://www.w3.org/2000/svg"
   xmlns:svg="http://www.w3.org/2000/svg">
  <sodipodi:namedview
     id="namedview1"
     pagecolor="#ffffff"
     bordercolor="#000000"
     borderopacity="0.25"
     inkscape:showpageshadow="2"
     inkscape:pageopacity="0.0"
     inkscape:pagecheckerboard="0"
     inkscape:deskcolor="#d1d1d1"
     inkscape:document-units="mm"
     inkscape:zoom="1.0226992"
     inkscape:cx="304.58613"
     inkscape:cy="52.801449"
     inkscape:window-width="2560"
     inkscape:window-height="1440"
     inkscape:window-x="2560"
     inkscape:window-y="0"
     inkscape:window-maximized="1"
     inkscape:current-layer="layer1">
    <inkscape:page
       x="0"
       y="0"
       width="161.29736"
       height="28.111509"
       id="page1"
       margin="5.0000005"
       bleed="0" />
  </sodipodi:namedview>
  <defs
     id="defs1">
    <clipPath
       clipPathUnits="userSpaceOnUse"
       id="clipPath143">
      <path
         d="M 0,0 H 621 V 76 H 0 Z"
         transform="matrix(9.9999996,0,0,9.9999996,0,3.5937093e-5)"
         id="path143" />
    </clipPath>
    <clipPath
       clipPathUnits="userSpaceOnUse"
       id="clipPath144">
      <path
         d="M 0,0 H 621 V 76 H 0 Z"
         transform="matrix(9.9999996,0,0,9.9999996,0,3.5937093e-5)"
         id="path144" />
    </clipPath>
    <clipPath
       clipPathUnits="userSpaceOnUse"
       id="clipPath145">
      <path
         d="M 0,0 H 621 V 76 H 0 Z"
         transform="matrix(9.9999996,0,0,9.9999996,0,3.5937093e-5)"
         id="path145" />
    </clipPath>
    <clipPath
       clipPathUnits="userSpaceOnUse"
       id="clipPath146">
      <path
         d="M 0,0 H 621 V 76 H 0 Z"
         transform="matrix(9.9999996,0,0,9.9999996,0,3.5937093e-5)"
         id="path146" />
    </clipPath>
    <clipPath
       clipPathUnits="userSpaceOnUse"
       id="clipPath147">
      <path
         d="M 0,760 V 0 H 6210 V 760 Z M 1476.2,389 H 1649 v 72 h -172.8 v 0 l 144,-36 z"
         transform="translate(0,3.5937093e-5)"
         clip-rule="evenodd"
         id="path147" />
    </clipPath>
    <clipPath
       clipPathUnits="userSpaceOnUse"
       id="clipPath148">
      <path
         d="M 0,0 H 621 V 76 H 0 Z"
         transform="matrix(9.9999996,0,0,9.9999996,0,3.5937093e-5)"
         id="path148" />
    </clipPath>
    <clipPath
       clipPathUnits="userSpaceOnUse"
       id="clipPath149">
      <path
         d="M 0,0 H 621 V 76 H 0 Z"
         transform="matrix(1,0,0,-1,-69.500007,33.500003)"
         id="path149" />
    </clipPath>
  </defs>
  <g
     inkscape:label="Layer 1"
     inkscape:groupmode="layer"
     id="layer1"
     transform="translate(-24.368739,-134.43542)">
    <g
       id="g156"
       transform="matrix(0.26458333,0,0,0.26458333,-445.09984,72.118691)">
      <path
         d="M 20,20 H 6185"
         style="fill:none;stroke:#000000;stroke-width:18;stroke-linecap:butt;stroke-linejoin:miter;stroke-miterlimit:10;stroke-dasharray:none;stroke-opacity:1"
         transform="matrix(0.09275467,0,0,-0.09275467,1791.412,323.89867)"
         clip-path="url(#clipPath143)"
         id="path150" />
      <path
         d="m 380,20 h 720 V 740 H 380 Z"
         style="fill:none;stroke:#000000;stroke-width:18;stroke-linecap:butt;stroke-linejoin:miter;stroke-miterlimit:10;stroke-dasharray:none;stroke-opacity:1"
         transform="matrix(0.09275467,0,0,-0.09275467,1791.412,323.89867)"
         clip-path="url(#clipPath144)"
         id="path151" />
      <path
         d="m 2540,20 h 720 v 720 h -720 z"
         style="fill:none;stroke:#000000;stroke-width:18;stroke-linecap:butt;stroke-linejoin:miter;stroke-miterlimit:10;stroke-dasharray:none;stroke-opacity:1"
         transform="matrix(0.09275467,0,0,-0.09275467,1791.412,323.89867)"
         clip-path="url(#clipPath145)"
         id="path152" />
      <path
         d="m 4340,20 h 720 v 720 h -720 z"
         style="fill:none;stroke:#000000;stroke-width:18;stroke-linecap:butt;stroke-linejoin:miter;stroke-miterlimit:10;stroke-dasharray:none;stroke-opacity:1"
         transform="matrix(0.09275467,0,0,-0.09275467,1791.412,323.89867)"
         clip-path="url(#clipPath146)"
         id="path153" />
      <path
         d="m 1145,425 h 495"
         style="fill:none;stroke:#000000;stroke-width:9;stroke-linecap:butt;stroke-linejoin:miter;stroke-miterlimit:10;stroke-dasharray:none;stroke-opacity:1"
         transform="matrix(0.09275467,0,0,-0.09275467,1791.412,323.89867)"
         clip-path="url(#clipPath147)"
         id="path154" />
      <path
         d="m 1476.2,389 144,36 -144,36"
         style="fill:none;stroke:#000000;stroke-width:9;stroke-linecap:butt;stroke-linejoin:miter;stroke-miterlimit:10;stroke-dasharray:none;stroke-opacity:1"
         transform="matrix(0.09275467,0,0,-0.09275467,1791.412,323.89867)"
         clip-path="url(#clipPath148)"
         id="path155" />
      <path
         d="m 11.015356,-3.2361009 1.061267,3.23433863 h 3.385949 L 9.9203975,-16.038691 H 6.2649211 L 0.57113748,-0.00176227 H 3.9402402 L 5.0183531,-3.2361009 Z M 10.122544,-5.9819196 H 5.9448563 L 8.0337,-12.248451 Z m 203.177946,5.98015733 h 7.20988 c 1.85301,0 3.08273,-0.35375578 4.05977,-1.16234043 0.9602,-0.8254302 1.58348,-2.1899168 1.58348,-3.4533303 0,-1.5834783 -0.85912,-2.8468918 -2.66159,-3.8913136 1.58348,-1.0107309 2.18992,-1.9372344 2.18992,-3.3017204 0,-1.111804 -0.53906,-2.274145 -1.44872,-3.065884 -0.94335,-0.808584 -2.072,-1.16234 -3.77339,-1.16234 h -7.15935 z m 3.30173,-13.29111073 h 3.58809 c 1.5161,0 2.32468,0.64013 2.32468,1.836161 0,1.162341 -0.80858,1.8024704 -2.32468,1.8024704 h -3.58809 z m 0,6.3844502 h 3.94185 c 1.60032,0 2.4426,0.724357 2.4426,2.0888436 0,1.3476411 -0.84228,2.0719982 -2.4426,2.0719982 h -3.94185 z M 406.51011,-10.59759 c -0.11792,-1.398178 -0.40429,-2.274145 -1.07811,-3.183802 -1.22972,-1.61717 -3.21749,-2.526827 -5.60956,-2.526827 -4.53144,0 -7.36149,3.234338 -7.36149,8.4227564 0,5.1547271 2.79636,8.38906574 7.26042,8.38906574 3.99239,0 6.65398,-2.30783534 6.85613,-5.98015734 H 403.36 c -0.20214,2.0383072 -1.49925,3.2006476 -3.53756,3.2006476 -2.56051,0 -4.05976,-2.0551527 -4.05976,-5.5590195 0,-3.5375579 1.56663,-5.6600929 4.16084,-5.6600929 1.14549,0 2.08884,0.404293 2.71213,1.179186 0.35375,0.437984 0.52221,0.859121 0.72435,1.718243 z m -292.49707,-5.340028 c -1.68455,0 -3.11642,0.707511 -4.05977,2.004616 -0.89281,1.212877 -1.31395,3.217493 -1.31395,6.23284 0,2.7458187 0.3706,4.6998983 1.09496,5.8959298 0.9265,1.46555966 2.4426,2.30783534 4.27876,2.30783534 1.68455,0 3.06588,-0.67382054 4.04292,-2.00461614 0.87597,-1.1791859 1.31395,-3.2006476 1.31395,-6.1149214 0,-2.8637376 -0.35375,-4.8009716 -1.09496,-5.9970026 -0.9265,-1.499251 -2.4426,-2.324681 -4.26191,-2.324681 z m 0,2.493136 c 0.79174,0 1.41502,0.437983 1.80247,1.246568 0.30322,0.67382 0.47167,2.3920628 0.47167,4.5145975 0,1.7350879 -0.16845,3.5038669 -0.38744,4.1103053 -0.35376,0.9265033 -1.01074,1.4318687 -1.8867,1.4318687 -0.82543,0 -1.43187,-0.4042923 -1.81932,-1.212877 -0.30322,-0.656975 -0.47167,-2.3078353 -0.47167,-4.362988 0,-1.836161 0.16845,-3.6217855 0.38744,-4.2450695 0.35376,-0.960194 1.01074,-1.482405 1.90355,-1.482405 z m -7.31517,4.4430041 4.09346,-11.8760871 h -3.25118 l -2.40891,8.692285 -2.56052,-8.692285 h -3.268027 l 4.160837,11.8760871 z m 0,0"
         style="fill:#000000;fill-opacity:1;fill-rule:nonzero;stroke:none"
         aria-label="ABC0&#10;v"
         transform="matrix(0.92754667,0,0,0.92754667,1855.8765,292.82585)"
         clip-path="url(#clipPath149)"
         id="path156" />
    </g>
  </g>
</svg>
