<?xml version="1.0" encoding="UTF-8" standalone="no"?>
<!-- Created with Inkscape (http://www.inkscape.org/) -->

<svg
   width="148.60822mm"
   height="69.453522mm"
   viewBox="0 0 148.60822 69.453522"
   version="1.1"
   id="svg1"
   inkscape:version="1.3.2 (091e20ef0f, 2023-11-25)"
   sodipodi:docname="2.svg"
   xmlns:inkscape="http://www.inkscape.org/namespaces/inkscape"
   xmlns:sodipodi="http://sodipodi.sourceforge.net/DTD/sodipodi-0.dtd"
   xmlns="http://www.w3.org/2000/svg"
   xmlns:svg="http://www.w3.org/2000/svg">
  <sodipodi:namedview
     id="namedview1"
     pagecolor="#ffffff"
     bordercolor="#000000"
     borderopacity="0.25"
     inkscape:showpageshadow="2"
     inkscape:pageopacity="0.0"
     inkscape:pagecheckerboard="0"
     inkscape:deskcolor="#d1d1d1"
     inkscape:document-units="mm"
     inkscape:zoom="1.0226992"
     inkscape:cx="323.16442"
     inkscape:cy="224.89506"
     inkscape:window-width="2560"
     inkscape:window-height="1440"
     inkscape:window-x="2560"
     inkscape:window-y="0"
     inkscape:window-maximized="1"
     inkscape:current-layer="layer1">
    <inkscape:page
       x="0"
       y="0"
       width="148.60823"
       height="69.453522"
       id="page1"
       margin="5.0000005"
       bleed="0" />
  </sodipodi:namedview>
  <defs
     id="defs1">
    <clipPath
       clipPathUnits="userSpaceOnUse"
       id="clipPath209">
      <path
         d="M 0,0 H 681 V 292 H 0 Z"
         transform="matrix(9.9999996,0,0,9.9999996,0,4.299152e-5)"
         id="path209" />
    </clipPath>
    <clipPath
       clipPathUnits="userSpaceOnUse"
       id="clipPath210">
      <path
         d="M 0,0 H 681 V 292 H 0 Z"
         transform="matrix(9.9999996,0,0,9.9999996,0,4.299152e-5)"
         id="path210" />
    </clipPath>
    <clipPath
       clipPathUnits="userSpaceOnUse"
       id="clipPath211">
      <path
         d="M 0,0 H 681 V 292 H 0 Z"
         transform="matrix(9.9999996,0,0,9.9999996,0,4.299152e-5)"
         id="path211" />
    </clipPath>
    <clipPath
       clipPathUnits="userSpaceOnUse"
       id="clipPath212">
      <path
         d="M 0,0 H 681 V 292 H 0 Z"
         transform="matrix(9.9999996,0,0,9.9999996,0,4.299152e-5)"
         id="path212" />
    </clipPath>
    <clipPath
       clipPathUnits="userSpaceOnUse"
       id="clipPath213">
      <path
         d="M 0,0 H 681 V 292 H 0 Z"
         transform="matrix(9.9999996,0,0,9.9999996,0,4.299152e-5)"
         id="path213" />
    </clipPath>
    <clipPath
       clipPathUnits="userSpaceOnUse"
       id="clipPath214">
      <path
         d="M 0,0 H 681 V 292 H 0 Z"
         transform="matrix(9.9999996,0,0,9.9999996,0,4.299152e-5)"
         id="path214" />
    </clipPath>
    <clipPath
       clipPathUnits="userSpaceOnUse"
       id="clipPath215">
      <path
         d="M 0,0 H 681 V 292 H 0 Z"
         transform="matrix(9.9999996,0,0,9.9999996,0,4.299152e-5)"
         id="path215" />
    </clipPath>
    <clipPath
       clipPathUnits="userSpaceOnUse"
       id="clipPath216">
      <path
         d="M 0,0 H 681 V 292 H 0 Z"
         transform="matrix(9.9999996,0,0,9.9999996,0,4.299152e-5)"
         id="path216" />
    </clipPath>
    <clipPath
       clipPathUnits="userSpaceOnUse"
       id="clipPath217">
      <path
         d="M 0,0 H 681 V 292 H 0 Z"
         transform="matrix(9.9999996,0,0,9.9999996,0,4.299152e-5)"
         id="path217" />
    </clipPath>
    <clipPath
       clipPathUnits="userSpaceOnUse"
       id="clipPath218">
      <path
         d="M 0,0 H 681 V 292 H 0 Z"
         transform="matrix(9.9999996,0,0,9.9999996,0,4.299152e-5)"
         id="path218" />
    </clipPath>
    <clipPath
       clipPathUnits="userSpaceOnUse"
       id="clipPath219">
      <path
         d="M 0,0 H 681 V 292 H 0 Z"
         transform="matrix(9.9999996,0,0,9.9999996,0,4.299152e-5)"
         id="path219" />
    </clipPath>
    <clipPath
       clipPathUnits="userSpaceOnUse"
       id="clipPath220">
      <path
         d="M 0,0 H 681 V 292 H 0 Z"
         transform="matrix(9.9999996,0,0,9.9999996,0,4.299152e-5)"
         id="path220" />
    </clipPath>
    <clipPath
       clipPathUnits="userSpaceOnUse"
       id="clipPath221">
      <path
         d="M 0,0 H 681 V 292 H 0 Z"
         transform="matrix(9.9999996,0,0,9.9999996,0,4.299152e-5)"
         id="path221" />
    </clipPath>
    <clipPath
       clipPathUnits="userSpaceOnUse"
       id="clipPath222">
      <path
         d="M 0,0 H 681 V 292 H 0 Z"
         transform="matrix(9.9999996,0,0,9.9999996,0,4.299152e-5)"
         id="path222" />
    </clipPath>
    <clipPath
       clipPathUnits="userSpaceOnUse"
       id="clipPath223">
      <path
         d="M 0,0 H 681 V 292 H 0 Z"
         transform="matrix(9.9999996,0,0,9.9999996,0,4.299152e-5)"
         id="path223" />
    </clipPath>
    <clipPath
       clipPathUnits="userSpaceOnUse"
       id="clipPath224">
      <path
         d="M 0,0 H 681 V 292 H 0 Z"
         transform="matrix(9.9999996,0,0,9.9999996,0,4.299152e-5)"
         id="path224" />
    </clipPath>
    <clipPath
       clipPathUnits="userSpaceOnUse"
       id="clipPath225">
      <path
         d="M 0,0 H 681 V 292 H 0 Z"
         transform="matrix(9.9999996,0,0,9.9999996,0,4.299152e-5)"
         id="path225" />
    </clipPath>
    <clipPath
       clipPathUnits="userSpaceOnUse"
       id="clipPath226">
      <path
         d="M 0,0 H 681 V 292 H 0 Z"
         transform="matrix(9.9999996,0,0,9.9999996,0,4.299152e-5)"
         id="path226" />
    </clipPath>
    <clipPath
       clipPathUnits="userSpaceOnUse"
       id="clipPath227">
      <path
         d="M 0,0 H 681 V 292 H 0 Z"
         transform="matrix(9.9999996,0,0,9.9999996,0,4.299152e-5)"
         id="path227" />
    </clipPath>
    <clipPath
       clipPathUnits="userSpaceOnUse"
       id="clipPath228">
      <path
         d="M 0,0 H 681 V 292 H 0 Z"
         transform="matrix(9.9999996,0,0,9.9999996,0,4.299152e-5)"
         id="path228" />
    </clipPath>
    <clipPath
       clipPathUnits="userSpaceOnUse"
       id="clipPath229">
      <path
         d="M 0,0 H 681 V 292 H 0 Z"
         transform="matrix(9.9999996,0,0,9.9999996,0,4.299152e-5)"
         id="path229" />
    </clipPath>
    <clipPath
       clipPathUnits="userSpaceOnUse"
       id="clipPath230">
      <path
         d="M 0,0 H 681 V 292 H 0 Z"
         transform="matrix(9.9999996,0,0,9.9999996,0,4.299152e-5)"
         id="path230" />
    </clipPath>
    <clipPath
       clipPathUnits="userSpaceOnUse"
       id="clipPath231">
      <path
         d="M 0,0 H 681 V 292 H 0 Z"
         transform="matrix(9.9999996,0,0,9.9999996,0,4.299152e-5)"
         id="path231" />
    </clipPath>
    <pattern
       patternUnits="userSpaceOnUse"
       x="0"
       y="0"
       width="10"
       height="10"
       id="pattern233">
      <path
         d="M -10,-10 90,90"
         style="fill:none;stroke:#000000;stroke-opacity:1;stroke-width:10;stroke-linecap:butt;stroke-linejoin:miter;stroke-miterlimit:10;stroke-dasharray:none"
         transform="matrix(0.1,0,0,0.1,1,1)"
         clip-path="url(#clipPath232)"
         id="path233" />
    </pattern>
    <clipPath
       clipPathUnits="userSpaceOnUse"
       id="clipPath232">
      <path
         d="M -10,-10 H 90 V 90 H -10 Z"
         id="path232" />
    </clipPath>
    <clipPath
       clipPathUnits="userSpaceOnUse"
       id="clipPath234">
      <path
         d="M 0,0 H 681 V 292 H 0 Z"
         transform="matrix(9.9999996,0,0,9.9999996,0,4.299152e-5)"
         id="path234" />
    </clipPath>
    <clipPath
       clipPathUnits="userSpaceOnUse"
       id="clipPath235">
      <path
         d="M 0,0 H 681 V 292 H 0 Z"
         transform="matrix(1,0,0,-1,-100.47996,131.40001)"
         id="path235" />
    </clipPath>
    <clipPath
       clipPathUnits="userSpaceOnUse"
       id="clipPath236">
      <path
         d="M 0,0 H 681 V 292 H 0 Z"
         transform="matrix(9.9999996,0,0,9.9999996,0,4.299152e-5)"
         id="path236" />
    </clipPath>
    <clipPath
       clipPathUnits="userSpaceOnUse"
       id="clipPath237">
      <path
         d="M 0,0 H 681 V 292 H 0 Z"
         transform="matrix(9.9999996,0,0,9.9999996,0,4.299152e-5)"
         id="path237" />
    </clipPath>
    <clipPath
       clipPathUnits="userSpaceOnUse"
       id="clipPath238">
      <path
         d="M 0,2920 V 0 H 6810 V 2920 Z M 1676.6,352.801 1676,180 h 72 l 0.6,172.801 v 0 l -36,-144 z"
         transform="translate(0,4.299152e-5)"
         clip-rule="evenodd"
         id="path238" />
    </clipPath>
    <clipPath
       clipPathUnits="userSpaceOnUse"
       id="clipPath239">
      <path
         d="M 0,0 H 681 V 292 H 0 Z"
         transform="matrix(9.9999996,0,0,9.9999996,0,4.299152e-5)"
         id="path239" />
    </clipPath>
    <clipPath
       clipPathUnits="userSpaceOnUse"
       id="clipPath240">
      <path
         d="M 0,0 H 681 V 292 H 0 Z"
         transform="matrix(9.9999996,0,0,9.9999996,0,4.299152e-5)"
         id="path240" />
    </clipPath>
  </defs>
  <g
     inkscape:label="Layer 1"
     inkscape:groupmode="layer"
     id="layer1"
     transform="translate(-19.341649,-88.927083)">
    <rect
       style="fill:#ffffff;stroke-width:0.264583"
       id="rect1"
       width="148.6082"
       height="69.453514"
       x="19.341648"
       y="88.927094" />
    <g
       id="g270"
       transform="matrix(0.26458333,0,0,0.26458333,-678.63868,41.246877)">
      <path
         d="m 2072,144 h 360 v 2115 h -360 z"
         style="fill:#d9d9d9;fill-opacity:1;fill-rule:evenodd;stroke:none"
         transform="matrix(0.07753467,0,0,-0.07753467,2653.804,424.15067)"
         clip-path="url(#clipPath209)"
         id="path241" />
      <path
         d="M 2072,2214 2099,774"
         style="fill:#d9d9d9;fill-opacity:1;fill-rule:evenodd;stroke:none"
         transform="matrix(0.07753467,0,0,-0.07753467,2653.804,424.15067)"
         clip-path="url(#clipPath210)"
         id="path242" />
      <path
         d="m 6797,1944 v 315 H 2072 v -360"
         style="fill:#d9d9d9;fill-opacity:1;fill-rule:evenodd;stroke:none"
         transform="matrix(0.07753467,0,0,-0.07753467,2653.804,424.15067)"
         clip-path="url(#clipPath211)"
         id="path243" />
      <path
         d="M 6752,2259 5312,2232"
         style="fill:#d9d9d9;fill-opacity:1;fill-rule:evenodd;stroke:none"
         transform="matrix(0.07753467,0,0,-0.07753467,2653.804,424.15067)"
         clip-path="url(#clipPath212)"
         id="path244" />
      <path
         d="m 1577,2574.02 c -177.12,-12.23 -324.36,-141.07 -360,-315"
         style="fill:#bde4ff;fill-opacity:1;fill-rule:evenodd;stroke:#000000;stroke-width:27;stroke-linecap:butt;stroke-linejoin:miter;stroke-miterlimit:10;stroke-dasharray:none;stroke-opacity:1"
         transform="matrix(0.07753467,0,0,-0.07753467,2653.804,424.15067)"
         clip-path="url(#clipPath213)"
         id="path245" />
      <path
         d="m 1950.8,2194.8 c 0,-198.82 -161.18,-360 -360,-360 -198.82,0 -360,161.18 -360,360 0,198.82 161.18,360 360,360 198.82,0 360,-161.18 360,-360"
         style="fill:#bde4ff;fill-opacity:1;fill-rule:evenodd;stroke:none"
         transform="matrix(0.07753467,0,0,-0.07753467,2653.804,424.15067)"
         clip-path="url(#clipPath214)"
         id="path246" />
      <path
         d="m 1950.8,2194.8 c 0,-198.82 -161.18,-360 -360,-360 -198.82,0 -360,161.18 -360,360 0,198.82 161.18,360 360,360 198.82,0 360,-161.18 360,-360 z"
         style="fill:none;stroke:#000000;stroke-width:18;stroke-linecap:butt;stroke-linejoin:miter;stroke-miterlimit:10;stroke-dasharray:none;stroke-opacity:1"
         transform="matrix(0.07753467,0,0,-0.07753467,2653.804,424.15067)"
         clip-path="url(#clipPath215)"
         id="path247" />
      <path
         d="M 3197,2574 H 1577"
         style="fill:none;stroke:#000000;stroke-width:18;stroke-linecap:butt;stroke-linejoin:miter;stroke-miterlimit:10;stroke-dasharray:none;stroke-opacity:1"
         transform="matrix(0.07753467,0,0,-0.07753467,2653.804,424.15067)"
         clip-path="url(#clipPath216)"
         id="path248" />
      <path
         d="M 1217,2259 V 1044"
         style="fill:none;stroke:#000000;stroke-width:18;stroke-linecap:butt;stroke-linejoin:miter;stroke-miterlimit:10;stroke-dasharray:none;stroke-opacity:1"
         transform="matrix(0.07753467,0,0,-0.07753467,2653.804,424.15067)"
         clip-path="url(#clipPath217)"
         id="path249" />
      <path
         d="m 875,1044 v 0 c -34.793,0 -63,-28.21 -63,-63 V 342 c 0,-34.793 28.207,-63 63,-63 h 639 c 34.79,0 63,28.207 63,63 v 639 c 0,34.79 -28.21,63 -63,63"
         style="fill:#bde4ff;fill-opacity:1;fill-rule:evenodd;stroke:none"
         transform="matrix(0.07753467,0,0,-0.07753467,2653.804,424.15067)"
         clip-path="url(#clipPath218)"
         id="path250" />
      <path
         d="m 875,1044 v 0 c -34.793,0 -63,-28.21 -63,-63 V 342 c 0,-34.793 28.207,-63 63,-63 h 639 c 34.79,0 63,28.207 63,63 v 639 c 0,34.79 -28.21,63 -63,63 z"
         style="fill:none;stroke:#000000;stroke-width:27;stroke-linecap:butt;stroke-linejoin:miter;stroke-miterlimit:10;stroke-dasharray:none;stroke-opacity:1"
         transform="matrix(0.07753467,0,0,-0.07753467,2653.804,424.15067)"
         clip-path="url(#clipPath219)"
         id="path251" />
      <path
         d="m 2072,2259 h -585 v -135 h 585 V 54"
         style="fill:none;stroke:#000000;stroke-width:9;stroke-linecap:butt;stroke-linejoin:miter;stroke-miterlimit:10;stroke-dasharray:none;stroke-opacity:1"
         transform="matrix(0.07753467,0,0,-0.07753467,2653.804,424.15067)"
         clip-path="url(#clipPath220)"
         id="path252" />
      <path
         d="m 2072,2124 h -585 v 135 h 585"
         style="fill:none;stroke:#000000;stroke-width:9;stroke-linecap:butt;stroke-linejoin:miter;stroke-miterlimit:10;stroke-dasharray:none;stroke-opacity:1"
         transform="matrix(0.07753467,0,0,-0.07753467,2653.804,424.15067)"
         clip-path="url(#clipPath221)"
         id="path253" />
      <path
         d="M 6797,2259 H 2072"
         style="fill:none;stroke:#000000;stroke-width:9;stroke-linecap:butt;stroke-linejoin:miter;stroke-miterlimit:10;stroke-dasharray:none;stroke-opacity:1"
         transform="matrix(0.07753467,0,0,-0.07753467,2653.804,424.15067)"
         clip-path="url(#clipPath222)"
         id="path254" />
      <path
         d="m 947,1539 h 180 l -90,45"
         style="fill:none;stroke:#000000;stroke-width:4.5;stroke-linecap:butt;stroke-linejoin:miter;stroke-miterlimit:10;stroke-dasharray:none;stroke-opacity:1"
         transform="matrix(0.07753467,0,0,-0.07753467,2653.804,424.15067)"
         clip-path="url(#clipPath223)"
         id="path255" />
      <path
         d="m 3260,2889 v 0 c -34.79,0 -63,-28.21 -63,-63 v -504 c 0,-34.79 28.21,-63 63,-63 h 909 c 34.79,0 63,28.21 63,63 v 504 c 0,34.79 -28.21,63 -63,63"
         style="fill:#bde4ff;fill-opacity:1;fill-rule:evenodd;stroke:none"
         transform="matrix(0.07753467,0,0,-0.07753467,2653.804,424.15067)"
         clip-path="url(#clipPath224)"
         id="path256" />
      <path
         d="m 3260,2889 v 0 c -34.79,0 -63,-28.21 -63,-63 v -504 c 0,-34.79 28.21,-63 63,-63 h 909 c 34.79,0 63,28.21 63,63 v 504 c 0,34.79 -28.21,63 -63,63 z"
         style="fill:none;stroke:#000000;stroke-width:27;stroke-linecap:butt;stroke-linejoin:miter;stroke-miterlimit:10;stroke-dasharray:none;stroke-opacity:1"
         transform="matrix(0.07753467,0,0,-0.07753467,2653.804,424.15067)"
         clip-path="url(#clipPath225)"
         id="path257" />
      <path
         d="m 2927,2844 h 180 l -90,45"
         style="fill:none;stroke:#000000;stroke-width:4.5;stroke-linecap:butt;stroke-linejoin:miter;stroke-miterlimit:10;stroke-dasharray:none;stroke-opacity:1"
         transform="matrix(0.07753467,0,0,-0.07753467,2653.804,424.15067)"
         clip-path="url(#clipPath226)"
         id="path258" />
      <path
         d="m 4277,2664 h 180 l -90,45"
         style="fill:none;stroke:#000000;stroke-width:4.5;stroke-linecap:butt;stroke-linejoin:miter;stroke-miterlimit:10;stroke-dasharray:none;stroke-opacity:1"
         transform="matrix(0.07753467,0,0,-0.07753467,2653.804,424.15067)"
         clip-path="url(#clipPath227)"
         id="path259" />
      <path
         d="m 5807,2664 h 180 l -90,45"
         style="fill:none;stroke:#000000;stroke-width:4.5;stroke-linecap:butt;stroke-linejoin:miter;stroke-miterlimit:10;stroke-dasharray:none;stroke-opacity:1"
         transform="matrix(0.07753467,0,0,-0.07753467,2653.804,424.15067)"
         clip-path="url(#clipPath228)"
         id="path260" />
      <path
         d="m 6095,2754 v 0 c -34.79,0 -63,-28.21 -63,-63 v -369 c 0,-34.79 28.21,-63 63,-63 h 549 c 34.79,0 63,28.21 63,63 v 369 c 0,34.79 -28.21,63 -63,63"
         style="fill:#bde4ff;fill-opacity:1;fill-rule:evenodd;stroke:none"
         transform="matrix(0.07753467,0,0,-0.07753467,2653.804,424.15067)"
         clip-path="url(#clipPath229)"
         id="path261" />
      <path
         d="m 6095,2754 v 0 c -34.79,0 -63,-28.21 -63,-63 v -369 c 0,-34.79 28.21,-63 63,-63 h 549 c 34.79,0 63,28.21 63,63 v 369 c 0,34.79 -28.21,63 -63,63 z"
         style="fill:none;stroke:#000000;stroke-width:27;stroke-linecap:butt;stroke-linejoin:miter;stroke-miterlimit:10;stroke-dasharray:none;stroke-opacity:1"
         transform="matrix(0.07753467,0,0,-0.07753467,2653.804,424.15067)"
         clip-path="url(#clipPath230)"
         id="path262" />
      <path
         d="m 4232,2259 h 1800 v 90 H 4232 Z"
         style="fill:#ffffff;fill-opacity:1;fill-rule:nonzero;stroke:none"
         transform="matrix(0.07753467,0,0,-0.07753467,2653.804,424.15067)"
         clip-path="url(#clipPath231)"
         id="path263" />
      <path
         d="m 4232,2259 h 1800 v 90 H 4232 Z"
         style="fill:url(#pattern233);fill-opacity:1;fill-rule:nonzero;stroke:#000000;stroke-width:9;stroke-linecap:butt;stroke-linejoin:miter;stroke-miterlimit:10;stroke-dasharray:none;stroke-opacity:1"
         transform="matrix(0.07753467,0,0,-0.07753467,2653.804,424.15067)"
         clip-path="url(#clipPath234)"
         id="path264" />
      <path
         d="m 7.6983041,-12.071966 h 4.2521299 v -2.498882 H 0.28226656 v 2.498882 H 4.695615 V -7.5245912e-4 h 3.0026891 z m 7.1036769,6.7963553 v 9.7738539 h 2.801167 V -9.6688069 h -1.85401 c -0.44335,1.6726389 -1.914466,2.5391868 -4.352891,2.5391868 v 1.8540094 z m 6.494071,69.8326747 0.96731,2.942232 h 3.063146 L 20.288439,52.9292 H 16.983465 L 11.80433,67.499296 h 3.063146 l 0.96731,-2.942232 z m -0.826243,-2.498883 h -3.788628 l 1.894314,-5.703094 z M 74.57867,130.15776 c -0.503807,-0.4635 -0.644873,-0.76579 -0.644873,-1.3099 v -6.00538 c 0,-2.19659 -1.491268,-3.32512 -4.413348,-3.32512 -2.92208,0 -4.433501,1.24944 -4.614871,3.74832 h 2.700405 c 0.141065,-1.12853 0.584416,-1.49127 1.974923,-1.49127 1.06807,0 1.612182,0.36274 1.612182,1.08823 0,0.36274 -0.181371,0.68517 -0.483655,0.84639 -0.362741,0.20152 -0.362741,0.20152 -1.753248,0.4232 l -1.108375,0.18137 c -2.156294,0.36274 -3.18406,1.47112 -3.18406,3.40573 0,0.92701 0.26198,1.67264 0.745634,2.21675 0.624721,0.64488 1.571878,1.02777 2.519035,1.02777 1.209136,0 2.317512,-0.52396 3.284821,-1.55172 0,0.56426 0.06046,0.76578 0.322436,1.08822 h 3.042994 z m -3.385582,-3.99015 c 0,1.61218 -0.806091,2.53919 -2.216751,2.53919 -0.947157,0 -1.51142,-0.50381 -1.51142,-1.3099 0,-0.82625 0.423197,-1.22929 1.592029,-1.47112 l 0.96731,-0.18137 c 0.725482,-0.14106 0.846395,-0.18137 1.168832,-0.34259 z M -93.642454,-109.80043 h -2.801166 v 10.801622 h 2.801166 z m 0,-3.76847 h -2.801166 v 2.49888 h 2.801166 z m 9.526989,14.570092 h 2.801166 V -113.5689 h -2.801166 v 5.17913 c -0.70533,-1.08822 -1.652487,-1.59203 -2.982537,-1.59203 -2.579491,0 -4.534262,2.47873 -4.534262,5.7434 0,1.47112 0.44335,2.94223 1.14868,3.99015 0.745634,1.027767 2.055532,1.712944 3.385582,1.712944 1.33005,0 2.277207,-0.503807 2.982537,-1.571874 z m -2.357816,-8.645322 c 1.410659,0 2.357816,1.3905 2.357816,3.44603 0,1.95478 -0.967309,3.32513 -2.357816,3.32513 -1.41066,0 -2.357817,-1.39051 -2.357817,-3.36543 0,-1.99508 0.947157,-3.40573 2.357817,-3.40573 z m 16.95814,4.13121 c 0.02015,-0.24183 0.02015,-0.34259 0.02015,-0.48365 0,-1.08823 -0.161218,-2.07569 -0.423198,-2.84147 -0.725482,-1.95477 -2.458577,-3.14376 -4.635023,-3.14376 -3.103451,0 -4.997765,2.2369 -4.997765,5.86431 0,3.4662 1.874162,5.582184 4.937308,5.582184 2.418273,0 4.373044,-1.390507 4.997764,-3.506494 h -2.760861 c -0.342589,0.86655 -1.128528,1.37035 -2.136142,1.37035 -0.806091,0 -1.450964,-0.34259 -1.833857,-0.94715 -0.261979,-0.40305 -0.362741,-0.8867 -0.403045,-1.89432 z m -7.194363,-1.85401 c 0.181371,-1.65248 0.866548,-2.45858 2.115989,-2.45858 0.70533,0 1.33005,0.32244 1.733096,0.88671 0.26198,0.40304 0.382893,0.82624 0.44335,1.57187 z m 18.313381,6.025533 c -0.503807,-0.463502 -0.644873,-0.765783 -0.644873,-1.309893 v -6.00538 c 0,-2.1966 -1.491268,-3.32513 -4.413348,-3.32513 -2.92208,0 -4.433501,1.24944 -4.614871,3.74832 h 2.700405 c 0.141065,-1.12852 0.584416,-1.49126 1.974923,-1.49126 1.06807,0 1.612182,0.36274 1.612182,1.08822 0,0.36274 -0.181371,0.68518 -0.483655,0.84639 -0.362741,0.20153 -0.362741,0.20153 -1.753248,0.4232 l -1.108375,0.18137 c -2.156294,0.36274 -3.18406,1.47112 -3.18406,3.40574 0,0.927 0.26198,1.67264 0.745634,2.216748 0.624721,0.644873 1.571878,1.027766 2.519035,1.027766 1.209136,0 2.317512,-0.523959 3.284821,-1.551724 0,0.564263 0.06046,0.765785 0.322436,1.088222 h 3.042994 z m -3.385582,-3.990153 c 0,1.61218 -0.806091,2.53919 -2.216751,2.53919 -0.947157,0 -1.51142,-0.50381 -1.51142,-1.3099 0,-0.82624 0.423197,-1.22929 1.592029,-1.47111 l 0.96731,-0.18138 c 0.725482,-0.14106 0.846395,-0.18137 1.168832,-0.34258 z m 8.156633,-10.23735 h -2.801166 v 14.570092 h 2.801166 z m 10.937648,3.76847 h -2.781014 v 15.154513 h 2.781014 v -5.622483 c 0.685177,1.188983 1.652487,1.753246 3.002689,1.753246 2.599644,0 4.51411,-2.438426 4.51411,-5.723246 0,-1.51142 -0.423198,-3.04299 -1.14868,-4.03046 -0.725482,-1.02776 -2.055532,-1.71294 -3.36543,-1.71294 -1.350202,0 -2.317512,0.58442 -3.002689,1.79355 z m 2.357816,2.1563 c 1.430812,0 2.377969,1.3905 2.377969,3.44603 0,1.95478 -0.987462,3.34528 -2.377969,3.34528 -1.390507,0 -2.357816,-1.37035 -2.357816,-3.38558 0,-2.01523 0.967309,-3.40573 2.357816,-3.40573 z m 16.736466,8.645322 v -10.801622 h -2.801167 v 6.77117 c 0,1.26959 -0.906852,2.11599 -2.257055,2.11599 -1.209136,0 -1.813705,-0.64488 -1.813705,-1.93462 v -6.95254 h -2.781014 v 7.5168 c 0,2.377969 1.309898,3.748324 3.607258,3.748324 1.471116,0 2.438425,-0.544111 3.244516,-1.733094 v 1.269592 z m 5.526761,-14.570092 h -2.801166 v 14.570092 h 2.801166 z m 5.562028,0 h -2.801166 v 14.570092 h 2.801166 z m 11.90495748,10.05598 c 0.0201523,-0.24183 0.0201523,-0.34259 0.0201523,-0.48365 0,-1.08823 -0.16121821,-2.07569 -0.42319778,-2.84147 -0.725482,-1.95477 -2.4585777,-3.14376 -4.6350235,-3.14376 -3.1034505,0 -4.9977645,2.2369 -4.9977645,5.86431 0,3.4662 1.8741617,5.582184 4.9373077,5.582184 2.4182731,0 4.3730438,-1.390507 4.99776442,-3.506494 H -3.4610187 c -0.3425887,0.86655 -1.1285275,1.37035 -2.1361413,1.37035 -0.806091,0 -1.4509638,-0.34259 -1.8338571,-0.94715 -0.2619796,-0.40305 -0.3627409,-0.8867 -0.4030455,-1.89432 z m -7.19436248,-1.85401 c 0.1813704,-1.65248 0.8665478,-2.45858 2.1159889,-2.45858 0.7053297,0 1.3300503,0.32244 1.7330958,0.88671 0.2619796,0.40304 0.3828932,0.82624 0.44335,1.57187 z m 15.7187752,-4.4335 -2.2369026,7.85939 -2.3779686,-7.85939 H 0.2268478 l 4.0103029,11.244972 v 0.08061 c 0,1.007614 -0.7456342,1.793553 -1.7330957,1.793553 -0.2216751,0 -0.3828933,-0.02015 -0.7456342,-0.120914 v 2.095837 c 0.4231978,0.06046 0.6650251,0.08061 1.0076138,0.08061 0.7053296,0 1.5315729,-0.141066 2.0152276,-0.342589 0.7859387,-0.302284 1.1285274,-0.765786 1.5718775,-2.055532 L 10.806793,-109.80043 Z M 114.27362,-87.078737 h -1.65249 v -1.047918 c 0,-0.564264 0.24183,-0.846396 0.76579,-0.846396 0.24182,0 0.56426,0.02015 0.80609,0.06046 v -2.095837 c -0.52396,-0.0403 -1.22929,-0.06046 -1.61219,-0.06046 -1.854,0 -2.76086,0.866548 -2.76086,2.700405 v 1.289746 h -1.51142 v 1.854009 h 1.51142 v 8.725936 h 2.80117 v -8.725936 h 1.65249 z m 1.65752,-0.221675 v 10.80162 h 2.80117 v -5.743399 c 0,-1.632334 0.82624,-2.458577 2.45857,-2.458577 0.30229,0 0.50381,0.02015 0.8867,0.08061 v -2.841471 c -0.16121,-0.02015 -0.26198,-0.02015 -0.34258,-0.02015 -1.2696,0 -2.39813,0.846395 -3.00269,2.297359 v -2.115989 z m 10.66559,0 h -2.80116 v 10.80162 h 2.80116 z m 0,-3.768476 h -2.80116 v 2.498883 h 2.80116 z m 11.86465,7.819084 c -0.20152,-2.639949 -1.95477,-4.231978 -4.65517,-4.231978 -3.22437,0 -5.09853,2.136141 -5.09853,5.803855 0,3.566953 1.85401,5.642637 5.05822,5.642637 2.6198,0 4.43351,-1.632334 4.69548,-4.211825 h -2.68025 c -0.36274,1.410659 -0.927,1.95477 -1.99507,1.95477 -1.43081,0 -2.27721,-1.289745 -2.27721,-3.385582 0,-1.027766 0.20152,-1.974923 0.52396,-2.619796 0.32244,-0.604568 0.94716,-0.927005 1.75325,-0.927005 1.12852,0 1.67264,0.544112 1.99507,1.974924 z m 6.70567,-3.828933 h -1.57187 v -2.901928 h -2.80117 v 2.901928 h -1.37035 v 1.854009 h 1.37035 v 6.650252 c 0,1.692791 0.90685,2.539186 2.74071,2.539186 0.62472,0 1.12853,-0.06046 1.63233,-0.221675 v -1.954771 c -0.28213,0.04031 -0.44335,0.06046 -0.64487,0.06046 -0.74563,0 -0.927,-0.221675 -0.927,-1.188984 v -5.884465 h 1.57187 z m 4.76602,-0.221675 h -2.80117 v 10.80162 h 2.80117 z m 0,-3.768476 h -2.80117 v 2.498883 h 2.80117 z m 7.45634,3.587106 c -3.30497,0 -5.3202,2.196598 -5.3202,5.723246 0,3.566953 2.01523,5.723246 5.34035,5.723246 3.26467,0 5.3202,-2.176446 5.3202,-5.642637 0,-3.647562 -1.97492,-5.803855 -5.34035,-5.803855 z m 0.0202,2.257054 c 1.53158,0 2.53919,1.390508 2.53919,3.506496 0,2.015228 -1.04792,3.425887 -2.53919,3.425887 -1.53157,0 -2.53918,-1.410659 -2.53918,-3.466191 0,-2.055532 1.00761,-3.466192 2.53918,-3.466192 z m 7.42108,-2.075684 v 10.80162 h 2.80116 v -6.468881 c 0,-1.289745 0.90686,-2.136141 2.25706,-2.136141 1.20914,0 1.8137,0.665025 1.8137,1.954771 v 6.650251 h 2.80117 v -7.234667 c 0,-2.377969 -1.33005,-3.748323 -3.62741,-3.748323 -1.45096,0 -2.43842,0.544111 -3.24452,1.753248 v -1.571878 z m 15.10413,-3.768476 h -2.80117 v 14.570096 h 2.80117 z m 11.90999,10.055986 c 0.0202,-0.241827 0.0202,-0.342589 0.0202,-0.483654 0,-1.088223 -0.16122,-2.075685 -0.4232,-2.841471 -0.72548,-1.954771 -2.45858,-3.143755 -4.63503,-3.143755 -3.10345,0 -4.99776,2.236902 -4.99776,5.864312 0,3.466191 1.87416,5.58218 4.93731,5.58218 2.41827,0 4.37304,-1.390507 4.99776,-3.506496 h -2.76086 c -0.34259,0.866548 -1.12853,1.370355 -2.13614,1.370355 -0.80609,0 -1.45096,-0.342589 -1.83386,-0.947157 -0.26198,-0.403045 -0.36274,-0.8867 -0.40304,-1.894314 z m -7.19436,-1.854009 c 0.18137,-1.652487 0.86655,-2.458578 2.11599,-2.458578 0.70533,0 1.33005,0.322436 1.7331,0.8867 0.26198,0.403046 0.38289,0.826244 0.44335,1.571878 z m 17.93049,-0.947157 c -0.0403,-2.277207 -1.79355,-3.667714 -4.69548,-3.667714 -2.74071,0 -4.4335,1.390507 -4.4335,3.607257 0,0.725482 0.22167,1.33005 0.58441,1.753248 0.3829,0.382893 0.72549,0.564264 1.7734,0.906852 l 3.32513,1.027766 c 0.70533,0.221675 0.94716,0.443351 0.94716,0.886701 0,0.665025 -0.78594,1.06807 -2.07569,1.06807 -0.72548,0 -1.3099,-0.141066 -1.67264,-0.382893 -0.28213,-0.221675 -0.40304,-0.44335 -0.52396,-1.027766 h -2.74071 c 0.0806,2.357816 1.81371,3.607257 5.09853,3.607257 1.49127,0 2.63995,-0.322436 3.42589,-0.967309 0.80609,-0.644873 1.28974,-1.632334 1.28974,-2.700405 0,-1.390507 -0.70533,-2.297359 -2.11599,-2.720557 l -3.5468,-1.007614 c -0.78594,-0.241827 -0.98746,-0.403045 -0.98746,-0.846396 0,-0.604568 0.64487,-0.987461 1.63234,-0.987461 1.33005,0 1.99507,0.463502 2.01522,1.450964 z m 11.11902,0 c -0.0403,-2.277207 -1.79356,-3.667714 -4.69548,-3.667714 -2.74071,0 -4.4335,1.390507 -4.4335,3.607257 0,0.725482 0.22167,1.33005 0.58441,1.753248 0.3829,0.382893 0.72548,0.564264 1.7734,0.906852 l 3.32513,1.027766 c 0.70533,0.221675 0.94715,0.443351 0.94715,0.886701 0,0.665025 -0.78593,1.06807 -2.07568,1.06807 -0.72548,0 -1.3099,-0.141066 -1.67264,-0.382893 -0.28213,-0.221675 -0.40304,-0.44335 -0.52396,-1.027766 h -2.74071 c 0.0806,2.357816 1.81371,3.607257 5.09853,3.607257 1.49127,0 2.63995,-0.322436 3.42589,-0.967309 0.80609,-0.644873 1.28974,-1.632334 1.28974,-2.700405 0,-1.390507 -0.70533,-2.297359 -2.11599,-2.720557 l -3.5468,-1.007614 c -0.78594,-0.241827 -0.98746,-0.403045 -0.98746,-0.846396 0,-0.604568 0.64487,-0.987461 1.63233,-0.987461 1.33005,0 1.99508,0.463502 2.01523,1.450964 z m 4.58464,-49.186672 h -6.00538 c 0.36274,-0.76578 0.80609,-1.16883 2.88178,-2.68025 2.45857,-1.79355 3.18406,-2.88177 3.18406,-4.79624 0,-2.74071 -1.87416,-4.49396 -4.8567,-4.49396 -2.94223,0 -4.65518,1.7331 -4.65518,4.73579 0,0.12091 0,0.28213 0.0202,0.5038 h 2.68026 v -0.4635 c 0,-1.57188 0.72548,-2.49888 2.01523,-2.49888 1.22928,0 1.99507,0.86655 1.99507,2.27721 0,1.55172 -0.50381,2.17644 -3.62741,4.39319 -2.39812,1.65249 -3.1236,2.90193 -3.26467,5.52173 h 9.63279 z m -17.08409,-14.07132 h 4.25213 v -2.49888 h -11.66817 v 2.49888 h 4.41335 v 12.07121 h 3.00269 z m 135.00009,18.00102 h 4.25213 v -2.49888 h -11.66816 v 2.49888 h 4.41335 v 12.07121 h 3.00268 z m 6.68048,10.24239 c 0.98747,0 1.16884,0.0202 1.65249,0.12092 0.92701,0.26198 1.53157,1.08822 1.53157,2.13614 0,1.22929 -0.8867,2.13614 -2.09583,2.13614 -1.33005,0 -2.03538,-0.76579 -2.11599,-2.21675 h -2.72056 c 0.0202,2.84147 1.87416,4.61487 4.77609,4.61487 3.02284,0 4.95746,-1.7734 4.95746,-4.53426 0,-1.67264 -0.72548,-2.74071 -2.31751,-3.52665 1.3099,-0.82624 1.85401,-1.71294 1.85401,-3.02284 0,-2.35782 -1.75325,-3.84909 -4.49396,-3.84909 -1.61218,0 -2.98254,0.56427 -3.78863,1.59203 -0.54411,0.70533 -0.80609,1.65249 -0.80609,2.92208 v 0.24183 h 2.59964 c 0.0202,-0.76579 0.0806,-1.14868 0.22168,-1.51142 0.24183,-0.60457 0.8867,-0.98746 1.71294,-0.98746 1.10838,0 1.75325,0.68518 1.75325,1.85401 0,1.43081 -0.80609,2.13614 -2.47873,2.13614 h -0.24183 z m 159.10726,0.86655 h -1.49127 v -8.70578 h -3.28482 l -5.17913,8.66548 v 2.35781 h 5.68294 v 3.14376 h 2.78101 v -3.14376 h 1.49127 z m -4.27228,0 h -3.70802 l 3.70802,-6.04568 z m -8.51938,-11.10894 h 4.25213 v -2.49888 H 481.7806 v 2.49888 h 4.41334 v 12.07121 h 3.00269 z m -128.03748,10.26758 v 10.80162 h 2.78101 v -6.46888 c 0,-1.33005 0.72548,-2.13614 1.93462,-2.13614 0.92701,0 1.51142,0.54411 1.51142,1.41066 v 7.19436 h 2.80117 v -6.46888 c 0,-1.33005 0.72548,-2.13614 1.91446,-2.13614 0.94716,0 1.53158,0.54411 1.53158,1.41066 v 7.19436 h 2.78101 v -7.63771 c 0,-2.09584 -1.26959,-3.34528 -3.42589,-3.34528 -1.37035,0 -2.31751,0.48366 -3.1639,1.61218 -0.52396,-1.02776 -1.59203,-1.61218 -2.94224,-1.61218 -1.22928,0 -2.03537,0.4232 -2.96238,1.53158 v -1.35021 z m 23.49251,10.45903 c -0.5038,-0.4635 -0.64487,-0.76578 -0.64487,-1.30989 v -6.00538 c 0,-2.1966 -1.49127,-3.32513 -4.41335,-3.32513 -2.92208,0 -4.4335,1.24944 -4.61487,3.74833 h 2.70041 c 0.14106,-1.12853 0.58441,-1.49127 1.97492,-1.49127 1.06807,0 1.61218,0.36274 1.61218,1.08822 0,0.36274 -0.18137,0.68518 -0.48365,0.8464 -0.36274,0.20152 -0.36274,0.20152 -1.75325,0.42319 l -1.10838,0.18137 c -2.15629,0.36274 -3.18406,1.47112 -3.18406,3.40574 0,0.927 0.26198,1.67264 0.74564,2.21675 0.62472,0.64487 1.57188,1.02776 2.51903,1.02776 1.20914,0 2.31751,-0.52395 3.28482,-1.55172 0,0.56426 0.0605,0.76579 0.32244,1.08822 h 3.04299 z m -3.38558,-3.99015 c 0,1.61219 -0.80609,2.53919 -2.21675,2.53919 -0.94716,0 -1.51142,-0.50381 -1.51142,-1.3099 0,-0.82624 0.4232,-1.22929 1.59203,-1.47111 l 0.96731,-0.18137 c 0.72548,-0.14107 0.8464,-0.18138 1.16883,-0.34259 z m 11.89992,-2.98253 c -0.0403,-2.27721 -1.79355,-3.66772 -4.69548,-3.66772 -2.74071,0 -4.4335,1.39051 -4.4335,3.60726 0,0.72548 0.22167,1.33005 0.58442,1.75325 0.38289,0.38289 0.72548,0.56426 1.7734,0.90685 l 3.32512,1.02777 c 0.70533,0.22167 0.94716,0.44335 0.94716,0.8867 0,0.66502 -0.78594,1.06807 -2.07569,1.06807 -0.72548,0 -1.30989,-0.14107 -1.67263,-0.3829 -0.28214,-0.22167 -0.40305,-0.44335 -0.52396,-1.02776 h -2.74071 c 0.0806,2.35781 1.8137,3.60725 5.09852,3.60725 1.49127,0 2.63995,-0.32243 3.42589,-0.9673 0.80609,-0.64488 1.28974,-1.63234 1.28974,-2.70041 0,-1.39051 -0.70532,-2.29736 -2.11598,-2.72056 l -3.5468,-1.00761 c -0.78594,-0.24183 -0.98747,-0.40305 -0.98747,-0.8464 0,-0.60456 0.64488,-0.98746 1.63234,-0.98746 1.33005,0 1.99507,0.4635 2.01523,1.45097 z m 8.89723,0 c -0.0403,-2.27721 -1.79355,-3.66772 -4.69548,-3.66772 -2.74071,0 -4.4335,1.39051 -4.4335,3.60726 0,0.72548 0.22167,1.33005 0.58442,1.75325 0.38289,0.38289 0.72548,0.56426 1.7734,0.90685 l 3.32512,1.02777 c 0.70533,0.22167 0.94716,0.44335 0.94716,0.8867 0,0.66502 -0.78594,1.06807 -2.07569,1.06807 -0.72548,0 -1.30989,-0.14107 -1.67263,-0.3829 -0.28214,-0.22167 -0.40305,-0.44335 -0.52396,-1.02776 h -2.74071 c 0.0806,2.35781 1.8137,3.60725 5.09852,3.60725 1.49127,0 2.63995,-0.32243 3.42589,-0.9673 0.80609,-0.64488 1.28974,-1.63234 1.28974,-2.70041 0,-1.39051 -0.70532,-2.29736 -2.11598,-2.72056 l -3.5468,-1.00761 c -0.78594,-0.24183 -0.98747,-0.40305 -0.98747,-0.8464 0,-0.60456 0.64488,-0.98746 1.63234,-0.98746 1.33005,0 1.99507,0.4635 2.01523,1.45097 z m 2.92712,-3.48635 h -2.80117 v 10.80162 h 2.80117 z m 0,-3.76847 h -2.80117 v 2.49888 h 2.80117 z m 7.31024,14.57009 3.72817,-10.80162 h -2.96239 l -2.17644,7.89969 -2.33767,-7.89969 h -2.96238 l 3.76847,10.80162 z m 12.38357,-4.51411 c 0.0202,-0.24182 0.0202,-0.34259 0.0202,-0.48365 0,-1.08822 -0.16122,-2.07569 -0.4232,-2.84147 -0.72548,-1.95477 -2.45857,-3.14376 -4.63502,-3.14376 -3.10345,0 -4.99776,2.2369 -4.99776,5.86431 0,3.4662 1.87416,5.58218 4.9373,5.58218 2.41828,0 4.37305,-1.3905 4.99777,-3.50649 h -2.76086 c -0.34259,0.86655 -1.12853,1.37035 -2.13614,1.37035 -0.8061,0 -1.45097,-0.34259 -1.83386,-0.94715 -0.26198,-0.40305 -0.36274,-0.8867 -0.40305,-1.89432 z m -7.19436,-1.85401 c 0.18137,-1.65248 0.86655,-2.45857 2.11599,-2.45857 0.70533,0 1.33005,0.32243 1.73309,0.8867 0.26198,0.40304 0.3829,0.82624 0.44335,1.57187 z m 11.31046,-4.4335 v 10.80162 h 2.80117 v -5.7434 c 0,-1.63233 0.82624,-2.45857 2.45858,-2.45857 0.30228,0 0.5038,0.0202 0.8867,0.0806 v -2.84148 c -0.16122,-0.0202 -0.26198,-0.0202 -0.34259,-0.0202 -1.2696,0 -2.39812,0.8464 -3.00269,2.29736 v -2.11599 z m 10.99811,-0.18137 c -3.30498,0 -5.3202,2.1966 -5.3202,5.72325 0,3.56695 2.01522,5.72324 5.34035,5.72324 3.26467,0 5.3202,-2.17644 5.3202,-5.64263 0,-3.64756 -1.97492,-5.80386 -5.34035,-5.80386 z m 0.0202,2.25706 c 1.53157,0 2.53919,1.3905 2.53919,3.50649 0,2.01523 -1.04792,3.42589 -2.53919,3.42589 -1.53157,0 -2.53919,-1.41066 -2.53919,-3.46619 0,-2.05553 1.00762,-3.46619 2.53919,-3.46619 z m 7.67802,-2.07569 h -2.78102 v 15.15451 h 2.78102 v -5.62248 c 0.68517,1.18898 1.65248,1.75325 3.00269,1.75325 2.59964,0 4.51411,-2.43843 4.51411,-5.72325 0,-1.51142 -0.4232,-3.04299 -1.14868,-4.03045 -0.72549,-1.02777 -2.05554,-1.71295 -3.36543,-1.71295 -1.35021,0 -2.31752,0.58442 -3.00269,1.79355 z m 2.35781,2.1563 c 1.43081,0 2.37797,1.3905 2.37797,3.44604 0,1.95477 -0.98746,3.34527 -2.37797,3.34527 -1.3905,0 -2.35781,-1.37035 -2.35781,-3.38558 0,-2.01523 0.96731,-3.40573 2.35781,-3.40573 z m 13.95042,4.13121 c 0.0202,-0.24182 0.0202,-0.34259 0.0202,-0.48365 0,-1.08822 -0.16122,-2.07569 -0.4232,-2.84147 -0.72548,-1.95477 -2.45858,-3.14376 -4.63502,-3.14376 -3.10345,0 -4.99777,2.2369 -4.99777,5.86431 0,3.4662 1.87416,5.58218 4.93731,5.58218 2.41827,0 4.37304,-1.3905 4.99776,-3.50649 h -2.76086 c -0.34259,0.86655 -1.12852,1.37035 -2.13614,1.37035 -0.80609,0 -1.45096,-0.34259 -1.83386,-0.94715 -0.26197,-0.40305 -0.36274,-0.8867 -0.40304,-1.89432 z m -7.19437,-1.85401 c 0.18137,-1.65248 0.86655,-2.45857 2.11599,-2.45857 0.70533,0 1.33005,0.32243 1.7331,0.8867 0.26198,0.40304 0.38289,0.82624 0.44335,1.57187 z m 85.81343,-7.76366 c -0.10076,-1.26959 -0.36274,-2.05553 -0.98746,-2.88178 -1.12853,-1.47111 -2.92208,-2.29736 -5.09852,-2.29736 -4.11107,0 -6.67041,2.94224 -6.67041,7.65787 0,4.67533 2.53919,7.61756 6.5898,7.61756 3.62741,0 6.04568,-2.09584 6.22705,-5.44112 h -2.92208 c -0.18137,1.85401 -1.37036,2.92208 -3.22436,2.92208 -2.31752,0 -3.68787,-1.87416 -3.68787,-5.05822 0,-3.22436 1.43081,-5.13883 3.78863,-5.13883 1.04792,0 1.89431,0.36274 2.45857,1.04792 0.32244,0.40305 0.48366,0.78594 0.66503,1.57188 z m -277.51195,5.13379 h 6.56964 c 1.67264,0 2.80117,-0.32244 3.66771,-1.06807 0.8867,-0.72548 1.45097,-1.97492 1.45097,-3.1236 0,-1.45097 -0.78594,-2.57949 -2.41827,-3.5468 1.43081,-0.92701 1.99507,-1.75325 1.99507,-3.00269 0,-0.98746 -0.50381,-2.05553 -1.33005,-2.78102 -0.8464,-0.72548 -1.87416,-1.04791 -3.42589,-1.04791 h -6.50918 z m 3.00269,-12.07121 h 3.26467 c 1.37035,0 2.11599,0.58441 2.11599,1.65248 0,1.06808 -0.74564,1.65249 -2.11599,1.65249 h -3.26467 z m 0,5.80385 h 3.5871 c 1.45097,0 2.21675,0.64488 2.21675,1.89432 0,1.20913 -0.76578,1.87416 -2.21675,1.87416 h -3.5871 z m 0,0"
         style="fill:#000000;fill-opacity:1;fill-rule:nonzero;stroke:none"
         aria-label="T&#10;1&#10;A&#10;a&#10;ideal pulley &#10;frictionless&#10;2&#10;T&#10;T&#10;34&#10;T&#10;massive rope&#10;C&#10;B"
         transform="matrix(0.77534667,0,0,0.77534667,2731.7108,322.27011)"
         clip-path="url(#clipPath235)"
         id="path265" />
      <path
         d="m 1487,2142 h 594 v 108 h -594 z"
         style="fill:#d9d9d9;fill-opacity:1;fill-rule:evenodd;stroke:none"
         transform="matrix(0.07753467,0,0,-0.07753467,2653.804,424.15067)"
         clip-path="url(#clipPath236)"
         id="path266" />
      <path
         d="m 2072,2124 h -585 v 135 h 675"
         style="fill:none;stroke:#000000;stroke-width:9;stroke-linecap:butt;stroke-linejoin:miter;stroke-miterlimit:10;stroke-dasharray:none;stroke-opacity:1"
         transform="matrix(0.07753467,0,0,-0.07753467,2653.804,424.15067)"
         clip-path="url(#clipPath237)"
         id="path267" />
      <path
         d="M 1712,774 V 189"
         style="fill:none;stroke:#000000;stroke-width:9;stroke-linecap:butt;stroke-linejoin:miter;stroke-miterlimit:10;stroke-dasharray:none;stroke-opacity:1"
         transform="matrix(0.07753467,0,0,-0.07753467,2653.804,424.15067)"
         clip-path="url(#clipPath238)"
         id="path268" />
      <path
         d="m 1676.6,352.801 36,-144 36,144"
         style="fill:none;stroke:#000000;stroke-width:9;stroke-linecap:butt;stroke-linejoin:miter;stroke-miterlimit:10;stroke-dasharray:none;stroke-opacity:1"
         transform="matrix(0.07753467,0,0,-0.07753467,2653.804,424.15067)"
         clip-path="url(#clipPath239)"
         id="path269" />
      <path
         d="m 1631,2196 c 0,-19.88 -16.12,-36 -36,-36 -19.88,0 -36,16.12 -36,36 0,19.88 16.12,36 36,36 19.88,0 36,-16.12 36,-36 z"
         style="fill:none;stroke:#000000;stroke-width:9;stroke-linecap:butt;stroke-linejoin:miter;stroke-miterlimit:10;stroke-dasharray:none;stroke-opacity:1"
         transform="matrix(0.07753467,0,0,-0.07753467,2653.804,424.15067)"
         clip-path="url(#clipPath240)"
         id="path270" />
    </g>
  </g>
</svg>
