<?xml version="1.0" encoding="UTF-8" standalone="no"?>
<!-- Created with Inkscape (http://www.inkscape.org/) -->

<svg
   width="149.07149mm"
   height="144.94083mm"
   viewBox="0 0 149.07149 144.94083"
   version="1.1"
   id="svg1"
   inkscape:version="1.3.2 (091e20ef0f, 2023-11-25)"
   sodipodi:docname="3.svg"
   xmlns:inkscape="http://www.inkscape.org/namespaces/inkscape"
   xmlns:sodipodi="http://sodipodi.sourceforge.net/DTD/sodipodi-0.dtd"
   xmlns="http://www.w3.org/2000/svg"
   xmlns:svg="http://www.w3.org/2000/svg">
  <sodipodi:namedview
     id="namedview1"
     pagecolor="#ffffff"
     bordercolor="#000000"
     borderopacity="0.25"
     inkscape:showpageshadow="2"
     inkscape:pageopacity="0.0"
     inkscape:pagecheckerboard="0"
     inkscape:deskcolor="#d1d1d1"
     inkscape:document-units="mm"
     inkscape:zoom="1.0226992"
     inkscape:cx="355.43197"
     inkscape:cy="381.3438"
     inkscape:window-width="2560"
     inkscape:window-height="1440"
     inkscape:window-x="2560"
     inkscape:window-y="0"
     inkscape:window-maximized="1"
     inkscape:current-layer="layer1">
    <inkscape:page
       x="0"
       y="0"
       width="149.07149"
       height="144.94083"
       id="page1"
       margin="5.0000005"
       bleed="0" />
  </sodipodi:namedview>
  <defs
     id="defs1">
    <clipPath
       clipPathUnits="userSpaceOnUse"
       id="clipPath346">
      <path
         d="M 0,0 H 363 V 351 H 0 Z"
         transform="matrix(1.4546133,0,0,-1.4546133,3489.804,746.83867)"
         id="path346" />
    </clipPath>
    <clipPath
       clipPathUnits="userSpaceOnUse"
       id="clipPath306">
      <path
         d="M 0,0 H 3680 V 3540 H 0 Z"
         transform="translate(-1.8332478e-4,-2.2915598e-5)"
         id="path306" />
    </clipPath>
    <clipPath
       clipPathUnits="userSpaceOnUse"
       id="clipPath307">
      <path
         d="M 0,0 H 3680 V 3540 H 0 Z"
         transform="translate(-1.8332478e-4,-2.2915598e-5)"
         id="path307" />
    </clipPath>
    <clipPath
       clipPathUnits="userSpaceOnUse"
       id="clipPath308">
      <path
         d="M 0,0 H 3680 V 3540 H 0 Z"
         transform="translate(-1.8332478e-4,-2.2915598e-5)"
         id="path308" />
    </clipPath>
    <clipPath
       clipPathUnits="userSpaceOnUse"
       id="clipPath309">
      <path
         d="M 0,0 H 3680 V 3540 H 0 Z"
         transform="translate(-1.8332478e-4,-2.2915598e-5)"
         id="path309" />
    </clipPath>
    <clipPath
       clipPathUnits="userSpaceOnUse"
       id="clipPath310">
      <path
         d="M 0,0 H 3680 V 3540 H 0 Z"
         transform="translate(-1.8332478e-4,-2.2915598e-5)"
         id="path310" />
    </clipPath>
    <clipPath
       clipPathUnits="userSpaceOnUse"
       id="clipPath311">
      <path
         d="M 0,0 H 3680 V 3540 H 0 Z"
         transform="translate(-1.8332478e-4,-2.2915598e-5)"
         id="path311" />
    </clipPath>
    <clipPath
       clipPathUnits="userSpaceOnUse"
       id="clipPath312">
      <path
         d="M 0,0 H 3680 V 3540 H 0 Z"
         transform="translate(-1.8332478e-4,-2.2915598e-5)"
         id="path312" />
    </clipPath>
    <clipPath
       clipPathUnits="userSpaceOnUse"
       id="clipPath313">
      <path
         d="M 0,0 H 3680 V 3540 H 0 Z"
         transform="translate(-1.8332478e-4,-2.2915598e-5)"
         id="path313" />
    </clipPath>
    <clipPath
       clipPathUnits="userSpaceOnUse"
       id="clipPath314">
      <path
         d="M 0,0 H 3680 V 3540 H 0 Z"
         transform="translate(-1.8332478e-4,-2.2915598e-5)"
         id="path314" />
    </clipPath>
    <clipPath
       clipPathUnits="userSpaceOnUse"
       id="clipPath315">
      <path
         d="M 0,0 H 3680 V 3540 H 0 Z"
         transform="translate(-1.8332478e-4,-2.2915598e-5)"
         id="path315" />
    </clipPath>
    <clipPath
       clipPathUnits="userSpaceOnUse"
       id="clipPath316">
      <path
         d="M 0,0 H 3680 V 3540 H 0 Z"
         transform="translate(-1.8332478e-4,-2.2915598e-5)"
         id="path316" />
    </clipPath>
    <clipPath
       clipPathUnits="userSpaceOnUse"
       id="clipPath317">
      <path
         d="M 0,0 H 3680 V 3540 H 0 Z"
         transform="translate(-1.8332478e-4,-2.2915598e-5)"
         id="path317" />
    </clipPath>
    <clipPath
       clipPathUnits="userSpaceOnUse"
       id="clipPath318">
      <path
         d="M 0,0 H 3680 V 3540 H 0 Z"
         transform="translate(-1.8332478e-4,-2.2915598e-5)"
         id="path318" />
    </clipPath>
    <clipPath
       clipPathUnits="userSpaceOnUse"
       id="clipPath319">
      <path
         d="M 0,0 H 3680 V 3540 H 0 Z"
         transform="translate(-1.8332478e-4,-2.2915598e-5)"
         id="path319" />
    </clipPath>
    <clipPath
       clipPathUnits="userSpaceOnUse"
       id="clipPath320">
      <path
         d="M 0,0 H 3680 V 3540 H 0 Z"
         transform="translate(-1.8332478e-4,-2.2915598e-5)"
         id="path320" />
    </clipPath>
    <clipPath
       clipPathUnits="userSpaceOnUse"
       id="clipPath321">
      <path
         d="M 0,0 H 3680 V 3540 H 0 Z"
         transform="translate(-1.8332478e-4,-2.2915598e-5)"
         id="path321" />
    </clipPath>
    <clipPath
       clipPathUnits="userSpaceOnUse"
       id="clipPath322">
      <path
         d="M 0,0 H 3680 V 3540 H 0 Z"
         transform="translate(-1.8332478e-4,-2.2915598e-5)"
         id="path322" />
    </clipPath>
    <clipPath
       clipPathUnits="userSpaceOnUse"
       id="clipPath323">
      <path
         d="M 0,0 H 3680 V 3540 H 0 Z"
         transform="translate(-1.8332478e-4,-2.2915598e-5)"
         id="path323" />
    </clipPath>
    <clipPath
       clipPathUnits="userSpaceOnUse"
       id="clipPath324">
      <path
         d="M 0,0 H 3680 V 3540 H 0 Z"
         transform="translate(-1.8332478e-4,-2.2915598e-5)"
         id="path324" />
    </clipPath>
    <clipPath
       clipPathUnits="userSpaceOnUse"
       id="clipPath325">
      <path
         d="M 0,0 H 3680 V 3540 H 0 Z"
         transform="translate(-1.8332478e-4,-2.2915598e-5)"
         id="path325" />
    </clipPath>
    <clipPath
       clipPathUnits="userSpaceOnUse"
       id="clipPath326">
      <path
         d="M 0,0 H 3680 V 3540 H 0 Z"
         transform="translate(-1.8332478e-4,-2.2915598e-5)"
         id="path326" />
    </clipPath>
    <clipPath
       clipPathUnits="userSpaceOnUse"
       id="clipPath327">
      <path
         d="M 0,0 H 3680 V 3540 H 0 Z"
         transform="translate(-1.8332478e-4,-2.2915598e-5)"
         id="path327" />
    </clipPath>
    <clipPath
       clipPathUnits="userSpaceOnUse"
       id="clipPath328">
      <path
         d="M 0,0 H 3680 V 3540 H 0 Z"
         transform="translate(-1.8332478e-4,-2.2915598e-5)"
         id="path328" />
    </clipPath>
    <clipPath
       clipPathUnits="userSpaceOnUse"
       id="clipPath329">
      <path
         d="M 0,0 H 3680 V 3540 H 0 Z"
         transform="translate(-1.8332478e-4,-2.2915598e-5)"
         id="path329" />
    </clipPath>
    <clipPath
       clipPathUnits="userSpaceOnUse"
       id="clipPath330">
      <path
         d="M 0,0 H 3680 V 3540 H 0 Z"
         transform="translate(-1.8332478e-4,-2.2915598e-5)"
         id="path330" />
    </clipPath>
    <clipPath
       clipPathUnits="userSpaceOnUse"
       id="clipPath331">
      <path
         d="M 0,0 H 3680 V 3540 H 0 Z"
         transform="translate(-1.8332478e-4,-2.2915598e-5)"
         id="path331" />
    </clipPath>
    <clipPath
       clipPathUnits="userSpaceOnUse"
       id="clipPath332">
      <path
         d="M 0,0 H 3680 V 3540 H 0 Z"
         transform="translate(-1.8332478e-4,-2.2915598e-5)"
         id="path332" />
    </clipPath>
    <clipPath
       clipPathUnits="userSpaceOnUse"
       id="clipPath333">
      <path
         d="M 0,0 H 3680 V 3540 H 0 Z"
         transform="translate(-1.8332478e-4,-2.2915598e-5)"
         id="path333" />
    </clipPath>
    <clipPath
       clipPathUnits="userSpaceOnUse"
       id="clipPath334">
      <path
         d="M 0,0 H 3680 V 3540 H 0 Z"
         transform="translate(-1.8332478e-4,-2.2915598e-5)"
         id="path334" />
    </clipPath>
    <clipPath
       clipPathUnits="userSpaceOnUse"
       id="clipPath335">
      <path
         d="M 0,0 H 3680 V 3540 H 0 Z"
         transform="translate(-1.8332478e-4,-2.2915598e-5)"
         id="path335" />
    </clipPath>
    <clipPath
       clipPathUnits="userSpaceOnUse"
       id="clipPath336">
      <path
         d="M 0,0 H 3680 V 3540 H 0 Z"
         transform="translate(-1.8332478e-4,-2.2915598e-5)"
         id="path336" />
    </clipPath>
    <clipPath
       clipPathUnits="userSpaceOnUse"
       id="clipPath337">
      <path
         d="M 0,0 H 3680 V 3540 H 0 Z"
         transform="translate(-1.8332478e-4,-2.2915598e-5)"
         id="path337" />
    </clipPath>
    <clipPath
       clipPathUnits="userSpaceOnUse"
       id="clipPath338">
      <path
         d="M 0,0 H 3680 V 3540 H 0 Z"
         transform="translate(-1.8332478e-4,-2.2915598e-5)"
         id="path338" />
    </clipPath>
    <clipPath
       clipPathUnits="userSpaceOnUse"
       id="clipPath339">
      <path
         d="M 0,0 H 3680 V 3540 H 0 Z"
         transform="translate(-1.8332478e-4,-2.2915598e-5)"
         id="path339" />
    </clipPath>
    <clipPath
       clipPathUnits="userSpaceOnUse"
       id="clipPath340">
      <path
         d="M 0,0 H 3680 V 3540 H 0 Z"
         transform="translate(-1.8332478e-4,-2.2915598e-5)"
         id="path340" />
    </clipPath>
    <clipPath
       clipPathUnits="userSpaceOnUse"
       id="clipPath341">
      <path
         d="M 0,0 H 3680 V 3540 H 0 Z"
         transform="translate(-1.8332478e-4,-2.2915598e-5)"
         id="path341" />
    </clipPath>
    <clipPath
       clipPathUnits="userSpaceOnUse"
       id="clipPath342">
      <path
         d="M 0,0 H 3680 V 3540 H 0 Z"
         transform="matrix(0.1,0,0,-0.1,-52.350014,125.95001)"
         id="path342" />
    </clipPath>
    <clipPath
       clipPathUnits="userSpaceOnUse"
       id="clipPath343">
      <path
         d="M 0,0 H 3680 V 3540 H 0 Z"
         transform="matrix(0.1,0,0,-0.1,-131.55003,338.80001)"
         id="path343" />
    </clipPath>
    <clipPath
       clipPathUnits="userSpaceOnUse"
       id="clipPath344">
      <path
         d="M 0,0 H 3680 V 3540 H 0 Z"
         transform="matrix(0.1,0,0,-0.1,-299.85002,125.95001)"
         id="path344" />
    </clipPath>
    <clipPath
       clipPathUnits="userSpaceOnUse"
       id="clipPath345">
      <path
         d="M 0,0 H 3680 V 3540 H 0 Z"
         transform="matrix(0.1,0,0,-0.1,-201.83999,51.700004)"
         id="path345" />
    </clipPath>
  </defs>
  <g
     inkscape:label="Layer 1"
     inkscape:groupmode="layer"
     id="layer1"
     transform="translate(-10.946106,-47.640975)">
    <rect
       style="fill:#ffffff;stroke-width:0.264583"
       id="rect1"
       width="149.07149"
       height="144.94083"
       x="10.946106"
       y="47.640976" />
    <g
       id="g387"
       transform="matrix(0.26458333,0,0,0.26458333,-907.725,-9.9422843)">
      <g
         clip-path="url(#clipPath346)"
         id="g386">
        <path
           d="m 458.156,1079.32 c 11.828,-8.49 26.028,-13.07 40.594,-13.07 14.566,0 28.766,4.58 40.594,13.07"
           style="fill:none;stroke:#00b000;stroke-width:9.9;stroke-linecap:butt;stroke-linejoin:miter;stroke-miterlimit:10;stroke-dasharray:none;stroke-opacity:1"
           transform="matrix(0.14546133,0,0,-0.14546133,3486.8948,749.74789)"
           clip-path="url(#clipPath306)"
           id="path347" />
        <path
           d="m 538.02,1144 c 0,-10.93 -8.868,-19.8 -19.801,-19.8 -10.934,0 -19.801,8.87 -19.801,19.8 0,10.93 8.867,19.8 19.801,19.8 10.933,0 19.801,-8.87 19.801,-19.8 z"
           style="fill:none;stroke:#00b000;stroke-width:9.9;stroke-linecap:butt;stroke-linejoin:miter;stroke-miterlimit:10;stroke-dasharray:none;stroke-opacity:1"
           transform="matrix(0.14546133,0,0,-0.14546133,3486.8948,749.74789)"
           clip-path="url(#clipPath307)"
           id="path348" />
        <path
           d="m 646.922,1111 c 0,-54.68 -44.324,-99 -99,-99 -54.676,0 -99,44.32 -99,99 0,54.68 44.324,99 99,99 54.676,0 99,-44.32 99,-99 z"
           style="fill:none;stroke:#00b000;stroke-width:9.9;stroke-linecap:butt;stroke-linejoin:miter;stroke-miterlimit:10;stroke-dasharray:none;stroke-opacity:1"
           transform="matrix(0.14546133,0,0,-0.14546133,3486.8948,749.74789)"
           clip-path="url(#clipPath308)"
           id="path349" />
        <path
           d="M 547.922,1012 V 814 l -49.5,-99"
           style="fill:none;stroke:#00b000;stroke-width:9.9;stroke-linecap:butt;stroke-linejoin:miter;stroke-miterlimit:10;stroke-dasharray:none;stroke-opacity:1"
           transform="matrix(0.14546133,0,0,-0.14546133,3486.8948,749.74789)"
           clip-path="url(#clipPath309)"
           id="path350" />
        <path
           d="m 547.922,814 49.5,-99"
           style="fill:none;stroke:#00b000;stroke-width:9.9;stroke-linecap:butt;stroke-linejoin:miter;stroke-miterlimit:10;stroke-dasharray:none;stroke-opacity:1"
           transform="matrix(0.14546133,0,0,-0.14546133,3486.8948,749.74789)"
           clip-path="url(#clipPath310)"
           id="path351" />
        <path
           d="m 696.422,1012 -148.5,-99 -247.5,198"
           style="fill:none;stroke:#00b000;stroke-width:9.9;stroke-linecap:butt;stroke-linejoin:miter;stroke-miterlimit:10;stroke-dasharray:none;stroke-opacity:1"
           transform="matrix(0.14546133,0,0,-0.14546133,3486.8948,749.74789)"
           clip-path="url(#clipPath311)"
           id="path352" />
        <path
           d="m 523.5,2893 c 0,-27.34 -22.164,-49.5 -49.5,-49.5 -27.336,0 -49.5,22.16 -49.5,49.5 0,27.34 22.164,49.5 49.5,49.5 27.336,0 49.5,-22.16 49.5,-49.5 z"
           style="fill:none;stroke:#000000;stroke-width:4.95;stroke-linecap:butt;stroke-linejoin:miter;stroke-miterlimit:10;stroke-dasharray:none;stroke-opacity:1"
           transform="matrix(0.14546133,0,0,-0.14546133,3486.8948,749.74789)"
           clip-path="url(#clipPath312)"
           id="path353" />
        <path
           d="m 584.879,2893 c 0,-61.23 -49.645,-110.88 -110.879,-110.88 -61.234,0 -110.879,49.65 -110.879,110.88 0,61.23 49.645,110.88 110.879,110.88 61.234,0 110.879,-49.65 110.879,-110.88 z"
           style="fill:none;stroke:#000000;stroke-width:4.95;stroke-linecap:butt;stroke-linejoin:miter;stroke-miterlimit:10;stroke-dasharray:none;stroke-opacity:1"
           transform="matrix(0.14546133,0,0,-0.14546133,3486.8948,749.74789)"
           clip-path="url(#clipPath313)"
           id="path354" />
        <path
           d="m 613.918,2893 c 0,-77.27 -62.645,-139.92 -139.918,-139.92 -77.273,0 -139.922,62.65 -139.922,139.92 0,77.27 62.649,139.92 139.922,139.92 77.273,0 139.918,-62.65 139.918,-139.92 z"
           style="fill:none;stroke:#000000;stroke-width:19.8;stroke-linecap:butt;stroke-linejoin:miter;stroke-miterlimit:10;stroke-dasharray:none;stroke-opacity:1"
           transform="matrix(0.14546133,0,0,-0.14546133,3486.8948,749.74789)"
           clip-path="url(#clipPath314)"
           id="path355" />
        <path
           d="m 1167,2893 c 0,-27.34 -22.16,-49.5 -49.5,-49.5 -27.34,0 -49.5,22.16 -49.5,49.5 0,27.34 22.16,49.5 49.5,49.5 27.34,0 49.5,-22.16 49.5,-49.5 z"
           style="fill:none;stroke:#000000;stroke-width:4.95;stroke-linecap:butt;stroke-linejoin:miter;stroke-miterlimit:10;stroke-dasharray:none;stroke-opacity:1"
           transform="matrix(0.14546133,0,0,-0.14546133,3486.8948,749.74789)"
           clip-path="url(#clipPath315)"
           id="path356" />
        <path
           d="m 1228.38,2893 c 0,-61.23 -49.65,-110.88 -110.88,-110.88 -61.23,0 -110.88,49.65 -110.88,110.88 0,61.23 49.65,110.88 110.88,110.88 61.23,0 110.88,-49.65 110.88,-110.88 z"
           style="fill:none;stroke:#000000;stroke-width:4.95;stroke-linecap:butt;stroke-linejoin:miter;stroke-miterlimit:10;stroke-dasharray:none;stroke-opacity:1"
           transform="matrix(0.14546133,0,0,-0.14546133,3486.8948,749.74789)"
           clip-path="url(#clipPath316)"
           id="path357" />
        <path
           d="m 1257.42,2893 c 0,-77.27 -62.65,-139.92 -139.92,-139.92 -77.27,0 -139.922,62.65 -139.922,139.92 0,77.27 62.652,139.92 139.922,139.92 77.27,0 139.92,-62.65 139.92,-139.92 z"
           style="fill:none;stroke:#000000;stroke-width:19.8;stroke-linecap:butt;stroke-linejoin:miter;stroke-miterlimit:10;stroke-dasharray:none;stroke-opacity:1"
           transform="matrix(0.14546133,0,0,-0.14546133,3486.8948,749.74789)"
           clip-path="url(#clipPath317)"
           id="path358" />
        <path
           d="m 1761,2893 c 0,-27.34 -22.16,-49.5 -49.5,-49.5 -27.34,0 -49.5,22.16 -49.5,49.5 0,27.34 22.16,49.5 49.5,49.5 27.34,0 49.5,-22.16 49.5,-49.5 z"
           style="fill:none;stroke:#000000;stroke-width:4.95;stroke-linecap:butt;stroke-linejoin:miter;stroke-miterlimit:10;stroke-dasharray:none;stroke-opacity:1"
           transform="matrix(0.14546133,0,0,-0.14546133,3486.8948,749.74789)"
           clip-path="url(#clipPath318)"
           id="path359" />
        <path
           d="m 1822.38,2893 c 0,-61.23 -49.65,-110.88 -110.88,-110.88 -61.23,0 -110.88,49.65 -110.88,110.88 0,61.23 49.65,110.88 110.88,110.88 61.23,0 110.88,-49.65 110.88,-110.88 z"
           style="fill:none;stroke:#000000;stroke-width:4.95;stroke-linecap:butt;stroke-linejoin:miter;stroke-miterlimit:10;stroke-dasharray:none;stroke-opacity:1"
           transform="matrix(0.14546133,0,0,-0.14546133,3486.8948,749.74789)"
           clip-path="url(#clipPath319)"
           id="path360" />
        <path
           d="m 1851.42,2893 c 0,-77.27 -62.65,-139.92 -139.92,-139.92 -77.27,0 -139.92,62.65 -139.92,139.92 0,77.27 62.65,139.92 139.92,139.92 77.27,0 139.92,-62.65 139.92,-139.92 z"
           style="fill:none;stroke:#000000;stroke-width:19.8;stroke-linecap:butt;stroke-linejoin:miter;stroke-miterlimit:10;stroke-dasharray:none;stroke-opacity:1"
           transform="matrix(0.14546133,0,0,-0.14546133,3486.8948,749.74789)"
           clip-path="url(#clipPath320)"
           id="path361" />
        <path
           d="m 1464,1754.5 c 0,-27.34 -22.16,-49.5 -49.5,-49.5 -27.34,0 -49.5,22.16 -49.5,49.5 0,27.34 22.16,49.5 49.5,49.5 27.34,0 49.5,-22.16 49.5,-49.5 z"
           style="fill:none;stroke:#000000;stroke-width:4.95;stroke-linecap:butt;stroke-linejoin:miter;stroke-miterlimit:10;stroke-dasharray:none;stroke-opacity:1"
           transform="matrix(0.14546133,0,0,-0.14546133,3486.8948,749.74789)"
           clip-path="url(#clipPath321)"
           id="path362" />
        <path
           d="m 1525.38,1754.5 c 0,-61.23 -49.65,-110.88 -110.88,-110.88 -61.23,0 -110.88,49.65 -110.88,110.88 0,61.23 49.65,110.88 110.88,110.88 61.23,0 110.88,-49.65 110.88,-110.88 z"
           style="fill:none;stroke:#000000;stroke-width:4.95;stroke-linecap:butt;stroke-linejoin:miter;stroke-miterlimit:10;stroke-dasharray:none;stroke-opacity:1"
           transform="matrix(0.14546133,0,0,-0.14546133,3486.8948,749.74789)"
           clip-path="url(#clipPath322)"
           id="path363" />
        <path
           d="m 1554.42,1754.5 c 0,-77.27 -62.65,-139.92 -139.92,-139.92 -77.27,0 -139.92,62.65 -139.92,139.92 0,77.27 62.65,139.92 139.92,139.92 77.27,0 139.92,-62.65 139.92,-139.92 z"
           style="fill:none;stroke:#000000;stroke-width:19.8;stroke-linecap:butt;stroke-linejoin:miter;stroke-miterlimit:10;stroke-dasharray:none;stroke-opacity:1"
           transform="matrix(0.14546133,0,0,-0.14546133,3486.8948,749.74789)"
           clip-path="url(#clipPath323)"
           id="path364" />
        <path
           d="m 2602.5,2893 c 0,-27.34 -22.16,-49.5 -49.5,-49.5 -27.34,0 -49.5,22.16 -49.5,49.5 0,27.34 22.16,49.5 49.5,49.5 27.34,0 49.5,-22.16 49.5,-49.5 z"
           style="fill:none;stroke:#000000;stroke-width:4.95;stroke-linecap:butt;stroke-linejoin:miter;stroke-miterlimit:10;stroke-dasharray:none;stroke-opacity:1"
           transform="matrix(0.14546133,0,0,-0.14546133,3486.8948,749.74789)"
           clip-path="url(#clipPath324)"
           id="path365" />
        <path
           d="m 2663.88,2893 c 0,-61.23 -49.65,-110.88 -110.88,-110.88 -61.23,0 -110.88,49.65 -110.88,110.88 0,61.23 49.65,110.88 110.88,110.88 61.23,0 110.88,-49.65 110.88,-110.88 z"
           style="fill:none;stroke:#000000;stroke-width:4.95;stroke-linecap:butt;stroke-linejoin:miter;stroke-miterlimit:10;stroke-dasharray:none;stroke-opacity:1"
           transform="matrix(0.14546133,0,0,-0.14546133,3486.8948,749.74789)"
           clip-path="url(#clipPath325)"
           id="path366" />
        <path
           d="m 2692.92,2893 c 0,-77.27 -62.65,-139.92 -139.92,-139.92 -77.27,0 -139.92,62.65 -139.92,139.92 0,77.27 62.65,139.92 139.92,139.92 77.27,0 139.92,-62.65 139.92,-139.92 z"
           style="fill:none;stroke:#000000;stroke-width:19.8;stroke-linecap:butt;stroke-linejoin:miter;stroke-miterlimit:10;stroke-dasharray:none;stroke-opacity:1"
           transform="matrix(0.14546133,0,0,-0.14546133,3486.8948,749.74789)"
           clip-path="url(#clipPath326)"
           id="path367" />
        <path
           d="M 28.5,3338.5 H 3642"
           style="fill:none;stroke:#000000;stroke-width:19.8;stroke-linecap:butt;stroke-linejoin:miter;stroke-miterlimit:10;stroke-dasharray:none;stroke-opacity:1"
           transform="matrix(0.14546133,0,0,-0.14546133,3486.8948,749.74789)"
           clip-path="url(#clipPath327)"
           id="path368" />
        <path
           d="m 1414.5,1754.5 v -693 L 1266,715"
           style="fill:none;stroke:#000000;stroke-width:4.95;stroke-linecap:butt;stroke-linejoin:miter;stroke-miterlimit:10;stroke-dasharray:none;stroke-opacity:1"
           transform="matrix(0.14546133,0,0,-0.14546133,3486.8948,749.74789)"
           clip-path="url(#clipPath328)"
           id="path369" />
        <path
           d="M 1414.5,1061.5 1563,715"
           style="fill:none;stroke:#000000;stroke-width:4.95;stroke-linecap:butt;stroke-linejoin:miter;stroke-miterlimit:10;stroke-dasharray:none;stroke-opacity:1"
           transform="matrix(0.14546133,0,0,-0.14546133,3486.8948,749.74789)"
           clip-path="url(#clipPath329)"
           id="path370" />
        <path
           d="m 1117.5,2893 v 445.5"
           style="fill:none;stroke:#000000;stroke-width:4.95;stroke-linecap:butt;stroke-linejoin:miter;stroke-miterlimit:10;stroke-dasharray:none;stroke-opacity:1"
           transform="matrix(0.14546133,0,0,-0.14546133,3486.8948,749.74789)"
           clip-path="url(#clipPath330)"
           id="path371" />
        <path
           d="m 474,2893 v 445.5"
           style="fill:none;stroke:#000000;stroke-width:4.95;stroke-linecap:butt;stroke-linejoin:miter;stroke-miterlimit:10;stroke-dasharray:none;stroke-opacity:1"
           transform="matrix(0.14546133,0,0,-0.14546133,3486.8948,749.74789)"
           clip-path="url(#clipPath331)"
           id="path372" />
        <path
           d="m 1711.5,2893 v 445.5"
           style="fill:none;stroke:#000000;stroke-width:4.95;stroke-linecap:butt;stroke-linejoin:miter;stroke-miterlimit:10;stroke-dasharray:none;stroke-opacity:1"
           transform="matrix(0.14546133,0,0,-0.14546133,3486.8948,749.74789)"
           clip-path="url(#clipPath332)"
           id="path373" />
        <path
           d="M 1117.5,3041.5 H 474"
           style="fill:none;stroke:#000000;stroke-width:9.9;stroke-linecap:butt;stroke-linejoin:miter;stroke-miterlimit:10;stroke-dasharray:none;stroke-opacity:1"
           transform="matrix(0.14546133,0,0,-0.14546133,3486.8948,749.74789)"
           clip-path="url(#clipPath333)"
           id="path374" />
        <path
           d="m 1266,2942.5 v -1188"
           style="fill:none;stroke:#000000;stroke-width:9.9;stroke-linecap:butt;stroke-linejoin:miter;stroke-miterlimit:10;stroke-dasharray:none;stroke-opacity:1"
           transform="matrix(0.14546133,0,0,-0.14546133,3486.8948,749.74789)"
           clip-path="url(#clipPath334)"
           id="path375" />
        <path
           d="m 1563,2942.5 v -1188"
           style="fill:none;stroke:#000000;stroke-width:9.9;stroke-linecap:butt;stroke-linejoin:miter;stroke-miterlimit:10;stroke-dasharray:none;stroke-opacity:1"
           transform="matrix(0.14546133,0,0,-0.14546133,3486.8948,749.74789)"
           clip-path="url(#clipPath335)"
           id="path376" />
        <path
           d="M 325.5,2893 V 22"
           style="fill:none;stroke:#000000;stroke-width:9.9;stroke-linecap:butt;stroke-linejoin:miter;stroke-miterlimit:10;stroke-dasharray:none;stroke-opacity:1"
           transform="matrix(0.14546133,0,0,-0.14546133,3486.8948,749.74789)"
           clip-path="url(#clipPath336)"
           id="path377" />
        <path
           d="M 424.5,715 H 3642"
           style="fill:none;stroke:#0000ff;stroke-width:29.7;stroke-linecap:butt;stroke-linejoin:miter;stroke-miterlimit:10;stroke-dasharray:none;stroke-opacity:1"
           transform="matrix(0.14546133,0,0,-0.14546133,3486.8948,749.74789)"
           clip-path="url(#clipPath337)"
           id="path378" />
        <path
           d="m 3265.8,744.699 h 247.5 v 346.5 h -247.5 z"
           style="fill:none;stroke:#ff0000;stroke-width:29.7;stroke-linecap:butt;stroke-linejoin:miter;stroke-miterlimit:10;stroke-dasharray:none;stroke-opacity:1"
           transform="matrix(0.14546133,0,0,-0.14546133,3486.8948,749.74789)"
           clip-path="url(#clipPath338)"
           id="path379" />
        <path
           d="M 2701.5,2893 V 715"
           style="fill:none;stroke:#000000;stroke-width:9.9;stroke-linecap:butt;stroke-linejoin:miter;stroke-miterlimit:10;stroke-dasharray:none;stroke-opacity:1"
           transform="matrix(0.14546133,0,0,-0.14546133,3486.8948,749.74789)"
           clip-path="url(#clipPath339)"
           id="path380" />
        <path
           d="M 2553,3041.5 H 1761"
           style="fill:none;stroke:#000000;stroke-width:9.9;stroke-linecap:butt;stroke-linejoin:miter;stroke-miterlimit:10;stroke-dasharray:none;stroke-opacity:1"
           transform="matrix(0.14546133,0,0,-0.14546133,3486.8948,749.74789)"
           clip-path="url(#clipPath340)"
           id="path381" />
        <path
           d="m 2553,2893 v 445.5"
           style="fill:none;stroke:#000000;stroke-width:4.95;stroke-linecap:butt;stroke-linejoin:miter;stroke-miterlimit:10;stroke-dasharray:none;stroke-opacity:1"
           transform="matrix(0.14546133,0,0,-0.14546133,3486.8948,749.74789)"
           clip-path="url(#clipPath341)"
           id="path382" />
        <path
           d="m 9.7206674,-4.5331851 c 0,-2.7283883 -1.6864447,-4.4792832 -4.1570326,-4.4792832 -0.8808182,0 -1.5360611,0.2255754 -2.3094625,0.8163682 l 0.4296674,-2.7928389 h 5.5104851 v -2.341687 H 2.0725868 L 0.88025965,-5.9081209 H 3.2541723 c 0.2792838,-0.6552429 0.8808183,-1.0097185 1.6971864,-1.0097185 1.3319691,0 2.1375956,0.8271098 2.1375956,2.4383627 0,1.5682862 -0.8271099,2.3953961 -2.1375956,2.3953961 -1.1493604,0 -1.84757,-0.5907928 -1.84757,-1.6542197 H 0.50430063 c 0,2.3309459 1.80460327,3.90997376 4.40409137,3.90997376 2.8572885,0 4.8122754,-1.82608666 4.8122754,-4.70485856 z M 20.180384,-6.6385556 c 0,-3.7810734 -0.676726,-6.9820964 -4.5867,-6.9820964 -3.813298,0 -4.5867,3.072123 -4.5867,6.9069046 0,3.7273651 0.730435,6.88542086 4.5867,6.88542086 2.706905,0 4.5867,-1.54680286 4.5867,-6.81022906 z m -2.631713,-0.053708 c 0,3.7381068 -0.547826,4.6081834 -1.954987,4.6081834 -1.331969,0 -1.954987,-0.6767263 -1.954987,-4.6511502 0,-3.8777496 0.547826,-4.7585676 1.954987,-4.7585676 1.299744,0 1.954987,0.655243 1.954987,4.8015344 z m 7.395651,6.69207047778 V -2.7500652 H 22.119259 V -1.9352222e-4 Z M 35.865932,-6.6385556 c 0,-3.7810734 -0.676727,-6.9820964 -4.5867,-6.9820964 -3.813299,0 -4.5867,3.072123 -4.5867,6.9069046 0,3.7273651 0.730434,6.88542086 4.5867,6.88542086 2.706905,0 4.5867,-1.54680286 4.5867,-6.81022906 z m -2.631713,-0.053708 c 0,3.7381068 -0.547826,4.6081834 -1.954987,4.6081834 -1.331969,0 -1.954987,-0.6767263 -1.954987,-4.6511502 0,-3.8777496 0.547826,-4.7585676 1.954987,-4.7585676 1.299744,0 1.954987,0.655243 1.954987,4.8015344 z M 52.144957,-1.9352222e-4 48.439075,-6.316305 l 3.458823,-3.845524 h -2.99693 l -3.329923,3.9529408 V -13.706585 H 42.939332 V -1.9352222e-4 h 2.631713 V -3.3301163 l 1.063427,-1.1493604 2.41688,4.47928317778 z M 62.465032,0.34354044 V -10.161829 h -2.502813 v 1.5682865 C 59.178076,-9.7966114 58.308,-10.322954 57.147897,-10.322954 c -2.406137,0 -4.210741,2.2127874 -4.210741,5.3601014 0,3.1580558 1.65422,5.13452606 4.157033,5.13452606 1.181586,0 1.890537,-0.36521733 2.86803,-1.34271076 v 1.51457774 c 0,1.21381056 -0.913043,2.06240376 -2.23427,2.06240376 -0.998977,0 -1.65422,-0.4081841 -1.858312,-1.1815855 h -2.728388 c 0.03222,1.6542197 1.707928,2.8787719 4.490024,2.8787719 3.072123,0 4.833759,-1.3749358 4.833759,-3.75959016 z M 60.005186,-5.0058193 c 0,1.84757 -0.95601,2.9754471 -2.330946,2.9754471 -1.246035,0 -2.10537,-1.1278771 -2.10537,-2.9754471 0,-1.9120201 0.859335,-3.115089 2.137595,-3.115089 1.321228,0 2.298721,1.2352939 2.298721,3.115089 z m 0,0"
           style="fill:#00b000;fill-opacity:1;fill-rule:nonzero;stroke:none"
           aria-label="50.0 kg"
           transform="matrix(1.4546133,0,0,1.4546133,3563.0438,566.53934)"
           clip-path="url(#clipPath342)"
           id="path383" />
        <path
           d="M 9.8184805,-3.5119228 H 7.2941843 c -0.3329923,1.0526852 -0.8593349,1.5575445 -1.8797951,1.5575445 -1.3319691,0 -2.1375956,-1.0741686 -2.1375956,-3.0506389 0,-1.8583117 0.4833759,-3.1902808 2.1375956,-3.1902808 1.0741686,0 1.5790278,0.5048592 1.8797951,1.8368283 h 2.5242962 c -0.1826087,-2.4813295 -1.84757,-3.9636823 -4.382608,-3.9636823 -3.0291555,0 -4.79079202,1.8583118 -4.79079202,5.3171348 0,3.3514061 1.74015312,5.17749276 4.75856702,5.17749276 2.4598461,0 4.1677742,-1.52531946 4.414833,-3.68439836 z M 20.32922,-4.70425 c 0,-3.491048 -1.761636,-5.617902 -4.758567,-5.617902 -2.910996,0 -4.694116,1.9764704 -4.694116,5.3708432 0,3.254731 1.761636,5.12378436 4.640408,5.12378436 2.277238,0 4.114066,-1.04194356 4.704859,-3.02915556 h -2.599488 c -0.225576,0.7304347 -1.052686,1.0097186 -2.008696,1.0097186 -1.246035,0 -2.030178,-0.5585677 -2.10537,-2.535038 h 6.810229 z m -2.73913,-1.4286443 h -4.049615 c 0.171867,-1.4071608 0.82711,-2.1805623 1.997953,-2.1805623 1.127877,0 1.912021,0.7304347 2.051662,2.1805623 z M 24.805818,6.0858097e-4 V -10.161027 H 22.174105 V 6.0858097e-4 Z M 24.848785,-11.374837 v -2.642455 h -2.631713 v 2.642455 z M 30.034334,6.0858097e-4 V -13.705783 H 27.402621 V 6.0858097e-4 Z m 5.228516,0 V -10.161027 H 32.631137 V 6.0858097e-4 Z M 35.305816,-11.374837 v -2.642455 h -2.631713 v 2.642455 z M 46.874613,6.0858097e-4 V -6.8096205 c 0,-2.2342707 -1.246036,-3.5125315 -3.405115,-3.5125315 -1.374936,0 -2.298721,0.5048594 -3.050639,1.6327364 V -10.161027 H 37.787146 V 6.0858097e-4 h 2.631713 V -6.0899275 c 0,-1.2030689 0.848593,-1.9979536 2.126854,-1.9979536 1.127877,0 1.697186,0.6230178 1.697186,1.8260866 V 6.0858097e-4 Z M 58.268856,0.34434254 V -10.161027 h -2.502813 v 1.5682866 c -0.784143,-1.2030689 -1.654219,-1.7294116 -2.814321,-1.7294116 -2.406138,0 -4.210741,2.2127875 -4.210741,5.3601015 0,3.1580558 1.654219,5.13452606 4.157032,5.13452606 1.181586,0 1.890537,-0.36521733 2.86803,-1.34271076 v 1.51457774 c 0,1.21381056 -0.913043,2.06240376 -2.23427,2.06240376 -0.998977,0 -1.65422,-0.4081841 -1.858312,-1.1815855 h -2.728388 c 0.03222,1.6542197 1.707928,2.8787719 4.490024,2.8787719 3.072123,0 4.833759,-1.3749358 4.833759,-3.75959016 z M 55.80901,-5.0050172 c 0,1.84757 -0.95601,2.9754471 -2.330946,2.9754471 -1.246035,0 -2.10537,-1.1278771 -2.10537,-2.9754471 0,-1.9120201 0.859335,-3.115089 2.137595,-3.115089 1.321228,0 2.298721,1.2352939 2.298721,3.115089 z m 0,0"
           style="fill:#000000;fill-opacity:1;fill-rule:nonzero;stroke:none"
           aria-label="ceiling"
           transform="matrix(1.4546133,0,0,1.4546133,3678.2492,256.9249)"
           clip-path="url(#clipPath343)"
           id="path384" />
        <path
           d="m 9.69032,-9.3884273 c 0,-2.5780047 -1.7723782,-4.2322247 -4.5759583,-4.2322247 -2.7606134,0 -4.38260802,1.643478 -4.38260802,4.4578001 0,0.1181586 0,0.2685422 0.0214834,0.4726342 H 3.2775333 v -0.4296674 c 0,-1.4930949 0.6874679,-2.3524289 1.9012785,-2.3524289 1.1601021,0 1.8797951,0.805626 1.8797951,2.1483368 0,1.4608694 -0.4726342,2.0409204 -3.4051146,4.1355492 -2.2557541,1.5360612 -2.95396367,2.7283883 -3.08286391,5.18823447778 H 9.6366116 V -2.3526228 H 3.9864846 C 4.3302186,-3.0615741 4.7384026,-3.4375331 6.6933895,-4.8769191 9.0135938,-6.5633638 9.69032,-7.583824 9.69032,-9.3884273 Z m 10.489257,2.7498717 c 0,-3.7810734 -0.676727,-6.9820964 -4.5867,-6.9820964 -3.813299,0 -4.5867,3.072123 -4.5867,6.9069046 0,3.7273651 0.730434,6.88542086 4.5867,6.88542086 2.706904,0 4.5867,-1.54680286 4.5867,-6.81022906 z m -2.631714,-0.053708 c 0,3.7381068 -0.547826,4.6081834 -1.954986,4.6081834 -1.33197,0 -1.954987,-0.6767263 -1.954987,-4.6511502 0,-3.8777496 0.547826,-4.7585676 1.954987,-4.7585676 1.299744,0 1.954986,0.655243 1.954986,4.8015344 z m 7.395651,6.69207047778 V -2.7500652 H 22.118451 V -1.9352222e-4 Z M 35.867809,-6.6385556 c 0,-3.7810734 -0.676726,-6.9820964 -4.5867,-6.9820964 -3.813298,0 -4.5867,3.072123 -4.5867,6.9069046 0,3.7273651 0.730435,6.88542086 4.5867,6.88542086 2.706905,0 4.5867,-1.54680286 4.5867,-6.81022906 z m -2.631713,-0.053708 c 0,3.7381068 -0.547826,4.6081834 -1.954987,4.6081834 -1.331969,0 -1.954987,-0.6767263 -1.954987,-4.6511502 0,-3.8777496 0.547826,-4.7585676 1.954987,-4.7585676 1.299744,0 1.954987,0.655243 1.954987,4.8015344 z M 52.144149,-1.9352222e-4 48.438268,-6.316305 51.897091,-10.161829 H 48.90016 l -3.329923,3.9529408 V -13.706585 H 42.938524 V -1.9352222e-4 h 2.631713 V -3.3301163 l 1.063427,-1.1493604 2.41688,4.47928317778 z M 62.464224,0.34354044 V -10.161829 h -2.502812 v 1.5682865 c -0.784144,-1.2030689 -1.65422,-1.7294115 -2.814322,-1.7294115 -2.406138,0 -4.210741,2.2127874 -4.210741,5.3601014 0,3.1580558 1.654219,5.13452606 4.157032,5.13452606 1.181586,0 1.890537,-0.36521733 2.868031,-1.34271076 v 1.51457774 c 0,1.21381056 -0.913044,2.06240376 -2.234271,2.06240376 -0.998977,0 -1.65422,-0.4081841 -1.858312,-1.1815855 h -2.728388 c 0.03222,1.6542197 1.707928,2.8787719 4.490025,2.8787719 3.072122,0 4.833758,-1.3749358 4.833758,-3.75959016 z M 60.004378,-5.0058193 c 0,1.84757 -0.95601,2.9754471 -2.330946,2.9754471 -1.246035,0 -2.10537,-1.1278771 -2.10537,-2.9754471 0,-1.9120201 0.859335,-3.115089 2.137595,-3.115089 1.321228,0 2.298721,1.2352939 2.298721,3.115089 z m 0,0"
           style="fill:#ff0000;fill-opacity:1;fill-rule:nonzero;stroke:none"
           aria-label="20.0 kg"
           transform="matrix(1.4546133,0,0,1.4546133,3923.0606,566.53934)"
           clip-path="url(#clipPath344)"
           id="path385" />
        <path
           d="m 9.7092874,-4.1042971 c 0,-1.5575445 -0.6874679,-2.4383627 -2.1913039,-3.1795391 1.2460356,-0.7626597 1.7508948,-1.4823527 1.7508948,-2.7069049 0,-2.2127869 -1.6542197,-3.6306899 -4.2322244,-3.6306899 -2.5780047,0 -4.31815783,1.353452 -4.31815783,4.2537077 v 0.2255754 H 3.1568588 c 0,-1.6542201 0.5263427,-2.3524291 1.8260867,-2.3524291 1.0526853,0 1.6542197,0.644501 1.6542197,1.7508947 0,1.331969 -0.7734014,1.879795 -2.3309459,1.879795 H 4.0806439 v 1.7723783 c 1.9764702,0 2.9861887,0.5585677 2.9861887,1.9872119 0,1.1708438 -0.8271098,2.019437 -1.9657285,2.019437 -1.2460357,0 -1.9979537,-0.7196929 -1.9979537,-2.0946288 H 0.54662909 c 0,2.6746799 1.76163651,4.35038294 4.49002481,4.35038294 2.8465469,0 4.6726335,-1.67570304 4.6726335,-4.27519114 z M 20.179746,-6.639335 c 0,-3.781074 -0.676726,-6.982096 -4.5867,-6.982096 -3.813299,0 -4.5867,3.072122 -4.5867,6.9069042 0,3.7273651 0.730435,6.88542084 4.5867,6.88542084 2.706905,0 4.5867,-1.54680284 4.5867,-6.81022904 z m -2.631713,-0.053708 c 0,3.7381069 -0.547826,4.6081834 -1.954987,4.6081834 -1.331969,0 -1.954987,-0.6767262 -1.954987,-4.6511501 0,-3.8777483 0.547826,-4.7585673 1.954987,-4.7585673 1.299744,0 1.954987,0.655243 1.954987,4.801534 z m 7.395651,6.69207056103 V -2.7508446 H 22.11862 V -9.7293897e-4 Z M 35.867979,-6.639335 c 0,-3.781074 -0.676726,-6.982096 -4.5867,-6.982096 -3.813299,0 -4.5867,3.072122 -4.5867,6.9069042 0,3.7273651 0.730434,6.88542084 4.5867,6.88542084 2.706905,0 4.5867,-1.54680284 4.5867,-6.81022904 z m -2.631713,-0.053708 c 0,3.7381069 -0.547826,4.6081834 -1.954987,4.6081834 -1.331969,0 -1.954987,-0.6767262 -1.954987,-4.6511501 0,-3.8777483 0.547826,-4.7585673 1.954987,-4.7585673 1.299744,0 1.954987,0.655243 1.954987,4.801534 z M 52.144319,-9.7293897e-4 48.438437,-6.3170844 51.89726,-10.162608 h -2.99693 l -3.329923,3.9529404 V -13.707365 H 42.938694 V -9.7293897e-4 h 2.631713 V -3.3308957 l 1.063427,-1.1493604 2.416879,4.47928316103 z M 62.464394,0.34276102 V -10.162608 h -2.502813 v 1.5682861 c -0.784143,-1.2030689 -1.65422,-1.7294111 -2.814322,-1.7294111 -2.406137,0 -4.210741,2.212787 -4.210741,5.360101 0,3.1580558 1.65422,5.13452604 4.157033,5.13452604 1.181585,0 1.890537,-0.36521733 2.86803,-1.34271074 v 1.51457772 c 0,1.21381058 -0.913043,2.06240378 -2.234271,2.06240378 -0.998977,0 -1.654219,-0.4081841 -1.858311,-1.1815855 H 53.14061 c 0.03222,1.6542197 1.707928,2.8787719 4.490025,2.8787719 3.072122,0 4.833759,-1.3749358 4.833759,-3.75959018 z M 60.004548,-5.0065987 c 0,1.84757 -0.95601,2.9754471 -2.330946,2.9754471 -1.246036,0 -2.105371,-1.1278771 -2.105371,-2.9754471 0,-1.9120202 0.859335,-3.115089 2.137596,-3.115089 1.321227,0 2.298721,1.2352939 2.298721,3.115089 z m 0,0"
           style="fill:#000000;fill-opacity:1;fill-rule:nonzero;stroke:none"
           aria-label="30.0 kg"
           transform="matrix(1.4546133,0,0,1.4546133,3780.4939,674.54438)"
           clip-path="url(#clipPath345)"
           id="path386" />
      </g>
    </g>
  </g>
</svg>
