<?xml version="1.0" encoding="UTF-8" standalone="no"?>
<!-- Created with Inkscape (http://www.inkscape.org/) -->

<svg
   width="174.90105mm"
   height="82.846397mm"
   viewBox="0 0 174.90105 82.846397"
   version="1.1"
   id="svg1"
   inkscape:version="1.3.2 (091e20ef0f, 2023-11-25)"
   sodipodi:docname="6.svg"
   xmlns:inkscape="http://www.inkscape.org/namespaces/inkscape"
   xmlns:sodipodi="http://sodipodi.sourceforge.net/DTD/sodipodi-0.dtd"
   xmlns="http://www.w3.org/2000/svg"
   xmlns:svg="http://www.w3.org/2000/svg">
  <sodipodi:namedview
     id="namedview1"
     pagecolor="#ffffff"
     bordercolor="#000000"
     borderopacity="0.25"
     inkscape:showpageshadow="2"
     inkscape:pageopacity="0.0"
     inkscape:pagecheckerboard="0"
     inkscape:deskcolor="#d1d1d1"
     inkscape:document-units="mm"
     inkscape:zoom="1.0226992"
     inkscape:cx="330.00905"
     inkscape:cy="189.69409"
     inkscape:window-width="2560"
     inkscape:window-height="1440"
     inkscape:window-x="2560"
     inkscape:window-y="0"
     inkscape:window-maximized="1"
     inkscape:current-layer="layer1">
    <inkscape:page
       x="0"
       y="0"
       width="174.90105"
       height="82.846397"
       id="page1"
       margin="5.0000005"
       bleed="0" />
  </sodipodi:namedview>
  <defs
     id="defs1">
    <clipPath
       clipPathUnits="userSpaceOnUse"
       id="clipPath469">
      <path
         d="M 0,0 H 410 V 182 H 0 Z"
         transform="matrix(1.5219733,0,0,-1.5219733,5971.412,474.54)"
         id="path469" />
    </clipPath>
    <clipPath
       clipPathUnits="userSpaceOnUse"
       id="clipPath451">
      <path
         d="M 0,1830 V 0 h 4130 v 1830 z"
         transform="translate(1.7521113e-4)"
         id="path451" />
    </clipPath>
    <clipPath
       clipPathUnits="userSpaceOnUse"
       id="clipPath452">
      <path
         d="M 0,1830 V 0 h 4130 v 1830 z"
         transform="translate(1.7521113e-4)"
         id="path452" />
    </clipPath>
    <clipPath
       clipPathUnits="userSpaceOnUse"
       id="clipPath453">
      <path
         d="M 0,1830 V 0 h 4130 v 1830 z"
         transform="translate(1.7521113e-4)"
         id="path453" />
    </clipPath>
    <clipPath
       clipPathUnits="userSpaceOnUse"
       id="clipPath454">
      <path
         d="M 0,1830 V 0 h 4130 v 1830 z"
         transform="translate(1.7521113e-4)"
         id="path454" />
    </clipPath>
    <clipPath
       clipPathUnits="userSpaceOnUse"
       id="clipPath455">
      <path
         d="M 0,1830 V 0 h 4130 v 1830 z"
         transform="translate(1.7521113e-4)"
         id="path455" />
    </clipPath>
    <clipPath
       clipPathUnits="userSpaceOnUse"
       id="clipPath456">
      <path
         d="M 0,1830 V 0 h 4130 v 1830 z"
         transform="translate(1.7521113e-4)"
         id="path456" />
    </clipPath>
    <clipPath
       clipPathUnits="userSpaceOnUse"
       id="clipPath457">
      <path
         d="M 0,1830 V 0 h 4130 v 1830 z"
         transform="translate(1.7521113e-4)"
         id="path457" />
    </clipPath>
    <clipPath
       clipPathUnits="userSpaceOnUse"
       id="clipPath458">
      <path
         d="M 0,1830 V 0 h 4130 v 1830 z"
         transform="translate(1.7521113e-4)"
         id="path458" />
    </clipPath>
    <clipPath
       clipPathUnits="userSpaceOnUse"
       id="clipPath459">
      <path
         d="M 0,1830 V 0 h 4130 v 1830 z"
         transform="translate(1.7521113e-4)"
         id="path459" />
    </clipPath>
    <clipPath
       clipPathUnits="userSpaceOnUse"
       id="clipPath460">
      <path
         d="M 0,1830 V 0 h 4130 v 1830 z"
         transform="translate(1.7521113e-4)"
         id="path460" />
    </clipPath>
    <clipPath
       clipPathUnits="userSpaceOnUse"
       id="clipPath461">
      <path
         d="M 0,1830 V 0 h 4130 v 1830 z"
         transform="translate(1.7521113e-4)"
         id="path461" />
    </clipPath>
    <clipPath
       clipPathUnits="userSpaceOnUse"
       id="clipPath462">
      <path
         d="M 0,1830 V 0 h 4130 v 1830 z"
         transform="translate(1.7521113e-4)"
         id="path462" />
    </clipPath>
    <clipPath
       clipPathUnits="userSpaceOnUse"
       id="clipPath463">
      <path
         d="M 0,1830 V 0 h 4130 v 1830 z"
         transform="translate(1.7521113e-4)"
         id="path463" />
    </clipPath>
    <clipPath
       clipPathUnits="userSpaceOnUse"
       id="clipPath464">
      <path
         d="M 0,1830 V 0 h 4130 v 1830 z m 2146,-818 h -36 v -91.199 l 18,72 18,-72 z"
         transform="translate(1.7521113e-4)"
         clip-rule="evenodd"
         id="path464" />
    </clipPath>
    <clipPath
       clipPathUnits="userSpaceOnUse"
       id="clipPath465">
      <path
         d="M 0,1830 V 0 h 4130 v 1830 z"
         transform="translate(1.7521113e-4)"
         id="path465" />
    </clipPath>
    <clipPath
       clipPathUnits="userSpaceOnUse"
       id="clipPath466">
      <path
         d="M 0,1830 V 0 h 4130 v 1830 z"
         transform="translate(1.7521113e-4)"
         id="path466" />
    </clipPath>
    <clipPath
       clipPathUnits="userSpaceOnUse"
       id="clipPath467">
      <path
         d="M 0,1830 V 0 h 4130 v 1830 z"
         transform="translate(1.7521113e-4)"
         id="path467" />
    </clipPath>
    <clipPath
       clipPathUnits="userSpaceOnUse"
       id="clipPath468">
      <path
         d="M 0,1830 V 0 h 4130 v 1830 z"
         transform="matrix(0.1,0,0,-0.1,-212.80004,104.80001)"
         id="path468" />
    </clipPath>
  </defs>
  <g
     inkscape:label="Layer 1"
     inkscape:groupmode="layer"
     id="layer1"
     transform="translate(-17.549471,-98.247502)">
    <rect
       style="fill:#ffffff;stroke-width:0.264583"
       id="rect1"
       width="174.901"
       height="82.846397"
       x="17.549517"
       y="98.247505" />
    <g
       id="g488"
       transform="matrix(0.26458333,0,0,0.26458333,-1557.5074,50.880812)">
      <g
         clip-path="url(#clipPath469)"
         id="g487">
        <path
           d="m 1444.6,344.203 c -10.75,-7.723 -23.66,-11.883 -36.9,-11.883 -13.24,0 -26.15,4.16 -36.9,11.883"
           style="fill:none;stroke:#d10000;stroke-width:9;stroke-linecap:butt;stroke-linejoin:miter;stroke-miterlimit:10;stroke-dasharray:none;stroke-opacity:1"
           transform="matrix(0.15219733,0,0,-0.15219733,5969.89,474.54)"
           clip-path="url(#clipPath451)"
           id="path470" />
        <path
           d="m 1408,403 c 0,-9.938 -8.06,-18 -18,-18 -9.94,0 -18,8.062 -18,18 0,9.938 8.06,18 18,18 9.94,0 18,-8.062 18,-18 z"
           style="fill:none;stroke:#d10000;stroke-width:9;stroke-linecap:butt;stroke-linejoin:miter;stroke-miterlimit:10;stroke-dasharray:none;stroke-opacity:1"
           transform="matrix(0.15219733,0,0,-0.15219733,5969.89,474.54)"
           clip-path="url(#clipPath452)"
           id="path471" />
        <path
           d="m 1453,373 c 0,-49.703 -40.3,-90 -90,-90 -49.7,0 -90,40.297 -90,90 0,49.703 40.3,90 90,90 49.7,0 90,-40.297 90,-90 z"
           style="fill:none;stroke:#d10000;stroke-width:9;stroke-linecap:butt;stroke-linejoin:miter;stroke-miterlimit:10;stroke-dasharray:none;stroke-opacity:1"
           transform="matrix(0.15219733,0,0,-0.15219733,5969.89,474.54)"
           clip-path="url(#clipPath453)"
           id="path472" />
        <path
           d="M 1363,283 V 103 l 45,-90"
           style="fill:none;stroke:#d10000;stroke-width:9;stroke-linecap:butt;stroke-linejoin:miter;stroke-miterlimit:10;stroke-dasharray:none;stroke-opacity:1"
           transform="matrix(0.15219733,0,0,-0.15219733,5969.89,474.54)"
           clip-path="url(#clipPath454)"
           id="path473" />
        <path
           d="M 1363,103 1318,13"
           style="fill:none;stroke:#d10000;stroke-width:9;stroke-linecap:butt;stroke-linejoin:miter;stroke-miterlimit:10;stroke-dasharray:none;stroke-opacity:1"
           transform="matrix(0.15219733,0,0,-0.15219733,5969.89,474.54)"
           clip-path="url(#clipPath455)"
           id="path474" />
        <path
           d="m 1228,283 135,-90 225,180"
           style="fill:none;stroke:#d10000;stroke-width:9;stroke-linecap:butt;stroke-linejoin:miter;stroke-miterlimit:10;stroke-dasharray:none;stroke-opacity:1"
           transform="matrix(0.15219733,0,0,-0.15219733,5969.89,474.54)"
           clip-path="url(#clipPath456)"
           id="path475" />
        <path
           d="m 1858,1498 c 0,-24.85 -20.15,-45 -45,-45 -24.85,0 -45,20.15 -45,45 0,24.85 20.15,45 45,45 24.85,0 45,-20.15 45,-45 z"
           style="fill:none;stroke:#000000;stroke-width:4.5;stroke-linecap:butt;stroke-linejoin:miter;stroke-miterlimit:10;stroke-dasharray:none;stroke-opacity:1"
           transform="matrix(0.15219733,0,0,-0.15219733,5969.89,474.54)"
           clip-path="url(#clipPath457)"
           id="path476" />
        <path
           d="m 2038,1498 c 0,-124.26 -100.74,-225 -225,-225 -124.26,0 -225,100.74 -225,225 0,124.26 100.74,225 225,225 124.26,0 225,-100.74 225,-225 z"
           style="fill:none;stroke:#00008f;stroke-width:18;stroke-linecap:butt;stroke-linejoin:miter;stroke-miterlimit:10;stroke-dasharray:none;stroke-opacity:1"
           transform="matrix(0.15219733,0,0,-0.15219733,5969.89,474.54)"
           clip-path="url(#clipPath458)"
           id="path477" />
        <path
           d="m 1768,1408 h 90 v 405 h -90 z"
           style="fill:none;stroke:#000000;stroke-width:4.5;stroke-linecap:butt;stroke-linejoin:miter;stroke-miterlimit:10;stroke-dasharray:none;stroke-opacity:1"
           transform="matrix(0.15219733,0,0,-0.15219733,5969.89,474.54)"
           clip-path="url(#clipPath459)"
           id="path478" />
        <path
           d="M 58,1813 H 4108"
           style="fill:none;stroke:#000000;stroke-width:9;stroke-linecap:butt;stroke-linejoin:miter;stroke-miterlimit:10;stroke-dasharray:none;stroke-opacity:1"
           transform="matrix(0.15219733,0,0,-0.15219733,5969.89,474.54)"
           clip-path="url(#clipPath460)"
           id="path479" />
        <path
           d="M 13,13 H 4063"
           style="fill:none;stroke:#000000;stroke-width:9;stroke-linecap:butt;stroke-linejoin:miter;stroke-miterlimit:10;stroke-dasharray:none;stroke-opacity:1"
           transform="matrix(0.15219733,0,0,-0.15219733,5969.89,474.54)"
           clip-path="url(#clipPath461)"
           id="path480" />
        <path
           d="M 1588,103 V 1498"
           style="fill:none;stroke:#000000;stroke-width:9;stroke-linecap:butt;stroke-linejoin:miter;stroke-miterlimit:10;stroke-dasharray:none;stroke-opacity:1"
           transform="matrix(0.15219733,0,0,-0.15219733,5969.89,474.54)"
           clip-path="url(#clipPath462)"
           id="path481" />
        <path
           d="M 2038,1498 V 598"
           style="fill:none;stroke:#000000;stroke-width:9;stroke-linecap:butt;stroke-linejoin:miter;stroke-miterlimit:10;stroke-dasharray:none;stroke-opacity:1"
           transform="matrix(0.15219733,0,0,-0.15219733,5969.89,474.54)"
           clip-path="url(#clipPath463)"
           id="path482" />
        <path
           d="m 2128,733 v 270"
           style="fill:none;stroke:#000000;stroke-width:4.5;stroke-linecap:butt;stroke-linejoin:miter;stroke-miterlimit:10;stroke-dasharray:none;stroke-opacity:1"
           transform="matrix(0.15219733,0,0,-0.15219733,5969.89,474.54)"
           clip-path="url(#clipPath464)"
           id="path483" />
        <path
           d="m 2146,920.801 -18,72 -18,-72"
           style="fill:none;stroke:#000000;stroke-width:4.5;stroke-linecap:butt;stroke-linejoin:miter;stroke-miterlimit:10;stroke-dasharray:none;stroke-opacity:1"
           transform="matrix(0.15219733,0,0,-0.15219733,5969.89,474.54)"
           clip-path="url(#clipPath465)"
           id="path484" />
        <path
           d="m 2128,1138 h 90 l -45,45"
           style="fill:none;stroke:#000000;stroke-width:4.5;stroke-linecap:butt;stroke-linejoin:miter;stroke-miterlimit:10;stroke-dasharray:none;stroke-opacity:1"
           transform="matrix(0.15219733,0,0,-0.15219733,5969.89,474.54)"
           clip-path="url(#clipPath466)"
           id="path485" />
        <path
           d="m 1966,598 v 0 c -34.79,0 -63,-28.207 -63,-63 V 391 c 0,-34.793 28.21,-63 63,-63 h 144 c 34.79,0 63,28.207 63,63 v 144 c 0,34.793 -28.21,63 -63,63 z"
           style="fill:none;stroke:#000000;stroke-width:9;stroke-linecap:butt;stroke-linejoin:miter;stroke-miterlimit:10;stroke-dasharray:none;stroke-opacity:1"
           transform="matrix(0.15219733,0,0,-0.15219733,5969.89,474.54)"
           clip-path="url(#clipPath467)"
           id="path486" />
        <path
           d="M 5.6565038,0.00122724 V -0.18356574 C 5.3895806,-0.42995639 5.3177167,-0.59421683 5.3177167,-0.89193886 V -4.1360824 c 0,-1.1908882 -0.8110359,-1.7965985 -2.3920426,-1.7965985 -1.5707404,0 -2.39204254,0.6775743 -2.49470531,2.0224566 H 1.8887801 C 1.9606441,-4.5159347 2.217301,-4.710994 2.956473,-4.710994 c 0.5851778,0 0.8726335,0.1950593 0.8726335,0.5851778 0,0.6159767 -0.4517162,0.554379 -1.2011544,0.6775743 l -0.6057104,0.1129291 c -1.16008928,0.2053255 -1.72473452,0.6981068 -1.72473452,1.7555334 0,1.13955673 0.80076962,1.67340314 1.77606592,1.67340314 0.6467755,0 1.2422196,-0.27718948 1.776066,-0.83156845 0,0.30798832 0.030799,0.56464524 0.1642604,0.73917195 z M 3.8291065,-2.4934781 c 0,0.8726336 -0.4311836,1.3756811 -1.1908881,1.3756811 -0.5133139,0 -0.8213022,-0.1950592 -0.8213022,-0.6262429 0,-0.4517162 0.2361244,-0.6057103 0.8623673,-0.7289056 l 0.5133138,-0.092396 c 0.4003848,-0.08213 0.4722488,-0.1026628 0.6365092,-0.184793 z M 14.585598,0.69163438 c 0,-2.17645078 -0.390118,-4.01411438 -2.638433,-4.01411438 -2.1867169,0 -2.6281668,1.7657997 -2.6281668,3.96278299 0,2.14565191 0.4209174,3.95251671 2.6281668,3.95251671 1.560474,0 2.638433,-0.8828998 2.638433,-3.90118532 z m -1.509142,-0.0410651 c 0,2.15591822 -0.318255,2.64869952 -1.129291,2.64869952 -0.759704,0 -1.119024,-0.3901186 -1.119024,-2.66923207 0,-2.21751583 0.307988,-2.73082973 1.119024,-2.73082973 0.749438,0 1.129291,0.3798523 1.129291,2.75136228 z M -5.1230871,63.000237 v -7.874235 h -2.4331077 l -1.3859474,6.262429 -1.4270128,-6.262429 h -2.422841 v 7.874235 h 1.622072 v -6.139234 l 1.4167459,6.139234 h 1.6220718 l 1.3962137,-6.139234 v 6.139234 z M 11.336322,-63.932013 c 0,-1.581007 -0.893166,-2.443374 -2.5357708,-2.443374 H 5.3202833 v 7.874234 H 6.942355 v -2.81296 h 2.0121904 c 1.4475446,0 2.3817766,-1.016361 2.3817766,-2.6179 z m -1.6220721,0.0924 c 0,0.80077 -0.4003848,1.180622 -1.2627521,1.180622 H 6.942355 v -2.361244 h 1.5091428 c 0.8623673,0 1.2627521,0.369586 1.2627521,1.180622 z m 7.8306031,5.338464 v -5.831245 H 16.03571 v 3.5008 c 0,0.687841 -0.482515,1.139557 -1.221687,1.139557 -0.646775,0 -0.975296,-0.338787 -0.975296,-1.04716 v -3.593197 h -1.509143 v 3.911451 c 0,1.283285 0.708373,2.012191 1.950593,2.012191 0.790503,0 1.324349,-0.287456 1.755533,-0.862368 v 0.769971 z m 2.995186,0 v -7.874234 H 19.02063 v 7.874234 z m 3.002886,0 v -7.874234 h -1.519409 v 7.874234 z m 6.431823,-2.700031 c 0,-2.01219 -1.016362,-3.233877 -2.73083,-3.233877 -1.673403,0 -2.700031,1.139557 -2.700031,3.090149 0,1.868463 1.016362,2.936156 2.669232,2.936156 1.303817,0 2.361244,-0.585178 2.700031,-1.735001 h -1.48861 c -0.133462,0.420917 -0.60571,0.585178 -1.160089,0.585178 -0.708374,0 -1.16009,-0.328521 -1.211421,-1.457812 h 3.911451 z m -1.570741,-0.821302 h -2.320178 c 0.0924,-0.811036 0.472248,-1.252486 1.139556,-1.252486 0.646776,0 1.098492,0.420918 1.180622,1.252486 z m 7.717674,-2.309912 h -1.560474 l -1.201154,4.239972 -1.293551,-4.239972 h -1.663137 l 2.176451,6.077636 v 0.0308 c 0,0.554379 -0.410652,0.975296 -0.944498,0.975296 -0.112929,0 -0.205325,-0.01027 -0.400385,-0.0616 v 1.129291 c 0.236125,0.0308 0.35932,0.04106 0.544113,0.04106 1.016361,0 1.550208,-0.174527 1.940326,-1.293551 z m 2.81296,5.831245 v -1.581007 h -1.622072 v 1.581007 z m 0,-4.034647 v -1.581006 h -1.622072 v 1.581006 z m 12.881611,4.034647 v -4.127043 c 0,-1.129291 -0.68784,-1.806865 -1.858196,-1.806865 -0.739172,0 -1.252486,0.266923 -1.704202,0.872633 -0.287456,-0.554378 -0.862367,-0.872633 -1.591273,-0.872633 -0.667308,0 -1.098491,0.236124 -1.601539,0.821302 v -0.718639 h -1.498876 v 5.831245 h 1.509142 v -3.5008 c 0,-0.708374 0.390119,-1.139557 1.036894,-1.139557 0.513314,0 0.821302,0.287456 0.821302,0.749438 v 3.890919 h 1.519409 v -3.5008 c 0,-0.708374 0.379853,-1.139557 1.036894,-1.139557 0.503048,0 0.821303,0.287456 0.821303,0.749438 v 3.890919 z m 6.357392,0 v -0.184793 c -0.266923,-0.246391 -0.338787,-0.410651 -0.338787,-0.708373 v -3.244144 c 0,-1.190888 -0.811036,-1.796598 -2.392042,-1.796598 -1.570741,0 -2.392043,0.677574 -2.494706,2.022457 h 1.457812 c 0.07186,-0.605711 0.328521,-0.80077 1.067693,-0.80077 0.585177,0 0.872633,0.195059 0.872633,0.585178 0,0.615976 -0.451716,0.554379 -1.201154,0.677574 l -0.605711,0.112929 c -1.160089,0.205326 -1.724734,0.698107 -1.724734,1.755533 0,1.139557 0.800769,1.673404 1.776066,1.673404 0.646775,0 1.242219,-0.27719 1.776066,-0.831569 0,0.307988 0.0308,0.564645 0.16426,0.739172 z m -1.827397,-2.494705 c 0,0.872633 -0.431184,1.375681 -1.190888,1.375681 -0.513314,0 -0.821302,-0.195059 -0.821302,-0.626243 0,-0.451716 0.236124,-0.60571 0.862367,-0.728906 l 0.513314,-0.0924 c 0.400385,-0.08213 0.472249,-0.102663 0.636509,-0.184793 z m 7.792104,0.769971 v -0.08213 c 0,-0.667308 -0.379852,-1.160089 -1.139556,-1.385947 l -1.919794,-0.554379 c -0.420918,-0.123195 -0.52358,-0.215592 -0.52358,-0.451716 0,-0.328521 0.338787,-0.544113 0.872633,-0.544113 0.71864,0 1.077959,0.256657 1.088226,0.790503 h 1.457811 c -0.02053,-1.231953 -0.96503,-1.981391 -2.53577,-1.981391 -1.478344,0 -2.402309,0.749438 -2.402309,1.950593 0,0.708373 0.195059,1.098491 1.283284,1.437278 l 1.796599,0.554379 c 0.379852,0.123196 0.513314,0.246391 0.513314,0.400385 0,0.35932 -0.420918,0.503048 -1.129291,0.503048 -0.68784,0 -1.057426,-0.133462 -1.180622,-0.759705 h -1.478344 c 0.04107,1.273019 0.975297,1.940327 2.751363,1.940327 1.642604,0 2.546036,-0.646776 2.546036,-1.817132 z m 6.003206,0 v -0.08213 c 0,-0.667308 -0.379852,-1.160089 -1.139557,-1.385947 l -1.919794,-0.554379 c -0.420917,-0.123195 -0.52358,-0.215592 -0.52358,-0.451716 0,-0.328521 0.338787,-0.544113 0.872634,-0.544113 0.718639,0 1.077959,0.256657 1.088225,0.790503 h 1.457812 c -0.02053,-1.231953 -0.965031,-1.981391 -2.535771,-1.981391 -1.478344,0 -2.402309,0.749438 -2.402309,1.950593 0,0.708373 0.195059,1.098491 1.283285,1.437278 l 1.796598,0.554379 c 0.379853,0.123196 0.513314,0.246391 0.513314,0.400385 0,0.35932 -0.420917,0.503048 -1.12929,0.503048 -0.687841,0 -1.057427,-0.133462 -1.180622,-0.759705 h -1.478344 c 0.04107,1.273019 0.975296,1.940327 2.751362,1.940327 1.642605,0 2.546037,-0.646776 2.546037,-1.817132 z m 3.008019,1.724734 v -1.581007 h -1.622072 v 1.581007 z m 0,-4.034647 v -1.581006 h -1.622072 v 1.581006 z m 12.358031,4.034647 v -7.874234 H 83.0745 l -1.385948,6.262429 -1.427012,-6.262429 h -2.422842 v 7.874234 h 1.622072 v -6.139234 l 1.416746,6.139234 h 1.622072 l 1.396214,-6.139234 v 6.139234 z m 2.928456,-0.0924 v -1.488611 h -1.622072 v 1.581007 h 0.934231 v 0.0308 c 0,0.739172 -0.297722,1.119024 -0.934231,1.242219 v 0.605711 c 0.44145,-0.05133 0.749438,-0.174527 1.036894,-0.400385 0.431184,-0.328521 0.585178,-0.728906 0.585178,-1.570741 z m 11.005449,0.0924 v -0.287456 c -0.246391,-0.143728 -0.338787,-0.307988 -0.338787,-0.657041 -0.05133,-2.320179 -0.0924,-2.422842 -1.098492,-2.854025 0.893166,-0.349054 1.334616,-0.985563 1.334616,-1.950593 0,-1.221687 -0.728906,-2.125119 -2.125119,-2.125119 h -4.21944 v 7.874234 h 1.622072 v -3.120948 h 1.858196 c 0.698107,0 1.006095,0.277189 1.006095,0.934231 l -0.02053,0.831569 c 0,0.739171 0.04107,0.975296 0.246391,1.355148 z m -1.724735,-5.523257 c 0,0.708373 -0.225858,1.04716 -1.149823,1.04716 h -1.950592 v -2.042989 h 1.950592 c 0.893166,0 1.149823,0.318255 1.149823,0.995829 z m 7.869103,5.523257 v -0.184793 c -0.26692,-0.246391 -0.33879,-0.410651 -0.33879,-0.708373 v -3.244144 c 0,-1.190888 -0.81103,-1.796598 -2.39204,-1.796598 -1.57074,0 -2.39204,0.677574 -2.49471,2.022457 h 1.45781 c 0.0719,-0.605711 0.32853,-0.80077 1.0677,-0.80077 0.58518,0 0.87263,0.195059 0.87263,0.585178 0,0.615976 -0.45171,0.554379 -1.20115,0.677574 l -0.60571,0.112929 c -1.16009,0.205326 -1.72474,0.698107 -1.72474,1.755533 0,1.139557 0.80077,1.673404 1.77607,1.673404 0.64677,0 1.24222,-0.27719 1.77606,-0.831569 0,0.307988 0.0308,0.564645 0.16426,0.739172 z m -1.8274,-2.494705 c 0,0.872633 -0.43118,1.375681 -1.19089,1.375681 -0.51331,0 -0.8213,-0.195059 -0.8213,-0.626243 0,-0.451716 0.23613,-0.60571 0.86237,-0.728906 l 0.51331,-0.0924 c 0.40039,-0.08213 0.47225,-0.102663 0.63651,-0.184793 z m 8.05646,2.494705 v -7.874234 h -1.50914 v 2.802693 c -0.37985,-0.585178 -0.8829,-0.862367 -1.61181,-0.862367 -1.38594,0 -2.44337,1.273018 -2.44337,3.028552 0,1.65287 0.90343,2.997753 2.44337,2.997753 0.72891,0 1.23196,-0.266924 1.61181,-0.759705 v 0.667308 z m -1.50914,-2.884824 c 0,1.057427 -0.51331,1.714469 -1.27302,1.714469 -0.7597,0 -1.27302,-0.667308 -1.27302,-1.735001 0,-1.077959 0.51332,-1.755534 1.27302,-1.755534 0.76997,0 1.27302,0.667308 1.27302,1.776066 z m 4.46583,2.884824 v -5.831245 h -1.51941 v 5.831245 z m 0.0205,-6.529352 v -1.519409 h -1.50914 v 1.519409 z m 6.58325,6.529352 v -5.831245 h -1.50914 v 3.5008 c 0,0.687841 -0.48251,1.139557 -1.22169,1.139557 -0.64677,0 -0.97529,-0.338787 -0.97529,-1.04716 v -3.593197 h -1.50915 v 3.911451 c 0,1.283285 0.70838,2.012191 1.9506,2.012191 0.7905,0 1.32435,-0.287456 1.75553,-0.862368 v 0.769971 z m 6.37279,-1.724734 v -0.08213 c 0,-0.667308 -0.37985,-1.160089 -1.13955,-1.385947 l -1.9198,-0.554379 c -0.42091,-0.123195 -0.52358,-0.215592 -0.52358,-0.451716 0,-0.328521 0.33879,-0.544113 0.87264,-0.544113 0.71864,0 1.07796,0.256657 1.08822,0.790503 h 1.45781 c -0.0205,-1.231953 -0.96503,-1.981391 -2.53577,-1.981391 -1.47834,0 -2.40231,0.749438 -2.40231,1.950593 0,0.708373 0.19506,1.098491 1.28329,1.437278 l 1.7966,0.554379 c 0.37985,0.123196 0.51331,0.246391 0.51331,0.400385 0,0.35932 -0.42092,0.503048 -1.12929,0.503048 -0.68784,0 -1.05743,-0.133462 -1.18062,-0.759705 h -1.47834 c 0.0411,1.273019 0.97529,1.940327 2.75136,1.940327 1.6426,0 2.54603,-0.646776 2.54603,-1.817132 z m 3.00802,1.724734 v -1.581007 h -1.62207 v 1.581007 z m 0,-4.034647 v -1.581006 h -1.62207 v 1.581006 z m 11.29034,4.034647 v -0.287456 c -0.24639,-0.143728 -0.33879,-0.307988 -0.33879,-0.657041 -0.0513,-2.320179 -0.0924,-2.422842 -1.09849,-2.854025 0.89317,-0.349054 1.33462,-0.985563 1.33462,-1.950593 0,-1.221687 -0.72891,-2.125119 -2.12512,-2.125119 h -4.21944 v 7.874234 h 1.62207 v -3.120948 h 1.8582 c 0.6981,0 1.00609,0.277189 1.00609,0.934231 l -0.0205,0.831569 c 0,0.739171 0.0411,0.975296 0.24639,1.355148 z m -1.72473,-5.523257 c 0,0.708373 -0.22586,1.04716 -1.14983,1.04716 h -1.95059 v -2.042989 h 1.95059 c 0.89317,0 1.14983,0.318255 1.14983,0.995829 z M -86.901714,45.00089 l -2.73083,-7.874234 h -1.786332 l -2.802694,7.874234 h 1.652871 l 0.533846,-1.591273 h 2.946422 l 0.52358,1.591273 z m -2.628167,-2.936155 h -2.053255 l 1.026627,-3.079883 z m 11.729222,2.936155 v -4.127043 c 0,-1.12929 -0.687841,-1.806865 -1.858197,-1.806865 -0.739172,0 -1.252485,0.266923 -1.704202,0.872634 -0.287455,-0.554379 -0.862367,-0.872634 -1.591273,-0.872634 -0.667308,0 -1.098491,0.236125 -1.601539,0.821302 v -0.718639 h -1.498876 v 5.831245 h 1.509143 v -3.5008 c 0,-0.708373 0.390118,-1.139557 1.036894,-1.139557 0.513313,0 0.821302,0.287456 0.821302,0.749438 v 3.890919 h 1.519409 v -3.5008 c 0,-0.708373 0.379852,-1.139557 1.036894,-1.139557 0.503047,0 0.821302,0.287456 0.821302,0.749438 v 3.890919 z m 6.511386,-5.831245 h -1.560474 l -1.201155,4.239972 -1.293551,-4.239972 h -1.663136 l 2.17645,6.077636 v 0.0308 c 0,0.554379 -0.410651,0.975296 -0.944497,0.975296 -0.112929,0 -0.205326,-0.01027 -0.400385,-0.0616 v 1.12929 c 0.236124,0.0308 0.35932,0.04107 0.544113,0.04107 1.016361,0 1.550207,-0.174527 1.940326,-1.293551 z m 0,0"
           style="fill:#000000;fill-opacity:1;fill-rule:nonzero;stroke:none"
           aria-label="a&#10;0&#10;M&#10;Pulley: mass: M, Radius: R&#10;Amy"
           transform="matrix(1.5219733,0,0,1.5219733,6293.766,315.03719)"
           clip-path="url(#clipPath468)"
           id="path487" />
      </g>
    </g>
  </g>
</svg>
