<?xml version="1.0" encoding="UTF-8" standalone="no"?>
<!-- Created with Inkscape (http://www.inkscape.org/) -->

<svg
   width="37.43504mm"
   height="34.19973mm"
   viewBox="0 0 37.43504 34.19973"
   version="1.1"
   id="svg1"
   inkscape:version="1.3.2 (091e20ef0f, 2023-11-25)"
   sodipodi:docname="4a.svg"
   xmlns:inkscape="http://www.inkscape.org/namespaces/inkscape"
   xmlns:sodipodi="http://sodipodi.sourceforge.net/DTD/sodipodi-0.dtd"
   xmlns="http://www.w3.org/2000/svg"
   xmlns:svg="http://www.w3.org/2000/svg">
  <sodipodi:namedview
     id="namedview1"
     pagecolor="#ffffff"
     bordercolor="#000000"
     borderopacity="0.25"
     inkscape:showpageshadow="2"
     inkscape:pageopacity="0.0"
     inkscape:pagecheckerboard="0"
     inkscape:deskcolor="#d1d1d1"
     inkscape:document-units="mm"
     inkscape:zoom="4.6609428"
     inkscape:cx="47.951672"
     inkscape:cy="63.291917"
     inkscape:window-width="2560"
     inkscape:window-height="1600"
     inkscape:window-x="0"
     inkscape:window-y="0"
     inkscape:window-maximized="1"
     inkscape:current-layer="layer1">
    <inkscape:page
       x="0"
       y="0"
       width="37.43504"
       height="34.19973"
       id="page1"
       margin="5.0000005"
       bleed="0" />
  </sodipodi:namedview>
  <defs
     id="defs1"><clipPath
   clipPathUnits="userSpaceOnUse"
   id="clipPath782">
  <path
     d="m 124.51,579.17 h 182.98 v 79.656 H 124.51 Z"
     transform="translate(-204.28201,-652.71901)"
     id="path782" />
</clipPath>
<clipPath
   clipPathUnits="userSpaceOnUse"
   id="clipPath780">
  <path
     d="m 124.51,579.17 h 182.98 v 79.656 H 124.51 Z"
     transform="translate(-151.46001,-652.71901)"
     id="path780" />
</clipPath>
<clipPath
   clipPathUnits="userSpaceOnUse"
   id="clipPath778">
  <path
     d="m 124.51,579.17 h 182.98 v 79.656 H 124.51 Z"
     transform="translate(-203.83201,-609.97002)"
     id="path778" />
</clipPath>
<clipPath
   clipPathUnits="userSpaceOnUse"
   id="clipPath776">
  <path
     d="m 124.51,579.17 h 182.98 v 79.656 H 124.51 Z"
     transform="translate(-151.46001,-609.97002)"
     id="path776" />
</clipPath>
<clipPath
   clipPathUnits="userSpaceOnUse"
   id="clipPath774">
  <path
     d="m 124.51,579.17 h 182.98 v 79.656 H 124.51 Z"
     transform="translate(-149.96001,-609.97002)"
     id="path774" />
</clipPath>
1&quot; /&gt;2&quot; /&gt;3&quot; /&gt;4&quot; /&gt;</defs>
  <g
     inkscape:label="Layer 1"
     inkscape:groupmode="layer"
     id="layer1"
     transform="translate(-129.93753,-128.35)">
    <rect
       style="fill:#ffffff;stroke-width:1;stroke-linecap:round;stroke-linejoin:round"
       id="rect1"
       width="37.43504"
       height="34.19973"
       x="129.93753"
       y="128.35001"
       transform="translate(-1.1666666e-6)" />
    <g
       id="g1">
      <path
         id="path773"
         d="M 0,0 V 42.749 L 52.372,0 M 0,-21.518 c -6.569,0 -9.037,5.194 -8.114,10.955 C -7.084,-4.123 -2.732,0 0,0 2.246,0 7.083,-4.123 8.113,-10.563 9.037,-16.324 6.569,-21.518 0,-21.518 Z M 52.822,42.778 C 54.73,42.723 56.732,32.641 56.605,20.849 56.478,9.055 54.271,0.013 52.363,0.071 50.456,0.13 48.429,10.179 48.557,21.973 c 0.125,11.794 2.356,20.865 4.265,20.805 z"
         style="fill:none;stroke:#00adef;stroke-width:0.5;stroke-linecap:butt;stroke-linejoin:miter;stroke-miterlimit:4;stroke-dasharray:none;stroke-opacity:1"
         transform="matrix(0.35277776,0,0,-0.35277776,139.6799,148.96006)"
         clip-path="url(#clipPath774)" />
      <path
         id="path775"
         d="M 0,0 C 0,-0.828 -0.672,-1.5 -1.5,-1.5 -2.327,-1.5 -3,-0.828 -3,0 -3,0.827 -2.327,1.5 -1.5,1.5 -0.672,1.5 0,0.827 0,0"
         style="fill:#231f20;fill-opacity:1;fill-rule:nonzero;stroke:none"
         transform="matrix(0.35277776,0,0,-0.35277776,140.20907,148.96006)"
         clip-path="url(#clipPath776)" />
      <path
         id="path777"
         d="M 0,0 C 0,-0.828 -0.671,-1.5 -1.5,-1.5 -2.327,-1.5 -3,-0.828 -3,0 -3,0.827 -2.327,1.5 -1.5,1.5 -0.671,1.5 0,0.827 0,0"
         style="fill:#231f20;fill-opacity:1;fill-rule:nonzero;stroke:none"
         transform="matrix(0.35277776,0,0,-0.35277776,158.68475,148.96006)"
         clip-path="url(#clipPath778)" />
      <path
         id="path779"
         d="M 0,0 C 0,-0.828 -0.672,-1.5 -1.5,-1.5 -2.327,-1.5 -3,-0.828 -3,0 -3,0.827 -2.327,1.5 -1.5,1.5 -0.672,1.5 0,0.827 0,0"
         style="fill:#231f20;fill-opacity:1;fill-rule:nonzero;stroke:none"
         transform="matrix(0.35277776,0,0,-0.35277776,140.20907,133.87917)"
         clip-path="url(#clipPath780)" />
      <path
         id="path781"
         d="M 0,0 C 0,-0.828 -0.672,-1.5 -1.5,-1.5 -2.328,-1.5 -3,-0.828 -3,0 -3,0.827 -2.328,1.5 -1.5,1.5 -0.672,1.5 0,0.827 0,0"
         style="fill:#231f20;fill-opacity:1;fill-rule:nonzero;stroke:none"
         transform="matrix(0.35277776,0,0,-0.35277776,158.8435,133.87917)"
         clip-path="url(#clipPath782)" />
      <path
         id="path783"
         d="m 137.59989,134.89091 h 0.58704 v -0.0331 c -0.16123,0 -0.20257,-0.0207 -0.20257,-0.12402 v -1.26918 l -0.0165,-0.004 -0.38033,0.19017 v 0.0331 c 0.11988,-0.0496 0.11988,-0.0496 0.14469,-0.0496 0.0703,0 0.0703,0.0579 0.0703,0.0992 v 0.95911 c 0,0.1571 -0.0786,0.16123 -0.20257,0.16537 z m 0,0"
         style="fill:#231f20;fill-opacity:1;fill-rule:nonzero;stroke:none;stroke-width:0.352777"
         aria-label="" />
      <path
         id="path784"
         d="m 161.70282,134.60152 -0.0249,-0.0124 c -0.0827,0.13642 -0.12401,0.14056 -0.20256,0.14056 h -0.50435 l 0.35552,-0.37208 c 0.091,-0.0992 0.26871,-0.29352 0.26871,-0.51676 0,-0.23564 -0.19016,-0.38034 -0.38447,-0.38034 -0.18603,0 -0.38446,0.0992 -0.44648,0.42168 l 0.0455,0.008 c 0.0455,-0.11162 0.10747,-0.27286 0.30178,-0.27286 0.24805,0 0.30179,0.19431 0.30179,0.3018 0,0.15709 -0.0909,0.34726 -0.27697,0.5457 l -0.37621,0.40101 v 0.0248 h 0.82682 z m 0,0"
         style="fill:#231f20;fill-opacity:1;fill-rule:nonzero;stroke:none;stroke-width:0.352777"
         aria-label="" />
      <path
         id="path785"
         d="m 161.0207,149.45747 c 0.14883,-0.004 0.19844,0.008 0.27697,0.0455 0.13644,0.0703 0.16123,0.22738 0.16123,0.28112 0,0.1571 -0.0868,0.3266 -0.28524,0.3266 -0.12404,0 -0.20257,-0.1199 -0.30179,-0.1199 -0.0331,0 -0.0827,0.0165 -0.0827,0.0744 0,0.11162 0.18603,0.11989 0.23564,0.11989 0.33073,0 0.58703,-0.18604 0.58703,-0.48783 0,-0.27698 -0.1819,-0.3514 -0.26871,-0.3886 0.13642,-0.0909 0.19431,-0.1819 0.19431,-0.29766 0,-0.0868 -0.0579,-0.28525 -0.33073,-0.28525 -0.14057,0 -0.3266,0.0661 -0.41341,0.34313 l 0.0331,0.008 c 0.029,-0.0579 0.11988,-0.22324 0.31007,-0.22324 0.15708,0 0.23563,0.11162 0.23563,0.21911 0,0.1943 -0.16123,0.29765 -0.35139,0.35553 z m 0,0"
         style="fill:#231f20;fill-opacity:1;fill-rule:nonzero;stroke:none;stroke-width:0.352777"
         aria-label="" />
      <path
         id="path786"
         d="m 138.3523,148.29268 h -0.21911 v -0.94258 h -0.091 l -0.6656,0.94258 v 0.13229 h 0.59532 v 0.35553 h 0.16123 v -0.35553 h 0.21911 z m -0.38034,0 h -0.5085 l 0.50023,-0.71934 h 0.008 z m 0,0"
         style="fill:#231f20;fill-opacity:1;fill-rule:nonzero;stroke:none;stroke-width:0.352777"
         aria-label="" />
      <path
         id="path787"
         d="m 135.28065,156.12993 c 0.10335,-0.25218 0.29765,-0.46716 0.44648,-0.46716 0.0703,0 0.0992,0.0496 0.0992,0.11162 0,0.0207 -0.0124,0.35967 -0.59531,0.47956 z m 0.58291,0.40514 c -0.1447,0.11575 -0.26045,0.21084 -0.41342,0.21084 -0.11988,0 -0.26458,-0.0662 -0.26458,-0.25631 0,-0.0579 0.0124,-0.11576 0.0248,-0.17364 l 0.0827,-0.0124 c 0.45476,-0.062 0.71934,-0.29352 0.71934,-0.51676 0,-0.12402 -0.0868,-0.19017 -0.23151,-0.19017 -0.39687,0 -0.84336,0.47542 -0.84336,0.87643 0,0.17777 0.0909,0.40101 0.38861,0.40101 0.28112,0 0.53743,-0.26045 0.57051,-0.30592 z m 0,0"
         style="fill:#231f20;fill-opacity:1;fill-rule:nonzero;stroke:none;stroke-width:0.352777"
         aria-label="e" />
      <path
         id="path788"
         d="m 137.10689,157.26061 -0.0248,-0.0124 c -0.0827,0.13643 -0.12402,0.14056 -0.20257,0.14056 h -0.50436 l 0.35553,-0.37207 c 0.0909,-0.0992 0.26872,-0.29352 0.26872,-0.51677 0,-0.23564 -0.19017,-0.38033 -0.38447,-0.38033 -0.18604,0 -0.38448,0.0992 -0.44649,0.42168 l 0.0455,0.008 c 0.0455,-0.11162 0.10749,-0.27285 0.30179,-0.27285 0.24804,0 0.30179,0.1943 0.30179,0.30179 0,0.15709 -0.0909,0.34726 -0.27699,0.5457 l -0.3762,0.40101 v 0.0248 h 0.82682 z m 0,0"
         style="fill:#231f20;fill-opacity:1;fill-rule:nonzero;stroke:none;stroke-width:0.352777"
         aria-label="2" />
      <path
         id="path789"
         d="m 136.9529,140.86574 c 0.10335,-0.25218 0.29765,-0.46715 0.44648,-0.46715 0.0703,0 0.0992,0.0496 0.0992,0.11162 0,0.0207 -0.0124,0.35967 -0.59531,0.47956 z m 0.58291,0.40515 c -0.1447,0.11575 -0.26045,0.21084 -0.41341,0.21084 -0.11989,0 -0.26459,-0.0661 -0.26459,-0.25632 0,-0.0579 0.0124,-0.11576 0.0248,-0.17363 l 0.0827,-0.0124 c 0.45475,-0.062 0.71933,-0.29353 0.71933,-0.51677 0,-0.12402 -0.0868,-0.19017 -0.23151,-0.19017 -0.39687,0 -0.84336,0.47543 -0.84336,0.87644 0,0.17776 0.091,0.40101 0.38861,0.40101 0.28112,0 0.53743,-0.26045 0.57051,-0.30593 z m 0,0"
         style="fill:#231f20;fill-opacity:1;fill-rule:nonzero;stroke:none;stroke-width:0.352777"
         aria-label="e" />
      <path
         id="path790"
         d="m 138.0226,142.28167 h 0.58705 v -0.0331 c -0.16124,0 -0.20258,-0.0207 -0.20258,-0.12402 v -1.26917 l -0.0165,-0.004 -0.38034,0.19017 v 0.0331 c 0.11989,-0.0496 0.11989,-0.0496 0.14469,-0.0496 0.0703,0 0.0703,0.0579 0.0703,0.0992 v 0.95911 c 0,0.1571 -0.0785,0.16124 -0.20257,0.16537 z m 0,0"
         style="fill:#231f20;fill-opacity:1;fill-rule:nonzero;stroke:none;stroke-width:0.352777"
         aria-label="1" />
      <path
         id="path791"
         d="m 154.19319,142.37883 c 0.10335,-0.25218 0.29765,-0.46716 0.44647,-0.46716 0.0703,0 0.0992,0.0496 0.0992,0.11163 0,0.0207 -0.0124,0.35966 -0.5953,0.47955 z m 0.58292,0.40514 c -0.1447,0.11576 -0.26046,0.21084 -0.41342,0.21084 -0.11989,0 -0.26459,-0.0661 -0.26459,-0.25631 0,-0.0579 0.0124,-0.11576 0.0248,-0.17364 l 0.0827,-0.0124 c 0.45475,-0.062 0.71933,-0.29352 0.71933,-0.51676 0,-0.12402 -0.0868,-0.19017 -0.23151,-0.19017 -0.39687,0 -0.84336,0.47542 -0.84336,0.87643 0,0.17777 0.0909,0.40101 0.38861,0.40101 0.28113,0 0.53743,-0.26045 0.57051,-0.30592 z m 0,0"
         style="fill:#231f20;fill-opacity:1;fill-rule:nonzero;stroke:none;stroke-width:0.352777"
         aria-label="e" />
      <path
         id="path792"
         d="m 156.15999,143.31417 h -0.2191 v -0.94258 h -0.091 l -0.66558,0.94258 v 0.13229 h 0.59531 v 0.35554 h 0.16124 v -0.35554 h 0.2191 z m -0.38034,0 h -0.5085 l 0.50022,-0.71933 h 0.008 z m 0,0"
         style="fill:#231f20;fill-opacity:1;fill-rule:nonzero;stroke:none;stroke-width:0.352777"
         aria-label="4" />
      <path
         id="path793"
         d="m 146.4779,137.70831 c 0.10335,-0.25218 0.29765,-0.46715 0.44648,-0.46715 0.0703,0 0.0992,0.0496 0.0992,0.11162 0,0.0207 -0.0124,0.35966 -0.59531,0.47956 z m 0.58291,0.40515 c -0.1447,0.11575 -0.26045,0.21083 -0.41341,0.21083 -0.11989,0 -0.26459,-0.0661 -0.26459,-0.25631 0,-0.0579 0.0124,-0.11576 0.0248,-0.17363 l 0.0827,-0.0124 c 0.45475,-0.062 0.71933,-0.29353 0.71933,-0.51677 0,-0.12402 -0.0868,-0.19017 -0.23151,-0.19017 -0.39687,0 -0.84336,0.47543 -0.84336,0.87643 0,0.17777 0.0909,0.40101 0.38861,0.40101 0.28112,0 0.53743,-0.26045 0.57051,-0.30592 z m 0,0"
         style="fill:#231f20;fill-opacity:1;fill-rule:nonzero;stroke:none;stroke-width:0.352777"
         aria-label="e" />
      <path
         id="path794"
         d="m 147.75947,138.42248 c 0.14883,-0.004 0.19844,0.008 0.27699,0.0455 0.13643,0.0703 0.16123,0.22737 0.16123,0.28112 0,0.15709 -0.0868,0.32659 -0.28526,0.32659 -0.12402,0 -0.20257,-0.11989 -0.30178,-0.11989 -0.0331,0 -0.0827,0.0165 -0.0827,0.0744 0,0.11162 0.18604,0.11988 0.23565,0.11988 0.33073,0 0.58704,-0.18603 0.58704,-0.48782 0,-0.27699 -0.1819,-0.3514 -0.26872,-0.38861 0.13643,-0.0909 0.19431,-0.1819 0.19431,-0.29765 0,-0.0868 -0.0579,-0.28526 -0.33073,-0.28526 -0.14056,0 -0.3266,0.0661 -0.41341,0.34313 l 0.0331,0.008 c 0.0289,-0.0579 0.11989,-0.22324 0.31006,-0.22324 0.1571,0 0.23564,0.11162 0.23564,0.21911 0,0.1943 -0.16123,0.29765 -0.3514,0.35553 z m 0,0"
         style="fill:#231f20;fill-opacity:1;fill-rule:nonzero;stroke:none;stroke-width:0.352777"
         aria-label="3" />
      <path
         id="path795"
         d="m 160.62689,139.89216 c 0.10335,-0.25218 0.29766,-0.46715 0.44649,-0.46715 0.0703,0 0.0992,0.0496 0.0992,0.11162 0,0.0207 -0.0124,0.35966 -0.59532,0.47955 z m 0.58291,0.40514 c -0.14468,0.11576 -0.26043,0.21084 -0.41341,0.21084 -0.11989,0 -0.26459,-0.0661 -0.26459,-0.25631 0,-0.0579 0.0124,-0.11576 0.0249,-0.17363 l 0.0827,-0.0124 c 0.45474,-0.062 0.71932,-0.29352 0.71932,-0.51677 0,-0.12402 -0.0868,-0.19017 -0.23151,-0.19017 -0.39688,0 -0.84336,0.47543 -0.84336,0.87644 0,0.17776 0.091,0.401 0.38862,0.401 0.28112,0 0.53742,-0.26044 0.57049,-0.30592 z m 0,0"
         style="fill:#231f20;fill-opacity:1;fill-rule:nonzero;stroke:none;stroke-width:0.352777"
         aria-label="e" />
      <path
         id="path796"
         d="m 161.83096,140.07613 h 0.41341 c 0.0249,0 0.0413,0 0.0496,-0.0207 l 0.0786,-0.19017 -0.0164,-0.0124 c -0.0249,0.0289 -0.0455,0.0538 -0.0992,0.0538 h -0.44235 l -0.23151,0.50023 c -0.004,0.0165 0,0.0289 0.0124,0.0289 0.23151,0.008 0.60357,0.10749 0.60357,0.44649 0,0.26045 -0.15708,0.3762 -0.29353,0.3762 -0.11576,0 -0.16949,-0.13229 -0.30591,-0.13229 -0.0868,0 -0.0868,0.062 -0.0868,0.0827 0,0.0786 0.0992,0.12816 0.26871,0.12816 0.33486,0 0.56637,-0.22324 0.56637,-0.50436 0,-0.19017 -0.0249,-0.25218 -0.11576,-0.35967 -0.12401,-0.15296 -0.32245,-0.19017 -0.49197,-0.21911 z m 0,0"
         style="fill:#231f20;fill-opacity:1;fill-rule:nonzero;stroke:none;stroke-width:0.352777"
         aria-label="5" />
    </g>
  </g>
</svg>
