<?xml version="1.0" encoding="UTF-8" standalone="no"?>
<!-- Created with Inkscape (http://www.inkscape.org/) -->

<svg
   width="32.201138mm"
   height="37.005508mm"
   viewBox="0 0 32.201138 37.005508"
   version="1.1"
   id="svg1"
   inkscape:version="1.3.2 (091e20ef0f, 2023-11-25)"
   sodipodi:docname="4b.svg"
   xmlns:inkscape="http://www.inkscape.org/namespaces/inkscape"
   xmlns:sodipodi="http://sodipodi.sourceforge.net/DTD/sodipodi-0.dtd"
   xmlns="http://www.w3.org/2000/svg"
   xmlns:svg="http://www.w3.org/2000/svg">
  <sodipodi:namedview
     id="namedview1"
     pagecolor="#ffffff"
     bordercolor="#000000"
     borderopacity="0.25"
     inkscape:showpageshadow="2"
     inkscape:pageopacity="0.0"
     inkscape:pagecheckerboard="0"
     inkscape:deskcolor="#d1d1d1"
     inkscape:document-units="mm"
     inkscape:zoom="4.6609428"
     inkscape:cx="62.326447"
     inkscape:cy="80.455826"
     inkscape:window-width="2560"
     inkscape:window-height="1600"
     inkscape:window-x="0"
     inkscape:window-y="0"
     inkscape:window-maximized="1"
     inkscape:current-layer="layer1">
    <inkscape:page
       x="0"
       y="0"
       width="32.201138"
       height="37.005508"
       id="page1"
       margin="5.0000005"
       bleed="0" />
  </sodipodi:namedview>
  <defs
     id="defs1"><clipPath
   clipPathUnits="userSpaceOnUse"
   id="clipPath808">
  <path
     d="m 124.51,579.17 h 182.98 v 79.656 H 124.51 Z"
     transform="translate(-292.59998,-635.23302)"
     id="path808" />
</clipPath>
<clipPath
   clipPathUnits="userSpaceOnUse"
   id="clipPath806">
  <path
     d="m 124.51,579.17 h 182.98 v 79.656 H 124.51 Z"
     transform="translate(-261.08401,-635.23302)"
     id="path806" />
</clipPath>
<clipPath
   clipPathUnits="userSpaceOnUse"
   id="clipPath804">
  <path
     d="m 124.51,579.17 h 182.98 v 79.656 H 124.51 Z"
     transform="translate(-292.59998,-604.18002)"
     id="path804" />
</clipPath>
<clipPath
   clipPathUnits="userSpaceOnUse"
   id="clipPath802">
  <path
     d="m 124.51,579.17 h 182.98 v 79.656 H 124.51 Z"
     transform="translate(-261.08401,-604.18002)"
     id="path802" />
</clipPath>
<clipPath
   clipPathUnits="userSpaceOnUse"
   id="clipPath800">
  <path
     d="m 124.51,579.17 h 182.98 v 79.656 H 124.51 Z"
     transform="translate(-291.09998,-604.18002)"
     id="path800" />
</clipPath>
1&quot; /&gt;3&quot; /&gt;2&quot; /&gt;4&quot; /&gt;</defs>
  <g
     inkscape:label="Layer 1"
     inkscape:groupmode="layer"
     id="layer1"
     transform="translate(-83.635408,-120.67709)">
    <rect
       style="fill:#ffffff;stroke-width:1;stroke-linecap:round;stroke-linejoin:round"
       id="rect1"
       width="32.201138"
       height="37.005508"
       x="83.635406"
       y="120.67709" />
    <g
       id="g1">
      <path
         id="path799"
         d="m 0,0 v 31.106 m 0,-52.624 c -6.569,0 -9.037,5.195 -8.115,10.955 C -7.084,-4.122 -2.73,0 0,0 2.246,0 7.084,-4.122 8.113,-10.563 9.037,-16.323 6.569,-21.518 0,-21.518 Z m -31.486,74.036 c -6.569,0 -9.037,-5.194 -8.115,-10.954 1.031,-6.441 5.384,-10.563 8.115,-10.563 2.246,0 7.084,4.122 8.114,10.563 0.923,5.76 -1.545,10.954 -8.114,10.954 z m 31.486,0 c -6.569,0 -9.037,-5.194 -8.115,-10.954 C -7.084,35.123 -2.73,31.001 0,31.001 c 2.246,0 7.084,4.122 8.113,10.563 C 9.037,47.324 6.569,52.518 0,52.518 Z M 0,31.053 C 1.311,29.665 -4.646,20.846 -13.364,12.272 -22.081,3.696 -30.26,-1.39 -31.569,0.001 -32.877,1.389 -26.963,10.202 -18.244,18.777 -9.528,27.354 -1.309,32.442 0,31.053 Z"
         style="fill:none;stroke:#00adef;stroke-width:0.5;stroke-linecap:butt;stroke-linejoin:miter;stroke-miterlimit:4;stroke-dasharray:none;stroke-opacity:1"
         transform="matrix(0.35277776,0,0,-0.35277776,105.10803,144.29246)"
         clip-path="url(#clipPath800)" />
      <path
         id="path801"
         d="M 0,0 C 0,-0.828 -0.671,-1.5 -1.5,-1.5 -2.328,-1.5 -3,-0.828 -3,0 -3,0.827 -2.328,1.5 -1.5,1.5 -0.671,1.5 0,0.827 0,0"
         style="fill:#231f20;fill-opacity:1;fill-rule:nonzero;stroke:none"
         transform="matrix(0.35277776,0,0,-0.35277776,94.51906,144.29246)"
         clip-path="url(#clipPath802)" />
      <path
         id="path803"
         d="M 0,0 C 0,-0.828 -0.672,-1.5 -1.5,-1.5 -2.328,-1.5 -3,-0.828 -3,0 -3,0.827 -2.328,1.5 -1.5,1.5 -0.672,1.5 0,0.827 0,0"
         style="fill:#231f20;fill-opacity:1;fill-rule:nonzero;stroke:none"
         transform="matrix(0.35277776,0,0,-0.35277776,105.6372,144.29246)"
         clip-path="url(#clipPath804)" />
      <path
         id="path805"
         d="M 0,0 C 0,-0.828 -0.671,-1.5 -1.5,-1.5 -2.328,-1.5 -3,-0.828 -3,0 -3,0.829 -2.328,1.5 -1.5,1.5 -0.671,1.5 0,0.829 0,0"
         style="fill:#231f20;fill-opacity:1;fill-rule:nonzero;stroke:none"
         transform="matrix(0.35277776,0,0,-0.35277776,94.51906,133.33765)"
         clip-path="url(#clipPath806)" />
      <path
         id="path807"
         d="M 0,0 C 0,-0.828 -0.672,-1.5 -1.5,-1.5 -2.328,-1.5 -3,-0.828 -3,0 -3,0.829 -2.328,1.5 -1.5,1.5 -0.672,1.5 0,0.829 0,0"
         style="fill:#231f20;fill-opacity:1;fill-rule:nonzero;stroke:none"
         transform="matrix(0.35277776,0,0,-0.35277776,105.6372,133.33765)"
         clip-path="url(#clipPath808)" />
      <path
         id="path809"
         d="m 92.811809,135.74512 h 0.587058 v -0.0331 c -0.161237,0 -0.202592,-0.0207 -0.202592,-0.12402 v -1.26917 l -0.0164,-0.004 -0.380338,0.19017 v 0.0331 c 0.119909,-0.0496 0.119909,-0.0496 0.1447,-0.0496 0.07027,0 0.07027,0.0579 0.07027,0.0992 v 0.95911 c 0,0.1571 -0.07853,0.16124 -0.202565,0.16537 z m 0,0"
         style="fill:#231f20;fill-opacity:1;fill-rule:nonzero;stroke:none;stroke-width:0.352777"
         aria-label="" />
      <path
         id="path810"
         d="m 107.29359,143.62165 c 0.14883,-0.004 0.19844,0.008 0.27699,0.0455 0.13642,0.0703 0.16124,0.22738 0.16124,0.28112 0,0.1571 -0.0868,0.3266 -0.28525,0.3266 -0.12403,0 -0.20259,-0.1199 -0.30181,-0.1199 -0.0331,0 -0.0827,0.0165 -0.0827,0.0744 0,0.11162 0.18606,0.11989 0.23567,0.11989 0.33073,0 0.58703,-0.18604 0.58703,-0.48783 0,-0.27698 -0.1819,-0.3514 -0.26871,-0.3886 0.13642,-0.091 0.19431,-0.1819 0.19431,-0.29766 0,-0.0868 -0.0579,-0.28525 -0.33073,-0.28525 -0.14058,0 -0.3266,0.0661 -0.41341,0.34313 l 0.0331,0.008 c 0.0289,-0.0579 0.11988,-0.22324 0.31004,-0.22324 0.15711,0 0.23566,0.11162 0.23566,0.21911 0,0.1943 -0.16123,0.29765 -0.35142,0.35553 z m 0,0"
         style="fill:#231f20;fill-opacity:1;fill-rule:nonzero;stroke:none;stroke-width:0.352777"
         aria-label="" />
      <path
         id="path811"
         d="m 107.97574,135.70585 -0.0249,-0.0124 c -0.0827,0.13643 -0.12401,0.14056 -0.20256,0.14056 h -0.50438 l 0.35555,-0.37207 c 0.0909,-0.0992 0.26871,-0.29352 0.26871,-0.51676 0,-0.23565 -0.19016,-0.38034 -0.38447,-0.38034 -0.18603,0 -0.38446,0.0992 -0.44648,0.42168 l 0.0455,0.008 c 0.0455,-0.11162 0.10747,-0.27285 0.30178,-0.27285 0.24805,0 0.30179,0.1943 0.30179,0.30179 0,0.1571 -0.0909,0.34727 -0.277,0.5457 l -0.37618,0.40101 v 0.0248 h 0.82682 z m 0,0"
         style="fill:#231f20;fill-opacity:1;fill-rule:nonzero;stroke:none;stroke-width:0.352777"
         aria-label="" />
      <path
         id="path812"
         d="m 92.903805,145.56468 h -0.219102 v -0.94258 h -0.09096 l -0.665586,0.94258 v 0.13229 h 0.595312 v 0.35553 h 0.161237 v -0.35553 h 0.219102 z m -0.380339,0 h -0.508502 l 0.500221,-0.71934 h 0.0082 z m 0,0"
         style="fill:#231f20;fill-opacity:1;fill-rule:nonzero;stroke:none;stroke-width:0.352777"
         aria-label="" />
      <path
         id="path813"
         d="m 88.978473,127.02938 c 0.103346,-0.25219 0.297656,-0.46716 0.446484,-0.46716 0.07027,0 0.09922,0.0496 0.09922,0.11162 0,0.0207 -0.01243,0.35967 -0.595312,0.47956 z m 0.582904,0.40514 c -0.144701,0.11575 -0.260456,0.21084 -0.413412,0.21084 -0.119883,0 -0.264583,-0.0661 -0.264583,-0.25632 0,-0.0579 0.01243,-0.11575 0.02487,-0.17363 l 0.08268,-0.0124 c 0.454766,-0.062 0.719349,-0.29352 0.719349,-0.51676 0,-0.12403 -0.08681,-0.19017 -0.23151,-0.19017 -0.396875,0 -0.84336,0.47542 -0.84336,0.87643 0,0.17777 0.09094,0.40101 0.388594,0.40101 0.28112,0 0.537448,-0.26045 0.570521,-0.30593 z m 0,0"
         style="fill:#231f20;fill-opacity:1;fill-rule:nonzero;stroke:none;stroke-width:0.352777"
         aria-label="e" />
      <path
         id="path814"
         d="m 90.049189,128.44221 h 0.587031 v -0.0331 c -0.161211,0 -0.202565,-0.0207 -0.202565,-0.12403 v -1.26917 l -0.0164,-0.004 -0.380339,0.19017 v 0.0331 c 0.119883,-0.0496 0.119883,-0.0496 0.144701,-0.0496 0.07027,0 0.07027,0.0579 0.07027,0.0992 v 0.95912 c 0,0.1571 -0.07855,0.16123 -0.202565,0.16536 z m 0,0"
         style="fill:#231f20;fill-opacity:1;fill-rule:nonzero;stroke:none;stroke-width:0.352777"
         aria-label="1" />
      <path
         id="path815"
         d="m 98.493128,143.22477 c 0.103346,-0.25218 0.297656,-0.46715 0.446484,-0.46715 0.07027,0 0.09922,0.0496 0.09922,0.11162 0,0.0207 -0.01244,0.35967 -0.595313,0.47955 z m 0.582903,0.40514 c -0.1447,0.11576 -0.260456,0.21084 -0.413411,0.21084 -0.119883,0 -0.264583,-0.0661 -0.264583,-0.25631 0,-0.0579 0.01243,-0.11576 0.02487,-0.17363 l 0.08268,-0.0124 c 0.454739,-0.062 0.719322,-0.29352 0.719322,-0.51677 0,-0.12402 -0.08681,-0.19016 -0.23151,-0.19016 -0.396875,0 -0.843359,0.47542 -0.843359,0.87643 0,0.17776 0.09096,0.40101 0.38862,0.40101 0.281119,0 0.537421,-0.26045 0.570494,-0.30593 z m 0,0"
         style="fill:#231f20;fill-opacity:1;fill-rule:nonzero;stroke:none;stroke-width:0.352777"
         aria-label="e" />
      <path
         id="path816"
         d="m 100.45681,144.14668 h -0.2191 v -0.94258 h -0.091 l -0.665589,0.94258 v 0.13229 h 0.595309 v 0.35553 h 0.16124 v -0.35553 h 0.2191 z m -0.38034,0 h -0.508499 l 0.500249,-0.71934 h 0.008 z m 0,0"
         style="fill:#231f20;fill-opacity:1;fill-rule:nonzero;stroke:none;stroke-width:0.352777"
         aria-label="4" />
      <path
         id="path817"
         d="m 97.967057,134.45528 c 0.103346,-0.25218 0.297656,-0.46716 0.446484,-0.46716 0.07027,0 0.09922,0.0496 0.09922,0.11163 0,0.0207 -0.01244,0.35966 -0.595313,0.47955 z m 0.582903,0.40514 c -0.1447,0.11576 -0.260456,0.21084 -0.413411,0.21084 -0.119883,0 -0.264584,-0.0661 -0.264584,-0.25631 0,-0.0579 0.01244,-0.11576 0.02487,-0.17364 l 0.08268,-0.0124 c 0.454739,-0.062 0.719322,-0.29353 0.719322,-0.51677 0,-0.12402 -0.08681,-0.19017 -0.23151,-0.19017 -0.396875,0 -0.843359,0.47542 -0.843359,0.87643 0,0.17777 0.09096,0.40101 0.38862,0.40101 0.281119,0 0.537421,-0.26045 0.570494,-0.30592 z m 0,0"
         style="fill:#231f20;fill-opacity:1;fill-rule:nonzero;stroke:none;stroke-width:0.352777"
         aria-label="e" />
      <path
         id="path818"
         d="m 99.253805,135.17255 c 0.148828,-0.004 0.198437,0.008 0.276992,0.0455 0.136419,0.0703 0.161211,0.22738 0.161211,0.28112 0,0.1571 -0.08681,0.3266 -0.285248,0.3266 -0.12401,0 -0.202565,-0.11989 -0.301783,-0.11989 -0.03307,0 -0.08268,0.0165 -0.08268,0.0744 0,0.11163 0.186029,0.11989 0.235638,0.11989 0.33073,0 0.587058,-0.18603 0.587058,-0.48782 0,-0.27699 -0.181901,-0.3514 -0.268737,-0.38861 0.136445,-0.0909 0.19431,-0.1819 0.19431,-0.29765 0,-0.0868 -0.05786,-0.28526 -0.33073,-0.28526 -0.140546,0 -0.326601,0.0661 -0.413411,0.34313 l 0.03307,0.008 c 0.02895,-0.0579 0.119883,-0.22324 0.310065,-0.22324 0.157083,0 0.235638,0.11162 0.235638,0.2191 0,0.19431 -0.161237,0.29766 -0.351393,0.35554 z m 0,0"
         style="fill:#231f20;fill-opacity:1;fill-rule:nonzero;stroke:none;stroke-width:0.352777"
         aria-label="3" />
      <path
         id="path819"
         d="m 109.00926,126.84541 c 0.10334,-0.25218 0.29765,-0.46716 0.44648,-0.46716 0.0703,0 0.0992,0.0496 0.0992,0.11162 0,0.0207 -0.0124,0.35967 -0.59531,0.47956 z m 0.5829,0.40514 c -0.14467,0.11576 -0.26043,0.21084 -0.41341,0.21084 -0.11988,0 -0.26458,-0.0661 -0.26458,-0.25631 0,-0.0579 0.0124,-0.11576 0.0249,-0.17364 l 0.0827,-0.0124 c 0.45474,-0.062 0.71932,-0.29352 0.71932,-0.51676 0,-0.12403 -0.0868,-0.19017 -0.23151,-0.19017 -0.39687,0 -0.84336,0.47542 -0.84336,0.87643 0,0.17777 0.091,0.40101 0.38862,0.40101 0.28112,0 0.53742,-0.26045 0.5705,-0.30592 z m 0,0"
         style="fill:#231f20;fill-opacity:1;fill-rule:nonzero;stroke:none;stroke-width:0.352777"
         aria-label="e" />
      <path
         id="path820"
         d="m 110.83655,127.97609 -0.0249,-0.0124 c -0.0827,0.13643 -0.12404,0.14056 -0.20257,0.14056 h -0.50437 l 0.35554,-0.37207 c 0.0909,-0.0992 0.26872,-0.29352 0.26872,-0.51676 0,-0.23565 -0.19019,-0.38034 -0.38447,-0.38034 -0.18606,0 -0.38449,0.0992 -0.44648,0.42168 l 0.0455,0.008 c 0.0455,-0.11162 0.1075,-0.27285 0.30181,-0.27285 0.24805,0 0.30178,0.1943 0.30178,0.30179 0,0.1571 -0.091,0.34727 -0.27699,0.5457 l -0.37621,0.40101 v 0.0248 h 0.82682 z m 0,0"
         style="fill:#231f20;fill-opacity:1;fill-rule:nonzero;stroke:none;stroke-width:0.352777"
         aria-label="2" />
      <path
         id="path821"
         d="m 106.2115,138.8116 c 0.10337,-0.25218 0.29766,-0.46715 0.44648,-0.46715 0.0703,0 0.0992,0.0496 0.0992,0.11162 0,0.0207 -0.0124,0.35967 -0.59531,0.47956 z m 0.58293,0.40515 c -0.1447,0.11575 -0.26046,0.21084 -0.41341,0.21084 -0.11991,0 -0.26459,-0.0662 -0.26459,-0.25632 0,-0.0579 0.0124,-0.11575 0.0249,-0.17363 l 0.0827,-0.0124 c 0.45476,-0.062 0.71935,-0.29352 0.71935,-0.51676 0,-0.12403 -0.0868,-0.19017 -0.23151,-0.19017 -0.39688,0 -0.84336,0.47542 -0.84336,0.87643 0,0.17777 0.0909,0.40101 0.38859,0.40101 0.28112,0 0.53745,-0.26045 0.57052,-0.30592 z m 0,0"
         style="fill:#231f20;fill-opacity:1;fill-rule:nonzero;stroke:none;stroke-width:0.352777"
         aria-label="e" />
      <path
         id="path822"
         d="m 107.41866,138.99247 h 0.41341 c 0.0249,0 0.0414,0 0.0496,-0.0207 l 0.0786,-0.19017 -0.0164,-0.0124 c -0.0249,0.0289 -0.0455,0.0537 -0.0992,0.0537 h -0.44235 l -0.23151,0.50023 c -0.004,0.0165 0,0.0289 0.0124,0.0289 0.23151,0.008 0.60357,0.10749 0.60357,0.44648 0,0.26045 -0.15708,0.37621 -0.2935,0.37621 -0.11576,0 -0.16952,-0.1323 -0.30594,-0.1323 -0.0868,0 -0.0868,0.062 -0.0868,0.0827 0,0.0785 0.0992,0.12816 0.26871,0.12816 0.33486,0 0.56637,-0.22325 0.56637,-0.50437 0,-0.19017 -0.0249,-0.25218 -0.11576,-0.35967 -0.12401,-0.15296 -0.32245,-0.19016 -0.49194,-0.2191 z m 0,0"
         style="fill:#231f20;fill-opacity:1;fill-rule:nonzero;stroke:none;stroke-width:0.352777"
         aria-label="5" />
      <path
         id="path823"
         d="m 108.39225,151.23979 c 0.10334,-0.25219 0.29765,-0.46716 0.44648,-0.46716 0.0703,0 0.0992,0.0496 0.0992,0.11162 0,0.0207 -0.0124,0.35967 -0.59531,0.47956 z m 0.5829,0.40514 c -0.14467,0.11575 -0.26043,0.21084 -0.41341,0.21084 -0.11988,0 -0.26458,-0.0661 -0.26458,-0.25632 0,-0.0579 0.0124,-0.11575 0.0249,-0.17363 l 0.0827,-0.0124 c 0.45474,-0.062 0.71932,-0.29352 0.71932,-0.51677 0,-0.12402 -0.0868,-0.19016 -0.23151,-0.19016 -0.39687,0 -0.84336,0.47542 -0.84336,0.87643 0,0.17777 0.091,0.40101 0.38862,0.40101 0.28112,0 0.53742,-0.26045 0.5705,-0.30593 z m 0,0"
         style="fill:#231f20;fill-opacity:1;fill-rule:nonzero;stroke:none;stroke-width:0.352777"
         aria-label="e" />
      <path
         id="path824"
         d="m 110.16064,151.20671 c -0.51263,0.0165 -0.8723,0.40101 -0.8723,0.83096 0,0.44648 0.2191,0.64492 0.46715,0.64492 0.37621,0 0.45476,-0.33486 0.45476,-0.49196 0,-0.28112 -0.16536,-0.44235 -0.39274,-0.44235 -0.11576,0 -0.16124,0.0248 -0.277,0.0951 0.0414,-0.26044 0.24805,-0.5457 0.62426,-0.60358 z m -0.42994,0.63665 c 0.22323,0 0.28937,0.21498 0.28937,0.42995 0,0.23978 -0.0992,0.3514 -0.23151,0.3514 -0.16124,0 -0.30178,-0.15709 -0.30178,-0.51263 0,-0.12816 0.0206,-0.17777 0.0413,-0.19844 0.0538,-0.0496 0.12817,-0.0703 0.2026,-0.0703 z m 0,0"
         style="fill:#231f20;fill-opacity:1;fill-rule:nonzero;stroke:none;stroke-width:0.352777"
         aria-label="6" />
    </g>
  </g>
</svg>
